<?xml version="1.0" encoding="utf-8"?>
<!-- Generator: Adobe Illustrator 26.0.3, SVG Export Plug-In . SVG Version: 6.00 Build 0)  -->
<svg version="1.1" xmlns="http://www.w3.org/2000/svg" xmlns:xlink="http://www.w3.org/1999/xlink" x="0px" y="0px"
	 viewBox="0 0 503.6 377.7" style="enable-background:new 0 0 503.6 377.7;" xml:space="preserve">
<style type="text/css">
	.st0{fill:#FFF0DD;}
	.st1{fill:#6B5C52;}
	.st2{fill:#B8BBBF;}
	.st3{fill:#F9E9CD;}
	.st4{fill:#FFE6BD;}
	.st5{fill:#F5F5F2;}
	.st6{fill:#637189;}
	.st7{fill:#9E9082;}
	.st8{fill:#938D89;}
	.st9{fill:#FFDBC0;}
	.st10{fill:#6E85BD;}
	.st11{fill:#E8D9D6;}
	.st12{fill:#A7BC79;}
	.st13{fill:#FF8080;}
	.st14{fill:#3D3533;}
	.st15{fill:#A1683D;}
	.st16{fill:#CCE0FF;}
	.st17{fill:#383531;}
	.st18{fill:#757060;}
	.st19{fill:#D29F7E;}
	.st20{opacity:0.88;clip-path:url(#SVGID_00000173846346564920218190000008364211723400476073_);}
	.st21{fill:#322015;}
	.st22{fill:#1B1C1E;}
	.st23{fill:none;stroke:#1B1C1E;stroke-width:1.2604;stroke-linecap:round;stroke-linejoin:round;stroke-miterlimit:10;}
	.st24{opacity:0.84;clip-path:url(#SVGID_00000007422020267486732310000010237086841196976793_);}
	.st25{clip-path:url(#SVGID_00000157301571870578363790000016813648876214361492_);}
	.st26{fill:none;stroke:#1B1C1E;stroke-width:1.2604;stroke-linecap:round;stroke-linejoin:round;}
	.st27{fill:#D1493B;}
	.st28{fill:#FFAE1F;}
	.st29{opacity:0.88;clip-path:url(#SVGID_00000137828256748245471890000000900498010990816676_);}
	.st30{opacity:0.7;clip-path:url(#SVGID_00000070090329383786179550000016222447849476922043_);}
	.st31{fill:#2C2C2D;}
	.st32{opacity:0.87;clip-path:url(#SVGID_00000160891258253396371280000007314863957610157482_);}
	.st33{fill:#080809;}
	.st34{opacity:0.7;clip-path:url(#SVGID_00000003085086733272801970000003570379471892980634_);}
	.st35{fill:#FBAF5E;}
	.st36{opacity:0.62;clip-path:url(#SVGID_00000148638991393129565560000010549352917938363309_);}
	.st37{fill:#3E240C;}
	.st38{fill:#BC763C;}
	.st39{opacity:0.62;clip-path:url(#SVGID_00000124883301629842018900000004224392462840957886_);}
	.st40{opacity:0.62;clip-path:url(#SVGID_00000080891215720219822430000003454794851708529310_);}
	.st41{fill:#967258;}
	.st42{opacity:0.53;clip-path:url(#SVGID_00000038383957439787504600000009264779110449250728_);}
	.st43{opacity:0.73;clip-path:url(#SVGID_00000119823684405549174890000006975100478264874630_);}
	.st44{fill:none;stroke:#1B1C1E;stroke-width:1.1311;stroke-linecap:round;stroke-linejoin:round;stroke-miterlimit:10;}
	.st45{fill:#3D291C;}
	.st46{fill:#3D291C;stroke:#967258;stroke-width:1.2604;stroke-linecap:round;stroke-linejoin:round;stroke-miterlimit:10;}
	.st47{fill:#D6D4C8;}
	.st48{fill:#1B1C1E;stroke:#967258;stroke-width:1.2604;stroke-linecap:round;stroke-linejoin:round;stroke-miterlimit:10;}
	.st49{opacity:0.52;clip-path:url(#SVGID_00000072964537239546169650000017375228848206714031_);}
	.st50{fill:#B37D4F;}
	.st51{opacity:0.88;clip-path:url(#SVGID_00000034063234231875083320000017875556016097247619_);}
	.st52{fill:#343434;}
	.st53{fill:#BC6464;}
	.st54{opacity:0.88;clip-path:url(#SVGID_00000098935615159276289260000009255562143884681906_);}
	.st55{fill:#1B1C1E;stroke:#1B1C1E;stroke-width:1.1485;stroke-linecap:round;stroke-linejoin:round;stroke-miterlimit:10;}
	.st56{fill:#8C7265;}
	.st57{opacity:0.88;clip-path:url(#SVGID_00000011719051640238900590000001620937219847948966_);}
	.st58{fill:#1B1C1E;stroke:#1B1C1E;stroke-width:1.3664;stroke-linecap:round;stroke-linejoin:round;stroke-miterlimit:10;}
	.st59{opacity:0.88;clip-path:url(#SVGID_00000059997931445371579810000002495999098204193441_);}
	.st60{fill:none;stroke:#1B1C1E;stroke-width:1.3664;stroke-linecap:round;stroke-linejoin:round;stroke-miterlimit:10;}
	.st61{opacity:0.88;clip-path:url(#SVGID_00000020393580469153743610000008351727770564861074_);}
	.st62{opacity:0.88;clip-path:url(#SVGID_00000106120497020448579760000014645586674533360274_);}
	.st63{fill:#5F6C72;}
	.st64{fill:#1B1C1E;stroke:#1B1C1E;stroke-width:1.5329;stroke-linecap:round;stroke-linejoin:round;stroke-miterlimit:10;}
	.st65{opacity:0.88;clip-path:url(#SVGID_00000100352600386159125040000008147346511855065527_);}
	.st66{clip-path:url(#SVGID_00000130619161081212660780000013820618599552894354_);}
	.st67{opacity:0.58;clip-path:url(#SVGID_00000143617483094932402200000001658853449804140422_);}
	.st68{opacity:0.58;clip-path:url(#SVGID_00000037659339499396382580000002926824928509008818_);}
	.st69{fill:#1B1C1E;stroke:#1B1C1E;stroke-width:1.818;stroke-linecap:round;stroke-linejoin:round;stroke-miterlimit:10;}
	.st70{fill:#FFFFFF;}
	.st71{fill:#CC813E;}
	.st72{opacity:0.58;clip-path:url(#SVGID_00000106841382893560309460000003751992496303043258_);}
	.st73{fill:#AA8C7D;}
	.st74{opacity:0.88;clip-path:url(#SVGID_00000080911602663475265230000001975962715838165430_);}
	.st75{opacity:0.88;clip-path:url(#SVGID_00000123433139418433728520000014100403942829560251_);}
	.st76{fill:#1B1C1E;stroke:#1B1C1E;stroke-width:1.2604;stroke-linecap:round;stroke-linejoin:round;stroke-miterlimit:10;}
	.st77{opacity:0.88;clip-path:url(#SVGID_00000116207893732401966910000005863838865561853825_);}
	.st78{opacity:0.88;clip-path:url(#SVGID_00000012457173265711287760000010982615479072658820_);}
	.st79{opacity:0.88;clip-path:url(#SVGID_00000032648493229051419480000009143220121983900041_);}
	.st80{fill:none;stroke:#1B1C1E;stroke-miterlimit:10;}
	.st81{fill:#B8BDC4;}
	.st82{fill:#B4D3CD;}
	.st83{opacity:0.88;clip-path:url(#SVGID_00000008864044871489366000000009443231411786009003_);}
	.st84{opacity:0.88;clip-path:url(#SVGID_00000098934213274323242390000013755074555137034634_);}
	.st85{fill:#EFBE9D;}
	.st86{opacity:0.88;clip-path:url(#SVGID_00000103264995381415398220000012727305232723929523_);}
	.st87{fill:#443730;}
	.st88{opacity:0.88;clip-path:url(#SVGID_00000027575445784523029650000001198313185233803679_);}
	.st89{opacity:0.88;clip-path:url(#SVGID_00000143580002992475470180000002113653086007468221_);}
	.st90{fill:#E2AF8D;}
	.st91{fill:none;stroke:#1B1C1E;stroke-linecap:round;stroke-linejoin:round;stroke-miterlimit:10;}
	.st92{fill:#1B1C1E;stroke:#1B1C1E;stroke-miterlimit:10;}
	.st93{fill:#FCEA9F;}
	.st94{fill:#F6EBEF;}
	.st95{fill:#D4DADD;}
	.st96{opacity:0.61;clip-path:url(#SVGID_00000143601012226116560280000001541081966362167965_);}
	.st97{fill:#353737;}
	.st98{fill:#B3B9BC;}
	.st99{opacity:0.61;clip-path:url(#SVGID_00000089568251320196998590000012599512536481029263_);}
	.st100{opacity:0.61;clip-path:url(#SVGID_00000129902060969515886350000013660179068901896631_);}
	.st101{fill:#B3B9BC;stroke:#1B1C1E;stroke-miterlimit:10;}
	.st102{fill:#CCE2CF;stroke:#1B1C1E;stroke-miterlimit:10;}
	.st103{fill:#EAD6DE;}
	.st104{fill:#1B1C1E;stroke:#1B1C1E;stroke-width:1.0185;stroke-miterlimit:10;}
	.st105{fill:none;stroke:#1B1C1E;stroke-width:1.0185;stroke-miterlimit:10;}
	.st106{fill:#FBAF5E;stroke:#1B1C1E;stroke-miterlimit:10;}
	.st107{fill:#513F3B;}
	.st108{opacity:0.88;clip-path:url(#SVGID_00000047024959018774610910000002359408653368320389_);}
	.st109{opacity:0.88;clip-path:url(#SVGID_00000145039660390914512150000005408263045718788517_);}
	.st110{fill:#8B2403;}
	.st111{fill:#EBDAD2;}
	.st112{fill:#A84E39;}
	.st113{fill:#751A01;}
	.st114{fill:#EBDAD2;stroke:#1B1C1E;stroke-miterlimit:10;}
	.st115{opacity:0.78;clip-path:url(#SVGID_00000013157634913987320000000017789444732888546722_);}
	.st116{fill:#290B01;}
	.st117{opacity:0.78;clip-path:url(#SVGID_00000084494592797401912080000010217645021421316786_);}
	.st118{opacity:0.78;clip-path:url(#SVGID_00000106847832282174006360000009210941666559692949_);}
	.st119{opacity:0.78;clip-path:url(#SVGID_00000047770499488802463270000006554271015658077336_);}
	.st120{fill:#030203;}
	.st121{fill:#86889A;}
	.st122{fill:#0B060A;}
	.st123{fill:#736E72;}
	.st124{fill:#9E9AA0;}
	.st125{fill:#18172A;}
	.st126{fill:#3B4D84;}
	.st127{fill:#FFA3AC;}
	.st128{fill:none;stroke:#0B080B;stroke-width:1.2005;stroke-miterlimit:10;}
	.st129{fill:#E7E6E8;}
	.st130{fill:#0B080B;}
	.st131{fill:none;stroke:#1B1C1E;stroke-width:1.2005;stroke-linecap:round;stroke-linejoin:round;stroke-miterlimit:10;}
	.st132{opacity:0.78;clip-path:url(#SVGID_00000126295109352432845210000009768454745667447949_);}
	.st133{opacity:0.78;clip-path:url(#SVGID_00000014612524378444969440000015863060799854862722_);}
	.st134{fill:#89745E;}
	.st135{opacity:0.78;clip-path:url(#SVGID_00000085953069819944112440000008305498484161044667_);}
	.st136{fill:#060606;}
	.st137{fill:#4D483E;}
	.st138{fill:#FF8A00;}
	.st139{fill:#50483F;}
	.st140{fill:#131313;}
	.st141{fill:#E8DBCD;}
	.st142{opacity:0.78;clip-path:url(#SVGID_00000008866735143015553470000015835254201140029084_);}
	.st143{opacity:0.78;clip-path:url(#SVGID_00000181085480939649568870000013697591907465873564_);}
	.st144{fill:#191212;}
	.st145{fill:#6C5353;}
	.st146{opacity:0.78;clip-path:url(#SVGID_00000160907410879674944030000000004413346988212114_);}
	.st147{fill:#B3B3B3;}
	.st148{fill:#FF9F2C;}
	.st149{fill:none;stroke:#343434;stroke-miterlimit:10;}
	.st150{fill:#21262A;}
	.st151{fill:#563D3D;}
	.st152{opacity:0.78;clip-path:url(#SVGID_00000155115210523578798980000012730594162410875313_);}
	.st153{fill:#181716;}
	.st154{fill:#706153;}
	.st155{fill:none;stroke:#1B1C1E;stroke-width:0.8477;stroke-miterlimit:10;}
	.st156{fill:#FCBD30;}
	.st157{fill:#E8D9CD;}
	.st158{fill:#534E4A;}
	.st159{opacity:0.78;clip-path:url(#SVGID_00000072267050777970671580000000630443140782951344_);}
	.st160{fill:#7DA050;}
	.st161{opacity:0.78;clip-path:url(#SVGID_00000045593368286093262250000003264627443475531183_);}
	.st162{opacity:0.78;clip-path:url(#SVGID_00000044145119950810938050000002700116285988743306_);}
	.st163{opacity:0.78;clip-path:url(#SVGID_00000071535209330203149650000008901551510920803765_);}
	.st164{fill:#EFEECE;}
	.st165{opacity:0.78;clip-path:url(#SVGID_00000075156614250919156210000015131634248237438897_);}
	.st166{fill:#93543B;}
	.st167{fill:#FF510C;}
	.st168{opacity:0.78;clip-path:url(#SVGID_00000110430757799369431600000001064903485505769626_);}
	.st169{fill:#4B1804;}
	.st170{fill:#000A0E;}
	.st171{opacity:0.78;clip-path:url(#SVGID_00000085241718416631952850000016858365110081989763_);}
	.st172{opacity:0.78;clip-path:url(#SVGID_00000033366586237667174500000010209194864281116088_);}
	.st173{fill:#F9C8A7;}
	.st174{fill:#1B1C1E;stroke:#1B1C1E;stroke-width:1.3738;stroke-miterlimit:10;}
	.st175{fill:none;stroke:#1B1C1E;stroke-width:1.3;stroke-miterlimit:10;}
	.st176{fill:#FFCB6E;}
	.st177{fill:#CECECE;}
	.st178{fill:none;stroke:#1B1C1E;stroke-width:1.3037;stroke-miterlimit:10;}
	.st179{fill:#FFFFFF;stroke:#1B1C1E;stroke-width:1.3;stroke-miterlimit:10;}
	.st180{opacity:0.78;clip-path:url(#SVGID_00000152967089981946716600000010151861968708043654_);}
	.st181{fill:none;stroke:#1B1C1E;stroke-width:1.3738;stroke-miterlimit:10;}
	.st182{opacity:0.45;clip-path:url(#SVGID_00000022557817657571779180000013526192675627059645_);}
	.st183{opacity:0.45;clip-path:url(#SVGID_00000074435039711371907550000013451660715277705890_);}
	.st184{opacity:0.45;clip-path:url(#SVGID_00000127760228500643785040000007264326593633516731_);}
	.st185{opacity:0.45;clip-path:url(#SVGID_00000018197225081386012130000000649073807465855146_);}
	.st186{fill:none;stroke:#1B1C1E;stroke-width:1.3738;stroke-linecap:round;stroke-linejoin:round;stroke-miterlimit:10;}
	.st187{fill:#FFB192;}
	.st188{fill:#EB8226;}
	.st189{fill:#F7EDE1;}
	.st190{opacity:0.78;clip-path:url(#SVGID_00000154406176712447912590000012908794514050897054_);}
	.st191{opacity:0.78;clip-path:url(#SVGID_00000096740476601075100800000007417528037701701010_);}
	.st192{opacity:0.5;clip-path:url(#SVGID_00000089537170834860386190000004759287565492031904_);}
	.st193{opacity:0.5;clip-path:url(#SVGID_00000054977440387595480490000003269431636514169995_);}
	.st194{fill:none;stroke:#06002C;stroke-width:1.3038;stroke-miterlimit:10;}
	.st195{fill:#F7A9B4;}
	.st196{fill:#06002C;}
	.st197{opacity:0.5;clip-path:url(#SVGID_00000028302338929701324170000001203798302426659475_);}
	.st198{fill:none;stroke:#06002C;stroke-width:1.3038;stroke-linecap:round;stroke-linejoin:round;stroke-miterlimit:10;}
	.st199{fill:#9BBEDC;}
	.st200{opacity:0.88;clip-path:url(#SVGID_00000013874688694339684590000007585108408581056940_);}
	.st201{opacity:0.88;clip-path:url(#SVGID_00000103228589096625050970000004470737350404240785_);}
</style>
<g id="Background">
	<rect x="-3.2" y="-2.4" class="st5" width="510" height="382.5"/>
</g>
<g id="Illustration">
	<g>
		<path class="st22" d="M180.3,288.1c0,0-7.8,2.6,13.5,3.4c21.3,0.8,133.8,1.2,145.4,0c11.6-1.2,34.1-0.5,4.2-3.4
			s-60.7-1.2-90.8-2.9C222.5,283.4,184.8,285.1,180.3,288.1z"/>
		<g>
			<path class="st10" d="M244.4,262.2c0,0-23.3-11.6-20.3-4.2l8.4,19.2c3.8,1.8,7.7,3.2,11.9,3.9V262.2z"/>
			<g>
				<defs>
					<path id="SVGID_00000128473135152518662510000014436096544625770677_" d="M244.4,262.2c0,0-23.3-11.6-20.3-4.2l8.4,19.2
						c3.8,1.8,7.7,3.2,11.9,3.9V262.2z"/>
				</defs>
				<clipPath id="SVGID_00000077317355420931230520000008969052472582706577_">
					<use xlink:href="#SVGID_00000128473135152518662510000014436096544625770677_"  style="overflow:visible;"/>
				</clipPath>
				<g style="opacity:0.78;clip-path:url(#SVGID_00000077317355420931230520000008969052472582706577_);">
					<g>
						<g>
							<g>
								<path class="st120" d="M233.4,263.3c0,0.1,0,0.2,0,0.2C233.4,263.5,233.4,263.5,233.4,263.3z"/>
								<path class="st120" d="M227.7,259.8C227.7,259.8,227.7,259.8,227.7,259.8L227.7,259.8L227.7,259.8z"/>
								<path class="st120" d="M227.7,259.8l0.1-0.2C227.8,259.7,227.8,259.7,227.7,259.8z"/>
								<path class="st120" d="M233,265.1c0,0.1,0,0.2,0,0.4L233,265.1z"/>
								<path class="st120" d="M231.8,265.7c0,0-0.1,0.1-0.1,0.1C231.8,265.7,231.8,265.7,231.8,265.7z"/>
								<path class="st120" d="M238.9,265.7C238.9,265.7,238.9,265.6,238.9,265.7C238.9,265.6,238.9,265.7,238.9,265.7z"/>
								<path class="st120" d="M239.1,266.3C239.1,266.3,239.2,266.3,239.1,266.3L239.1,266.3C239.1,266.4,239.1,266.3,239.1,266.3z
									"/>
								<path class="st120" d="M238.8,266.5L238.8,266.5C238.8,266.6,238.8,266.5,238.8,266.5z"/>
								<path class="st120" d="M240.9,270.4l0,0.3C240.9,270.5,240.9,270.4,240.9,270.4z"/>
								<path class="st120" d="M238.9,265.4c0,0.1,0,0.1,0,0.2C238.9,265.5,238.9,265.5,238.9,265.4z"/>
								<path class="st120" d="M233.5,263.2c0,0,0,0.1-0.1,0.1C233.5,263.3,233.5,263.3,233.5,263.2z"/>
								<path class="st120" d="M233.4,265.3L233.4,265.3C233.4,265.3,233.4,265.3,233.4,265.3z"/>
								<path class="st120" d="M225.7,258.1c0-0.1-0.1-0.1-0.1-0.2C225.8,258,225.8,258,225.7,258.1z"/>
								<path class="st120" d="M237.2,265.5c-0.4,0.7,0.2,0.1-0.2,0.8c0-0.2-0.1-0.4-0.3,0c-0.1,0.4,0.3,0.1,0,0.7l0-0.3
									c-0.3,0.2-0.4,0.8-0.4,0.7c0.3-0.9-0.7,0-0.8-0.2l0,0.1l-0.5,0.2c0,0,0,0,0,0c0,0,0-0.1,0.1-0.1c-0.3,0.3-0.7,0.5-0.8,0.3
									c0.2-0.5-0.6-0.5-0.4-1c0,0.2,0.1,0.2,0.3,0.2l0.3-0.5c-0.2-0.1-0.3,0.5-0.3,0.1c0.5-0.7,0.3,0.2,0.4,0.2
									c0.1-0.2,0.1-0.4,0-0.5c0.3,0.1,0.7,0,0.4,0.9c0.2-0.1,0.3-0.4,0.3-0.5c0,0.5,0.4-0.3,0.3,0.1c0.3-0.7-0.2-0.6-0.1-1
									c-0.5,0.4-0.6-0.3-0.8-0.6c-0.3,0.5-0.4,1-0.7,1.2c-0.5,0.2-0.1-0.4-0.1-0.8c-0.3,0.1-0.5,0.8-0.8,0.6l0,0.4
									c-0.6,0.6,0-0.4-0.2-0.3c0.2-0.1,0.3-0.3,0.4-0.2c0.2-0.2,0.1-0.4,0.1-0.5l0,0c0.1-0.4,0.4-0.7,0.1-0.7
									c-0.1,0.5-0.3,0.2-0.5,0.4l0,0.1c-0.1-0.2-0.2-0.3-0.3-0.4l-0.1,0.1c0-0.2,0.3-0.7,0.1-0.7c-0.1,0.2-0.3,0.9-0.4,0.7
									c-0.2,0.3,0,0.5,0.2,0.4c-0.2,0-0.6,0.4-0.5,0.6c-0.3,0.3-0.1-0.3-0.3-0.2c0.1-0.1,0.1-0.3,0.2-0.4
									c-0.3,0.5-0.4-0.2-0.1-0.6l0,0.4c0.3-0.4,0.2-0.8,0.5-1c-0.5,0.6-0.2-0.6-0.7-0.2l0.3-0.3c-0.5-0.1-0.3-1-0.5-1.4
									c0,0.3-0.5,1-0.1,0.9c-0.4-0.1-0.6,0.6-0.9,0.9c-0.4,0.1,0.3-0.7,0.4-1l0.1,0.3c0.3-1-0.8-0.3-0.8-1.1c-0.2,0.2,0,0.2,0,0.3
									c-0.5,0.3-0.1-0.2-0.1-0.4c-0.2-0.1-0.5,0-0.8,0.5c-0.3,0,0.2-0.3,0.3-0.5l-0.1,0.1l0.2-0.7c-0.3,0-0.7,0.2-1.1,0.6
									c-0.3-0.4,0.7-1.2,0.6-1.6c-0.3,0.1-0.3,0.4-0.4,0.6l-0.2-0.2c-0.3,0.6,0.1,0.5-0.4,1.1c0.3-0.8-0.1-0.4-0.1-1l0.1,0
									c0.2-0.5-0.3-0.4-0.4-0.6c-0.1,0.3,0,0.5,0,0.7c-0.3,0.1-0.6-0.5-0.3-1.1c-0.2,0-0.6,0.1-0.6,0.4c-0.4-0.2,0.5-0.9,0.1-1
									l-0.3,0.4c-0.8,0.4-0.2-1.1-1-0.8l0.4-0.5c-0.2,0.2-0.5,0.2-0.6,0.3l0,0.3c-0.5,0.3,0.2-0.5-0.2-0.4
									c0.1-0.2,0.5-0.4,0.7-0.6c0.4,0.8,1.7,0.6,1.9,1.7c-0.1,0-0.2,0.1-0.2,0.2c0.2-0.1,0.2,0.2,0.4-0.1l0-0.1
									c0.1,0.3,0.7-0.3,0.8-0.2c-0.2,0.4,0.5,0.1-0.1,0.7l0.4-0.3c-0.1,0.3-0.4,0.5-0.4,0.7c0.2,0,0.3-0.2,0.4-0.4
									c0.6,0.1,1.1,0.6,1.5,1.1l0.1-0.4c0.2-0.1,0,0.8,0.5,0c0,0.5,0.8,0.2,0.2,1c0.7-0.6,0.8,0.1,1.1,0.4c-0.5,0.6,0.1,0.4,0,0.8
									c0.4-0.5,0.1-0.7,0.3-1.1c-0.2,1.1,1.3,0,0.6,1.5c0.1,0,0.1-0.1,0.1-0.1c0.1,0,0.3-0.1,0.4-0.1c-0.1,0.3-0.3,0.3-0.2,0.5
									c0.2,0,0.3-0.4,0.5-0.5c0,0.5,0.3,0.8,0,1.4c0.2-0.1,0.4-0.4,0.4-0.5c0.1,0.7,0.4,0.1,0.6,0.7c-0.1-0.1,0.3-0.6,0-0.5
									c0.6-0.7,0.5,0.5,1.1,0.3l-0.2,0.6c0.1,0.2,0.4-0.3,0.4-0.5c0.5-0.1,0.5,0.3,0.7,0.4c0-0.1,0.1-0.2,0-0.2l0.4,0.2
									c0,0.1,0,0.5-0.2,0.8C237.5,265.6,237.5,265.4,237.2,265.5z"/>
								<path class="st120" d="M237.4,265.9L237.4,265.9L237.4,265.9C237.3,266,237.3,266,237.4,265.9z"/>
								<path class="st120" d="M232.7,266.2c0.1-0.1,0.2-0.1,0.2-0.2C232.8,266.1,232.8,266.1,232.7,266.2z"/>
								<path class="st120" d="M240.5,268.4c-0.3,0.9-0.2-0.2-0.4,0c0.1,0.2,0,0.7-0.1,0.9c0.1-1.2-0.3,0.2-0.7-0.2
									c-0.1,0.4,0,0.5-0.1,0.9c-0.1-0.4-0.4-0.6-0.3-1.3c-0.4-0.1-0.7,0-0.9-0.2c0.2,0.4-0.2,0.6-0.2,1.2c0-0.8-0.2-1.9-0.1-2.9
									c-0.4,0.6-0.4,0.7-0.7,1.3c-0.6,0.2,0.2-0.7-0.3-0.7l0.2,0c-0.1-0.3,0.2-0.9,0.4-1.3l0.4,0.3c0.2-0.4-0.1-0.5-0.1-0.7
									c0.1-0.6,0.4-0.2,0.6-0.7c-0.1,0.4,0.1,0.4,0.1,0.6l0.1-0.2c0.3-0.2,0.1,0.5,0.3,0.6c0-0.1,0.1-0.1,0.1-0.2
									c-0.1,0.3-0.2,0.7-0.1,0.8l-0.1-0.1c-0.1,0.6,0.1,1.2-0.4,1.7c0.2,0,0.4,0,0.6,0c0.2-0.7,0.5-1.7,0.3-1.8l0.1-0.3
									c0.3-0.3,0.3,0.7,0,1.2c-0.4,1.6,0.7,0.3,0.8,1.1c0.1-0.4,0-0.6,0-1c-0.1-0.1-0.1-0.1-0.3,0.2c-0.3-0.4,0.5-1.3,0-1.3
									c-0.3,0.1,0,0.8-0.3,0.7c0.1-0.4,0.1-0.8,0.2-1.2c0.2,0.1,0.3,0.4,0.4,0.6c0.3,0.6,0.7,0.7,1,0.7c0.3,0,0.5-0.2,0.5-0.2
									c1.2,0.3,2.3,0.3,3.2-0.2c0.4-0.1,0.4-0.2,1.4,0.5c0.1,0.2-0.2,0.4,0.2,0.6c-0.4-0.3-0.7-0.3-0.8-0.1c0.3,0.4,0.3,0,0.3,0.1
									l0,0.1c0.2,0.2,0.3,0.2,0.4,0.2c0.3,0.7-0.5,1.1-1.1,0.4c0,0.5,0.5,0.5,0.8,0.7c-0.7,0.9-1.5,1.1-2.5,1.3
									c-0.1-0.8-0.2-0.5-0.4-1l0,0.3c0-0.1-0.2-0.7,0-0.9c-0.4,0.7-0.6-1-0.9-1.4l0,0.4c-0.2-0.1-0.3-0.1-0.5-0.3
									c-0.5,0.7,0.3,0.2,0.1,1.1l-0.1-0.2c0,0.4,0.1,1.1,0.2,1.4c-0.4-0.7-0.7,0.2-1.1-0.4c0,0.5,0.4,0.9,0.5,1
									c-0.2,0-0.5-0.4-0.5,0.1l0.1-0.6c-0.3-0.1-0.1,0.5-0.2,0.9C240,270.5,241,268.8,240.5,268.4z"/>
								<path class="st120" d="M234.4,265.9c0.1,0,0.1,0.1,0.2,0.1C234.5,266,234.4,265.9,234.4,265.9z"/>
								<path class="st120" d="M235,267.5c0,0.1-0.1,0.1-0.1,0.2C234.9,267.6,234.9,267.6,235,267.5z"/>
								<path class="st120" d="M234.7,268.2c0.2-0.2,0.1-0.3,0.2-0.6C234.9,267.9,235.1,268,234.7,268.2z"/>
								<path class="st120" d="M217.5,255.3c0.1-0.2,0-0.4,0.2-0.5l0.1,0.3L217.5,255.3z"/>
								<path class="st120" d="M218.3,255.1l0.3,0l-0.4,0.7C218.1,255.6,218.5,255.3,218.3,255.1z"/>
								<path class="st120" d="M219.1,255.2l0.1-0.2C219.2,255.1,219.2,255.1,219.1,255.2z"/>
								<path class="st120" d="M218.9,255.4l-0.3,0.5l0-0.5l0.2,0c0.1-0.2,0.2-0.2,0.3-0.2l-0.2,0.4
									C219,255.5,219,255.4,218.9,255.4z"/>
								<path class="st120" d="M219.1,255.6c0,0-0.1,0.1-0.1,0.1C219,255.7,219.1,255.7,219.1,255.6z"/>
								<path class="st120" d="M220.3,255.2c-0.2,0.1-0.3,0.4-0.4,0.6c-0.3,0,0.2-0.7-0.2-0.6c0,0.6-0.3,0.2-0.6,0.4
									c0.4-0.4,0.7-0.6,1-0.5l-0.2,0.3C220,255.5,220.1,255.3,220.3,255.2z"/>
								<path class="st120" d="M220.8,256.7l0.2-0.5c-0.2,0.2-0.4,0-0.8,0.4c0-0.1,0.1-0.3,0.1-0.5c-0.2,0.2-0.4,0.3-0.3-0.1
									c0.6,0,0.6-0.2,1-0.1c0.1-0.1,0-0.1,0-0.1l0.4-0.1C221,256.3,221.2,256.5,220.8,256.7z"/>
								<path class="st120" d="M221.3,256.6c-0.1-0.2,0.1-0.6,0.4-0.8l0.1,0.6C221.7,256.3,221.6,256.2,221.3,256.6z"/>
								<path class="st120" d="M221.6,256.8c0.2-0.2,0.7-0.5,0.5,0C221.9,256.6,221.5,257.3,221.6,256.8z"/>
								<path class="st120" d="M223.1,257.4l-0.6,0c-0.5,0.5,0,0.3-0.1,0.6c-0.4-0.1-0.1-0.2-0.1-0.7c-0.1,0,0-0.4,0-0.6
									C222.5,257.5,223.6,256.1,223.1,257.4z"/>
								<polygon class="st120" points="222,257.4 222.1,257.2 222.2,257.5 								"/>
								<path class="st120" d="M224.4,257.4c0.7-0.5,0.1,0.7,0.5,0.6c0-0.1,0.1-0.1,0.1-0.2l0.1,0.2l0.1-0.1
									c-0.3,0.4-0.2,0.7-0.4,1.1c-0.5,0.3,0.3-0.6-0.2-0.3c-0.1,0.2-0.3,0.5-0.4,0.7c0-0.3,0.2-0.5,0.3-0.8
									c-0.1-0.1-0.2,0.1-0.4,0.2c0-0.3,0.5-0.9,0.2-1c-0.4,0.2-0.3,0.6-0.5,0.3c0.6-0.5-0.3-0.1-0.1-0.6c-0.3,0-0.7,0.3-0.8,0.5
									c0.4-0.5,0.6-1,0.5-1.3l0,0.6l0.6-0.5C224,257.4,224.1,257.4,224.4,257.4L224.4,257.4z"/>
								<path class="st120" d="M224.2,259.4c0,0.1,0,0.1,0,0.2C224.2,259.5,224.2,259.5,224.2,259.4z"/>
								<polygon class="st120" points="222.8,258.2 222.8,258.4 222.6,258.5 								"/>
								<path class="st120" d="M224.1,259.9c-0.1,0,0.1-0.2,0.1-0.2l-0.1,0.3L224.1,259.9z"/>
								<polygon class="st120" points="224.5,259.7 224.9,259.4 224.8,259.7 								"/>
								<path class="st120" d="M229,262.6c-0.3,0.1,0-0.3,0.2-0.6C229.4,262.1,228.9,262.3,229,262.6z"/>
								<path class="st120" d="M231.3,265c-0.3,0.2-0.2-0.3-0.4-0.4C231.2,264.5,231.3,264.7,231.3,265z"/>
								<path class="st120" d="M231.6,267.2c0-0.2,0-0.3,0.2-0.3l0.3-0.8C232.4,266,231.8,266.9,231.6,267.2z"/>
								<path class="st120" d="M232.9,268.2l-0.1-0.4l0.1,0.1c0.1-0.3,0.2-0.5,0.2-0.8C233.3,267.3,233.3,267.7,232.9,268.2z"/>
								<path class="st120" d="M233.1,266.8C233.1,266.8,233.1,266.8,233.1,266.8C233.1,266.9,233,267,233.1,266.8z"/>
								<path class="st120" d="M233.2,266.9c0,0,0,0.1,0,0.1C233.2,267,233.2,266.9,233.2,266.9
									C233.2,266.8,233.3,266.8,233.2,266.9z"/>
								<path class="st120" d="M233.3,267.9l0.4,0.3l-0.2,0.1C233.7,267.8,233.1,268.5,233.3,267.9z"/>
								<path class="st120" d="M235.7,268.7l0.3-0.4c0.3,0,0.1,1.2,0.7,0.5c-0.3,0.2-0.1,0.6-0.4,0.6
									C236.3,269,235.9,268.7,235.7,268.7z"/>
								<path class="st120" d="M237,268.6c0-0.2,0.1-0.2,0.2-0.3c0.1,0,0.1,0.3,0,0.4C237.4,268,236.9,269,237,268.6z"/>
								<path class="st120" d="M238.2,269.2c-0.1,0-0.2-0.1,0-0.2c0.2,0.1-0.1,0.7-0.1,1C237.8,270.2,238,269.4,238.2,269.2z"/>
								<path class="st120" d="M241.1,266c-0.1,0.4-0.3,0.3-0.3,0.2C240.9,266.3,241,266.2,241.1,266z"/>
								<polygon class="st120" points="240.3,269.7 240.2,269.8 240.3,269.1 								"/>
								<polygon class="st120" points="242,270.3 242.2,270.8 241.8,270.7 								"/>
								<path class="st120" d="M242.3,270.2l0.3,0l-0.1,0.2C242.3,270.6,242.4,270.2,242.3,270.2z"/>
								<path class="st120" d="M243.2,270.3c0,0-0.1,0-0.1,0.1l-0.3-0.3L243.2,270.3z"/>
								<path class="st120" d="M245.3,266.3c-0.4-0.2-0.1-0.2-0.2-0.2C245.1,266.1,245.3,266.2,245.3,266.3
									C245.5,266.3,245.5,266.4,245.3,266.3z"/>
							</g>
						</g>
					</g>
				</g>
			</g>
			<path class="st121" d="M232.5,277.2L232.5,277.2c0,0.1-37,3.1-44.6,5.8c-7.6,2.7,56.5,0,56.5,0v-2
				C240.2,280.3,236.3,279,232.5,277.2z"/>
			<path class="st122" d="M225,111.2c0.5,21.6-25.8,36.5-38.1,38.7c-1.3,0.2-2.4,0.3-3.3,0.3c-9.8-0.5-14.1-7.5-14.1-7.5
				c-1.3-10.9-0.8-19.9-0.8-19.9c0-13.7,1.8-23.1,6.4-28c7.1-7.6,19-5.7,27-2.8C212.1,95.5,219.5,102.8,225,111.2z"/>
			<path class="st123" d="M237.6,140.7c0,0-0.1,20.4-20.9,24.3c-20.8,3.9-29.7-15.1-29.7-15.1c12.2-2.2,38.5-17,38.1-38.7
				c4.3,6.5,7.3,13.7,9.5,20.3C235,132.9,235.9,136.1,237.6,140.7z"/>
			<path class="st10" d="M333.3,261c-34.4,10.3-97.4-6.3-124.5-35.8c-7.8,1.5-15.8,0.8-23.9-1.7c1.7,2.7,3.5,5.3,5.6,7.8
				c20.6,24.1,60.6,43.9,103.2,51.5c21.5,3.8,37.4,0.1,46.7,0.6c24.8,1.3,36.2,3.6,38.1,1.4C380.2,282.8,359.8,278.1,333.3,261z"/>
			<path class="st124" d="M208.8,225.2c-2.3-2.5-4.3-5.1-6.1-7.8c-6.7-10.4-7.8-19.2-6.4-26.1c1.8-9.7,9.8-17,19.5-18.7
				c8.9-1.6,22.4-7.4,26.3-20.8c-1.9-4.3-3.4-8.1-4.5-11.1c0,0-0.1,20.4-20.9,24.3c-20.8,3.9-29.7-15.1-29.7-15.1
				c-1.3,0.2-2.4,0.3-3.3,0.3c-9.8-0.5-14.1-7.5-14.1-7.5c0.1,1.1,0.3,2.3,0.4,3.5c1.6,11.2-1.4,50.4,15,77.4
				C193,226,201,226.7,208.8,225.2z"/>
			<path class="st125" d="M333.3,261c-24.6,7.4-63.9,1-94.2-14.1c1.8,0.8,43.2,18.8,78.9,3.3C323.3,254.3,328.4,257.9,333.3,261z"/>
			<path class="st126" d="M318.1,250.2c-35.8,15.5-77.1-2.5-78.9-3.3c0,0-0.1,0-0.1,0c-15.6-7.8-28.8-17.8-36.3-29.5
				c-6.7-10.4-7.8-19.2-6.4-26.1c1.8-9.7,9.8-17,19.5-18.7c8.9-1.6,22.4-7.4,26.3-20.8c7.3,16.4,21.1,41.4,47.2,71.3
				C298.8,233.9,308.6,242.9,318.1,250.2z"/>
			<path class="st127" d="M166.6,122.3c0,0,1.8,0.7,3.6,2.5c1.8,1.8,5.7-5.5,9.3-9.9c3.6-4.4,5.4-8.7,5.5-9.5
				C185.1,104.7,166.7,118.1,166.6,122.3z"/>
			<path class="st128" d="M239,246.9C239,246.9,239.1,246.9,239,246.9"/>
			<path class="st129" d="M211.3,109c0.6-0.5,0.9-1.3,0.6-2c-0.4-1.1-1.2-3-2.6-5c-2.7-3.7-8.7-5.6-11-4c-3.9,2.6-3.4,9.1-0.5,12.3
				C200.3,113.1,207.6,111.7,211.3,109z"/>
			
				<ellipse transform="matrix(0.7932 -0.609 0.609 0.7932 -21.7687 145.3946)" class="st130" cx="203.2" cy="104.7" rx="4.1" ry="4.7"/>
			<path class="st127" d="M176.2,92.7c0,0-9.1,0.9-13.5,12.5c-3.7,9.7-0.3,17.9,0.9,20.3c0.2,0.3,0.6,0.3,0.8,0
				c0.9-1.6,3.4-5.4,7.5-8.4c5.3-3.9,12.7-8.1,13.2-12.3C185.6,100.5,181.7,93.5,176.2,92.7z"/>
			<path class="st121" d="M236.9,278.5l0,0.1c0,0-19.5,2.8-35,2.8c-15.4,0-18.9,3-19.7,6.9c0,0,23.2,0,41.1,0s16.6,0,21.2,0
				c4.6,0,7.3-4.2,7.7-4.8c0.1-0.1,0.4-0.9,0.8-1.9L236.9,278.5z"/>
			<path class="st125" d="M207.5,281.3c-0.8,1.5-3.7,5.2-10.7,4c-7-1.2-12.4,1.8-14.3,3c-0.1,0-0.2,0-0.2,0
				c0.8-3.9,4.2-6.9,19.7-6.9C203.7,281.5,205.6,281.4,207.5,281.3z"/>
			<path class="st121" d="M244.6,288.4c0,0,2.5,0,5.9,0c3.4,0,7.4-5.8,7.4-5.8l-5.2-1L244.6,288.4z"/>
			<path class="st10" d="M259.1,267.4l-27.5-13.6l5.3,24.7c0,0,2.7,2.2,7.5,3c3.7,0.7,8.7,0.1,8.7,0.1c0.7-1.9,2.2-5.6,3.6-8.9
				c0.4-1.1,0.9-2.1,1.3-3C258.4,268.7,258.8,267.9,259.1,267.4z"/>
			<path class="st131" d="M231.5,253.8l5.3,24.7c0,0,2.7,2.2,7.5,3"/>
			<line class="st131" x1="233.5" y1="262.9" x2="231.5" y2="253.8"/>
			<g>
				<defs>
					<path id="SVGID_00000171713873730778705380000008967160599710381206_" d="M166.6,122.3c0,0,1.8,0.7,3.6,2.5
						c1.8,1.8,5.7-5.5,9.3-9.9c3.6-4.4,5.4-8.7,5.5-9.5C185.1,104.7,166.7,118.1,166.6,122.3z"/>
				</defs>
				<clipPath id="SVGID_00000036223089090640774890000011799809040476196241_">
					<use xlink:href="#SVGID_00000171713873730778705380000008967160599710381206_"  style="overflow:visible;"/>
				</clipPath>
				<g style="opacity:0.78;clip-path:url(#SVGID_00000036223089090640774890000011799809040476196241_);">
					<g>
						<g>
							<g>
								<path class="st120" d="M175,112.2c0.1,0,0.1,0.1,0.2,0.1C175.1,112.3,175.1,112.3,175,112.2z"/>
								<path class="st120" d="M170,116.6C170,116.6,170,116.6,170,116.6L170,116.6L170,116.6z"/>
								<path class="st120" d="M169.9,116.6l-0.2-0.1C169.9,116.5,169.9,116.5,169.9,116.6z"/>
								<path class="st120" d="M176.3,113c0.1,0,0.2,0,0.3,0.1L176.3,113z"/>
								<path class="st120" d="M176.3,114.1c0,0,0,0.1,0,0.1C176.3,114.2,176.3,114.1,176.3,114.1z"/>
								<path class="st120" d="M179.6,108.4L179.6,108.4C179.6,108.3,179.6,108.4,179.6,108.4z"/>
								<path class="st120" d="M180.2,108.4C180.2,108.4,180.3,108.4,180.2,108.4l0.1,0C180.3,108.5,180.3,108.4,180.2,108.4z"/>
								<path class="st120" d="M180.2,108.7L180.2,108.7C180.3,108.7,180.2,108.7,180.2,108.7z"/>
								<path class="st120" d="M184.1,109.2l0.1,0.2C184.1,109.3,184.1,109.3,184.1,109.2z"/>
								<path class="st120" d="M179.4,108.2c0,0,0.1,0.1,0.2,0.1C179.5,108.3,179.4,108.3,179.4,108.2z"/>
								<path class="st120" d="M174.9,112.2C174.9,112.2,174.9,112.2,174.9,112.2C174.9,112.2,174.9,112.2,174.9,112.2z"/>
								<path class="st120" d="M176.6,112.7L176.6,112.7C176.6,112.8,176.6,112.7,176.6,112.7z"/>
								<path class="st120" d="M168,118.2c-0.1,0-0.1,0.1-0.2,0.1C167.9,118.1,168,118.1,168,118.2z"/>
								<path class="st120" d="M178.5,109.7c0.3,0.6,0.2-0.1,0.5,0.4c-0.2,0-0.3-0.1-0.2,0.2c0.3,0.2,0.2-0.2,0.5,0.2l-0.3-0.1
									c0,0.3,0.4,0.5,0.3,0.6c-0.5-0.5-0.3,0.5-0.5,0.5l0.1,0l0,0.4l0,0c0,0-0.1-0.1-0.1-0.1c0.1,0.4,0.1,0.7-0.1,0.7
									c-0.3-0.3-0.6,0.3-0.9,0.1c0.1,0,0.2,0,0.2-0.2l-0.3-0.4c-0.2,0.1,0.2,0.4-0.1,0.3c-0.4-0.6,0.2-0.2,0.3-0.3
									c-0.1-0.1-0.3-0.2-0.4-0.2c0.2-0.2,0.3-0.5,0.9-0.1c0-0.2-0.2-0.4-0.3-0.4c0.4,0.2-0.1-0.4,0.3-0.2c-0.4-0.5-0.5,0-0.9-0.2
									c0.1,0.6-0.5,0.4-0.8,0.5c0.3,0.4,0.6,0.6,0.7,0.9c-0.1,0.4-0.4,0-0.7-0.1c-0.1,0.3,0.4,0.6,0.2,0.8l0.3,0.1
									c0.2,0.6-0.3-0.1-0.3,0.1c-0.1-0.2-0.2-0.3,0-0.4c-0.1-0.2-0.3-0.2-0.3-0.2l0,0c-0.2-0.2-0.5-0.5-0.5-0.2
									c0.3,0.2,0,0.3,0.1,0.5l0.1,0c-0.2,0-0.3,0.1-0.4,0.1l0.1,0.1c-0.2-0.1-0.5-0.4-0.6-0.2c0.1,0.1,0.6,0.4,0.4,0.5
									c0.2,0.2,0.4,0.1,0.4-0.1c-0.1,0.2,0.1,0.6,0.3,0.5c0.2,0.3-0.2,0-0.2,0.2c0-0.1-0.2-0.2-0.2-0.3c0.3,0.4-0.3,0.3-0.5,0
									l0.3,0.1c-0.2-0.3-0.6-0.4-0.6-0.6c0.3,0.6-0.6,0.1-0.4,0.6l-0.1-0.3c-0.2,0.4-0.9,0-1.4,0.2c0.2,0.1,0.6,0.6,0.7,0.3
									c-0.2,0.3,0.3,0.6,0.4,1c-0.1,0.4-0.5-0.4-0.7-0.5l0.2,0c-0.7-0.5-0.5,0.6-1.2,0.5c0.1,0.2,0.1,0,0.2,0.1
									c0.1,0.4-0.2,0-0.4,0c-0.1,0.2-0.2,0.5,0.2,0.8c-0.1,0.2-0.2-0.3-0.4-0.3l0,0.1l-0.5-0.3c-0.1,0.2-0.1,0.6,0.2,1
									c-0.4,0.2-0.8-0.8-1.2-0.7c0,0.3,0.3,0.3,0.4,0.4l-0.3,0.1c0.4,0.4,0.4,0,0.8,0.5c-0.6-0.4-0.4,0.1-0.9-0.1l0-0.1
									c-0.4-0.3-0.5,0.2-0.7,0.2c0.2,0.2,0.4,0.1,0.6,0c0,0.3-0.6,0.5-1.1,0.1c0,0.1-0.1,0.5,0.2,0.6c-0.3,0.3-0.7-0.5-0.8-0.2
									l0.3,0.3c0.1,0.7-1,0.1-0.9,0.8l-0.4-0.4c0.1,0.2,0,0.4,0.1,0.6l0.3,0c0.2,0.4-0.4-0.2-0.4,0.2c-0.1-0.1-0.2-0.5-0.3-0.6
									c0.8-0.3,1-1.4,1.9-1.5c0,0.1,0,0.1,0.1,0.2c0-0.2,0.2-0.2,0-0.4l0,0c0.2,0,0-0.7,0.1-0.7c0.3,0.2,0.3-0.4,0.6,0.1l-0.1-0.4
									c0.2,0.1,0.3,0.4,0.5,0.4c0.1-0.1-0.1-0.3-0.3-0.4c0.3-0.6,0.9-0.9,1.5-1.1l-0.3-0.1c0-0.2,0.7,0.1,0.2-0.4
									c0.4,0.1,0.5-0.6,1,0c-0.3-0.7,0.4-0.7,0.7-0.8c0.3,0.6,0.4,0,0.6,0.1c-0.3-0.4-0.6-0.2-0.8-0.5c0.8,0.4,0.6-1.1,1.5-0.2
									c0-0.1,0-0.1-0.1-0.1c0.1,0,0-0.3,0-0.4c0.2,0.2,0.1,0.3,0.3,0.3c0.1-0.1-0.2-0.4-0.2-0.5c0.4,0.1,0.8-0.1,1.2,0.3
									c0-0.2-0.1-0.5-0.2-0.5c0.6,0.1,0.3-0.3,0.8-0.4c-0.1,0.1-0.4-0.4-0.4-0.1c-0.3-0.7,0.7-0.3,0.7-0.8l0.4,0.3
									c0.2-0.1,0-0.4-0.2-0.5c0.1-0.5,0.5-0.3,0.7-0.5c0-0.1-0.1-0.1-0.1-0.1l0.3-0.2c0.1,0.1,0.4,0.2,0.5,0.5
									C178.7,109.5,178.6,109.4,178.5,109.7z"/>
								<polygon class="st120" points="178.9,109.7 179,109.7 178.9,109.7 								"/>
								<path class="st120" d="M177,113.5c0-0.1,0-0.2,0-0.2C177,113.4,177,113.5,177,113.5z"/>
								<path class="st120" d="M182.7,108.3c0.3,0.6-0.3,0-0.3,0.3c0.2,0,0.4,0.4,0.5,0.6c-0.7-0.7-0.1,0.3-0.6,0.3
									c0.2,0.3,0.3,0.2,0.5,0.5c-0.3-0.1-0.6,0-1-0.4c-0.3,0.2-0.4,0.5-0.7,0.5c0.3,0,0.3,0.4,0.7,0.7c-0.5-0.4-1.5-0.7-2.2-1.1
									c0.3,0.5,0.3,0.6,0.6,1c-0.2,0.6-0.4-0.4-0.7,0l0.1-0.2c-0.3,0-0.6-0.5-0.8-0.8l0.5-0.2c-0.2-0.3-0.4-0.1-0.6-0.1
									c-0.4-0.3,0-0.4-0.2-0.7c0.2,0.2,0.3,0,0.5,0.1l-0.1-0.2c0.1-0.3,0.5,0.1,0.6-0.1c0-0.1,0-0.1-0.1-0.1
									c0.2,0.2,0.4,0.4,0.6,0.4l-0.1,0c0.4,0.3,1,0.4,1,1l0.3-0.4c-0.3-0.4-0.9-1.1-1.2-1l-0.2-0.2c0-0.4,0.8,0,0.9,0.5
									c0.9,1,0.7-0.4,1.3-0.1c-0.2-0.3-0.4-0.3-0.6-0.5c-0.1,0-0.2,0.1,0,0.3c-0.5,0.1-0.5-1-0.9-0.6c-0.1,0.3,0.6,0.3,0.3,0.6
									l-0.8-0.7c0.2-0.1,0.5-0.1,0.7-0.1c1.3,0,1.6-0.9,1.6-0.9c1.4-0.7,2.9-1.4,4.3-2.1c0.5-0.1,0.7-0.2,1.3,0.6
									c0,0.2-0.3,0.3-0.1,0.5c-0.2-0.3-0.5-0.4-0.7-0.2c0.1,0.3,0.3,0,0.3,0.2l0,0c0.1,0.2,0.2,0.2,0.3,0.2c0,0.6-0.5,0.8-1,0.3
									c0,0.4,0.4,0.4,0.6,0.6c-0.6,0.6-1.1,0.8-1.8,1.3c-0.3-0.5-0.3-0.3-0.6-0.6l0.1,0.2c0-0.1-0.3-0.4-0.3-0.6
									c-0.2,0.7-0.9-0.5-1.3-0.5l0.2,0.3c-0.3,0.1-0.3,0.1-0.6,0.1c-0.1,0.8,0.4-0.1,0.7,0.7l-0.2-0.1c0.2,0.2,0.6,0.7,0.8,0.8
									c-0.6-0.2-0.4,0.5-1,0.4c0.2,0.3,0.7,0.3,0.8,0.3c-0.1,0.1-0.5,0-0.3,0.3l-0.3-0.4c-0.3,0.1,0.3,0.4,0.3,0.6
									C183.6,109.8,183.3,108.3,182.7,108.3z"/>
								<path class="st120" d="M177.4,112.1c0-0.1,0.1-0.1,0.2-0.1C177.6,112,177.5,112.1,177.4,112.1z"/>
								<path class="st120" d="M179,112.1c0,0.1,0.1,0.1,0.1,0.1C179,112.2,179,112.1,179,112.1z"/>
								<path class="st120" d="M179.4,112.5c-0.1-0.2-0.2-0.2-0.4-0.3C179.2,112.3,179.4,112.2,179.4,112.5z"/>
								<path class="st120" d="M163.8,125.2c-0.1-0.1-0.3-0.1-0.4-0.2l0.3-0.1L163.8,125.2z"/>
								<path class="st120" d="M163.8,124.5l0-0.3l0.6,0.3C164.2,124.7,164,124.3,163.8,124.5z"/>
								<path class="st120" d="M164,123.8l-0.1-0.1C164,123.7,164,123.7,164,123.8z"/>
								<path class="st120" d="M164.2,124l0.4,0.3l-0.5,0L164.2,124c-0.2,0-0.1-0.1-0.2-0.2l0.3,0.2
									C164.3,123.9,164.2,123.9,164.2,124z"/>
								<path class="st120" d="M164.4,123.8c0,0,0.1,0.1,0.1,0.1C164.5,123.9,164.4,123.8,164.4,123.8z"/>
								<path class="st120" d="M164.3,122.8c0.1,0.2,0.3,0.3,0.5,0.4c0,0.3-0.5-0.2-0.5,0.1c0.5,0,0.1,0.3,0.2,0.5
									c-0.3-0.3-0.4-0.6-0.3-0.9l0.2,0.2C164.5,123,164.3,122.9,164.3,122.8z"/>
								<path class="st120" d="M165.7,122.4l-0.4-0.2c0.1,0.2-0.1,0.4,0.2,0.7c-0.1,0-0.3-0.1-0.4-0.1c0.1,0.2,0.2,0.4-0.1,0.2
									c0.1-0.5,0-0.5,0.1-0.9c-0.1-0.1-0.1,0-0.1,0l0-0.3C165.3,122.2,165.6,122,165.7,122.4z"/>
								<path class="st120" d="M165.7,121.9c-0.2,0.1-0.5-0.1-0.6-0.4l0.6,0C165.5,121.6,165.4,121.6,165.7,121.9z"/>
								<path class="st120" d="M165.9,121.7c-0.1-0.2-0.3-0.7,0.1-0.4C165.8,121.4,166.3,121.8,165.9,121.7z"/>
								<path class="st120" d="M166.8,120.4l-0.1,0.5c0.3,0.5,0.3,0,0.5,0.1c-0.2,0.3-0.2,0.1-0.6,0c-0.1,0.1-0.4,0-0.6-0.1
									C166.7,120.9,165.8,119.9,166.8,120.4z"/>
								<polygon class="st120" points="166.5,121.4 166.4,121.2 166.6,121.2 								"/>
								<path class="st120" d="M167.1,119.3c-0.3-0.7,0.6,0,0.6-0.4c0,0-0.1-0.1-0.2-0.1l0.2-0.1l-0.1-0.1c0.2,0.3,0.5,0.3,0.8,0.4
									c0.1,0.5-0.4-0.3-0.3,0.2c0.2,0.1,0.4,0.3,0.5,0.4c-0.2-0.1-0.4-0.2-0.6-0.3c-0.1,0.1,0,0.2,0.1,0.3
									c-0.3-0.1-0.7-0.5-0.8-0.2c0.1,0.4,0.4,0.3,0.1,0.4c-0.3-0.6-0.2,0.3-0.5,0c-0.1,0.2,0.1,0.6,0.3,0.8
									c-0.3-0.4-0.7-0.6-1-0.5l0.5,0.1l-0.3-0.5C166.9,119.6,167,119.5,167.1,119.3L167.1,119.3z"/>
								<path class="st120" d="M168.7,119.5c0,0,0.1,0,0.1,0C168.8,119.6,168.8,119.6,168.7,119.5z"/>
								<polygon class="st120" points="167.4,120.7 167.5,120.7 167.6,120.9 								"/>
								<path class="st120" d="M169.1,119.7c0,0-0.2-0.1-0.1-0.1L169.1,119.7L169.1,119.7z"/>
								<polygon class="st120" points="169.1,119.3 168.9,119 169.2,119.1 								"/>
								<path class="st120" d="M172.7,115.9c0,0.3-0.2-0.1-0.4-0.3C172.4,115.4,172.5,115.9,172.7,115.9z"/>
								<path class="st120" d="M175.5,114.4c0,0.3-0.4,0.1-0.5,0.2C175.1,114.3,175.3,114.3,175.5,114.4z"/>
								<path class="st120" d="M177.4,114.7c-0.1-0.1-0.2-0.1-0.1-0.2l-0.5-0.5C176.8,113.7,177.2,114.4,177.4,114.7z"/>
								<path class="st120" d="M178.7,113.9l-0.4-0.1l0.1-0.1c-0.2-0.2-0.3-0.3-0.5-0.4C178.1,113.4,178.4,113.5,178.7,113.9z"/>
								<path class="st120" d="M177.6,113.4C177.7,113.3,177.7,113.3,177.6,113.4C177.7,113.4,177.8,113.5,177.6,113.4z"/>
								<path class="st120" d="M177.8,113.3C177.8,113.3,177.9,113.3,177.8,113.3C177.8,113.3,177.8,113.3,177.8,113.3
									C177.7,113.3,177.7,113.2,177.8,113.3z"/>
								<path class="st120" d="M178.6,113.5l0.4-0.2l-0.1,0.2C178.7,113.2,178.9,113.9,178.6,113.5z"/>
								<path class="st120" d="M180.2,112l-0.2-0.4c0.2-0.2,1,0.4,0.7-0.3c0,0.3,0.4,0.3,0.2,0.6C180.7,111.6,180.3,111.8,180.2,112
									z"/>
								<path class="st120" d="M180.7,110.9c-0.1-0.1-0.1-0.2-0.1-0.3c0.1-0.1,0.2,0,0.3,0.2C180.5,110.4,181,111.1,180.7,110.9z"/>
								<path class="st120" d="M181.8,110.3c-0.1,0-0.2,0.1-0.1-0.1c0.2-0.1,0.4,0.3,0.7,0.5C182.3,111,181.8,110.5,181.8,110.3z"/>
								<path class="st120" d="M181.7,106.6c0.2,0.3,0,0.4-0.1,0.3C181.7,106.9,181.7,106.8,181.7,106.6z"/>
								<polygon class="st120" points="183.4,109.2 183.3,109.3 183,108.8 								"/>
								<polygon class="st120" points="184.7,108.7 185,108.9 184.8,109 								"/>
								<path class="st120" d="M184.9,108.5l0.2-0.1l0,0.2C185.1,108.7,185,108.5,184.9,108.5z"/>
								<path class="st120" d="M185.5,108.2c0,0,0,0,0,0.1l-0.3-0.1L185.5,108.2z"/>
								<path class="st120" d="M187.8,104.4c-0.2-0.3,0.1-0.2,0.1-0.3C188,104.1,188,104.6,187.8,104.4z"/>
							</g>
						</g>
					</g>
				</g>
			</g>
			<g>
				<defs>
					<path id="SVGID_00000086659045225513098950000009399337502004813712_" d="M303.7,284.1c-3.2-0.3-6.5-0.7-9.9-1.3
						c-12.6-2.2-25-5.6-36.7-9.7c-0.2-0.2-0.4-0.3-0.4-0.3c0.5-1.1,0.9-2.1,1.2-3c0.5-1.1,0.9-2,1.1-2.4c0,0,8.3,4.5,27.1,8.7
						C297.6,278.7,304.1,281.7,303.7,284.1z"/>
				</defs>
				<clipPath id="SVGID_00000167373275658382092450000015736124098938396051_">
					<use xlink:href="#SVGID_00000086659045225513098950000009399337502004813712_"  style="overflow:visible;"/>
				</clipPath>
				<g style="opacity:0.78;clip-path:url(#SVGID_00000167373275658382092450000015736124098938396051_);">
					<g>
						<g>
							<g>
								<path class="st120" d="M265.7,278.6c0-0.1,0-0.2,0-0.3C265.7,278.3,265.7,278.4,265.7,278.6z"/>
								<path class="st120" d="M273.4,280C273.4,280,273.4,280,273.4,280L273.4,280L273.4,280z"/>
								<path class="st120" d="M273.4,280.1l0,0.3C273.3,280.3,273.3,280.2,273.4,280.1z"/>
								<path class="st120" d="M265.7,276.5c0-0.1-0.1-0.2-0.1-0.4L265.7,276.5z"/>
								<path class="st120" d="M266.8,275.6c0,0,0.1-0.1,0.1-0.1C266.8,275.5,266.8,275.6,266.8,275.6z"/>
								<path class="st120" d="M258.5,275.8c0,0,0,0.1,0,0.1C258.4,275.9,258.5,275.8,258.5,275.8z"/>
								<path class="st120" d="M258.3,275c-0.1,0-0.1-0.1-0.1-0.1l0-0.1C258.3,274.8,258.3,274.9,258.3,275z"/>
								<path class="st120" d="M258.7,274.9l-0.1-0.1C258.7,274.8,258.7,274.9,258.7,274.9z"/>
								<path class="st120" d="M259.6,270.3l0.3-0.1C259.8,270.2,259.7,270.3,259.6,270.3z"/>
								<path class="st120" d="M258.4,276.2c0-0.1,0-0.2,0.1-0.3C258.4,276,258.5,276.1,258.4,276.2z"/>
								<path class="st120" d="M265.7,278.7c0-0.1,0-0.1,0-0.1C265.7,278.6,265.7,278.7,265.7,278.7z"/>
								<path class="st120" d="M265.2,276.4L265.2,276.4C265.2,276.4,265.2,276.4,265.2,276.4z"/>
								<path class="st120" d="M276.1,280.9c0.1,0,0.1,0.1,0.2,0.2C276.1,281.1,276.1,281,276.1,280.9z"/>
								<path class="st120" d="M260.7,276.6c0.5-0.7-0.2-0.2,0.2-0.9c0,0.2,0.1,0.4,0.4,0.1c0.1-0.5-0.3-0.1,0-0.8l0,0.4
									c0.3-0.2,0.4-0.8,0.5-0.7c-0.3,1,0.7,0,0.8,0.2l0-0.1l0.5-0.3c0,0,0,0,0,0c0,0.1,0,0.1-0.1,0.2c0.3-0.4,0.7-0.6,0.8-0.4
									c-0.2,0.6,0.6,0.5,0.5,1c0-0.2-0.1-0.2-0.3-0.1l-0.3,0.6c0.2,0.1,0.3-0.6,0.3-0.1c-0.4,0.8-0.3-0.1-0.5-0.1
									c0,0.2,0,0.4,0,0.5c-0.3-0.1-0.8,0.1-0.6-0.9c-0.2,0.1-0.3,0.5-0.3,0.6c0-0.6-0.4,0.4-0.4-0.1c-0.3,0.8,0.3,0.6,0.3,1.2
									c0.6-0.5,0.7,0.3,1,0.5c0.3-0.6,0.2-1.2,0.5-1.5c0.5-0.3,0.2,0.5,0.2,0.9c0.3-0.1,0.4-1,0.8-0.9l-0.1-0.5
									c0.5-0.8,0.1,0.4,0.3,0.3c-0.1,0.2-0.2,0.4-0.4,0.3c-0.1,0.3,0,0.5,0,0.5l-0.1,0c-0.1,0.4-0.2,0.9,0.1,0.8
									c0-0.6,0.3-0.3,0.5-0.5l0-0.1c0.1,0.2,0.3,0.2,0.4,0.3l0-0.1c0.1,0.2-0.1,0.9,0.1,0.8c0.1-0.3,0.1-1,0.2-0.8
									c0.1-0.4-0.1-0.5-0.4-0.4c0.2-0.1,0.5-0.7,0.3-0.8c0.2-0.5,0.1,0.3,0.3,0.1c-0.1,0.1-0.1,0.3-0.1,0.5
									c0.2-0.6,0.5,0.1,0.3,0.5l-0.1-0.4c-0.2,0.5,0,0.9-0.2,1.2c0.4-0.8,0.5,0.6,0.8-0.1l-0.2,0.4c0.5-0.1,0.7,1,1.1,1.3
									c-0.1-0.3,0.2-1.2-0.2-1c0.5,0,0.4-0.9,0.7-1.3c0.4-0.2-0.1,0.9,0,1.2l-0.2-0.2c0,1.1,1,0,1.3,0.8c0.1-0.3-0.1-0.2-0.1-0.3
									c0.4-0.5,0.2,0.2,0.3,0.4c0.2,0,0.6-0.2,0.6-0.9c0.3-0.1-0.1,0.4-0.1,0.6l0.1-0.1l0.1,0.8c0.3-0.2,0.6-0.5,0.9-1.1
									c0.5,0.3-0.2,1.6,0.1,1.9c0.3-0.3,0.1-0.5,0.1-0.8l0.3,0.1c0.1-0.8-0.3-0.5,0-1.3c0,0.9,0.3,0.3,0.5,1l0,0.1
									c0,0.6,0.5,0.3,0.7,0.5c0-0.4-0.2-0.5-0.3-0.7c0.3-0.2,0.8,0.2,0.9,1c0.2-0.1,0.5-0.3,0.4-0.7c0.5,0-0.1,1.2,0.4,1l0.1-0.6
									c0.7-0.7,0.7,1,1.3,0.3l-0.2,0.7c0.2-0.3,0.4-0.4,0.5-0.6l-0.2-0.3c0.3-0.6,0.1,0.6,0.4,0.3c-0.1,0.2-0.4,0.7-0.4,0.9
									c-0.8-0.6-2,0.2-2.7-0.8c0.1-0.1,0.1-0.2,0.1-0.3c-0.1,0.1-0.3-0.1-0.4,0.3l0,0.1c-0.2-0.2-0.6,0.6-0.8,0.6
									c0-0.5-0.6,0.1-0.2-0.7l-0.3,0.5c0-0.3,0.2-0.7,0.1-0.9c-0.2,0-0.3,0.4-0.2,0.6c-0.7,0.2-1.5-0.1-2.1-0.6l0.1,0.4
									c-0.2,0.2-0.4-0.8-0.5,0.2c-0.2-0.5-1,0-0.7-1c-0.5,1-0.9,0.2-1.3-0.1c0.3-0.9-0.3-0.4-0.3-0.8c-0.3,0.7,0.2,0.8,0,1.3
									c-0.1-1.2-1.6,0.3-1.2-1.5c-0.1,0-0.1,0.1-0.1,0.2c-0.1,0-0.3,0.2-0.4,0.3c0.1-0.3,0.3-0.4,0.1-0.6c-0.2,0-0.3,0.5-0.4,0.7
									c-0.2-0.5-0.6-0.9-0.4-1.6c-0.2,0.2-0.4,0.5-0.4,0.7c-0.3-0.7-0.5-0.1-0.9-0.7c0.2,0.1-0.2,0.8,0.2,0.6
									c-0.6,0.9-0.7-0.5-1.4-0.2l0.1-0.7c-0.2-0.2-0.5,0.3-0.4,0.6c-0.6,0.1-0.7-0.3-1-0.5c-0.1,0.1-0.1,0.2,0,0.2l-0.5-0.3
									c0-0.2,0-0.6,0.3-0.9C260.4,276.4,260.4,276.6,260.7,276.6z"/>
								<path class="st120" d="M260.5,276L260.5,276L260.5,276C260.6,276,260.5,276,260.5,276z"/>
								<path class="st120" d="M265.8,275.3c-0.1,0.1-0.2,0.2-0.2,0.2C265.6,275.4,265.7,275.3,265.8,275.3z"/>
								<path class="st120" d="M257.9,271.6c0.9-0.4,0,0.3,0.3,0.4c0-0.3,0.6-0.5,0.9-0.6c-1,0.8,0.4,0.1,0.4,0.6
									c0.3-0.2,0.3-0.4,0.7-0.7c-0.2,0.3-0.1,0.7-0.7,1.2c0.3,0.3,0.7,0.3,0.7,0.6c0-0.4,0.5-0.6,0.8-1.2c-0.5,0.8-0.6,2-0.8,3.1
									c0.5-0.6,0.6-0.7,0.9-1.3c0.7-0.2-0.3,0.7,0.2,0.8l-0.3,0c0.1,0.3-0.3,1-0.5,1.5c-0.2-0.1-0.3-0.3-0.5-0.4
									c-0.3,0.5,0.1,0.6,0.1,0.8c-0.2,0.7-0.6,0.2-0.8,0.7c0.2-0.4-0.2-0.5-0.2-0.7l-0.2,0.2c-0.5,0-0.2-0.7-0.4-0.8
									c-0.1,0-0.1,0.1-0.1,0.1c0.1-0.3,0.3-0.7,0.2-0.9c0,0,0.1,0.1,0.1,0.1c0.2-0.7,0.2-1.4,1-1.7l-0.6-0.3
									c-0.5,0.6-1.3,1.5-1,1.8l-0.2,0.3c-0.6,0.1-0.2-1.1,0.4-1.4c0.6-0.7,0.4-0.9,0.2-1c-0.2-0.1-0.6-0.2-0.4-0.6
									c-0.5,0.2-0.5,0.5-0.7,0.8c0,0.2,0.1,0.3,0.5,0c0.2,0.7-1.4,0.8-0.7,1.4c0.5,0.1,0.3-0.9,0.7-0.5c-0.3,0.4-0.5,0.8-0.7,1.2
									c-0.3-0.3-0.3-0.7-0.4-1.1c-0.1-0.5-0.2-0.9-0.3-1.2c-0.1-0.4-0.2-0.6-0.4-0.9c-0.2-0.2-0.2-0.4-0.4-0.6
									c-0.1-0.1-0.2-0.2-0.2-0.2c-0.3-1.3-0.1-2.7,0.3-3.8c0.4-1.1,1-2.1,1.7-3c0.5-0.4,0.7-0.7,1.9,0c0.1,0.3-0.2,0.5,0.3,0.7
									c-0.4-0.3-0.8-0.3-1,0c0.4,0.3,0.4-0.1,0.4,0l0,0.1c0.2,0.1,0.4,0.2,0.5,0.1c0.4,0.7,0,1-0.9,0.8c0.3,0.5,0.8,0.2,1.2,0.3
									c-0.1,0.9-0.4,1.4-0.5,2.1c-0.9-0.2-0.6,0-1.2,0l0.3,0.1c-0.2-0.1-0.8,0-0.9-0.3c0.6,0.6-1.3,0.5-1.7,1.1l0.5,0
									c-0.1,0.4-0.1,0.5-0.3,0.9c0.9,0.5,0.1-0.6,1.2-0.5l-0.2,0.2c0.4-0.1,1.2-0.3,1.5-0.4c-0.4,0.2-0.3,0.4-0.2,0.5
									c0.1,0.1,0.3,0.2,0.1,0.5c0.5-0.2,0.8-0.6,0.8-0.7c0.1,0.1-0.2,0.4,0.2,0.3l-0.6,0.2c0,0.3,0.6-0.2,1-0.2
									c0,0.2-0.5,0.4-1,0.6C258.5,271.1,257.9,271.2,257.9,271.6z"/>
								<path class="st120" d="M264,276c-0.1,0-0.2,0-0.2-0.1C263.9,275.9,263.9,275.9,264,276z"/>
								<path class="st120" d="M263.2,274.3c0-0.1,0.1-0.2,0.1-0.2C263.3,274.1,263.2,274.2,263.2,274.3z"/>
								<path class="st120" d="M263.5,273.4c-0.2,0.2-0.1,0.3-0.2,0.6C263.3,273.9,263.1,273.8,263.5,273.4z"/>
								<path class="st120" d="M285.9,280.5c0,0.2,0.1,0.4,0,0.6l-0.2-0.3L285.9,280.5z"/>
								<path class="st120" d="M285.1,281l-0.4,0.1l0.1-0.9C285.2,280.3,284.8,280.8,285.1,281z"/>
								<path class="st120" d="M284.2,281.1l0,0.2C284.2,281.3,284.2,281.2,284.2,281.1z"/>
								<path class="st120" d="M284.3,280.8l0.1-0.6l0.2,0.6l-0.2,0.1c-0.1,0.2-0.2,0.3-0.2,0.4l0-0.5
									C284.2,280.7,284.3,280.9,284.3,280.8z"/>
								<path class="st120" d="M284,280.7c0-0.1,0.1-0.1,0.1-0.2C284.1,280.6,284.1,280.6,284,280.7z"/>
								<path class="st120" d="M283,281.5c0.1-0.2,0.1-0.6,0.2-0.8c0.3-0.1,0.1,0.8,0.4,0.5c-0.2-0.6,0.3-0.3,0.5-0.6
									c-0.3,0.5-0.5,0.9-0.9,0.9l0.1-0.4C283.1,281.2,283.1,281.4,283,281.5z"/>
								<path class="st120" d="M281.9,280.2l0,0.6c0.1-0.3,0.5-0.2,0.6-0.7c0.1,0.1,0,0.4,0.1,0.6c0.2-0.3,0.3-0.5,0.3,0
									c-0.6,0.2-0.5,0.4-1,0.4c0,0.1,0,0.1,0.1,0.1l-0.4,0.2C281.8,280.7,281.4,280.5,281.9,280.2z"/>
								<path class="st120" d="M281.3,280.5c0.2,0.1,0.2,0.7-0.1,1l-0.3-0.6C281.1,280.9,281.2,281,281.3,280.5z"/>
								<path class="st120" d="M281,280.4c-0.2,0.3-0.5,0.9-0.5,0.2C280.7,280.8,280.8,279.9,281,280.4z"/>
								<path class="st120" d="M279.1,280.4l0.6-0.3c0.3-0.7-0.2-0.3-0.2-0.7c0.4,0,0.2,0.2,0.4,0.7c0.1,0,0.2,0.4,0.3,0.7
									C279.7,280.1,279.2,281.9,279.1,280.4z"/>
								<polygon class="st120" points="280.3,279.9 280.2,280.2 280.1,279.9 								"/>
								<path class="st120" d="M277.8,280.9c-0.5,0.8-0.4-0.6-0.8-0.3c0,0.1,0,0.1,0,0.3l-0.2-0.2l-0.1,0.2c0.2-0.5-0.1-0.8-0.1-1.3
									c0.4-0.5,0,0.7,0.4,0.1c0-0.3,0.1-0.6,0.1-0.9c0.1,0.3,0.1,0.6,0,1c0.2,0.1,0.2-0.2,0.3-0.4c0.1,0.4-0.1,1.2,0.3,1.1
									c0.3-0.4,0.1-0.8,0.4-0.5c-0.4,0.8,0.4,0,0.4,0.5c0.3-0.1,0.6-0.6,0.6-0.9c-0.2,0.7-0.1,1.3,0,1.5l-0.3-0.7l-0.4,0.7
									C278.2,280.8,278,280.8,277.8,280.9L277.8,280.9z"/>
								<path class="st120" d="M277.1,278.9c0-0.1,0-0.1-0.1-0.2C277.1,278.7,277.1,278.8,277.1,278.9z"/>
								<polygon class="st120" points="279.1,279.5 279.1,279.3 279.2,279.1 								"/>
								<path class="st120" d="M277,278.3c0.1,0,0,0.3,0,0.3l0-0.4L277,278.3z"/>
								<polygon class="st120" points="276.6,278.7 276.4,279.2 276.4,278.8 								"/>
								<path class="st120" d="M270.8,277.8c0.3-0.2,0.1,0.3,0,0.7C270.5,278.5,271,278,270.8,277.8z"/>
								<path class="st120" d="M267.5,276.1c0.3-0.3,0.3,0.3,0.5,0.3C267.8,276.6,267.6,276.4,267.5,276.1z"/>
								<path class="st120" d="M266.7,273.9c0,0.2,0,0.3-0.1,0.3l-0.1,1C266,275.4,266.5,274.3,266.7,273.9z"/>
								<path class="st120" d="M265.2,273.2l0.1,0.4l-0.1,0c-0.1,0.4-0.1,0.6-0.1,0.9C264.9,274.2,264.9,273.8,265.2,273.2z"/>
								<path class="st120" d="M265.2,274.8C265.2,274.7,265.2,274.7,265.2,274.8C265.2,274.6,265.3,274.4,265.2,274.8z"/>
								<path class="st120" d="M265,274.6c0,0,0-0.1,0-0.1C265.1,274.6,265.1,274.6,265,274.6C265.1,274.7,265,274.8,265,274.6z"/>
								<path class="st120" d="M264.9,273.5l-0.4-0.3l0.2-0.1C264.5,273.7,265.1,272.9,264.9,273.5z"/>
								<path class="st120" d="M262.6,273l-0.3,0.5c-0.3,0,0.1-1.3-0.6-0.6c0.3-0.2,0.2-0.7,0.5-0.6C262,272.7,262.3,273,262.6,273z
									"/>
								<path class="st120" d="M261.2,273.1c-0.1,0.2-0.2,0.2-0.3,0.3c-0.1,0-0.1-0.3,0.1-0.5C260.7,273.7,261.5,272.7,261.2,273.1z
									"/>
								<path class="st120" d="M260.3,272.3c0,0.1,0.1,0.2-0.1,0.2c-0.1-0.2,0.4-0.6,0.6-1C261.2,271.4,260.6,272.2,260.3,272.3z"/>
								<path class="st120" d="M255.3,272.6c0.5-0.1,0.6,0.2,0.4,0.3C255.8,272.8,255.6,272.7,255.3,272.6z"/>
								<path class="st120" d="M259.2,270.9l0.1,0l-0.7,0.4C258.8,271.2,259,271,259.2,270.9z"/>
								<path class="st120" d="M259.3,269.7c0.2-0.1,0.3-0.1,0.5-0.1l-0.1,0.2L259.3,269.7z"/>
								<path class="st120" d="M259.2,269.4l0.1-0.2l0.2,0.1C259.6,269.4,259.2,269.4,259.2,269.4z"/>
								<path class="st120" d="M259.4,268.8c-0.1,0,0,0,0.1,0.1c-0.1,0-0.2,0.1-0.3,0.1C259.2,269,259.3,268.9,259.4,268.8z"/>
								<path class="st120" d="M258.5,263.6c-0.4-0.3,0-0.3,0-0.5c0.1,0,0.2,0.2,0.2,0.4C258.8,263.6,258.8,263.7,258.5,263.6z"/>
							</g>
						</g>
					</g>
				</g>
			</g>
			<path class="st131" d="M256.7,272.8c0.4-1.1,0.9-2.1,1.3-3c0.5-1.1,0.9-2,1.1-2.4"/>
			<path class="st131" d="M208.8,225.2c0,0,20.8,17.7,38.8,21.7c18,4,1.9-12.8,1.9-12.8s10.7,9.2,20.6,10.1
				c9.9,0.9-1.9-13.7-1.9-13.7s9.2,9.6,20.8,11.1c11.6,1.5-2.7-13.7-2.7-13.7s9.1,9,16.5,9.1"/>
		</g>
	</g>
</g>
</svg>
