<?xml version="1.0" encoding="utf-8"?>
<!-- Generator: Adobe Illustrator 26.0.3, SVG Export Plug-In . SVG Version: 6.00 Build 0)  -->
<svg version="1.1" xmlns="http://www.w3.org/2000/svg" xmlns:xlink="http://www.w3.org/1999/xlink" x="0px" y="0px"
	 viewBox="0 0 503.6 377.7" style="enable-background:new 0 0 503.6 377.7;" xml:space="preserve">
<style type="text/css">
	.st0{fill:#FFF0DD;}
	.st1{fill:#6B5C52;}
	.st2{fill:#B8BBBF;}
	.st3{fill:#F9E9CD;}
	.st4{fill:#FFE6BD;}
	.st5{fill:#F5F5F2;}
	.st6{fill:#637189;}
	.st7{fill:#9E9082;}
	.st8{fill:#938D89;}
	.st9{fill:#FFDBC0;}
	.st10{fill:#6E85BD;}
	.st11{fill:#E8D9D6;}
	.st12{fill:#A7BC79;}
	.st13{fill:#FF8080;}
	.st14{fill:#3D3533;}
	.st15{fill:#A1683D;}
	.st16{fill:#CCE0FF;}
	.st17{fill:#383531;}
	.st18{fill:#757060;}
	.st19{fill:#D29F7E;}
	.st20{opacity:0.88;clip-path:url(#SVGID_00000119807509484886126890000001481198475816144769_);}
	.st21{fill:#322015;}
	.st22{fill:#1B1C1E;}
	.st23{fill:none;stroke:#1B1C1E;stroke-width:1.2604;stroke-linecap:round;stroke-linejoin:round;stroke-miterlimit:10;}
	.st24{opacity:0.84;clip-path:url(#SVGID_00000164509565485943140990000013892929726799303562_);}
	.st25{clip-path:url(#SVGID_00000114792199132257235080000015947861834710992788_);}
	.st26{fill:none;stroke:#1B1C1E;stroke-width:1.2604;stroke-linecap:round;stroke-linejoin:round;}
	.st27{fill:#D1493B;}
	.st28{fill:#FFAE1F;}
	.st29{opacity:0.88;clip-path:url(#SVGID_00000010306874348752546490000010436907979350630530_);}
	.st30{opacity:0.7;clip-path:url(#SVGID_00000052789778071465390490000008817296199654365323_);}
	.st31{fill:#2C2C2D;}
	.st32{opacity:0.87;clip-path:url(#SVGID_00000129898148059006649470000010461651866410240665_);}
	.st33{fill:#080809;}
	.st34{opacity:0.7;clip-path:url(#SVGID_00000148652003060032326830000017039613403098121136_);}
	.st35{fill:#FBAF5E;}
	.st36{opacity:0.62;clip-path:url(#SVGID_00000129888261111571153690000008186551041658918795_);}
	.st37{fill:#3E240C;}
	.st38{fill:#BC763C;}
	.st39{opacity:0.62;clip-path:url(#SVGID_00000012468937062279173970000007978160421084772993_);}
	.st40{opacity:0.62;clip-path:url(#SVGID_00000178888675309464107790000010093798561187326906_);}
	.st41{fill:#967258;}
	.st42{opacity:0.53;clip-path:url(#SVGID_00000122685563031704561810000006269001063245907593_);}
	.st43{opacity:0.73;clip-path:url(#SVGID_00000132064056482128056640000004119774485223108016_);}
	.st44{fill:none;stroke:#1B1C1E;stroke-width:1.1311;stroke-linecap:round;stroke-linejoin:round;stroke-miterlimit:10;}
	.st45{fill:#3D291C;}
	.st46{fill:#3D291C;stroke:#967258;stroke-width:1.2604;stroke-linecap:round;stroke-linejoin:round;stroke-miterlimit:10;}
	.st47{fill:#D6D4C8;}
	.st48{fill:#1B1C1E;stroke:#967258;stroke-width:1.2604;stroke-linecap:round;stroke-linejoin:round;stroke-miterlimit:10;}
	.st49{opacity:0.52;clip-path:url(#SVGID_00000172442191996865942280000016654937618747119506_);}
	.st50{fill:#B37D4F;}
	.st51{opacity:0.88;clip-path:url(#SVGID_00000162338509379247495610000003587699164888066955_);}
	.st52{fill:#343434;}
	.st53{fill:#BC6464;}
	.st54{opacity:0.88;clip-path:url(#SVGID_00000165224187282631991790000006831286486621006733_);}
	.st55{fill:#1B1C1E;stroke:#1B1C1E;stroke-width:1.1485;stroke-linecap:round;stroke-linejoin:round;stroke-miterlimit:10;}
	.st56{fill:#8C7265;}
	.st57{opacity:0.88;clip-path:url(#SVGID_00000138568873728067949740000004873708717828169651_);}
	.st58{fill:#1B1C1E;stroke:#1B1C1E;stroke-width:1.3664;stroke-linecap:round;stroke-linejoin:round;stroke-miterlimit:10;}
	.st59{opacity:0.88;clip-path:url(#SVGID_00000127743597594917785850000011889705461025094067_);}
	.st60{fill:none;stroke:#1B1C1E;stroke-width:1.3664;stroke-linecap:round;stroke-linejoin:round;stroke-miterlimit:10;}
	.st61{opacity:0.88;clip-path:url(#SVGID_00000079448722829871661200000018160245379867033748_);}
	.st62{opacity:0.88;clip-path:url(#SVGID_00000125569990891258408970000009194003511248750470_);}
	.st63{fill:#5F6C72;}
	.st64{fill:#1B1C1E;stroke:#1B1C1E;stroke-width:1.5329;stroke-linecap:round;stroke-linejoin:round;stroke-miterlimit:10;}
	.st65{opacity:0.88;clip-path:url(#SVGID_00000168084516697943529290000007339266953535588502_);}
	.st66{clip-path:url(#SVGID_00000067950851900113974230000011250911807275019182_);}
	.st67{opacity:0.58;clip-path:url(#SVGID_00000155861175596006842690000012787272408876675990_);}
	.st68{opacity:0.58;clip-path:url(#SVGID_00000091714572487412487970000015801781467993610128_);}
	.st69{fill:#1B1C1E;stroke:#1B1C1E;stroke-width:1.818;stroke-linecap:round;stroke-linejoin:round;stroke-miterlimit:10;}
	.st70{fill:#FFFFFF;}
	.st71{fill:#CC813E;}
	.st72{opacity:0.58;clip-path:url(#SVGID_00000173878770937090392330000012001449320454352315_);}
	.st73{fill:#AA8C7D;}
	.st74{opacity:0.88;clip-path:url(#SVGID_00000056428410765884688710000012751065263437880474_);}
	.st75{opacity:0.88;clip-path:url(#SVGID_00000140711341392062697500000010580479314323625654_);}
	.st76{fill:#1B1C1E;stroke:#1B1C1E;stroke-width:1.2604;stroke-linecap:round;stroke-linejoin:round;stroke-miterlimit:10;}
	.st77{opacity:0.88;clip-path:url(#SVGID_00000158707731398708171450000005173110145174542723_);}
	.st78{opacity:0.88;clip-path:url(#SVGID_00000008865687127297211650000017703635332266823816_);}
	.st79{opacity:0.88;clip-path:url(#SVGID_00000027573993412662520090000000910416090566772652_);}
	.st80{fill:none;stroke:#1B1C1E;stroke-miterlimit:10;}
	.st81{fill:#B8BDC4;}
	.st82{fill:#B4D3CD;}
	.st83{opacity:0.88;clip-path:url(#SVGID_00000039091300860095421510000016975770070920497836_);}
	.st84{opacity:0.88;clip-path:url(#SVGID_00000170253334762833397320000017885556604233470868_);}
	.st85{fill:#EFBE9D;}
	.st86{opacity:0.88;clip-path:url(#SVGID_00000016048338096662447800000017972273847581478052_);}
	.st87{fill:#443730;}
	.st88{opacity:0.88;clip-path:url(#SVGID_00000084496731254306568370000011756223857181408180_);}
	.st89{opacity:0.88;clip-path:url(#SVGID_00000023967595483085991260000006868877675825845174_);}
	.st90{fill:#E2AF8D;}
	.st91{fill:none;stroke:#1B1C1E;stroke-linecap:round;stroke-linejoin:round;stroke-miterlimit:10;}
	.st92{fill:#1B1C1E;stroke:#1B1C1E;stroke-miterlimit:10;}
	.st93{fill:#FCEA9F;}
	.st94{fill:#F6EBEF;}
	.st95{fill:#D4DADD;}
	.st96{opacity:0.61;clip-path:url(#SVGID_00000170960647120585766050000007733459750843055764_);}
	.st97{fill:#353737;}
	.st98{fill:#B3B9BC;}
	.st99{opacity:0.61;clip-path:url(#SVGID_00000163787610156556423660000016250672995064063411_);}
	.st100{opacity:0.61;clip-path:url(#SVGID_00000089565191979157776540000013621856286275685005_);}
	.st101{fill:#B3B9BC;stroke:#1B1C1E;stroke-miterlimit:10;}
	.st102{fill:#CCE2CF;stroke:#1B1C1E;stroke-miterlimit:10;}
	.st103{fill:#EAD6DE;}
	.st104{fill:#1B1C1E;stroke:#1B1C1E;stroke-width:1.0185;stroke-miterlimit:10;}
	.st105{fill:none;stroke:#1B1C1E;stroke-width:1.0185;stroke-miterlimit:10;}
	.st106{fill:#FBAF5E;stroke:#1B1C1E;stroke-miterlimit:10;}
	.st107{fill:#513F3B;}
	.st108{opacity:0.88;clip-path:url(#SVGID_00000024688710214505821090000009554954973208636042_);}
	.st109{opacity:0.88;clip-path:url(#SVGID_00000181788100778003382420000008602578662150920612_);}
	.st110{fill:#8B2403;}
	.st111{fill:#EBDAD2;}
	.st112{fill:#A84E39;}
	.st113{fill:#751A01;}
	.st114{fill:#EBDAD2;stroke:#1B1C1E;stroke-miterlimit:10;}
	.st115{opacity:0.78;clip-path:url(#SVGID_00000140007516814458065750000001740861389997993901_);}
	.st116{fill:#290B01;}
	.st117{opacity:0.78;clip-path:url(#SVGID_00000010302722979404786790000006239273504386714772_);}
	.st118{opacity:0.78;clip-path:url(#SVGID_00000087396649004849411220000005274914786519021503_);}
	.st119{opacity:0.78;clip-path:url(#SVGID_00000133510146593899502730000016736179579123249051_);}
	.st120{fill:#030203;}
	.st121{fill:#86889A;}
	.st122{fill:#0B060A;}
	.st123{fill:#736E72;}
	.st124{fill:#9E9AA0;}
	.st125{fill:#18172A;}
	.st126{fill:#3B4D84;}
	.st127{fill:#FFA3AC;}
	.st128{fill:none;stroke:#0B080B;stroke-width:1.2005;stroke-miterlimit:10;}
	.st129{fill:#E7E6E8;}
	.st130{fill:#0B080B;}
	.st131{fill:none;stroke:#1B1C1E;stroke-width:1.2005;stroke-linecap:round;stroke-linejoin:round;stroke-miterlimit:10;}
	.st132{opacity:0.78;clip-path:url(#SVGID_00000005957717531090131980000008070590396644461721_);}
	.st133{opacity:0.78;clip-path:url(#SVGID_00000067949227076777052430000016787156951256552326_);}
	.st134{fill:#89745E;}
	.st135{opacity:0.78;clip-path:url(#SVGID_00000116944462175581592190000009922094796746574995_);}
	.st136{fill:#060606;}
	.st137{fill:#4D483E;}
	.st138{fill:#FF8A00;}
	.st139{fill:#50483F;}
	.st140{fill:#131313;}
	.st141{fill:#E8DBCD;}
	.st142{opacity:0.78;clip-path:url(#SVGID_00000021837350187615258730000001011803462365456561_);}
	.st143{opacity:0.78;clip-path:url(#SVGID_00000125583629172418588840000001242185395815414149_);}
	.st144{fill:#191212;}
	.st145{fill:#6C5353;}
	.st146{opacity:0.78;clip-path:url(#SVGID_00000003064351931584030130000013785436252717804973_);}
	.st147{fill:#B3B3B3;}
	.st148{fill:#FF9F2C;}
	.st149{fill:none;stroke:#343434;stroke-miterlimit:10;}
	.st150{fill:#21262A;}
	.st151{fill:#563D3D;}
	.st152{opacity:0.78;clip-path:url(#SVGID_00000101089774506209662010000015868272788513216920_);}
	.st153{fill:#181716;}
	.st154{fill:#706153;}
	.st155{fill:none;stroke:#1B1C1E;stroke-width:0.8477;stroke-miterlimit:10;}
	.st156{fill:#FCBD30;}
	.st157{fill:#E8D9CD;}
	.st158{fill:#534E4A;}
	.st159{opacity:0.78;clip-path:url(#SVGID_00000124869610694206190120000015600322041810725265_);}
	.st160{fill:#7DA050;}
	.st161{opacity:0.78;clip-path:url(#SVGID_00000000203713974890985610000016745546692705561984_);}
	.st162{opacity:0.78;clip-path:url(#SVGID_00000079487398425760795700000001896502855896369286_);}
	.st163{opacity:0.78;clip-path:url(#SVGID_00000145759360603966119630000002571993273297963955_);}
	.st164{fill:#EFEECE;}
	.st165{opacity:0.78;clip-path:url(#SVGID_00000037667728381874778400000001674476197948926607_);}
	.st166{fill:#93543B;}
	.st167{fill:#FF510C;}
	.st168{opacity:0.78;clip-path:url(#SVGID_00000145750675134208647880000007582065986204232588_);}
	.st169{fill:#4B1804;}
	.st170{fill:#000A0E;}
	.st171{opacity:0.78;clip-path:url(#SVGID_00000065763018167009559140000003495227037630330038_);}
	.st172{opacity:0.78;clip-path:url(#SVGID_00000148660481219838735550000014599895922103996551_);}
	.st173{fill:#F9C8A7;}
	.st174{fill:#1B1C1E;stroke:#1B1C1E;stroke-width:1.3738;stroke-miterlimit:10;}
	.st175{fill:none;stroke:#1B1C1E;stroke-width:1.3;stroke-miterlimit:10;}
	.st176{fill:#FFCB6E;}
	.st177{fill:#CECECE;}
	.st178{fill:none;stroke:#1B1C1E;stroke-width:1.3037;stroke-miterlimit:10;}
	.st179{fill:#FFFFFF;stroke:#1B1C1E;stroke-width:1.3;stroke-miterlimit:10;}
	.st180{opacity:0.78;clip-path:url(#SVGID_00000098941351111681786230000015458303542164631964_);}
	.st181{fill:none;stroke:#1B1C1E;stroke-width:1.3738;stroke-miterlimit:10;}
	.st182{opacity:0.45;clip-path:url(#SVGID_00000130621898681547485500000003655195771238221998_);}
	.st183{opacity:0.45;clip-path:url(#SVGID_00000042012105678977236760000005461053996363091354_);}
	.st184{opacity:0.45;clip-path:url(#SVGID_00000150078542879196434370000009228783301746400153_);}
	.st185{opacity:0.45;clip-path:url(#SVGID_00000134250461749258066850000009689446378926836369_);}
	.st186{fill:none;stroke:#1B1C1E;stroke-width:1.3738;stroke-linecap:round;stroke-linejoin:round;stroke-miterlimit:10;}
	.st187{fill:#FFB192;}
	.st188{fill:#EB8226;}
	.st189{fill:#F7EDE1;}
	.st190{opacity:0.78;clip-path:url(#SVGID_00000025406088616235917600000014335188457547674784_);}
	.st191{opacity:0.78;clip-path:url(#SVGID_00000134931239339824867350000003307381582514265736_);}
	.st192{opacity:0.5;clip-path:url(#SVGID_00000098183969563538051210000006557984690954488722_);}
	.st193{opacity:0.5;clip-path:url(#SVGID_00000082368777369051174950000013945955469448216997_);}
	.st194{fill:none;stroke:#06002C;stroke-width:1.3038;stroke-miterlimit:10;}
	.st195{fill:#F7A9B4;}
	.st196{fill:#06002C;}
	.st197{opacity:0.5;clip-path:url(#SVGID_00000164483164822598322260000018148222527106665151_);}
	.st198{fill:none;stroke:#06002C;stroke-width:1.3038;stroke-linecap:round;stroke-linejoin:round;stroke-miterlimit:10;}
	.st199{fill:#9BBEDC;}
	.st200{opacity:0.88;clip-path:url(#SVGID_00000116926517250340058730000014342585465327930510_);}
	.st201{opacity:0.88;clip-path:url(#SVGID_00000129922804750340355480000017474651049940374463_);}
</style>
<g id="Background">
	<rect x="-3.2" y="-2.4" class="st9" width="510" height="382.5"/>
</g>
<g id="Illustration">
	<g>
		<path class="st22" d="M212.4,275c0,0-4.9,2.1,8.5,2.7c13.5,0.6,84.6,0.9,91.9,0c7.3-0.9,15.5-2,1.7-3.2
			c-10.4-0.9-25.7-0.8-36.3-1.1C259.1,272.9,218.2,273.1,212.4,275z"/>
		<path class="st70" d="M308.1,219c-1.9-25.3-1.8-57.3-1.3-81.7c0-0.1,0-0.3,0-0.4c0.5-21.3,1.3-36.7,1.3-36.7s0,0,0,0
			c-0.3,0.4-9.3,14.3-20.5,25.7c-3.1,3.2-6.5,6.1-9.8,8.6c-0.2,0.1-0.4,0.3-0.6,0.4c-1.9,1.3-3.8,2.7-5.7,4.1c0,0,0,0,0,0
			c-2.4,1.8-4.8,3.6-7.1,5.3c-2.2,1.6-4.3,3.2-6.2,4.7c0,0,0,0,0,0c-5.5,4.2-9.4,7.3-9.4,7.3s-3-2.8-11.2-9.4
			c-4-3.2-9.1-7.3-15.7-12.4c-0.3-0.3-0.7-0.6-1-0.8c-4-3.1-7.5-6.3-10.7-9.4c-12.8-12.6-18.8-23.7-19.1-24.1c0,0,0,0,0,0
			c-1.4,13.2-2.5,25.4-3.1,36.7c0,0,0,0,0,0c-0.1,0.9-0.1,1.7-0.1,2.6c0,0,0,0.1,0,0.1c-2.4,51.6,5.6,85,36.3,112.1
			c8,7,16.8,12.2,25.8,15.9c5.5,2.3,11.1,4.1,16.5,5.5h0c26.4,6.7,49.6,3.6,49.6,3.6S310.6,251,308.1,219z"/>
		<g>
			<defs>
				<path id="SVGID_00000067203083645192295240000009882823347569360027_" d="M308.1,219c-1.9-25.3-1.8-57.3-1.3-81.7
					c0-0.1,0-0.3,0-0.4c0.5-21.3,1.3-36.7,1.3-36.7s0,0,0,0c-0.3,0.4-9.3,14.3-20.5,25.7c-3.1,3.2-6.5,6.1-9.8,8.6
					c-0.2,0.1-0.4,0.3-0.6,0.4c-1.9,1.3-3.8,2.7-5.7,4.1c0,0,0,0,0,0c-2.4,1.8-4.8,3.6-7.1,5.3c-2.2,1.6-4.3,3.2-6.2,4.7
					c0,0,0,0,0,0c-5.5,4.2-9.4,7.3-9.4,7.3s-3-2.8-11.2-9.4c-4-3.2-9.1-7.3-15.7-12.4c-0.3-0.3-0.7-0.6-1-0.8
					c-4-3.1-7.5-6.3-10.7-9.4c-12.8-12.6-18.8-23.7-19.1-24.1c0,0,0,0,0,0c-1.4,13.2-2.5,25.4-3.1,36.7c0,0,0,0,0,0
					c-0.1,0.9-0.1,1.7-0.1,2.6c0,0,0,0.1,0,0.1c-2.4,51.6,5.6,85,36.3,112.1c8,7,16.8,12.2,25.8,15.9c5.5,2.3,11.1,4.1,16.5,5.5h0
					c26.4,6.7,49.6,3.6,49.6,3.6S310.6,251,308.1,219z"/>
			</defs>
			<clipPath id="SVGID_00000114783877024257312690000012156087044686520961_">
				<use xlink:href="#SVGID_00000067203083645192295240000009882823347569360027_"  style="overflow:visible;"/>
			</clipPath>
			<g style="opacity:0.78;clip-path:url(#SVGID_00000114783877024257312690000012156087044686520961_);">
				<g>
					<g>
						<g>
							<path class="st153" d="M298.4,269.8c-0.1,0.1-0.2,0.2-0.3,0.3C298.1,270.2,298.2,270.1,298.4,269.8z"/>
							<path class="st153" d="M307.8,274.7C307.9,274.7,307.9,274.7,307.8,274.7l0.1-0.1L307.8,274.7z"/>
							<path class="st153" d="M307.9,274.6l0.3-0.5C308,274.3,307.9,274.4,307.9,274.6z"/>
							<path class="st153" d="M296.1,272.5c-0.1,0.1-0.3,0.2-0.5,0.4L296.1,272.5z"/>
							<path class="st153" d="M296.3,274.9c0,0.1,0,0.2,0,0.3C296.2,275.1,296.3,275,296.3,274.9z"/>
							<path class="st153" d="M290.2,264.6c0-0.1,0.1-0.1,0.1-0.2C290.3,264.4,290.3,264.5,290.2,264.6z"/>
							<path class="st153" d="M289.2,265c0-0.1-0.1-0.1-0.1-0.1L289,265C289,265.1,289.1,265,289.2,265z"/>
							<path class="st153" d="M289.2,265.7l-0.2,0C289.1,265.7,289.1,265.7,289.2,265.7z"/>
							<path class="st153" d="M282,268.8l-0.3,0.4C281.9,269,282,268.9,282,268.8z"/>
							<path class="st153" d="M290.7,264c-0.1,0.1-0.2,0.2-0.3,0.3C290.5,264.3,290.6,264.3,290.7,264z"/>
							<path class="st153" d="M298.5,269.6c0,0.1-0.1,0.1-0.1,0.2C298.4,269.8,298.5,269.7,298.5,269.6z"/>
							<path class="st153" d="M295.5,272.2L295.5,272.2C295.6,272.2,295.6,272.2,295.5,272.2z"/>
							<path class="st153" d="M311.7,275.6c0.1,0,0.2,0,0.3-0.1C311.8,275.3,311.8,275.4,311.7,275.6z"/>
							<path class="st153" d="M292.2,266.7c-0.6,1.4-0.4-0.1-1,1.2c0.3-0.2,0.6-0.4,0.3,0.4c-0.5,0.7-0.3-0.3-1,0.9l0.5-0.3
								c-0.1,0.7-0.8,1.4-0.6,1.4c1-1.5,0.5,1,0.9,0.9l-0.2,0.1l0,0.9c0,0,0,0.1,0,0.1c0-0.1,0.1-0.2,0.2-0.3
								c-0.2,0.9-0.2,1.6,0.2,1.5c0.5-0.8,1.2,0.2,1.7-0.5c-0.2,0.2-0.4,0.1-0.4-0.2l0.5-1.1c0.3,0.2-0.4,1,0.2,0.5
								c0.6-1.5-0.4-0.2-0.6-0.5c0.2-0.3,0.5-0.5,0.7-0.6c-0.4-0.3-0.6-1-1.6,0.4c0-0.4,0.4-1,0.5-1.1c-0.7,0.7,0.2-0.9-0.5-0.3
								c0.7-1.3,1-0.4,1.6-1.1c-0.1,1.3,0.9,0.5,1.4,0.5c-0.4,1-1.2,1.7-1.2,2.4c0.1,0.9,0.7-0.3,1.2-0.8c0.2,0.5-0.7,1.7-0.2,2
								l-0.6,0.5c-0.4,1.6,0.5-0.4,0.6,0c0.1-0.4,0.3-0.8,0-0.8c0.2-0.5,0.5-0.7,0.6-0.7l0-0.1c0.4-0.6,0.8-1.4,0.9-0.9
								c-0.6,0.8,0,0.8-0.1,1.2l-0.2,0.1c0.4-0.2,0.5,0.1,0.8,0l-0.1,0.2c0.3-0.3,0.9-1.3,1-0.9c-0.2,0.4-1,1.4-0.7,1.4
								c-0.3,0.6-0.7,0.5-0.8,0.2c0.2,0.3-0.2,1.4-0.5,1.4c-0.3,0.8,0.5-0.2,0.5,0.2c0.1-0.3,0.3-0.5,0.3-0.8
								c-0.5,1.1,0.6,0.4,0.9-0.4l-0.6,0.5c0.4-0.9,1-1.3,1.1-1.8c-0.4,1.4,1.1-0.3,0.8,0.9l0.2-0.8c0.5,0.7,1.6-0.7,2.4-0.8
								c-0.4,0.4-1,1.9-1.2,1.2c0.5,0.5-0.4,1.6-0.6,2.4c0.2,0.8,0.8-1.3,1.2-1.7l-0.4,0.1c1.1-1.6,1.1,0.9,2.2,0
								c-0.1,0.5-0.2,0.2-0.4,0.4c-0.1,1,0.4-0.1,0.7-0.4c0.2,0.3,0.5,0.8-0.2,1.9c0.2,0.4,0.2-0.7,0.5-1l0,0.3l0.8-1.1
								c0.1,0.5,0.3,1.2,0,2.3c0.8,0,1.2-2.5,1.8-2.7c0.1,0.7-0.4,0.8-0.6,1.3l0.5,0c-0.6,1.2-0.7,0.5-1.2,1.9
								c0.9-1.3,0.7-0.2,1.5-1l0-0.1c0.6-0.9,0.8-0.1,1.2-0.1c-0.3,0.6-0.7,0.5-1,0.7c0.2,0.6,1.2,0.4,1.9-0.8
								c0.1,0.3,0.3,0.9-0.1,1.4c0.6,0.4,0.9-1.8,1.3-1.2l-0.3,1c0.2,1.6,1.6-0.9,1.8,0.6l0.4-1.2c0,0.6,0.2,0.9,0.1,1.4l-0.4,0.3
								c0,1.1,0.6-0.9,0.7-0.1c0.1-0.4,0.1-1.3,0.2-1.7c-1.5,0.4-2.1-1.8-3.8-0.9c0,0.2,0,0.4-0.1,0.6c0-0.3-0.4-0.1-0.1-0.7
								l0.1-0.1c-0.4,0.2-0.2-1.4-0.4-1.5c-0.4,0.8-0.5-0.6-0.9,0.9l0.1-1c-0.3,0.5-0.5,1.2-0.7,1.4c-0.2-0.2,0-0.8,0.3-1.1
								c-0.7-0.9-1.7-1.1-2.7-1l0.5-0.6c-0.1-0.4-1.2,0.9-0.4-0.7c-0.7,0.5-1-0.9-1.7,0.8c0.4-1.8-0.7-1.2-1.4-1.2
								c-0.5,1.5-0.7,0.2-1.1,0.8c0.4-1.2,1-1,1.3-1.7c-1.4,1.5-1.1-2-2.6,0.8c0-0.1,0-0.3,0.1-0.4c-0.1-0.1,0-0.6-0.1-0.8
								c-0.3,0.5-0.1,0.8-0.5,0.9c-0.2-0.2,0.3-1,0.4-1.4c-0.7,0.5-1.5,0.5-2.1,1.6c0-0.4,0.2-1.1,0.4-1.2c-1.1,0.6-0.6-0.5-1.5-0.2
								c0.3,0.1,0.7-1.2,0.8-0.5c0.5-1.8-1.2-0.2-1.3-1.3l-0.7,0.9c-0.4,0,0-1,0.4-1.2c-0.2-0.9-0.8-0.4-1.3-0.6
								c0-0.1,0.2-0.3,0.2-0.2l-0.6-0.3c-0.2,0.2-0.7,0.6-0.9,1.3C291.7,266.5,292,266.2,292.2,266.7z"/>
							<path class="st153" d="M291.4,267l-0.1,0.1l0,0C291.3,267.1,291.4,267.1,291.4,267z"/>
							<path class="st153" d="M294.9,274.2c0.1-0.3,0.1-0.4,0-0.5C294.9,273.9,294.8,274.1,294.9,274.2z"/>
							<path class="st153" d="M284.7,266.1c-0.7,1.6,0.5-0.1,0.5,0.5c-0.4,0.1-0.8,1.1-1,1.5c1.3-1.9,0.2,0.6,1,0.5
								c-0.3,0.7-0.7,0.6-1.1,1.3c0.6-0.3,1.2-0.4,1.9-1.5c0.6,0.3,0.7,0.9,1.2,0.8c-0.6,0.3-0.6,1.1-1.4,1.9
								c1.1-1.1,2.7-2.3,4.1-3.6c-0.5,1.3-0.6,1.4-1.2,2.5c0.3,1.2,0.8-1.1,1.2-0.4l-0.2-0.4c0.5-0.2,1.1-1.4,1.6-2.2l-0.8-0.2
								c0.4-0.9,0.8-0.5,1.1-0.7c0.7-0.9,0-0.9,0.4-1.7c-0.4,0.6-0.6,0.3-0.9,0.5l0.2-0.5c-0.1-0.6-0.9,0.4-1.1,0.3
								c0-0.1,0.1-0.2,0.1-0.3c-0.4,0.5-0.8,1-1.1,1.1l0.2,0c-0.8,1-1.8,1.3-2,2.7l-0.6-0.7c0.7-1.2,1.8-2.9,2.2-2.8l0.3-0.5
								c0-0.8-1.4,0.5-1.7,1.6c-1.8,2.7-1.2-0.5-2.3,0.5c0.4-0.8,0.8-1,1.2-1.4c0.2,0,0.3,0,0,0.7c0.9-0.1,1.1-2.6,1.7-1.9
								c0.2,0.6-1.1,1-0.6,1.4l1.5-2c-0.4-0.1-0.9,0.1-1.3,0.2c-2.3,0.7-2.7-1.1-2.7-1.1c-2.4-0.9-4.7-1.9-7.1-2.9
								c-0.9-0.1-1.1-0.3-2.5,1.6c-0.1,0.5,0.4,0.6-0.1,1.2c0.5-0.7,1-1,1.4-0.7c-0.4,0.8-0.5,0.2-0.6,0.4l0,0.1
								c-0.3,0.4-0.5,0.6-0.6,0.6c-0.2,1.4,0.7,1.6,1.8,0.3c-0.1,1-0.9,1.1-1.4,1.6c0.9,1.3,1.7,1.6,2.9,2.3
								c0.8-1.4,0.6-0.8,1.3-1.7l-0.2,0.6c0.1-0.3,0.8-1.1,0.7-1.5c0.1,1.4,1.8-1.4,2.6-1.7l-0.4,0.7c0.5,0.1,0.6,0.1,1.1-0.1
								c-0.1,1.7-0.7-0.1-1.4,1.8l0.3-0.2c-0.5,0.6-1.2,1.8-1.7,2.1c1.2-0.8,0.6,0.9,1.8,0.4c-0.5,0.8-1.4,1.1-1.6,1.1
								c0.2,0.2,0.9-0.2,0.5,0.6l0.6-1c0.5,0.1-0.5,0.9-0.7,1.6C282.9,269.7,283.7,266.2,284.7,266.1z"/>
							<path class="st153" d="M294,271.3c-0.1-0.1-0.2-0.1-0.3-0.1C293.7,271.3,293.8,271.3,294,271.3z"/>
							<path class="st153" d="M291.2,272.3c-0.1,0.1-0.1,0.3-0.2,0.4C291,272.6,291.1,272.5,291.2,272.3z"/>
							<path class="st153" d="M290.3,273.7c0.2-0.5,0.3-0.4,0.6-1C290.7,273,290.4,272.8,290.3,273.7z"/>
							<path class="st153" d="M325.9,280.2c-0.1-0.3,0-0.9-0.3-1c-0.1,0.2-0.1,0.5-0.2,0.7C325.5,280,325.7,280.1,325.9,280.2z"/>
							<path class="st153" d="M324.1,280c-0.2,0-0.5-0.1-0.7-0.1c0.1,0.5,0.2,1,0.3,1.5C324.3,281.1,323.6,280.3,324.1,280z"/>
							<path class="st153" d="M322.4,279.8l0-0.4C322.4,279.6,322.4,279.7,322.4,279.8z"/>
							<path class="st153" d="M322.6,280.4c0.1,0.4,0.1,0.7,0.2,1.1c0.2-0.3,0.3-0.7,0.4-1l-0.3-0.1c-0.1-0.4-0.3-0.4-0.4-0.6
								c0,0.3,0,0.5,0,0.8C322.5,280.5,322.5,280.3,322.6,280.4z"/>
							<path class="st153" d="M322.1,280.7c0,0.1,0.1,0.2,0.1,0.3C322.2,280.8,322.2,280.7,322.1,280.7z"/>
							<path class="st153" d="M320.6,278.9c0.2,0.4,0,1,0.1,1.5c0.5,0.4,0.3-1.3,0.7-0.8c-0.4,1,0.3,0.6,0.7,1.1
								c-0.4-1-0.8-1.6-1.2-1.8l0.1,0.7C320.7,279.6,320.8,279.1,320.6,278.9z"/>
							<path class="st153" d="M318.5,280.7l0.3-1c0.1,0.5,0.6,0.5,0.6,1.6c0.2-0.2,0.2-0.6,0.3-0.9c0.2,0.5,0.4,0.9,0.5,0.2
								c-0.9-0.7-0.6-0.9-1.3-1.2c0-0.2,0.1-0.2,0.2-0.2c-0.1-0.2-0.3-0.4-0.4-0.6C318.7,279.8,318.1,279.9,318.5,280.7z"/>
							<path class="st153" d="M317.9,279.9c0.4,0,0.6-1,0.4-1.7c-0.2,0.3-0.5,0.5-0.7,0.8C317.8,279,318,278.9,317.9,279.9z"/>
							<path class="st153" d="M317.3,279.8c-0.1-0.5-0.2-1.7-0.5-0.7C317.2,279,316.9,280.5,317.3,279.8z"/>
							<path class="st153" d="M315,278.5l0.6,0.8c-0.1,1.4-0.4,0.4-0.7,0.9c0.5,0.4,0.4-0.1,1-0.9c0.2,0.1,0.5-0.6,0.7-0.9
								C315.5,279.5,316,276.1,315,278.5z"/>
							<polygon class="st153" points="316.1,280.1 316.3,279.6 315.9,279.9 							"/>
							<path class="st153" d="M313.8,276.8c0-1.7-0.9,0.7-1.2-0.1c0.1-0.1,0.1-0.2,0.2-0.4l-0.4,0.1l0.1-0.4c-0.2,0.9-0.7,1.2-1,1.9
								c0.1,1.1,0.5-1.1,0.6,0.1c-0.2,0.4-0.4,1-0.6,1.4c0.4-0.4,0.6-1,0.8-1.5c0.3,0,0.1,0.5,0,0.8c0.4-0.5,0.7-1.9,1.1-1.4
								c0.1,0.9-0.5,1.3,0.1,1c0.1-1.6,0.4,0.3,0.8-0.6c0.3,0.4,0.3,1.3,0.2,1.9c0.2-1.2,0.7-2.1,1-2.4c-0.2,0.3-0.5,0.6-0.8,0.9
								l0.1-1.4C314.2,277.2,314,277.1,313.8,276.8L313.8,276.8z"/>
							<path class="st153" d="M311.3,279.3c-0.1,0.1-0.1,0.1-0.2,0.2C311.2,279.6,311.3,279.5,311.3,279.3z"/>
							<polygon class="st153" points="314.3,280 314.1,280.3 314.1,280.7 							"/>
							<path class="st153" d="M310.8,280.2c0.1,0.1,0.2-0.4,0.1-0.4l-0.3,0.6L310.8,280.2z"/>
							<polygon class="st153" points="310.6,279.3 310.7,278.4 310.4,279 							"/>
							<path class="st153" d="M302.9,275.9c0.1,0.6,0.4-0.4,0.7-1C303.3,274.5,303.3,275.6,302.9,275.9z"/>
							<path class="st153" d="M297.6,275c0,0.7,0.7-0.1,0.9,0.1C298.5,274.5,298,274.7,297.6,275z"/>
							<path class="st153" d="M294.2,277.1c0.2-0.2,0.4-0.4,0.3-0.5l1-1.4C295.3,274.4,294.5,276.4,294.2,277.1z"/>
							<path class="st153" d="M291.8,276.2l0.7-0.4l-0.2-0.1c0.4-0.6,0.6-0.8,1-1.3C292.8,274.6,292.2,275.1,291.8,276.2z"/>
							<path class="st153" d="M293.7,274.3c-0.1,0-0.1,0-0.2,0C293.5,274.5,293.4,274.7,293.7,274.3z"/>
							<path class="st153" d="M293.3,274.2c-0.1,0.1-0.1,0.1-0.1,0.2c0.1,0,0.2-0.1,0.3-0.1C293.5,274.1,293.5,274,293.3,274.2z"/>
							<path class="st153" d="M291.8,275.3l-0.7-0.1l0.1,0.4C291.7,274.7,291.3,276.3,291.8,275.3z"/>
							<path class="st153" d="M288.8,272.9l0.4-1c-0.3-0.4-1.8,1.4-1.3-0.3c-0.1,0.7-0.9,0.9-0.5,1.4
								C288,272.3,288.6,272.5,288.8,272.9z"/>
							<path class="st153" d="M288,270.8c0.2-0.2,0.2-0.5,0.3-0.8c-0.1-0.2-0.5,0.2-0.6,0.6C288.4,269.5,287.5,271.5,288,270.8z"/>
							<path class="st153" d="M286.1,270c0.1,0,0.3,0,0.3-0.3c-0.4-0.1-0.8,1-1.3,1.5C285.1,271.9,286,270.6,286.1,270z"/>
							<path class="st153" d="M286.8,261.8c-0.4,0.8,0,0.8,0.2,0.6C286.8,262.5,286.7,262.2,286.8,261.8z"/>
							<polygon class="st153" points="283.4,268.3 283.4,268.5 284.1,267.4 							"/>
							<polygon class="st153" points="280.9,267.8 280.2,268.5 280.7,268.5 							"/>
							<path class="st153" d="M280.6,267.4l-0.4-0.1l0,0.4C280.2,268,280.5,267.4,280.6,267.4z"/>
							<path class="st153" d="M279.5,267c0.1,0,0,0.1,0,0.2l0.6-0.3L279.5,267z"/>
							<path class="st153" d="M276.7,259.1c0.5-0.7-0.1-0.4,0-0.6C276.5,258.7,276.1,259.8,276.7,259.1z"/>
						</g>
					</g>
				</g>
			</g>
		</g>
		<path class="st154" d="M308.1,100.2c0,0-0.8,15.4-1.3,36.7c0,0.1,0,0.3,0,0.4c-0.4,21.1-8.5,35.9-23.5,39.9
			c-0.9,0.2-1.8,0.4-2.7,0.6c-0.6,0.1-1.3,0.2-1.9,0.3c-0.9,0.1-1.9,0.2-2.9,0.2c-7.6,0.2-13.4-3-17.5-7c-6.5-6.3-9.2-14.6-9.3-15
			c0,0,0,0,0,0c0,0,3.9-3.1,9.4-7.3c0,0,0,0,0,0c1.9-1.5,4-3.1,6.2-4.7c2.3-1.7,4.7-3.5,7.1-5.3c0,0,0,0,0,0
			c1.9-1.4,3.8-2.8,5.7-4.1c0.2-0.1,0.4-0.3,0.6-0.4c3.3-2.4,6.7-5.4,9.8-8.6C298.8,114.6,307.8,100.7,308.1,100.2
			C308.1,100.2,308.1,100.2,308.1,100.2z"/>
		<path class="st154" d="M248.9,156.4C248.9,156.4,248.9,156.4,248.9,156.4c-0.1,0.4-3.1,8.7-10.3,15c-4.5,3.9-10.8,7-19.1,7
			c-1.9,0-3.8-0.2-5.5-0.5c0,0,0,0-0.1,0c-17.4-3-26.5-19.4-26-38.2c0,0,0-0.1,0-0.1c0-0.9,0.1-1.7,0.1-2.6c0,0,0,0,0,0
			c0.6-11.3,1.7-23.5,3.1-36.7c0,0,0,0,0,0c0.2,0.4,6.3,11.6,19.1,24.1c3.1,3.1,6.7,6.3,10.7,9.4c0.3,0.3,0.7,0.6,1,0.8
			c6.6,5.1,11.8,9.2,15.7,12.4C245.9,153.6,248.9,156.4,248.9,156.4z"/>
		<path class="st155" d="M191.2,100.2C191.1,100.2,191.1,100.2,191.2,100.2"/>
		<path class="st155" d="M308.1,100.2C308.1,100.2,308.1,100.2,308.1,100.2"/>
		<path class="st156" d="M253.6,268.4c0,0-16.8-0.2-16.8,5.5h32.4C269.2,273.9,264.6,266.9,253.6,268.4z"/>
		<path class="st156" d="M243.7,268.4c0,0-16.8-0.2-16.8,5.5h32.4C259.2,273.9,254.6,266.9,243.7,268.4z"/>
		<path class="st157" d="M298.9,160.5c-3.6,11.5-11.6,15.5-15.5,16.8h0c0,0,0,0,0,0c-0.9,0.2-1.8,0.4-2.7,0.6
			c-0.6,0.1-1.3,0.2-1.9,0.3c-0.9,0.1-1.9,0.2-2.9,0.2c-7.6,0.2-13.4-3-17.5-7c-6.5-6.3-9.2-14.6-9.3-15c0,0,0,0,0,0
			c0,0,3.9-3.1,9.4-7.3c0,0,0,0,0,0c1.9-1.5,4-3.1,6.2-4.7c2.3-1.7,4.7-3.5,7.1-5.3c0,0,0,0,0,0c1.9-1.4,3.8-2.8,5.7-4.1
			c0.2-0.1,0.4-0.3,0.6-0.4c3.3-2.4,6.7-5.4,9.8-8.6C296.3,131.7,303.3,146.4,298.9,160.5z"/>
		<path class="st157" d="M248.9,156.4C248.9,156.4,248.9,156.4,248.9,156.4c-0.1,0.4-3.1,8.7-10.3,15c-4.5,3.9-10.8,7-19.1,7
			c-1.9,0-3.7-0.2-5.4-0.5c0,0,0,0-0.1,0c0,0,0,0-0.1,0c-0.1,0-0.2,0-0.4-0.1c0,0,0,0-0.1,0c-2.6-0.6-13-3.6-17.2-17.2
			c-4.9-15.6,4.2-32,14-36.2c3.1,3.1,6.7,6.3,10.7,9.4c0.3,0.3,0.7,0.6,1,0.8c6.6,5.1,11.8,9.2,15.7,12.4
			C245.9,153.6,248.9,156.4,248.9,156.4z"/>
		<g>
			<path class="st70" d="M287.6,148.3c0,8.1-6.6,14.7-14.7,14.7c-7.8,0-14.3-6.2-14.6-13.9c0,0,0,0,0,0c1.9-1.5,4-3.1,6.2-4.7
				c2.3-1.7,4.7-3.5,7.1-5.3c0,0,0,0,0,0c1.9-1.4,3.8-2.8,5.7-4.1c0.2-0.1,0.4-0.3,0.6-0.4C283.5,136.5,287.6,141.9,287.6,148.3z"/>
			<path class="st158" d="M282.3,148.3c0,5.2-4.2,9.4-9.4,9.4c-5.2,0-9.4-4.2-9.4-9.4c0-1.4,0.3-2.8,0.9-4c2.3-1.7,4.7-3.5,7.1-5.3
				c0,0,0,0,0,0c0.5-0.1,0.9-0.1,1.4-0.1C278.1,138.9,282.3,143.1,282.3,148.3z"/>
		</g>
		<path class="st156" d="M248.9,156.4c0,0-8.2,10.6-10.4,15c0,0,5.8,4.4,10.2,5.9c0,0,6.5-2.3,9.5-5.9
			C258.3,171.4,252.6,160.6,248.9,156.4z"/>
		<g>
			<defs>
				<path id="SVGID_00000173881181239802798720000015854394374403276216_" d="M258.2,171.4c-3.1,3.6-9.5,5.9-9.5,5.9
					c-4.4-1.4-10.2-5.9-10.2-5.9s6.3-1.4,10.2,4.8C248.7,176.2,251.8,171.2,258.2,171.4z"/>
			</defs>
			<clipPath id="SVGID_00000052788735904631955430000014270852296354045863_">
				<use xlink:href="#SVGID_00000173881181239802798720000015854394374403276216_"  style="overflow:visible;"/>
			</clipPath>
			<g style="opacity:0.78;clip-path:url(#SVGID_00000052788735904631955430000014270852296354045863_);">
				<g>
					<g>
						<g>
							<path class="st153" d="M248.9,174.6c0,0.1,0,0.1,0,0.2C248.9,174.8,248.9,174.7,248.9,174.6z"/>
							<path class="st153" d="M253,172.6C253.1,172.6,253.1,172.6,253,172.6L253,172.6L253,172.6z"/>
							<path class="st153" d="M253,172.6l0-0.2C253,172.5,253,172.5,253,172.6z"/>
							<path class="st153" d="M248.6,176.2c0,0-0.1,0.1-0.1,0.2C248.5,176.3,248.6,176.2,248.6,176.2z"/>
							<path class="st153" d="M249.1,177C249.1,177,249.1,177.1,249.1,177C249.1,177,249.1,177,249.1,177z"/>
							<path class="st153" d="M246.1,172.1L246.1,172.1C246.1,172.1,246.1,172.1,246.1,172.1z"/>
							<path class="st153" d="M245.6,172.2C245.6,172.2,245.6,172.2,245.6,172.2l-0.1,0C245.5,172.2,245.6,172.2,245.6,172.2z"/>
							<path class="st153" d="M245.7,172.4L245.7,172.4C245.6,172.4,245.6,172.4,245.7,172.4z"/>
							<path class="st153" d="M242.7,172.8l-0.1,0.1C242.7,172.9,242.7,172.8,242.7,172.8z"/>
							<path class="st153" d="M246.3,172c0,0-0.1,0.1-0.1,0.1C246.2,172.1,246.3,172.1,246.3,172z"/>
							<path class="st153" d="M248.9,174.5c0,0,0,0.1,0,0.1C248.9,174.6,248.9,174.5,248.9,174.5z"/>
							<path class="st153" d="M248.4,175.9L248.4,175.9C248.4,175.9,248.4,175.9,248.4,175.9z"/>
							<path class="st153" d="M254.8,171.7c0,0,0.1-0.1,0.1-0.1C254.8,171.6,254.8,171.6,254.8,171.7z"/>
							<path class="st153" d="M247.1,173.2c-0.3,0.5-0.2-0.1-0.5,0.3c0.1,0,0.3-0.1,0.1,0.2c-0.2,0.2-0.2-0.1-0.4,0.2l0.2,0
								c-0.1,0.2-0.4,0.4-0.3,0.5c0.5-0.4,0.2,0.4,0.3,0.5l-0.1,0l0,0.4l0,0c0,0,0-0.1,0.1-0.1c-0.1,0.3-0.2,0.6,0,0.6
								c0.1-0.1,0.3,0,0.4,0c0.1,0.1,0.3,0.3,0.4,0.2c-0.1,0-0.2-0.1-0.2-0.2l0.3-0.3c0.1,0.1-0.2,0.3,0.1,0.3
								c0.3-0.5-0.2-0.2-0.2-0.3c0.1-0.1,0.2-0.1,0.3-0.1c-0.2-0.2-0.2-0.5-0.7-0.1c0-0.1,0.2-0.3,0.3-0.3c-0.3,0.1,0.1-0.3-0.2-0.2
								c0.4-0.4,0.4,0,0.8-0.1c-0.1,0.2,0,0.3,0.2,0.4c0.1,0,0.2,0,0.3,0c-0.2,0.4-0.5,0.6-0.5,0.8c0.1,0.4,0.3,0,0.5-0.2
								c0.1,0.3-0.3,0.7,0,1c-0.1,0.1-0.2,0.1-0.2,0.1c0,0.8,0.2-0.1,0.3,0.1c0-0.2,0-0.4-0.1-0.5c0.1-0.2,0.2-0.3,0.2-0.2l0,0
								c0.1-0.3,0.2-0.6,0.3-0.3c-0.1,0.3,0,0.4,0,0.6l0,0.1c0.1,0,0.1,0,0.1,0c0,0,0.1-0.1,0.1-0.1l0,0.1c0.1-0.2,0.1-0.8,0.2-0.7
								c0,0.2-0.1,0.8,0,0.7c0,0.3-0.2,0.5-0.3,0.4c0.1,0,0.2,0.5,0,0.6c0,0.4,0.2-0.3,0.3-0.2c0-0.1,0-0.3,0-0.4
								c0,0.5,0.4-0.2,0.3-0.5l-0.1,0.4c0-0.4,0.1-0.8,0-1c0.1,0.3,0.2,0.1,0.2,0c0.1-0.1,0.1-0.3,0.2-0.1l-0.2-0.3
								c0.3,0,0.2-0.7,0.4-1c0,0.2,0.3,0.7,0,0.7c0.3-0.1,0.4,0.5,0.7,0.7c0.3,0.1-0.2-0.6-0.2-0.8l-0.1,0.2
								c-0.2-0.7,0.6-0.2,0.7-0.8c0.1,0.1,0,0.1,0,0.2c0.3,0.2,0.1-0.1,0.1-0.3c0.2,0,0.4,0,0.6,0.4c0.2,0-0.2-0.2-0.2-0.4l0.1,0.1
								l-0.1-0.5c0.2,0,0.5,0.2,0.8,0.5c0.3-0.3-0.4-0.9-0.3-1.2c0.2,0.1,0.1,0.3,0.2,0.4l0.2-0.2c0.2,0.5-0.1,0.3,0.2,0.8
								c-0.1-0.6,0.1-0.3,0.2-0.7l0,0c-0.1-0.4,0.3-0.3,0.4-0.4c0.1,0.2-0.1,0.3-0.1,0.5c0.2,0.1,0.5-0.3,0.4-0.8
								c0.1,0,0.4,0.1,0.4,0.3c0.3-0.1-0.2-0.6,0.1-0.7l0.2,0.3c0.5,0.3,0.4-0.7,0.8-0.4l-0.2-0.4c0.1,0.1,0.3,0.1,0.4,0.2l-0.1,0.2
								c0.3,0.2,0-0.3,0.2-0.2c-0.1-0.1-0.3-0.3-0.4-0.4c-0.5,0.5-1.4,0.2-1.7,0.9c0,0,0.1,0.1,0.1,0.2c-0.1-0.1-0.2,0.1-0.3-0.1
								l0,0c-0.1,0.2-0.5-0.2-0.6-0.2c0.1,0.3-0.4,0.1,0,0.5l-0.3-0.2c0.1,0.2,0.2,0.4,0.2,0.5c-0.1,0-0.2-0.2-0.2-0.3
								c-0.5,0-1,0.4-1.3,0.7l0-0.3c-0.2-0.1-0.1,0.6-0.4,0c-0.1,0.3-0.6,0.2-0.3,0.8c-0.2-0.2-0.4-0.2-0.5-0.1
								c-0.1,0.1-0.1,0.1-0.2,0.2c0,0.1,0,0.1,0,0.2c0.3,0.5,0,0.2,0,0.5c-0.2-0.4-0.1-0.5-0.2-0.8c0.1,0.4,0,0.3-0.1,0.3
								c-0.1,0-0.1,0-0.1,0.7c0,0,0-0.1,0-0.2c0,0-0.1-0.2-0.1-0.3c0,0.3,0,0.4,0,0.5c0-0.1,0-0.5,0-0.7c-0.1,0.3-0.2,0.3-0.4,0.7
								c0-0.2,0.1-0.5,0.1-0.5c-0.3,0.2-0.1-0.2-0.3-0.1c0.1,0,0.3-0.4,0.3-0.2c0.1-0.3,0.2-0.3,0-0.3c-0.2-0.1-0.4-0.1-0.4-0.3
								l-0.4,0.2c-0.2-0.1,0.1-0.4,0.2-0.4c-0.1-0.4-0.4-0.3-0.6-0.4c0,0,0.1-0.1,0.1-0.1l-0.3-0.2c-0.1,0.1-0.3,0.1-0.4,0.4
								C246.9,173,247.1,172.9,247.1,173.2z"/>
							<polygon class="st153" points="246.8,173.2 246.7,173.2 246.7,173.2 							"/>
							<path class="st153" d="M248.3,176.9c0-0.2,0-0.2,0-0.3C248.2,176.7,248.2,176.8,248.3,176.9z"/>
							<path class="st153" d="M243.6,172.2c-0.2,0.4,0.2,0,0.3,0.2c-0.2,0-0.2,0.3-0.3,0.4c0.4-0.5,0.1,0.2,0.4,0.2
								c-0.1,0.2-0.2,0.1-0.4,0.3c0.2-0.1,0.5,0,0.7-0.3c0.2,0.1,0.4,0.4,0.5,0.4c-0.3,0-0.2,0.3-0.5,0.5c0.4-0.3,1.1-0.5,1.7-0.8
								c-0.2,0.4-0.2,0.4-0.5,0.8c0.1,0.5,0.3-0.3,0.5,0l-0.1-0.2c0.2,0,0.5-0.4,0.7-0.6c-0.1-0.1-0.3-0.1-0.4-0.2
								c0.2-0.3,0.4-0.1,0.5-0.1c0.3-0.2,0-0.3,0.2-0.6c-0.2,0.2-0.3,0-0.5,0.1l0.1-0.1c-0.1-0.2-0.4,0.1-0.6,0c0,0,0-0.1,0-0.1
								c-0.2,0.1-0.3,0.3-0.5,0.3l0.1,0c-0.3,0.3-0.8,0.3-0.8,0.8l-0.3-0.3c0.2-0.3,0.6-0.8,0.9-0.8l0.1-0.1
								c-0.1-0.3-0.6,0.1-0.7,0.4c-0.6,0.7-0.6-0.3-1,0c0.1-0.2,0.3-0.2,0.4-0.4c0.1,0,0.2,0,0.1,0.2c0.4,0,0.3-0.7,0.7-0.5
								c0.1,0.2-0.4,0.2-0.2,0.4l0.6-0.5c-0.2-0.1-0.4,0-0.6,0c-0.5,0.1-0.9-0.1-1.1-0.2c-0.2-0.1-0.4-0.2-0.4-0.2
								c-1.3-0.3-2.6-0.4-3.9-0.4c-0.4,0-0.6,0.1-0.7,0.1c0.1,0,0.3,0,0.2,0.1c0,0,0.2,0,0.4,0c0,0.1-0.2,0-0.1,0l0,0
								c0,0-0.1,0-0.1,0c0.2,0.1,0.6,0.3,0.8,0.1c0.2,0.1-0.2,0.1-0.3,0.1c0.6,0.3,1,0.4,1.6,0.7c0.1-0.3,0.1-0.1,0.3-0.3l0,0.1
								c0-0.1,0.1-0.2,0-0.3c0.3,0.3,0.6-0.2,0.9-0.3l-0.1,0.2c0.2,0,0.3,0,0.5,0c0.2,0.4-0.3,0-0.4,0.4l0.1,0
								c-0.1,0.1-0.3,0.4-0.4,0.5c0.4-0.1,0.4,0.3,0.8,0.2c-0.1,0.2-0.5,0.2-0.6,0.2c0.1,0.1,0.3,0,0.3,0.2l0.1-0.2
								c0.2,0.1-0.1,0.2-0.1,0.4C243.2,173.2,243.2,172.2,243.6,172.2z"/>
							<path class="st153" d="M247.8,175.2c0-0.1-0.1-0.1-0.1-0.1C247.7,175.2,247.7,175.2,247.8,175.2z"/>
							<path class="st153" d="M246.5,175.1c0,0-0.1,0.1-0.1,0.1C246.5,175.2,246.5,175.2,246.5,175.1z"/>
							<path class="st153" d="M246.1,175.5c0.1-0.2,0.1-0.1,0.3-0.3C246.3,175.3,246.2,175.2,246.1,175.5z"/>
							<path class="st153" d="M260.9,170c0,0,0.1,0,0.1-0.1L260.9,170L260.9,170z"/>
							<path class="st153" d="M260.6,170.1l-0.2,0c0,0-0.1,0.1-0.1,0.1C260.5,170.2,260.4,170.2,260.6,170.1z"/>
							<path class="st153" d="M260.1,170.3L260.1,170.3C260.1,170.3,260.1,170.3,260.1,170.3z"/>
							<path class="st153" d="M260.1,170.3l0,0.1c0.1-0.1,0.1-0.1,0.2-0.2L260.1,170.3C260.1,170.3,260.1,170.3,260.1,170.3
								L260.1,170.3C260,170.3,260.1,170.3,260.1,170.3z"/>
							<path class="st153" d="M259.9,170.4L259.9,170.4C259.9,170.4,259.9,170.4,259.9,170.4z"/>
							<path class="st153" d="M259.4,170.4c0.1,0,0,0.1,0,0.2c0.2,0,0.1-0.2,0.3-0.2c-0.2,0.2,0.1,0,0.2,0.1
								c-0.1-0.1-0.2-0.1-0.4-0.1l0,0.1C259.4,170.4,259.4,170.4,259.4,170.4z"/>
							<path class="st153" d="M258.5,171l0.1-0.2c0.1,0.1,0.3,0,0.3,0.1c0.1-0.1,0.1-0.1,0.1-0.2c0.1,0,0.1,0.1,0.2-0.1
								c-0.4,0.1-0.3,0-0.6,0c0,0,0,0,0.1-0.1l-0.2,0C258.5,170.8,258.3,170.9,258.5,171z"/>
							<path class="st153" d="M258.2,171c0.1-0.1,0.2-0.3,0-0.3c-0.1,0.1-0.2,0.2-0.3,0.3C258.1,170.8,258.2,170.8,258.2,171z"/>
							<path class="st153" d="M258,171.1c-0.1-0.1-0.3-0.2-0.3,0C257.8,171,257.9,171.3,258,171.1z"/>
							<path class="st153" d="M256.8,171.4l0.4,0c0.2,0.3-0.1,0.2-0.1,0.3c0.3-0.1,0.1-0.1,0.3-0.4c0.1,0,0.1-0.2,0.2-0.3
								C257.2,171.4,256.9,170.7,256.8,171.4z"/>
							<polygon class="st153" points="257.5,171.4 257.5,171.2 257.4,171.4 							"/>
							<path class="st153" d="M255.9,171.3c-0.4-0.3-0.2,0.4-0.5,0.3c0,0,0-0.1,0-0.1l-0.2,0.1l-0.1-0.1c0.1,0.2,0,0.4,0,0.7
								c0.3,0.2-0.1-0.4,0.2-0.1c0,0.1,0.1,0.3,0.1,0.4c0-0.2,0-0.3,0-0.5c0.1-0.1,0.1,0.1,0.2,0.2c0-0.2-0.1-0.6,0.1-0.6
								c0.2,0.1,0.1,0.4,0.3,0.2c-0.3-0.3,0.2,0,0.2-0.3c0.2,0,0.4,0.2,0.4,0.3c-0.1-0.3-0.1-0.6,0-0.7l-0.2,0.3l-0.2-0.3
								C256.2,171.3,256.1,171.3,255.9,171.3L255.9,171.3z"/>
							<path class="st153" d="M255.6,172.5C255.6,172.5,255.6,172.5,255.6,172.5C255.6,172.6,255.6,172.5,255.6,172.5z"/>
							<polygon class="st153" points="256.8,171.8 256.8,171.9 256.9,172 							"/>
							<path class="st153" d="M255.6,172.8c0,0,0-0.1-0.1-0.1L255.6,172.8L255.6,172.8z"/>
							<polygon class="st153" points="255.3,172.7 255.1,172.5 255.2,172.7 							"/>
							<path class="st153" d="M251.8,174.5c0.2,0.1,0-0.2-0.1-0.4C251.5,174.1,251.8,174.3,251.8,174.5z"/>
							<path class="st153" d="M249.7,176.4c0.2,0.1,0.3-0.3,0.4-0.4C249.9,175.9,249.8,176.1,249.7,176.4z"/>
							<path class="st153" d="M248.4,178.5c0.1-0.1,0.1-0.1,0-0.3c0.1-0.2,0.2-0.4,0.2-0.7c-0.1,0-0.1-0.1-0.1,0
								c0,0-0.1,0.1-0.1,0.3C248.4,177.9,248.4,178.3,248.4,178.5z"/>
							<path class="st153" d="M246.7,176.9c0.1,0,0.3,0.1,0.4,0.1l-0.1-0.1c0.2-0.2,0.3-0.2,0.5-0.3
								C247.2,176.5,246.9,176.5,246.7,176.9z"/>
							<path class="st153" d="M247.7,176.6C247.6,176.6,247.6,176.6,247.7,176.6C247.6,176.6,247.5,176.7,247.7,176.6z"/>
							<path class="st153" d="M247.5,176.5C247.5,176.5,247.4,176.5,247.5,176.5C247.5,176.5,247.5,176.5,247.5,176.5
								C247.6,176.5,247.6,176.4,247.5,176.5z"/>
							<path class="st153" d="M246.6,176.4c-0.2-0.2-0.2-0.2-0.4-0.2l0,0.2c0.1-0.1,0.1-0.1,0.1,0
								C246.4,176.5,246.5,176.6,246.6,176.4z"/>
							<path class="st153" d="M245.6,175l0.2-0.3c-0.1-0.2-0.7,0.3-0.5-0.3c0,0.2-0.3,0.2-0.2,0.4
								C245.3,174.7,245.5,174.8,245.6,175z"/>
							<path class="st153" d="M245.3,174.1c0.1-0.1,0.1-0.1,0.1-0.2c0-0.1-0.2,0-0.2,0.1C245.4,173.7,245.1,174.3,245.3,174.1z"/>
							<path class="st153" d="M244.5,173.6c0.1,0,0.1,0,0.1-0.1c-0.2-0.1-0.3,0.2-0.5,0.4C244.1,174.2,244.5,173.8,244.5,173.6z"/>
							<path class="st153" d="M244.1,171.1c-0.1,0.2,0.1,0.2,0.2,0.2C244.2,171.3,244.1,171.2,244.1,171.1z"/>
							<polygon class="st153" points="243.2,172.8 243.3,172.8 243.5,172.5 							"/>
							<polygon class="st153" points="242.2,172.4 242,172.5 242.2,172.6 							"/>
							<path class="st153" d="M242,172.3l-0.2-0.1l0,0.1C242,172.4,242,172.2,242,172.3z"/>
							<path class="st153" d="M241.5,172.1C241.5,172.1,241.5,172.1,241.5,172.1l0.2,0L241.5,172.1z"/>
							<path class="st153" d="M238.7,170.9c0,0-0.1,0-0.2,0C238.6,170.9,238.6,170.9,238.7,170.9z"/>
						</g>
					</g>
				</g>
			</g>
		</g>
		<path class="st134" d="M316.1,276.8c-49.2-5.5-72.5-44.7-66.5-71.5c4.8-21.2,23.1-26.1,29.1-27.2c0.6-0.1,1.2-0.1,1.7-0.2
			c0.1,0,0.2,0,0.2,0c0.9-0.2,1.8-0.4,2.7-0.6c15-4,23.1-18.8,23.5-39.9c-0.5,24.4-0.6,56.3,1.3,81.7
			C310.6,251,316.1,276.8,316.1,276.8z"/>
		<path class="st91" d="M249.5,222.1c0,0,5,22.7,25.6,32.5c16.3,7.8,7.3-9.5,7.3-9.5s5,8.7,12.7,11.9c7.4,3,7.8-4.5,7.8-4.5
			s4.6,6.8,9.9,5.9"/>
		<g>
			<circle class="st70" cx="223.1" cy="148.3" r="14.7"/>
			<circle class="st92" cx="223.1" cy="148.3" r="9.4"/>
		</g>
		<g>
			<circle class="st70" cx="272.9" cy="148.3" r="14.7"/>
			<circle class="st92" cx="272.9" cy="148.3" r="9.4"/>
		</g>
		<path class="st134" d="M308.1,100.2c-1,3.3-14.2,23.3-35.2,38.7c-4.1,3-24,17.4-24,17.4c-16.7-10-49.1-36.9-57.8-56.1
			c0.2,0.5,29.1,18.9,30.5,19.2c1.5,0.4,55.8,0,55.8,0L308.1,100.2z"/>
		<path class="st80" d="M277.4,119.5c0,0,6.3,0.3,8.7,2.4"/>
		<path class="st80" d="M221.7,119.5c0,0-5.9-0.2-9.5,2"/>
		<path class="st80" d="M269.9,232.6c0,0,5,11.6,12.6,12.5c7.6,0.8,5.2-10.5,5.2-10.5s9.1,17.5,15.3,17.9c6.2,0.3,3-14.7,3-14.7"/>
	</g>
</g>
</svg>
