<?xml version="1.0" encoding="utf-8"?>
<!-- Generator: Adobe Illustrator 26.0.3, SVG Export Plug-In . SVG Version: 6.00 Build 0)  -->
<svg version="1.1" xmlns="http://www.w3.org/2000/svg" xmlns:xlink="http://www.w3.org/1999/xlink" x="0px" y="0px"
	 viewBox="0 0 503.6 377.7" style="enable-background:new 0 0 503.6 377.7;" xml:space="preserve">
<style type="text/css">
	.st0{fill:#FFF0DD;}
	.st1{fill:#6B5C52;}
	.st2{fill:#B8BBBF;}
	.st3{fill:#F9E9CD;}
	.st4{fill:#FFE6BD;}
	.st5{fill:#F5F5F2;}
	.st6{fill:#637189;}
	.st7{fill:#9E9082;}
	.st8{fill:#938D89;}
	.st9{fill:#FFDBC0;}
	.st10{fill:#6E85BD;}
	.st11{fill:#E8D9D6;}
	.st12{fill:#A7BC79;}
	.st13{fill:#FF8080;}
	.st14{fill:#3D3533;}
	.st15{fill:#A1683D;}
	.st16{fill:#CCE0FF;}
	.st17{fill:#383531;}
	.st18{fill:#757060;}
	.st19{fill:#D29F7E;}
	.st20{opacity:0.88;clip-path:url(#SVGID_00000170991155021285445690000017916585625191061132_);}
	.st21{fill:#322015;}
	.st22{fill:#1B1C1E;}
	.st23{fill:none;stroke:#1B1C1E;stroke-width:1.2604;stroke-linecap:round;stroke-linejoin:round;stroke-miterlimit:10;}
	.st24{opacity:0.84;clip-path:url(#SVGID_00000013151028256990843920000013751945813190004118_);}
	.st25{clip-path:url(#SVGID_00000036249791257192862780000016712064969314765224_);}
	.st26{fill:none;stroke:#1B1C1E;stroke-width:1.2604;stroke-linecap:round;stroke-linejoin:round;}
	.st27{fill:#D1493B;}
	.st28{fill:#FFAE1F;}
	.st29{opacity:0.88;clip-path:url(#SVGID_00000068639668746498175010000000612983699731550345_);}
	.st30{opacity:0.7;clip-path:url(#SVGID_00000131360383342047891420000017002889733394901435_);}
	.st31{fill:#2C2C2D;}
	.st32{opacity:0.87;clip-path:url(#SVGID_00000014624691926909723150000015696547854758122401_);}
	.st33{fill:#080809;}
	.st34{opacity:0.7;clip-path:url(#SVGID_00000057131995695910068360000018364892638900078219_);}
	.st35{fill:#FBAF5E;}
	.st36{opacity:0.62;clip-path:url(#SVGID_00000073704022819205810790000000450932540743382435_);}
	.st37{fill:#3E240C;}
	.st38{fill:#BC763C;}
	.st39{opacity:0.62;clip-path:url(#SVGID_00000098931094897917157730000014288608057773708934_);}
	.st40{opacity:0.62;clip-path:url(#SVGID_00000150062652400646601360000006003889511047010478_);}
	.st41{fill:#967258;}
	.st42{opacity:0.53;clip-path:url(#SVGID_00000050637228457963709510000005543740908824914309_);}
	.st43{opacity:0.73;clip-path:url(#SVGID_00000139279355072121415390000014498569099309033856_);}
	.st44{fill:none;stroke:#1B1C1E;stroke-width:1.1311;stroke-linecap:round;stroke-linejoin:round;stroke-miterlimit:10;}
	.st45{fill:#3D291C;}
	.st46{fill:#3D291C;stroke:#967258;stroke-width:1.2604;stroke-linecap:round;stroke-linejoin:round;stroke-miterlimit:10;}
	.st47{fill:#D6D4C8;}
	.st48{fill:#1B1C1E;stroke:#967258;stroke-width:1.2604;stroke-linecap:round;stroke-linejoin:round;stroke-miterlimit:10;}
	.st49{opacity:0.52;clip-path:url(#SVGID_00000066503287894338609740000012643058156653380531_);}
	.st50{fill:#B37D4F;}
	.st51{opacity:0.88;clip-path:url(#SVGID_00000104664469159961019100000013310702040078398905_);}
	.st52{fill:#343434;}
	.st53{fill:#BC6464;}
	.st54{opacity:0.88;clip-path:url(#SVGID_00000085966183056260744770000001651054195081180338_);}
	.st55{fill:#1B1C1E;stroke:#1B1C1E;stroke-width:1.1485;stroke-linecap:round;stroke-linejoin:round;stroke-miterlimit:10;}
	.st56{fill:#8C7265;}
	.st57{opacity:0.88;clip-path:url(#SVGID_00000073711916430521335550000005183549930798808981_);}
	.st58{fill:#1B1C1E;stroke:#1B1C1E;stroke-width:1.3664;stroke-linecap:round;stroke-linejoin:round;stroke-miterlimit:10;}
	.st59{opacity:0.88;clip-path:url(#SVGID_00000151517711435038631670000010049796025663246777_);}
	.st60{fill:none;stroke:#1B1C1E;stroke-width:1.3664;stroke-linecap:round;stroke-linejoin:round;stroke-miterlimit:10;}
	.st61{opacity:0.88;clip-path:url(#SVGID_00000020369634266462702200000006692772634034456992_);}
	.st62{opacity:0.88;clip-path:url(#SVGID_00000070811331715459769700000008823014996740810687_);}
	.st63{fill:#5F6C72;}
	.st64{fill:#1B1C1E;stroke:#1B1C1E;stroke-width:1.5329;stroke-linecap:round;stroke-linejoin:round;stroke-miterlimit:10;}
	.st65{opacity:0.88;clip-path:url(#SVGID_00000041294045076241364020000002451774403578445450_);}
	.st66{clip-path:url(#SVGID_00000011728341743405559080000013116670503686607745_);}
	.st67{opacity:0.58;clip-path:url(#SVGID_00000106864023839344762590000012884921730900419479_);}
	.st68{opacity:0.58;clip-path:url(#SVGID_00000026859122864378557350000009304555215876162690_);}
	.st69{fill:#1B1C1E;stroke:#1B1C1E;stroke-width:1.818;stroke-linecap:round;stroke-linejoin:round;stroke-miterlimit:10;}
	.st70{fill:#FFFFFF;}
	.st71{fill:#CC813E;}
	.st72{opacity:0.58;clip-path:url(#SVGID_00000037683156125354851950000008840787217772821183_);}
	.st73{fill:#AA8C7D;}
	.st74{opacity:0.88;clip-path:url(#SVGID_00000173134052349935107930000000204339468398756255_);}
	.st75{opacity:0.88;clip-path:url(#SVGID_00000003818979097713569330000018439131237473255605_);}
	.st76{fill:#1B1C1E;stroke:#1B1C1E;stroke-width:1.2604;stroke-linecap:round;stroke-linejoin:round;stroke-miterlimit:10;}
	.st77{opacity:0.88;clip-path:url(#SVGID_00000078046550153008090490000015990429428149129900_);}
	.st78{opacity:0.88;clip-path:url(#SVGID_00000101091619271542587640000001206348188729706626_);}
	.st79{opacity:0.88;clip-path:url(#SVGID_00000108989341205193678100000002081162799691011722_);}
	.st80{fill:none;stroke:#1B1C1E;stroke-miterlimit:10;}
	.st81{fill:#B8BDC4;}
	.st82{fill:#B4D3CD;}
	.st83{opacity:0.88;clip-path:url(#SVGID_00000119823932859107403420000008590701564380539012_);}
	.st84{opacity:0.88;clip-path:url(#SVGID_00000103946347948778950750000002462824668131028617_);}
	.st85{fill:#EFBE9D;}
	.st86{opacity:0.88;clip-path:url(#SVGID_00000085236449772095950920000015164217974001299855_);}
	.st87{fill:#443730;}
	.st88{opacity:0.88;clip-path:url(#SVGID_00000021830259089639128590000012726560673938123934_);}
	.st89{opacity:0.88;clip-path:url(#SVGID_00000034769116285990656230000007391982350232059277_);}
	.st90{fill:#E2AF8D;}
	.st91{fill:none;stroke:#1B1C1E;stroke-linecap:round;stroke-linejoin:round;stroke-miterlimit:10;}
	.st92{fill:#1B1C1E;stroke:#1B1C1E;stroke-miterlimit:10;}
	.st93{fill:#FCEA9F;}
	.st94{fill:#F6EBEF;}
	.st95{fill:#D4DADD;}
	.st96{opacity:0.61;clip-path:url(#SVGID_00000103985270509199028690000014677006291430863539_);}
	.st97{fill:#353737;}
	.st98{fill:#B3B9BC;}
	.st99{opacity:0.61;clip-path:url(#SVGID_00000167374932293529742670000009463210772357163148_);}
	.st100{opacity:0.61;clip-path:url(#SVGID_00000173848011661950440190000004804504219728583092_);}
	.st101{fill:#B3B9BC;stroke:#1B1C1E;stroke-miterlimit:10;}
	.st102{fill:#CCE2CF;stroke:#1B1C1E;stroke-miterlimit:10;}
	.st103{fill:#EAD6DE;}
	.st104{fill:#1B1C1E;stroke:#1B1C1E;stroke-width:1.0185;stroke-miterlimit:10;}
	.st105{fill:none;stroke:#1B1C1E;stroke-width:1.0185;stroke-miterlimit:10;}
	.st106{fill:#FBAF5E;stroke:#1B1C1E;stroke-miterlimit:10;}
	.st107{fill:#513F3B;}
	.st108{opacity:0.88;clip-path:url(#SVGID_00000008847916772868609680000016050666209399843774_);}
	.st109{opacity:0.88;clip-path:url(#SVGID_00000110435174947439094140000000164937094792925335_);}
	.st110{fill:#8B2403;}
	.st111{fill:#EBDAD2;}
	.st112{fill:#A84E39;}
	.st113{fill:#751A01;}
	.st114{fill:#EBDAD2;stroke:#1B1C1E;stroke-miterlimit:10;}
	.st115{opacity:0.78;clip-path:url(#SVGID_00000065770006270201323080000011134099662680013461_);}
	.st116{fill:#290B01;}
	.st117{opacity:0.78;clip-path:url(#SVGID_00000065789321909144312600000011595398227120595637_);}
	.st118{opacity:0.78;clip-path:url(#SVGID_00000083081082413921333430000004818905477263646382_);}
	.st119{opacity:0.78;clip-path:url(#SVGID_00000119091449914843374840000007199997949511217033_);}
	.st120{fill:#030203;}
	.st121{fill:#86889A;}
	.st122{fill:#0B060A;}
	.st123{fill:#736E72;}
	.st124{fill:#9E9AA0;}
	.st125{fill:#18172A;}
	.st126{fill:#3B4D84;}
	.st127{fill:#FFA3AC;}
	.st128{fill:none;stroke:#0B080B;stroke-width:1.2005;stroke-miterlimit:10;}
	.st129{fill:#E7E6E8;}
	.st130{fill:#0B080B;}
	.st131{fill:none;stroke:#1B1C1E;stroke-width:1.2005;stroke-linecap:round;stroke-linejoin:round;stroke-miterlimit:10;}
	.st132{opacity:0.78;clip-path:url(#SVGID_00000033368992950261019610000007638007432078912391_);}
	.st133{opacity:0.78;clip-path:url(#SVGID_00000041996729280099174830000011562471981997086617_);}
	.st134{fill:#89745E;}
	.st135{opacity:0.78;clip-path:url(#SVGID_00000148651997477515480760000000990927830304148647_);}
	.st136{fill:#060606;}
	.st137{fill:#4D483E;}
	.st138{fill:#FF8A00;}
	.st139{fill:#50483F;}
	.st140{fill:#131313;}
	.st141{fill:#E8DBCD;}
	.st142{opacity:0.78;clip-path:url(#SVGID_00000160903452846200069210000002661123354101810845_);}
	.st143{opacity:0.78;clip-path:url(#SVGID_00000163037190539610031980000004837624481472199852_);}
	.st144{fill:#191212;}
	.st145{fill:#6C5353;}
	.st146{opacity:0.78;clip-path:url(#SVGID_00000016043211867547783260000004156029693303910278_);}
	.st147{fill:#B3B3B3;}
	.st148{fill:#FF9F2C;}
	.st149{fill:none;stroke:#343434;stroke-miterlimit:10;}
	.st150{fill:#21262A;}
	.st151{fill:#563D3D;}
	.st152{opacity:0.78;clip-path:url(#SVGID_00000079459684135374274200000016772604969344176533_);}
	.st153{fill:#181716;}
	.st154{fill:#706153;}
	.st155{fill:none;stroke:#1B1C1E;stroke-width:0.8477;stroke-miterlimit:10;}
	.st156{fill:#FCBD30;}
	.st157{fill:#E8D9CD;}
	.st158{fill:#534E4A;}
	.st159{opacity:0.78;clip-path:url(#SVGID_00000040553258064256323980000008396443003712842168_);}
	.st160{fill:#7DA050;}
	.st161{opacity:0.78;clip-path:url(#SVGID_00000122721224779411804910000017153897648745127092_);}
	.st162{opacity:0.78;clip-path:url(#SVGID_00000038382788031422367140000008282302193587722138_);}
	.st163{opacity:0.78;clip-path:url(#SVGID_00000069391281239448557980000001896225901762396839_);}
	.st164{fill:#EFEECE;}
	.st165{opacity:0.78;clip-path:url(#SVGID_00000025437789509910355690000004768897334165697171_);}
	.st166{fill:#93543B;}
	.st167{fill:#FF510C;}
	.st168{opacity:0.78;clip-path:url(#SVGID_00000101073145702617620320000002563646761562000519_);}
	.st169{fill:#4B1804;}
	.st170{fill:#000A0E;}
	.st171{opacity:0.78;clip-path:url(#SVGID_00000127043755988280834930000005448664070456099000_);}
	.st172{opacity:0.78;clip-path:url(#SVGID_00000074437832498286820580000007649304425074544294_);}
	.st173{fill:#F9C8A7;}
	.st174{fill:#1B1C1E;stroke:#1B1C1E;stroke-width:1.3738;stroke-miterlimit:10;}
	.st175{fill:none;stroke:#1B1C1E;stroke-width:1.3;stroke-miterlimit:10;}
	.st176{fill:#FFCB6E;}
	.st177{fill:#CECECE;}
	.st178{fill:none;stroke:#1B1C1E;stroke-width:1.3037;stroke-miterlimit:10;}
	.st179{fill:#FFFFFF;stroke:#1B1C1E;stroke-width:1.3;stroke-miterlimit:10;}
	.st180{opacity:0.78;clip-path:url(#SVGID_00000132071540717299194630000013068561546931805872_);}
	.st181{fill:none;stroke:#1B1C1E;stroke-width:1.3738;stroke-miterlimit:10;}
	.st182{opacity:0.45;clip-path:url(#SVGID_00000116229276663134642420000006454343187770940306_);}
	.st183{opacity:0.45;clip-path:url(#SVGID_00000173138119055227866070000002036530890204762285_);}
	.st184{opacity:0.45;clip-path:url(#SVGID_00000112624753767677987820000005486070668552418748_);}
	.st185{opacity:0.45;clip-path:url(#SVGID_00000016076130913004275690000014068312504032891028_);}
	.st186{fill:none;stroke:#1B1C1E;stroke-width:1.3738;stroke-linecap:round;stroke-linejoin:round;stroke-miterlimit:10;}
	.st187{fill:#FFB192;}
	.st188{fill:#EB8226;}
	.st189{fill:#F7EDE1;}
	.st190{opacity:0.78;clip-path:url(#SVGID_00000073710999386688859450000013156661494221355394_);}
	.st191{opacity:0.78;clip-path:url(#SVGID_00000156573689949420544990000008781583029657491079_);}
	.st192{opacity:0.5;clip-path:url(#SVGID_00000066501154049134133790000016409570748921657761_);}
	.st193{opacity:0.5;clip-path:url(#SVGID_00000093858608211768543680000017776499388814928267_);}
	.st194{fill:none;stroke:#06002C;stroke-width:1.3038;stroke-miterlimit:10;}
	.st195{fill:#F7A9B4;}
	.st196{fill:#06002C;}
	.st197{opacity:0.5;clip-path:url(#SVGID_00000142890429173778045060000016324363418744448661_);}
	.st198{fill:none;stroke:#06002C;stroke-width:1.3038;stroke-linecap:round;stroke-linejoin:round;stroke-miterlimit:10;}
	.st199{fill:#9BBEDC;}
	.st200{opacity:0.88;clip-path:url(#SVGID_00000143593906213931752870000012627213582543731338_);}
	.st201{opacity:0.88;clip-path:url(#SVGID_00000093152114824583571980000018025412103619941802_);}
</style>
<g id="Background">
	<rect x="-3.2" y="-2.4" class="st6" width="510" height="382.5"/>
</g>
<g id="Illustration">
	<g>
		<path class="st22" d="M135.3,293.2c0,0-8.5,2.6,14.7,3.4c23.2,0.8,145.6,1.2,158.2,0c12.6-1.2,37.1-0.5,4.6-3.4s-66-1.2-98.8-2.9
			C181.1,288.5,140.2,290.2,135.3,293.2z"/>
		<path class="st94" d="M200.9,253.9c0,0-6.2,2.8-9.2,1.2c-3-1.6-7.7-0.8-10.3,0.5c-2.6,1.3-9.3-4.6-10.7-3.7c-1.4,0.8,0,4.5,0,4.5
			s-0.4,0.6-4.8-3c-4.4-3.6-9.1-3.8-8.4-0.9c0,0-0.8,0.1-4.3-4c-3.5-4.2-6.8-2.3-6.1-0.6c0,0-6.9-6-10-5.9c-3.1,0.1-4.2,1.8-4.2,1.8
			s-4.9-2.8-7.7-1.8c-2.8,1-0.5,3.3-2.1,3.4c-1.6,0.1-6.4,0.4-5,3.1c1.4,2.7,2.8,2.7-0.2,4s-4.9,4.2-2,5.5c2.9,1.3,2.2,2.6,1.3,5.3
			s-0.3,3.9,3,4.8c3.3,0.8,3.3,1.7,2.1,2.7c-1.2,1-1,2.9,1.8,3.8s-0.8,4.4,3.5,6.9c4.3,2.5,8.8,2,7.8,3.3c-1,1.3,0,3.7,3.1,3.6
			c3.1-0.1,5-0.1,5.6,1.7c0.5,1.8,4.7,2.8,7,2.1c2.2-0.7,1.5,1.2,5.4,1.6s6.4-1.8,8.1,0c1.7,1.8,7.1-0.3,9.2,0.6
			c2.1,0.9,3.8,2.6,8.1,1.3c4.4-1.3,5,1.2,9.3,1s6.8-2.3,9.6-1.4c2.9,0.9,3.8-0.4,6.2-1.7c2.5-1.3,8.5,0.2,12.2-3.3
			C223,286.7,216.8,253.4,200.9,253.9z"/>
		<path class="st95" d="M153.4,292.8c-0.7-0.5-1-1-2.3-0.6c-2.2,0.7-6.4-0.3-7-2.1c-0.5-1.8-2.5-1.8-5.6-1.7
			c-3.1,0.1-4.1-2.3-3.1-3.6c1-1.3-3.5-0.8-7.8-3.3c-1.9-1.1-2.3-2.5-2.3-3.7c0,0,1.2-1.1,5.3-4.6c4-3.5,7.7-1.4,13-1.1
			c5.3,0.3,8.4-1.1,13.3,3.3C161.9,279.8,165.8,290.5,153.4,292.8z"/>
		<g>
			<defs>
				<path id="SVGID_00000098209026632869955750000010079020612270912180_" d="M200.9,253.9c0,0-6.2,2.8-9.2,1.2
					c-3-1.6-7.7-0.8-10.3,0.5c-2.6,1.3-9.3-4.6-10.7-3.7c-1.4,0.8,0,4.5,0,4.5s-0.4,0.6-4.8-3c-4.4-3.6-9.1-3.8-8.4-0.9
					c0,0-0.8,0.1-4.3-4c-3.5-4.2-6.8-2.3-6.1-0.6c0,0-6.9-6-10-5.9c-3.1,0.1-4.2,1.8-4.2,1.8s-4.9-2.8-7.7-1.8
					c-2.8,1-0.5,3.3-2.1,3.4c-1.6,0.1-6.4,0.4-5,3.1c1.4,2.7,2.8,2.7-0.2,4s-4.9,4.2-2,5.5c2.9,1.3,2.2,2.6,1.3,5.3s-0.3,3.9,3,4.8
					c3.3,0.8,3.3,1.7,2.1,2.7c-1.2,1-1,2.9,1.8,3.8s-0.8,4.4,3.5,6.9c4.3,2.5,8.8,2,7.8,3.3c-1,1.3,0,3.7,3.1,3.6
					c3.1-0.1,5-0.1,5.6,1.7c0.5,1.8,4.7,2.8,7,2.1c2.2-0.7,1.5,1.2,5.4,1.6s6.4-1.8,8.1,0c1.7,1.8,7.1-0.3,9.2,0.6
					c2.1,0.9,3.8,2.6,8.1,1.3c4.4-1.3,5,1.2,9.3,1s6.8-2.3,9.6-1.4c2.9,0.9,3.8-0.4,6.2-1.7c2.5-1.3,8.5,0.2,12.2-3.3
					C223,286.7,216.8,253.4,200.9,253.9z"/>
			</defs>
			<clipPath id="SVGID_00000015354371260778886930000012365627558807885452_">
				<use xlink:href="#SVGID_00000098209026632869955750000010079020612270912180_"  style="overflow:visible;"/>
			</clipPath>
			<g style="opacity:0.61;clip-path:url(#SVGID_00000015354371260778886930000012365627558807885452_);">
				<g>
					<g>
						<g>
							<path class="st97" d="M209.3,280.2c-0.1,0-0.2,0-0.3,0.1C209,280.3,209.1,280.3,209.3,280.2z"/>
							<path class="st97" d="M214.8,288.3C214.9,288.3,214.9,288.3,214.8,288.3L214.8,288.3L214.8,288.3z"/>
							<path class="st97" d="M214.9,288.2l0.3-0.2C215.1,288,215,288.1,214.9,288.2z"/>
							<path class="st97" d="M206.5,280.8c-0.1,0-0.3,0-0.6,0L206.5,280.8z"/>
							<path class="st97" d="M205.5,282.6c-0.1,0-0.1,0.1-0.1,0.2C205.4,282.7,205.5,282.6,205.5,282.6z"/>
							<path class="st97" d="M207,272c0.1,0,0.1,0,0.2,0C207.1,272,207.1,272,207,272z"/>
							<path class="st97" d="M206.2,271.5c0-0.1,0-0.1,0-0.1l-0.1,0C206,271.4,206.1,271.5,206.2,271.5z"/>
							<path class="st97" d="M205.7,271.9l-0.1-0.1C205.7,271.8,205.7,271.9,205.7,271.9z"/>
							<path class="st97" d="M200.2,268l-0.4,0C199.9,268,200.1,268,200.2,268z"/>
							<path class="st97" d="M207.6,272c-0.1,0-0.2,0-0.4,0C207.3,272,207.4,272.1,207.6,272z"/>
							<path class="st97" d="M209.5,280.1c-0.1,0-0.1,0.1-0.2,0.1C209.4,280.2,209.4,280.2,209.5,280.1z"/>
							<path class="st97" d="M206.2,280.2L206.2,280.2C206.2,280.2,206.2,280.2,206.2,280.2z"/>
							<path class="st97" d="M217.8,290.6c0.1,0,0.2,0.1,0.3,0.1C218,290.4,217.9,290.4,217.8,290.6z"/>
							<path class="st97" d="M206.8,274.5c-1.2,0.5-0.2-0.3-1.3,0.1c0.3,0.1,0.6,0.2,0,0.4c-0.7,0.1-0.1-0.4-1.1-0.1l0.5,0.1
								c-0.4,0.3-1.3,0.4-1.2,0.5c1.4-0.2-0.2,1,0.1,1.2l-0.2,0l-0.5,0.7c0,0,0,0-0.1,0c0.1,0,0.2,0,0.2-0.1
								c-0.6,0.4-0.9,0.9-0.6,1.2c0.8-0.2,0.7,1,1.4,0.8c-0.2-0.1-0.3-0.2-0.2-0.4l0.9-0.4c0.1,0.3-0.8,0.4-0.1,0.4
								c1.2-0.6-0.2-0.4-0.1-0.7c0.3,0,0.6,0,0.8,0c-0.1-0.4,0.1-1-1.2-0.8c0.2-0.2,0.7-0.4,0.9-0.3c-0.8,0,0.6-0.5-0.2-0.5
								c1.2-0.4,0.9,0.4,1.6,0.4c-0.7,0.8,0.3,0.9,0.7,1.2c-0.8,0.4-1.6,0.5-2,0.9c-0.3,0.7,0.7,0.2,1.2,0.2
								c-0.1,0.4-1.3,0.7-1.1,1.2l-0.7,0c-1,0.9,0.6,0,0.5,0.4c0.3-0.2,0.5-0.4,0.4-0.6c0.4-0.2,0.7-0.2,0.8-0.1l0-0.1
								c0.6-0.2,1.2-0.5,1.1,0c-0.8,0.2-0.4,0.5-0.6,0.7l-0.2,0c0.3,0.1,0.4,0.4,0.6,0.4l-0.2,0.1c0.4,0,1.2-0.4,1.2-0.1
								c-0.3,0.2-1.4,0.4-1.1,0.6c-0.5,0.3-0.7,0-0.7-0.3c0,0.3-0.8,0.9-1,0.7c-0.6,0.5,0.4,0.1,0.2,0.4c0.2-0.1,0.4-0.2,0.6-0.3
								c-0.8,0.5,0.3,0.6,0.8,0.3l-0.6,0c0.7-0.4,1.3-0.4,1.6-0.7c-1,0.8,1,0.4,0.2,1.1l0.5-0.4c0.1,0.8,1.5,0.4,2.1,0.7
								c-0.4,0.1-1.5,0.8-1.4,0.3c0.2,0.6-1,0.9-1.4,1.5c-0.1,0.7,1.2-0.5,1.6-0.7l-0.4-0.1c1.5-0.6,0.5,1.2,1.7,1.1
								c-0.3,0.3-0.3,0-0.4,0.1c-0.4,0.7,0.3,0.1,0.7,0.1c0.1,0.3,0.1,0.8-0.8,1.3c0,0.4,0.4-0.4,0.8-0.5l-0.1,0.2l1.1-0.5
								c0,0.4-0.2,1.1-0.8,1.8c0.6,0.4,1.8-1.3,2.4-1.2c-0.2,0.6-0.6,0.5-0.9,0.7c0.1,0.1,0.3,0.2,0.4,0.2c-0.9,0.7-0.8,0-1.7,0.9
								c1.2-0.6,0.6,0.1,1.6-0.1l0.1-0.1c0.8-0.5,0.7,0.3,1,0.4c-0.5,0.3-0.7,0.1-1,0.1c-0.1,0.5,0.8,0.8,1.8,0.2c0,0.3,0,0.9-0.5,1
								c0.4,0.6,1.3-1,1.5-0.4l-0.6,0.6c-0.3,1.3,1.6,0,1.4,1.2l0.7-0.8c-0.2,0.4-0.1,0.7-0.3,1.1l-0.5,0.1
								c-0.3,0.9,0.8-0.5,0.6,0.2c0.2-0.3,0.4-1,0.7-1.3c-1.4-0.3-1.3-2.2-2.9-2.3c-0.1,0.1-0.1,0.3-0.3,0.4
								c0.1-0.3-0.3-0.2,0.1-0.6l0.1,0c-0.4,0,0.3-1.2,0.1-1.3c-0.6,0.4-0.3-0.7-1,0.3l0.4-0.7c-0.4,0.3-0.8,0.7-1,0.8
								c-0.1-0.2,0.3-0.6,0.6-0.7c-0.2-0.9-1-1.6-1.8-2l0.6-0.2c0.1-0.3-1.3,0.1,0-0.7c-0.7,0.1-0.4-1.1-1.6-0.2
								c1-1.1-0.1-1.2-0.6-1.5c-1,0.8-0.6-0.2-1.2,0c0.8-0.6,1.1-0.2,1.7-0.6c-0.8,0.2-0.8-0.3-0.9-0.7c-0.1-0.4-0.2-0.7-1.4-0.1
								c0-0.1,0.1-0.2,0.2-0.2c-0.1-0.1,0.3-0.5,0.3-0.6c-0.4,0.2-0.5,0.5-0.8,0.3c0-0.2,0.7-0.5,0.9-0.7c-0.7,0-1.2-0.5-2.2-0.1
								c0.2-0.2,0.7-0.6,0.9-0.6c-1-0.2-0.2-0.6-0.9-1c0.1,0.2,1-0.4,0.8,0.1c1.2-0.9-0.6-0.8-0.2-1.6l-1,0.2
								c-0.3-0.2,0.6-0.6,0.9-0.5c0.4-0.7-0.3-0.8-0.4-1.1c0.1-0.1,0.3-0.1,0.3,0l-0.2-0.6c-0.2,0-0.8,0-1.3,0.2
								C206.7,274.1,207.1,274.1,206.8,274.5z"/>
							<path class="st97" d="M206.2,274.2l-0.1,0l0,0C206.1,274.2,206.1,274.2,206.2,274.2z"/>
							<path class="st97" d="M204.8,281.2c0.2-0.2,0.2-0.3,0.3-0.3C204.9,281,204.8,281.1,204.8,281.2z"/>
							<path class="st97" d="M203.3,268.8c-1.4,0.3,0.3,0.4-0.1,0.7c-0.3-0.2-1.1-0.1-1.5,0c1.9,0.1-0.3,0.5,0.2,1.1
								c-0.6,0.1-0.7-0.2-1.4-0.1c0.5,0.3,0.8,0.8,1.9,0.7c0.1,0.6-0.1,1.1,0.1,1.4c-0.5-0.3-1,0.2-2,0c0.6,0.1,1.4,0.3,2.1,0.5
								c0.8,0.2,1.6,0.4,2.4,0.5c-1.1,0.4-1.2,0.5-2.2,0.7c-0.5,0.9,1.1-0.1,0.9,0.6l0.1-0.4c0.4,0.2,1.4-0.1,2.2-0.3l-0.4-0.6
								c0.8-0.2,0.8,0.2,1,0.3c1-0.1,0.5-0.6,1.3-0.7c-0.6,0.1-0.5-0.2-0.8-0.3l0.4-0.1c0.3-0.4-0.7-0.3-0.8-0.6
								c0.1-0.1,0.2-0.1,0.3-0.1c-0.5,0-1.1,0.1-1.3-0.1l0.1,0.1c-1,0-1.8-0.5-2.8,0.1l0.1-0.8c1.1-0.1,2.8-0.3,3,0l0.5-0.1
								c0.5-0.4-1-0.7-1.9-0.3c-2.7,0.2-0.3-1.1-1.5-1.5c0.7-0.1,1,0.1,1.5,0.2c0.1,0.1,0.1,0.3-0.5,0.4c0.5,0.6,2.2-0.5,2.1,0.3
								c-0.3,0.4-1.2-0.2-1.2,0.3l2,0c-0.1-0.3-0.5-0.5-0.8-0.8c-0.8-0.6-0.9-1.3-0.9-1.7c0.1-0.5,0.3-0.8,0.3-0.8
								c-0.4-2.2-0.6-4.5-0.5-6.8c-0.2-0.8-0.1-1-2-1.6c-0.4,0.1-0.3,0.6-1,0.3c0.7,0.2,1.1,0.5,1,0.9c-0.7,0-0.3-0.4-0.5-0.3
								L203,260c-0.4-0.1-0.6-0.2-0.6-0.3c-1.1,0.3-1,1.2,0.3,1.7c-0.8,0.3-1.1-0.4-1.6-0.6c-0.4,0.6-0.5,1.2-0.6,1.8
								c-0.1,0.6-0.1,1.1-0.1,1.8c1.3,0,0.8,0.1,1.7,0.3l-0.5,0.1c0.2-0.1,1.1,0.1,1.4-0.1c-1,0.8,1.7,0.9,2.2,1.3l-0.7,0
								c0.1,0.4,0.2,0.5,0.5,0.8c-1.2,0.7-0.2-0.5-1.8-0.3l0.3,0.2c-0.6-0.1-1.7-0.1-2.2-0.3c1.1,0.6-0.3,1,0.5,1.7
								c-0.7,0-1.4-0.6-1.5-0.8c-0.1,0.3,0.5,0.7-0.2,0.8l0.9,0c0.1,0.4-0.9,0-1.4,0.2C199.9,269.2,202.6,268,203.3,268.8z"/>
							<path class="st97" d="M205.5,278.6c0-0.1-0.1-0.2-0.2-0.3C205.4,278.4,205.4,278.5,205.5,278.6z"/>
							<path class="st97" d="M203.1,277.4c-0.1,0-0.2,0.1-0.3,0.1C202.9,277.5,203,277.5,203.1,277.4z"/>
							<path class="st97" d="M201.9,277.7c0.4-0.2,0.4-0.1,0.9-0.2C202.5,277.5,202.3,277.1,201.9,277.7z"/>
							<path class="st97" d="M225.7,300.9c0.1-0.2,0.2-0.3,0.4-0.5l0.3-0.4l0.2-0.2l0.1-0.1c0,0,0,0,0-0.1c0-0.2,0.1-0.3,0.1-0.4
								c0.2-0.2,0.4-0.3,0.5-0.3l0,0l0,0l0,0l-2.1,0.5h0l0,0l0,0l0,0l0,0l0,0l0,0l0,0l0,0l0,0l1.9-0.4c-0.3,0-0.5,0.2-0.6,0.5
								c0,0.1-0.1,0.1-0.1,0.2l0,0.1c0,0,0,0,0,0.1l-0.1,0.1l-0.5,0.7c0,0-0.1,0.1-0.1,0.1C225.9,300.7,225.8,300.8,225.7,300.9z"/>
							<path class="st97" d="M225.7,299.8l-0.2-0.5l-0.8,1C225.1,300.5,225.4,299.6,225.7,299.8z"/>
							<path class="st97" d="M225.1,298.7l0.2-0.2C225.2,298.5,225.2,298.6,225.1,298.7z"/>
							<path class="st97" d="M224.9,299.1l-0.6,0.7l0.8-0.4l-0.1-0.2c0.1-0.3,0.1-0.4,0.2-0.6l-0.5,0.5
								C224.7,299.1,224.9,299,224.9,299.1z"/>
							<path class="st97" d="M224.5,299c0,0.1-0.1,0.2-0.1,0.3C224.4,299.2,224.5,299.1,224.5,299z"/>
							<path class="st97" d="M224.4,297c-0.1,0.3-0.5,0.7-0.7,1c0.2,0.5,0.8-0.7,0.9-0.1c-0.8,0.4-0.1,0.6-0.2,1.1
								c0.3-0.8,0.4-1.4,0.2-1.8l-0.3,0.5C224.2,297.6,224.4,297.3,224.4,297z"/>
							<path class="st97" d="M222,297.2l0.7-0.6c-0.2,0.4,0.3,0.6-0.2,1.4c0.2,0,0.4-0.3,0.7-0.5c-0.1,0.5-0.2,0.8,0.3,0.3
								c-0.4-0.9-0.1-0.9-0.5-1.5c0.1-0.2,0.2-0.1,0.2,0l-0.1-0.6C222.5,296.7,222,296.5,222,297.2z"/>
							<path class="st97" d="M221.8,296.4c0.3,0.1,0.9-0.5,1-1l-0.9,0.2C222.1,295.7,222.3,295.7,221.8,296.4z"/>
							<path class="st97" d="M221.4,296.1c0.1-0.4,0.4-1.4-0.2-0.8C221.6,295.5,220.7,296.5,221.4,296.1z"/>
							<path class="st97" d="M219.8,294.2l0.2,0.8c-0.5,1-0.5,0.1-0.9,0.4c0.3,0.5,0.4,0.1,1.1-0.3c0.1,0.1,0.6-0.2,0.9-0.4
								C220,295.1,221.5,292.8,219.8,294.2z"/>
							<polygon class="st97" points="220.3,295.8 220.6,295.5 220.1,295.6 							"/>
							<path class="st97" d="M219.3,292.3c0.5-1.3-1,0.2-1-0.5c0.1,0,0.1-0.1,0.3-0.2l-0.4-0.1l0.2-0.2c-0.5,0.6-1,0.7-1.5,1
								c-0.2,0.9,0.7-0.7,0.5,0.3c-0.3,0.2-0.7,0.6-0.9,0.8c0.4-0.2,0.8-0.5,1.1-0.8c0.3,0.1-0.1,0.4-0.2,0.6
								c0.5-0.2,1.2-1.1,1.4-0.7c-0.2,0.7-0.8,0.8-0.2,0.8c0.5-1.2,0.3,0.4,0.9-0.1c0.1,0.4-0.1,1.2-0.4,1.5
								c0.5-0.8,1.3-1.3,1.6-1.4l-0.9,0.4l0.5-1.1C219.5,292.8,219.4,292.6,219.3,292.3L219.3,292.3z"/>
							<path class="st97" d="M216.4,293.3c-0.1,0-0.1,0.1-0.2,0.1C216.2,293.4,216.3,293.4,216.4,293.3z"/>
							<polygon class="st97" points="218.8,295 218.5,295.1 218.4,295.5 							"/>
							<path class="st97" d="M215.7,293.8c0,0.1,0.3-0.2,0.3-0.3l-0.4,0.3L215.7,293.8z"/>
							<polygon class="st97" points="215.9,293 216.1,292.3 215.7,292.7 							"/>
							<path class="st97" d="M210.4,287c-0.1,0.5,0.4-0.1,0.9-0.4C211.2,286.1,210.8,287,210.4,287z"/>
							<path class="st97" d="M206.5,283.5c-0.3,0.5,0.5,0.3,0.7,0.6C207.4,283.6,207,283.5,206.5,283.5z"/>
							<path class="st97" d="M203,282.9c0.3-0.1,0.4,0,0.4-0.2l1.4-0.4C205,281.6,203.5,282.6,203,282.9z"/>
							<path class="st97" d="M201.6,280.6l0.7,0.2l-0.1-0.2c0.5-0.1,0.8-0.2,1.3-0.3C203.1,280.1,202.5,280.1,201.6,280.6z"/>
							<path class="st97" d="M203.9,280.5c0,0-0.1-0.1-0.1-0.1C203.6,280.5,203.5,280.6,203.9,280.5z"/>
							<path class="st97" d="M203.7,280.2c-0.1,0-0.1,0-0.2,0c0.1,0,0.2,0.1,0.3,0.1C203.9,280.3,203.9,280.2,203.7,280.2z"/>
							<path class="st97" d="M202.1,280l-0.4-0.6l-0.1,0.4C202.3,279.4,201.2,280.3,202.1,280z"/>
							<path class="st97" d="M201.3,276.1l0.8-0.3c0-0.5-1.9-0.5-0.6-1.2c-0.4,0.3-1-0.1-1.1,0.5
								C201.1,275.1,201.4,275.7,201.3,276.1z"/>
							<path class="st97" d="M202,274.1c0.3,0,0.4-0.1,0.6-0.3c0.1-0.2-0.4-0.2-0.7-0.1C203,273.6,201.3,274.1,202,274.1z"/>
							<path class="st97" d="M201.4,272c0,0.1,0.2,0.3,0.3,0.1c-0.1-0.4-1-0.1-1.6-0.2C199.7,272.4,201,272.4,201.4,272z"/>
							<path class="st97" d="M207.1,268.2c-0.7,0.1-0.6,0.4-0.3,0.4C206.6,268.6,206.8,268.4,207.1,268.2z"/>
							<polygon class="st97" points="201.1,268.9 201,269 202.1,269 							"/>
							<polygon class="st97" points="200.3,266.5 199.6,266.3 199.7,266.7 							"/>
							<path class="st97" d="M200.5,266.1l-0.1-0.4l-0.3,0.1C199.9,266,200.5,265.9,200.5,266.1z"/>
							<path class="st97" d="M200.3,264.9c0.1,0.1,0,0.1-0.2,0.1l0.5,0.4L200.3,264.9z"/>
							<path class="st97" d="M205.3,259.3c0.7,0.2,0.3-0.2,0.5-0.3C205.6,259,204.7,259,205.3,259.3z"/>
						</g>
					</g>
				</g>
			</g>
		</g>
		<path class="st94" d="M302.6,289.3c0,0,3-1,5.5-7c2.5-6,3.8-7,4.9-11.6s2.9-9,3.6-15.4s3.9-15.1,4.3-18c0.4-2.9-29.5-16.8-37-4.4
			C276.5,245.3,296,282,302.6,289.3z"/>
		<path class="st98" d="M316.3,257.9c-0.8,5-2.2,8.8-3.3,12.8c-0.9,3.6-1.9,4.9-3.4,8.1c0,0-4.7-3.5-3.3-8.3
			c1.4-4.7,0.1-1.8,1.6-7.5C309.4,257.6,316,257.9,316.3,257.9z"/>
		<g>
			<defs>
				<path id="SVGID_00000131331489448267305140000001077290919263829161_" d="M302.6,289.3c0,0,3-1,5.5-7c2.5-6,3.8-7,4.9-11.6
					s2.9-9,3.6-15.4s3.9-15.1,4.3-18c0.4-2.9-29.5-16.8-37-4.4C276.5,245.3,296,282,302.6,289.3z"/>
			</defs>
			<clipPath id="SVGID_00000121261078537271551540000013559549603649910182_">
				<use xlink:href="#SVGID_00000131331489448267305140000001077290919263829161_"  style="overflow:visible;"/>
			</clipPath>
			<g style="opacity:0.61;clip-path:url(#SVGID_00000121261078537271551540000013559549603649910182_);">
				<g>
					<g>
						<g>
							<path class="st97" d="M301.4,255.1c0,0.1,0,0.2,0.1,0.3C301.5,255.4,301.5,255.3,301.4,255.1z"/>
							<path class="st97" d="M309.2,250.2C309.2,250.2,309.2,250.1,309.2,250.2L309.2,250.2L309.2,250.2z"/>
							<path class="st97" d="M309.2,250.1l-0.2-0.3C309,249.9,309.1,250,309.2,250.1z"/>
							<path class="st97" d="M302,257.7c0,0.1,0,0.3,0,0.5L302,257.7z"/>
							<path class="st97" d="M303.7,258.5c0,0.1,0.1,0.1,0.2,0.1C303.8,258.6,303.7,258.6,303.7,258.5z"/>
							<path class="st97" d="M293.7,258c0-0.1,0-0.1,0-0.1C293.6,257.9,293.6,258,293.7,258z"/>
							<path class="st97" d="M293.3,258.9c-0.1,0-0.1,0-0.1,0.1l0,0.1C293.3,259.1,293.3,258.9,293.3,258.9z"/>
							<path class="st97" d="M293.8,259.2l-0.1,0.1C293.7,259.3,293.7,259.3,293.8,259.2z"/>
							<path class="st97" d="M291.4,265l0.1,0.4C291.5,265.2,291.5,265.1,291.4,265z"/>
							<path class="st97" d="M293.6,257.5c0,0.1,0,0.2,0,0.4C293.6,257.8,293.7,257.7,293.6,257.5z"/>
							<path class="st97" d="M301.3,254.9c0,0.1,0.1,0.1,0.1,0.2C301.4,255,301.4,254.9,301.3,254.9z"/>
							<path class="st97" d="M301.4,258L301.4,258C301.5,257.9,301.5,257.9,301.4,258z"/>
							<path class="st97" d="M311.6,247.6c0-0.1,0.1-0.2,0.1-0.3C311.5,247.4,311.5,247.5,311.6,247.6z"/>
							<path class="st97" d="M296.1,257.8c0.6,1-0.3,0.2,0.2,1.2c0.1-0.3,0.1-0.5,0.4,0c0.1,0.6-0.4,0.1,0,1l0.1-0.4
								c0.4,0.4,0.5,1.1,0.6,1c-0.4-1.3,0.9,0.1,1.1-0.2l0,0.2l0.6,0.4c0,0,0,0,0,0.1c0-0.1-0.1-0.1-0.1-0.2
								c0.4,0.5,0.9,0.8,1.1,0.5c-0.2-0.7,0.8-0.7,0.6-1.3c0,0.2-0.1,0.3-0.4,0.2l-0.4-0.8c0.3-0.1,0.4,0.7,0.4,0.1
								c-0.6-1-0.4,0.2-0.6,0.2c-0.1-0.3-0.1-0.5,0-0.7c-0.4,0.2-0.9,0-0.6,1.2c-0.2-0.2-0.4-0.7-0.4-0.8c0.1,0.8-0.5-0.5-0.5,0.2
								c-0.4-1,0.3-0.8,0.2-1.5c0.8,0.6,0.8-0.4,1.1-0.7c0.4,0.7,0.5,1.5,0.9,1.8c0.6,0.3,0.2-0.6,0.1-1.1c0.4,0.1,0.7,1.2,1.2,1
								l0,0.6c0.8,0.9,0-0.5,0.3-0.4c-0.2-0.2-0.4-0.5-0.6-0.3c-0.2-0.4-0.2-0.6-0.1-0.7l-0.1,0c-0.2-0.5-0.5-1.1-0.1-1
								c0.2,0.7,0.5,0.3,0.7,0.6l0,0.2c0.1-0.3,0.3-0.4,0.4-0.5l0.1,0.2c0-0.3-0.4-1.1-0.1-1.1c0.2,0.3,0.4,1.3,0.6,1
								c0.2,0.5,0,0.7-0.3,0.6c0.3,0,0.9,0.7,0.6,0.9c0.4,0.5,0.1-0.4,0.4-0.2c-0.1-0.2-0.2-0.4-0.3-0.5c0.5,0.8,0.6-0.3,0.2-0.8
								l0,0.6c-0.4-0.6-0.3-1.2-0.7-1.5c0.7,0.9,0.3-0.9,1-0.2l-0.4-0.4c0.7-0.1,0.4-1.4,0.7-2c0,0.4,0.7,1.4,0.2,1.3
								c0.6-0.1,0.8,0.9,1.3,1.3c0.6,0.1-0.5-1.1-0.6-1.5l-0.1,0.4c-0.5-1.4,1.1-0.4,1.1-1.5c0.3,0.3,0,0.3,0,0.4
								c0.7,0.4,0.1-0.3,0.1-0.6c0.3-0.1,0.8,0,1.2,0.8c0.4,0-0.4-0.4-0.4-0.7l0.2,0.1l-0.4-1c0.4,0.1,1,0.2,1.6,0.8
								c0.4-0.5-1.1-1.7-1-2.3c0.5,0.2,0.4,0.6,0.6,0.8l0.3-0.3c0.5,0.9,0,0.7,0.7,1.6c-0.5-1.1,0.1-0.6,0-1.5l-0.1-0.1
								c-0.4-0.7,0.4-0.6,0.5-0.9c0.2,0.4,0,0.7,0,0.9c0.5,0.1,0.8-0.7,0.3-1.7c0.2,0,0.8,0.1,0.9,0.6c0.6-0.3-0.8-1.3-0.2-1.4
								l0.5,0.6c1.2,0.4,0.1-1.5,1.2-1.2l-0.7-0.7c0.4,0.2,0.7,0.2,1,0.4l0,0.4c0.7,0.4-0.4-0.7,0.3-0.5c-0.2-0.2-0.8-0.5-1.1-0.7
								c-0.2,0.6-0.8,0.9-1.3,1.2c-0.5,0.3-1,0.6-1.1,1.3c0.1,0.1,0.2,0.1,0.3,0.3c-0.3-0.1-0.3,0.3-0.6-0.2l0-0.1
								c-0.1,0.4-1.1-0.3-1.2-0.2c0.3,0.6-0.7,0.2,0.2,1l-0.6-0.4c0.2,0.4,0.6,0.8,0.6,1c-0.2,0.1-0.5-0.3-0.6-0.6
								c-0.9,0.2-1.5,0.8-2,1.6l-0.2-0.6c-0.3-0.1,0,1.2-0.7,0c0,0.7-1.1,0.3-0.3,1.5c-1-1-1.1,0.1-1.5,0.5c0.8,0.9-0.2,0.5,0,1.1
								c-0.6-0.7-0.1-1.1-0.5-1.6c0.3,1.5-1.8,0-0.8,2.1c-0.1,0-0.2-0.1-0.2-0.2c-0.1,0.1-0.4-0.2-0.6-0.3c0.2,0.4,0.5,0.4,0.3,0.7
								c-0.2,0-0.5-0.6-0.7-0.8c0,0.7-0.5,1.2-0.1,2c-0.2-0.2-0.6-0.6-0.6-0.8c-0.2,1-0.6,0.2-0.9,0.9c0.2-0.1-0.4-0.9,0.1-0.7
								c-0.9-1.1-0.7,0.7-1.5,0.3l0.2,0.9c-0.2,0.3-0.6-0.5-0.6-0.8c-0.7-0.2-0.7,0.4-1.1,0.5c-0.1-0.1-0.1-0.2,0-0.2l-0.5,0.2
								c0,0.2,0,0.7,0.3,1.2C295.7,258,295.7,257.6,296.1,257.8z"/>
							<path class="st97" d="M295.9,258.4l0,0.1L295.9,258.4C295.9,258.5,295.9,258.5,295.9,258.4z"/>
							<path class="st97" d="M302.4,259.2c-0.2-0.2-0.3-0.2-0.3-0.2C302.2,259.1,302.3,259.2,302.4,259.2z"/>
							<path class="st97" d="M291.3,262.1c0.6,1.2,0.3-0.3,0.6-0.1c-0.2,0.3,0.2,1,0.4,1.3c-0.4-1.7,0.5,0.2,0.9-0.4
								c0.2,0.5,0,0.7,0.2,1.3c0.1-0.5,0.5-0.9,0.2-1.8c0.5-0.2,1-0.1,1.2-0.3c-0.2,0.5,0.3,0.9,0.4,1.8c-0.1-1.2,0.2-2.8,0.2-4.2
								c0.5,0.9,0.6,1,0.9,1.9c0.9,0.4-0.2-1,0.4-0.9l-0.3,0c0.1-0.4-0.3-1.3-0.5-2l-0.6,0.4c-0.3-0.7,0.1-0.7,0.2-1
								c-0.2-0.9-0.6-0.4-0.8-1c0.2,0.6-0.2,0.5-0.2,0.8l-0.2-0.3c-0.5-0.2-0.2,0.7-0.5,0.8c-0.1-0.1-0.1-0.2-0.1-0.2
								c0.1,0.4,0.2,1,0.1,1.2l0.1-0.1c0.1,0.9-0.2,1.7,0.6,2.5l-0.8,0c-0.3-1-0.8-2.4-0.5-2.7l-0.1-0.4c-0.5-0.4-0.5,1.1,0,1.8
								c0.7,2.4-1,0.5-1.1,1.6c-0.3-0.6-0.1-1-0.2-1.4c0.1-0.1,0.2-0.2,0.4,0.3c0.5-0.6-0.9-1.9-0.1-2c0.5,0.2,0,1.2,0.5,1l-0.4-1.8
								c-0.3,0.2-0.4,0.6-0.6,0.9c-0.9,1.7-2.4,1.1-2.4,1.1c-1,0.5-2.1,1-3.3,1.8c-0.6,0.4-1.3,0.9-2,1.7c-0.2,0.3-0.4,0.5-0.5,0.8
								c-0.2,0.3-0.3,0.6-0.4,1c-0.2,0.7-0.2,1.5-0.1,2c0.1,0.2,0.1,0.3,0.2,0.5c0.1,0.1,0.1,0.2,0.2,0.3c0.1,0.2,0.3,0.3,0.4,0.4
								c0.3,0.2,0.8,0.1,1.7-0.2c0.2-0.3-0.1-0.6,0.5-0.8c-0.6,0.2-1.1,0.1-1.2-0.4c0.6-0.2,0.4,0.3,0.5,0.2l0-0.1
								c0.3-0.1,0.6-0.1,0.6,0c0.4-0.4,0.6-0.5,0.5-0.6c0-0.1-0.1-0.1-0.3-0.2c-0.2-0.1-0.4-0.3-0.6-0.5c0.4,0,0.6,0.2,0.8,0.3
								c0.2,0.2,0.4,0.3,0.7,0.3c0.3,0,0.3,0.1,0.6-0.1c0.1-0.1,0.3-0.2,0.4-0.3c0.2-0.1,0.4-0.2,0.6-0.3c-0.5-1.1-0.2-0.7-0.4-1.5
								l0.3,0.3c-0.1-0.2-0.3-1-0.7-1.1c1,0.5,0.1-1.8,0.4-2.4l0.2,0.6c0.3-0.3,0.4-0.3,0.6-0.7c1,0.8-0.5,0.4,0.3,1.7l0.1-0.3
								c0.1,0.6,0.4,1.6,0.4,2c0.2-1.1,0.9,0,1.3-0.9c0.2,0.7-0.2,1.4-0.3,1.5c0.2,0,0.4-0.6,0.7,0l-0.3-0.8
								c0.3-0.2,0.2,0.7,0.6,1.2C292.5,265,290.8,262.8,291.3,262.1z"/>
							<path class="st97" d="M300,258.6c-0.1,0-0.2,0.1-0.2,0.2C299.9,258.8,300,258.7,300,258.6z"/>
							<path class="st97" d="M299.1,260.9c0,0.1,0.1,0.2,0.1,0.3C299.2,261.1,299.2,261,299.1,260.9z"/>
							<path class="st97" d="M299.5,262.1c-0.2-0.3-0.1-0.4-0.3-0.8C299.2,261.5,299,261.6,299.5,262.1z"/>
							<path class="st97" d="M322.3,241.5c-0.2-0.2-0.2-0.5-0.4-0.6l0,0.5L322.3,241.5z"/>
							<path class="st97" d="M321.1,241.6l-0.5,0.1l0.8,0.9C321.6,242.2,320.9,241.9,321.1,241.6z"/>
							<path class="st97" d="M320,242l-0.2-0.2C319.9,241.9,319.9,242,320,242z"/>
							<path class="st97" d="M320.4,242.3l0.6,0.6l-0.2-0.7l-0.2,0c-0.2-0.2-0.4-0.1-0.5-0.2l0.4,0.5
								C320.3,242.4,320.3,242.3,320.4,242.3z"/>
							<path class="st97" d="M320.2,242.6c0.1,0,0.1,0.1,0.2,0.1C320.3,242.7,320.2,242.7,320.2,242.6z"/>
							<path class="st97" d="M318.4,242.4c0.3,0.1,0.5,0.5,0.8,0.8c0.5-0.1-0.5-0.8,0-0.9c0.2,0.8,0.5,0.2,1,0.3
								c-0.7-0.4-1.2-0.6-1.6-0.4l0.4,0.3C318.9,242.7,318.7,242.4,318.4,242.4z"/>
							<path class="st97" d="M318.2,244.6l-0.4-0.7c0.3,0.2,0.6-0.1,1.2,0.4c0-0.2-0.2-0.4-0.3-0.7c0.4,0.2,0.7,0.3,0.3-0.2
								c-0.9,0.2-0.9-0.1-1.4,0.2c-0.1-0.1-0.1-0.2,0-0.2l-0.6,0C317.8,244.1,317.6,244.5,318.2,244.6z"/>
							<path class="st97" d="M317.4,244.7c0.2-0.3-0.3-0.9-0.8-1.1l0.1,0.9C316.8,244.4,316.9,244.1,317.4,244.7z"/>
							<path class="st97" d="M317.1,245c-0.4-0.2-1.2-0.6-0.7,0.1C316.6,244.8,317.4,245.7,317.1,245z"/>
							<path class="st97" d="M315.2,246.2l0.8-0.1c0.8,0.6,0.1,0.4,0.3,0.9c0.5-0.2,0.1-0.3-0.1-1.1c0.1-0.1-0.1-0.6-0.2-0.9
								C316,246.1,314.1,244.5,315.2,246.2z"/>
							<polygon class="st97" points="316.7,246 316.4,245.7 316.5,246.1 							"/>
							<path class="st97" d="M313.4,246.5c-1.1-0.6,0,1-0.6,0.9c0-0.1-0.1-0.1-0.2-0.3l-0.1,0.3l-0.2-0.2c0.5,0.5,0.5,0.9,0.8,1.4
								c0.8,0.3-0.5-0.8,0.3-0.4c0.2,0.3,0.5,0.7,0.6,0.9c-0.1-0.4-0.4-0.7-0.6-1.1c0.1-0.2,0.4,0.1,0.6,0.3
								c-0.1-0.5-0.9-1.2-0.5-1.3c0.6,0.3,0.6,0.8,0.7,0.3c-1-0.6,0.4-0.2,0-0.8c0.4-0.1,1.1,0.2,1.3,0.6c-0.7-0.6-1.1-1.3-1.1-1.7
								l0.2,0.9l-0.9-0.6C313.9,246.3,313.7,246.4,313.4,246.5L313.4,246.5z"/>
							<path class="st97" d="M314,249.2c0,0.1,0,0.1,0.1,0.2C314.1,249.4,314.1,249.3,314,249.2z"/>
							<polygon class="st97" points="315.8,247.3 315.9,247.5 316.2,247.6 							"/>
							<path class="st97" d="M314.3,249.9c0.1,0-0.2-0.3-0.2-0.3l0.3,0.4L314.3,249.9z"/>
							<polygon class="st97" points="313.6,249.7 313.1,249.4 313.3,249.8 							"/>
							<path class="st97" d="M307.7,254.2c0.4,0.1-0.1-0.4-0.3-0.8C307,253.4,307.7,253.8,307.7,254.2z"/>
							<path class="st97" d="M304.4,257.6c0.5,0.2,0.3-0.5,0.5-0.6C304.6,256.8,304.4,257.2,304.4,257.6z"/>
							<path class="st97" d="M304,260.8c-0.1-0.2,0-0.4-0.2-0.4l-0.4-1.2C302.8,259,303.7,260.3,304,260.8z"/>
							<path class="st97" d="M302.1,262.1l0.1-0.6l-0.2,0.1c-0.2-0.5-0.2-0.7-0.3-1.2C301.5,260.8,301.6,261.4,302.1,262.1z"/>
							<path class="st97" d="M301.8,260c0,0-0.1,0.1-0.1,0.1C301.9,260.3,302,260.4,301.8,260z"/>
							<path class="st97" d="M301.6,260.3c0,0.1,0,0.1,0,0.2c0-0.1,0.1-0.2,0.1-0.2C301.7,260.1,301.6,260,301.6,260.3z"/>
							<path class="st97" d="M301.5,261.7l-0.5,0.4l0.3,0.1C301,261.5,301.8,262.5,301.5,261.7z"/>
							<path class="st97" d="M298.1,262.7l-0.4-0.7c-0.4,0-0.2,1.8-0.9,0.7c0.4,0.4,0.1,0.9,0.6,0.9
								C297.3,263,297.8,262.6,298.1,262.7z"/>
							<path class="st97" d="M296.3,262.3c0-0.2-0.2-0.3-0.3-0.5c-0.2,0-0.2,0.4,0,0.6C295.7,261.4,296.4,262.9,296.3,262.3z"/>
							<path class="st97" d="M294.6,263.1c0.1-0.1,0.2-0.2,0-0.3c-0.3,0.2,0.1,1,0.2,1.5C295.2,264.6,295,263.4,294.6,263.1z"/>
							<path class="st97" d="M289.9,258.8c0.3,0.6,0.5,0.4,0.5,0.2C290.4,259.2,290.1,259,289.9,258.8z"/>
							<polygon class="st97" points="291.9,264 292.1,264.1 291.8,263.1 							"/>
							<polygon class="st97" points="290.2,265.3 290.2,266 290.5,265.7 							"/>
							<path class="st97" d="M289.8,265.3l-0.3,0.2l0.2,0.2C289.9,265.7,289.7,265.3,289.8,265.3z"/>
							<path class="st97" d="M289,265.8c0-0.1,0.1,0,0.1,0.1c0-0.2,0.1-0.3,0.1-0.5C289.1,265.5,289,265.6,289,265.8z"/>
							<path class="st97" d="M284.1,269.2c-0.6,0.2-0.1,0.4-0.1,0.6C284.1,269.7,284.7,269,284.1,269.2z"/>
						</g>
					</g>
				</g>
			</g>
		</g>
		<path class="st94" d="M271.6,144.4c0,0-5.5,0-10.4-2.7c-4.9-2.7-13.9-2.5-16-1.1c-2,1.4,0,2.8,0,2.8s-10.5-0.8-13.2,1.7
			c-2.7,2.5-1.1,3.8-1.1,3.8s-11.1,1.7-11.6,4.3s2.9,1.2-2.5,4.2c-5.4,3-15.5,11-13.7,13s1.2,3.4-3.8,7.5c-4.9,4.1-3.4,6.6-1.8,6.9
			c0,0-5.7,4-5.8,8.4c-0.1,4.4,1.8,3.6,0,6.8s-6.1,9.2-4.7,12.8c1.4,3.5,4.7,2.8,2.5,6.3s-3.9,8.4-1.5,10.9c2.4,2.6,3.5,3.1,2.6,5.7
			c-1,2.6-1.4,6.2,1.3,9c2.7,2.8,0.4,9.1,3.9,11.8c3.4,2.7,3.3,2,3.6,6.1s3.5,3.3,5.2,7.8s3.5,13,5.8,12.8c2.2-0.2,6.5,9.4,8.9,11.4
			c2.4,1.9,82.3,0,83.4,0s1.9-5.9,0-9.8c-1.9-3.9-2.1-8-4.7-11.4c-2.6-3.4-1.3-11.3-2.4-13.8c-0.6-1.5-0.5-2.2-0.5-2.2
			s4.2-0.4,7.1-3.1c2.9-2.7,9.7-5.1,12.7-8.1s7.1-3.1,8.4-6.2c1.4-3.1,1.6-5.2,3.8-5.1c2.2,0.1,4.4,0.1,6.1-6.3
			c1.7-6.4,2.7-2.5,3.5-8.7c0.8-6.2,4.4-6,4-11.5c-0.4-5.5-2.2-9.1-1.2-8.9c1,0.2,2.4-2.7,0-8.4c-2.4-5.6-2.9-5.5-3.4-9.5
			c-0.5-4-4.9-32-24.8-32.1C291.6,148.9,271.6,144.4,271.6,144.4z"/>
		<g>
			<defs>
				<path id="SVGID_00000008871932571764317110000006617233522591312777_" d="M340.9,207.9c-0.4-5.5-2.2-9.1-1.2-8.9
					c1,0.2,2.4-2.7,0-8.4c-2.4-5.6-2.9-5.5-3.4-9.5c-0.3-2.5-2.1-14.3-8.3-22.9c-8.5,0-16.7,2-23.9,6.7c-15,10-12,33,1,47
					c8.4,7.9,18.3,12.1,28.7,14.3c1.4-3.8,2.3-1.4,3-6.9C337.7,213.2,341.3,213.4,340.9,207.9z"/>
			</defs>
			<clipPath id="SVGID_00000041996039640167603290000012653025019045600392_">
				<use xlink:href="#SVGID_00000008871932571764317110000006617233522591312777_"  style="overflow:visible;"/>
			</clipPath>
			<g style="opacity:0.61;clip-path:url(#SVGID_00000041996039640167603290000012653025019045600392_);">
				<g>
					<g>
						<g>
							<path class="st97" d="M332.9,192.5c0-0.1,0-0.2,0-0.3C332.8,192.2,332.8,192.3,332.9,192.5z"/>
							<path class="st97" d="M323.6,194.3C323.5,194.4,323.5,194.4,323.6,194.3l0,0.1L323.6,194.3z"/>
							<path class="st97" d="M323.6,194.4l0,0.4C323.6,194.7,323.6,194.5,323.6,194.4z"/>
							<path class="st97" d="M332.7,189.9c0-0.1,0.1-0.3,0.1-0.5L332.7,189.9z"/>
							<path class="st97" d="M331.3,188.9c0-0.1-0.1-0.1-0.1-0.1C331.3,188.8,331.3,188.9,331.3,188.9z"/>
							<path class="st97" d="M341.1,189.4c0,0,0,0.1,0,0.1C341.1,189.5,341.1,189.5,341.1,189.4z"/>
							<path class="st97" d="M341.3,188.5c0.1,0,0.1,0,0.1-0.1l0-0.1C341.3,188.3,341.3,188.5,341.3,188.5z"/>
							<path class="st97" d="M340.8,188.3l0.1-0.1C340.9,188.2,340.8,188.2,340.8,188.3z"/>
							<path class="st97" d="M341.8,182.4l-0.2-0.3C341.7,182.2,341.7,182.3,341.8,182.4z"/>
							<path class="st97" d="M341.2,189.9c0-0.1,0-0.2-0.1-0.3C341.1,189.7,341,189.8,341.2,189.9z"/>
							<path class="st97" d="M332.9,192.7c0-0.1,0-0.1,0-0.2C332.9,192.6,332.9,192.7,332.9,192.7z"/>
							<path class="st97" d="M333.3,189.8L333.3,189.8C333.2,189.8,333.3,189.8,333.3,189.8z"/>
							<path class="st97" d="M320.1,195c-0.1,0-0.2,0.1-0.3,0.2C320,195.2,320.1,195.2,320.1,195z"/>
							<path class="st97" d="M338.5,190c-0.6-0.9,0.3-0.2-0.3-1.1c0,0.3-0.1,0.5-0.4,0c-0.2-0.6,0.3-0.1,0-0.9l-0.1,0.4
								c-0.4-0.3-0.5-1.1-0.6-0.9c0.4,1.2-0.9-0.1-1,0.2l0-0.1l-0.6-0.3c0,0,0,0,0-0.1c0,0.1,0.1,0.1,0.1,0.2
								c-0.4-0.5-0.8-0.7-1-0.5c0.2,0.7-0.7,0.6-0.6,1.2c0-0.2,0.1-0.3,0.4-0.2l0.3,0.8c-0.3,0.1-0.4-0.7-0.4-0.1
								c0.5,1,0.4-0.2,0.6-0.1c0.1,0.3,0.1,0.5,0,0.7c0.4-0.1,0.9,0,0.6-1.1c0.2,0.2,0.4,0.6,0.4,0.8c-0.1-0.7,0.5,0.5,0.4-0.2
								c0.4,1-0.3,0.8-0.2,1.5c-0.7-0.6-0.8,0.3-1.1,0.7c-0.3-0.7-0.4-1.4-0.7-1.8c-0.6-0.3-0.2,0.5-0.2,1.1c-0.4-0.1-0.6-1.2-1-1.1
								l0-0.6c-0.7-0.9,0,0.5-0.3,0.4c0.2,0.2,0.3,0.5,0.5,0.4c0.2,0.4,0.1,0.6,0,0.7l0.1,0c0.1,0.5,0.3,1.1-0.1,1
								c-0.1-0.7-0.4-0.4-0.6-0.6l0-0.2c-0.1,0.3-0.4,0.3-0.4,0.5l-0.1-0.2c0,0.3,0.2,1.1-0.1,1c-0.1-0.3-0.2-1.3-0.4-1
								c-0.1-0.5,0.1-0.6,0.4-0.6c-0.3-0.1-0.7-0.8-0.5-0.9c-0.3-0.6-0.1,0.4-0.4,0.1c0.1,0.2,0.1,0.4,0.2,0.6
								c-0.3-0.8-0.5,0.1-0.3,0.7l0.1-0.5c0.3,0.6,0.1,1.2,0.3,1.5c-0.5-1-0.5,0.7-1-0.1l0.3,0.5c-0.7-0.1-0.7,1.2-1.2,1.7
								c0.1-0.4-0.3-1.5,0.2-1.3c-0.6,0-0.5-1.1-0.9-1.6c-0.5-0.3,0.1,1.1,0.1,1.5l0.2-0.3c0,1.4-1.1,0.1-1.5,1
								c-0.1-0.3,0.1-0.2,0.1-0.4c-0.5-0.6-0.2,0.2-0.3,0.5c-0.3,0-0.7-0.3-0.8-1.1c-0.3-0.1,0.2,0.5,0.1,0.8l-0.1-0.2l-0.1,1
								c-0.3-0.2-0.8-0.6-1.1-1.3c-0.6,0.3,0.2,2-0.1,2.4c-0.4-0.4-0.1-0.6-0.1-1c-0.1,0.1-0.3,0.1-0.4,0.2c-0.1-1,0.4-0.6,0.1-1.6
								c-0.1,1.2-0.4,0.4-0.6,1.2l0,0.1c0,0.8-0.6,0.3-0.8,0.5c0-0.5,0.3-0.6,0.4-0.8c-0.4-0.3-1,0.2-1.1,1.2
								c-0.2-0.1-0.6-0.5-0.4-0.9c-0.6-0.1,0,1.5-0.6,1.2l-0.1-0.8c-0.7-1-1,1.1-1.6,0.2l0.1,0.9c-0.2-0.4-0.4-0.5-0.5-0.9l0.2-0.3
								c-0.3-0.7-0.2,0.8-0.5,0.3c0,0.3,0.3,0.9,0.3,1.2c1.1-0.7,2.4,0.6,3.5-0.6c-0.1-0.1-0.1-0.2-0.1-0.4c0.2,0.2,0.4-0.1,0.4,0.4
								l0,0.1c0.3-0.3,0.8,0.8,0.9,0.8c0-0.6,0.7,0.1,0.3-0.9l0.3,0.6c0-0.4-0.2-0.9-0.1-1.1c0.2,0,0.3,0.5,0.2,0.8
								c0.9,0.2,1.8-0.2,2.5-0.7l-0.1,0.5c0.3,0.2,0.5-1,0.7,0.2c0.3-0.6,1.2,0,0.8-1.3c0.6,1.2,1.1,0.2,1.6-0.2
								c-0.5-1,0.3-0.5,0.3-1c0.4,0.8-0.1,1,0,1.6c0.1-1.5,1.9,0.4,1.3-1.8c0.1,0.1,0.1,0.1,0.1,0.2c0.1,0,0.4,0.3,0.5,0.3
								c-0.1-0.4-0.4-0.5-0.2-0.7c0.2,0,0.4,0.6,0.6,0.9c0.2-0.6,0.7-1.1,0.4-2c0.2,0.2,0.5,0.6,0.5,0.8c0.3-0.9,0.6-0.1,1-0.8
								c-0.2,0.1,0.3,0.9-0.2,0.7c0.4,0.5,0.6,0.4,0.8,0.1c0.2-0.3,0.4-0.6,0.8-0.4l-0.2-0.8c0.2-0.3,0.6,0.4,0.5,0.8
								c0.7,0.2,0.7-0.4,1.1-0.6c0.1,0.1,0.1,0.2,0.1,0.2l0.6-0.3c0-0.2-0.1-0.7-0.4-1.1C339,189.8,339,190.1,338.5,190z"/>
							<path class="st97" d="M338.8,189.3L338.8,189.3L338.8,189.3C338.8,189.3,338.8,189.3,338.8,189.3z"/>
							<path class="st97" d="M332.5,188.4c0.1,0.2,0.2,0.2,0.3,0.3C332.7,188.6,332.6,188.5,332.5,188.4z"/>
							<path class="st97" d="M342.6,185.1c-0.8-1-0.2,0.4-0.6,0.2c0.1-0.3-0.4-0.8-0.6-1.1c0.7,1.5-0.5-0.1-0.7,0.5
								c-0.3-0.4-0.1-0.6-0.5-1.1c0,0.5-0.2,0.9,0.2,1.7c-0.4,0.3-0.9,0.2-1.1,0.5c0.1-0.5-0.4-0.8-0.6-1.6c0.3,1.1,0.3,2.6,0.5,4
								c-0.6-0.8-0.6-0.9-1.1-1.7c-0.9-0.3,0.3,0.9-0.3,0.9l0.3,0c-0.1,0.4,0.4,1.2,0.6,1.8l0.6-0.5c0.3,0.6-0.1,0.7-0.1,0.9
								c0.2,0.8,0.6,0.3,0.9,0.9c-0.2-0.5,0.2-0.5,0.2-0.8l0.2,0.3c0.5,0.1,0.2-0.8,0.4-0.9c0.1,0.1,0.1,0.1,0.2,0.2
								c-0.1-0.4-0.3-0.9-0.2-1.1l-0.1,0.1c-0.3-0.9,0-1.7-0.9-2.3l0.7-0.1c0.5,0.8,1.2,2.1,0.9,2.5l0.2,0.4
								c0.6,0.3,0.3-1.1-0.3-1.7c-1-2.1,0.9-0.7,0.7-1.7c0.4,0.5,0.3,0.9,0.5,1.3c-0.1,0.1-0.2,0.2-0.5-0.2
								c-0.4,0.7,1.3,1.6,0.5,1.8c-0.5-0.1-0.2-1.1-0.7-0.9l0.6,1.7c0.3-0.2,0.4-0.7,0.5-1c0.3-0.9,0.8-1.3,1.3-1.5
								c0.4-0.2,0.8-0.2,0.8-0.2l2.5-2.4l2.3-2.6c0.3-0.7,0.6-0.8-0.5-2.2c-0.4-0.1-0.5,0.3-0.9-0.3c0.4,0.5,0.5,0.9,0.2,1.1
								c-0.5-0.4,0-0.4-0.2-0.5l-0.1,0c-0.2-0.3-0.3-0.5-0.2-0.5c-1-0.4-1.3,0.2-0.7,1.3c-0.7-0.2-0.5-0.9-0.8-1.3
								c-1.1,0.4-1.6,1-2.5,1.7c0.7,0.9,0.4,0.6,0.7,1.3l-0.3-0.3c0.2,0.1,0.5,0.8,0.9,0.8c-1.1-0.3,0.3,1.6,0.3,2.3l-0.3-0.5
								c-0.2,0.3-0.3,0.4-0.4,0.9c-1.2-0.5,0.3-0.5-0.7-1.5l0,0.3c-0.3-0.5-0.8-1.3-0.9-1.7c0.1,1.1-0.9,0.2-0.9,1.2
								c-0.3-0.6-0.2-1.3-0.1-1.4c-0.2,0.1-0.2,0.7-0.6,0.2l0.5,0.7c-0.2,0.3-0.4-0.6-0.8-1C340.8,182.7,342.9,184.2,342.6,185.1z"
								/>
							<path class="st97" d="M334.7,189.3c0.1,0,0.2,0,0.2-0.2C334.8,189.1,334.8,189.2,334.7,189.3z"/>
							<path class="st97" d="M335.6,187.1c0-0.1-0.1-0.2-0.1-0.3C335.5,186.9,335.5,187,335.6,187.1z"/>
							<path class="st97" d="M335.2,186.1c0.2,0.3,0.1,0.4,0.3,0.8C335.4,186.6,335.7,186.4,335.2,186.1z"/>
							<path class="st97" d="M309.2,190.6c-0.2,0.2-0.6,0.4-0.5,0.6c0.2-0.1,0.4-0.2,0.7-0.2C309.3,190.9,309.2,190.8,309.2,190.6z"
								/>
							<path class="st97" d="M309.9,191.6l0.3,0.4l0.4-1.1C310.2,190.9,310.2,191.7,309.9,191.6z"/>
							<path class="st97" d="M310.7,192.3l-0.1,0.3C310.7,192.5,310.7,192.4,310.7,192.3z"/>
							<path class="st97" d="M310.8,191.9l0.2-0.8l-0.5,0.5l0.1,0.2c0,0.3,0.1,0.4,0.1,0.5l0.2-0.5
								C310.9,191.9,310.8,192,310.8,191.9z"/>
							<path class="st97" d="M311.1,191.9c0-0.1,0-0.2,0-0.2C311.1,191.7,311.1,191.8,311.1,191.9z"/>
							<path class="st97" d="M311.8,193.4c-0.1-0.3,0.2-0.7,0.2-1c-0.3-0.3-0.4,0.8-0.7,0.4c0.5-0.6-0.1-0.5-0.2-1
								c0,0.7,0.1,1.3,0.4,1.5l0.1-0.5C311.8,192.9,311.7,193.2,311.8,193.4z"/>
							<path class="st97" d="M313.6,192.4l-0.3,0.7c0-0.4-0.4-0.4-0.4-1.1c-0.2,0.1-0.2,0.4-0.3,0.6c-0.1-0.4-0.1-0.7-0.3-0.2
								c0.6,0.6,0.4,0.7,0.9,1c0,0.2-0.1,0.1-0.2,0.1l0.3,0.4C313.5,193,313.9,192.9,313.6,192.4z"/>
							<path class="st97" d="M314.1,192.9c-0.3,0-0.5,0.7-0.4,1.2l0.6-0.6C314.2,193.6,314,193.7,314.1,192.9z"/>
							<path class="st97" d="M314.5,193c0.1,0.4,0.3,1.2,0.5,0.5C314.7,193.6,314.9,192.4,314.5,193z"/>
							<path class="st97" d="M316.6,193.7l-0.6-0.5c-0.1-1,0.3-0.3,0.4-0.7c-0.5-0.2-0.3,0.1-0.7,0.7c-0.1-0.1-0.3,0.4-0.5,0.7
								C316,193.1,316,195.5,316.6,193.7z"/>
							<polygon class="st97" points="315.5,192.7 315.4,193.1 315.7,192.8 							"/>
							<path class="st97" d="M318,194.7c0.4,1.1,0.6-0.7,1.1-0.2c0,0.1,0,0.2-0.1,0.3l0.3-0.1l0,0.3c-0.1-0.7,0.2-1,0.3-1.5
								c-0.4-0.7-0.1,0.9-0.5,0.1c0-0.3,0.1-0.8,0.1-1.1c-0.2,0.4-0.2,0.8-0.2,1.2c-0.2,0.1-0.2-0.3-0.2-0.6
								c-0.2,0.4-0.1,1.4-0.5,1.2c-0.3-0.6,0.1-1-0.3-0.7c0.3,1.1-0.4-0.2-0.5,0.6c-0.3-0.2-0.5-0.9-0.5-1.3c0,0.9-0.2,1.6-0.4,1.8
								l0.5-0.7l0.2,1C317.5,194.5,317.7,194.5,318,194.7L318,194.7z"/>
							<path class="st97" d="M319.3,192.4c0-0.1,0.1-0.1,0.1-0.2C319.4,192.2,319.3,192.3,319.3,192.4z"/>
							<polygon class="st97" points="316.9,192.5 317,192.3 316.9,192.1 							"/>
							<path class="st97" d="M319.5,191.7c-0.1,0-0.1,0.3,0,0.3l0.1-0.5L319.5,191.7z"/>
							<polygon class="st97" points="319.9,192.3 320.1,192.8 320.1,192.4 							"/>
							<path class="st97" d="M326.7,191.6c-0.3-0.3-0.1,0.4,0,0.9C327,192.6,326.5,191.9,326.7,191.6z"/>
							<path class="st97" d="M330.5,189.5c-0.4-0.3-0.4,0.4-0.6,0.4C330.2,190.2,330.4,189.9,330.5,189.5z"/>
							<path class="st97" d="M331.3,186.7c0,0.2,0,0.4,0.2,0.4l0.3,1.2C332.2,188.6,331.5,187.2,331.3,186.7z"/>
							<path class="st97" d="M333,185.8l-0.1,0.5l0.2,0c0.1,0.5,0.2,0.7,0.2,1.1C333.4,187.1,333.4,186.6,333,185.8z"/>
							<path class="st97" d="M333.1,187.8c0,0,0.1-0.1,0.1-0.1C333.1,187.5,333,187.4,333.1,187.8z"/>
							<path class="st97" d="M333.3,187.6c0-0.1,0-0.1,0-0.1c0,0.1-0.1,0.2-0.1,0.2C333.3,187.7,333.3,187.8,333.3,187.6z"/>
							<path class="st97" d="M333.5,186.3c0.2-0.1,0.3-0.2,0.4-0.4l-0.3-0.1C333.9,186.5,333.2,185.5,333.5,186.3z"/>
							<path class="st97" d="M336.3,185.5l0.4,0.6c0.4,0,0-1.6,0.8-0.7c-0.4-0.3-0.2-0.9-0.6-0.8
								C337.1,185.2,336.6,185.5,336.3,185.5z"/>
							<path class="st97" d="M338,185.8c0.1,0.2,0.2,0.3,0.4,0.4c0.2,0,0.1-0.4-0.1-0.6C338.7,186.5,337.8,185.2,338,185.8z"/>
							<path class="st97" d="M339.4,184.8c-0.1,0.1-0.2,0.2,0.1,0.3c0.2-0.2-0.3-0.9-0.4-1.4C338.6,183.5,339,184.5,339.4,184.8z"/>
							<path class="st97" d="M344.7,187.7c-0.4-0.5-0.6-0.2-0.5,0C344.2,187.6,344.5,187.6,344.7,187.7z"/>
							<polygon class="st97" points="341.6,183.5 341.5,183.4 342,184.2 							"/>
							<polygon class="st97" points="342.8,181.9 342.6,181.2 342.4,181.5 							"/>
							<path class="st97" d="M343.2,181.8l0.2-0.2l-0.2-0.1C342.9,181.3,343.3,181.7,343.2,181.8z"/>
							<path class="st97" d="M343.9,181.1c0,0.1-0.1,0-0.2-0.1l0,0.5L343.9,181.1z"/>
							<path class="st97" d="M350.4,180.4c0.4,0.5,0.3,0,0.5,0C350.8,180.3,350.1,179.8,350.4,180.4z"/>
						</g>
					</g>
				</g>
			</g>
		</g>
		<path class="st95" d="M270.4,165.1c-9.8,8.7-12.4,11.6-25.6,8.3c-13.2-3.2-14.1,1-24.4-3.1c-10.3-4-7.9-10.1-7.9-10.1
			c1.6-1.1,3.2-2.1,4.4-2.9c5.4-3,2-1.6,2.5-4.2c0.4-2.6,11.6-4.3,11.6-4.3s-1.6-1.3,1.1-3.8c2.7-2.5,13.2-1.7,13.2-1.7
			s-2-1.4,0-2.8c2-1.4,11-1.6,16,1.1c4.9,2.7,10.4,2.7,10.4,2.7s1.3,0.3,3.6,0.7C278.8,151.9,276.2,159.9,270.4,165.1z"/>
		<path class="st80" d="M273.7,294.9c0,0,2.2-1.2,1.6-5.2s-5.8-6.8-13.2-8.8c-7.4-2.1-15.4-0.5-17.4,1.8"/>
		<path class="st80" d="M269.5,294.9c0,0,1.6-4-1.1-6.2"/>
		<path class="st80" d="M262.6,294.9c0,0,1-3.5-1.6-5.1"/>
		<path class="st80" d="M297.7,294.4c0,0,1.1-5-2.4-7.7"/>
		<path class="st80" d="M290.1,294.6c0,0-0.1-2.9-3.2-4.8"/>
		<path class="st80" d="M295.3,257c0,0-0.1-2.2,0-3.8s0.1-2.6-1-5.5c-1.1-2.9-1.1-5.1-1.1-5.1"/>
		<path class="st95" d="M254.8,217.4c-1.3,1.1-2,2.2-2.8,6.2c-0.8,4-0.1,6.3,4.4,8s8.3-3.8,7.5-7.1
			C263.1,221.2,259.8,213.1,254.8,217.4z"/>
		<path class="st98" d="M217.9,195.8c-2.2,1.3-5.3,3.9-5.3,9c0,5.1-1.3,10.6,3.7,14.8s12.2,6.3,18.3,4.5c6.1-1.8,6.9-6.4,10.6-10.3
			c3.7-3.9,4.5-10.8,0-16.1c-4.5-5.3-9.3-5.9-14.8-5.6C224.9,192.4,220.7,194.1,217.9,195.8z"/>
		<path class="st94" d="M290.9,126.7c0,0-9.8-8-18.5-7.4c-8.7,0.6,1,17,1,17s-7,3.8-7.2,6.7c-0.2,2.9,3.5,1.4,4,2.6
			c0.4,1.2-3.8,3.9-5,7.1c-1.3,3.2,1.8,4.1,1.8,4.7s-4.2,6.6-2.8,10.8s4.7,0.8,5.1,2.2c0.4,1.4-0.3,6.8,2,8.2c2.4,1.4,3.8-1.1,4.2,0
			c0.4,1.1,1.9,6.1,4.2,7.1c2.2,1,3-1.5,3.1-1c0.1,0.5,2,4.4,4,4.8s3.5-1.4,4.1-0.9c0.6,0.5,10.1,4.4,17.6,5.1s16-5.7,18.3-5.5
			c2.4,0.2,2.7,1.7,5.1,1.7c2.5,0,3.9-4.5,5.2-4.1s3.6,0.2,5.5-3.6c1.8-3.9,1.8-5.9,3.2-5.2c1.4,0.6,2.8-1.4,3.2-4.4
			c0.4-3,0-5.1,0-5.1s2.2,0.5,3.1-1.5c0.9-2-1-8.9-1-8.9s2.3-0.5,1.2-4.7s-3.1-8.5-3.1-8.5s2.1-0.6,1.2-3.9s-6.6-7.6-6.6-7.6
			s4.9-8.4,1.8-13.3c-3.1-4.8-15.5,2.6-19.6,5.9c0,0-0.9-2.9-2.8-2.7c-1.9,0.2-2.9,1.8-3.1,1c-0.2-0.9-1.2-2.5-3-2.5
			c-1.6,0-2.8,1.5-2.8,1.5s-1.1-3.2-3.2-3.4c-3.2-0.3-4.8,3.1-4.8,3.1s-3.2-2.7-5.6-1.8c-2.4,0.9-2.8,3.4-2.8,3.4s-1.6-3.2-3.9-2.6
			C291.9,121.8,291.4,124.8,290.9,126.7z"/>
		<path class="st92" d="M308.7,158.9c0,0-3.8-2.1-3.8-4.3s1.7-2.1,4.2-2.1s3.9,0.5,3.4,2.9C312.1,157,308.7,158.9,308.7,158.9z"/>
		<path class="st101" d="M312.4,169c-4.4,1.6-6.7,0-6.7,0c2.8-3.4,3-8.3,3-9.7C308.8,160.7,309.2,165.2,312.4,169z"/>
		<path class="st80" d="M312.4,169c0.5,0.6,1.1,1.3,1.8,1.8c5.7,4.8,11.8,3.6,14.1,0.5"/>
		<path class="st80" d="M308.7,158.9c0,0,0,0.1,0,0.4"/>
		<path class="st80" d="M290.1,170.4c1.8,3.5,9.6,3.9,14.3,0c0.5-0.4,0.9-0.8,1.3-1.3"/>
		<path class="st102" d="M286.2,150.8c0,0,1.5-5.9,7.3-5.9c6.2,0,7.5,4.4,7.5,4.4s-1.2,5.2-6.5,5.8
			C289.1,155.7,286.2,150.8,286.2,150.8z"/>
		
			<ellipse transform="matrix(0.9989 -4.755089e-02 4.755089e-02 0.9989 -6.7839 14.14)" class="st22" cx="293.8" cy="149.7" rx="2.9" ry="4.3"/>
		<path class="st102" d="M330.7,149.6c0,0-1.5-5.9-7.3-5.9c-6.2,0-7.5,4.4-7.5,4.4s1.2,5.2,6.5,5.8
			C327.7,154.5,330.7,149.6,330.7,149.6z"/>
		
			<ellipse transform="matrix(4.755089e-02 -0.9989 0.9989 4.755089e-02 159.4229 464.0829)" class="st22" cx="323.1" cy="148.4" rx="4.3" ry="2.9"/>
		<path class="st95" d="M321.6,136.3c-6.1,4.3-16.2,5.1-23.6,1.1c-7.4-4-7.1-10.8-7.1-10.8c0.5-1.9,1-4.9,3.3-5.5
			c2.2-0.6,3.9,2.6,3.9,2.6s0.4-2.6,2.8-3.4c2.4-0.9,5.6,1.8,5.6,1.8s1.6-3.4,4.8-3.1c2.1,0.2,3.2,3.4,3.2,3.4s1.2-1.5,2.8-1.5
			c1.8,0,2.8,1.6,3,2.5c0.2,0.9,1.2-0.8,3.1-1c1.9-0.2,2.8,2.7,2.8,2.7S327.7,132,321.6,136.3z"/>
		<path class="st98" d="M261,277.1c0-1.6-1.5-2.7-2.3-5.9c-0.8-3.2-5.5-5.8-5.9-8.2c-0.5-2.4,2.2-4.8,0-5.5
			c-0.8-0.2-1.6-0.4-2.3-0.9c0,0,3.4-3.5,9.6-1.3c6.2,2.1,9.7,9.6,10.2,13.1S269.3,279,261,277.1z"/>
		<path class="st80" d="M263.9,281.3c0,0-2.9-2.6-2.9-4.2s-1.4-2.7-2.2-5.9c-0.8-3.2-5.5-5.8-5.9-8.2c-0.5-2.4,2.2-4.8,0-5.5
			s-4.5-1.1-3.9-6.3"/>
		<path class="st95" d="M343.9,132.5c-3.8-2.6-7.9-3.4-9.4-3.6c-1.5-0.2-2.7-0.3,1.3-5.3c4-5,9.3-5.1,9.3-5.1
			c0.2,0.2,0.4,0.4,0.6,0.7C348.8,124.1,343.9,132.5,343.9,132.5z"/>
		<path class="st95" d="M284.5,131.5c0.2,1.8-4.3-0.5-6.7,2c-2.4,2.5-4.4,2.8-4.4,2.8s-4.8-8.2-4.6-13.2c0,0,0.2-2.3,5.2,0
			C279,125.4,284.3,129.6,284.5,131.5z"/>
		<path class="st80" d="M302.8,294.3c1.1,0,1.9-5.9,0-9.8c-1.9-3.9-2.1-8-4.7-11.4c-2.6-3.4-1.3-11.3-2.4-13.8
			c-0.6-1.5-0.5-2.2-0.5-2.2"/>
	</g>
</g>
</svg>
