<?xml version="1.0" encoding="utf-8"?>
<!-- Generator: Adobe Illustrator 26.0.3, SVG Export Plug-In . SVG Version: 6.00 Build 0)  -->
<svg version="1.1" xmlns="http://www.w3.org/2000/svg" xmlns:xlink="http://www.w3.org/1999/xlink" x="0px" y="0px"
	 viewBox="0 0 503.6 377.7" style="enable-background:new 0 0 503.6 377.7;" xml:space="preserve">
<style type="text/css">
	.st0{fill:#FFF0DD;}
	.st1{fill:#6B5C52;}
	.st2{fill:#B8BBBF;}
	.st3{fill:#F9E9CD;}
	.st4{fill:#FFE6BD;}
	.st5{fill:#F5F5F2;}
	.st6{fill:#637189;}
	.st7{fill:#9E9082;}
	.st8{fill:#938D89;}
	.st9{fill:#FFDBC0;}
	.st10{fill:#6E85BD;}
	.st11{fill:#E8D9D6;}
	.st12{fill:#A7BC79;}
	.st13{fill:#FF8080;}
	.st14{fill:#3D3533;}
	.st15{fill:#A1683D;}
	.st16{fill:#CCE0FF;}
	.st17{fill:#383531;}
	.st18{fill:#757060;}
	.st19{fill:#D29F7E;}
	.st20{opacity:0.88;clip-path:url(#SVGID_00000113351781767179823910000005748870549847938980_);}
	.st21{fill:#322015;}
	.st22{fill:#1B1C1E;}
	.st23{fill:none;stroke:#1B1C1E;stroke-width:1.2604;stroke-linecap:round;stroke-linejoin:round;stroke-miterlimit:10;}
	.st24{opacity:0.84;clip-path:url(#SVGID_00000139984294697370509440000009075300449586346647_);}
	.st25{clip-path:url(#SVGID_00000147208489560295507000000018408182078931102652_);}
	.st26{fill:none;stroke:#1B1C1E;stroke-width:1.2604;stroke-linecap:round;stroke-linejoin:round;}
	.st27{fill:#D1493B;}
	.st28{fill:#FFAE1F;}
	.st29{opacity:0.88;clip-path:url(#SVGID_00000009571092704159042770000006973698608571551647_);}
	.st30{opacity:0.7;clip-path:url(#SVGID_00000160163229734460314930000010767778989673288600_);}
	.st31{fill:#2C2C2D;}
	.st32{opacity:0.87;clip-path:url(#SVGID_00000134933103994865215600000005198796444268929435_);}
	.st33{fill:#080809;}
	.st34{opacity:0.7;clip-path:url(#SVGID_00000158727634820633392460000011096079551986569401_);}
	.st35{fill:#FBAF5E;}
	.st36{opacity:0.62;clip-path:url(#SVGID_00000030482192813940038200000007417815925627616912_);}
	.st37{fill:#3E240C;}
	.st38{fill:#BC763C;}
	.st39{opacity:0.62;clip-path:url(#SVGID_00000036931164979618234110000007936845727426783924_);}
	.st40{opacity:0.62;clip-path:url(#SVGID_00000181081400221618717440000013132092548914334367_);}
	.st41{fill:#967258;}
	.st42{opacity:0.53;clip-path:url(#SVGID_00000152247857965723505800000002836899437163930789_);}
	.st43{opacity:0.73;clip-path:url(#SVGID_00000152962194324057142130000014126577004693717931_);}
	.st44{fill:none;stroke:#1B1C1E;stroke-width:1.1311;stroke-linecap:round;stroke-linejoin:round;stroke-miterlimit:10;}
	.st45{fill:#3D291C;}
	.st46{fill:#3D291C;stroke:#967258;stroke-width:1.2604;stroke-linecap:round;stroke-linejoin:round;stroke-miterlimit:10;}
	.st47{fill:#D6D4C8;}
	.st48{fill:#1B1C1E;stroke:#967258;stroke-width:1.2604;stroke-linecap:round;stroke-linejoin:round;stroke-miterlimit:10;}
	.st49{opacity:0.52;clip-path:url(#SVGID_00000099635693531913410730000001486501251198970787_);}
	.st50{fill:#B37D4F;}
	.st51{opacity:0.88;clip-path:url(#SVGID_00000156563581370930334040000015128693600353653893_);}
	.st52{fill:#343434;}
	.st53{fill:#BC6464;}
	.st54{opacity:0.88;clip-path:url(#SVGID_00000169558842619401735900000007986116622445695142_);}
	.st55{fill:#1B1C1E;stroke:#1B1C1E;stroke-width:1.1485;stroke-linecap:round;stroke-linejoin:round;stroke-miterlimit:10;}
	.st56{fill:#8C7265;}
	.st57{opacity:0.88;clip-path:url(#SVGID_00000119806718872864664620000010628304760460673689_);}
	.st58{fill:#1B1C1E;stroke:#1B1C1E;stroke-width:1.3664;stroke-linecap:round;stroke-linejoin:round;stroke-miterlimit:10;}
	.st59{opacity:0.88;clip-path:url(#SVGID_00000152229424522837161940000010097047436955212713_);}
	.st60{fill:none;stroke:#1B1C1E;stroke-width:1.3664;stroke-linecap:round;stroke-linejoin:round;stroke-miterlimit:10;}
	.st61{opacity:0.88;clip-path:url(#SVGID_00000152232697903526345700000004163402911224700331_);}
	.st62{opacity:0.88;clip-path:url(#SVGID_00000131355314009776853350000000371439798856924585_);}
	.st63{fill:#5F6C72;}
	.st64{fill:#1B1C1E;stroke:#1B1C1E;stroke-width:1.5329;stroke-linecap:round;stroke-linejoin:round;stroke-miterlimit:10;}
	.st65{opacity:0.88;clip-path:url(#SVGID_00000122712619636945777800000016436744294595372730_);}
	.st66{clip-path:url(#SVGID_00000056429825672966323650000010018044041679545777_);}
	.st67{opacity:0.58;clip-path:url(#SVGID_00000091721636554956475880000017836879084801496753_);}
	.st68{opacity:0.58;clip-path:url(#SVGID_00000177446729649498945130000009079731034750803341_);}
	.st69{fill:#1B1C1E;stroke:#1B1C1E;stroke-width:1.818;stroke-linecap:round;stroke-linejoin:round;stroke-miterlimit:10;}
	.st70{fill:#FFFFFF;}
	.st71{fill:#CC813E;}
	.st72{opacity:0.58;clip-path:url(#SVGID_00000018957114683882488660000014535932281165790082_);}
	.st73{fill:#AA8C7D;}
	.st74{opacity:0.88;clip-path:url(#SVGID_00000054972657375890048980000006225767315787139227_);}
	.st75{opacity:0.88;clip-path:url(#SVGID_00000024713271401475438940000005755538829308815748_);}
	.st76{fill:#1B1C1E;stroke:#1B1C1E;stroke-width:1.2604;stroke-linecap:round;stroke-linejoin:round;stroke-miterlimit:10;}
	.st77{opacity:0.88;clip-path:url(#SVGID_00000145050279286708114000000016520728896534566330_);}
	.st78{opacity:0.88;clip-path:url(#SVGID_00000074420263347669746730000017717558135927534002_);}
	.st79{opacity:0.88;clip-path:url(#SVGID_00000041260209698444512280000011801434160180990645_);}
	.st80{fill:none;stroke:#1B1C1E;stroke-miterlimit:10;}
	.st81{fill:#B8BDC4;}
	.st82{fill:#B4D3CD;}
	.st83{opacity:0.88;clip-path:url(#SVGID_00000031169957944010035360000003211958865208682385_);}
	.st84{opacity:0.88;clip-path:url(#SVGID_00000165195032674204087780000017204828256507334843_);}
	.st85{fill:#EFBE9D;}
	.st86{opacity:0.88;clip-path:url(#SVGID_00000116913966053065754310000004872566920157285031_);}
	.st87{fill:#443730;}
	.st88{opacity:0.88;clip-path:url(#SVGID_00000113346824457173383320000008796358244850589072_);}
	.st89{opacity:0.88;clip-path:url(#SVGID_00000010306942792603555200000007949095543852349580_);}
	.st90{fill:#E2AF8D;}
	.st91{fill:none;stroke:#1B1C1E;stroke-linecap:round;stroke-linejoin:round;stroke-miterlimit:10;}
	.st92{fill:#1B1C1E;stroke:#1B1C1E;stroke-miterlimit:10;}
	.st93{fill:#FCEA9F;}
	.st94{fill:#F6EBEF;}
	.st95{fill:#D4DADD;}
	.st96{opacity:0.61;clip-path:url(#SVGID_00000049918491550596179240000017058825249031289275_);}
	.st97{fill:#353737;}
	.st98{fill:#B3B9BC;}
	.st99{opacity:0.61;clip-path:url(#SVGID_00000066487481668612631730000003877056777510694794_);}
	.st100{opacity:0.61;clip-path:url(#SVGID_00000116929980238761076960000003740436494381111439_);}
	.st101{fill:#B3B9BC;stroke:#1B1C1E;stroke-miterlimit:10;}
	.st102{fill:#CCE2CF;stroke:#1B1C1E;stroke-miterlimit:10;}
	.st103{fill:#EAD6DE;}
	.st104{fill:#1B1C1E;stroke:#1B1C1E;stroke-width:1.0185;stroke-miterlimit:10;}
	.st105{fill:none;stroke:#1B1C1E;stroke-width:1.0185;stroke-miterlimit:10;}
	.st106{fill:#FBAF5E;stroke:#1B1C1E;stroke-miterlimit:10;}
	.st107{fill:#513F3B;}
	.st108{opacity:0.88;clip-path:url(#SVGID_00000070082938686266141680000002886347253792451977_);}
	.st109{opacity:0.88;clip-path:url(#SVGID_00000147197147216324880920000012303064497596413878_);}
	.st110{fill:#8B2403;}
	.st111{fill:#EBDAD2;}
	.st112{fill:#A84E39;}
	.st113{fill:#751A01;}
	.st114{fill:#EBDAD2;stroke:#1B1C1E;stroke-miterlimit:10;}
	.st115{opacity:0.78;clip-path:url(#SVGID_00000132787838527457313050000013204552913152246160_);}
	.st116{fill:#290B01;}
	.st117{opacity:0.78;clip-path:url(#SVGID_00000012437249900149060110000012580221776067869360_);}
	.st118{opacity:0.78;clip-path:url(#SVGID_00000120521657789235687040000010683472746154053761_);}
	.st119{opacity:0.78;clip-path:url(#SVGID_00000142143684400859163340000000224476518917382563_);}
	.st120{fill:#030203;}
	.st121{fill:#86889A;}
	.st122{fill:#0B060A;}
	.st123{fill:#736E72;}
	.st124{fill:#9E9AA0;}
	.st125{fill:#18172A;}
	.st126{fill:#3B4D84;}
	.st127{fill:#FFA3AC;}
	.st128{fill:none;stroke:#0B080B;stroke-width:1.2005;stroke-miterlimit:10;}
	.st129{fill:#E7E6E8;}
	.st130{fill:#0B080B;}
	.st131{fill:none;stroke:#1B1C1E;stroke-width:1.2005;stroke-linecap:round;stroke-linejoin:round;stroke-miterlimit:10;}
	.st132{opacity:0.78;clip-path:url(#SVGID_00000037671888318346870500000002067277775621200016_);}
	.st133{opacity:0.78;clip-path:url(#SVGID_00000153702687077756546550000016188780759755233690_);}
	.st134{fill:#89745E;}
	.st135{opacity:0.78;clip-path:url(#SVGID_00000043441202313422643120000002332080168646805419_);}
	.st136{fill:#060606;}
	.st137{fill:#4D483E;}
	.st138{fill:#FF8A00;}
	.st139{fill:#50483F;}
	.st140{fill:#131313;}
	.st141{fill:#E8DBCD;}
	.st142{opacity:0.78;clip-path:url(#SVGID_00000159458600530567298950000006838190048411258291_);}
	.st143{opacity:0.78;clip-path:url(#SVGID_00000088823829022571034420000002111583000844853905_);}
	.st144{fill:#191212;}
	.st145{fill:#6C5353;}
	.st146{opacity:0.78;clip-path:url(#SVGID_00000145771554182129836260000011001075082562827920_);}
	.st147{fill:#B3B3B3;}
	.st148{fill:#FF9F2C;}
	.st149{fill:none;stroke:#343434;stroke-miterlimit:10;}
	.st150{fill:#21262A;}
	.st151{fill:#563D3D;}
	.st152{opacity:0.78;clip-path:url(#SVGID_00000136393970984605969450000015426811910929103760_);}
	.st153{fill:#181716;}
	.st154{fill:#706153;}
	.st155{fill:none;stroke:#1B1C1E;stroke-width:0.8477;stroke-miterlimit:10;}
	.st156{fill:#FCBD30;}
	.st157{fill:#E8D9CD;}
	.st158{fill:#534E4A;}
	.st159{opacity:0.78;clip-path:url(#SVGID_00000023262106239949715250000008850345945163983021_);}
	.st160{fill:#7DA050;}
	.st161{opacity:0.78;clip-path:url(#SVGID_00000069379099536858020170000004414996134130151347_);}
	.st162{opacity:0.78;clip-path:url(#SVGID_00000103978451858553337590000002016590947642341802_);}
	.st163{opacity:0.78;clip-path:url(#SVGID_00000046319807328745601160000014443883342500560810_);}
	.st164{fill:#EFEECE;}
	.st165{opacity:0.78;clip-path:url(#SVGID_00000004541261384936796510000003666963922521312133_);}
	.st166{fill:#93543B;}
	.st167{fill:#FF510C;}
	.st168{opacity:0.78;clip-path:url(#SVGID_00000086692646284002024430000005018711580529574021_);}
	.st169{fill:#4B1804;}
	.st170{fill:#000A0E;}
	.st171{opacity:0.78;clip-path:url(#SVGID_00000094580554277715115370000005215415389470715327_);}
	.st172{opacity:0.78;clip-path:url(#SVGID_00000101070970606376812100000017253747188762108849_);}
	.st173{fill:#F9C8A7;}
	.st174{fill:#1B1C1E;stroke:#1B1C1E;stroke-width:1.3738;stroke-miterlimit:10;}
	.st175{fill:none;stroke:#1B1C1E;stroke-width:1.3;stroke-miterlimit:10;}
	.st176{fill:#FFCB6E;}
	.st177{fill:#CECECE;}
	.st178{fill:none;stroke:#1B1C1E;stroke-width:1.3037;stroke-miterlimit:10;}
	.st179{fill:#FFFFFF;stroke:#1B1C1E;stroke-width:1.3;stroke-miterlimit:10;}
	.st180{opacity:0.78;clip-path:url(#SVGID_00000020368350712614165380000010293598389291106495_);}
	.st181{fill:none;stroke:#1B1C1E;stroke-width:1.3738;stroke-miterlimit:10;}
	.st182{opacity:0.45;clip-path:url(#SVGID_00000070837558856823900090000012500998103506091941_);}
	.st183{opacity:0.45;clip-path:url(#SVGID_00000114777711266882861740000014605472259180950414_);}
	.st184{opacity:0.45;clip-path:url(#SVGID_00000070824217969669150400000010517025193351674807_);}
	.st185{opacity:0.45;clip-path:url(#SVGID_00000174602230723524419470000012804123306212985496_);}
	.st186{fill:none;stroke:#1B1C1E;stroke-width:1.3738;stroke-linecap:round;stroke-linejoin:round;stroke-miterlimit:10;}
	.st187{fill:#FFB192;}
	.st188{fill:#EB8226;}
	.st189{fill:#F7EDE1;}
	.st190{opacity:0.78;clip-path:url(#SVGID_00000084516734041500342560000012342398414309106071_);}
	.st191{opacity:0.78;clip-path:url(#SVGID_00000036240469222408467910000002961287277440484745_);}
	.st192{opacity:0.5;clip-path:url(#SVGID_00000043415149901253067600000017182248915749181345_);}
	.st193{opacity:0.5;clip-path:url(#SVGID_00000062899464259041474190000006127164557571828870_);}
	.st194{fill:none;stroke:#06002C;stroke-width:1.3038;stroke-miterlimit:10;}
	.st195{fill:#F7A9B4;}
	.st196{fill:#06002C;}
	.st197{opacity:0.5;clip-path:url(#SVGID_00000165213378856650539290000010905294537702370713_);}
	.st198{fill:none;stroke:#06002C;stroke-width:1.3038;stroke-linecap:round;stroke-linejoin:round;stroke-miterlimit:10;}
	.st199{fill:#9BBEDC;}
	.st200{opacity:0.88;clip-path:url(#SVGID_00000005986242022327916850000015703968032069049779_);}
	.st201{opacity:0.88;clip-path:url(#SVGID_00000037650732645823316570000013062593862413040287_);}
</style>
<g id="Background">
	<rect x="-3.2" y="-2.4" class="st11" width="510" height="382.5"/>
</g>
<g id="Illustration">
	<g>
		<path class="st22" d="M361.8,285.6c0,0,2.9,1.1-18.4,1.9s-133.8,1.2-145.4,0c-11.6-1.2-34.1-0.5-4.2-3.4
			c29.9-2.9,60.6-3.4,90.8-2.9C316.8,281.7,357.7,284.5,361.8,285.6z"/>
		<g>
			<path class="st13" d="M251.8,279.1c-1,0-2,0-3.1,0l0.2,0l16-16.2c-6.1,1.7-9.2-0.1-9.2-0.1l-15.3,16.7
				c-8.7,0.6-16.3,1.6-19.4,1.6c-5.8,0-7.1,3.3-7.1,3.3h46C259.9,284.4,259.3,279.1,251.8,279.1z"/>
			<g>
				<defs>
					<path id="SVGID_00000000928010297762378220000004626526038294433688_" d="M251.8,279.1c-1,0-2,0-3.1,0l0.2,0l16-16.2
						c-6.1,1.7-9.2-0.1-9.2-0.1l-15.3,16.7c-8.7,0.6-16.3,1.6-19.4,1.6c-5.8,0-7.1,3.3-7.1,3.3h46
						C259.9,284.4,259.3,279.1,251.8,279.1z"/>
				</defs>
				<clipPath id="SVGID_00000119808421767152873000000016065333254979329943_">
					<use xlink:href="#SVGID_00000000928010297762378220000004626526038294433688_"  style="overflow:visible;"/>
				</clipPath>
				<g style="opacity:0.78;clip-path:url(#SVGID_00000119808421767152873000000016065333254979329943_);">
					<g>
						<g>
							<g>
								<path class="st144" d="M256.8,270.9c0-0.1-0.1-0.1-0.1-0.2C256.6,270.7,256.7,270.8,256.8,270.9z"/>
								<path class="st144" d="M252.9,274.8C252.9,274.8,252.9,274.8,252.9,274.8L252.9,274.8L252.9,274.8z"/>
								<path class="st144" d="M253,274.8l0.2,0.2C253.1,274.9,253,274.8,253,274.8z"/>
								<path class="st144" d="M255.8,269.4c0-0.1-0.1-0.2-0.1-0.3L255.8,269.4z"/>
								<path class="st144" d="M254.6,269.2c0,0-0.1,0-0.1-0.1C254.5,269.1,254.6,269.1,254.6,269.2z"/>
								<path class="st144" d="M260.5,267.6C260.5,267.7,260.5,267.7,260.5,267.6C260.5,267.7,260.5,267.7,260.5,267.6z"/>
								<path class="st144" d="M260.4,267.1C260.4,267.1,260.4,267,260.4,267.1l0-0.1C260.4,266.9,260.4,267,260.4,267.1z"/>
								<path class="st144" d="M260,267L260,267C260.1,266.9,260,266.9,260,267z"/>
								<path class="st144" d="M259.5,263.1l-0.2-0.2C259.4,263,259.4,263,259.5,263.1z"/>
								<path class="st144" d="M260.6,267.9c0-0.1-0.1-0.1-0.1-0.2C260.6,267.8,260.5,267.8,260.6,267.9z"/>
								<path class="st144" d="M256.8,271C256.8,271,256.8,270.9,256.8,271C256.8,270.9,256.8,271,256.8,271z"/>
								<path class="st144" d="M256,269.2L256,269.2C256,269.2,256,269.2,256,269.2z"/>
								<path class="st144" d="M251.7,276.4c0,0.1,0,0.1,0,0.2C251.8,276.6,251.8,276.5,251.7,276.4z"/>
								<path class="st144" d="M259.1,268.3c-0.6-0.5,0.1-0.2-0.5-0.6c0.1,0.2,0.1,0.3-0.2,0.1c-0.3-0.3,0.2-0.1-0.3-0.6l0.1,0.3
									c-0.3-0.1-0.6-0.6-0.6-0.5c0.6,0.7-0.5,0.1-0.5,0.3l0-0.1l-0.5-0.1l0,0c0,0,0.1,0.1,0.1,0.1c-0.4-0.2-0.7-0.3-0.8-0.1
									c0.3,0.4-0.3,0.5,0,0.9c0-0.1,0-0.2,0.2-0.2l0.4,0.4c-0.1,0.1-0.4-0.4-0.3,0c0.6,0.5,0.2-0.2,0.3-0.2
									c0.1,0.2,0.2,0.3,0.2,0.4c0.2-0.2,0.5-0.2,0-0.8c0.2,0.1,0.4,0.3,0.4,0.4c-0.2-0.4,0.4,0.2,0.2-0.2c0.5,0.5,0.1,0.5,0.3,0.9
									c-0.6-0.2-0.4,0.4-0.4,0.6c-0.4-0.4-0.7-0.8-1-0.9c-0.4-0.1,0.1,0.4,0.2,0.7c-0.3,0-0.7-0.6-0.9-0.4l-0.2-0.4
									c-0.7-0.4,0.1,0.3-0.1,0.3c0.2,0.1,0.3,0.2,0.4,0.1c0.2,0.2,0.3,0.3,0.2,0.4l0,0c0.3,0.3,0.6,0.6,0.3,0.6
									c-0.3-0.4-0.4-0.1-0.6-0.2l0-0.1c0,0.2-0.1,0.3-0.1,0.4l-0.1-0.1c0.1,0.2,0.5,0.6,0.3,0.6c-0.2-0.2-0.5-0.7-0.6-0.5
									c-0.3-0.2-0.2-0.4,0-0.4c-0.2,0-0.7-0.3-0.6-0.4c-0.4-0.3,0,0.2-0.2,0.2c0.1,0.1,0.2,0.2,0.3,0.3c-0.5-0.4-0.3,0.2,0.1,0.5
									l-0.1-0.3c0.4,0.3,0.5,0.7,0.7,0.8c-0.6-0.4,0,0.6-0.5,0.2l0.3,0.2c-0.4,0.1,0.1,0.9,0,1.3c-0.1-0.2-0.7-0.8-0.4-0.8
									c-0.3,0.2-0.7-0.5-1.1-0.6c-0.4,0,0.5,0.6,0.7,0.8l0-0.2c0.6,0.8-0.6,0.4-0.3,1c-0.2-0.1-0.1-0.1-0.1-0.2
									c-0.5-0.2,0,0.2,0.1,0.4c-0.2,0.1-0.5,0.1-0.9-0.4c-0.2,0,0.3,0.2,0.4,0.4l-0.1-0.1l0.4,0.6c-0.3,0-0.6-0.1-1.1-0.4
									c-0.1,0.4,1,1,1,1.3c-0.3-0.1-0.3-0.3-0.5-0.5l-0.1,0.2c-0.5-0.5-0.1-0.4-0.7-0.9c0.5,0.7,0,0.4,0.2,0.9l0.1,0
									c0.3,0.4-0.1,0.4-0.1,0.6c-0.2-0.3-0.1-0.4-0.2-0.6c-0.3,0-0.4,0.5,0.1,1c-0.1,0-0.5,0-0.6-0.3c-0.3,0.2,0.7,0.7,0.3,0.8
									l-0.4-0.3c-0.8-0.2,0.1,0.9-0.6,0.8l0.5,0.4c-0.3-0.1-0.4-0.1-0.7-0.2l-0.1-0.3c-0.5-0.2,0.3,0.4-0.1,0.3
									c0.2,0.1,0.6,0.3,0.8,0.4c0.1-0.8,1.3-0.7,1.2-1.7c-0.1,0-0.2-0.1-0.3-0.2c0.2,0,0.1-0.2,0.4,0.1l0,0c0-0.2,0.7,0.1,0.8,0.1
									c-0.3-0.3,0.4-0.2-0.3-0.6l0.4,0.2c-0.2-0.2-0.5-0.4-0.6-0.6c0.1-0.1,0.4,0.1,0.4,0.3c0.5-0.2,0.8-0.7,0.9-1.2l0.2,0.3
									c0.2,0-0.2-0.7,0.4-0.1c-0.1-0.4,0.6-0.3-0.1-0.9c0.8,0.5,0.7-0.2,0.8-0.5c-0.7-0.5,0-0.3-0.2-0.7c0.5,0.4,0.3,0.6,0.6,0.9
									c-0.5-0.9,1.1-0.3,0-1.4c0.1,0,0.1,0.1,0.2,0.1c0,0,0.3,0.1,0.4,0.1c-0.2-0.2-0.4-0.2-0.4-0.4c0.1-0.1,0.4,0.3,0.6,0.4
									c-0.1-0.4,0-0.8-0.5-1.2c0.2,0.1,0.5,0.2,0.5,0.4c-0.1-0.6,0.3-0.2,0.3-0.7c-0.1,0.1,0.5,0.5,0.1,0.5
									c0.8,0.5,0.3-0.5,0.8-0.5l-0.4-0.5c0-0.2,0.5,0.2,0.5,0.4c0.5,0,0.3-0.4,0.5-0.5c0.1,0,0.1,0.1,0.1,0.1l0.2-0.2
									c-0.1-0.1-0.2-0.4-0.5-0.6C259.3,268.1,259.4,268.3,259.1,268.3z"/>
								<path class="st144" d="M259.1,267.9L259.1,267.9L259.1,267.9C259.1,267.8,259.1,267.8,259.1,267.9z"/>
								<path class="st144" d="M255.1,268.6c0.1,0.1,0.2,0.1,0.2,0.1C255.3,268.6,255.2,268.6,255.1,268.6z"/>
								<path class="st144" d="M260.4,264.8c-0.7-0.6,0,0.3-0.3,0.2c0-0.2-0.4-0.5-0.6-0.7c0.7,0.9-0.3,0-0.4,0.4
									c-0.3-0.2-0.2-0.4-0.5-0.7c0.1,0.3,0,0.6,0.5,1.1c-0.2,0.2-0.5,0.2-0.6,0.5c0-0.3-0.5-0.5-0.8-0.9c0.4,0.7,0.7,1.6,1.2,2.5
									c-0.6-0.4-0.6-0.5-1.1-0.9c-0.6,0,0.4,0.5,0,0.6l0.2,0c0.1,0.3,0.5,0.7,0.9,1.1l0.2-0.4c0.4,0.3,0.1,0.5,0.2,0.6
									c0.4,0.5,0.5,0.1,0.8,0.4c-0.2-0.3,0-0.3-0.1-0.5l0.2,0.2c0.3,0-0.1-0.5,0-0.6c0.1,0,0.1,0.1,0.1,0.1
									c-0.2-0.2-0.4-0.5-0.4-0.7l0,0.1c-0.4-0.5-0.4-1.1-1.1-1.3l0.4-0.2c0.5,0.5,1.2,1.2,1.1,1.5l0.2,0.2c0.4,0.1-0.1-0.7-0.6-1
									c-1.1-1.2,0.4-0.5,0.1-1.2c0.3,0.3,0.4,0.5,0.5,0.8c0,0.1-0.1,0.2-0.3-0.1c-0.1,0.5,1.1,0.9,0.7,1.1c-0.3,0-0.4-0.7-0.6-0.5
									l0.8,1c0.1-0.2,0.1-0.4,0.1-0.6c0-1.2,0.9-1.2,0.9-1.2c0.8-1,1.5-2.1,2.3-3.1c0.2-0.4,0.3-0.5-0.5-1.4
									c-0.2-0.1-0.3,0.1-0.6-0.2c0.3,0.4,0.4,0.6,0.2,0.8c-0.3-0.3,0-0.3-0.1-0.3l-0.1,0c-0.1-0.2-0.2-0.3-0.2-0.4
									c-0.6-0.3-0.9,0.1-0.4,0.8c-0.5-0.2-0.4-0.6-0.6-0.9c-0.7,0.3-1,0.6-1.5,1.1c0.6,0.5,0.3,0.4,0.6,0.8l-0.3-0.2
									c0.1,0.1,0.5,0.5,0.7,0.5c-0.7-0.1,0.4,1.1,0.5,1.5l-0.3-0.3c-0.1,0.2-0.1,0.3-0.1,0.6c-0.8-0.3,0.1-0.3-0.7-0.9l0.1,0.2
									c-0.2-0.3-0.7-0.8-0.8-1.1c0.2,0.7-0.5,0.2-0.4,0.8c-0.3-0.3-0.3-0.8-0.3-0.9c-0.1,0.1,0,0.5-0.3,0.2l0.4,0.4
									c-0.1,0.2-0.4-0.4-0.7-0.6C258.9,263.4,260.5,264.2,260.4,264.8z"/>
								<path class="st144" d="M256.7,268.5c0.1,0,0.1-0.1,0.1-0.1C256.7,268.4,256.7,268.5,256.7,268.5z"/>
								<path class="st144" d="M256.5,267.1c-0.1-0.1-0.1-0.1-0.1-0.1C256.4,266.9,256.5,267,256.5,267.1z"/>
								<path class="st144" d="M256,266.5c0.2,0.1,0.2,0.2,0.4,0.4C256.3,266.7,256.4,266.6,256,266.5z"/>
								<path class="st144" d="M245.5,279.9c0.1,0.1,0.2,0.3,0.3,0.4l0-0.3L245.5,279.9z"/>
								<path class="st144" d="M246.2,280l0.3,0l-0.5-0.6C245.9,279.6,246.3,279.8,246.2,280z"/>
								<path class="st144" d="M246.9,279.8l0.1,0.1C247,279.9,246.9,279.8,246.9,279.8z"/>
								<path class="st144" d="M246.7,279.6l-0.4-0.4l0.2,0.5L246.7,279.6c0.1,0.2,0.2,0.2,0.3,0.2l-0.3-0.3
									C246.7,279.5,246.7,279.6,246.7,279.6z"/>
								<path class="st144" d="M246.8,279.4c0,0-0.1-0.1-0.1-0.1C246.7,279.4,246.7,279.4,246.8,279.4z"/>
								<path class="st144" d="M247.9,279.6c-0.2-0.1-0.4-0.4-0.6-0.5c-0.3,0,0.4,0.5,0,0.5c-0.2-0.5-0.3-0.1-0.6-0.2
									c0.5,0.3,0.8,0.4,1,0.3l-0.3-0.2C247.6,279.4,247.7,279.6,247.9,279.6z"/>
								<path class="st144" d="M247.8,278.3l0.3,0.4c-0.2-0.1-0.4,0.1-0.8-0.3c0,0.1,0.2,0.3,0.3,0.4c-0.3-0.1-0.5-0.2-0.2,0.1
									c0.5-0.1,0.6,0.1,0.9-0.1c0.1,0.1,0,0.1,0,0.1l0.4,0C248.2,278.6,248.3,278.3,247.8,278.3z"/>
								<path class="st144" d="M248.4,278.3c-0.1,0.2,0.3,0.5,0.6,0.7l-0.1-0.5C248.8,278.5,248.7,278.6,248.4,278.3z"/>
								<path class="st144" d="M248.5,278.1c0.3,0.1,0.8,0.4,0.4,0C248.9,278.2,248.3,277.7,248.5,278.1z"/>
								<path class="st144" d="M249.7,277.4l-0.5,0.1c-0.6-0.4-0.1-0.3-0.3-0.5c-0.3,0.1-0.1,0.2,0.2,0.6c-0.1,0,0.1,0.4,0.2,0.6
									C249.1,277.4,250.5,278.4,249.7,277.4z"/>
								<polygon class="st144" points="248.7,277.5 248.9,277.7 248.8,277.4 								"/>
								<path class="st144" d="M250.8,277.2c0.8,0.3-0.1-0.6,0.3-0.6c0,0,0.1,0.1,0.1,0.2l0.1-0.2l0.2,0.1c-0.4-0.3-0.4-0.6-0.7-0.9
									c-0.5-0.2,0.4,0.5-0.1,0.2c-0.1-0.2-0.4-0.4-0.5-0.5c0.1,0.2,0.3,0.4,0.5,0.7c0,0.1-0.2-0.1-0.4-0.2
									c0.1,0.3,0.7,0.7,0.4,0.8c-0.4-0.1-0.5-0.5-0.5-0.2c0.7,0.4-0.2,0.1,0.1,0.5c-0.2,0.1-0.7-0.1-0.9-0.3
									c0.5,0.4,0.8,0.8,0.8,1l-0.2-0.6l0.6,0.4C250.4,277.3,250.6,277.2,250.8,277.2L250.8,277.2z"/>
								<path class="st144" d="M250.1,275.5c0,0,0-0.1-0.1-0.1C250,275.4,250,275.5,250.1,275.5z"/>
								<polygon class="st144" points="249.2,276.7 249.1,276.6 248.9,276.5 								"/>
								<path class="st144" d="M249.8,275.1c0,0,0.1,0.2,0.2,0.2L249.8,275.1L249.8,275.1z"/>
								<polygon class="st144" points="250.2,275.2 250.6,275.4 250.4,275.2 								"/>
								<path class="st144" d="M253.2,272.2c-0.3-0.1,0.1,0.2,0.4,0.5C253.7,272.6,253.2,272.4,253.2,272.2z"/>
								<path class="st144" d="M254.4,269.8c-0.3-0.1-0.1,0.3-0.2,0.4C254.5,270.3,254.5,270,254.4,269.8z"/>
								<path class="st144" d="M253.8,267.9c0.1,0.1,0.1,0.2,0.2,0.2l0.6,0.7C255,268.8,254.1,268.1,253.8,267.9z"/>
								<path class="st144" d="M254.6,266.8l0.1,0.4l0.1-0.1c0.2,0.3,0.3,0.4,0.5,0.6C255.2,267.5,255.1,267.2,254.6,266.8z"/>
								<path class="st144" d="M255.3,268C255.3,268,255.3,267.9,255.3,268C255.2,267.9,255.1,267.8,255.3,268z"/>
								<path class="st144" d="M255.3,267.8C255.3,267.8,255.3,267.8,255.3,267.8C255.3,267.8,255.3,267.9,255.3,267.8
									C255.4,268,255.4,268,255.3,267.8z"/>
								<path class="st144" d="M255,267l0.2-0.3l-0.2,0C255.3,267,254.6,266.6,255,267z"/>
								<path class="st144" d="M256.6,265.8l0.4,0.3c0.2-0.1-0.4-1.1,0.3-0.6c-0.3-0.1-0.3-0.5-0.6-0.4
									C257,265.5,256.8,265.8,256.6,265.8z"/>
								<path class="st144" d="M257.7,265.7c0.1,0.1,0.2,0.2,0.3,0.2c0.1,0,0-0.2-0.2-0.4C258.3,266.1,257.4,265.4,257.7,265.7z"/>
								<path class="st144" d="M258.4,264.9c0,0.1-0.1,0.2,0.1,0.2c0.1-0.2-0.4-0.5-0.6-0.8C257.6,264.2,258.1,264.8,258.4,264.9z"
									/>
								<path class="st144" d="M262.3,266.3c-0.3-0.3-0.4-0.1-0.3,0C261.9,266.2,262.1,266.2,262.3,266.3z"/>
								<polygon class="st144" points="259.5,263.8 259.4,263.8 259.9,264.3 								"/>
								<polygon class="st144" points="260.1,262.7 259.9,262.2 259.8,262.5 								"/>
								<path class="st144" d="M260.3,262.6l0.1-0.2l-0.2-0.1C260.1,262.3,260.4,262.5,260.3,262.6z"/>
								<path class="st144" d="M260.7,262.1c0,0-0.1,0-0.1,0l0.1,0.3L260.7,262.1z"/>
								<path class="st144" d="M264.9,261.8c0.3,0.4,0.2,0,0.3,0.1C265.1,261.7,264.6,261.4,264.9,261.8z"/>
							</g>
						</g>
					</g>
				</g>
			</g>
			<path class="st145" d="M337.9,252.1c0,0,19.2,11.1,37.4,13.7c11.2,1.6,19.7,0,19.7,0l-19.7-13.4
				C375.3,252.4,356.7,248.8,337.9,252.1z"/>
			<g>
				<defs>
					<path id="SVGID_00000176009026972728984980000005431472290420628362_" d="M337.9,252.1c0,0,19.2,11.1,37.4,13.7
						c11.2,1.6,19.7,0,19.7,0l-19.7-13.4C375.3,252.4,356.7,248.8,337.9,252.1z"/>
				</defs>
				<clipPath id="SVGID_00000017503612167273995950000000185134767876751764_">
					<use xlink:href="#SVGID_00000176009026972728984980000005431472290420628362_"  style="overflow:visible;"/>
				</clipPath>
				<g style="opacity:0.78;clip-path:url(#SVGID_00000017503612167273995950000000185134767876751764_);">
					<g>
						<g>
							<g>
								<path class="st144" d="M355.2,251.6c0,0.1-0.1,0.2-0.1,0.3C355.1,251.9,355.2,251.8,355.2,251.6z"/>
								<path class="st144" d="M363.4,252C363.4,252,363.4,252,363.4,252l0-0.1L363.4,252z"/>
								<path class="st144" d="M363.4,251.9l0-0.4C363.3,251.7,363.3,251.8,363.4,251.9z"/>
								<path class="st144" d="M354.5,254.2c-0.1,0.1-0.1,0.2-0.2,0.5L354.5,254.2z"/>
								<path class="st144" d="M355.4,255.8c0,0.1,0,0.1,0.1,0.2C355.4,255.9,355.4,255.8,355.4,255.8z"/>
								<path class="st144" d="M347.8,250.8c0-0.1,0-0.1,0-0.1C347.8,250.7,347.8,250.8,347.8,250.8z"/>
								<path class="st144" d="M347.2,251.5c0,0-0.1,0-0.1,0l0,0.1C347.1,251.6,347.2,251.5,347.2,251.5z"/>
								<path class="st144" d="M347.4,252l-0.1,0C347.4,252,347.4,252,347.4,252z"/>
								<path class="st144" d="M343.7,256.6l0,0.4C343.7,256.8,343.7,256.7,343.7,256.6z"/>
								<path class="st144" d="M347.9,250.3c0,0.1-0.1,0.2-0.1,0.3C347.8,250.6,347.9,250.5,347.9,250.3z"/>
								<path class="st144" d="M355.2,251.4c0,0.1,0,0.1,0,0.2C355.2,251.5,355.2,251.5,355.2,251.4z"/>
								<path class="st144" d="M354,254.2L354,254.2C354,254.1,354,254.1,354,254.2z"/>
								<path class="st144" d="M366.4,251.6c0.1,0,0.1-0.1,0.2-0.2C366.5,251.4,366.4,251.5,366.4,251.6z"/>
								<path class="st144" d="M349.9,251.6c0.1,1.2-0.3,0.1-0.2,1.2c0.1-0.2,0.3-0.4,0.3,0.2c-0.1,0.6-0.3-0.1-0.4,0.9l0.2-0.4
									c0.2,0.5,0,1.2,0.1,1.2c0.2-1.3,0.7,0.5,0.9,0.3l-0.1,0.1l0.3,0.6c0,0,0,0,0,0.1c0-0.1,0-0.1,0-0.2c0.2,0.7,0.4,1.1,0.7,0.9
									c0.1-0.7,0.9-0.3,1-0.9c-0.1,0.2-0.2,0.2-0.4,0l0-0.9c0.3,0,0,0.8,0.3,0.3c-0.1-1.2-0.4,0-0.5-0.1c0.1-0.3,0.1-0.5,0.3-0.7
									c-0.4,0-0.7-0.4-0.9,0.8c-0.1-0.3-0.1-0.8,0-0.9c-0.2,0.7-0.2-0.7-0.4,0c0-1.1,0.5-0.6,0.7-1.3c0.4,0.9,0.8,0,1.1-0.2
									c0,0.8-0.2,1.6,0,2c0.4,0.5,0.4-0.5,0.5-1c0.3,0.3,0.1,1.4,0.5,1.4l-0.2,0.6c0.3,1.2,0.2-0.5,0.4-0.2
									c-0.1-0.3-0.1-0.6-0.3-0.6c0-0.4,0.1-0.6,0.2-0.7l-0.1,0c0.1-0.6,0.1-1.2,0.3-0.9c-0.1,0.7,0.2,0.5,0.3,0.8l-0.1,0.1
									c0.2-0.2,0.4-0.1,0.5-0.3l0,0.2c0.1-0.3,0.2-1.2,0.4-1c0,0.4-0.2,1.3,0,1.2c0,0.5-0.3,0.6-0.5,0.4c0.2,0.2,0.4,1,0.1,1.1
									c0.1,0.7,0.2-0.3,0.4,0c0-0.2,0-0.4,0-0.6c0,0.9,0.5,0.1,0.5-0.6l-0.2,0.5c0-0.7,0.3-1.2,0.1-1.6c0.2,1.1,0.7-0.6,0.8,0.4
									l-0.1-0.6c0.5,0.3,0.9-1,1.4-1.3c-0.2,0.4-0.1,1.6-0.5,1.2c0.5,0.2,0.2,1.2,0.4,1.8c0.4,0.4,0.1-1.2,0.3-1.6l-0.3,0.2
									c0.3-1.5,1,0.3,1.5-0.7c0.1,0.4-0.1,0.2-0.2,0.4c0.3,0.7,0.2-0.2,0.4-0.5c0.3,0.1,0.6,0.4,0.5,1.3c0.3,0.2-0.1-0.6,0.1-0.8
									l0.1,0.2l0.2-1c0.3,0.3,0.6,0.8,0.7,1.6c0.5-0.2,0.1-2.1,0.5-2.4c0.3,0.5,0,0.7,0,1.1l0.4-0.1c-0.1,1-0.4,0.5-0.3,1.7
									c0.2-1.2,0.4-0.4,0.7-1.2l0-0.1c0.1-0.8,0.6-0.3,0.8-0.4c-0.1,0.5-0.3,0.6-0.5,0.8c0.3,0.4,0.9,0,1.1-1.1
									c0.2,0.2,0.5,0.6,0.3,1c0.5,0.1,0.1-1.5,0.6-1.2l0,0.8c0.6,1.1,0.9-1.1,1.5-0.1l0-1c0.1,0.4,0.4,0.6,0.4,1l-0.2,0.3
									c0.3,0.8,0.2-0.8,0.5-0.2c0-0.3-0.3-0.9-0.3-1.3c-1,0.6-2.1-0.7-3,0.4c0,0.1,0.1,0.2,0.1,0.4c-0.1-0.2-0.3,0-0.3-0.5l0-0.1
									c-0.3,0.2-0.6-0.9-0.7-0.9c-0.1,0.7-0.6-0.2-0.4,0.9l-0.2-0.7c0,0.4,0,1-0.1,1.2c-0.2-0.1-0.2-0.5-0.1-0.8
									c-0.7-0.4-1.5-0.2-2.3,0.2l0.2-0.5c-0.2-0.3-0.6,1-0.5-0.4c-0.3,0.6-1-0.3-0.9,1.1c-0.3-1.4-0.9-0.6-1.4-0.3
									c0.1,1.2-0.4,0.4-0.5,0.9c-0.1-0.9,0.4-1,0.4-1.6c-0.4,1.5-1.4-1-1.6,1.4c-0.1-0.1-0.1-0.2-0.1-0.3c-0.1,0-0.2-0.4-0.3-0.5
									c0,0.4,0.2,0.6-0.1,0.8c-0.2-0.1-0.1-0.8-0.2-1.1c-0.3,0.6-0.9,0.8-0.9,1.8c-0.1-0.3-0.2-0.8-0.1-1
									c-0.5,0.8-0.5-0.1-1.1,0.4c0.2,0,0.1-1,0.4-0.6c-0.3-1.4-0.9,0.3-1.3-0.4l-0.2,0.9c-0.3,0.2-0.3-0.7-0.1-1
									c-0.5-0.5-0.7,0-1.1,0c0-0.1,0-0.3,0-0.2l-0.5,0c0,0.2-0.2,0.7-0.2,1.2C349.5,251.6,349.6,251.3,349.9,251.6z"/>
								<path class="st144" d="M349.4,252.1l0,0.1l0,0C349.4,252.2,349.4,252.1,349.4,252.1z"/>
								<path class="st144" d="M354.2,255.8c-0.1-0.2-0.1-0.3-0.1-0.4C354.1,255.5,354.2,255.7,354.2,255.8z"/>
								<path class="st144" d="M344.6,253.8c0.1,1.3,0.3-0.2,0.5,0.1c-0.2,0.2-0.1,1-0.1,1.4c0.2-1.7,0.3,0.3,0.8,0
									c0,0.6-0.2,0.7-0.2,1.3c0.3-0.4,0.7-0.7,0.7-1.6c0.5,0,0.8,0.3,1.1,0.2c-0.3,0.4,0,1-0.3,1.8c0.3-1.1,1-2.5,1.5-3.9
									c0.1,1.1,0.1,1.2,0.1,2.1c0.6,0.7,0.1-1,0.7-0.7l-0.2-0.2c0.2-0.3,0.2-1.3,0.3-2l-0.6,0.2c0-0.7,0.4-0.6,0.5-0.8
									c0.2-0.9-0.3-0.6-0.3-1.3c-0.1,0.6-0.3,0.4-0.5,0.6l0-0.4c-0.3-0.4-0.4,0.6-0.7,0.6c0-0.1,0-0.2,0-0.3
									c-0.1,0.4-0.2,1-0.3,1.1l0.1,0c-0.2,0.9-0.7,1.5-0.4,2.5l-0.6-0.3c0.1-1,0.1-2.6,0.5-2.7l0-0.4c-0.3-0.6-0.7,0.8-0.6,1.7
									c-0.2,2.5-1,0.1-1.4,1.1c0-0.7,0.2-0.9,0.3-1.4c0.1-0.1,0.2-0.1,0.3,0.5c0.6-0.4-0.2-2.1,0.5-1.9c0.3,0.3-0.4,1.1,0.1,1.2
									l0.3-1.9c-0.3,0.1-0.6,0.4-0.8,0.6c-1.3,1.2-2.3,0.2-2.3,0.2l-5.8,0.6c-0.6,0.3-0.8,0.2-1.1,2c0.1,0.4,0.5,0.2,0.4,0.8
									c0.1-0.7,0.3-1.1,0.6-1c0,0.7-0.3,0.3-0.2,0.5l0.1,0c0,0.3-0.1,0.6-0.2,0.6c0.4,1,1,0.8,1.3-0.5c0.3,0.7-0.2,1-0.4,1.6
									c1,0.5,1.7,0.4,2.8,0.5c0-1.2,0.1-0.7,0.2-1.6l0.1,0.4c0-0.2,0.1-1-0.1-1.3c0.6,0.9,0.7-1.6,1.1-2.1l0,0.6
									c0.3-0.1,0.4-0.1,0.7-0.5c0.5,1.1-0.5,0.2-0.3,1.7l0.2-0.2c-0.1,0.6-0.2,1.6-0.3,2c0.5-1,0.8,0.4,1.3-0.4
									c-0.1,0.7-0.6,1.2-0.7,1.3c0.2,0.1,0.5-0.4,0.6,0.2l0-0.9c0.3-0.1,0,0.8,0.1,1.3C344.7,256.9,343.9,254.3,344.6,253.8z"/>
								<path class="st144" d="M352.6,254.1c-0.1-0.1-0.2,0-0.3,0.1C352.5,254.2,352.6,254.1,352.6,254.1z"/>
								<path class="st144" d="M351.1,255.7c0,0.1,0,0.2,0,0.3C351.1,256,351.1,255.9,351.1,255.7z"/>
								<path class="st144" d="M351,256.9c0-0.4,0.1-0.4,0.1-0.9C351,256.3,350.7,256.3,351,256.9z"/>
								<path class="st144" d="M376.7,255c0-0.3,0.2-0.5,0.1-0.7l-0.3,0.3L376.7,255z"/>
								<path class="st144" d="M376,254.1l-0.3-0.3l-0.1,1.2C375.9,254.9,375.6,254.2,376,254.1z"/>
								<path class="st144" d="M375,253.6l0-0.3C375,253.4,375,253.5,375,253.6z"/>
								<path class="st144" d="M375.1,254l0,0.9l0.3-0.7l-0.2-0.1c0-0.3-0.1-0.4-0.2-0.5l-0.1,0.6C375,254.1,375,253.9,375.1,254z"
									/>
								<path class="st144" d="M374.8,254.1c0,0.1,0,0.2,0.1,0.2C374.8,254.3,374.8,254.2,374.8,254.1z"/>
								<path class="st144" d="M373.8,252.6c0.1,0.3,0,0.8,0,1.1c0.3,0.3,0.2-1,0.5-0.6c-0.3,0.7,0.2,0.5,0.4,0.9
									c-0.2-0.8-0.4-1.3-0.7-1.5l0,0.5C373.9,253.2,374,252.9,373.8,252.6z"/>
								<path class="st144" d="M372.4,254.1l0.2-0.8c0.1,0.4,0.5,0.3,0.5,1.1c0.1-0.1,0.1-0.5,0.2-0.7c0.1,0.4,0.3,0.7,0.3,0.1
									c-0.6-0.5-0.5-0.7-1-0.9c0-0.2,0.1-0.2,0.1-0.1l-0.4-0.4C372.4,253.4,372,253.5,372.4,254.1z"/>
								<path class="st144" d="M371.8,253.5c0.3-0.1,0.3-0.8,0.1-1.3l-0.5,0.7C371.7,252.9,371.9,252.8,371.8,253.5z"/>
								<path class="st144" d="M371.5,253.6c-0.1-0.4-0.4-1.3-0.5-0.4C371.3,253,371.2,254.2,371.5,253.6z"/>
								<path class="st144" d="M369.5,253l0.6,0.5c0.2,1-0.2,0.3-0.3,0.8c0.5,0.2,0.3-0.2,0.6-0.8c0.1,0.1,0.3-0.5,0.4-0.8
									C370.1,253.6,369.9,251.1,369.5,253z"/>
								<polygon class="st144" points="370.6,254 370.7,253.5 370.5,253.9 								"/>
								<path class="st144" d="M368.2,252c-0.4-1.2-0.5,0.7-0.9,0.2c0-0.1,0-0.2,0.1-0.3l-0.3,0.1l0-0.3c0.1,0.7-0.2,1-0.3,1.6
									c0.4,0.8,0.1-0.9,0.4-0.1c0,0.3,0,0.8-0.1,1.1c0.2-0.4,0.2-0.8,0.2-1.2c0.2-0.1,0.2,0.3,0.2,0.6c0.2-0.4,0.1-1.5,0.5-1.3
									c0.3,0.6,0,1,0.3,0.7c-0.3-1.2,0.4,0.2,0.5-0.6c0.3,0.2,0.5,0.9,0.5,1.3c-0.1-0.9,0.1-1.7,0.3-2l-0.4,0.8l-0.2-1.1
									C368.7,252.2,368.5,252.1,368.2,252L368.2,252z"/>
								<path class="st144" d="M367.1,254.4c0,0.1,0,0.1-0.1,0.2C367,254.6,367.1,254.5,367.1,254.4z"/>
								<polygon class="st144" points="369.3,254.2 369.2,254.4 369.4,254.7 								"/>
								<path class="st144" d="M366.9,255.2c0.1,0,0.1-0.3,0-0.4l-0.1,0.5L366.9,255.2z"/>
								<polygon class="st144" points="366.6,254.5 366.4,253.9 366.3,254.4 								"/>
								<path class="st144" d="M360.3,254.3c0.2,0.4,0.2-0.4,0.2-0.9C360.1,253.3,360.5,254,360.3,254.3z"/>
								<path class="st144" d="M356.3,255.4c0.2,0.5,0.4-0.3,0.6-0.2C356.8,254.8,356.5,255,356.3,255.4z"/>
								<path class="st144" d="M354.7,257.9c0-0.2,0.1-0.4,0-0.5l0.2-1.3C354.6,255.8,354.7,257.4,354.7,257.9z"/>
								<path class="st144" d="M352.8,258.2l0.3-0.5l-0.2,0c0.1-0.5,0.1-0.8,0.2-1.2C353,256.7,352.7,257.2,352.8,258.2z"/>
								<path class="st144" d="M353.4,256.2c0,0-0.1,0-0.1,0.1C353.4,256.4,353.4,256.6,353.4,256.2z"/>
								<path class="st144" d="M353.2,256.3c0,0.1,0,0.1,0,0.1c0.1-0.1,0.1-0.1,0.2-0.2C353.3,256.2,353.3,256.1,353.2,256.3z"/>
								<path class="st144" d="M352.6,257.5l-0.5,0.2l0.2,0.2C352.3,257.2,352.5,258.4,352.6,257.5z"/>
								<path class="st144" d="M349.7,256.9l-0.1-0.8c-0.3-0.2-0.7,1.5-1,0.3c0.2,0.5-0.3,0.9,0.1,1.1
									C349,256.8,349.5,256.7,349.7,256.9z"/>
								<path class="st144" d="M348.4,255.8c0.1-0.2,0-0.4-0.1-0.6c-0.1-0.1-0.2,0.3-0.2,0.6C348.3,254.8,348.3,256.4,348.4,255.8z"
									/>
								<path class="st144" d="M346.9,255.9c0.1,0,0.2-0.1,0.1-0.3c-0.3,0.1-0.2,0.9-0.3,1.5C346.9,257.5,347.1,256.3,346.9,255.9z"
									/>
								<path class="st144" d="M344.4,250.2c0,0.7,0.3,0.6,0.3,0.3C344.7,250.6,344.5,250.4,344.4,250.2z"/>
								<polygon class="st144" points="344.5,255.8 344.5,255.9 344.6,254.9 								"/>
								<polygon class="st144" points="342.7,256.3 342.4,257 342.8,256.9 								"/>
								<path class="st144" d="M342.3,256.2l-0.3,0l0.1,0.3C342.3,256.7,342.2,256.2,342.3,256.2z"/>
								<path class="st144" d="M341.4,256.3c0-0.1,0.1,0,0.1,0.2l0.3-0.4L341.4,256.3z"/>
								<path class="st144" d="M336.7,252.1c0.1-0.7-0.2-0.3-0.3-0.4C336.4,251.8,336.6,252.7,336.7,252.1z"/>
							</g>
						</g>
					</g>
				</g>
			</g>
			<path class="st147" d="M275.4,252.3l-10.5,10.6c-6.1,1.7-9.2-0.1-9.2-0.1l-17.3-12.1C238.4,250.7,263.6,245.2,275.4,252.3z"/>
			<path class="st145" d="M238.7,156.6c0,0-31.1,24.1-54.1,21.9c1.8-29.3,5.4-64.1,5.4-64.1c3.2-24.5,38.1-22.8,42.1-2.4
				C235.2,127.6,238.7,156.6,238.7,156.6z"/>
			<path class="st147" d="M252.9,252.2c-60.1-2-66.4-21-68.8-37.8c-0.9-6.3-0.5-20.3,0.5-36c23,2.3,54.1-21.9,54.1-21.9
				c4.3,2.7,8.6,5.4,12.8,8.1c-0.7,0.1-29.3,5.1-34.7,37.6C211.4,235,237.1,249.5,252.9,252.2z"/>
			<path class="st148" d="M190.4,112.2c0,0-9.5,1.5-14.2,12.9c0,0,12.5,1,14.9,1.3C191.1,126.4,192.1,118.2,190.4,112.2z"/>
			<path class="st149" d="M176.2,125.1c0,0,10-2.5,15.3-1.5"/>
			<circle class="st150" cx="204.3" cy="115.1" r="4.8"/>
			<path class="st13" d="M272.7,262.9l-16,16.2l-9.9,2l16.7-18.3C263.5,262.8,266.6,264.6,272.7,262.9z"/>
			<path class="st147" d="M283.2,252.3l-10.5,10.6c-6.1,1.7-9.2-0.1-9.2-0.1L248,252C248,252,271.4,245.2,283.2,252.3z"/>
			<path class="st13" d="M221.7,284.4h46c0,0-0.6-5.3-8.1-5.3c-12.8,0-26.3,2-30.8,2C223,281.1,221.7,284.4,221.7,284.4z"/>
			<path class="st145" d="M375.3,252.4c0,0-35-0.7-108.3,0c-5,0-9.7,0-14.2-0.2c-15.8-2.7-41.4-17.2-36-50
				c5.4-32.4,34-37.4,34.7-37.6c0,0,0,0,0,0C317.2,206.7,375.3,252.4,375.3,252.4z"/>
			<path class="st151" d="M318.1,209.8c-3.1,7.4-12.4,25.1-34.9,42.4c-5.2,0-10.6,0.1-16.2,0.1c34.4-22.8,42.5-48.6,42.5-48.6
				C312.5,205.9,315.3,207.9,318.1,209.8z"/>
			<path class="st151" d="M337.8,224.1c-3.7,7.2-10.2,17.3-21,28c-4.4,0-9.1,0-14.1,0c15.3-13.4,23.2-26.4,26.9-34
				C332.4,220.2,335.2,222.2,337.8,224.1z"/>
			<path class="st80" d="M216.4,205.9c0,0-0.3,39.2,49.2,33.5c14.9-1.7-0.9-11.6-0.9-11.6s13.4,7.8,20.5,3.2
				c5.9-3.8-7.3-12.4-7.3-12.4s10.5,3.7,16.1,1.3c5.9-2.5-5.3-10.8-5.3-10.8"/>
		</g>
	</g>
</g>
</svg>
