<?xml version="1.0" encoding="utf-8"?>
<!-- Generator: Adobe Illustrator 26.0.3, SVG Export Plug-In . SVG Version: 6.00 Build 0)  -->
<svg version="1.1" xmlns="http://www.w3.org/2000/svg" xmlns:xlink="http://www.w3.org/1999/xlink" x="0px" y="0px"
	 viewBox="0 0 503.6 377.7" style="enable-background:new 0 0 503.6 377.7;" xml:space="preserve">
<style type="text/css">
	.st0{fill:#FFF0DD;}
	.st1{fill:#6B5C52;}
	.st2{fill:#B8BBBF;}
	.st3{fill:#F9E9CD;}
	.st4{fill:#FFE6BD;}
	.st5{fill:#F5F5F2;}
	.st6{fill:#637189;}
	.st7{fill:#9E9082;}
	.st8{fill:#938D89;}
	.st9{fill:#FFDBC0;}
	.st10{fill:#6E85BD;}
	.st11{fill:#E8D9D6;}
	.st12{fill:#A7BC79;}
	.st13{fill:#FF8080;}
	.st14{fill:#3D3533;}
	.st15{fill:#A1683D;}
	.st16{fill:#CCE0FF;}
	.st17{fill:#383531;}
	.st18{fill:#757060;}
	.st19{fill:#D29F7E;}
	.st20{opacity:0.88;clip-path:url(#SVGID_00000055680279103384196340000013884136606799532184_);}
	.st21{fill:#322015;}
	.st22{fill:#1B1C1E;}
	.st23{fill:none;stroke:#1B1C1E;stroke-width:1.2604;stroke-linecap:round;stroke-linejoin:round;stroke-miterlimit:10;}
	.st24{opacity:0.84;clip-path:url(#SVGID_00000129911943846576718630000002847725883838897837_);}
	.st25{clip-path:url(#SVGID_00000122681000406898289000000006281953858976275077_);}
	.st26{fill:none;stroke:#1B1C1E;stroke-width:1.2604;stroke-linecap:round;stroke-linejoin:round;}
	.st27{fill:#D1493B;}
	.st28{fill:#FFAE1F;}
	.st29{opacity:0.88;clip-path:url(#SVGID_00000009575391734673890680000014877968873669441410_);}
	.st30{opacity:0.7;clip-path:url(#SVGID_00000028299584675345209460000013914002186606523540_);}
	.st31{fill:#2C2C2D;}
	.st32{opacity:0.87;clip-path:url(#SVGID_00000103261657935422644850000006347832118045044614_);}
	.st33{fill:#080809;}
	.st34{opacity:0.7;clip-path:url(#SVGID_00000163030426259825835770000002828857043288977317_);}
	.st35{fill:#FBAF5E;}
	.st36{opacity:0.62;clip-path:url(#SVGID_00000070105077229312298260000002252160820347625386_);}
	.st37{fill:#3E240C;}
	.st38{fill:#BC763C;}
	.st39{opacity:0.62;clip-path:url(#SVGID_00000085973087339670853900000018084915847571662222_);}
	.st40{opacity:0.62;clip-path:url(#SVGID_00000055672714526282945020000009203686688890812050_);}
	.st41{fill:#967258;}
	.st42{opacity:0.53;clip-path:url(#SVGID_00000150786595371953739810000012816823037437659801_);}
	.st43{opacity:0.73;clip-path:url(#SVGID_00000165233836735743767700000002481415222854477994_);}
	.st44{fill:none;stroke:#1B1C1E;stroke-width:1.1311;stroke-linecap:round;stroke-linejoin:round;stroke-miterlimit:10;}
	.st45{fill:#3D291C;}
	.st46{fill:#3D291C;stroke:#967258;stroke-width:1.2604;stroke-linecap:round;stroke-linejoin:round;stroke-miterlimit:10;}
	.st47{fill:#D6D4C8;}
	.st48{fill:#1B1C1E;stroke:#967258;stroke-width:1.2604;stroke-linecap:round;stroke-linejoin:round;stroke-miterlimit:10;}
	.st49{opacity:0.52;clip-path:url(#SVGID_00000172413604713655439400000012147100033600808589_);}
	.st50{fill:#B37D4F;}
	.st51{opacity:0.88;clip-path:url(#SVGID_00000174562280568085669850000010442796124563578787_);}
	.st52{fill:#343434;}
	.st53{fill:#BC6464;}
	.st54{opacity:0.88;clip-path:url(#SVGID_00000066481048743338898360000003137065337368681353_);}
	.st55{fill:#1B1C1E;stroke:#1B1C1E;stroke-width:1.1485;stroke-linecap:round;stroke-linejoin:round;stroke-miterlimit:10;}
	.st56{fill:#8C7265;}
	.st57{opacity:0.88;clip-path:url(#SVGID_00000041994720809253552950000004221733383792300179_);}
	.st58{fill:#1B1C1E;stroke:#1B1C1E;stroke-width:1.3664;stroke-linecap:round;stroke-linejoin:round;stroke-miterlimit:10;}
	.st59{opacity:0.88;clip-path:url(#SVGID_00000127003016443676064810000001952550200863413671_);}
	.st60{fill:none;stroke:#1B1C1E;stroke-width:1.3664;stroke-linecap:round;stroke-linejoin:round;stroke-miterlimit:10;}
	.st61{opacity:0.88;clip-path:url(#SVGID_00000048500529081158412330000002346539722665801893_);}
	.st62{opacity:0.88;clip-path:url(#SVGID_00000067206743027287345140000007019142591833157815_);}
	.st63{fill:#5F6C72;}
	.st64{fill:#1B1C1E;stroke:#1B1C1E;stroke-width:1.5329;stroke-linecap:round;stroke-linejoin:round;stroke-miterlimit:10;}
	.st65{opacity:0.88;clip-path:url(#SVGID_00000126282388202675582690000013249834392230325926_);}
	.st66{clip-path:url(#SVGID_00000044890462739846167180000000511889917709350807_);}
	.st67{opacity:0.58;clip-path:url(#SVGID_00000027566493158384515640000003854355846929429157_);}
	.st68{opacity:0.58;clip-path:url(#SVGID_00000160913526534308102660000000968369092384950913_);}
	.st69{fill:#1B1C1E;stroke:#1B1C1E;stroke-width:1.818;stroke-linecap:round;stroke-linejoin:round;stroke-miterlimit:10;}
	.st70{fill:#FFFFFF;}
	.st71{fill:#CC813E;}
	.st72{opacity:0.58;clip-path:url(#SVGID_00000054969478959104210450000007258031036962924452_);}
	.st73{fill:#AA8C7D;}
	.st74{opacity:0.88;clip-path:url(#SVGID_00000139259242733569904790000017891965833337441679_);}
	.st75{opacity:0.88;clip-path:url(#SVGID_00000121267031783937476080000007987857603367011457_);}
	.st76{fill:#1B1C1E;stroke:#1B1C1E;stroke-width:1.2604;stroke-linecap:round;stroke-linejoin:round;stroke-miterlimit:10;}
	.st77{opacity:0.88;clip-path:url(#SVGID_00000182512183099909484480000003616875604319444906_);}
	.st78{opacity:0.88;clip-path:url(#SVGID_00000084491248271313022470000003263650246706209181_);}
	.st79{opacity:0.88;clip-path:url(#SVGID_00000077282550573571371820000002008102142588916629_);}
	.st80{fill:none;stroke:#1B1C1E;stroke-miterlimit:10;}
	.st81{fill:#B8BDC4;}
	.st82{fill:#B4D3CD;}
	.st83{opacity:0.88;clip-path:url(#SVGID_00000129189327845436353940000009467992201395270066_);}
	.st84{opacity:0.88;clip-path:url(#SVGID_00000004538500413141813090000005142213813430585763_);}
	.st85{fill:#EFBE9D;}
	.st86{opacity:0.88;clip-path:url(#SVGID_00000139989980262136503060000007274700204175288475_);}
	.st87{fill:#443730;}
	.st88{opacity:0.88;clip-path:url(#SVGID_00000159471545923194151830000009676682175084460964_);}
	.st89{opacity:0.88;clip-path:url(#SVGID_00000137124718494040673370000008438847166151882911_);}
	.st90{fill:#E2AF8D;}
	.st91{fill:none;stroke:#1B1C1E;stroke-linecap:round;stroke-linejoin:round;stroke-miterlimit:10;}
	.st92{fill:#1B1C1E;stroke:#1B1C1E;stroke-miterlimit:10;}
	.st93{fill:#FCEA9F;}
	.st94{fill:#F6EBEF;}
	.st95{fill:#D4DADD;}
	.st96{opacity:0.61;clip-path:url(#SVGID_00000063608872248744437660000015503631283350909071_);}
	.st97{fill:#353737;}
	.st98{fill:#B3B9BC;}
	.st99{opacity:0.61;clip-path:url(#SVGID_00000124877287300362744350000013599842659118356901_);}
	.st100{opacity:0.61;clip-path:url(#SVGID_00000118365967556571177880000017602745254387305356_);}
	.st101{fill:#B3B9BC;stroke:#1B1C1E;stroke-miterlimit:10;}
	.st102{fill:#CCE2CF;stroke:#1B1C1E;stroke-miterlimit:10;}
	.st103{fill:#EAD6DE;}
	.st104{fill:#1B1C1E;stroke:#1B1C1E;stroke-width:1.0185;stroke-miterlimit:10;}
	.st105{fill:none;stroke:#1B1C1E;stroke-width:1.0185;stroke-miterlimit:10;}
	.st106{fill:#FBAF5E;stroke:#1B1C1E;stroke-miterlimit:10;}
	.st107{fill:#513F3B;}
	.st108{opacity:0.88;clip-path:url(#SVGID_00000104692398393825863410000016244958076376448134_);}
	.st109{opacity:0.88;clip-path:url(#SVGID_00000058583108820940956410000001673564191632833422_);}
	.st110{fill:#8B2403;}
	.st111{fill:#EBDAD2;}
	.st112{fill:#A84E39;}
	.st113{fill:#751A01;}
	.st114{fill:#EBDAD2;stroke:#1B1C1E;stroke-miterlimit:10;}
	.st115{opacity:0.78;clip-path:url(#SVGID_00000020391538729708755870000015137972640473846153_);}
	.st116{fill:#290B01;}
	.st117{opacity:0.78;clip-path:url(#SVGID_00000171685581206492270950000006512419843825805498_);}
	.st118{opacity:0.78;clip-path:url(#SVGID_00000013888876569533971900000010097213316591443622_);}
	.st119{opacity:0.78;clip-path:url(#SVGID_00000049202053151485877860000015409791176436627088_);}
	.st120{fill:#030203;}
	.st121{fill:#86889A;}
	.st122{fill:#0B060A;}
	.st123{fill:#736E72;}
	.st124{fill:#9E9AA0;}
	.st125{fill:#18172A;}
	.st126{fill:#3B4D84;}
	.st127{fill:#FFA3AC;}
	.st128{fill:none;stroke:#0B080B;stroke-width:1.2005;stroke-miterlimit:10;}
	.st129{fill:#E7E6E8;}
	.st130{fill:#0B080B;}
	.st131{fill:none;stroke:#1B1C1E;stroke-width:1.2005;stroke-linecap:round;stroke-linejoin:round;stroke-miterlimit:10;}
	.st132{opacity:0.78;clip-path:url(#SVGID_00000137114761817151488860000013400393570011916701_);}
	.st133{opacity:0.78;clip-path:url(#SVGID_00000041270391921839034350000001078280094339001020_);}
	.st134{fill:#89745E;}
	.st135{opacity:0.78;clip-path:url(#SVGID_00000072251826370863144790000017150821716464434048_);}
	.st136{fill:#060606;}
	.st137{fill:#4D483E;}
	.st138{fill:#FF8A00;}
	.st139{fill:#50483F;}
	.st140{fill:#131313;}
	.st141{fill:#E8DBCD;}
	.st142{opacity:0.78;clip-path:url(#SVGID_00000072268888423888084320000008537001814579532989_);}
	.st143{opacity:0.78;clip-path:url(#SVGID_00000114052669284683483240000002658050643619304112_);}
	.st144{fill:#191212;}
	.st145{fill:#6C5353;}
	.st146{opacity:0.78;clip-path:url(#SVGID_00000087402477734548207790000013060730029131154304_);}
	.st147{fill:#B3B3B3;}
	.st148{fill:#FF9F2C;}
	.st149{fill:none;stroke:#343434;stroke-miterlimit:10;}
	.st150{fill:#21262A;}
	.st151{fill:#563D3D;}
	.st152{opacity:0.78;clip-path:url(#SVGID_00000115481900730839398000000004600399736199905687_);}
	.st153{fill:#181716;}
	.st154{fill:#706153;}
	.st155{fill:none;stroke:#1B1C1E;stroke-width:0.8477;stroke-miterlimit:10;}
	.st156{fill:#FCBD30;}
	.st157{fill:#E8D9CD;}
	.st158{fill:#534E4A;}
	.st159{opacity:0.78;clip-path:url(#SVGID_00000115511957637655113810000016932629268358937739_);}
	.st160{fill:#7DA050;}
	.st161{opacity:0.78;clip-path:url(#SVGID_00000127736338845636025150000015894122581177904029_);}
	.st162{opacity:0.78;clip-path:url(#SVGID_00000060751814130896452250000009285113836675476627_);}
	.st163{opacity:0.78;clip-path:url(#SVGID_00000079483195663580247030000010201663832885712523_);}
	.st164{fill:#EFEECE;}
	.st165{opacity:0.78;clip-path:url(#SVGID_00000028293600593389386300000003202143218672720516_);}
	.st166{fill:#93543B;}
	.st167{fill:#FF510C;}
	.st168{opacity:0.78;clip-path:url(#SVGID_00000168082319141280258400000012681089090954096019_);}
	.st169{fill:#4B1804;}
	.st170{fill:#000A0E;}
	.st171{opacity:0.78;clip-path:url(#SVGID_00000103951273034600530510000016110403623839473328_);}
	.st172{opacity:0.78;clip-path:url(#SVGID_00000084513767254555234150000014294383824881612469_);}
	.st173{fill:#F9C8A7;}
	.st174{fill:#1B1C1E;stroke:#1B1C1E;stroke-width:1.3738;stroke-miterlimit:10;}
	.st175{fill:none;stroke:#1B1C1E;stroke-width:1.3;stroke-miterlimit:10;}
	.st176{fill:#FFCB6E;}
	.st177{fill:#CECECE;}
	.st178{fill:none;stroke:#1B1C1E;stroke-width:1.3037;stroke-miterlimit:10;}
	.st179{fill:#FFFFFF;stroke:#1B1C1E;stroke-width:1.3;stroke-miterlimit:10;}
	.st180{opacity:0.78;clip-path:url(#SVGID_00000044882235151629738020000000773462905878200709_);}
	.st181{fill:none;stroke:#1B1C1E;stroke-width:1.3738;stroke-miterlimit:10;}
	.st182{opacity:0.45;clip-path:url(#SVGID_00000182516017102642593840000010714579651546250384_);}
	.st183{opacity:0.45;clip-path:url(#SVGID_00000129928736835106440120000007673264752714079390_);}
	.st184{opacity:0.45;clip-path:url(#SVGID_00000010278058051156965910000017916499377645024163_);}
	.st185{opacity:0.45;clip-path:url(#SVGID_00000164479205718376455080000010929390051253244045_);}
	.st186{fill:none;stroke:#1B1C1E;stroke-width:1.3738;stroke-linecap:round;stroke-linejoin:round;stroke-miterlimit:10;}
	.st187{fill:#FFB192;}
	.st188{fill:#EB8226;}
	.st189{fill:#F7EDE1;}
	.st190{opacity:0.78;clip-path:url(#SVGID_00000091712460162028460960000010793124213360375434_);}
	.st191{opacity:0.78;clip-path:url(#SVGID_00000051358254100508917760000014359763933351706781_);}
	.st192{opacity:0.5;clip-path:url(#SVGID_00000101101700238472401940000006579098404931095485_);}
	.st193{opacity:0.5;clip-path:url(#SVGID_00000021804513107536769640000012269672920127652016_);}
	.st194{fill:none;stroke:#06002C;stroke-width:1.3038;stroke-miterlimit:10;}
	.st195{fill:#F7A9B4;}
	.st196{fill:#06002C;}
	.st197{opacity:0.5;clip-path:url(#SVGID_00000102519417412378254810000010542185218988604319_);}
	.st198{fill:none;stroke:#06002C;stroke-width:1.3038;stroke-linecap:round;stroke-linejoin:round;stroke-miterlimit:10;}
	.st199{fill:#9BBEDC;}
	.st200{opacity:0.88;clip-path:url(#SVGID_00000098188279285097816300000011747330072808141964_);}
	.st201{opacity:0.88;clip-path:url(#SVGID_00000034065663370398525040000007542427367371675567_);}
</style>
<g id="Background">
	<rect x="-3.2" y="-2.4" class="st12" width="510" height="382.5"/>
</g>
<g id="Illustration">
	<g>
		<path class="st22" d="M127.8,269.2c-2.4-1.3,238.4-3.6,252.4,0c10.1,2.6-26.5,5.2-69.6,5.1c-45.8,0-99-2.8-113.9-1.3
			C167.6,275.8,135.9,273.6,127.8,269.2z"/>
		<g>
			<path class="st0" d="M165,201.2c0,0-1.5,13.3-1.2,22.3c0.3,8.9,1.5,13.2,1.2,14.6c-0.3,1.5-1.7,7.6-0.6,8.5c0,0,0.4,4.1-0.6,8.3
				c-1,4.2-3.5,12.3-1.2,16.4l11.9,0c0,0,6-13.6,2.8-30.2S167.6,198.4,165,201.2z"/>
			<path class="st0" d="M277.3,216.5c0,0-0.4,11.6,3.5,15c1.4,1.2,3.1,0.8,3.1,0.8s0.3,6.6,2.6,8.5c0.9,0.7,1.6,1,1.6,1
				s0,8.3,2.1,9.1s-4.6,12.4-2.6,20.5h28.2c0,0,7.3-15.2,5.2-26.6c-2.1-11.3-9.4-36.2-14-39.5C302.5,202,280.6,207.8,277.3,216.5z"
				/>
			<g>
				<defs>
					<path id="SVGID_00000132791837794574306090000005455807100338238087_" d="M277.3,216.5c0,0-0.4,11.6,3.5,15
						c1.4,1.2,3.1,0.8,3.1,0.8s0.3,6.6,2.6,8.5c0.9,0.7,1.6,1,1.6,1s0,8.3,2.1,9.1s-4.6,12.4-2.6,20.5h28.2c0,0,7.3-15.2,5.2-26.6
						c-2.1-11.3-9.4-36.2-14-39.5C302.5,202,280.6,207.8,277.3,216.5z"/>
				</defs>
				<clipPath id="SVGID_00000003075244718981576540000006762920961690948279_">
					<use xlink:href="#SVGID_00000132791837794574306090000005455807100338238087_"  style="overflow:visible;"/>
				</clipPath>
				<g style="opacity:0.7;clip-path:url(#SVGID_00000003075244718981576540000006762920961690948279_);">
					<g>
						<g>
							<g>
								<g>
									<path class="st31" d="M291.1,215.9c0,0.2-0.1,0.4-0.1,0.6C291,216.4,291,216.3,291.1,215.9z"/>
									<path class="st31" d="M284.4,215.9C284.4,215.9,284.4,215.9,284.4,215.9c0-0.1,0-0.2,0-0.2L284.4,215.9z"/>
									<path class="st31" d="M284.4,215.7l0-0.7C284.5,215.3,284.5,215.5,284.4,215.7z"/>
									<path class="st31" d="M290.2,220.6c0,0.2,0,0.4-0.1,0.9L290.2,220.6z"/>
									<path class="st31" d="M288.8,223.3c0,0.1-0.1,0.2-0.1,0.3C288.7,223.5,288.7,223.4,288.8,223.3z"/>
									<path class="st31" d="M297.4,216.2c0-0.1,0.1-0.2,0.1-0.3C297.4,216,297.4,216.1,297.4,216.2z"/>
									<path class="st31" d="M297.3,217.5C297.4,217.4,297.4,217.5,297.3,217.5l0,0.2C297.3,217.8,297.3,217.6,297.3,217.5z"/>
									<path class="st31" d="M296.8,218.2l0,0.1C296.8,218.3,296.8,218.3,296.8,218.2z"/>
									<path class="st31" d="M295.6,227l-0.3,0.7C295.4,227.4,295.5,227.2,295.6,227z"/>
									<path class="st31" d="M297.6,215.3c0,0.2-0.1,0.4-0.2,0.6C297.5,215.7,297.5,215.6,297.6,215.3z"/>
									<path class="st31" d="M291.2,215.6c0,0.1-0.1,0.2-0.1,0.3C291.2,215.8,291.2,215.7,291.2,215.6z"/>
									<path class="st31" d="M290.6,220.6L290.6,220.6C290.6,220.6,290.6,220.6,290.6,220.6z"/>
									<path class="st31" d="M281.8,215.4c-0.1-0.1-0.1-0.1-0.2-0.3C281.8,214.9,281.8,215.1,281.8,215.4z"/>
									<path class="st31" d="M295.2,217c-0.9,2,0.2,0.2-0.6,2.1c0.1-0.5,0.1-0.8-0.4,0.2c-0.4,1.1,0.3,0-0.4,1.7l0.1-0.7
										c-0.4,0.8-0.8,2.2-0.9,2c0.8-2.3-0.8,0.7-0.8,0.3l0,0.2l-0.6,1c0,0,0,0.1,0,0.1c0-0.1,0.1-0.3,0.2-0.4
										c-0.5,1.1-1,1.9-1,1.5c0.4-1.3-0.4-0.6-0.1-1.8c0,0.4,0,0.4,0.2,0.1l0.6-1.6c-0.2,0-0.5,1.5-0.4,0.5
										c0.8-2.1,0.2,0.1,0.4-0.1c0.1-0.5,0.2-1,0.2-1.2c0.3,0,0.8-0.6,0.2,1.6c0.2-0.4,0.5-1.3,0.6-1.6c-0.3,1.3,0.6-1.2,0.3,0
										c0.7-2,0-1.2,0.3-2.4c-0.8,1.5-0.6-0.1-0.7-0.5c-0.5,1.5-0.8,2.8-1.2,3.6c-0.6,0.9,0-0.9,0.2-1.8c-0.4,0.5-0.9,2.5-1.2,2.5
										l-0.2,1c-0.9,2,0.1-0.9-0.1-0.5c0.2-0.5,0.4-1.1,0.5-1c0.3-0.8,0.3-1.1,0.2-1.2l0.1-0.1c0.3-1,0.6-2.1,0.3-1.7
										c-0.3,1.3-0.5,0.9-0.7,1.5l0,0.3c0-0.5-0.2-0.3-0.2-0.6l-0.1,0.3c0.1-0.5,0.5-2.1,0.2-1.8c-0.2,0.6-0.5,2.4-0.6,2.1
										c-0.3,0.9-0.1,1.1,0.1,0.8c-0.3,0.3-0.8,1.8-0.7,2c-0.4,1.2,0-0.6-0.3,0c0.1-0.4,0.2-0.8,0.3-1.1c-0.5,1.6-0.4,0,0-1.1
										L289,222c0.4-1.3,0.4-2.2,0.7-2.9c-0.7,2-0.2-1.2-0.8,0.5l0.4-1c-0.5,0.5-0.2-1.9-0.5-2.5c0,0.7-0.6,2.9-0.2,2.2
										c-0.5,0.3-0.7,2.2-1.1,3.3c-0.5,0.8,0.4-2.1,0.5-2.9l0.1,0.5c0.4-2.7-0.9,0.4-0.8-1.3c-0.2,0.7,0,0.4,0,0.7
										c-0.5,1.3-0.1-0.3-0.1-0.9c-0.2,0.2-0.6,0.7-0.8,2.4c-0.3,0.4,0.2-1,0.3-1.5l-0.1,0.4l0.2-1.9c-0.3,0.5-0.7,1.4-1.1,2.9
										c-0.3-0.4,0.6-3.8,0.4-4.5c-0.3,0.8-0.2,1.3-0.3,1.9l-0.2-0.2c-0.2,1.9,0.1,1-0.3,3.2c0.2-2.2-0.2-0.7-0.2-2.2l0-0.2
										c0.1-1.5-0.4-0.5-0.5-0.8c-0.1,0.9,0.1,1,0.2,1.4c-0.3,0.7-0.7-0.1-0.6-2.1c-0.2,0.3-0.5,1.1-0.4,1.9
										c-0.4,0.3,0.1-2.8-0.3-2.3l-0.1,1.5c-0.3,1.1-0.4,0.6-0.6,0c-0.2-0.5-0.4-1-0.6-0.1l0-1.8c-0.1,0.8-0.3,1.1-0.3,1.8
										l0.2,0.6c-0.2,1.5-0.2-1.5-0.4-0.4c0-0.6,0.2-1.8,0.2-2.4c0.4,0.5,0.9,0.1,1.3-0.1c0.4-0.3,0.9-0.4,1.2,0.6
										c-0.1,0.2-0.1,0.5-0.1,0.8c0.1-0.4,0.2,0.1,0.3-0.9l0-0.1c0.2,0.4,0.7-1.7,0.8-1.7c-0.1,1.2,0.6-0.4,0.1,1.6l0.4-1.3
										c-0.1,0.8-0.3,1.8-0.3,2.2c0.2-0.1,0.3-1,0.3-1.5c0.7-0.7,1.4-0.3,1.8,0.4l0.1-1c0.3-0.5,0.1,1.8,0.6-0.7
										c0.1,1,1-0.5,0.3,2.1c0.8-2.4,1-0.9,1.2-0.4c-0.7,2.2,0.1,0.7-0.1,1.7c0.5-1.7,0.2-1.8,0.5-2.9c-0.4,2.7,1.7-1.6,0.5,2.8
										c0.1-0.2,0.2-0.3,0.2-0.5c0.1,0,0.4-0.7,0.5-0.9c-0.2,0.8-0.5,1.1-0.4,1.4c0.2-0.1,0.5-1.3,0.7-1.9c0,1.1,0.2,1.6-0.3,3.3
										c0.2-0.4,0.6-1.4,0.7-1.7c0,1.5,0.5-0.1,0.6,0.9c-0.1-0.1,0.6-1.8,0.1-1.2c1-2.4,0.5,0.7,1.3-0.5l-0.4,1.6
										c0.1,0.3,0.7-1.1,0.7-1.7c0.7-0.8,0.5,0.2,0.8,0.3c0.1-0.2,0.2-0.5,0.1-0.4l0.4,0.1c-0.1,0.4-0.3,1.2-0.7,2.2
										C295.5,217.1,295.7,216.5,295.2,217z"/>
									<path class="st31" d="M295.2,217.9l-0.1,0.2l0,0C295.2,218.1,295.2,218,295.2,217.9z"/>
									<path class="st31" d="M289.6,223.4c0.2-0.4,0.2-0.6,0.3-0.6C289.8,223,289.7,223.3,289.6,223.4z"/>
									<path class="st31" d="M297.4,222.1c-1.1,2.2,0-0.5-0.5,0.1c0,0.4-0.7,1.7-1,2.3c1.2-3-0.5,0.5-0.5-0.3
										c-0.4,0.9-0.4,1.2-0.9,2.2c0.2-0.8,0.1-1.3,0.8-3c-0.3-0.2-0.8,0.3-0.8,0c-0.1,0.8-0.7,1.7-1.2,3.1c0.7-2,1.2-4.5,1.8-7
										c-0.8,1.8-0.9,2-1.6,3.7c-0.9,1.1,0.6-1.7,0-1.3l0.3-0.3c0.1-0.6,0.8-2.3,1.2-3.6l0.3,0.4c0.5-1.3,0.2-1.2,0.2-1.5
										c0.5-1.6,0.7-1,1.1-2.2c-0.3,1,0,0.8-0.1,1.2l0.3-0.7c0.5-0.6-0.1,1.1,0.1,1.2c0.1-0.2,0.2-0.3,0.2-0.4
										c-0.3,0.8-0.6,1.7-0.6,2l-0.1-0.1c-0.5,1.7-0.6,2.8-1.6,4.4l0.6-0.3c0.7-1.7,1.9-4.4,1.7-4.7l0.3-0.7
										c0.6-0.9-0.1,1.6-0.9,3c-1.7,4.2,0.6,0.4,0.1,2.3c0.6-1.1,0.6-1.6,0.9-2.5c0-0.2-0.1-0.2-0.5,0.7c-0.1-0.8,1.8-3.5,1.1-3.4
										c-0.5,0.5-0.6,1.9-1,1.9l1.2-3.3c0.2,0.2,0.2,0.8,0.2,1.2c0,1.3,0.4,1.5,0.7,1.5c0.4,0,0.8-0.4,0.8-0.4
										c1.2,1.1,2.4,2.1,3.5,3.3c0.2,0.7,0.4,0.6-1.3,3.6c-0.5,0.5-0.5,0.1-1.1,1.2c0.7-1.1,0.9-1.8,0.6-1.8
										c-0.7,1-0.1,0.6-0.3,0.8l-0.1,0c-0.3,0.5-0.5,0.9-0.5,1c-1.2,1.5-1.4,0.9-0.3-1.2c-0.8,1-0.9,1.7-1.3,2.6
										c-1.1,0.5-1.4,0.1-2-0.2c1.1-1.9,0.6-1.2,1.3-2.6l-0.4,0.7c0.2-0.3,0.9-1.7,1.2-2c-1.2,1.3,0.9-2.8,1.1-3.8l-0.5,1
										c-0.1-0.3-0.2-0.4-0.1-1c-1.4,1.7,0.2,0.5-1.2,2.9l0.1-0.5c-0.4,1-1.3,2.7-1.5,3.5c0.5-1.8-0.8,0.4-0.5-1
										c-0.5,1.2-0.7,2.2-0.7,2.4c-0.2,0,0-0.9-0.5,0.2l0.7-1.4c-0.1-0.3-0.6,1.3-1.2,2.2C294.8,227.4,297.4,223.2,297.4,222.1z"
										/>
									<path class="st31" d="M291.6,220.7c0.1-0.1,0.1,0,0.1,0.1C291.7,220.9,291.6,220.8,291.6,220.7z"/>
									<path class="st31" d="M291.6,223.9c-0.1,0.2-0.1,0.4-0.2,0.5C291.5,224.3,291.5,224.1,291.6,223.9z"/>
									<path class="st31" d="M290.9,226c0.3-0.7,0.2-0.7,0.5-1.6C291.3,225,291.5,225,290.9,226z"/>
									<path class="st31" d="M278.7,224.5c-0.2-0.2-0.3-0.3-0.5-0.5c-0.3-0.3-0.6-0.5-0.9-0.8l-0.1-0.1l-0.1,0l0,0l0,0l0,0l1.1,1
										l0,0l0-0.1c0,0-0.1-0.1-0.1-0.1c-0.1-0.1-0.2-0.1-0.2-0.2l0,0.1l0,0l0,0l0,0l-0.7-0.7l0,0l0,0l0.1,0.1l0.2,0.2l0.5,0.5
										c0.1,0.1,0.1,0.1,0.2,0.2L278.7,224.5z"/>
									<path class="st31" d="M277.7,223.2c-0.1-0.2-0.2-0.4-0.3-0.6c0.5,0.5,1,1.1,1.4,1.6C278.7,224.3,277.8,223.1,277.7,223.2z"
										/>
									<path class="st31" d="M277.3,222l-0.3-0.4C277.1,221.7,277.2,221.8,277.3,222z"/>
									<path class="st31" d="M277.8,222.7l1,1.2c-0.3-0.3-0.5-0.6-0.8-0.8l-0.1-0.3c-0.3-0.4-0.4-0.6-0.6-0.9l0.7,0.9
										C277.9,222.7,277.7,222.5,277.8,222.7z"/>
									<path class="st31" d="M278,222.6c0.1,0.1,0.2,0.3,0.3,0.4C278.1,222.9,278.1,222.8,278,222.6z"/>
									<path class="st31" d="M276.7,220c0.3,0.5,0.8,1.2,1.2,1.7c0.2,0.6-1.1-1.4-0.8-0.6c0.9,0.9,0.4,0.8,0.9,1.6
										c-0.8-1.2-1.3-2.1-1.4-2.6l0.5,0.8C277.3,220.8,276.9,220.4,276.7,220z"/>
									<path class="st31" d="M278.8,221.6c-0.2-0.4-0.5-0.8-0.8-1.2c0.3,0.6,0.1,0.8,0.8,2.1c-0.2-0.2-0.5-0.7-0.7-1
										c0.3,0.7,0.6,1.2,0,0.3c-0.2-1.1-0.5-1.3-0.4-1.9c-0.2-0.3-0.2-0.2-0.2-0.1c-0.1-0.3-0.1-0.5-0.1-0.8
										C278.2,220.5,278.5,220.5,278.8,221.6z"/>
									<path class="st31" d="M278.6,220.4c-0.2,0-0.9-1.2-1.2-2.2c0.3,0.3,0.6,0.6,0.8,0.9C278.2,219.2,278,219.1,278.6,220.4z"/>
									<path class="st31" d="M278.8,220.3c-0.2-0.7-0.7-2.3,0-1C278.5,219.2,279.3,221.3,278.8,220.3z"/>
									<path class="st31" d="M279.6,218.6c-0.1,0.3-0.1,0.7-0.1,1c0.4,1.9,0.3,0.5,0.6,1.4c-0.1,0.4-0.2-0.2-0.7-1.3
										c0,0.1-0.5-0.8-0.7-1.3c0.5,0.7,0.4-0.1,0.3-0.7C279,217.3,279,216.9,279.6,218.6z"/>
									<polygon class="st31" points="279.5,220.7 279.2,219.9 279.5,220.5 									"/>
									<path class="st31" d="M280.2,216.4c0-1.2,0.2-0.9,0.4-0.4c0.2,0.5,0.4,1.1,0.5,0.6c0-0.1,0-0.3-0.1-0.6l0.3,0.2l0-0.5
										c0,1.4,0.3,1.9,0.4,3c-0.2,1.5-0.2-1.7-0.3-0.1c0.1,0.6,0.1,1.6,0.2,2.1c-0.1-0.7-0.2-1.5-0.3-2.3c-0.2-0.1-0.1,0.6,0,1.2
										c-0.2-0.8-0.4-2.8-0.6-2.3c0,1.2,0.3,1.9,0,1.4c-0.1-2.2-0.2,0.4-0.5-1c-0.2,0.4,0,1.8,0.2,2.6c-0.3-1.7-0.8-3-1.1-3.5
										c0.2,0.4,0.5,0.9,0.7,1.3l-0.2-2c0.4,0.9,0.5,0.7,0.7,0.4L280.2,216.4z"/>
									<path class="st31" d="M281.6,220.6c0,0.1,0,0.2,0.1,0.4C281.6,221,281.6,220.9,281.6,220.6z"/>
									<polygon class="st31" points="280.3,220.8 280.4,221.2 280.5,221.7 									"/>
									<path class="st31" d="M281.7,222c0,0.1-0.1-0.6,0-0.7l0.1,0.9L281.7,222z"/>
									<polygon class="st31" points="281.9,220.8 282,219.6 282,220.5 									"/>
									<path class="st31" d="M286.2,220.2c-0.3,0.6,0-0.7,0.2-1.6C286.6,218.3,286.1,219.7,286.2,220.2z"/>
									<path class="st31" d="M288.4,222.5c-0.4,0.8-0.2-0.5-0.3-0.5C288.4,221.4,288.4,221.8,288.4,222.5z"/>
									<path class="st31" d="M288,227.2c0.1-0.4,0.1-0.7,0.3-0.8l0.6-2.3C289.3,223.4,288.4,226.2,288,227.2z"/>
									<path class="st31" d="M289,227.9l0.1-0.9l0.1,0c0.3-0.9,0.4-1.4,0.6-2.1C289.8,225.3,289.6,226.3,289,227.9z"/>
									<path class="st31" d="M289.8,224.3c0,0,0,0.1,0,0.2C289.7,224.7,289.6,225.1,289.8,224.3z"/>
									<path class="st31" d="M289.9,224.5c0,0.1,0,0.2-0.1,0.3C289.9,224.7,289.9,224.6,289.9,224.5
										C289.9,224.3,290,224.1,289.9,224.5z"/>
									<path class="st31" d="M289.6,226.8l0.2,0.4l-0.3,0.4C290,226.2,289.1,228.3,289.6,226.8z"/>
									<path class="st31" d="M291.7,226.3l0.6-1.3c0.3-0.2-0.6,2.8,0.4,0.7c-0.4,0.8-0.5,1.6-0.9,1.9
										C292.2,226.3,292,226,291.7,226.3z"/>
									<path class="st31" d="M293.3,224.6c0.1-0.4,0.3-0.7,0.5-1c0.1-0.1,0,0.5-0.3,1.1C294.2,222.8,292.9,225.7,293.3,224.6z"/>
									<path class="st31" d="M294.2,225.1c0-0.1-0.1-0.2,0.2-0.5c0.2,0.2-0.6,1.6-0.9,2.6C293,227.9,293.8,225.8,294.2,225.1z"/>
									<path class="st31" d="M300.4,216.2c-0.6,1.1-0.7,0.9-0.5,0.5C299.8,216.9,300.1,216.6,300.4,216.2z"/>
									<polygon class="st31" points="295.8,225.5 295.7,225.8 296.4,224 									"/>
									<polygon class="st31" points="296.4,227 296,228.1 295.9,227.8 									"/>
									<path class="st31" d="M296.8,226.8l0.1,0.2l-0.3,0.4C296.4,227.7,296.8,226.9,296.8,226.8z"/>
									<path class="st31" d="M297.2,227.3c0-0.1-0.1,0.1-0.2,0.2l0.2-0.8L297.2,227.3z"/>
									<path class="st31" d="M304.2,222.3c0.7-1.1,0.4-0.3,0.6-0.5C304.6,222.1,303.6,223.4,304.2,222.3z"/>
								</g>
							</g>
						</g>
					</g>
				</g>
			</g>
			<path class="st0" d="M153.5,150.6c0,0-3.7,14.8-2.6,16.5c1.1,1.7,1.9-0.5,1.9,1.6c0,2.1,0.1,6.6,1.7,5.9c1.6-0.7,1.2-2,1.6-0.7
				c0.4,1.2,1.7,6,3.8,4.9c2.1-1,2.9-3.6,3.2-3.1s2.5,4.6,3.9,2.7c1.5-2,4.4-21.5,3-27.8c-1.4-6.3-4.2-11.8-7.5-8.5
				S153.5,150.6,153.5,150.6z"/>
			<path class="st0" d="M151.5,123.6c0,0-7.6,7.2-22.9,9c0,0-1.5,6.7,3.5,13.6c5.3,7.4,17.6,9.8,35.6,5.8c0,0,0.4,6.8-0.1,18.1
				c-0.1,3.2-0.3,6.7-0.6,10.5c-1,12.2-2.7,21.4-1.5,28.9c0.5,3.3,1.5,6.2,3.4,8.9c0,0-0.9,20.6,1.8,19.1c0,0,1.2,14,1.8,15.1
				c0.6,1.2,1.6,3.2,0.7,8c-0.9,4.9-1.3,8.9,0,10.6l24.7,0c1.2,0,2.2-2.5,1.8-6.4c-0.2-1.6,2.8-4.8,3.3-10.1c0,0,3.9-4.7,4.5-11.8
				c0.6-7-0.8-9.5-0.8-9.5s2.5-1.3,1.8-5.9c0,0,3.4,2.5,5.8,2.9c2.4,0.4,1.2-1.6,1.2-1.6s4.4,1.7,8.4,2c3.9,0.3,3.5-0.9,3.5-0.9
				s11.8,0.3,18.3-2.2c6.5-2.5,19.1-4.1,27.9-9.9c0,0,2.7,1.1,5.1-0.5c2.4-1.6,1.7-2.5,1.7-2.5s4.7,0.4,7.5-1.5
				c0,0,3.4,9.9,6.6,12.6s3.9,0.8,3.9,0.8s1.3,5.1,2.3,5.8c1,0.6,1.6-0.3,1.6-0.3s3.8,10.1,6.8,11.6c3,1.6,3.8,0.9,3.8,0.9
				s1,4.3,3.3,6.4c0,0-0.2,1.1,0.5,1.7s-6,11.7-1.8,18.3h27.9c0,0,1.3-2.3,1.5-5.9c0.1-3.5,2.2-6.6,2.9-9.4c0,0,3,0.1,2.8-7.3
				c0,0,1.6-1.1,1.5-6.6c-0.1-5.5-1.5-8.3-3.5-10.2c0,0,3-2.1-2.2-8.3c0,0,1.7,0.2,1.3-2c-0.4-2.2-7.2-15.2-7-19.8
				c0.2-4.5,3-16.9-2-30.3c-5-13.3-20.6-19.8-44.5-15.8c-23.9,4.1-64.4,12.7-77.5,5.5c-13.1-7.2-12-35.4-22.8-41.8
				c-10.9-6.3-13.2-9.6-23.7-6.2C158.5,116.8,151.5,123.6,151.5,123.6z"/>
			<path class="st23" d="M165.3,209.5c0.5,3.3,1.5,6.2,3.4,8.9c0,0-0.9,20.6,1.8,19.1c0,0,1.2,14,1.8,15.1c0.6,1.2,1.6,3.2,0.7,8
				c-0.9,4.9-1.3,8.9,0,10.6"/>
			<path class="st23" d="M167.7,152c0,0,0.4,6.8-0.1,18.1c-0.1,3.2-0.3,6.7-0.6,10.5"/>
			<g>
				<defs>
					<path id="SVGID_00000148642681020696093170000006784493491541452944_" d="M167.7,165.7c0.2-8.7,0-13.7,0-13.7s6.5-1.7,9.7-4.7
						C180.5,144.4,182.5,160.9,167.7,165.7z"/>
				</defs>
				<clipPath id="SVGID_00000063609465489566062560000011515343642595299775_">
					<use xlink:href="#SVGID_00000148642681020696093170000006784493491541452944_"  style="overflow:visible;"/>
				</clipPath>
				<g style="opacity:0.87;clip-path:url(#SVGID_00000063609465489566062560000011515343642595299775_);">
					<g>
						<g>
							<g>
								<g>
									<path class="st33" d="M172.8,149.7c0,0.1,0.1,0.2,0.1,0.2C172.9,149.9,172.9,149.8,172.8,149.7z"/>
									<path class="st33" d="M176.1,147.6C176.1,147.6,176.1,147.6,176.1,147.6L176.1,147.6L176.1,147.6z"/>
									<path class="st33" d="M176,147.6l-0.2-0.2C175.9,147.4,175.9,147.5,176,147.6z"/>
									<path class="st33" d="M173.8,151.7c0,0.1,0.1,0.2,0.1,0.4L173.8,151.7z"/>
									<path class="st33" d="M175,152.6c0,0,0.1,0.1,0.1,0.1C175,152.7,175,152.6,175,152.6z"/>
									<path class="st33" d="M169.6,150.5c0,0,0-0.1,0-0.1C169.5,150.4,169.5,150.5,169.6,150.5z"/>
									<path class="st33" d="M169.5,151.1C169.5,151.1,169.5,151.1,169.5,151.1L169.5,151.1C169.6,151.3,169.5,151.2,169.5,151.1z
										"/>
									<path class="st33" d="M169.8,151.5L169.8,151.5C169.8,151.5,169.8,151.5,169.8,151.5z"/>
									<path class="st33" d="M169.2,155.9l0.1,0.3C169.3,156,169.2,155.9,169.2,155.9z"/>
									<path class="st33" d="M169.4,150.1c0,0.1,0,0.2,0.1,0.3C169.5,150.3,169.5,150.2,169.4,150.1z"/>
									<path class="st33" d="M172.7,149.5c0,0.1,0.1,0.1,0.1,0.1C172.8,149.6,172.7,149.6,172.7,149.5z"/>
									<path class="st33" d="M173.5,151.8L173.5,151.8C173.6,151.8,173.6,151.8,173.5,151.8z"/>
									<path class="st33" d="M176.9,146.3c0-0.1,0-0.1,0-0.2C176.7,146.2,176.8,146.3,176.9,146.3z"/>
									<path class="st33" d="M170.7,150.8c0.5,0.9-0.1,0.1,0.3,1c0-0.2-0.1-0.4,0.2,0.1c0.2,0.5-0.2,0,0.2,0.8l0-0.3
										c0.3,0.3,0.5,1,0.5,0.9c-0.4-1.1,0.5,0.3,0.5,0l0,0.1l0.4,0.4c0,0,0,0,0,0.1c0-0.1-0.1-0.1-0.1-0.2
										c0.3,0.5,0.7,0.7,0.7,0.6c-0.3-0.6,0.3-0.4,0.1-0.9c0,0.2,0,0.2-0.2,0.1l-0.4-0.7c0.1-0.1,0.4,0.6,0.3,0.1
										c-0.6-0.9-0.2,0.1-0.3,0c-0.1-0.2-0.2-0.4-0.2-0.6c-0.2,0.1-0.5-0.2-0.1,0.8c-0.2-0.2-0.4-0.6-0.4-0.7
										c0.2,0.6-0.4-0.5-0.2,0.1c-0.4-0.9,0-0.6-0.2-1.1c0.5,0.6,0.4-0.2,0.4-0.4c0.4,0.6,0.6,1.2,0.9,1.5c0.4,0.3,0-0.4-0.2-0.8
										c0.3,0.1,0.7,1,0.9,0.9l0.2,0.5c0.7,0.8-0.1-0.4,0.1-0.3c-0.2-0.2-0.3-0.4-0.4-0.3c-0.2-0.3-0.2-0.5-0.2-0.5l0,0
										c-0.2-0.4-0.5-0.9-0.3-0.8c0.3,0.6,0.3,0.3,0.5,0.5l0,0.1c0-0.2,0.1-0.2,0.1-0.3l0.1,0.1c-0.1-0.2-0.5-0.9-0.3-0.8
										c0.2,0.3,0.6,1,0.6,0.8c0.3,0.4,0.2,0.5,0,0.4c0.2,0.1,0.7,0.6,0.6,0.8c0.4,0.5,0-0.3,0.2-0.1c-0.1-0.1-0.2-0.3-0.3-0.5
										c0.5,0.6,0.3-0.1-0.1-0.5l0.2,0.4c-0.4-0.5-0.5-0.9-0.8-1.2c0.7,0.8,0-0.6,0.5,0l-0.4-0.4c0.4,0.1-0.2-1-0.1-1.3
										c0.1,0.3,0.8,1.1,0.5,1c0.3,0,0.8,0.8,1.2,1.1c0.4,0.2-0.6-0.8-0.8-1.1l0,0.2c-0.7-1.1,0.6-0.1,0.2-0.9
										c0.2,0.2,0.1,0.2,0.1,0.3c0.5,0.4,0-0.2-0.1-0.4c0.2,0,0.5,0.1,1,0.7c0.2,0-0.3-0.3-0.5-0.6l0.1,0.1l-0.5-0.7
										c0.3,0.1,0.7,0.3,1.2,0.8c0.1-0.3-1.2-1.3-1.3-1.7c0.4,0.2,0.4,0.4,0.6,0.7l0.1-0.2c0.6,0.7,0.2,0.5,0.9,1.2
										c-0.7-0.8-0.1-0.4-0.4-1l-0.1-0.1c-0.5-0.5,0-0.4,0-0.5c0.3,0.3,0.2,0.4,0.3,0.6c0.3,0.1,0.3-0.3-0.3-1
										c0.2,0,0.5,0.2,0.8,0.5c0.3-0.1-0.9-0.9-0.6-0.9l0.5,0.5c0.9,0.4-0.4-1,0.5-0.6l-0.7-0.5c0.3,0.2,0.5,0.2,0.8,0.4l0.2,0.3
										c0.6,0.4-0.5-0.5,0-0.3c-0.2-0.2-0.7-0.4-1-0.6c0.1,0.7-1.2,0.3-0.8,1.2c0.1,0.1,0.2,0.1,0.3,0.2c-0.2-0.1-0.1,0.1-0.4-0.2
										l0-0.1c0.1,0.2-0.8-0.4-0.8-0.3c0.4,0.4-0.4,0,0.4,0.7l-0.5-0.4c0.2,0.3,0.6,0.6,0.7,0.8c-0.1,0-0.4-0.3-0.5-0.5
										c-0.5,0-0.7,0.3-0.7,0.8l-0.3-0.4c-0.2-0.1,0.3,0.8-0.4-0.1c0.2,0.5-0.5,0,0.3,1c-0.9-0.8-0.6-0.2-0.7,0.1
										c0.7,0.8,0,0.4,0.3,0.8c-0.5-0.6-0.4-0.8-0.7-1.2c0.6,1.2-1-0.4,0.1,1.4c-0.1-0.1-0.1-0.1-0.2-0.2c0,0-0.3-0.2-0.4-0.3
										c0.2,0.3,0.4,0.4,0.4,0.6c-0.1,0-0.4-0.5-0.6-0.7c0.1,0.5,0,0.8,0.5,1.5c-0.2-0.2-0.5-0.5-0.5-0.7c0.1,0.7-0.3,0-0.3,0.5
										c0.1-0.1-0.4-0.8-0.1-0.6c-0.7-1-0.2,0.4-0.7-0.1l0.3,0.7c0,0.2-0.4-0.5-0.5-0.7c-0.4-0.3-0.3,0.2-0.4,0.2
										c-0.1-0.1-0.1-0.2-0.1-0.2l-0.2,0.1c0.1,0.2,0.2,0.6,0.4,1C170.5,150.8,170.4,150.6,170.7,150.8z"/>
									<path class="st33" d="M170.7,151.3L170.7,151.3L170.7,151.3C170.7,151.3,170.7,151.3,170.7,151.3z"/>
									<path class="st33" d="M174.4,152.9c-0.1-0.1-0.2-0.2-0.2-0.2C174.3,152.8,174.3,152.9,174.4,152.9z"/>
									<path class="st33" d="M169,153.4c0.4,1.1,0.1-0.2,0.3,0c0,0.2,0.2,0.8,0.3,1.2c-0.3-1.5,0.3,0.2,0.4-0.2
										c0.2,0.5,0.1,0.6,0.2,1.1c0-0.4,0.2-0.7-0.1-1.5c0.2-0.1,0.5,0.1,0.6-0.1c0,0.4,0.3,0.8,0.4,1.5c-0.2-1-0.2-2.2-0.5-3.4
										c0.4,0.8,0.5,0.9,0.8,1.7c0.5,0.4-0.3-0.8,0.1-0.7l-0.2-0.1c0-0.3-0.4-1.1-0.6-1.7l-0.2,0.2c-0.3-0.6-0.1-0.6-0.1-0.7
										c-0.3-0.7-0.4-0.4-0.6-1c0.2,0.5,0,0.4,0.1,0.6l-0.1-0.3c-0.2-0.3,0,0.5-0.1,0.6c0-0.1-0.1-0.2-0.1-0.2
										c0.1,0.4,0.3,0.8,0.2,1l0-0.1c0.2,0.8,0.1,1.4,0.6,2.1l-0.4-0.1c-0.3-0.8-0.7-2.1-0.6-2.3l-0.1-0.4
										c-0.3-0.4-0.1,0.8,0.3,1.4c0.6,2.1-0.4,0.2-0.3,1.2c-0.2-0.6-0.1-0.8-0.2-1.2c0-0.1,0.1-0.1,0.2,0.3
										c0.1-0.4-0.7-1.7-0.3-1.6c0.2,0.2,0.2,0.9,0.4,0.9l-0.4-1.6c-0.1,0.1-0.1,0.4-0.1,0.6c-0.2,1.2-0.9,0.4-0.9,0.4
										c-0.7,0.4-1.6,0.7-2.3,0.9c-0.3,0.2-0.3,0.2-0.5,1.8c0.1,0.3,0.2,0.2,0.2,0.7c0-0.6,0.1-0.9,0.3-0.9c0,0.6-0.1,0.3-0.1,0.4
										l0,0c0,0.3,0,0.5-0.1,0.5c0.2,0.9,0.6,0.7,0.7-0.5c0.2,0.6,0,0.9-0.1,1.4c0.6,0.4,1,0.3,1.6,0.2c-0.2-1,0-0.7-0.1-1.4
										l0.1,0.4c-0.1-0.2-0.1-0.9-0.3-1.1c0.4,0.7,0.1-1.4,0.2-1.9l0.1,0.5c0.1-0.1,0.2-0.1,0.2-0.5c0.5,0.9-0.2,0.2,0.2,1.5
										l0-0.2c0.1,0.5,0.2,1.4,0.2,1.8c0.1-0.9,0.5,0.2,0.6-0.5c0.1,0.6,0,1.1-0.1,1.2c0.1,0,0.2-0.4,0.3,0.1l-0.2-0.7
										c0.2-0.1,0.2,0.7,0.3,1.1C169.8,156,168.8,153.9,169,153.4z"/>
									<path class="st33" d="M172.9,152.1c-0.1,0-0.1,0-0.1,0.1C172.9,152.2,172.9,152.2,172.9,152.1z"/>
									<path class="st33" d="M172.9,153.8c0,0.1,0.1,0.2,0.1,0.2C173,153.9,172.9,153.9,172.9,153.8z"/>
									<path class="st33" d="M173.3,154.7c-0.2-0.3-0.1-0.3-0.3-0.7C173.1,154.2,172.9,154.3,173.3,154.7z"/>
									<path class="st33" d="M182.7,143.9c-0.2-0.1-0.3-0.3-0.5-0.4l0.2,0.3L182.7,143.9z"/>
									<path class="st33" d="M181.9,143.8l-0.3,0l0.9,0.5C182.4,144.2,181.8,144,181.9,143.8z"/>
									<path class="st33" d="M181.1,144l-0.2-0.1C181,143.9,181.1,143.9,181.1,144z"/>
									<path class="st33" d="M181.5,144.2l0.6,0.4l-0.4-0.4L181.5,144.2c-0.2-0.2-0.3-0.2-0.4-0.2l0.4,0.3
										C181.5,144.2,181.4,144.1,181.5,144.2z"/>
									<path class="st33" d="M181.5,144.3c0.1,0,0.1,0.1,0.2,0.1C181.6,144.4,181.5,144.4,181.5,144.3z"/>
									<path class="st33" d="M180.1,144.1c0.3,0.1,0.6,0.4,0.8,0.5c0.3,0-0.6-0.5-0.3-0.5c0.4,0.5,0.4,0.1,0.8,0.3
										C180.8,144.1,180.4,143.9,180.1,144.1l0.5,0.1C180.5,144.3,180.3,144.1,180.1,144.1z"/>
									<path class="st33" d="M180.7,145.3l-0.5-0.4c0.3,0.1,0.4,0,1,0.3c-0.1-0.1-0.3-0.3-0.5-0.4c0.3,0.1,0.6,0.2,0.2-0.1
										c-0.6,0-0.7-0.1-1,0c-0.1-0.1-0.1-0.1-0.1-0.1l-0.4,0C180.2,145,180.1,145.2,180.7,145.3z"/>
									<path class="st33" d="M180.1,145.3c0-0.1-0.5-0.5-0.9-0.7l0.3,0.5C179.5,145,179.5,144.9,180.1,145.3z"/>
									<path class="st33" d="M180,145.5c-0.3-0.1-1.1-0.5-0.5,0C179.5,145.2,180.3,145.8,180,145.5z"/>
									<path class="st33" d="M178.9,145.9l0.5,0c0.8,0.4,0.2,0.3,0.5,0.6c0.3-0.1,0-0.2-0.4-0.6c0.1,0-0.3-0.4-0.4-0.6
										C179.5,146,177.6,144.8,178.9,145.9z"/>
									<polygon class="st33" points="180,146 179.7,145.7 179.8,146 									"/>
									<path class="st33" d="M177.7,145.9c-1-0.5,0.3,0.6-0.1,0.5c0-0.1-0.1-0.1-0.2-0.2l0,0.2l-0.2-0.1c0.5,0.4,0.6,0.6,1,1
										c0.6,0.3-0.6-0.5,0.1-0.2c0.2,0.2,0.6,0.5,0.7,0.6c-0.2-0.3-0.5-0.5-0.8-0.8c0-0.1,0.3,0.1,0.5,0.3c-0.2-0.3-1-0.9-0.7-0.9
										c0.5,0.2,0.7,0.6,0.6,0.3c-0.9-0.5,0.2-0.1-0.3-0.5c0.2,0,0.8,0.3,1.1,0.5c-0.7-0.4-1.2-0.9-1.3-1.1l0.4,0.6l-0.8-0.5
										C178.1,145.8,177.9,145.9,177.7,145.9L177.7,145.9z"/>
									<path class="st33" d="M179,147.6c0,0,0.1,0.1,0.1,0.1C179.1,147.8,179.1,147.7,179,147.6z"/>
									<polygon class="st33" points="179.7,146.6 179.8,146.8 180.1,146.9 									"/>
									<path class="st33" d="M179.5,148.1c0,0-0.2-0.2-0.2-0.2l0.3,0.3L179.5,148.1z"/>
									<polygon class="st33" points="178.9,147.9 178.4,147.6 178.7,147.9 									"/>
									<path class="st33" d="M176.3,150c0.3,0.2-0.2-0.3-0.5-0.6C175.6,149.4,176.2,149.8,176.3,150z"/>
									<path class="st33" d="M175.2,152.1c0.4,0.3,0.1-0.3,0.2-0.4C175.1,151.5,175.1,151.7,175.2,152.1z"/>
									<path class="st33" d="M175.7,154.4c-0.1-0.2-0.1-0.3-0.2-0.3l-0.6-1C174.6,152.8,175.4,154,175.7,154.4z"/>
									<path class="st33" d="M174.8,155.1l-0.1-0.5l-0.1,0c-0.2-0.4-0.3-0.6-0.4-1C174.2,154,174.4,154.5,174.8,155.1z"/>
									<path class="st33" d="M174.2,153.5C174.2,153.5,174.2,153.5,174.2,153.5C174.3,153.7,174.4,153.8,174.2,153.5z"/>
									<path class="st33" d="M174.2,153.6c0,0,0,0.1,0,0.1C174.2,153.7,174.2,153.6,174.2,153.6
										C174.2,153.5,174.1,153.4,174.2,153.6z"/>
									<path class="st33" d="M174.4,154.7l-0.2,0.3l0.2,0.1C174.1,154.5,174.7,155.4,174.4,154.7z"/>
									<path class="st33" d="M172.6,155l-0.3-0.6c-0.2-0.1,0.2,1.4-0.4,0.4c0.3,0.3,0.2,0.8,0.5,0.8
										C172.2,155.1,172.4,154.9,172.6,155z"/>
									<path class="st33" d="M171.5,154.4c-0.1-0.2-0.2-0.3-0.3-0.5c-0.1,0,0,0.3,0.1,0.5C171.1,153.6,171.7,155,171.5,154.4z"/>
									<path class="st33" d="M170.8,154.8c0,0,0.1-0.1,0-0.3c-0.1,0.1,0.2,0.8,0.3,1.3C171.3,156.1,171,155.1,170.8,154.8z"/>
									<path class="st33" d="M168.1,150.4c0.2,0.6,0.3,0.5,0.2,0.3C168.3,150.8,168.2,150.6,168.1,150.4z"/>
									<polygon class="st33" points="169.4,155.1 169.5,155.2 169.3,154.3 									"/>
									<polygon class="st33" points="168.6,155.8 168.6,156.4 168.7,156.3 									"/>
									<path class="st33" d="M168.4,155.7l-0.2,0.1l0.1,0.2C168.4,156.1,168.3,155.7,168.4,155.7z"/>
									<path class="st33" d="M167.9,155.9c0-0.1,0,0,0.1,0.1l0.1-0.4L167.9,155.9z"/>
									<path class="st33" d="M165.2,152.5c0-0.6,0-0.2,0-0.4C165.2,152.3,165.1,153,165.2,152.5z"/>
								</g>
							</g>
						</g>
					</g>
				</g>
			</g>
			<path class="st23" d="M208.3,227.6c0,0,2,1.2,0.8-4.1c0,0,3.6-0.3,2.3-10.4c0,0,5.5-2.5,4.1-11.5c-0.8-5-1.6-4.1-1.6-4.1"/>
			<path class="st23" d="M180,271.3c0,0-0.9-5.5,2.2-11.1"/>
			<path class="st23" d="M188.1,271.3c0,0-0.2-5.6,2.4-10.4"/>
			<path class="st23" d="M168.7,271.3c0,0-1.9-5.3,0.6-11.1"/>
			<path class="st23" d="M287.5,213.4c0,0-4.3-2.7-4.2-12.2c0.1-9.5-0.5-9.9-1-10.2"/>
			<path class="st23" d="M295.5,271.3c0,0-1.3-8,2.6-12.2"/>
			<path class="st23" d="M302.1,271.3c0,0,1-7.3,4.1-11.2"/>
			<path class="st23" d="M320.3,271.2c0,0-0.8-6,2.1-11"/>
			<path class="st23" d="M327.1,271.2c0,0,1.5-7.1,4.1-10.2"/>
			<path class="st0" d="M308.6,157.4c0,0,5.1-4.4,4.8-5.6c0,0,6.5,3.3,6.5,4.4s-4.3,8.5-4.3,8.5S309.1,162.6,308.6,157.4z"/>
			<path class="st0" d="M301.7,139.8c0,0-4.3,4.4-1.8,7.7c2.4,3.3,8.2,3.1,8.7,5.1s-0.2,5.5,3.7,6.7c3.9,1.2,5.9-2.1,6.8-1
				c1,1.1,1.8,3.4,4.9,3.4s4.4-2.7,4.4-2.7s1.6,1.8,4.6,1.2s3.3-4.8,3.3-4.8s3.4,0.6,6.2-1.1c2.8-1.7,2.2-6.1,0-7.1
				c0,0,4.4-4.8-1.7-6.6c0,0,2.4-6-1.1-10c-3.5-4-7.9-1.6-7.9-1.6s2.2-4.4-2.1-6.1c-4.3-1.7-8.8,3.8-8.8,3.8s-0.6-5.9-5.6-4.8
				c-5,1.1-5,7-5,7s-5.4-3.8-7.6,4C302.7,133.1,298,135,301.7,139.8z"/>
			<path class="st23" d="M308.6,152.6c0.5,2.1-0.2,5.5,3.7,6.7c3.9,1.2,5.9-2.1,6.8-1c1,1.1,1.8,3.4,4.9,3.4s4.4-2.7,4.4-2.7"/>
			<path class="st0" d="M149.9,114.7c0,0-3.8,1.3-3.9-3.3s7.4-7.3,7.4-7.3s1.5-4.4,7.1-7.3c5.6-2.9,8.4-0.9,8,2c0,0,5.1-4.3,8.7-3.4
				c3.5,0.9,1.6,4.2,1.6,4.2s2.7-3.3,5.6-2.4c2.9,0.9,1.3,5.9,1.3,5.9s4.1-3.4,7.8-1.8c3.7,1.6,1.1,5.5,1.1,5.5s5.1-2.9,5.6-1.2
				c0.6,1.8-1.3,2.6-1.3,2.6s9.5,4.8,8,11c0,0,2.7,7,1.5,7.4c-1.2,0.5,0.9,4.6,3.2,10.4s3.3,16.2,2.1,15.6c-0.9-0.4,0.5,4,0.8,8.3
				c0.1,1.5,0.1,3.1-0.3,4.3c-1.3,4.6-3,10.1-5.3,7.8c0,0-2.7,5.7-6.1,6c-3.4,0.2-3.5-2.1-3.5-2.1s-4.6,0.2-4.8-1.3
				c-0.1-1.6-3,1.1-4.5-0.9c-1.5-2-4.3,1.8-4.6-5.4c0,0-4,8.7-4.6-7.9c0,0-3.3,0-1.7-8.4c1.6-8.4,3.5-24.5,3.5-24.5s-5.6,2.7-6.1-5
				c0,0-3.7,5.6-7.2,3.7c-3.5-2-4.5-5.1-4.5-5.1s-2.4,4-5,2.9c-2.6-1.1-3.1-4.3-3.9-2.8c-0.7,1.4-2.6,2-4.1,1
				C150.4,122,149.3,119.5,149.9,114.7z"/>
			<path class="st23" d="M182.7,128.4c0,0,2.5-0.7,2.6-4.6"/>
			<path class="st23" d="M167,178.9c0,0,0.1,2.8,3,2.9c2.9,0.1,4.9-2.9,4.9-2.9s0.9,2.2,3.4,2.2c2.5,0,3.2-4.3,4.2-2.9
				c1,1.3,3.5,2.8,5.2-2.6"/>
			<path class="st22" d="M127.8,133.7c0-0.9,0.7-1.7,1.6-1.8c1.8-0.4,4.9-0.9,6.5-0.7c2.5,0.3,1.7,8.9-3.6,10.3
				C128,142.7,127.6,136.8,127.8,133.7z"/>
			<path class="st23" d="M156.6,153.8c0,0,7.5-1.7,9.7-10.3"/>
			<path class="st23" d="M164.1,143.5c0,0,2.4-0.6,5,0.7"/>
			<path class="st23" d="M214.6,160.8c0.1,1.5,0.1,3.1-0.3,4.3c-1.3,4.6-3,10.1-5.3,7.8c0,0-2.7,5.7-6.1,6c-3.4,0.2-3.5-2.1-3.5-2.1
				s-4.6,0.2-4.8-1.3c-0.1-1.6-3,1.1-4.5-0.9c-1.5-2-4.3,1.8-4.6-5.4c0,0-4,8.7-4.6-7.9c0,0-3.3,0-1.7-8.4
				c1.6-8.4,3.5-24.5,3.5-24.5s-5.6,2.7-6.1-5c0,0-3.7,5.6-7.2,3.7c-3.5-2-4.5-5.1-4.5-5.1s-2.4,4-5,2.9c-2.6-1.1-3.1-4.3-3.9-2.8
				c-0.7,1.4-2.6,2-4.1,1"/>
			<path class="st23" d="M278.3,217.4c2.4-1.6,1.7-2.5,1.7-2.5s4.7,0.4,7.5-1.5c0,0,3.4,9.9,6.6,12.6s3.9,0.8,3.9,0.8
				s1.3,5.1,2.3,5.8c1,0.6,1.6-0.3,1.6-0.3s3.8,10.1,6.8,11.6c3,1.6,3.8,0.9,3.8,0.9s1,4.3,3.3,6.4c0,0-0.2,1.1,0.5,1.7
				s-6,11.7-1.8,18.3"/>
			<g>
				<defs>
					<path id="SVGID_00000095335232625429279750000000225112207972254129_" d="M272.3,218.4c-8.7,5.4-20.7,6.9-27,9.4
						c-6.5,2.5-18.3,2.2-18.3,2.2s0.5,1.2-3.5,0.9c-3.9-0.3-8.4-2-8.4-2s1.1,2-1.2,1.6c-2.2-0.4-5.3-2.6-5.7-2.9
						c0.3,0.1,1.8,0.8,0.8-4.2c0,0,3.6-0.3,2.3-10.4c0,0,3.5-1.6,4.2-6.7c3.4,1.6,16.1,7,27.5,5.8C254.3,211,270,212.6,272.3,218.4z
						"/>
				</defs>
				<clipPath id="SVGID_00000049925048447771794610000004393831306480041130_">
					<use xlink:href="#SVGID_00000095335232625429279750000000225112207972254129_"  style="overflow:visible;"/>
				</clipPath>
				<g style="opacity:0.7;clip-path:url(#SVGID_00000049925048447771794610000004393831306480041130_);">
					<g>
						<g>
							<g>
								<g>
									<path class="st31" d="M206.5,220.5c0.2,0,0.4-0.1,0.6-0.1C207.1,220.5,206.9,220.5,206.5,220.5z"/>
									<path class="st31" d="M209.2,226.6C209.2,226.6,209.2,226.6,209.2,226.6c-0.1,0.1-0.2,0.1-0.2,0.1L209.2,226.6z"/>
									<path class="st31" d="M209,226.7l-0.7,0.3C208.5,226.8,208.8,226.7,209,226.7z"/>
									<path class="st31" d="M211.8,219.8c0.2-0.1,0.5-0.1,1-0.2L211.8,219.8z"/>
									<path class="st31" d="M215.2,220.2c0.1,0,0.3,0,0.4,0C215.4,220.2,215.3,220.2,215.2,220.2z"/>
									<path class="st31" d="M204.4,215.2c-0.1,0-0.2,0-0.3,0C204.2,215.2,204.3,215.2,204.4,215.2z"/>
									<path class="st31" d="M205.8,214.9C205.7,214.9,205.7,214.9,205.8,214.9l0.2-0.1C206.1,214.9,205.9,214.9,205.8,214.9z"/>
									<path class="st31" d="M206.8,215.1L206.8,215.1C206.9,215.1,206.9,215.1,206.8,215.1z"/>
									<path class="st31" d="M216.4,213.2l0.8,0C216.8,213.3,216.6,213.2,216.4,213.2z"/>
									<path class="st31" d="M203.4,215.3c0.2,0,0.4,0,0.7,0C203.9,215.3,203.8,215.3,203.4,215.3z"/>
									<path class="st31" d="M206.1,220.5c0.2,0,0.3,0,0.4,0C206.3,220.5,206.2,220.6,206.1,220.5z"/>
									<path class="st31" d="M211.7,219.5L211.7,219.5C211.6,219.5,211.6,219.5,211.7,219.5z"/>
									<path class="st31" d="M210.1,229.3c0,0.1,0,0.2-0.1,0.3C209.7,229.6,209.8,229.5,210.1,229.3z"/>
									<path class="st31" d="M206.1,216.7c2.4,0.1,0.1-0.2,2.4-0.1c-0.5,0.1-0.9,0.2,0.4,0.2c1.3,0-0.1-0.2,1.9-0.2l-0.8,0.1
										c1,0.1,2.6,0,2.4,0.1c-2.8,0,1.1,0.5,0.6,0.6l0.3,0l1.3,0.2c0.1,0,0.1,0,0.1,0c-0.2,0-0.3,0-0.5,0c1.4,0.1,2.3,0.3,2,0.4
										c-1.6,0-0.5,0.5-1.9,0.6c0.4-0.1,0.4-0.1,0-0.2l-1.9,0c0,0.2,1.7,0,0.6,0.2c-2.6,0,0-0.2-0.3-0.3c-0.6,0-1.1,0.1-1.4,0.2
										c-0.1-0.2-1-0.5,1.6-0.6c-0.6-0.1-1.6-0.1-1.9,0c1.5-0.1-1.5-0.2-0.1-0.3c-2.4,0-1.2,0.3-2.6,0.5c1.9,0.2,0.1,0.5-0.3,0.8
										c1.8,0,3.2-0.2,4.3-0.1c1.2,0.2-0.9,0.2-1.9,0.4c0.6,0.2,2.9,0,3,0.3l1.1-0.2c2.5,0.1-1,0.1-0.5,0.3c-0.6,0-1.3,0-1.2-0.1
										c-0.9,0-1.3,0.1-1.4,0.2l-0.1,0c-1.2,0.1-2.5,0.1-1.9,0.3c1.5-0.1,1.1,0.1,1.8,0.1l0.3-0.1c-0.5,0.1-0.3,0.3-0.5,0.3l0.4,0
										c-0.6,0.1-2.4,0.2-2,0.3c0.7,0,2.7-0.3,2.4-0.1c1.1-0.1,1.2-0.2,0.8-0.3c0.4,0.1,2.2,0.1,2.3,0c1.4,0-0.6,0.2,0.1,0.2
										c-0.4,0-0.9,0-1.3,0.1c1.9-0.1,0.2,0.3-1.1,0.4l1-0.2c-1.5,0.1-2.5,0.3-3.4,0.3c2.4,0-1.2,0.5,0.9,0.5l-1.2,0
										c0.8,0.3-2,0.8-2.5,1.3c0.7-0.2,3.3-0.5,2.4-0.6c0.5,0.3,2.6-0.1,3.9-0.2c1,0.1-2.4,0.4-3.2,0.5l0.5-0.2
										c-3,0.5,0.7,0.6-1.1,1.2c0.8-0.1,0.4-0.1,0.7-0.2c1.6-0.1-0.3,0.2-0.9,0.4c0.3,0.1,1,0.2,2.8-0.2c0.5,0.1-1.1,0.2-1.7,0.4
										l0.4,0l-2.1,0.6c0.6,0.1,1.7,0.1,3.5-0.3c-0.3,0.4-4.2,1-4.8,1.5c1-0.1,1.4-0.4,2.1-0.6l-0.1,0.3c2-0.6,1-0.5,3.4-1.1
										c-2.4,0.8-0.6,0.4-2.1,1.1l-0.2,0c-1.6,0.6-0.4,0.6-0.6,0.8c0.9-0.4,1-0.6,1.3-0.8c0.8-0.1,0.2,0.5-1.8,1.5
										c0.4,0,1.3-0.1,2.1-0.6c0.5,0.2-2.8,1.4-2.1,1.5l1.5-0.7c1.2-0.4,0.7,0,0.3,0.4c-0.4,0.4-0.8,0.9,0.2,0.5l-1.7,1.1
										c0.8-0.4,1.2-0.4,1.9-0.9l0.5-0.5c1.5-0.8-1.3,1-0.2,0.5c-0.5,0.4-1.8,1-2.3,1.3c0.2-0.7-0.4-0.8-0.9-1.1
										c-0.5-0.3-0.9-0.7-0.1-1.5c0.2-0.1,0.5-0.1,0.9-0.3c-0.5,0.1,0-0.3-1.1,0.1l-0.1,0.1c0.4-0.4-2.1,0.2-2.1,0
										c1.3-0.5-0.7-0.3,1.6-0.9l-1.5,0.2c0.8-0.3,2-0.5,2.4-0.7c-0.2-0.1-1.1,0.1-1.7,0.4c-1.1-0.4-0.9-1.2-0.3-1.9l-1.1,0.3
										c-0.6-0.1,1.9-0.8-0.9-0.3c1.1-0.4-0.9-0.7,2-1.1c-2.9,0.1-1.3-0.6-0.9-1c2.5-0.1,0.7-0.4,1.8-0.5c-2,0.1-2,0.4-3.3,0.5
										c1.5-0.3,0.9-0.5,0.6-0.8c-0.3-0.2-0.4-0.4,2.1-0.6c-0.2,0-0.4,0-0.6,0c0-0.1-0.9-0.1-1.1-0.2c0.9-0.1,1.3,0.1,1.6-0.1
										c-0.2-0.1-1.6,0-2.2-0.1c1.1-0.3,1.6-0.7,3.6-0.7c-0.5-0.1-1.7-0.1-2.1,0c1.6-0.4-0.3-0.4,0.7-0.8
										c-0.1,0.1-2.1,0.1-1.3,0.3c-2.9-0.2,0.5-0.6-1-0.9l1.8-0.1c0.3-0.2-1.4-0.2-2.1-0.1c-1.1-0.4,0-0.5,0-0.8
										c-0.2,0-0.6,0-0.5,0l0-0.4c0.5,0,1.4-0.1,2.5,0C206.1,216.5,205.4,216.5,206.1,216.7z"/>
									<path class="st31" d="M207.1,216.5l0.2,0l0,0C207.2,216.5,207.2,216.5,207.1,216.5z"/>
									<path class="st31" d="M215,219.6c-0.5,0-0.7,0-0.8-0.1C214.5,219.5,214.8,219.5,215,219.6z"/>
									<path class="st31" d="M210.6,213.4c2.8,0.2-0.5,0.2,0.3,0.4c0.4-0.1,2,0,2.9,0.1c-3.6,0,0.7,0.2-0.1,0.5
										c1.2,0.1,1.4-0.1,2.7,0c-0.9,0.1-1.4,0.4-3.4,0.3c0,0.3,0.7,0.5,0.3,0.7c0.8-0.2,2,0.1,3.7,0c-2.3,0.1-5.2,0.4-8,0.6
										c2.2,0.1,2.4,0.2,4.4,0.2c1.5,0.4-2,0-1.4,0.4l-0.4-0.2c-0.7,0.1-2.8,0.1-4.2,0.1l0.3-0.4c-1.5-0.1-1.3,0.2-1.7,0.3
										c-1.8,0.1-1.3-0.3-2.7-0.3c1.2,0,0.8-0.2,1.3-0.3l-0.8-0.1c-0.8-0.2,1.2-0.3,1.2-0.4c-0.2,0-0.4,0-0.5,0c0.9,0,2,0,2.4-0.1
										l-0.1,0.1c1.9-0.1,3.2-0.3,5.3,0l-0.6-0.4c-2.1-0.1-5.4-0.2-5.6,0.1l-0.9,0c-1.2-0.2,1.7-0.4,3.5-0.2
										c5.1,0.1,0.2-0.6,2.4-0.8c-1.4-0.1-2,0-2.9,0c-0.2,0.1-0.2,0.1,1,0.2c-0.8,0.3-4.4-0.3-3.9,0.1c0.7,0.3,2.2-0.1,2.4,0.2
										l-3.9,0c0.1-0.2,0.8-0.3,1.2-0.5c2.6-0.7,0.5-1.5,0.5-1.5l1.5-3.7c0.6-0.4,0.4-0.5,4.2-0.4c0.8,0.1,0.4,0.3,1.7,0.3
										c-1.4,0-2.2,0.1-2.1,0.3c1.4,0.1,0.7-0.1,1-0.1l0.1,0c0.7,0,1.2,0,1.2,0c2.1,0.4,1.6,0.8-1,0.8c1.4,0.3,2.2,0,3.3,0
										c1,0.7,0.8,1.2,0.9,1.8c-2.5-0.1-1.6,0-3.2-0.1l0.9,0.1c-0.4-0.1-2.1-0.1-2.6-0.2c1.9,0.5-3.3,0.2-4.4,0.4l1.3,0.1
										c-0.2,0.2-0.3,0.3-1,0.4c2.4,0.5,0.4-0.3,3.5,0l-0.5,0.1c1.2,0,3.3,0.1,4.2,0c-2.1,0.2,0.8,0.5-0.8,0.8
										c1.4,0,2.5-0.2,2.7-0.3c0.1,0.1-0.9,0.3,0.4,0.4l-1.8-0.1c-0.2,0.2,1.7,0.1,2.8,0.2C217.1,213.8,211.6,213.1,210.6,213.4z"
										/>
									<path class="st31" d="M211.4,218.6c-0.2-0.1-0.1-0.1,0.1-0.2C211.5,218.5,211.5,218.6,211.4,218.6z"/>
									<path class="st31" d="M214.8,217.7c0.3,0,0.5,0,0.6,0C215.3,217.7,215.1,217.7,214.8,217.7z"/>
									<path class="st31" d="M217.3,217.7c-0.8,0-0.8,0-1.8,0C216,217.7,216,217.5,217.3,217.7z"/>
									<path class="st31" d="M219.3,226.6c-0.1,0.3-0.3,1.1-0.4,1.8l0,0.1l0,0l0,0L219.3,226.6L219.3,226.6L219.3,226.6
										L219.3,226.6l-0.1,0.1c0,0.1-0.1,0.1-0.1,0.2c0,0.1,0,0.2-0.1,0.3l0.1-0.1l0,0l0,0l0,0l0,0l0,0l-0.3,1.4l0-0.1l0.1-0.2
										l0.2-1l0.1-0.4c0,0,0-0.1,0-0.1L219.3,226.6l0.1-0.3L219.3,226.6z"/>
									<path class="st31" d="M218.8,227.6c-0.1,0.2-0.2,0.4-0.3,0.6c0.2-0.8,0.5-1.5,0.8-2.3C219.3,226,218.7,227.5,218.8,227.6z"
										/>
									<path class="st31" d="M218,228.8l-0.2,0.6C217.9,229.1,218,228.9,218,228.8z"/>
									<path class="st31" d="M218.4,227.8l0.6-1.6c-0.1,0.4-0.3,0.8-0.4,1.2l-0.2,0.3c-0.2,0.6-0.4,0.8-0.5,1l0.4-1.2
										C218.4,227.7,218.3,228,218.4,227.8z"/>
									<path class="st31" d="M218.3,227.7c0.1-0.2,0.1-0.3,0.2-0.5C218.5,227.4,218.4,227.5,218.3,227.7z"/>
									<path class="st31" d="M216.6,230.5c0.3-0.6,0.7-1.5,1-2.1c0.4-0.6-0.7,1.8-0.2,1.1c0.4-1.4,0.5-0.9,1-1.8
										c-0.7,1.5-1.2,2.5-1.6,2.8l0.5-1C217.1,229.4,216.9,230.1,216.6,230.5z"/>
									<path class="st31" d="M217.1,227.7c-0.3,0.5-0.5,1-0.8,1.4c0.4-0.7,0.6-0.6,1.5-2c-0.1,0.2-0.4,0.9-0.6,1.3
										c0.5-0.7,0.8-1.3,0.3-0.2c-0.8,0.9-0.9,1.2-1.5,1.5c-0.2,0.3-0.1,0.3,0,0.2c-0.2,0.2-0.4,0.4-0.7,0.7
										C216.4,228.9,216.3,228.7,217.1,227.7z"/>
									<path class="st31" d="M216.2,228.6c0,0.2-0.7,1.5-1.4,2.3c0.1-0.4,0.3-0.9,0.4-1.3C215.4,229.7,215.4,230,216.2,228.6z"/>
									<path class="st31" d="M216.1,228.5c-0.5,0.7-1.8,2.1-0.8,0.7C215.2,229.5,216.6,227.4,216.1,228.5z"/>
									<path class="st31" d="M214.2,229c0.3-0.2,0.7-0.4,1-0.6c1.5-1.6,0.4-0.6,1-1.4c0.4-0.2-0.1,0.3-0.8,1.4
										c0.1-0.1-0.5,0.9-0.8,1.4c0.4-0.8-0.3-0.2-0.7,0.2C213.3,230.4,212.9,230.5,214.2,229z"/>
									<polygon class="st31" points="216.1,227.7 215.5,228.4 215.9,227.8 									"/>
									<path class="st31" d="M211.8,229.9c-1.1,0.7-0.9,0.4-0.5-0.1c0.3-0.5,0.8-1,0.3-0.8c-0.1,0.1-0.3,0.2-0.5,0.5l0.1-0.4
										l-0.5,0.3c1.2-0.9,1.6-1.4,2.5-2.2c1.4-0.8-1.5,1.2,0,0.3c0.5-0.4,1.4-1.1,1.8-1.4c-0.6,0.5-1.3,1.1-2,1.6
										c-0.1,0.2,0.6-0.4,1.1-0.7c-0.6,0.6-2.4,2-1.8,1.9c1.1-0.7,1.6-1.4,1.3-0.9c-1.9,1.5,0.5-0.1-0.6,1
										c0.5-0.2,1.6-1.1,2.2-1.8c-1.4,1.3-2.4,2.6-2.6,3.1c0.3-0.5,0.6-0.9,0.9-1.4l-1.7,1.5c0.6-0.9,0.4-0.9,0-0.8L211.8,229.9z"
										/>
									<path class="st31" d="M215.1,226.3c0.1-0.1,0.2-0.2,0.3-0.3C215.5,226,215.3,226.1,215.1,226.3z"/>
									<polygon class="st31" points="215.8,227.1 216.1,226.7 216.6,226.3 									"/>
									<path class="st31" d="M216.4,225.3c0.1,0-0.5,0.4-0.6,0.4l0.8-0.6L216.4,225.3z"/>
									<polygon class="st31" points="215.1,226 214,226.6 214.8,226 									"/>
									<path class="st31" d="M212.8,223.3c0.8,0-0.7,0.2-1.8,0.5C210.7,223.6,212.3,223.5,212.8,223.3z"/>
									<path class="st31" d="M214.5,220.8c1,0.1-0.5,0.3-0.4,0.4C213.3,221.2,213.7,221,214.5,220.8z"/>
									<path class="st31" d="M219.6,219.7c-0.5,0-0.7,0.1-0.9,0l-2.7,0.2C215,219.8,218.4,219.7,219.6,219.7z"/>
									<path class="st31" d="M220,218.7l-1,0.2l-0.1-0.1c-1.1,0-1.6,0.1-2.5,0.1C216.9,218.8,218,218.7,220,218.7z"/>
									<path class="st31" d="M215.9,219.1c0,0,0.1,0,0.2-0.1C216.4,219,216.8,219.1,215.9,219.1z"/>
									<path class="st31" d="M216.1,219c0.1,0,0.2,0,0.3,0C216.2,219,216.1,219,216.1,219C215.8,219,215.6,219,216.1,219z"/>
									<path class="st31" d="M218.6,218.6l0.3-0.3l0.5,0.1C217.8,218.4,220.4,218.5,218.6,218.6z"/>
									<path class="st31" d="M217.2,216.9l-1.6-0.1c-0.4-0.2,3.2-0.3,0.6-0.6c1,0.1,1.8-0.1,2.3,0.2
										C217,216.5,216.8,216.8,217.2,216.9z"/>
									<path class="st31" d="M214.8,216.1c-0.5,0-0.8-0.1-1.3-0.1c-0.2-0.1,0.6-0.1,1.2-0.1C212.7,215.9,216.2,216.1,214.8,216.1z
										"/>
									<path class="st31" d="M215,215.1c0,0.1-0.2,0.1-0.6,0c0.1-0.2,2,0,3.1-0.1C218.4,215.3,215.9,215.3,215,215.1z"/>
									<path class="st31" d="M203.1,212.9c1.4,0.1,1.2,0.3,0.7,0.3C204.1,213.1,203.7,213,203.1,212.9z"/>
									<polygon class="st31" points="214.7,213.6 215,213.7 212.9,213.6 									"/>
									<polygon class="st31" points="215.9,212.5 217.3,212.5 217.1,212.7 									"/>
									<path class="st31" d="M215.6,212.3l0.1-0.2l0.5,0.1C216.7,212.3,215.6,212.2,215.6,212.3z"/>
									<path class="st31" d="M215.9,211.7c-0.1,0,0.1,0,0.3,0.1l-0.9,0.1L215.9,211.7z"/>
									<path class="st31" d="M207.3,208.1c-1.4,0-0.5-0.2-0.8-0.2C206.8,207.9,208.7,208.1,207.3,208.1z"/>
								</g>
							</g>
						</g>
					</g>
				</g>
			</g>
		</g>
	</g>
</g>
</svg>
