<?xml version="1.0" encoding="utf-8"?>
<!-- Generator: Adobe Illustrator 26.0.3, SVG Export Plug-In . SVG Version: 6.00 Build 0)  -->
<svg version="1.1" xmlns="http://www.w3.org/2000/svg" xmlns:xlink="http://www.w3.org/1999/xlink" x="0px" y="0px"
	 viewBox="0 0 503.6 377.7" style="enable-background:new 0 0 503.6 377.7;" xml:space="preserve">
<style type="text/css">
	.st0{fill:#FFF0DD;}
	.st1{fill:#6B5C52;}
	.st2{fill:#B8BBBF;}
	.st3{fill:#F9E9CD;}
	.st4{fill:#FFE6BD;}
	.st5{fill:#F5F5F2;}
	.st6{fill:#637189;}
	.st7{fill:#9E9082;}
	.st8{fill:#938D89;}
	.st9{fill:#FFDBC0;}
	.st10{fill:#6E85BD;}
	.st11{fill:#E8D9D6;}
	.st12{fill:#A7BC79;}
	.st13{fill:#FF8080;}
	.st14{fill:#3D3533;}
	.st15{fill:#A1683D;}
	.st16{fill:#CCE0FF;}
	.st17{fill:#383531;}
	.st18{fill:#757060;}
	.st19{fill:#D29F7E;}
	.st20{opacity:0.88;clip-path:url(#SVGID_00000000926137033537357630000016684998475663637661_);}
	.st21{fill:#322015;}
	.st22{fill:#1B1C1E;}
	.st23{fill:none;stroke:#1B1C1E;stroke-width:1.2604;stroke-linecap:round;stroke-linejoin:round;stroke-miterlimit:10;}
	.st24{opacity:0.84;clip-path:url(#SVGID_00000080180566165823437870000017114250062251462277_);}
	.st25{clip-path:url(#SVGID_00000027571858295950574730000011586163194434847113_);}
	.st26{fill:none;stroke:#1B1C1E;stroke-width:1.2604;stroke-linecap:round;stroke-linejoin:round;}
	.st27{fill:#D1493B;}
	.st28{fill:#FFAE1F;}
	.st29{opacity:0.88;clip-path:url(#SVGID_00000041268846291159207390000015977741349564325020_);}
	.st30{opacity:0.7;clip-path:url(#SVGID_00000181802015610076642230000009459807135532286640_);}
	.st31{fill:#2C2C2D;}
	.st32{opacity:0.87;clip-path:url(#SVGID_00000159445117231813929750000003686351872680258971_);}
	.st33{fill:#080809;}
	.st34{opacity:0.7;clip-path:url(#SVGID_00000161617799254523784170000008932383976405899397_);}
	.st35{fill:#FBAF5E;}
	.st36{opacity:0.62;clip-path:url(#SVGID_00000000208123497333302800000011577746010459240599_);}
	.st37{fill:#3E240C;}
	.st38{fill:#BC763C;}
	.st39{opacity:0.62;clip-path:url(#SVGID_00000140002484098047678480000010387231747373870010_);}
	.st40{opacity:0.62;clip-path:url(#SVGID_00000009570058425186022910000002952821247356570022_);}
	.st41{fill:#967258;}
	.st42{opacity:0.53;clip-path:url(#SVGID_00000040552097344276481700000017855581622955176382_);}
	.st43{opacity:0.73;clip-path:url(#SVGID_00000003824450484435505210000017322385189821282734_);}
	.st44{fill:none;stroke:#1B1C1E;stroke-width:1.1311;stroke-linecap:round;stroke-linejoin:round;stroke-miterlimit:10;}
	.st45{fill:#3D291C;}
	.st46{fill:#3D291C;stroke:#967258;stroke-width:1.2604;stroke-linecap:round;stroke-linejoin:round;stroke-miterlimit:10;}
	.st47{fill:#D6D4C8;}
	.st48{fill:#1B1C1E;stroke:#967258;stroke-width:1.2604;stroke-linecap:round;stroke-linejoin:round;stroke-miterlimit:10;}
	.st49{opacity:0.52;clip-path:url(#SVGID_00000115477793723287079300000000441204797492067006_);}
	.st50{fill:#B37D4F;}
	.st51{opacity:0.88;clip-path:url(#SVGID_00000108277350949598188130000002945881932780338849_);}
	.st52{fill:#343434;}
	.st53{fill:#BC6464;}
	.st54{opacity:0.88;clip-path:url(#SVGID_00000114067602138171624690000008682113551868608429_);}
	.st55{fill:#1B1C1E;stroke:#1B1C1E;stroke-width:1.1485;stroke-linecap:round;stroke-linejoin:round;stroke-miterlimit:10;}
	.st56{fill:#8C7265;}
	.st57{opacity:0.88;clip-path:url(#SVGID_00000067943048089349708580000013350634354662230940_);}
	.st58{fill:#1B1C1E;stroke:#1B1C1E;stroke-width:1.3664;stroke-linecap:round;stroke-linejoin:round;stroke-miterlimit:10;}
	.st59{opacity:0.88;clip-path:url(#SVGID_00000130621610793197643040000012872587356087044756_);}
	.st60{fill:none;stroke:#1B1C1E;stroke-width:1.3664;stroke-linecap:round;stroke-linejoin:round;stroke-miterlimit:10;}
	.st61{opacity:0.88;clip-path:url(#SVGID_00000124848835753746704290000007943568434865175191_);}
	.st62{opacity:0.88;clip-path:url(#SVGID_00000140010815634415168100000014496607660665478075_);}
	.st63{fill:#5F6C72;}
	.st64{fill:#1B1C1E;stroke:#1B1C1E;stroke-width:1.5329;stroke-linecap:round;stroke-linejoin:round;stroke-miterlimit:10;}
	.st65{opacity:0.88;clip-path:url(#SVGID_00000116927837332540679250000013952504871777166231_);}
	.st66{clip-path:url(#SVGID_00000032610892821176757370000017574991512553199249_);}
	.st67{opacity:0.58;clip-path:url(#SVGID_00000070080521764011108190000001551786245892256910_);}
	.st68{opacity:0.58;clip-path:url(#SVGID_00000060009202146161513730000001318671546754445475_);}
	.st69{fill:#1B1C1E;stroke:#1B1C1E;stroke-width:1.818;stroke-linecap:round;stroke-linejoin:round;stroke-miterlimit:10;}
	.st70{fill:#FFFFFF;}
	.st71{fill:#CC813E;}
	.st72{opacity:0.58;clip-path:url(#SVGID_00000082349041600634103720000014592141029407689917_);}
	.st73{fill:#AA8C7D;}
	.st74{opacity:0.88;clip-path:url(#SVGID_00000116948084084421870740000016656144510305436324_);}
	.st75{opacity:0.88;clip-path:url(#SVGID_00000059296967724387535430000004742419678697618857_);}
	.st76{fill:#1B1C1E;stroke:#1B1C1E;stroke-width:1.2604;stroke-linecap:round;stroke-linejoin:round;stroke-miterlimit:10;}
	.st77{opacity:0.88;clip-path:url(#SVGID_00000055696886148194725620000002760475155943816621_);}
	.st78{opacity:0.88;clip-path:url(#SVGID_00000011736327155839542900000001410578801400884869_);}
	.st79{opacity:0.88;clip-path:url(#SVGID_00000111885227663783686530000000045280645443793050_);}
	.st80{fill:none;stroke:#1B1C1E;stroke-miterlimit:10;}
	.st81{fill:#B8BDC4;}
	.st82{fill:#B4D3CD;}
	.st83{opacity:0.88;clip-path:url(#SVGID_00000023995833791848732260000012142751070430061716_);}
	.st84{opacity:0.88;clip-path:url(#SVGID_00000047031987267833640130000013868063990055517853_);}
	.st85{fill:#EFBE9D;}
	.st86{opacity:0.88;clip-path:url(#SVGID_00000018959221620764441850000004174431165472923522_);}
	.st87{fill:#443730;}
	.st88{opacity:0.88;clip-path:url(#SVGID_00000119090283273943440640000000071426832872825496_);}
	.st89{opacity:0.88;clip-path:url(#SVGID_00000146466528128887742940000002853104085481398913_);}
	.st90{fill:#E2AF8D;}
	.st91{fill:none;stroke:#1B1C1E;stroke-linecap:round;stroke-linejoin:round;stroke-miterlimit:10;}
	.st92{fill:#1B1C1E;stroke:#1B1C1E;stroke-miterlimit:10;}
	.st93{fill:#FCEA9F;}
	.st94{fill:#F6EBEF;}
	.st95{fill:#D4DADD;}
	.st96{opacity:0.61;clip-path:url(#SVGID_00000023996678701751159480000017371033966600751275_);}
	.st97{fill:#353737;}
	.st98{fill:#B3B9BC;}
	.st99{opacity:0.61;clip-path:url(#SVGID_00000147935768766414279490000008210082007618485668_);}
	.st100{opacity:0.61;clip-path:url(#SVGID_00000109017481327561035160000005661127176498260906_);}
	.st101{fill:#B3B9BC;stroke:#1B1C1E;stroke-miterlimit:10;}
	.st102{fill:#CCE2CF;stroke:#1B1C1E;stroke-miterlimit:10;}
	.st103{fill:#EAD6DE;}
	.st104{fill:#1B1C1E;stroke:#1B1C1E;stroke-width:1.0185;stroke-miterlimit:10;}
	.st105{fill:none;stroke:#1B1C1E;stroke-width:1.0185;stroke-miterlimit:10;}
	.st106{fill:#FBAF5E;stroke:#1B1C1E;stroke-miterlimit:10;}
	.st107{fill:#513F3B;}
	.st108{opacity:0.88;clip-path:url(#SVGID_00000024703335010020304940000011115369119857032326_);}
	.st109{opacity:0.88;clip-path:url(#SVGID_00000084515722719161913940000015636619432996725670_);}
	.st110{fill:#8B2403;}
	.st111{fill:#EBDAD2;}
	.st112{fill:#A84E39;}
	.st113{fill:#751A01;}
	.st114{fill:#EBDAD2;stroke:#1B1C1E;stroke-miterlimit:10;}
	.st115{opacity:0.78;clip-path:url(#SVGID_00000117670306345152315150000016700197264052249279_);}
	.st116{fill:#290B01;}
	.st117{opacity:0.78;clip-path:url(#SVGID_00000004510189115635275400000004559734052414036406_);}
	.st118{opacity:0.78;clip-path:url(#SVGID_00000017505446566207623580000015831980332241418159_);}
	.st119{opacity:0.78;clip-path:url(#SVGID_00000156580905150020731300000004291108105202495370_);}
	.st120{fill:#030203;}
	.st121{fill:#86889A;}
	.st122{fill:#0B060A;}
	.st123{fill:#736E72;}
	.st124{fill:#9E9AA0;}
	.st125{fill:#18172A;}
	.st126{fill:#3B4D84;}
	.st127{fill:#FFA3AC;}
	.st128{fill:none;stroke:#0B080B;stroke-width:1.2005;stroke-miterlimit:10;}
	.st129{fill:#E7E6E8;}
	.st130{fill:#0B080B;}
	.st131{fill:none;stroke:#1B1C1E;stroke-width:1.2005;stroke-linecap:round;stroke-linejoin:round;stroke-miterlimit:10;}
	.st132{opacity:0.78;clip-path:url(#SVGID_00000005989260409357036140000001808999753444383653_);}
	.st133{opacity:0.78;clip-path:url(#SVGID_00000094607340977540011860000005128102875140984471_);}
	.st134{fill:#89745E;}
	.st135{opacity:0.78;clip-path:url(#SVGID_00000108997942308062031590000017314380628130166158_);}
	.st136{fill:#060606;}
	.st137{fill:#4D483E;}
	.st138{fill:#FF8A00;}
	.st139{fill:#50483F;}
	.st140{fill:#131313;}
	.st141{fill:#E8DBCD;}
	.st142{opacity:0.78;clip-path:url(#SVGID_00000145771495149340184360000007559317855745056409_);}
	.st143{opacity:0.78;clip-path:url(#SVGID_00000146457264408372498710000006870474450121877149_);}
	.st144{fill:#191212;}
	.st145{fill:#6C5353;}
	.st146{opacity:0.78;clip-path:url(#SVGID_00000105394474700573066840000017536590585068618913_);}
	.st147{fill:#B3B3B3;}
	.st148{fill:#FF9F2C;}
	.st149{fill:none;stroke:#343434;stroke-miterlimit:10;}
	.st150{fill:#21262A;}
	.st151{fill:#563D3D;}
	.st152{opacity:0.78;clip-path:url(#SVGID_00000009573564978848599660000007474817630827193222_);}
	.st153{fill:#181716;}
	.st154{fill:#706153;}
	.st155{fill:none;stroke:#1B1C1E;stroke-width:0.8477;stroke-miterlimit:10;}
	.st156{fill:#FCBD30;}
	.st157{fill:#E8D9CD;}
	.st158{fill:#534E4A;}
	.st159{opacity:0.78;clip-path:url(#SVGID_00000066494591382867498900000014232160482019427207_);}
	.st160{fill:#7DA050;}
	.st161{opacity:0.78;clip-path:url(#SVGID_00000173118914339722409880000000373390342434763150_);}
	.st162{opacity:0.78;clip-path:url(#SVGID_00000064318442638875874920000001365417407872364205_);}
	.st163{opacity:0.78;clip-path:url(#SVGID_00000093152762933501470790000006667200368314691721_);}
	.st164{fill:#EFEECE;}
	.st165{opacity:0.78;clip-path:url(#SVGID_00000154393492630633839880000017078460530217145752_);}
	.st166{fill:#93543B;}
	.st167{fill:#FF510C;}
	.st168{opacity:0.78;clip-path:url(#SVGID_00000130617615249653466810000008494535982199285909_);}
	.st169{fill:#4B1804;}
	.st170{fill:#000A0E;}
	.st171{opacity:0.78;clip-path:url(#SVGID_00000163786037552025355210000012856779439942815636_);}
	.st172{opacity:0.78;clip-path:url(#SVGID_00000148627513001313557080000008439851992405931400_);}
	.st173{fill:#F9C8A7;}
	.st174{fill:#1B1C1E;stroke:#1B1C1E;stroke-width:1.3738;stroke-miterlimit:10;}
	.st175{fill:none;stroke:#1B1C1E;stroke-width:1.3;stroke-miterlimit:10;}
	.st176{fill:#FFCB6E;}
	.st177{fill:#CECECE;}
	.st178{fill:none;stroke:#1B1C1E;stroke-width:1.3037;stroke-miterlimit:10;}
	.st179{fill:#FFFFFF;stroke:#1B1C1E;stroke-width:1.3;stroke-miterlimit:10;}
	.st180{opacity:0.78;clip-path:url(#SVGID_00000081618516118465719140000010142360518709592483_);}
	.st181{fill:none;stroke:#1B1C1E;stroke-width:1.3738;stroke-miterlimit:10;}
	.st182{opacity:0.45;clip-path:url(#SVGID_00000102509828587533565980000001534882109040354209_);}
	.st183{opacity:0.45;clip-path:url(#SVGID_00000171706477062200721880000018167736075423606207_);}
	.st184{opacity:0.45;clip-path:url(#SVGID_00000057115263043340491240000011047033338318765493_);}
	.st185{opacity:0.45;clip-path:url(#SVGID_00000179641688804641206020000004295195672998842254_);}
	.st186{fill:none;stroke:#1B1C1E;stroke-width:1.3738;stroke-linecap:round;stroke-linejoin:round;stroke-miterlimit:10;}
	.st187{fill:#FFB192;}
	.st188{fill:#EB8226;}
	.st189{fill:#F7EDE1;}
	.st190{opacity:0.78;clip-path:url(#SVGID_00000143578817196506470680000014261110557514056599_);}
	.st191{opacity:0.78;clip-path:url(#SVGID_00000042721796032102512200000008506397502247595687_);}
	.st192{opacity:0.5;clip-path:url(#SVGID_00000163048357262681936890000000220672592486291105_);}
	.st193{opacity:0.5;clip-path:url(#SVGID_00000121957931026720858620000015258859520012890285_);}
	.st194{fill:none;stroke:#06002C;stroke-width:1.3038;stroke-miterlimit:10;}
	.st195{fill:#F7A9B4;}
	.st196{fill:#06002C;}
	.st197{opacity:0.5;clip-path:url(#SVGID_00000081644701992074961120000013839475190769934504_);}
	.st198{fill:none;stroke:#06002C;stroke-width:1.3038;stroke-linecap:round;stroke-linejoin:round;stroke-miterlimit:10;}
	.st199{fill:#9BBEDC;}
	.st200{opacity:0.88;clip-path:url(#SVGID_00000134214369547321402760000002221844530497611686_);}
	.st201{opacity:0.88;clip-path:url(#SVGID_00000051367799074232114280000004528339348097715357_);}
</style>
<g id="Background">
	<rect x="-3.2" y="-2.4" class="st5" width="510" height="382.5"/>
</g>
<g id="Illustration">
	<g>
		<path class="st22" d="M181.2,281.2c0,0-6.6,2.6,11.5,3.4c18.2,0.8,114.2,1.2,124,0c9.9-1.2,29.1-0.5,3.6-3.4
			c-25.5-2.9-51.7-1.2-77.4-2.9C217.2,276.5,185,278.1,181.2,281.2z"/>
		<path class="st41" d="M301.9,235c0,0,7.2-0.4,7-6.6c-0.3-6.2-4.7-5.8-5.3-8.3c-0.7-2.9,8-4.1,12.7,3c4.8,7.3,1.8,21.7-8.2,25.3
			C298.2,251.9,301.9,235,301.9,235z"/>
		<g>
			<defs>
				<path id="SVGID_00000096048187199419059290000015131428317382020228_" d="M301.9,235c0,0,7.2-0.4,7-6.6
					c-0.3-6.2-4.7-5.8-5.3-8.3c-0.7-2.9,8-4.1,12.7,3c4.8,7.3,1.8,21.7-8.2,25.3C298.2,251.9,301.9,235,301.9,235z"/>
			</defs>
			<clipPath id="SVGID_00000158020194790857959990000010621103141334014882_">
				<use xlink:href="#SVGID_00000096048187199419059290000015131428317382020228_"  style="overflow:visible;"/>
			</clipPath>
			<g style="opacity:0.53;clip-path:url(#SVGID_00000158020194790857959990000010621103141334014882_);">
				<g>
					<g>
						<g>
							<g>
								<path class="st33" d="M309.5,240c0.1,0,0.1,0,0.2,0C309.7,240,309.6,240,309.5,240z"/>
								<path class="st33" d="M308.6,237C308.5,237,308.5,237,308.6,237L308.6,237L308.6,237z"/>
								<path class="st33" d="M308.5,237l-0.2,0.1C308.4,237.1,308.4,237.1,308.5,237z"/>
								<path class="st33" d="M311.2,239.6c0.1,0,0.2,0,0.3,0L311.2,239.6z"/>
								<path class="st33" d="M312.1,238.9c0,0,0.1,0,0.1-0.1C312.1,238.8,312.1,238.9,312.1,238.9z"/>
								<path class="st33" d="M309.8,242.9C309.8,243,309.8,243,309.8,242.9C309.8,243,309.8,243,309.8,242.9z"/>
								<path class="st33" d="M310.3,243C310.3,243,310.3,243,310.3,243L310.3,243C310.4,243,310.4,243,310.3,243z"/>
								<path class="st33" d="M310.6,242.8L310.6,242.8C310.7,242.8,310.6,242.8,310.6,242.8z"/>
								<path class="st33" d="M314,243.3l0.3-0.1C314.2,243.2,314.1,243.3,314,243.3z"/>
								<path class="st33" d="M309.5,243c0.1,0,0.1,0,0.2,0C309.7,243,309.6,243,309.5,243z"/>
								<path class="st33" d="M309.3,240.1c0,0,0.1,0,0.1,0C309.4,240.1,309.4,240.1,309.3,240.1z"/>
								<path class="st33" d="M311.2,239.8L311.2,239.8C311.2,239.8,311.2,239.8,311.2,239.8z"/>
								<path class="st33" d="M307.8,236c0,0-0.1,0-0.1,0C307.7,236.1,307.7,236.1,307.8,236z"/>
								<path class="st33" d="M310.1,242c0.7-0.3,0.1,0.1,0.8-0.2c-0.2,0-0.3,0,0.1-0.2c0.4-0.1,0,0.1,0.6-0.1l-0.3,0
									c0.3-0.2,0.8-0.3,0.7-0.3c-0.9,0.2,0.2-0.4,0.1-0.4l0.1,0l0.3-0.3c0,0,0,0,0,0c0,0-0.1,0-0.2,0.1c0.4-0.2,0.7-0.4,0.5-0.5
									c-0.5,0.1-0.3-0.3-0.7-0.2c0.1,0,0.2,0,0.1,0.1l-0.6,0.2c0-0.1,0.5-0.2,0.1-0.2c-0.8,0.3,0.1,0.1,0,0.2
									c-0.2,0-0.4,0.1-0.5,0.1c0,0.1-0.2,0.4,0.6,0.2c-0.2,0.1-0.5,0.2-0.6,0.2c0.5-0.1-0.4,0.2,0,0.2c-0.7,0.2-0.5-0.1-0.9,0
									c0.5-0.3-0.1-0.3-0.2-0.4c0.5-0.2,1-0.3,1.3-0.5c0.3-0.3-0.3,0-0.7,0c0.1-0.2,0.9-0.4,0.8-0.5l0.4,0c0.7-0.4-0.3,0-0.2-0.1
									c-0.2,0.1-0.4,0.2-0.3,0.3c-0.3,0.1-0.4,0.1-0.5,0.1l0,0c-0.4,0.1-0.8,0.3-0.6,0.1c0.5-0.1,0.3-0.2,0.5-0.3l0.1,0
									c-0.2,0-0.1-0.1-0.2-0.1l0.1,0c-0.2,0-0.8,0.2-0.7,0.1c0.2-0.1,0.9-0.3,0.7-0.3c0.3-0.1,0.4,0,0.3,0.1
									c0.1-0.1,0.6-0.4,0.7-0.3c0.4-0.2-0.2,0,0-0.2c-0.1,0.1-0.3,0.1-0.4,0.2c0.6-0.2,0-0.2-0.4,0l0.4,0c-0.5,0.2-0.8,0.2-1,0.4
									c0.7-0.4-0.5-0.1,0.1-0.4l-0.4,0.2c0.1-0.3-0.8-0.1-1-0.2c0.3,0,1-0.4,0.8-0.2c0.1-0.3,0.7-0.4,1.1-0.6
									c0.2-0.3-0.8,0.3-1,0.3l0.2,0c-1,0.3,0-0.5-0.6-0.4c0.2-0.1,0.2,0,0.3,0c0.4-0.3-0.1,0-0.3,0c0-0.1,0.2-0.3,0.8-0.6
									c0.1-0.2-0.3,0.2-0.5,0.2l0.1-0.1l-0.7,0.2c0.1-0.2,0.4-0.4,0.9-0.7c-0.2-0.1-1.3,0.6-1.6,0.6c0.2-0.2,0.4-0.2,0.6-0.3
									l-0.1-0.1c0.6-0.3,0.4,0,1.1-0.4c-0.8,0.3-0.3,0-0.8,0.1l-0.1,0c-0.5,0.2-0.3-0.1-0.4-0.1c0.3-0.1,0.4-0.1,0.5-0.1
									c0.2-0.2-0.2-0.3-0.8,0c0.1-0.1,0.3-0.4,0.6-0.4c0-0.2-0.9,0.5-0.8,0.2l0.5-0.3c0.6-0.6-0.8,0-0.3-0.5l-0.6,0.4
									c0.2-0.2,0.3-0.3,0.5-0.5l0.2,0c0.4-0.4-0.5,0.2-0.2-0.1c-0.2,0.1-0.5,0.4-0.7,0.6c0.5,0.1-0.1,0.9,0.7,0.9
									c0.1-0.1,0.1-0.1,0.2-0.2c-0.1,0.1,0.1,0.1-0.2,0.3l0,0c0.2,0-0.5,0.5-0.4,0.5c0.4-0.2-0.1,0.3,0.6-0.1l-0.4,0.3
									c0.3-0.1,0.6-0.3,0.7-0.3c0,0.1-0.3,0.2-0.5,0.3c-0.1,0.4,0.1,0.6,0.4,0.8l-0.4,0.1c-0.1,0.1,0.7-0.1-0.2,0.3
									c0.4,0-0.1,0.4,0.8,0c-0.8,0.5-0.2,0.5,0,0.6c0.7-0.4,0.3,0,0.6-0.1c-0.6,0.3-0.7,0.1-1.1,0.3c1-0.2-0.4,0.8,1.1,0.2
									c0,0-0.1,0.1-0.2,0.1c0,0-0.2,0.2-0.3,0.3c0.3-0.1,0.4-0.2,0.5-0.2c0,0.1-0.5,0.2-0.6,0.3c0.4,0,0.6,0.1,1.2-0.1
									c-0.2,0.1-0.5,0.3-0.6,0.3c0.6,0,0,0.2,0.4,0.3c0-0.1-0.7,0.2-0.4,0c-0.8,0.4,0.3,0.3-0.1,0.6l0.6-0.1
									c0.1,0.1-0.4,0.3-0.6,0.3c-0.3,0.3,0.1,0.3,0.1,0.4c-0.1,0-0.2,0.1-0.2,0l0,0.2c0.1,0,0.5-0.1,0.8-0.2
									C310.1,242.1,309.9,242.2,310.1,242z"/>
								<path class="st33" d="M310.5,242.1L310.5,242.1L310.5,242.1C310.5,242,310.5,242,310.5,242.1z"/>
								<path class="st33" d="M312.2,239.3c-0.1,0.1-0.2,0.1-0.2,0.1C312.1,239.4,312.2,239.4,312.2,239.3z"/>
								<path class="st33" d="M312.1,243.5c0.9-0.3-0.2-0.1,0-0.2c0.2,0,0.7-0.1,0.9-0.2c-1.2,0.3,0.2-0.2-0.1-0.3
									c0.4-0.1,0.5-0.1,0.9-0.2c-0.3,0-0.5-0.1-1.2,0.1c-0.1-0.2,0.1-0.4,0-0.4c0.3,0,0.6-0.2,1.2-0.3c-0.8,0.1-1.7,0.1-2.7,0.3
									c0.7-0.3,0.7-0.3,1.4-0.5c0.4-0.4-0.7,0.2-0.5-0.1l-0.1,0.1c-0.2,0-0.9,0.2-1.3,0.3l0.2,0.2c-0.5,0.2-0.4,0-0.6,0
									c-0.6,0.1-0.4,0.3-0.8,0.4c0.4-0.1,0.3,0,0.5,0l-0.2,0.1c-0.2,0.2,0.4,0,0.4,0.1c-0.1,0-0.1,0.1-0.2,0.1
									c0.3-0.1,0.7-0.2,0.8-0.1l0,0c0.6-0.1,1.1-0.1,1.7-0.4l-0.1,0.3c-0.7,0.2-1.7,0.5-1.8,0.4l-0.3,0.1
									c-0.3,0.2,0.6,0.1,1.1-0.2c1.6-0.4,0.2,0.3,0.9,0.3c-0.4,0.2-0.6,0.1-0.9,0.2c-0.1,0-0.1-0.1,0.3-0.2
									c-0.3-0.1-1.4,0.5-1.3,0.2c0.2-0.2,0.7-0.1,0.7-0.3l-1.2,0.3c0.1,0.1,0.3,0.1,0.5,0.2c1,0.2,0.4,0.8,0.4,0.8
									c0.4,0.7,0.7,1.4,1.1,2.1c0.2,0.2,0.2,0.3,1.4,0c0.2-0.1,0.1-0.2,0.5-0.3c-0.5,0.1-0.7,0.1-0.7-0.1c0.4-0.1,0.2,0.1,0.3,0
									l0,0c0.2-0.1,0.4-0.1,0.4,0c0.6-0.3,0.4-0.6-0.5-0.4c0.4-0.2,0.7-0.1,1.1-0.2c0.2-0.5,0.1-0.8,0-1.2c-0.8,0.2-0.5,0.1-1,0.2
									l0.3-0.1c-0.1,0.1-0.7,0.2-0.8,0.3c0.5-0.4-1.1,0-1.5,0l0.4-0.1c-0.1-0.1-0.1-0.1-0.4-0.2c0.7-0.4,0.2,0.1,1.1-0.2l-0.2,0
									c0.4-0.1,1.1-0.3,1.4-0.3c-0.7,0,0.2-0.4-0.4-0.4c0.5-0.1,0.9,0,0.9,0c0-0.1-0.3-0.1,0.1-0.3l-0.6,0.2
									c-0.1-0.1,0.5-0.1,0.9-0.3C314.1,242.9,312.5,243.7,312.1,243.5z"/>
								<path class="st33" d="M311.4,240.4C311.3,240.4,311.4,240.4,311.4,240.4C311.4,240.4,311.4,240.4,311.4,240.4z"/>
								<path class="st33" d="M312.6,240.6c0.1,0,0.1,0,0.2-0.1C312.8,240.5,312.7,240.5,312.6,240.6z"/>
								<path class="st33" d="M313.4,240.3c-0.2,0.1-0.3,0.1-0.6,0.2C313,240.5,313,240.6,313.4,240.3z"/>
								<path class="st33" d="M307.6,231.1c-0.1,0.1-0.3,0.2-0.4,0.3l0.2,0L307.6,231.1z"/>
								<path class="st33" d="M307.4,231.7l-0.1,0.2l0.6-0.5C307.8,231.4,307.5,231.8,307.4,231.7z"/>
								<path class="st33" d="M307.3,232.3l-0.2,0.1C307.2,232.3,307.2,232.3,307.3,232.3z"/>
								<path class="st33" d="M307.5,232l0.5-0.3l-0.4,0.2L307.5,232c-0.2,0.1-0.2,0.2-0.3,0.2L307.5,232
									C307.6,232.1,307.5,232.1,307.5,232z"/>
								<path class="st33" d="M307.6,232.1c0,0,0.1-0.1,0.1-0.1C307.7,232.1,307.7,232.1,307.6,232.1z"/>
								<path class="st33" d="M307,233.1c0.1-0.2,0.4-0.3,0.6-0.5c0.1-0.2-0.6,0.3-0.4,0.1c0.5-0.2,0.2-0.3,0.4-0.5
									C307.3,232.5,307,232.8,307,233.1l0.2-0.3C307.3,232.8,307.1,232.9,307,233.1z"/>
								<path class="st33" d="M308.1,233l-0.5,0.3c0.2-0.2,0.1-0.3,0.5-0.6c-0.1,0-0.3,0.2-0.4,0.2c0.2-0.2,0.3-0.4,0-0.2
									c-0.1,0.4-0.3,0.5-0.3,0.7c-0.1,0.1-0.1,0-0.1,0l-0.1,0.3C307.7,233.3,307.9,233.4,308.1,233z"/>
								<path class="st33" d="M307.9,233.4c-0.1-0.1-0.5,0.2-0.8,0.5l0.5-0.1C307.6,233.7,307.5,233.7,307.9,233.4z"/>
								<path class="st33" d="M308,233.5c-0.2,0.2-0.6,0.6-0.2,0.4C307.7,233.9,308.4,233.4,308,233.5z"/>
								<path class="st33" d="M308.1,234.5l0.2-0.4c0.5-0.5,0.2-0.1,0.5-0.2c0-0.2-0.1,0-0.6,0.1c0-0.1-0.3,0.1-0.5,0.2
									C308.3,234,306.9,235.1,308.1,234.5z"/>
								<polygon class="st33" points="308.4,233.7 308.1,233.8 308.4,233.8 								"/>
								<path class="st33" d="M307.7,235.3c-0.6,0.6,0.5-0.1,0.3,0.2c0,0-0.1,0.1-0.2,0.1l0.1,0l-0.2,0.1c0.4-0.3,0.6-0.3,1-0.5
									c0.4-0.4-0.6,0.3-0.1-0.1c0.2-0.1,0.5-0.3,0.7-0.4c-0.3,0.1-0.5,0.2-0.8,0.4c-0.1,0,0.2-0.2,0.3-0.3
									c-0.3,0.1-0.9,0.5-0.8,0.3c0.3-0.3,0.6-0.4,0.4-0.4c-0.6,0.5,0-0.2-0.4,0.1c0.1-0.2,0.4-0.5,0.7-0.7c-0.5,0.4-1,0.6-1.2,0.6
									l0.5-0.2l-0.6,0.5C307.8,235.1,307.8,235.1,307.7,235.3L307.7,235.3z"/>
								<path class="st33" d="M309.3,234.8c0,0,0.1,0,0.1,0C309.5,234.8,309.4,234.8,309.3,234.8z"/>
								<polygon class="st33" points="308.8,234.1 308.9,234 309.1,233.9 								"/>
								<path class="st33" d="M309.8,234.6c0,0-0.2,0.1-0.2,0.1L309.8,234.6L309.8,234.6z"/>
								<polygon class="st33" points="309.5,235 309.2,235.3 309.5,235.1 								"/>
								<path class="st33" d="M310.4,237.4c0.2-0.2-0.3,0-0.6,0.2C309.8,237.8,310.2,237.4,310.4,237.4z"/>
								<path class="st33" d="M311.7,238.6c0.3-0.2-0.2-0.1-0.2-0.2C311.2,238.6,311.4,238.7,311.7,238.6z"/>
								<path class="st33" d="M313.5,238.6c-0.2,0-0.2,0-0.3,0.1l-0.9,0.3C312.2,239.2,313.2,238.8,313.5,238.6z"/>
								<path class="st33" d="M313.9,239.3l-0.4,0l0,0.1c-0.3,0.1-0.5,0.1-0.8,0.2C313,239.6,313.4,239.6,313.9,239.3z"/>
								<path class="st33" d="M312.6,239.5C312.6,239.6,312.6,239.6,312.6,239.5C312.8,239.5,312.9,239.5,312.6,239.5z"/>
								<path class="st33" d="M312.7,239.6C312.7,239.6,312.8,239.6,312.7,239.6C312.7,239.6,312.7,239.6,312.7,239.6
									C312.6,239.6,312.5,239.6,312.7,239.6z"/>
								<path class="st33" d="M313.6,239.6l0.2,0.2l0.1-0.1C313.4,239.8,314.1,239.4,313.6,239.6z"/>
								<path class="st33" d="M313.5,240.8l-0.5,0.2c-0.1,0.2,1.1-0.1,0.3,0.3c0.3-0.2,0.6-0.1,0.7-0.3
									C313.6,241.2,313.5,241,313.5,240.8z"/>
								<path class="st33" d="M313,241.6c-0.2,0-0.2,0.1-0.4,0.2c0,0.1,0.2,0,0.4-0.1C312.3,241.9,313.4,241.5,313,241.6z"/>
								<path class="st33" d="M313.2,242.2c0,0-0.1-0.1-0.2,0c0.1,0.1,0.6-0.1,1-0.2C314.3,241.8,313.5,242,313.2,242.2z"/>
								<path class="st33" d="M309.8,244.3c0.4-0.2,0.3-0.2,0.2-0.2C310.1,244.1,310,244.2,309.8,244.3z"/>
								<polygon class="st33" points="313.4,243.2 313.5,243.1 312.8,243.3 								"/>
								<polygon class="st33" points="314,243.7 314.5,243.7 314.3,243.6 								"/>
								<path class="st33" d="M313.9,243.9l0.1,0.1l0.2-0.1C314.3,243.8,314,243.9,313.9,243.9z"/>
								<path class="st33" d="M314.1,244.2C314.1,244.2,314.2,244.2,314.1,244.2l-0.2-0.1L314.1,244.2z"/>
								<path class="st33" d="M311.9,246.9c-0.5,0.1-0.1,0.1-0.2,0.2C311.8,247,312.3,246.8,311.9,246.9z"/>
							</g>
						</g>
					</g>
				</g>
			</g>
		</g>
		<path class="st41" d="M198.2,201.7c0,0-7.7,43.8-8.6,62.6c0,0-8.4,8.7-5.3,17.9h43c0,0,1.8-11.3,2.3-16.7c0,0,22.4,2.7,46.7-0.3
			c0,0,5.8,14.1,9.7,17h41c0,0-4.4-6.9-14.7-36.3c-0.7-2.1-1.5-4.3-2.3-6.4c-0.9-2.3-1.7-4.5-2.7-6.8c-4.8-11.6-10.5-23.1-17.2-32.9
			C263.6,161.1,200.4,183,198.2,201.7z"/>
		<g>
			<defs>
				<path id="SVGID_00000097460419092508841900000000231320772112846480_" d="M229.7,265.4c-0.6,5.5-2.3,16.7-2.3,16.7h-11.4
					c0,0,2.3-4.7,4.2-13.8c0.3-1.3,0.6-2.7,0.9-4.2C222.4,265,229.7,265.4,229.7,265.4z"/>
			</defs>
			<clipPath id="SVGID_00000181784673975758807680000014282839619949484439_">
				<use xlink:href="#SVGID_00000097460419092508841900000000231320772112846480_"  style="overflow:visible;"/>
			</clipPath>
			<g style="opacity:0.73;clip-path:url(#SVGID_00000181784673975758807680000014282839619949484439_);">
				<g>
					<g>
						<g>
							<g>
								<path class="st33" d="M222.1,265.2c0,0.1,0,0.2,0,0.3C222.2,265.5,222.2,265.4,222.1,265.2z"/>
								<path class="st33" d="M227.8,265.3C227.8,265.3,227.8,265.3,227.8,265.3l0-0.1L227.8,265.3z"/>
								<path class="st33" d="M227.8,265.2l0.1-0.4C227.8,265,227.8,265.1,227.8,265.2z"/>
								<path class="st33" d="M222.8,267.6c0,0.1,0,0.2,0.1,0.4L222.8,267.6z"/>
								<path class="st33" d="M223.8,268.8c0,0.1,0.1,0.1,0.1,0.2C223.9,268.9,223.9,268.8,223.8,268.8z"/>
								<path class="st33" d="M217.3,267.9c0,0-0.1-0.1-0.1-0.1C217.3,267.8,217.3,267.9,217.3,267.9z"/>
								<path class="st33" d="M217.6,268.6C217.5,268.6,217.5,268.6,217.6,268.6l0,0.1C217.7,268.8,217.6,268.6,217.6,268.6z"/>
								<path class="st33" d="M218,268.7L218,268.7C218.1,268.8,218.1,268.8,218,268.7z"/>
								<path class="st33" d="M220.6,272.9l0.3,0.2C220.8,273,220.7,272.9,220.6,272.9z"/>
								<path class="st33" d="M217,267.5c0,0.1,0.1,0.2,0.2,0.3C217.2,267.7,217.2,267.6,217,267.5z"/>
								<path class="st33" d="M222.1,265c0,0.1,0,0.1,0.1,0.2C222.1,265.1,222.1,265.1,222.1,265z"/>
								<path class="st33" d="M222.5,267.7L222.5,267.7C222.5,267.7,222.5,267.7,222.5,267.7z"/>
								<path class="st33" d="M229.6,265.3c0,0,0.1-0.1,0.1-0.1C229.6,265,229.6,265.1,229.6,265.3z"/>
								<path class="st33" d="M218.9,267.3c0.8,0.7-0.1,0.2,0.7,0.9c-0.1-0.2-0.2-0.4,0.3,0c0.4,0.5-0.2,0.1,0.5,0.8l-0.2-0.3
									c0.4,0.3,0.8,0.9,0.8,0.8c-0.8-1,0.6,0.1,0.5-0.1l0.1,0.1l0.5,0.3c0,0,0,0,0,0.1c0-0.1-0.1-0.1-0.1-0.2
									c0.5,0.4,0.8,0.7,0.8,0.5c-0.4-0.6,0.2-0.4-0.2-1c0.1,0.2,0,0.2-0.1,0.1l-0.5-0.7c0.1-0.1,0.5,0.6,0.3,0.1
									c-0.7-0.9-0.2,0.1-0.3,0.1c-0.1-0.2-0.2-0.5-0.3-0.6c-0.2,0.1-0.6-0.1,0,0.9c-0.2-0.2-0.5-0.5-0.6-0.7
									c0.3,0.6-0.5-0.4-0.2,0.1c-0.7-0.9-0.1-0.6-0.4-1.2c0.7,0.5,0.4-0.3,0.5-0.6c0.5,0.7,0.7,1.3,1.1,1.6
									c0.5,0.3-0.1-0.5-0.2-0.9c0.3,0.2,0.8,1.1,1,1l0.2,0.5c0.7,0.9-0.2-0.4,0.1-0.3c-0.2-0.2-0.3-0.5-0.4-0.4
									c-0.2-0.3-0.3-0.5-0.2-0.6l0,0c-0.3-0.5-0.5-1-0.3-0.9c0.3,0.6,0.4,0.4,0.5,0.6l0,0.1c0-0.3,0.1-0.2,0.1-0.4l0.1,0.2
									c-0.1-0.3-0.4-1.1-0.2-0.9c0.1,0.3,0.4,1.2,0.4,1c0.2,0.5,0.1,0.6-0.1,0.4c0.2,0.1,0.6,0.9,0.5,0.9c0.3,0.6,0-0.3,0.1,0
									c-0.1-0.2-0.2-0.4-0.3-0.6c0.4,0.8,0.2,0,0-0.6c0,0.2,0,0.3,0.1,0.5c-0.3-0.6-0.3-1.1-0.5-1.5c0.4,1,0.2-0.6,0.6,0.2
									l-0.2-0.5c0.4,0.2,0.4-1,0.7-1.4c-0.1,0.4,0.1,1.5-0.2,1.2c0.3,0.2,0.3,1.2,0.5,1.7c0.2,0.4-0.1-1.1-0.1-1.5l-0.1,0.2
									c0-1.4,0.6,0.2,0.9-0.7c0,0.4-0.1,0.2-0.1,0.3c0.2,0.7,0.1-0.2,0.2-0.4c0.2,0.1,0.3,0.4,0.3,1.3c0.2,0.2,0-0.5,0-0.8l0,0.2
									l0.2-1c0.1,0.3,0.3,0.8,0.4,1.6c0.3-0.2,0.2-2,0.4-2.3c0.1,0.5,0,0.7-0.1,1l0.2-0.1c-0.1,1-0.3,0.5-0.3,1.6
									c0.2-1.1,0.2-0.3,0.5-1.1l0-0.1c0.1-0.8,0.4-0.2,0.5-0.4c-0.1,0.5-0.2,0.5-0.3,0.7c0.1,0.4,0.5,0,0.7-1
									c0.1,0.2,0.2,0.6,0.1,1c0.3,0.2,0.2-1.4,0.5-1.1l-0.1,0.8c0.2,1.1,0.7-0.9,0.8,0.1l0.1-0.9c0,0.4,0.1,0.6,0.1,1l-0.2,0.3
									c0,0.8,0.2-0.7,0.3-0.2c0-0.3,0-0.9,0-1.2c-0.6,0.5-1.1-0.9-1.8,0c0,0.1,0,0.2,0,0.4c0-0.2-0.2,0-0.1-0.5l0-0.1
									c-0.2,0.2-0.2-1-0.3-1c-0.1,0.6-0.3-0.3-0.3,0.8l-0.1-0.7c-0.1,0.4-0.1,0.9-0.1,1.1c-0.1-0.1-0.1-0.5,0-0.8
									c-0.4-0.4-1-0.3-1.5,0l0.1-0.5c-0.1-0.2-0.4,0.9-0.4-0.4c-0.2,0.5-0.8-0.3-0.6,1.1c-0.3-1.3-0.7-0.5-1.1-0.2
									c0.3,1.1-0.2,0.4-0.2,0.9c-0.3-0.8,0.1-1-0.1-1.6c0,0.7-0.4,0.6-0.7,0.5c-0.3,0-0.6,0.1-0.2,1.1c-0.1-0.1-0.1-0.1-0.1-0.2
									c-0.1,0-0.4-0.3-0.5-0.3c0.1,0.4,0.4,0.5,0.3,0.7c-0.2,0-0.4-0.6-0.6-0.8c0,0.6-0.2,1,0.3,1.8c-0.2-0.2-0.5-0.6-0.6-0.8
									c0.1,0.8-0.4,0.1-0.4,0.7c0.1-0.1-0.5-0.8-0.1-0.6c-0.9-1-0.3,0.6-1,0.2l0.4,0.7c0,0.2-0.6-0.4-0.7-0.7
									c-0.6-0.2-0.4,0.4-0.6,0.5c-0.1-0.1-0.2-0.2-0.1-0.2l-0.3,0.2c0.1,0.2,0.3,0.6,0.8,0.9C218.7,267.5,218.6,267.2,218.9,267.3
									z"/>
								<path class="st33" d="M219,267.8L219,267.8L219,267.8C219.1,267.9,219.1,267.9,219,267.8z"/>
								<path class="st33" d="M223.4,269c-0.1-0.2-0.2-0.2-0.2-0.3C223.3,268.8,223.3,268.9,223.4,269z"/>
								<path class="st33" d="M218.5,271.2c1.1,0.6-0.1-0.3,0.3-0.2c0.1,0.2,0.8,0.6,1.1,0.7c-1.3-1,0.4,0,0.2-0.4
									c0.5,0.3,0.5,0.4,1,0.8c-0.3-0.3-0.4-0.6-1.1-1.2c0.1-0.2,0.5-0.2,0.5-0.4c0.2,0.4,0.7,0.6,1.3,1.1
									c-0.8-0.7-1.6-1.9-2.4-2.9c0.8,0.6,0.9,0.7,1.6,1.3c0.7,0.2-0.6-0.7-0.2-0.7l-0.2,0c-0.1-0.3-0.8-1-1.3-1.5l-0.2,0.4
									c-0.5-0.5-0.3-0.6-0.3-0.8c-0.5-0.7-0.6-0.2-1.1-0.7c0.4,0.4,0.1,0.4,0.2,0.7l-0.3-0.2c-0.4-0.1,0.2,0.6,0.1,0.7
									c-0.1-0.1-0.2-0.1-0.2-0.1c0.3,0.3,0.7,0.7,0.7,0.9l0-0.1c0.6,0.7,0.9,1.3,1.8,1.7l-0.4,0.1c-0.8-0.6-2-1.5-1.9-1.8
									l-0.3-0.3c-0.6-0.2,0.3,0.9,1.1,1.2c1.9,1.5-0.2,0.5,0.4,1.3c-0.6-0.3-0.7-0.6-1-0.9c0-0.1,0-0.2,0.5,0.1
									c-0.1-0.5-1.8-1-1.3-1.3c0.4,0,0.7,0.8,1,0.6c-0.5-0.4-0.9-0.8-1.3-1.2c-0.1,0.2,0,0.5,0.1,0.8c0.2,0.7,0.1,1.1-0.1,1.3
									c-0.2,0.2-0.5,0.2-0.5,0.2c-0.4,1.3-0.7,2.6-0.8,3.9c0.2,0.5,0,0.6,1.8,1.1c0.4,0,0.3-0.3,0.8-0.1c-0.6-0.2-1-0.4-0.9-0.5
									c0.6,0.1,0.3,0.2,0.4,0.2l0.1,0c0.3,0.1,0.5,0.2,0.5,0.2c1,0,0.9-0.3-0.3-0.8c0.7,0,0.9,0.4,1.4,0.6
									c0.6-0.4,0.6-0.7,0.8-1.2c-1.1-0.4-0.7-0.3-1.3-0.7l0.4,0.1c-0.2-0.1-0.9-0.4-1.2-0.4c0.9,0-1.2-1-1.6-1.4l0.5,0.3
									c0-0.2,0-0.3-0.2-0.6c1.1,0.2,0,0.4,1.4,0.9l-0.2-0.2c0.5,0.3,1.3,0.7,1.7,1c-0.7-0.6,0.5-0.2,0-0.8
									c0.6,0.3,0.9,0.8,0.9,0.9c0.1-0.1-0.3-0.4,0.3-0.1l-0.7-0.4c0-0.2,0.7,0.4,1.2,0.6C221.1,272.7,218.7,271.8,218.5,271.2z"/>
								<path class="st33" d="M221.8,268c-0.1,0-0.1,0-0.1,0.1C221.8,268.1,221.8,268.1,221.8,268z"/>
								<path class="st33" d="M222.2,269.7c0.1,0.1,0.1,0.2,0.2,0.2C222.3,269.9,222.3,269.8,222.2,269.7z"/>
								<path class="st33" d="M222.9,270.6c-0.3-0.3-0.2-0.3-0.5-0.7C222.5,270.2,222.4,270.3,222.9,270.6z"/>
								<path class="st33" d="M235.1,269.6c0-0.2,0.1-0.5,0.1-0.7l-0.2,0.3L235.1,269.6z"/>
								<path class="st33" d="M234.7,268.8l-0.2-0.3l-0.1,1.1C234.6,269.5,234.5,268.8,234.7,268.8z"/>
								<path class="st33" d="M234.2,268.2l0-0.3C234.2,268,234.1,268.1,234.2,268.2z"/>
								<path class="st33" d="M234.2,268.6l-0.1,0.8l0.2-0.6L234.2,268.6c0.1-0.2,0-0.3,0-0.5l-0.1,0.6
									C234.1,268.7,234.1,268.5,234.2,268.6z"/>
								<path class="st33" d="M234,268.7c0,0.1,0,0.2,0,0.2C234,268.8,234,268.7,234,268.7z"/>
								<path class="st33" d="M233.5,267.1c0,0.3-0.1,0.7-0.1,1.1c0.2,0.3,0.2-0.9,0.3-0.5c-0.2,0.6,0.1,0.5,0.2,0.9
									c0-0.8-0.1-1.3-0.3-1.5l0,0.5C233.5,267.7,233.6,267.4,233.5,267.1z"/>
								<path class="st33" d="M232.6,268.4l0.2-0.7c0,0.4,0.2,0.4,0.2,1.2c0.1-0.1,0.1-0.4,0.2-0.6c0,0.4,0.1,0.7,0.2,0.2
									c-0.3-0.5-0.2-0.7-0.5-1c0-0.2,0-0.1,0.1-0.1l-0.2-0.4C232.7,267.7,232.4,267.8,232.6,268.4z"/>
								<path class="st33" d="M232.3,267.8c0.2,0,0.3-0.7,0.2-1.2l-0.3,0.6C232.3,267.1,232.4,267,232.3,267.8z"/>
								<path class="st33" d="M232.1,267.8c0-0.4-0.1-1.3-0.2-0.5C232.1,267.2,231.9,268.3,232.1,267.8z"/>
								<path class="st33" d="M231.1,267l0.2,0.5c0,1-0.2,0.3-0.3,0.7c0.2,0.2,0.2-0.1,0.4-0.7c0.1,0.1,0.2-0.4,0.3-0.7
									C231.4,267.6,231.5,265.2,231.1,267z"/>
								<polygon class="st33" points="231.6,268 231.7,267.6 231.5,267.9 								"/>
								<path class="st33" d="M230.5,265.8c-0.1-1.2-0.4,0.6-0.5,0.1c0-0.1,0-0.2,0.1-0.3l-0.2,0.1l0-0.3c-0.1,0.7-0.3,1-0.4,1.5
									c0.1,0.8,0.2-0.9,0.2,0c-0.1,0.3-0.1,0.8-0.2,1.1c0.1-0.3,0.2-0.8,0.3-1.2c0.1-0.1,0,0.3,0,0.6c0.2-0.4,0.3-1.4,0.4-1.2
									c0.1,0.6-0.2,1,0.1,0.7c0-1.1,0.2,0.2,0.3-0.5c0.1,0.2,0.2,0.9,0.1,1.3c0.1-0.9,0.3-1.6,0.4-1.8l-0.3,0.7l0-1
									C230.7,266.1,230.6,266,230.5,265.8L230.5,265.8z"/>
								<path class="st33" d="M229.6,268c0,0.1,0,0.1-0.1,0.2C229.5,268.2,229.5,268.1,229.6,268z"/>
								<polygon class="st33" points="230.8,268.1 230.8,268.3 230.8,268.6 								"/>
								<path class="st33" d="M229.4,268.7c0,0,0.1-0.3,0-0.3l-0.1,0.5L229.4,268.7z"/>
								<polygon class="st33" points="229.3,268 229.2,267.4 229.2,267.9 								"/>
								<path class="st33" d="M225.8,267.2c0.1,0.4,0.1-0.3,0.1-0.8C225.8,266.2,226,267,225.8,267.2z"/>
								<path class="st33" d="M224.1,268.4c0.2,0.4,0.1-0.3,0.2-0.3C224.1,267.8,224,268,224.1,268.4z"/>
								<path class="st33" d="M224.6,270.7c-0.1-0.2-0.1-0.3-0.2-0.4l-0.5-1.1C223.6,268.9,224.3,270.2,224.6,270.7z"/>
								<path class="st33" d="M224.2,271.2l-0.2-0.5c0,0,0,0-0.1,0c-0.3-0.4-0.4-0.6-0.6-1C223.4,270,223.6,270.5,224.2,271.2z"/>
								<path class="st33" d="M223.3,269.5C223.3,269.5,223.3,269.5,223.3,269.5C223.4,269.7,223.5,269.8,223.3,269.5z"/>
								<path class="st33" d="M223.3,269.6c0,0,0,0.1,0.1,0.1C223.3,269.7,223.3,269.6,223.3,269.6
									C223.2,269.5,223.2,269.4,223.3,269.6z"/>
								<path class="st33" d="M223.7,270.7l-0.1,0.2l0.2,0.1C223.4,270.5,224.2,271.4,223.7,270.7z"/>
								<path class="st33" d="M222.5,271l-0.6-0.5c-0.2,0,0.9,1.2-0.1,0.5c0.4,0.3,0.6,0.6,0.8,0.7
									C222.2,271.1,222.3,270.9,222.5,271z"/>
								<path class="st33" d="M221.3,270.7c-0.2-0.2-0.3-0.2-0.5-0.3C220.7,270.3,220.9,270.6,221.3,270.7
									C220.5,270.1,221.7,271.1,221.3,270.7z"/>
								<path class="st33" d="M220.9,271.3c0,0,0-0.1-0.2-0.2c-0.1,0.1,0.7,0.6,1,0.9C222.1,272.2,221.2,271.5,220.9,271.3z"/>
								<path class="st33" d="M215.4,269.6c0.6,0.3,0.6,0.1,0.4,0C215.9,269.6,215.7,269.6,215.4,269.6z"/>
								<polygon class="st33" points="220.1,272.2 220.2,272.2 219.4,271.7 								"/>
								<polygon class="st33" points="220.2,273.2 220.7,273.6 220.7,273.4 								"/>
								<path class="st33" d="M219.9,273.3l0,0.2l0.3,0.1C220.4,273.5,219.9,273.4,219.9,273.3z"/>
								<path class="st33" d="M219.9,273.8c0,0,0.1,0,0.2,0l-0.3-0.3L219.9,273.8z"/>
								<path class="st33" d="M215.3,275.3c-0.6-0.2-0.3,0.1-0.4,0.2C215,275.5,215.9,275.4,215.3,275.3z"/>
							</g>
						</g>
					</g>
				</g>
			</g>
		</g>
		<path class="st23" d="M217.1,226.9c0,0,10.6,9.4,29.2,9c18.7-0.4,29.2-10.4,29.2-10.4"/>
		<path class="st23" d="M215.9,282.2c0,0,2.3-4.7,4.2-13.8c1.9-9,5.4-22.7,5.4-22.7s20.8,6.2,44.3,0.5"/>
		<path class="st23" d="M276.4,265.2c0,0-4.5-11.8-6.5-18.9"/>
		<path class="st44" d="M229.7,265.4c0,0-7.3-0.5-8.6-1.2"/>
		<path class="st23" d="M192.8,282.2c0,0-1.8-7.4,3.7-10.1"/>
		<path class="st23" d="M203.9,281.8c0,0-1-6.5,3.1-8.8"/>
		<path class="st23" d="M320.2,282.2c0,0,0-12-8.7-16.5c0,0-7.1-16.6-12-29.7"/>
		<path class="st23" d="M310.2,282.2c0,0-0.2-6.6-4.8-9.7"/>
		<path class="st23" d="M297.5,282.2c0,0-0.5-5.6-3.5-9.7"/>
		<path class="st45" d="M202.8,126.5c0,0-6-1.2-10.9,7.5c-4.9,8.7-13.8,25.2-13.1,29.3c0.7,4,4.8,17.2,16.4,25.7
			C206.8,197.5,205.6,128.8,202.8,126.5z"/>
		<path class="st45" d="M276.3,124.2c0,0,7.2-2.9,14.5,8.5c8.6,13.4,13,21.2,14.3,26.3c1.5,5.7-6.3,19.8-14.4,28.4
			C282.6,196,276.3,124.2,276.3,124.2z"/>
		<path class="st41" d="M202.8,126.5c0,0-6.3,4.9-5.7,21.9c0.4,12.4-0.9,21.3-1.7,28.8c-0.5,4-1.5,15.1,3.4,25.5
			c2.3,4.8,5.8,9.5,11.2,13.1c4.8,3.3,11.2,5.8,19.4,7c12.5,1.8,22.6,1.7,30.9,0.1c8.8-1.6,15.3-4.8,20.2-8.9
			c4.8-4.1,7.9-9.1,9.7-14.3c1.5-4.3,2.1-8.7,2.1-12.9c0-11.3-2.1-19.1-3.8-25.7c-4.5-17.6-3.3-28.7-12.1-36.9
			C276.3,124.2,251.8,113,202.8,126.5z"/>
		<path class="st46" d="M238.8,197.4c-6,3.8-4.6,4.3-10.4,9.2c-0.7,0.6-1.3,1-2,1.4v0c-5.2,2.7-10.4-0.3-14.1-4.1
			c-4.1-4.2-6.3-14,2.7-22.8s23.8-7,23.8-7c-1.5,0.9-2.2,2.5-1.4,5.2c1.4,5,6.2,6.1,6.2,6.1c-0.4,3.5,0.5,6.7,0.5,6.7
			S244.6,193.8,238.8,197.4z"/>
		<path class="st46" d="M276.7,205.3c-4.6,4.8-9.7,3.9-13.2,1.4c-1.1-0.8-2.1-1.8-2.8-2.8c-3.1-4.3-5.7-5.9-10-7.4
			c-4.8-1.6-6.6-4.4-6.6-4.4s-0.9-3.3-0.5-6.7c0,0,5.6-1,6.6-6.2c0.5-2.7-0.2-4.2-1.5-5.1c8-1.1,18.2,0.3,25.3,6.9
			C281.3,187.9,282.8,199.1,276.7,205.3z"/>
		<path class="st44" d="M226.5,208C226.5,208,226.5,208,226.5,208"/>
		<path class="st47" d="M230.4,204.9c0,0,0-8,0.9-9.1c0.9-1,3.5,4.5,3.5,4.5"/>
		<path class="st47" d="M255.2,198.6c0,0,2.1-4.1,3.1-4.3s1.3,3.4,1.4,8.4"/>
		<path class="st23" d="M238,120.6c0,0,2.4,0.2,2.8,3.3c0.4,3.1,0.8,12.1,0.7,12.8c-0.1,0.8-2.4,2.8-7.6,2.7
			c-5.9-0.1-9.6,2.9-9.6,2.9"/>
		<path class="st23" d="M241.4,136.7c0,0,1.7,2,7,1.6c5.3-0.4,9,0.2,12,2.7"/>
		<path class="st23" d="M224.9,149.5c0,0-7.9-4.4-13.9,3"/>
		<path class="st23" d="M261.3,149.7c0,0,8.4-5,13,2.8"/>
		<path class="st46" d="M254.1,214.6c-8.6,2.4-17.5,1.3-22.9-1.4c-5.3-2.7-4.9-4.9-4.8-5.2v0c0.7-0.3,1.3-0.8,2-1.4
			c5.8-4.9,4.4-5.5,10.4-9.2c5.8-3.6,5.3-5.2,5.3-5.2s1.8,2.8,6.6,4.4c4.2,1.4,6.8,3.1,10,7.4c0.7,1,1.7,2,2.8,2.8
			C264.2,207.3,262.3,212.3,254.1,214.6z"/>
		<g>
			<path class="st48" d="M250.2,179.3c-1,5.2-6.6,6.2-6.6,6.2s-4.8-1.1-6.2-6.1c-0.8-2.8-0.1-4.4,1.4-5.2c1.2-0.7,3-1,4.8-1
				c2,0,3.8,0.2,5.1,1.1C250,175.1,250.7,176.6,250.2,179.3z"/>
			<path class="st48" d="M241,184.3c0,0,0-4.2-1.4-4.4"/>
			<path class="st48" d="M246,184.6c0,0,0-5.1,1.6-4.7"/>
		</g>
		<path class="st23" d="M198.7,202.8c2.3,4.8,5.8,9.5,11.2,13.1c4.8,3.3,11.2,5.8,19.4,7"/>
		<g>
			<defs>
				<path id="SVGID_00000121992168051440767240000000137662910007953287_" d="M299.6,215.6c-9.5,6.4-36,6.6-36,6.6
					c3.4-1.5,14.4-6.2,16.8-8.2c4.8-4.1,7.9-9.1,9.7-14.3C293.6,204.7,296.7,210,299.6,215.6z"/>
			</defs>
			<clipPath id="SVGID_00000066504538685821762860000002486248479953688509_">
				<use xlink:href="#SVGID_00000121992168051440767240000000137662910007953287_"  style="overflow:visible;"/>
			</clipPath>
			<g style="opacity:0.52;clip-path:url(#SVGID_00000066504538685821762860000002486248479953688509_);">
				<g>
					<g>
						<g>
							<g>
								<path class="st33" d="M280,214.4c0,0.1,0,0.2,0.1,0.2C280.1,214.6,280,214.5,280,214.4z"/>
								<path class="st33" d="M285.2,210.2C285.2,210.2,285.2,210.2,285.2,210.2L285.2,210.2L285.2,210.2z"/>
								<path class="st33" d="M285.1,210.2l-0.2-0.2C285,210.1,285,210.1,285.1,210.2z"/>
								<path class="st33" d="M280.5,216.2c0,0.1,0,0.2,0,0.4L280.5,216.2z"/>
								<path class="st33" d="M281.7,216.8c0,0,0.1,0.1,0.1,0.1C281.8,216.8,281.8,216.8,281.7,216.8z"/>
								<path class="st33" d="M274.4,216.9c0,0,0-0.1,0-0.1C274.4,216.8,274.4,216.8,274.4,216.9z"/>
								<path class="st33" d="M274.1,217.5C274.1,217.5,274.1,217.5,274.1,217.5L274.1,217.5C274.1,217.6,274.1,217.5,274.1,217.5z"
									/>
								<path class="st33" d="M274.5,217.7L274.5,217.7C274.4,217.8,274.4,217.7,274.5,217.7z"/>
								<path class="st33" d="M272.7,221.9l0.1,0.3C272.7,222,272.7,222,272.7,221.9z"/>
								<path class="st33" d="M274.3,216.5c0,0.1,0,0.2,0,0.2C274.4,216.7,274.4,216.6,274.3,216.5z"/>
								<path class="st33" d="M279.9,214.3c0,0,0,0.1,0.1,0.1C280,214.4,279.9,214.3,279.9,214.3z"/>
								<path class="st33" d="M280.1,216.5L280.1,216.5C280.1,216.4,280.1,216.4,280.1,216.5z"/>
								<path class="st33" d="M286.4,208c0-0.1,0-0.1,0-0.2C286.2,207.9,286.3,208,286.4,208z"/>
								<path class="st33" d="M276.2,216.6c0.4,0.7-0.2,0.1,0.2,0.8c0-0.2,0.1-0.4,0.3,0c0.1,0.4-0.3,0.1,0,0.7l0.1-0.3
									c0.3,0.2,0.4,0.8,0.4,0.7c-0.3-0.9,0.7,0,0.8-0.2l0,0.1l0.5,0.2c0,0,0,0,0,0c0,0,0-0.1-0.1-0.2c0.3,0.3,0.7,0.5,0.8,0.3
									c-0.2-0.5,0.6-0.6,0.4-1c0,0.2-0.1,0.2-0.3,0.2l-0.3-0.5c0.2-0.1,0.3,0.5,0.3,0.1c-0.5-0.7-0.3,0.2-0.5,0.2
									c-0.1-0.2-0.1-0.4,0-0.5c-0.3,0.1-0.7,0-0.4,0.9c-0.2-0.1-0.3-0.4-0.3-0.6c0,0.5-0.4-0.3-0.3,0.1c-0.3-0.7,0.2-0.6,0.1-1.1
									c0.6,0.4,0.6-0.3,0.8-0.6c0.3,0.5,0.4,1,0.7,1.3c0.5,0.2,0.1-0.4,0.1-0.8c0.3,0.1,0.6,0.8,0.9,0.6l0,0.4
									c0.6,0.6,0-0.4,0.2-0.3c-0.2-0.1-0.3-0.3-0.4-0.2c-0.2-0.2-0.1-0.4-0.1-0.5l0,0c-0.2-0.4-0.4-0.8-0.1-0.7
									c0.2,0.5,0.4,0.2,0.5,0.4l0,0.1c0-0.2,0.2-0.3,0.3-0.4l0.1,0.1c0-0.2-0.3-0.8-0.1-0.8c0.1,0.2,0.3,0.9,0.4,0.7
									c0.2,0.3,0,0.5-0.2,0.5c0.2,0,0.7,0.4,0.5,0.6c0.3,0.3,0.1-0.3,0.3-0.2c-0.1-0.1-0.2-0.3-0.3-0.4c0.4,0.5,0.4-0.2,0.1-0.6
									l0,0.4c-0.3-0.4-0.3-0.8-0.5-1c0.6,0.6,0.2-0.7,0.7-0.2l-0.3-0.3c0.5-0.1,0.2-1,0.4-1.5c0,0.3,0.6,1,0.2,0.9
									c0.4-0.1,0.7,0.6,1,0.8c0.5,0-0.4-0.7-0.5-1l-0.1,0.3c-0.4-0.9,0.8-0.4,0.7-1.2c0.2,0.2,0,0.2,0.1,0.3
									c0.5,0.2,0.1-0.2,0-0.4c0.2-0.1,0.6-0.1,0.9,0.5c0.3-0.1-0.3-0.3-0.3-0.5l0.1,0.1l-0.3-0.7c0.3,0,0.7,0.1,1.2,0.4
									c0.2-0.4-1-1.1-0.9-1.5c0.4,0.1,0.3,0.4,0.5,0.5l0.2-0.3c0.5,0.5,0,0.5,0.7,1c-0.5-0.8,0.1-0.4-0.1-1l-0.1,0
									c-0.3-0.5,0.2-0.5,0.2-0.7c0.2,0.3,0.1,0.5,0.1,0.7c0.4,0,0.5-0.6,0-1.2c0.2,0,0.6-0.1,0.7,0.2c0.4-0.3-0.8-0.7-0.4-0.9
									l0.5,0.3c0.9,0-0.2-1.1,0.6-1.1l-0.6-0.3c0.3,0.1,0.5,0,0.7,0.1l0.1,0.3c0.6,0.1-0.4-0.4,0.1-0.4c-0.2-0.1-0.7-0.1-0.9-0.2
									c0,0.9-1.3,1.1-1.2,2.2c0.1,0,0.2,0,0.3,0.1c-0.2,0-0.1,0.2-0.4,0l0-0.1c0,0.3-0.8-0.1-0.9,0c0.3,0.4-0.4,0.2,0.2,0.6
									l-0.5-0.2c0.2,0.2,0.5,0.5,0.6,0.6c-0.2,0.1-0.4-0.1-0.5-0.4c-0.6,0.2-1,0.8-1.2,1.3l-0.1-0.4c-0.2,0,0.1,0.8-0.5,0.1
									c0.1,0.5-0.7,0.3-0.1,1.1c-0.8-0.6-0.8,0.1-1,0.5c0.6,0.6-0.1,0.4,0.1,0.8c-0.4-0.5-0.2-0.7-0.4-1.1
									c0.3,1.1-1.3,0.1-0.5,1.6c-0.1,0-0.1-0.1-0.1-0.1c-0.1,0-0.3-0.1-0.4-0.1c0.1,0.3,0.4,0.3,0.3,0.5c-0.2,0-0.4-0.4-0.5-0.5
									c0,0.5-0.3,0.9,0,1.5c-0.2-0.1-0.5-0.4-0.5-0.5c-0.1,0.7-0.4,0.1-0.7,0.7c0.1-0.1-0.3-0.7,0-0.5c-0.7-0.7-0.5,0.5-1.1,0.3
									l0.2,0.6c-0.1,0.2-0.4-0.3-0.4-0.6c-0.5-0.2-0.5,0.3-0.8,0.4c-0.1-0.1-0.1-0.2,0-0.2l-0.4,0.2c0,0.2,0,0.5,0.2,0.8
									C275.9,216.8,275.9,216.5,276.2,216.6z"/>
								<path class="st33" d="M276,217.1L276,217.1L276,217.1C276,217.1,276,217.1,276,217.1z"/>
								<path class="st33" d="M280.8,217.3c-0.1-0.1-0.2-0.1-0.2-0.1C280.7,217.2,280.8,217.3,280.8,217.3z"/>
								<path class="st33" d="M272.7,219.8c0.4,0.9,0.2-0.2,0.5-0.1c-0.1,0.2,0.1,0.7,0.3,0.9c-0.2-1.2,0.4,0.1,0.7-0.3
									c0.2,0.4,0,0.5,0.1,0.9c0.1-0.4,0.4-0.7,0.2-1.3c0.4-0.2,0.7-0.1,0.9-0.3c-0.2,0.4,0.2,0.6,0.3,1.3c0-0.8,0.2-2,0.1-3
									c0.4,0.6,0.4,0.7,0.7,1.3c0.7,0.2-0.2-0.7,0.3-0.7l-0.2,0c0.1-0.3-0.2-0.9-0.4-1.4c-0.1,0.1-0.3,0.2-0.4,0.3
									c-0.2-0.5,0.1-0.5,0.1-0.7c-0.1-0.6-0.4-0.3-0.6-0.7c0.1,0.4-0.1,0.4-0.2,0.6l-0.1-0.2c-0.3-0.2-0.2,0.5-0.3,0.6
									c-0.1-0.1-0.1-0.1-0.1-0.2c0.1,0.3,0.2,0.7,0.1,0.8l0.1-0.1c0.1,0.7-0.1,1.2,0.4,1.8l-0.6,0c-0.2-0.7-0.6-1.7-0.3-1.9
									l-0.1-0.3c-0.4-0.3-0.3,0.8,0,1.3c0.5,1.7-0.7,0.4-0.8,1.2c-0.2-0.4-0.1-0.7-0.1-1c0.1-0.1,0.2-0.1,0.3,0.2
									c0.4-0.4-0.7-1.3-0.1-1.4c0.3,0.1,0,0.8,0.4,0.7l-0.3-1.3c-0.2,0.1-0.3,0.4-0.4,0.6c-0.3,0.6-0.8,0.8-1.1,0.9
									c-0.3,0.1-0.6,0-0.6,0c-1.5,0.7-3,1.3-4.5,1.8c-0.4,0.3-0.6,0.3-0.6,1.6c0.2,0.2,0.5,0,0.4,0.5c0-0.5,0.1-0.8,0.4-0.8
									c0.1,0.4-0.2,0.3-0.1,0.4l0.1,0c0,0.2,0,0.4-0.1,0.4c0.5,0.6,1,0.3,1-0.6c0.4,0.4,0,0.7,0,1.1c1,0.1,1.6-0.1,2.5-0.4
									c-0.2-0.8-0.1-0.5-0.1-1.1l0.2,0.3c-0.1-0.1-0.1-0.7-0.4-0.8c0.7,0.5,0.2-1.2,0.4-1.7l0.1,0.4c0.2-0.2,0.3-0.2,0.5-0.5
									c0.7,0.6-0.3,0.3,0.1,1.2l0.1-0.2c0.1,0.4,0.2,1.1,0.2,1.4c0.2-0.8,0.7,0,1-0.6c0.1,0.5-0.2,1-0.3,1.1c0.2,0,0.3-0.4,0.5,0
									l-0.2-0.6c0.3-0.2,0.2,0.5,0.4,0.9C273.5,221.8,272.3,220.3,272.7,219.8z"/>
								<path class="st33" d="M279.1,217c-0.1,0-0.1,0.1-0.2,0.1C279,217.1,279,217.1,279.1,217z"/>
								<path class="st33" d="M278.4,218.7c0,0.1,0.1,0.1,0.1,0.2C278.5,218.9,278.5,218.8,278.4,218.7z"/>
								<path class="st33" d="M278.7,219.5c-0.2-0.2-0.1-0.3-0.2-0.6C278.5,219.1,278.3,219.2,278.7,219.5z"/>
								<path class="st33" d="M291.7,200.8c-0.2-0.1-0.3-0.3-0.5-0.3l0.2,0.3L291.7,200.8z"/>
								<path class="st33" d="M291,201.2l-0.3,0.2l0.8,0.3C291.5,201.4,290.9,201.5,291,201.2z"/>
								<path class="st33" d="M290.4,201.8l-0.2-0.1C290.3,201.8,290.3,201.8,290.4,201.8z"/>
								<path class="st33" d="M290.7,201.9l0.6,0.2l-0.4-0.4L290.7,201.9c-0.1-0.1-0.2-0.1-0.3-0.1l0.4,0.2
									C290.7,202,290.6,201.9,290.7,201.9z"/>
								<path class="st33" d="M290.7,202.2c0.1,0,0.1,0,0.2,0C290.8,202.2,290.7,202.2,290.7,202.2z"/>
								<path class="st33" d="M289.5,202.6c0.2,0,0.5,0.2,0.7,0.3c0.3-0.2-0.6-0.4-0.2-0.6c0.4,0.4,0.4,0,0.7-0.1
									c-0.6,0-0.9,0-1.2,0.2l0.4,0.1C289.9,202.7,289.7,202.5,289.5,202.6z"/>
								<path class="st33" d="M290,204.2l-0.5-0.3c0.3,0,0.4-0.3,0.9-0.1c0-0.1-0.3-0.2-0.4-0.3c0.3,0,0.5,0,0.2-0.2
									c-0.5,0.4-0.6,0.2-0.9,0.6c-0.1,0-0.1-0.1,0-0.1l-0.4,0.2C289.6,204,289.5,204.3,290,204.2z"/>
								<path class="st33" d="M289.5,204.5c0-0.2-0.4-0.5-0.8-0.5l0.3,0.6C289,204.4,289,204.2,289.5,204.5z"/>
								<path class="st33" d="M289.4,204.8c-0.3,0-0.9,0-0.4,0.3C288.9,204.8,289.7,205.1,289.4,204.8z"/>
								<path class="st33" d="M288.4,206.2l0.5-0.3c0.7,0.2,0.1,0.3,0.4,0.5c0.3-0.3,0-0.3-0.3-0.7c0.1-0.1-0.2-0.4-0.4-0.5
									C289,205.9,287.3,205.3,288.4,206.2z"/>
								<polygon class="st33" points="289.4,205.6 289.1,205.4 289.3,205.7 								"/>
								<path class="st33" d="M287.3,206.8c-0.9-0.1,0.3,0.6-0.2,0.8c0,0-0.1-0.1-0.2-0.2l0,0.3l-0.2-0.1c0.5,0.2,0.5,0.5,0.9,0.8
									c0.6,0-0.5-0.4,0.1-0.3c0.2,0.2,0.5,0.3,0.6,0.5c-0.2-0.3-0.4-0.4-0.7-0.6c0-0.2,0.3,0,0.4,0.1c-0.2-0.3-0.9-0.6-0.6-0.8
									c0.5,0,0.6,0.4,0.6,0c-0.8-0.2,0.2-0.2-0.2-0.6c0.2-0.2,0.8-0.1,1,0c-0.6-0.2-1-0.6-1.1-0.8l0.4,0.6l-0.7-0.1
									C287.6,206.6,287.5,206.7,287.3,206.8L287.3,206.8z"/>
								<path class="st33" d="M288.3,208.5c0,0,0.1,0.1,0.1,0.1C288.4,208.7,288.4,208.6,288.3,208.5z"/>
								<polygon class="st33" points="289.1,206.7 289.2,206.8 289.4,206.9 								"/>
								<path class="st33" d="M288.7,209c0,0-0.2-0.2-0.2-0.1l0.3,0.2L288.7,209z"/>
								<polygon class="st33" points="288.1,209 287.7,208.9 288,209.1 								"/>
								<path class="st33" d="M284.5,213.2c0.3,0.1-0.1-0.3-0.3-0.6C283.9,212.8,284.5,213,284.5,213.2z"/>
								<path class="st33" d="M282.3,216c0.4,0.1,0.2-0.4,0.4-0.5C282.3,215.5,282.2,215.7,282.3,216z"/>
								<path class="st33" d="M282,218.3c0-0.2,0-0.3-0.2-0.3l-0.4-0.9C281.1,217.1,281.8,218,282,218.3z"/>
								<path class="st33" d="M280.6,219.4l0.1-0.4l-0.1,0.1c-0.1-0.3-0.2-0.5-0.2-0.8C280.2,218.5,280.2,218.9,280.6,219.4z"/>
								<path class="st33" d="M280.4,218C280.4,218,280.4,218,280.4,218C280.4,218.1,280.5,218.2,280.4,218z"/>
								<path class="st33" d="M280.3,218.1c0,0,0,0.1,0,0.1C280.3,218.2,280.3,218.1,280.3,218.1C280.3,218,280.2,218,280.3,218.1z"
									/>
								<path class="st33" d="M280.2,219.2l-0.4,0.3l0.3,0.1C279.8,219.1,280.4,219.7,280.2,219.2z"/>
								<path class="st33" d="M277.7,220l-0.3-0.5c-0.3,0-0.1,1.3-0.7,0.6c0.3,0.2,0,0.7,0.4,0.6C277.1,220.3,277.5,220,277.7,220z"
									/>
								<path class="st33" d="M276.3,219.8c0-0.2-0.1-0.2-0.2-0.4c-0.1,0-0.1,0.3,0,0.4C275.9,219.2,276.4,220.3,276.3,219.8z"/>
								<path class="st33" d="M275.1,220.4c0.1,0,0.2-0.1,0-0.2c-0.2,0.1,0.1,0.7,0.1,1.1C275.5,221.5,275.4,220.7,275.1,220.4z"/>
								<path class="st33" d="M271.7,217.5c0.2,0.4,0.4,0.3,0.3,0.1C272,217.7,271.8,217.6,271.7,217.5z"/>
								<polygon class="st33" points="273.1,221.1 273.2,221.2 273,220.5 								"/>
								<polygon class="st33" points="271.7,222.1 271.7,222.6 271.9,222.4 								"/>
								<path class="st33" d="M271.4,222l-0.2,0.1l0.1,0.1C271.5,222.4,271.3,222.1,271.4,222z"/>
								<path class="st33" d="M270.7,222.4c0-0.1,0.1,0,0.1,0.1l0.1-0.4L270.7,222.4z"/>
								<path class="st33" d="M266,220.6c-0.1-0.5-0.2-0.1-0.3-0.2C265.7,220.5,265.9,221.1,266,220.6z"/>
							</g>
						</g>
					</g>
				</g>
			</g>
		</g>
		<path class="st23" d="M260.3,223c8.8-1.6,15.3-4.8,20.2-8.9c4.8-4.1,7.9-9.1,9.7-14.3"/>
		<path class="st44" d="M312.4,245.8c-0.7-2.1-1.5-4.3-2.3-6.4c-0.9-2.3-1.7-4.5-2.7-6.8"/>
		<path class="st23" d="M240.7,123.4c0,0-0.1-2.5,1.7-3.1"/>
		<g>
			<circle class="st47" cx="223.5" cy="166.1" r="8.2"/>
			<circle class="st22" cx="223.5" cy="166.1" r="6.3"/>
			<circle class="st47" cx="221.5" cy="163.9" r="2"/>
		</g>
		<g>
			<circle class="st47" cx="261.3" cy="164.9" r="8.2"/>
			<circle class="st22" cx="261.3" cy="164.9" r="6.3"/>
			<circle class="st47" cx="259.3" cy="162.8" r="2"/>
		</g>
	</g>
</g>
</svg>
