<?xml version="1.0" encoding="utf-8"?>
<!-- Generator: Adobe Illustrator 26.0.3, SVG Export Plug-In . SVG Version: 6.00 Build 0)  -->
<svg version="1.1" xmlns="http://www.w3.org/2000/svg" xmlns:xlink="http://www.w3.org/1999/xlink" x="0px" y="0px"
	 viewBox="0 0 503.6 377.7" style="enable-background:new 0 0 503.6 377.7;" xml:space="preserve">
<style type="text/css">
	.st0{fill:#FFF0DD;}
	.st1{fill:#6B5C52;}
	.st2{fill:#B8BBBF;}
	.st3{fill:#F9E9CD;}
	.st4{fill:#FFE6BD;}
	.st5{fill:#F5F5F2;}
	.st6{fill:#637189;}
	.st7{fill:#9E9082;}
	.st8{fill:#938D89;}
	.st9{fill:#FFDBC0;}
	.st10{fill:#6E85BD;}
	.st11{fill:#E8D9D6;}
	.st12{fill:#A7BC79;}
	.st13{fill:#FF8080;}
	.st14{fill:#3D3533;}
	.st15{fill:#A1683D;}
	.st16{fill:#CCE0FF;}
	.st17{fill:#383531;}
	.st18{fill:#757060;}
	.st19{fill:#D29F7E;}
	.st20{opacity:0.88;clip-path:url(#SVGID_00000067914830805223639410000007410641474318337665_);}
	.st21{fill:#322015;}
	.st22{fill:#1B1C1E;}
	.st23{fill:none;stroke:#1B1C1E;stroke-width:1.2604;stroke-linecap:round;stroke-linejoin:round;stroke-miterlimit:10;}
	.st24{opacity:0.84;clip-path:url(#SVGID_00000005974594748100034530000010797592716341705913_);}
	.st25{clip-path:url(#SVGID_00000108302091728791253370000014579940454968509356_);}
	.st26{fill:none;stroke:#1B1C1E;stroke-width:1.2604;stroke-linecap:round;stroke-linejoin:round;}
	.st27{fill:#D1493B;}
	.st28{fill:#FFAE1F;}
	.st29{opacity:0.88;clip-path:url(#SVGID_00000031890780119625915180000002781648619170000265_);}
	.st30{opacity:0.7;clip-path:url(#SVGID_00000029020835225251626670000009992733575334359444_);}
	.st31{fill:#2C2C2D;}
	.st32{opacity:0.87;clip-path:url(#SVGID_00000016059462424510044190000008882840096335327885_);}
	.st33{fill:#080809;}
	.st34{opacity:0.7;clip-path:url(#SVGID_00000181768910316259598270000004430991064960820874_);}
	.st35{fill:#FBAF5E;}
	.st36{opacity:0.62;clip-path:url(#SVGID_00000100351469334561704830000009029873669174662047_);}
	.st37{fill:#3E240C;}
	.st38{fill:#BC763C;}
	.st39{opacity:0.62;clip-path:url(#SVGID_00000111157642628652086540000007067969402169063052_);}
	.st40{opacity:0.62;clip-path:url(#SVGID_00000082361973745014817050000010617402241540778643_);}
	.st41{fill:#967258;}
	.st42{opacity:0.53;clip-path:url(#SVGID_00000134930864020347223690000010559256714799209383_);}
	.st43{opacity:0.73;clip-path:url(#SVGID_00000058579004895159922470000005670362167714024875_);}
	.st44{fill:none;stroke:#1B1C1E;stroke-width:1.1311;stroke-linecap:round;stroke-linejoin:round;stroke-miterlimit:10;}
	.st45{fill:#3D291C;}
	.st46{fill:#3D291C;stroke:#967258;stroke-width:1.2604;stroke-linecap:round;stroke-linejoin:round;stroke-miterlimit:10;}
	.st47{fill:#D6D4C8;}
	.st48{fill:#1B1C1E;stroke:#967258;stroke-width:1.2604;stroke-linecap:round;stroke-linejoin:round;stroke-miterlimit:10;}
	.st49{opacity:0.52;clip-path:url(#SVGID_00000010312647475189622160000009588493720623854750_);}
	.st50{fill:#B37D4F;}
	.st51{opacity:0.88;clip-path:url(#SVGID_00000173148237457085276300000003373576624360193942_);}
	.st52{fill:#343434;}
	.st53{fill:#BC6464;}
	.st54{opacity:0.88;clip-path:url(#SVGID_00000036223144252097382210000016071238549715528842_);}
	.st55{fill:#1B1C1E;stroke:#1B1C1E;stroke-width:1.1485;stroke-linecap:round;stroke-linejoin:round;stroke-miterlimit:10;}
	.st56{fill:#8C7265;}
	.st57{opacity:0.88;clip-path:url(#SVGID_00000020357151618664208240000009865812897404872367_);}
	.st58{fill:#1B1C1E;stroke:#1B1C1E;stroke-width:1.3664;stroke-linecap:round;stroke-linejoin:round;stroke-miterlimit:10;}
	.st59{opacity:0.88;clip-path:url(#SVGID_00000085236715118466457170000000625253700437856952_);}
	.st60{fill:none;stroke:#1B1C1E;stroke-width:1.3664;stroke-linecap:round;stroke-linejoin:round;stroke-miterlimit:10;}
	.st61{opacity:0.88;clip-path:url(#SVGID_00000027563736809533131260000016736073573224846988_);}
	.st62{opacity:0.88;clip-path:url(#SVGID_00000018207491838756865440000017327330771094987677_);}
	.st63{fill:#5F6C72;}
	.st64{fill:#1B1C1E;stroke:#1B1C1E;stroke-width:1.5329;stroke-linecap:round;stroke-linejoin:round;stroke-miterlimit:10;}
	.st65{opacity:0.88;clip-path:url(#SVGID_00000050662840144697991250000011549734909912956046_);}
	.st66{clip-path:url(#SVGID_00000048464070084368154650000002809889645606045334_);}
	.st67{opacity:0.58;clip-path:url(#SVGID_00000062163470397484361350000013577552260993510331_);}
	.st68{opacity:0.58;clip-path:url(#SVGID_00000001639162861665521210000007259853599475445164_);}
	.st69{fill:#1B1C1E;stroke:#1B1C1E;stroke-width:1.818;stroke-linecap:round;stroke-linejoin:round;stroke-miterlimit:10;}
	.st70{fill:#FFFFFF;}
	.st71{fill:#CC813E;}
	.st72{opacity:0.58;clip-path:url(#SVGID_00000011733080118132136150000000324110417652957328_);}
	.st73{fill:#AA8C7D;}
	.st74{opacity:0.88;clip-path:url(#SVGID_00000012461471239943734850000002216443317249761711_);}
	.st75{opacity:0.88;clip-path:url(#SVGID_00000129919066600523993360000007412614254914708115_);}
	.st76{fill:#1B1C1E;stroke:#1B1C1E;stroke-width:1.2604;stroke-linecap:round;stroke-linejoin:round;stroke-miterlimit:10;}
	.st77{opacity:0.88;clip-path:url(#SVGID_00000112634682411566468310000013007532105822648249_);}
	.st78{opacity:0.88;clip-path:url(#SVGID_00000109018726515077497930000002199088113875837059_);}
	.st79{opacity:0.88;clip-path:url(#SVGID_00000070116212760929677290000007390697010517978757_);}
	.st80{fill:none;stroke:#1B1C1E;stroke-miterlimit:10;}
	.st81{fill:#B8BDC4;}
	.st82{fill:#B4D3CD;}
	.st83{opacity:0.88;clip-path:url(#SVGID_00000080892292144824888300000016852687435844560027_);}
	.st84{opacity:0.88;clip-path:url(#SVGID_00000153702143418580904420000015207452083518563492_);}
	.st85{fill:#EFBE9D;}
	.st86{opacity:0.88;clip-path:url(#SVGID_00000060753547389781698090000016139923790017299118_);}
	.st87{fill:#443730;}
	.st88{opacity:0.88;clip-path:url(#SVGID_00000039817429465916975220000003532224307552908197_);}
	.st89{opacity:0.88;clip-path:url(#SVGID_00000112590062858345773130000018404172639234136464_);}
	.st90{fill:#E2AF8D;}
	.st91{fill:none;stroke:#1B1C1E;stroke-linecap:round;stroke-linejoin:round;stroke-miterlimit:10;}
	.st92{fill:#1B1C1E;stroke:#1B1C1E;stroke-miterlimit:10;}
	.st93{fill:#FCEA9F;}
	.st94{fill:#F6EBEF;}
	.st95{fill:#D4DADD;}
	.st96{opacity:0.61;clip-path:url(#SVGID_00000134957763639067227480000000120511346457811074_);}
	.st97{fill:#353737;}
	.st98{fill:#B3B9BC;}
	.st99{opacity:0.61;clip-path:url(#SVGID_00000181069019634385510470000001860206259117710770_);}
	.st100{opacity:0.61;clip-path:url(#SVGID_00000003103563559787691700000005104456529284379046_);}
	.st101{fill:#B3B9BC;stroke:#1B1C1E;stroke-miterlimit:10;}
	.st102{fill:#CCE2CF;stroke:#1B1C1E;stroke-miterlimit:10;}
	.st103{fill:#EAD6DE;}
	.st104{fill:#1B1C1E;stroke:#1B1C1E;stroke-width:1.0185;stroke-miterlimit:10;}
	.st105{fill:none;stroke:#1B1C1E;stroke-width:1.0185;stroke-miterlimit:10;}
	.st106{fill:#FBAF5E;stroke:#1B1C1E;stroke-miterlimit:10;}
	.st107{fill:#513F3B;}
	.st108{opacity:0.88;clip-path:url(#SVGID_00000027579180512815736490000005157223516603628219_);}
	.st109{opacity:0.88;clip-path:url(#SVGID_00000101080252883552009230000013457276094501591460_);}
	.st110{fill:#8B2403;}
	.st111{fill:#EBDAD2;}
	.st112{fill:#A84E39;}
	.st113{fill:#751A01;}
	.st114{fill:#EBDAD2;stroke:#1B1C1E;stroke-miterlimit:10;}
	.st115{opacity:0.78;clip-path:url(#SVGID_00000125595997461582367210000011307989718835043719_);}
	.st116{fill:#290B01;}
	.st117{opacity:0.78;clip-path:url(#SVGID_00000114044154274087319850000002566478490952509581_);}
	.st118{opacity:0.78;clip-path:url(#SVGID_00000012431852972399658240000006290008956093295770_);}
	.st119{opacity:0.78;clip-path:url(#SVGID_00000069362616811321227890000003394819385660129199_);}
	.st120{fill:#030203;}
	.st121{fill:#86889A;}
	.st122{fill:#0B060A;}
	.st123{fill:#736E72;}
	.st124{fill:#9E9AA0;}
	.st125{fill:#18172A;}
	.st126{fill:#3B4D84;}
	.st127{fill:#FFA3AC;}
	.st128{fill:none;stroke:#0B080B;stroke-width:1.2005;stroke-miterlimit:10;}
	.st129{fill:#E7E6E8;}
	.st130{fill:#0B080B;}
	.st131{fill:none;stroke:#1B1C1E;stroke-width:1.2005;stroke-linecap:round;stroke-linejoin:round;stroke-miterlimit:10;}
	.st132{opacity:0.78;clip-path:url(#SVGID_00000017482711839029671540000000477010576075598258_);}
	.st133{opacity:0.78;clip-path:url(#SVGID_00000116233469876241115560000005276758690229966762_);}
	.st134{fill:#89745E;}
	.st135{opacity:0.78;clip-path:url(#SVGID_00000002372599893324928420000011469082921814685592_);}
	.st136{fill:#060606;}
	.st137{fill:#4D483E;}
	.st138{fill:#FF8A00;}
	.st139{fill:#50483F;}
	.st140{fill:#131313;}
	.st141{fill:#E8DBCD;}
	.st142{opacity:0.78;clip-path:url(#SVGID_00000152240400321284790860000002719993359497415053_);}
	.st143{opacity:0.78;clip-path:url(#SVGID_00000141452118937750790930000005480216827057495958_);}
	.st144{fill:#191212;}
	.st145{fill:#6C5353;}
	.st146{opacity:0.78;clip-path:url(#SVGID_00000029746772444132883500000012080337854524995458_);}
	.st147{fill:#B3B3B3;}
	.st148{fill:#FF9F2C;}
	.st149{fill:none;stroke:#343434;stroke-miterlimit:10;}
	.st150{fill:#21262A;}
	.st151{fill:#563D3D;}
	.st152{opacity:0.78;clip-path:url(#SVGID_00000116954594641451034150000009872147042794885513_);}
	.st153{fill:#181716;}
	.st154{fill:#706153;}
	.st155{fill:none;stroke:#1B1C1E;stroke-width:0.8477;stroke-miterlimit:10;}
	.st156{fill:#FCBD30;}
	.st157{fill:#E8D9CD;}
	.st158{fill:#534E4A;}
	.st159{opacity:0.78;clip-path:url(#SVGID_00000147216465399283388580000013094692794985525891_);}
	.st160{fill:#7DA050;}
	.st161{opacity:0.78;clip-path:url(#SVGID_00000069361274830415778830000000972804725166398359_);}
	.st162{opacity:0.78;clip-path:url(#SVGID_00000105395460523231854360000005572000924832354962_);}
	.st163{opacity:0.78;clip-path:url(#SVGID_00000049222012893155486750000012959058905215244454_);}
	.st164{fill:#EFEECE;}
	.st165{opacity:0.78;clip-path:url(#SVGID_00000106137215262837031200000009407495254510221485_);}
	.st166{fill:#93543B;}
	.st167{fill:#FF510C;}
	.st168{opacity:0.78;clip-path:url(#SVGID_00000043415113448837509670000010933838403633251993_);}
	.st169{fill:#4B1804;}
	.st170{fill:#000A0E;}
	.st171{opacity:0.78;clip-path:url(#SVGID_00000171001178420489944050000006465965706787031205_);}
	.st172{opacity:0.78;clip-path:url(#SVGID_00000125583587341039709420000006621558464845611408_);}
	.st173{fill:#F9C8A7;}
	.st174{fill:#1B1C1E;stroke:#1B1C1E;stroke-width:1.3738;stroke-miterlimit:10;}
	.st175{fill:none;stroke:#1B1C1E;stroke-width:1.3;stroke-miterlimit:10;}
	.st176{fill:#FFCB6E;}
	.st177{fill:#CECECE;}
	.st178{fill:none;stroke:#1B1C1E;stroke-width:1.3037;stroke-miterlimit:10;}
	.st179{fill:#FFFFFF;stroke:#1B1C1E;stroke-width:1.3;stroke-miterlimit:10;}
	.st180{opacity:0.78;clip-path:url(#SVGID_00000181802680908244283450000006794859353906473889_);}
	.st181{fill:none;stroke:#1B1C1E;stroke-width:1.3738;stroke-miterlimit:10;}
	.st182{opacity:0.45;clip-path:url(#SVGID_00000159450327845312711920000006682919166806629822_);}
	.st183{opacity:0.45;clip-path:url(#SVGID_00000028289655259907888020000012804476221744557729_);}
	.st184{opacity:0.45;clip-path:url(#SVGID_00000000215598296742354940000010208721807227284632_);}
	.st185{opacity:0.45;clip-path:url(#SVGID_00000078021259658523790730000007736561580127264912_);}
	.st186{fill:none;stroke:#1B1C1E;stroke-width:1.3738;stroke-linecap:round;stroke-linejoin:round;stroke-miterlimit:10;}
	.st187{fill:#FFB192;}
	.st188{fill:#EB8226;}
	.st189{fill:#F7EDE1;}
	.st190{opacity:0.78;clip-path:url(#SVGID_00000181048432885034043650000011164126109669203613_);}
	.st191{opacity:0.78;clip-path:url(#SVGID_00000080926369116345275980000001921326050923635098_);}
	.st192{opacity:0.5;clip-path:url(#SVGID_00000031888064857929724040000012795080465576443569_);}
	.st193{opacity:0.5;clip-path:url(#SVGID_00000087410844313498170660000003607320908816450436_);}
	.st194{fill:none;stroke:#06002C;stroke-width:1.3038;stroke-miterlimit:10;}
	.st195{fill:#F7A9B4;}
	.st196{fill:#06002C;}
	.st197{opacity:0.5;clip-path:url(#SVGID_00000152947118843943911590000009359570911498417562_);}
	.st198{fill:none;stroke:#06002C;stroke-width:1.3038;stroke-linecap:round;stroke-linejoin:round;stroke-miterlimit:10;}
	.st199{fill:#9BBEDC;}
	.st200{opacity:0.88;clip-path:url(#SVGID_00000044895606205482882870000013682078815477070515_);}
	.st201{opacity:0.88;clip-path:url(#SVGID_00000053522623202399235400000016845872586236640434_);}
</style>
<g id="Background">
	<rect x="-3.2" y="-2.4" class="st13" width="510" height="382.5"/>
</g>
<g id="Illustration">
	<g>
		<path class="st22" d="M186.9,299.4c0,0-5.8,0.8,10.2,2.7c40.3,4.8,100.4,2.6,109.2,1.7c8.8-0.9,19.4-3.7,2.9-4.8
			c-12.5-0.9-30.8-0.8-43.5-1.1C242.9,297.2,193.9,297.4,186.9,299.4z"/>
		<path class="st70" d="M269,129.8c0,0-13.4-46.5-33.9-55.1s-12.5,33.3,0.7,49.2C248.9,139.8,271.1,143,269,129.8z"/>
		<g>
			<defs>
				<path id="SVGID_00000113327456578164776040000012205992813919235508_" d="M269,129.8c0,0-13.4-46.5-33.9-55.1
					s-7.6,30.6,5.7,46.5C253.9,137.1,271.1,143,269,129.8z"/>
			</defs>
			<clipPath id="SVGID_00000064314231978311262240000017334220960662998409_">
				<use xlink:href="#SVGID_00000113327456578164776040000012205992813919235508_"  style="overflow:visible;"/>
			</clipPath>
			<g style="opacity:0.5;clip-path:url(#SVGID_00000064314231978311262240000017334220960662998409_);">
				<g>
					<g>
						<g>
							<path class="st33" d="M255.7,117.3c0.1,0,0.2-0.1,0.2-0.1C255.9,117.1,255.8,117.1,255.7,117.3z"/>
							<path class="st33" d="M250,112.3C250,112.3,250,112.3,250,112.3L250,112.3L250,112.3z"/>
							<path class="st33" d="M249.9,112.4l-0.2,0.2C249.9,112.6,249.9,112.5,249.9,112.4z"/>
							<path class="st33" d="M257.6,116.1c0.1,0,0.2-0.1,0.4-0.2L257.6,116.1z"/>
							<path class="st33" d="M257.9,114.6c0-0.1,0.1-0.1,0.1-0.2C257.9,114.5,257.9,114.5,257.9,114.6z"/>
							<path class="st33" d="M260.1,122.5c0,0-0.1,0-0.1,0.1C260.1,122.5,260.1,122.5,260.1,122.5z"/>
							<path class="st33" d="M260.9,122.5C260.9,122.5,260.9,122.6,260.9,122.5l0.1,0C261.1,122.4,260.9,122.5,260.9,122.5z"/>
							<path class="st33" d="M261,122l0.1,0.1C261.1,122.1,261.1,122,261,122z"/>
							<path class="st33" d="M266.2,122.1l0.3-0.2C266.4,122,266.3,122,266.2,122.1z"/>
							<path class="st33" d="M259.8,122.7c0.1,0,0.2-0.1,0.3-0.1C259.9,122.6,259.9,122.5,259.8,122.7z"/>
							<path class="st33" d="M255.6,117.4c0,0,0.1-0.1,0.1-0.1C255.7,117.3,255.6,117.3,255.6,117.4z"/>
							<path class="st33" d="M258,116.5L258,116.5C257.9,116.4,257.9,116.4,258,116.5z"/>
							<path class="st33" d="M247.4,111c-0.1,0-0.2,0-0.2,0C247.3,111.2,247.4,111.2,247.4,111z"/>
							<path class="st33" d="M259.3,120.6c0.6-0.8,0.2,0.2,0.9-0.5c-0.2,0-0.4,0.1-0.1-0.3c0.5-0.3,0.2,0.2,0.8-0.3l-0.4,0.1
								c0.2-0.4,0.8-0.7,0.6-0.8c-0.9,0.7-0.2-0.7-0.4-0.8l0.1,0l0.1-0.6c0,0,0,0,0,0c0,0-0.1,0.1-0.1,0.1c0.3-0.5,0.4-0.9,0.1-1
								c-0.5,0.4-0.8-0.4-1.2-0.1c0.2,0,0.3,0,0.3,0.2l-0.5,0.5c-0.2-0.2,0.5-0.5,0-0.4c-0.6,0.8,0.2,0.2,0.3,0.4
								c-0.2,0.1-0.4,0.2-0.6,0.2c0.2,0.3,0.2,0.7,1.1,0.2c-0.1,0.2-0.4,0.5-0.5,0.5c0.6-0.3-0.3,0.6,0.3,0.3
								c-0.7,0.6-0.7,0-1.2,0.3c0.3-0.8-0.5-0.5-0.9-0.6c0.4-0.5,1-0.8,1.2-1.2c0-0.6-0.5,0.1-0.9,0.2c0-0.3,0.7-0.9,0.5-1.2
								l0.5-0.2c0.5-0.9-0.4,0.2-0.4-0.1c-0.1,0.2-0.3,0.4-0.1,0.5c-0.2,0.3-0.4,0.3-0.5,0.3l0,0.1c-0.4,0.3-0.7,0.7-0.8,0.3
								c0.5-0.3,0.1-0.5,0.3-0.7l0.1-0.1c-0.3,0-0.4-0.2-0.5-0.1l0.1-0.1c-0.3,0.1-0.8,0.6-0.8,0.4c0.2-0.2,0.9-0.7,0.6-0.7
								c0.3-0.3,0.5-0.2,0.6,0.1c0-0.3,0.3-0.9,0.5-0.7c0.3-0.5-0.3,0-0.3-0.3c-0.1,0.1-0.2,0.3-0.3,0.4c0.5-0.6-0.3-0.4-0.7,0
								l0.4-0.2c-0.4,0.5-0.8,0.6-1,0.9c0.5-0.8-0.8,0-0.4-0.7l-0.2,0.4c-0.2-0.5-1.2,0.1-1.7,0c0.3-0.1,1-1,1-0.5
								c-0.2-0.4,0.5-0.9,0.7-1.4c-0.1-0.5-0.7,0.7-1,0.8l0.3,0c-1,0.8-0.6-0.8-1.4-0.5c0.2-0.3,0.2-0.1,0.3-0.1
								c0.2-0.6-0.3,0-0.5,0.1c-0.1-0.2-0.2-0.6,0.3-1.1c-0.1-0.3-0.2,0.4-0.5,0.5l0.1-0.2l-0.7,0.5c0-0.3,0-0.8,0.3-1.5
								c-0.5-0.2-1.1,1.3-1.6,1.3c0-0.4,0.4-0.5,0.5-0.7l-0.3-0.1c0.6-0.6,0.6-0.1,1.1-1c-0.8,0.7-0.5,0-1.1,0.4l0,0.1
								c-0.5,0.5-0.6-0.1-0.8-0.1c0.3-0.3,0.5-0.2,0.7-0.3c0-0.4-0.8-0.5-1.4,0.2c0-0.2-0.1-0.6,0.2-0.9c-0.4-0.4-0.8,1-1.1,0.5
								l0.3-0.6c0.1-1.1-1.2,0.3-1.2-0.7l-0.4,0.7c0.1-0.3,0-0.6,0.1-0.9l0.3-0.1c0.1-0.7-0.5,0.5-0.5-0.1c-0.1,0.2-0.2,0.8-0.3,1
								c1.1,0,1.3,1.5,2.5,1.3c0-0.1,0-0.2,0.1-0.3c0,0.2,0.3,0.1,0,0.5l-0.1,0c0.3,0,0,0.9,0.1,1c0.4-0.4,0.3,0.5,0.7-0.4l-0.2,0.6
								c0.2-0.3,0.5-0.7,0.6-0.8c0.1,0.2-0.1,0.5-0.3,0.6c0.3,0.7,1,1,1.7,1.1l-0.4,0.3c0,0.3,0.9-0.3,0.2,0.5
								c0.5-0.2,0.5,0.8,1.2-0.1c-0.5,1,0.3,0.9,0.8,1c0.6-0.8,0.5,0,0.9-0.3c-0.4,0.6-0.8,0.4-1.1,0.8c1.1-0.7,0.4,1.5,1.9,0
								c0,0.1-0.1,0.2-0.1,0.2c0.1,0.1-0.1,0.4-0.1,0.5c0.3-0.2,0.2-0.5,0.5-0.4c0.1,0.2-0.3,0.5-0.5,0.8c0.5-0.1,1.1,0.1,1.6-0.5
								c-0.1,0.2-0.3,0.6-0.5,0.7c0.8-0.1,0.3,0.4,1,0.5c-0.2-0.1-0.6,0.6-0.6,0.1c-0.6,1,0.7,0.4,0.6,1.1l0.6-0.4
								c0.3,0.1-0.2,0.6-0.5,0.7c0,0.6,0.5,0.4,0.7,0.7c0,0.1-0.2,0.2-0.2,0.1l0.3,0.3c0.2-0.1,0.5-0.2,0.8-0.6
								C259.5,120.9,259.3,121,259.3,120.6z"/>
							<path class="st33" d="M259.9,120.6L259.9,120.6L259.9,120.6C259.9,120.6,259.9,120.6,259.9,120.6z"/>
							<path class="st33" d="M258.7,115.3c-0.1,0.2-0.1,0.3-0.1,0.3C258.7,115.5,258.7,115.4,258.7,115.3z"/>
							<path class="st33" d="M264,123c0.8-0.8-0.3-0.1-0.3-0.5c0.3,0,0.7-0.4,0.9-0.7c-1.2,0.8,0-0.4-0.5-0.6
								c0.3-0.3,0.5-0.2,0.9-0.5c-0.4,0.1-0.9-0.1-1.5,0.4c-0.3-0.3-0.3-0.7-0.6-0.8c0.5,0,0.6-0.5,1.3-0.8
								c-0.9,0.4-2.2,0.7-3.3,1.2c0.6-0.7,0.6-0.7,1.2-1.3c0-0.8-0.7,0.5-0.8-0.1l0.1,0.3c-0.4,0-0.9,0.6-1.4,1l0.5,0.3
								c-0.4,0.4-0.6,0.1-0.8,0.1c-0.6,0.4-0.1,0.6-0.6,0.9c0.4-0.3,0.4,0,0.7-0.1l-0.2,0.2c-0.1,0.4,0.6,0,0.8,0.1
								c-0.1,0.1-0.1,0.1-0.1,0.2c0.3-0.2,0.7-0.4,0.9-0.4l-0.1-0.1c0.7-0.4,1.4-0.4,1.8-1.2l0.2,0.6c-0.7,0.5-1.7,1.3-2,1.2
								l-0.3,0.2c-0.2,0.5,1,0.1,1.4-0.6c1.7-1.2,0.7,0.6,1.6,0.3c-0.4,0.4-0.7,0.4-1.1,0.6c-0.1-0.1-0.2-0.1,0.1-0.4
								c-0.6-0.2-1.2,1.3-1.5,0.7c0-0.4,0.9-0.3,0.7-0.7l-1.3,0.8c0.2,0.2,0.6,0.2,0.8,0.2c1.6,0.2,1.5,1.4,1.5,1.4
								c1.3,1.2,2.6,2.5,3.8,3.8c0.5,0.3,0.6,0.5,1.9-0.2c0.2-0.3-0.1-0.5,0.4-0.7c-0.5,0.3-0.9,0.3-1,0c0.4-0.4,0.4,0.1,0.4-0.1
								l0-0.1c0.2-0.1,0.4-0.2,0.5-0.1c0.5-0.8-0.1-1.2-1-0.7c0.3-0.6,0.8-0.4,1.2-0.5c-0.3-1-0.7-1.5-1.3-2.3
								c-0.8,0.6-0.5,0.3-1.1,0.6l0.2-0.3c-0.1,0.1-0.7,0.5-0.8,0.8c0.2-0.9-1.4,0.3-2,0.3l0.4-0.3c-0.3-0.2-0.3-0.2-0.7-0.3
								c0.4-1,0.4,0.2,1.3-0.7l-0.3,0c0.4-0.3,1.1-0.7,1.5-0.8c-0.9,0.2-0.2-0.8-1.1-0.7c0.5-0.3,1.1-0.2,1.3-0.2
								c-0.1-0.2-0.6-0.2-0.2-0.5l-0.6,0.4c-0.3-0.2,0.5-0.4,0.8-0.8C265.9,121.2,264.7,123.2,264,123z"/>
							<path class="st33" d="M258.9,117.4c0,0.1,0.1,0.1,0.2,0.1C259,117.4,259,117.4,258.9,117.4z"/>
							<path class="st33" d="M260.9,117.4c0.1-0.1,0.1-0.1,0.2-0.2C261,117.3,260.9,117.3,260.9,117.4z"/>
							<path class="st33" d="M261.7,116.8c-0.2,0.3-0.3,0.2-0.6,0.4C261.3,117.1,261.5,117.3,261.7,116.8z"/>
							<path class="st33" d="M240,104.3c-0.1,0.2-0.3,0.3-0.3,0.5l0.4-0.2L240,104.3z"/>
							<path class="st33" d="M240.4,105.2l0.2,0.3l0.5-0.9C240.7,104.6,240.7,105.3,240.4,105.2z"/>
							<path class="st33" d="M241,106l-0.1,0.2C241,106.1,241,106,241,106z"/>
							<path class="st33" d="M241.1,105.6l0.3-0.6l-0.5,0.4l0.1,0.2c-0.1,0.2,0,0.4,0,0.5l0.3-0.4
								C241.2,105.6,241.1,105.7,241.1,105.6z"/>
							<path class="st33" d="M241.5,105.6c0-0.1,0-0.1,0-0.2C241.5,105.5,241.5,105.6,241.5,105.6z"/>
							<path class="st33" d="M241.8,107.1c0-0.3,0.3-0.6,0.4-0.9c-0.2-0.3-0.5,0.6-0.7,0.3c0.5-0.4,0-0.4,0-0.9
								c-0.1,0.6-0.1,1.1,0.1,1.4l0.2-0.4C241.9,106.6,241.7,106.9,241.8,107.1z"/>
							<path class="st33" d="M243.5,106.6l-0.4,0.5c0.1-0.3-0.3-0.5,0-1.1c-0.2,0-0.3,0.3-0.4,0.4c0-0.4,0-0.6-0.2-0.2
								c0.4,0.6,0.2,0.7,0.5,1.1c-0.1,0.1-0.1,0.1-0.2,0l0.2,0.5C243.2,107.1,243.6,107.2,243.5,106.6z"/>
							<path class="st33" d="M243.8,107.2c-0.2-0.1-0.6,0.5-0.6,0.9l0.7-0.3C243.7,107.8,243.5,107.8,243.8,107.2z"/>
							<path class="st33" d="M244.1,107.4c0,0.4-0.2,1.1,0.2,0.5C244.1,107.9,244.6,107,244.1,107.4z"/>
							<path class="st33" d="M245.5,108.6l-0.3-0.6c0.3-0.8,0.3-0.2,0.6-0.5c-0.3-0.3-0.3,0-0.8,0.4c-0.1-0.1-0.4,0.2-0.7,0.4
								C245.3,107.9,244.5,109.9,245.5,108.6z"/>
							<polygon class="st33" points="245,107.4 244.8,107.7 245.1,107.6 							"/>
							<path class="st33" d="M246.1,110c-0.2,1,0.7-0.3,0.8,0.3c-0.1,0-0.1,0.1-0.2,0.2l0.3,0l-0.1,0.2c0.3-0.5,0.6-0.6,1-1
								c0-0.7-0.5,0.6-0.4-0.1c0.2-0.2,0.4-0.6,0.6-0.7c-0.3,0.2-0.5,0.5-0.7,0.8c-0.2,0,0-0.3,0.1-0.5c-0.3,0.2-0.8,1-0.9,0.7
								c0.1-0.6,0.5-0.7,0.1-0.7c-0.3,1-0.2-0.3-0.6,0.2c-0.1-0.3-0.1-0.9,0.1-1.2c-0.3,0.7-0.8,1.2-1,1.3c0.2-0.1,0.4-0.3,0.7-0.4
								l-0.2,0.9C245.9,109.6,246,109.7,246.1,110L246.1,110z"/>
							<path class="st33" d="M248.1,108.8c0.1,0,0.1-0.1,0.2-0.1C248.3,108.7,248.2,108.7,248.1,108.8z"/>
							<polygon class="st33" points="246.2,107.8 246.4,107.7 246.4,107.4 							"/>
							<path class="st33" d="M248.6,108.3c0-0.1-0.2,0.2-0.2,0.2l0.3-0.3L248.6,108.3z"/>
							<polygon class="st33" points="248.6,109 248.5,109.5 248.8,109.2 							"/>
							<path class="st33" d="M253.5,112.5c0-0.4-0.3,0.1-0.6,0.5C253.1,113.3,253.2,112.6,253.5,112.5z"/>
							<path class="st33" d="M257,114.2c0.1-0.4-0.5-0.1-0.6-0.2C256.3,114.3,256.7,114.3,257,114.2z"/>
							<path class="st33" d="M259.5,113.7c-0.2,0.1-0.3,0.1-0.2,0.3l-0.9,0.7C258.4,115.1,259.3,114,259.5,113.7z"/>
							<path class="st33" d="M261.1,114.8l-0.5,0.1l0.1,0.1c-0.3,0.3-0.5,0.4-0.8,0.6C260.2,115.6,260.6,115.4,261.1,114.8z"/>
							<path class="st33" d="M259.5,115.6c0,0,0.1,0,0.1,0C259.7,115.5,259.8,115.3,259.5,115.6z"/>
							<path class="st33" d="M259.7,115.7c0,0,0.1,0,0.1-0.1c-0.1,0-0.2,0-0.2,0C259.6,115.7,259.6,115.8,259.7,115.7z"/>
							<path class="st33" d="M260.9,115.3l0.5,0.3l0-0.3C260.9,115.8,261.4,114.9,260.9,115.3z"/>
							<path class="st33" d="M262.5,117.6l-0.4,0.5c0.1,0.3,1.4-0.4,0.8,0.5c0.2-0.4,0.7-0.3,0.6-0.7
								C263,118.2,262.6,117.9,262.5,117.6z"/>
							<path class="st33" d="M262.7,119.2c-0.2,0.1-0.2,0.2-0.3,0.4c0,0.1,0.3,0,0.5-0.2C262.2,119.9,263.2,118.9,262.7,119.2z"/>
							<path class="st33" d="M263.8,120.2c-0.1-0.1-0.2-0.1-0.2,0.1c0.2,0.2,0.7-0.4,1.1-0.6C264.8,119.3,264,119.8,263.8,120.2z"/>
							<path class="st33" d="M261.8,125.1c0.4-0.4,0.2-0.5,0-0.4C261.9,124.6,261.9,124.9,261.8,125.1z"/>
							<polygon class="st33" points="265.3,122 265.3,121.9 264.6,122.4 							"/>
							<polygon class="st33" points="266.8,123 267.3,122.8 267,122.6 							"/>
							<path class="st33" d="M266.9,123.3l0.2,0.2l0.1-0.2C267.2,123.1,266.9,123.4,266.9,123.3z"/>
							<path class="st33" d="M267.5,123.9c-0.1,0,0-0.1,0-0.1l-0.4,0L267.5,123.9z"/>
							<path class="st33" d="M267.5,129.6c-0.5,0.3-0.1,0.3-0.1,0.4C267.5,129.9,268,129.4,267.5,129.6z"/>
						</g>
					</g>
				</g>
			</g>
		</g>
		<circle class="st70" cx="202.5" cy="284.6" r="15.5"/>
		<g>
			<defs>
				<circle id="SVGID_00000154423060111709164740000005128635413027120265_" cx="202.5" cy="284.6" r="15.5"/>
			</defs>
			<clipPath id="SVGID_00000058587182314992943860000007406902637818845577_">
				<use xlink:href="#SVGID_00000154423060111709164740000005128635413027120265_"  style="overflow:visible;"/>
			</clipPath>
			<g style="opacity:0.5;clip-path:url(#SVGID_00000058587182314992943860000007406902637818845577_);">
				<g>
					<g>
						<g>
							<path class="st33" d="M208.4,289.1c-0.1,0-0.2,0-0.3,0C208.1,289.2,208.2,289.2,208.4,289.1z"/>
							<path class="st33" d="M211.3,296.4C211.3,296.4,211.4,296.4,211.3,296.4L211.3,296.4L211.3,296.4z"/>
							<path class="st33" d="M211.4,296.3l0.3-0.1C211.6,296.2,211.5,296.2,211.4,296.3z"/>
							<path class="st33" d="M206,289.2c-0.1,0-0.2-0.1-0.5-0.1L206,289.2z"/>
							<path class="st33" d="M204.9,290.4c-0.1,0-0.1,0.1-0.1,0.1C204.8,290.5,204.9,290.5,204.9,290.4z"/>
							<path class="st33" d="M207.5,282.1c0,0,0.1,0,0.1,0C207.6,282.1,207.6,282.1,207.5,282.1z"/>
							<path class="st33" d="M206.9,281.6c0,0,0-0.1,0-0.1l-0.1,0C206.7,281.5,206.8,281.6,206.9,281.6z"/>
							<path class="st33" d="M206.5,281.9l-0.1-0.1C206.4,281.8,206.4,281.9,206.5,281.9z"/>
							<path class="st33" d="M202,278.5l-0.3,0C201.8,278.5,201.9,278.5,202,278.5z"/>
							<path class="st33" d="M207.9,282.1c-0.1,0-0.2,0-0.3,0C207.7,282.1,207.8,282.2,207.9,282.1z"/>
							<path class="st33" d="M208.5,289.1c-0.1,0-0.1,0-0.2,0C208.4,289.1,208.5,289.1,208.5,289.1z"/>
							<path class="st33" d="M205.8,288.6L205.8,288.6C205.9,288.7,205.9,288.7,205.8,288.6z"/>
							<path class="st33" d="M213.3,298.5c0.1,0,0.1,0.1,0.2,0.1C213.6,298.4,213.5,298.4,213.3,298.5z"/>
							<path class="st33" d="M207.1,284.2c-1,0.3-0.1-0.3-1.1-0.1c0.2,0.1,0.4,0.2-0.1,0.4c-0.6,0,0-0.3-0.9-0.2l0.4,0.2
								c-0.4,0.2-1.1,0.2-1,0.3c1.2,0-0.3,0.8-0.1,0.9l-0.1-0.1l-0.5,0.5c0,0,0,0-0.1,0c0.1,0,0.1,0,0.2,0c-0.5,0.3-0.9,0.6-0.7,0.9
								c0.7-0.1,0.5,0.8,1,0.8c-0.2-0.1-0.2-0.2-0.1-0.4l0.8-0.2c0.1,0.3-0.7,0.2-0.2,0.3c1-0.3-0.1-0.4,0-0.6c0.3,0,0.5,0,0.6,0.1
								c-0.1-0.4,0.2-0.8-0.9-0.8c0.2-0.2,0.7-0.2,0.8-0.2c-0.7-0.1,0.6-0.3-0.1-0.4c1-0.2,0.6,0.4,1.3,0.5
								c-0.7,0.5,0.2,0.8,0.4,1.1c-0.7,0.2-1.4,0.1-1.8,0.4c-0.4,0.5,0.5,0.3,1,0.3c-0.2,0.3-1.2,0.4-1.1,0.8l-0.5-0.1
								c-0.9,0.6,0.5,0.1,0.3,0.4c0.2-0.1,0.5-0.2,0.4-0.4c0.4-0.1,0.6,0,0.6,0l0-0.1c0.5-0.1,1.1-0.2,0.9,0.1
								c-0.6,0-0.4,0.3-0.6,0.5l-0.1,0c0.3,0.1,0.2,0.3,0.4,0.4l-0.1,0c0.3,0.1,1-0.2,1,0.1c-0.3,0.1-1.2,0.1-1,0.3
								c-0.4,0.1-0.6-0.1-0.5-0.4c-0.1,0.3-0.8,0.6-0.9,0.4c-0.5,0.3,0.3,0.2,0.1,0.4c0.2-0.1,0.4-0.1,0.5-0.2
								c-0.8,0.3,0.1,0.5,0.6,0.3l-0.5-0.1c0.6-0.2,1.1-0.1,1.4-0.3c-0.9,0.5,0.7,0.4,0,0.9l0.4-0.3c-0.1,0.6,1.2,0.5,1.6,0.9
								c-0.4,0-1.4,0.4-1.2,0c0,0.5-1,0.6-1.4,1c-0.2,0.5,1-0.2,1.4-0.3l-0.3-0.2c1.3-0.2,0.2,1,1.1,1.2c-0.3,0.2-0.2,0-0.4,0
								c-0.5,0.5,0.2,0.1,0.5,0.2c0,0.3-0.1,0.7-0.9,0.9c0,0.3,0.4-0.3,0.7-0.3l-0.1,0.1l0.9-0.2c-0.1,0.3-0.4,0.8-1,1.3
								c0.4,0.4,1.7-0.8,2.1-0.6c-0.2,0.4-0.5,0.3-0.8,0.4l0.3,0.3c-0.8,0.4-0.6-0.1-1.5,0.5c1.1-0.3,0.5,0.2,1.3,0.1l0.1-0.1
								c0.7-0.2,0.5,0.4,0.8,0.5c-0.4,0.2-0.6,0-0.8-0.1c-0.1,0.4,0.5,0.8,1.4,0.4c0,0.2-0.1,0.7-0.6,0.8c0.2,0.5,1.2-0.7,1.3-0.1
								l-0.6,0.4c-0.5,1,1.3,0.2,0.9,1.1l0.7-0.6c-0.2,0.3-0.2,0.6-0.4,0.8l-0.4,0c-0.4,0.6,0.7-0.3,0.5,0.2
								c0.2-0.2,0.5-0.7,0.7-0.9c-0.5-0.2-0.7-0.7-0.9-1.1c-0.2-0.5-0.4-0.9-1.1-1c-0.1,0.1-0.1,0.2-0.3,0.3
								c0.1-0.2-0.2-0.2,0.2-0.5l0.1,0c-0.3-0.1,0.4-0.9,0.3-1c-0.5,0.2-0.1-0.6-0.9,0.1l0.4-0.5c-0.3,0.2-0.7,0.4-1,0.5
								c0-0.2,0.3-0.4,0.6-0.4c0-0.8-0.5-1.4-1.1-1.8l0.5-0.1c0.1-0.2-1-0.1,0.1-0.6c-0.6-0.1-0.1-0.9-1.2-0.4
								c1-0.7,0.2-0.9-0.2-1.3c-1,0.5-0.4-0.2-0.9-0.2c0.7-0.4,1,0,1.5-0.2c-1.4,0,0.4-1.5-1.7-1c0.1-0.1,0.1-0.1,0.2-0.1
								c0-0.1,0.3-0.3,0.3-0.4c-0.4,0.1-0.5,0.3-0.7,0.2c0-0.2,0.6-0.3,0.9-0.5c-0.6-0.2-0.9-0.6-1.8-0.4c0.2-0.2,0.6-0.4,0.8-0.4
								c-0.8-0.3,0-0.5-0.6-0.9c0.1,0.2,0.9-0.2,0.6,0.2c1.1-0.5-0.4-0.7,0.1-1.3l-0.8,0c-0.2-0.2,0.5-0.4,0.8-0.3
								c0.4-0.5-0.2-0.7-0.2-1c0.1,0,0.2-0.1,0.2,0l-0.1-0.5c-0.2,0-0.6-0.1-1.1,0C207.1,283.8,207.4,283.8,207.1,284.2z"/>
							<path class="st33" d="M206.6,283.8L206.6,283.8L206.6,283.8C206.6,283.8,206.6,283.8,206.6,283.8z"/>
							<path class="st33" d="M204.5,289.3c0.2-0.1,0.2-0.2,0.3-0.2C204.7,289.1,204.6,289.2,204.5,289.3z"/>
							<path class="st33" d="M204.6,279.2c-1.2,0.2,0.2,0.3-0.1,0.6c-0.2-0.2-0.9-0.1-1.2,0c1.6,0.1-0.3,0.4,0.1,0.8
								c-0.5,0.1-0.6-0.2-1.2-0.1c0.4,0.2,0.7,0.7,1.5,0.6c0.1,0.5-0.2,0.8,0,1.1c-0.4-0.3-0.9,0.1-1.6-0.1c1,0.2,2.3,0.8,3.6,1.1
								c-0.9,0.2-1,0.3-1.9,0.4c-0.5,0.7,0.9,0,0.7,0.6l0.1-0.3c0.3,0.2,1.2,0,1.8,0l-0.2-0.6c0.6-0.1,0.6,0.3,0.8,0.3
								c0.8,0,0.5-0.4,1.1-0.5c-0.5,0-0.4-0.2-0.6-0.3l0.3-0.1c0.3-0.3-0.6-0.3-0.6-0.6c0.1,0,0.2-0.1,0.2-0.1c-0.4,0-0.9,0-1-0.2
								l0.1,0.1c-0.8-0.1-1.4-0.6-2.3-0.1l0.2-0.7c0.9,0,2.3-0.1,2.4,0.2l0.4,0c0.5-0.3-0.8-0.6-1.5-0.4c-2.2,0-0.2-0.9-1.1-1.3
								c0.6-0.1,0.8,0.1,1.3,0.2c0.1,0.1,0.1,0.2-0.4,0.3c0.4,0.5,1.9-0.3,1.7,0.3c-0.3,0.3-1-0.3-1,0.2l1.7,0.1
								c-0.1-0.3-0.4-0.5-0.6-0.7c-0.6-0.6-0.7-1.1-0.6-1.5c0.1-0.4,0.3-0.6,0.3-0.6c-0.3-1.9-0.5-3.7-0.6-5.6
								c-0.2-0.6-0.1-0.8-1.7-1.2c-0.3,0.1-0.2,0.5-0.8,0.3c0.6,0.1,0.9,0.4,0.8,0.7c-0.6,0-0.3-0.3-0.4-0.2l0,0.1
								c-0.3-0.1-0.5-0.1-0.5-0.2c-0.9,0.3-0.8,1,0.4,1.3c-0.6,0.3-0.9-0.2-1.4-0.4c-0.5,1.1-0.4,1.8-0.5,2.9c1,0,0.7,0.1,1.4,0.2
								l-0.4,0.1c0.2,0,0.9,0.1,1.1-0.1c-0.8,0.6,1.4,0.7,1.9,1l-0.6,0c0.1,0.3,0.1,0.4,0.4,0.7c-1,0.6-0.2-0.5-1.5-0.2l0.2,0.1
								c-0.5-0.1-1.4-0.1-1.8-0.3c0.9,0.5-0.3,0.8,0.4,1.3c-0.6,0-1.1-0.5-1.2-0.7c0,0.2,0.4,0.5-0.1,0.6l0.8,0
								c0.1,0.3-0.7,0-1.2,0.2C201.8,279.5,204.1,278.6,204.6,279.2z"/>
							<path class="st33" d="M205.5,287.3c0-0.1,0-0.2-0.1-0.2C205.5,287.1,205.5,287.2,205.5,287.3z"/>
							<path class="st33" d="M203.8,286.1c-0.1,0-0.2,0-0.3,0C203.6,286.1,203.6,286.1,203.8,286.1z"/>
							<path class="st33" d="M202.7,286.1c0.3-0.1,0.4,0,0.8,0C203.2,286.1,203.1,285.8,202.7,286.1z"/>
							<path class="st33" d="M219.5,307.3c0.1-0.2,0.4-0.3,0.4-0.5l-0.4,0.1L219.5,307.3z"/>
							<path class="st33" d="M219.2,306.3l-0.2-0.4l-0.6,0.8C218.8,306.9,218.9,306.2,219.2,306.3z"/>
							<path class="st33" d="M218.7,305.4l0.2-0.2C218.7,305.3,218.7,305.3,218.7,305.4z"/>
							<path class="st33" d="M218.5,305.8l-0.4,0.6l0.6-0.3l-0.1-0.2c0.1-0.2,0.1-0.4,0.1-0.5l-0.4,0.4
								C218.4,305.8,218.5,305.7,218.5,305.8z"/>
							<path class="st33" d="M218.1,305.7c0,0.1,0,0.1-0.1,0.2C218.1,305.8,218.1,305.7,218.1,305.7z"/>
							<path class="st33" d="M218.1,304c-0.1,0.3-0.4,0.6-0.6,0.8c0.1,0.4,0.7-0.6,0.7-0.1c-0.6,0.3-0.1,0.5-0.1,0.9
								c0.2-0.7,0.3-1.2,0.2-1.5l-0.3,0.4C217.9,304.5,218.1,304.3,218.1,304z"/>
							<path class="st33" d="M216.1,304.2l0.6-0.4c-0.1,0.3,0.2,0.5-0.2,1.1c0.2,0,0.4-0.3,0.6-0.4c-0.1,0.4-0.2,0.6,0.2,0.3
								c-0.3-0.7,0-0.8-0.4-1.2c0.1-0.1,0.1-0.1,0.2,0L217,303C216.5,303.7,216.1,303.6,216.1,304.2z"/>
							<path class="st33" d="M216,303.5c0.3,0.1,0.7-0.4,0.9-0.8l-0.8,0.2C216.2,302.9,216.4,302.9,216,303.5z"/>
							<path class="st33" d="M215.7,303.2c0.1-0.4,0.4-1.1-0.1-0.6C215.8,302.7,215.1,303.5,215.7,303.2z"/>
							<path class="st33" d="M214.5,301.6l0.1,0.7c-0.5,0.8-0.4,0.1-0.8,0.3c0.2,0.4,0.3,0.1,0.9-0.1c0.1,0.1,0.5-0.1,0.8-0.3
								C214.6,302.3,216,300.5,214.5,301.6z"/>
							<polygon class="st33" points="214.8,302.9 215.1,302.7 214.7,302.8 							"/>
							<path class="st33" d="M214.3,300c0.5-1-0.9,0.1-0.8-0.5c0.1,0,0.1-0.1,0.3-0.1l-0.3-0.1l0.2-0.2c-0.4,0.5-0.8,0.4-1.3,0.7
								c-0.3,0.7,0.7-0.5,0.3,0.3c-0.3,0.2-0.6,0.4-0.8,0.6c0.4-0.1,0.7-0.3,1-0.5c0.2,0.1-0.1,0.3-0.3,0.5c0.4-0.1,1.1-0.8,1.2-0.4
								c-0.2,0.6-0.7,0.6-0.3,0.7c0.6-0.9,0.2,0.4,0.7,0c0.1,0.3-0.2,0.9-0.5,1.2c0.5-0.6,1.1-1,1.4-1.1c-0.3,0.1-0.5,0.2-0.8,0.2
								l0.5-0.8C214.4,300.5,214.3,300.3,214.3,300L214.3,300z"/>
							<path class="st33" d="M211.9,300.6c-0.1,0-0.1,0-0.2,0C211.7,300.7,211.8,300.6,211.9,300.6z"/>
							<polygon class="st33" points="213.6,302.2 213.4,302.3 213.3,302.5 							"/>
							<path class="st33" d="M211.2,300.9c0,0.1,0.3-0.1,0.2-0.2l-0.4,0.2L211.2,300.9z"/>
							<polygon class="st33" points="211.5,300.2 211.7,299.8 211.4,300 							"/>
							<path class="st33" d="M208,294.6c-0.2,0.3,0.4,0,0.8-0.2C208.8,294.1,208.3,294.7,208,294.6z"/>
							<path class="st33" d="M205.5,291.3c-0.3,0.4,0.4,0.3,0.4,0.6C206.2,291.5,205.9,291.3,205.5,291.3z"/>
							<path class="st33" d="M202.8,290.3c0.2,0,0.3,0,0.4-0.1l1.2-0.2C204.6,289.6,203.3,290.1,202.8,290.3z"/>
							<path class="st33" d="M202.1,288.3l0.5,0.2l0-0.2c0.5,0,0.7,0,1.1,0C203.3,288.2,202.9,288.1,202.1,288.3z"/>
							<path class="st33" d="M203.9,288.6c0,0-0.1-0.1-0.1-0.1C203.7,288.5,203.6,288.6,203.9,288.6z"/>
							<path class="st33" d="M203.8,288.3c-0.1,0-0.1,0-0.1,0c0.1,0,0.1,0.1,0.2,0.1C203.9,288.4,204,288.4,203.8,288.3z"/>
							<path class="st33" d="M202.5,287.9l-0.3-0.5l-0.2,0.3C202.8,287.5,201.8,288.1,202.5,287.9z"/>
							<path class="st33" d="M202.4,284.8l0.7-0.2c0.1-0.4-1.5-0.6-0.4-1c-0.4,0.2-0.8-0.2-0.9,0.3
								C202.4,284,202.6,284.6,202.4,284.8z"/>
							<path class="st33" d="M203.2,283.3c0.2,0,0.3-0.1,0.5-0.2c0.1-0.1-0.3-0.2-0.6-0.1C204.1,283,202.6,283.3,203.2,283.3z"/>
							<path class="st33" d="M202.9,281.7c0,0.1,0.1,0.2,0.3,0.1c-0.1-0.3-0.9-0.1-1.3-0.2C201.4,281.9,202.5,282,202.9,281.7z"/>
							<path class="st33" d="M207.7,278.9c-0.6,0.1-0.5,0.3-0.3,0.3C207.3,279.1,207.5,279,207.7,278.9z"/>
							<polygon class="st33" points="202.8,279.2 202.7,279.3 203.6,279.3 							"/>
							<polygon class="st33" points="202.2,277.4 201.6,277.2 201.7,277.5 							"/>
							<path class="st33" d="M202.3,277l-0.1-0.3l-0.2,0.1C201.9,277,202.3,276.9,202.3,277z"/>
							<path class="st33" d="M202.2,276.1c0.1,0,0,0.1-0.1,0.1l0.4,0.3L202.2,276.1z"/>
							<path class="st33" d="M206.1,271.4c0.6,0.1,0.2-0.2,0.4-0.2C206.3,271.2,205.5,271.3,206.1,271.4z"/>
						</g>
					</g>
				</g>
			</g>
		</g>
		<path class="st70" d="M270,130.2c0,0-4.9-5.6-12.4-12.5c-7.8-7.2-18.5-15.8-29.7-21c-6-2.8-12.2-4.6-18.1-4.7
			c-27.2-0.2-6.1,35.4,48.4,47.1C258.3,139.3,272.3,142.6,270,130.2z"/>
		<path class="st194" d="M270,130.2c0,0-4.9-5.6-12.4-12.5c-7.8-7.2-18.5-15.8-29.7-21"/>
		<path class="st195" d="M255.8,138.7c-29.5-6.9-48.8-20.8-55.3-31.6c-3.6-9.6,9.4-15,29.1-5c19.7,10,28.5,29.7,28.5,29.7
			C259.8,134.8,258.8,137.3,255.8,138.7z"/>
		<path class="st70" d="M311.4,245.5c0,0-8.2-22.7-10.8-27.9c-2.6-5.2-6.2,11.5-5.8,14.9C295.2,235.9,311.4,245.5,311.4,245.5z"/>
		<path class="st70" d="M286.9,302.3c0,0,20.7,0,23.2,0s2.4-11.7-21.6-12.2C264.6,289.7,279.5,302.3,286.9,302.3z"/>
		<path class="st70" d="M262.2,128.2c-7.1,5.2-56.4,108.8-58.7,140.9c-0.4,5.4,0.1,10.5,1.8,15.2c1.7,4.6,4.5,8.8,8.8,12.5
			c1.1,0.9,2.3,1.8,3.6,2.7c2.8,1.9,6.1,2.9,9.5,2.9l61.3,0c2.9,0,4.6-2.8,3.4-5.8c-1.4-3.3-6.4-6.7-17.6-6.4c0,0,11.2,9.8,20.5-13
			c13.7-33.5,5.8-96.7,2.5-101.8c0,0,9.1-0.2,18-11.9c11.9-15.5,7.5-34.7-8.1-37.6C289.3,122.4,268.4,123.7,262.2,128.2z"/>
		<path class="st194" d="M203.5,269.1c-0.4,5.4,0.1,10.5,1.8,15.2c1.7,4.6,4.5,8.8,8.8,12.5"/>
		<path class="st194" d="M274.2,290.1c0,0-8.8,0.4-14,3.8"/>
		<path class="st194" d="M266.1,291.5c0,0,13.6-17.3,9.4-38.6c-4.2-21.4-36.3-19.1-48-12.6"/>
		<path class="st70" d="M289.1,210.3c0,0,4.4,11.7,13.4,22.6c7.4,9,9.7,13.3,10.2,16.7c0.2,1.2-0.4,2.5-1.4,3.2
			c-2.7,2-8.3,3.7-10.4,2c-2.8-2.3-14.9-11.7-23.7-18.2c-8.8-6.5-14.2-16.8-14.2-16.8"/>
		<path class="st194" d="M300.9,254.9c-2.8-2.3-14.9-11.7-23.7-18.2c-8.8-6.5-14.2-16.8-14.2-16.8"/>
		<path class="st194" d="M289.1,210.3c0,0,4.4,11.7,13.4,22.6c7.4,9,9.7,13.3,10.2,16.7"/>
		<circle class="st196" cx="290.1" cy="138" r="2.8"/>
		<path class="st194" d="M286.9,302.3c0,0,1.6-4.2-1.4-5.8"/>
		<path class="st194" d="M281.3,302.3c0,0,0.3-3.4-1.8-4.1"/>
		<path class="st194" d="M301.8,302.3c0,0,0.3-3.4-1.8-4.1"/>
		<path class="st194" d="M312,252.3c0,0-2.3-0.9-4.9-5"/>
		<path class="st194" d="M308.4,254.5c0,0-2.9-1.1-4.9-2.7"/>
		<path class="st194" d="M306.3,302.3c0,0,1.6-4.2-1.4-5.8"/>
		<path class="st194" d="M288.5,302.3c2.9,0,4.6-2.8,3.4-5.8c-1.4-3.3-6.4-6.7-17.6-6.4"/>
		<g>
			<defs>
				<path id="SVGID_00000157989538798980911750000015826166470958039960_" d="M300.3,189.9c-28.3,1.4-27.6-21.3-27.6-21.3
					c10.9,8.6,24.5,6.7,24.5,6.7C298.1,176.6,299.3,182.1,300.3,189.9z"/>
			</defs>
			<clipPath id="SVGID_00000156555334864541483350000010964607287383737009_">
				<use xlink:href="#SVGID_00000157989538798980911750000015826166470958039960_"  style="overflow:visible;"/>
			</clipPath>
			<g style="opacity:0.5;clip-path:url(#SVGID_00000156555334864541483350000010964607287383737009_);">
				<g>
					<g>
						<g>
							<path class="st33" d="M303,178.7c0-0.1,0.1-0.3,0.1-0.4C303.1,178.3,303.1,178.4,303,178.7z"/>
							<path class="st33" d="M291.7,177.1C291.7,177.1,291.7,177.1,291.7,177.1l0,0.1L291.7,177.1z"/>
							<path class="st33" d="M291.7,177.3l-0.1,0.5C291.7,177.6,291.7,177.4,291.7,177.3z"/>
							<path class="st33" d="M304,175.1c0.1-0.1,0.2-0.3,0.3-0.6L304,175.1z"/>
							<path class="st33" d="M302.8,172.9c0-0.1,0-0.2-0.1-0.3C302.8,172.7,302.8,172.8,302.8,172.9z"/>
							<path class="st33" d="M313.3,178.9c0,0.1,0,0.1,0,0.2C313.3,179,313.3,178.9,313.3,178.9z"/>
							<path class="st33" d="M314,178c0.1,0,0.1,0,0.2,0l0-0.1C314.2,177.7,314.1,177.9,314,178z"/>
							<path class="st33" d="M313.7,177.5l0.2-0.1C313.8,177.4,313.7,177.4,313.7,177.5z"/>
							<path class="st33" d="M318.4,172.3l0-0.3C318.3,172.1,318.3,172.2,318.4,172.3z"/>
							<path class="st33" d="M313.2,179.5c0-0.1,0.1-0.3,0.1-0.4C313.2,179.2,313.1,179.3,313.2,179.5z"/>
							<path class="st33" d="M303,179c0-0.1,0-0.2,0-0.2C303,178.8,303,178.9,303,179z"/>
							<path class="st33" d="M304.7,175.2L304.7,175.2C304.6,175.2,304.6,175.2,304.7,175.2z"/>
							<path class="st33" d="M287.4,176.6c-0.1,0-0.2,0-0.3,0.1C287.3,176.9,287.4,176.8,287.4,176.6z"/>
							<path class="st33" d="M310.4,178.3c-0.2-1.5,0.4-0.1,0.3-1.5c-0.2,0.3-0.3,0.6-0.5-0.2c0.1-0.8,0.4,0,0.4-1.2l-0.3,0.5
								c-0.2-0.6,0-1.6-0.2-1.5c-0.2,1.7-0.9-0.6-1.2-0.3l0.1-0.2l-0.5-0.8c0,0,0-0.1,0-0.1c0,0.1,0,0.2,0,0.3
								c-0.2-0.9-0.6-1.5-0.9-1.3c-0.1,1-1.1,0.3-1.3,1.2c0.1-0.3,0.3-0.3,0.5,0l0,1.2c-0.4,0-0.1-1.1-0.4-0.4
								c0.1,1.7,0.5,0,0.7,0.2c-0.1,0.4-0.2,0.7-0.3,0.9c0.5,0,1,0.6,1.3-1.1c0.2,0.3,0.1,1,0,1.2c0.3-1,0.3,0.9,0.6,0
								c0,1.5-0.7,0.8-1,1.7c-0.5-1.2-1.1,0-1.6,0.3c-0.1-1.2,0.2-2.1,0-2.8c-0.5-0.8-0.5,0.6-0.7,1.3c-0.4-0.4-0.1-1.9-0.7-2
								l0.3-0.8c-0.4-1.6-0.3,0.7-0.5,0.3c0.1,0.4,0.1,0.8,0.4,0.8c0.1,0.6-0.2,0.9-0.3,0.9l0.1,0c-0.1,0.8-0.1,1.7-0.5,1.3
								c0.2-1-0.3-0.7-0.4-1.2l0.1-0.2c-0.3,0.3-0.5,0.2-0.7,0.4l0-0.2c-0.2,0.4-0.2,1.6-0.5,1.4c0-0.5,0.3-1.8,0-1.6
								c0-0.7,0.4-0.8,0.7-0.5c-0.3-0.3-0.5-1.5-0.1-1.5c-0.1-0.9-0.3,0.4-0.5,0c0,0.3,0,0.6,0,0.9c0-1.3-0.7-0.1-0.7,0.8l0.3-0.7
								c0,1-0.4,1.7-0.2,2.3c-0.2-1.6-0.9,0.8-1.1-0.6l0.1,0.8c-0.7-0.5-1.3,1.4-2,1.7c0.3-0.5,0.3-2.3,0.7-1.6
								c-0.7-0.4-0.2-1.7-0.4-2.6c-0.5-0.6-0.3,1.6-0.4,2.2l0.4-0.3c-0.5,2-1.4-0.4-2.1,0.8c0-0.5,0.2-0.3,0.3-0.5
								c-0.3-1-0.3,0.2-0.5,0.6c-0.3-0.2-0.7-0.6-0.5-1.9c-0.4-0.3,0,0.8-0.2,1.1l-0.1-0.3l-0.4,1.4c-0.3-0.4-0.7-1.1-0.8-2.3
								c-0.8,0.2-0.4,2.8-1,3.2c-0.3-0.7,0.1-0.9,0.2-1.4l-0.5,0.1c0.2-1.3,0.6-0.6,0.6-2.2c-0.5,1.6-0.6,0.4-1.2,1.4l0,0.1
								c-0.3,1-0.8,0.2-1.2,0.4c0.2-0.6,0.5-0.7,0.8-0.9c-0.3-0.5-1.2-0.1-1.7,1.2c-0.2-0.2-0.6-0.8-0.2-1.3
								c-0.7-0.3-0.5,1.8-1.1,1.3l0.1-1c-0.3-0.7-0.6-0.4-1-0.2c-0.4,0.3-0.7,0.5-1-0.1l-0.2,1.1c-0.1-0.5-0.3-0.8-0.3-1.2l0.4-0.3
								c-0.2-0.9-0.4,0.8-0.7,0.1c0,0.3,0.1,1.1,0.1,1.5c0.7-0.2,1.4,0.2,2.1,0.5c0.7,0.3,1.4,0.6,2.1,0c0-0.2-0.1-0.3,0-0.6
								c0.1,0.3,0.4,0,0.3,0.7l-0.1,0.1c0.4-0.2,0.6,1.3,0.9,1.4c0.2-0.8,0.8,0.5,0.7-1.1l0.2,1c0.1-0.5,0.1-1.3,0.3-1.6
								c0.2,0.1,0.2,0.7,0,1.1c1,0.7,2.1,0.6,3.2,0.2l-0.3,0.7c0.2,0.4,0.9-1.3,0.7,0.6c0.5-0.7,1.3,0.6,1.4-1.4
								c0.3,1.9,1.2,0.9,1.9,0.6c-0.1-1.7,0.6-0.5,0.7-1.3c0.1,1.3-0.6,1.4-0.6,2.2c0.7-2.1,2,1.5,2.2-2c0.1,0.1,0.1,0.3,0.1,0.4
								c0.1,0,0.3,0.6,0.5,0.7c0.1-0.6-0.2-0.9,0.1-1.1c0.3,0.1,0.1,1.1,0.3,1.5c0.5-0.8,1.2-1.1,1.3-2.5c0.2,0.4,0.3,1.1,0.2,1.4
								c0.7-1.1,0.8,0.1,1.5-0.6c-0.3,0.1-0.1,1.4-0.5,0.9c0.4,1.8,1.2-0.4,1.9,0.5l0.2-1.2c0.4-0.2,0.5,0.9,0.2,1.3
								c0.7,0.6,1-0.1,1.5-0.2c0,0.1,0,0.4-0.1,0.3l0.7-0.1c0.1-0.3,0.3-0.9,0.2-1.6C310.9,178.3,310.8,178.7,310.4,178.3z"/>
							<path class="st33" d="M311,177.6l0-0.1l0,0C311,177.6,311,177.6,311,177.6z"/>
							<path class="st33" d="M304.4,172.9c0.1,0.3,0.1,0.4,0.2,0.5C304.5,173.3,304.5,173.1,304.4,172.9z"/>
							<path class="st33" d="M317.4,175c-0.2-1.3-0.4,0.3-0.7-0.1c0.3-0.2,0.1-1,0-1.4c-0.2,1.8-0.5-0.3-1.1,0.1
								c-0.1-0.6,0.2-0.7,0.2-1.3c-0.3,0.4-0.9,0.7-0.8,1.8c-0.6,0.1-1.1-0.3-1.4-0.1c0.4-0.5,0-1.1,0.2-2.1
								c-0.3,1.3-1.2,2.9-1.8,4.6c-0.2-1.3-0.2-1.4-0.2-2.6c-0.8-0.8-0.1,1.2-0.9,0.9l0.3,0.2c-0.3,0.4-0.2,1.7-0.3,2.6l0.8-0.3
								c0.1,0.9-0.5,0.8-0.6,1.1c-0.2,1.1,0.5,0.7,0.5,1.6c0.1-0.7,0.4-0.6,0.6-0.9l0.1,0.5c0.4,0.4,0.6-0.8,0.9-0.9
								c0,0.1,0.1,0.2,0.1,0.3c0.1-0.5,0.2-1.2,0.4-1.4l-0.2,0.1c0.2-1.2,0.9-1.9,0.3-3l0.9,0.3c0,1.1,0,2.9-0.5,3.1l0,0.5
								c0.4,0.6,1-1.1,0.6-2c0.1-1.4,0.4-1.4,0.8-1.3c0.4,0.1,0.8,0.4,1-0.1c0.1,0.7-0.2,1-0.3,1.5c-0.2,0.1-0.3,0.2-0.4-0.4
								c-0.8,0.5,0.4,2.2-0.5,2.2c-0.5-0.3,0.4-1.3-0.2-1.3l-0.3,2.1c0.4-0.2,0.7-0.6,1-0.9c0.8-0.9,1.6-1.1,2.1-1.1
								c0.5,0,0.9,0.1,0.9,0.1c2.6-1,5.2-2,7.7-3.2c0.8-0.4,1.1-0.6,1.4-0.8c-0.2,0-0.7,0.1-0.5,0c-0.1,0.1-0.4,0.2-0.8,0.3
								c-0.1-0.1,0.4-0.1,0.3-0.2l-0.1,0c0-0.1,0.1-0.1,0.2-0.1c-0.5-0.1-1.4-0.2-1.7,0.3c-0.4-0.2,0.2-0.4,0.4-0.5
								c-1.4-0.2-2.4-0.3-3.8-0.3c0.1,0.8-0.1,0.5-0.2,1l-0.2-0.3c0.1,0.1-0.1,0.7,0.2,0.8c-0.9-0.5-0.8,1.3-1.3,1.8l0-0.5
								c-0.4,0.2-0.6,0.2-0.9,0.6c-0.8-0.8,0.6-0.3,0.3-1.5l-0.2,0.2c0.1-0.5,0.1-1.4,0.3-1.7c-0.6,0.8-1-0.3-1.7,0.4
								c0-0.6,0.7-1.1,0.8-1.2c-0.3-0.1-0.7,0.4-0.8-0.2l0,0.8c-0.4,0.1,0-0.7-0.2-1.2c-0.5,0-0.5,0.7-0.4,1.4
								C317.8,173.9,317.9,174.7,317.4,175z"/>
							<path class="st33" d="M306.5,175.3c0.1,0.1,0.2,0,0.3-0.1C306.7,175.2,306.6,175.2,306.5,175.3z"/>
							<path class="st33" d="M308.5,173c0-0.2,0-0.3,0-0.4C308.5,172.7,308.5,172.9,308.5,173z"/>
							<path class="st33" d="M308.7,171.5c0.1,0.5-0.1,0.5-0.1,1.2C308.7,172.3,309,172.3,308.7,171.5z"/>
							<path class="st33" d="M275,170.9c-0.1,0-0.4-0.1-0.3-0.1c0.1,0,0.3,0.1,0.4,0.1C275.1,170.9,275,170.9,275,170.9z"/>
							<path class="st33" d="M275.8,171.2c0.1,0.1,0.2,0.1,0.4,0.2c0.1,0,0.2-0.1,0.4-0.1C276.1,171.1,276.2,171.3,275.8,171.2z"/>
							<path class="st33" d="M276.8,171.6l-0.1,0C276.8,171.7,276.8,171.6,276.8,171.6z"/>
							<path class="st33" d="M276.9,171.5l0.3-0.2c-0.2,0-0.4,0-0.6,0l0.2,0.1c0,0.1,0.1,0.1,0.1,0.2l0.3-0.1
								C277,171.5,276.9,171.5,276.9,171.5z"/>
							<path class="st33" d="M277.3,171.6C277.3,171.6,277.3,171.6,277.3,171.6C277.3,171.6,277.3,171.6,277.3,171.6z"/>
							<path class="st33" d="M278,172.5c0-0.2,0.2-0.3,0.3-0.4c-0.3-0.2-0.6,0.2-0.8,0c0.6,0-0.1-0.2-0.2-0.4c0,0.2,0.1,0.5,0.5,0.7
								l0.1-0.2C278.1,172.3,277.9,172.3,278,172.5z"/>
							<path class="st33" d="M280.3,172.4l-0.5,0.4c0-0.2-0.5-0.3-0.3-0.8c-0.2,0-0.3,0.2-0.5,0.3c-0.1-0.2-0.1-0.4-0.4-0.2
								c0.6,0.5,0.4,0.5,1,0.8c0,0.1-0.1,0.1-0.2,0l0.3,0.4C280,172.8,280.6,172.9,280.3,172.4z"/>
							<path class="st33" d="M280.8,172.9c-0.3,0-0.7,0.3-0.6,0.7c0.3,0,0.6-0.1,0.8-0.2C280.8,173.4,280.5,173.4,280.8,172.9z"/>
							<path class="st33" d="M281.3,173.1c0.1,0.3,0.1,1,0.5,0.5C281.4,173.5,281.8,172.7,281.3,173.1z"/>
							<path class="st33" d="M283.6,174.2l-0.6-0.6c0.1-0.9,0.4-0.2,0.7-0.6c-0.5-0.3-0.4,0.1-1,0.5c-0.2-0.1-0.5,0.3-0.7,0.4
								C283,173.5,282.6,175.6,283.6,174.2z"/>
							<polygon class="st33" points="282.5,173.1 282.3,173.4 282.7,173.2 							"/>
							<path class="st33" d="M285,175.6c0.2,1.3,0.9-0.5,1.3,0.1c-0.1,0.1,0,0.2-0.2,0.3l0.4,0l0,0.3c0.1-0.8,0.5-1,0.8-1.6
								c-0.3-0.9-0.3,1-0.6,0c0.1-0.3,0.3-0.9,0.4-1.2c-0.3,0.4-0.4,0.8-0.6,1.2c-0.3,0-0.1-0.4-0.1-0.7c-0.4,0.4-0.5,1.5-0.9,1.1
								c-0.2-0.7,0.3-1-0.2-0.8c0,1.2-0.5-0.3-0.8,0.4c-0.3-0.3-0.4-1-0.3-1.4c-0.1,0.8-0.6,1.4-0.9,1.6c0.3-0.2,0.5-0.3,0.8-0.5
								l0,1C284.6,175.2,284.8,175.4,285,175.6L285,175.6z"/>
							<path class="st33" d="M287.2,173.5c0.1-0.1,0.1-0.1,0.2-0.2C287.3,173.3,287.3,173.4,287.2,173.5z"/>
							<polygon class="st33" points="284.2,173.2 284.4,173 284.4,172.7 							"/>
							<path class="st33" d="M287.6,172.7c-0.1,0-0.2,0.3-0.1,0.4l0.2-0.5L287.6,172.7z"/>
							<polygon class="st33" points="287.9,173.5 288,174.2 288.2,173.6 							"/>
							<path class="st33" d="M296.2,174.7c-0.3-0.5-0.3,0.5-0.3,1.2C296.3,176.1,295.9,175,296.2,174.7z"/>
							<path class="st33" d="M301.6,173.4c-0.3-0.7-0.6,0.3-0.9,0.3C301,174.2,301.3,173.9,301.6,173.4z"/>
							<path class="st33" d="M303.7,169.9c-0.1,0.3-0.2,0.5,0,0.6l-0.2,1.8C303.9,173,303.7,170.7,303.7,169.9z"/>
							<path class="st33" d="M306.2,169.7l-0.4,0.7l0.2,0c-0.1,0.7-0.1,1-0.3,1.6C306.1,171.7,306.3,171,306.2,169.7z"/>
							<path class="st33" d="M305.4,172.4c0,0,0.1-0.1,0.1-0.1C305.5,172.1,305.5,171.8,305.4,172.4z"/>
							<path class="st33" d="M305.7,172.2c0-0.1,0-0.1,0-0.2c-0.1,0.1-0.1,0.2-0.2,0.2C305.6,172.4,305.6,172.6,305.7,172.2z"/>
							<path class="st33" d="M306.5,170.6l0.7-0.2l-0.3-0.3C306.9,171.1,306.6,169.4,306.5,170.6z"/>
							<path class="st33" d="M310.3,171.5l0.1,1c0.5,0.2,0.9-1.9,1.3-0.3c-0.2-0.6,0.3-1.1-0.3-1.4
								C311.3,171.7,310.7,171.8,310.3,171.5z"/>
							<path class="st33" d="M312.1,173c-0.1,0.3,0.1,0.5,0.2,0.7c0.2,0.1,0.3-0.3,0.2-0.7C312.4,174.2,312.2,172.2,312.1,173z"/>
							<path class="st33" d="M314.2,172.9c-0.1,0-0.3,0.1-0.1,0.3c0.4-0.1,0.2-1,0.4-1.6C314.1,171,313.9,172.4,314.2,172.9z"/>
							<path class="st33" d="M317.9,178.4c-0.1-0.6-0.4-0.4-0.5-0.2C317.5,178,317.8,178.2,317.9,178.4z"/>
							<polygon class="st33" points="317.5,173 317.3,172.9 317.3,173.9 							"/>
							<polygon class="st33" points="319.8,172.6 320.1,172.1 319.6,172.1 							"/>
							<path class="st33" d="M320.3,172.7l0.4,0l-0.2-0.2C320.3,172.3,320.4,172.7,320.3,172.7z"/>
							<path class="st33" d="M321.5,172.6c0,0-0.1,0-0.1-0.1l-0.3,0.3C321.2,172.7,321.4,172.7,321.5,172.6z"/>
							<path class="st33" d="M328.1,173.2c-0.1,0.1,0.3-0.1,0.4-0.2C328.4,173.1,328.2,173.1,328.1,173.2z"/>
						</g>
					</g>
				</g>
			</g>
		</g>
		<path class="st195" d="M318.6,134.2c-0.7-1-2.1-1.5-3.3-1.2c-1.9,0.4-4.8,1.3-5.2,2.5c-0.3,0.9,1.9,2.3,4.4,3.5
			c3,1.5,6.1-1.9,4.2-4.7C318.6,134.2,318.6,134.2,318.6,134.2z"/>
		<path class="st198" d="M305.5,155.3c0,0-4.6,1.3-5.2-3.4"/>
	</g>
</g>
</svg>
