<?xml version="1.0" encoding="utf-8"?>
<!-- Generator: Adobe Illustrator 26.0.3, SVG Export Plug-In . SVG Version: 6.00 Build 0)  -->
<svg version="1.1" xmlns="http://www.w3.org/2000/svg" xmlns:xlink="http://www.w3.org/1999/xlink" x="0px" y="0px"
	 viewBox="0 0 503.6 377.7" style="enable-background:new 0 0 503.6 377.7;" xml:space="preserve">
<style type="text/css">
	.st0{fill:#FFF0DD;}
	.st1{fill:#6B5C52;}
	.st2{fill:#B8BBBF;}
	.st3{fill:#F9E9CD;}
	.st4{fill:#FFE6BD;}
	.st5{fill:#F5F5F2;}
	.st6{fill:#637189;}
	.st7{fill:#9E9082;}
	.st8{fill:#938D89;}
	.st9{fill:#FFDBC0;}
	.st10{fill:#6E85BD;}
	.st11{fill:#E8D9D6;}
	.st12{fill:#A7BC79;}
	.st13{fill:#FF8080;}
	.st14{fill:#3D3533;}
	.st15{fill:#A1683D;}
	.st16{fill:#CCE0FF;}
	.st17{fill:#383531;}
	.st18{fill:#757060;}
	.st19{fill:#D29F7E;}
	.st20{opacity:0.88;clip-path:url(#SVGID_00000017478562507557045110000005426788467150983599_);}
	.st21{fill:#322015;}
	.st22{fill:#1B1C1E;}
	.st23{fill:none;stroke:#1B1C1E;stroke-width:1.2604;stroke-linecap:round;stroke-linejoin:round;stroke-miterlimit:10;}
	.st24{opacity:0.84;clip-path:url(#SVGID_00000045616508824651067920000005786141931561809838_);}
	.st25{clip-path:url(#SVGID_00000052082908486448312420000018257790518119027594_);}
	.st26{fill:none;stroke:#1B1C1E;stroke-width:1.2604;stroke-linecap:round;stroke-linejoin:round;}
	.st27{fill:#D1493B;}
	.st28{fill:#FFAE1F;}
	.st29{opacity:0.88;clip-path:url(#SVGID_00000061436431892343548140000003078618373632258491_);}
	.st30{opacity:0.7;clip-path:url(#SVGID_00000164501827060540237920000003103059074792241037_);}
	.st31{fill:#2C2C2D;}
	.st32{opacity:0.87;clip-path:url(#SVGID_00000133501066169356034000000001018271611473218218_);}
	.st33{fill:#080809;}
	.st34{opacity:0.7;clip-path:url(#SVGID_00000117649624652924913490000011425019120785125006_);}
	.st35{fill:#FBAF5E;}
	.st36{opacity:0.62;clip-path:url(#SVGID_00000014633320894713430440000008316297331157028017_);}
	.st37{fill:#3E240C;}
	.st38{fill:#BC763C;}
	.st39{opacity:0.62;clip-path:url(#SVGID_00000011713883995326387300000001618344188441326244_);}
	.st40{opacity:0.62;clip-path:url(#SVGID_00000053535033247012732210000014142628852713673393_);}
	.st41{fill:#967258;}
	.st42{opacity:0.53;clip-path:url(#SVGID_00000073706646365725221780000004245882995060687520_);}
	.st43{opacity:0.73;clip-path:url(#SVGID_00000014615560030389480990000013925392538659230650_);}
	.st44{fill:none;stroke:#1B1C1E;stroke-width:1.1311;stroke-linecap:round;stroke-linejoin:round;stroke-miterlimit:10;}
	.st45{fill:#3D291C;}
	.st46{fill:#3D291C;stroke:#967258;stroke-width:1.2604;stroke-linecap:round;stroke-linejoin:round;stroke-miterlimit:10;}
	.st47{fill:#D6D4C8;}
	.st48{fill:#1B1C1E;stroke:#967258;stroke-width:1.2604;stroke-linecap:round;stroke-linejoin:round;stroke-miterlimit:10;}
	.st49{opacity:0.52;clip-path:url(#SVGID_00000057114291972323931470000002355828355481795221_);}
	.st50{fill:#B37D4F;}
	.st51{opacity:0.88;clip-path:url(#SVGID_00000067218345676604564800000002253776818691713697_);}
	.st52{fill:#343434;}
	.st53{fill:#BC6464;}
	.st54{opacity:0.88;clip-path:url(#SVGID_00000142147614229903249480000006995100755394185655_);}
	.st55{fill:#1B1C1E;stroke:#1B1C1E;stroke-width:1.1485;stroke-linecap:round;stroke-linejoin:round;stroke-miterlimit:10;}
	.st56{fill:#8C7265;}
	.st57{opacity:0.88;clip-path:url(#SVGID_00000078032359220477985220000012658406229149397376_);}
	.st58{fill:#1B1C1E;stroke:#1B1C1E;stroke-width:1.3664;stroke-linecap:round;stroke-linejoin:round;stroke-miterlimit:10;}
	.st59{opacity:0.88;clip-path:url(#SVGID_00000132770009228692782070000013826712789732554379_);}
	.st60{fill:none;stroke:#1B1C1E;stroke-width:1.3664;stroke-linecap:round;stroke-linejoin:round;stroke-miterlimit:10;}
	.st61{opacity:0.88;clip-path:url(#SVGID_00000144331689140862861760000010892145498445639059_);}
	.st62{opacity:0.88;clip-path:url(#SVGID_00000023280654084766278940000010003179653211464833_);}
	.st63{fill:#5F6C72;}
	.st64{fill:#1B1C1E;stroke:#1B1C1E;stroke-width:1.5329;stroke-linecap:round;stroke-linejoin:round;stroke-miterlimit:10;}
	.st65{opacity:0.88;clip-path:url(#SVGID_00000032608011784508669230000006545087823444061847_);}
	.st66{clip-path:url(#SVGID_00000064319921556409947990000011491814363319030459_);}
	.st67{opacity:0.58;clip-path:url(#SVGID_00000103230123633470639500000007540960889437459131_);}
	.st68{opacity:0.58;clip-path:url(#SVGID_00000114050775527735685360000009513307923018904251_);}
	.st69{fill:#1B1C1E;stroke:#1B1C1E;stroke-width:1.818;stroke-linecap:round;stroke-linejoin:round;stroke-miterlimit:10;}
	.st70{fill:#FFFFFF;}
	.st71{fill:#CC813E;}
	.st72{opacity:0.58;clip-path:url(#SVGID_00000076584534270903587810000013023938589469972390_);}
	.st73{fill:#AA8C7D;}
	.st74{opacity:0.88;clip-path:url(#SVGID_00000124162245889747923140000013302685154648126635_);}
	.st75{opacity:0.88;clip-path:url(#SVGID_00000178205991298292800910000003924831102495437956_);}
	.st76{fill:#1B1C1E;stroke:#1B1C1E;stroke-width:1.2604;stroke-linecap:round;stroke-linejoin:round;stroke-miterlimit:10;}
	.st77{opacity:0.88;clip-path:url(#SVGID_00000029027966602803471490000000810145509564484541_);}
	.st78{opacity:0.88;clip-path:url(#SVGID_00000042702040159864159510000018123547243249658045_);}
	.st79{opacity:0.88;clip-path:url(#SVGID_00000049194518521883258210000000399013626551569796_);}
	.st80{fill:none;stroke:#1B1C1E;stroke-miterlimit:10;}
	.st81{fill:#B8BDC4;}
	.st82{fill:#B4D3CD;}
	.st83{opacity:0.88;clip-path:url(#SVGID_00000071519534938289905380000016906241458218086795_);}
	.st84{opacity:0.88;clip-path:url(#SVGID_00000029042071258178537700000006823875389045112993_);}
	.st85{fill:#EFBE9D;}
	.st86{opacity:0.88;clip-path:url(#SVGID_00000058547161783135323300000012615582758730347947_);}
	.st87{fill:#443730;}
	.st88{opacity:0.88;clip-path:url(#SVGID_00000031208164301365330850000004210695558204855703_);}
	.st89{opacity:0.88;clip-path:url(#SVGID_00000061469445900299106300000009652877471390485916_);}
	.st90{fill:#E2AF8D;}
	.st91{fill:none;stroke:#1B1C1E;stroke-linecap:round;stroke-linejoin:round;stroke-miterlimit:10;}
	.st92{fill:#1B1C1E;stroke:#1B1C1E;stroke-miterlimit:10;}
	.st93{fill:#FCEA9F;}
	.st94{fill:#F6EBEF;}
	.st95{fill:#D4DADD;}
	.st96{opacity:0.61;clip-path:url(#SVGID_00000152943094120242817950000004186205756030349207_);}
	.st97{fill:#353737;}
	.st98{fill:#B3B9BC;}
	.st99{opacity:0.61;clip-path:url(#SVGID_00000116213114488960474270000016700743469324780932_);}
	.st100{opacity:0.61;clip-path:url(#SVGID_00000005963914602267124620000013543947978663960206_);}
	.st101{fill:#B3B9BC;stroke:#1B1C1E;stroke-miterlimit:10;}
	.st102{fill:#CCE2CF;stroke:#1B1C1E;stroke-miterlimit:10;}
	.st103{fill:#EAD6DE;}
	.st104{fill:#1B1C1E;stroke:#1B1C1E;stroke-width:1.0185;stroke-miterlimit:10;}
	.st105{fill:none;stroke:#1B1C1E;stroke-width:1.0185;stroke-miterlimit:10;}
	.st106{fill:#FBAF5E;stroke:#1B1C1E;stroke-miterlimit:10;}
	.st107{fill:#513F3B;}
	.st108{opacity:0.88;clip-path:url(#SVGID_00000116215051757855092040000003928141326078441393_);}
	.st109{opacity:0.88;clip-path:url(#SVGID_00000088811024343106357680000016873573138898255789_);}
	.st110{fill:#8B2403;}
	.st111{fill:#EBDAD2;}
	.st112{fill:#A84E39;}
	.st113{fill:#751A01;}
	.st114{fill:#EBDAD2;stroke:#1B1C1E;stroke-miterlimit:10;}
	.st115{opacity:0.78;clip-path:url(#SVGID_00000175281401485360728030000009852639709959515030_);}
	.st116{fill:#290B01;}
	.st117{opacity:0.78;clip-path:url(#SVGID_00000088102023007637843150000010318966503761626005_);}
	.st118{opacity:0.78;clip-path:url(#SVGID_00000029754975536391313820000006267143706405627815_);}
	.st119{opacity:0.78;clip-path:url(#SVGID_00000147919630660472199010000017990435824412247717_);}
	.st120{fill:#030203;}
	.st121{fill:#86889A;}
	.st122{fill:#0B060A;}
	.st123{fill:#736E72;}
	.st124{fill:#9E9AA0;}
	.st125{fill:#18172A;}
	.st126{fill:#3B4D84;}
	.st127{fill:#FFA3AC;}
	.st128{fill:none;stroke:#0B080B;stroke-width:1.2005;stroke-miterlimit:10;}
	.st129{fill:#E7E6E8;}
	.st130{fill:#0B080B;}
	.st131{fill:none;stroke:#1B1C1E;stroke-width:1.2005;stroke-linecap:round;stroke-linejoin:round;stroke-miterlimit:10;}
	.st132{opacity:0.78;clip-path:url(#SVGID_00000042010552121001042470000011946104680675678888_);}
	.st133{opacity:0.78;clip-path:url(#SVGID_00000167389471420035152160000010343199239481810864_);}
	.st134{fill:#89745E;}
	.st135{opacity:0.78;clip-path:url(#SVGID_00000160164705864181736610000015539141617128337566_);}
	.st136{fill:#060606;}
	.st137{fill:#4D483E;}
	.st138{fill:#FF8A00;}
	.st139{fill:#50483F;}
	.st140{fill:#131313;}
	.st141{fill:#E8DBCD;}
	.st142{opacity:0.78;clip-path:url(#SVGID_00000167358054272490844380000003349787937417378944_);}
	.st143{opacity:0.78;clip-path:url(#SVGID_00000079477960060049281270000016172494974710598024_);}
	.st144{fill:#191212;}
	.st145{fill:#6C5353;}
	.st146{opacity:0.78;clip-path:url(#SVGID_00000018944884088239091610000016234893454032245125_);}
	.st147{fill:#B3B3B3;}
	.st148{fill:#FF9F2C;}
	.st149{fill:none;stroke:#343434;stroke-miterlimit:10;}
	.st150{fill:#21262A;}
	.st151{fill:#563D3D;}
	.st152{opacity:0.78;clip-path:url(#SVGID_00000144324855187397243140000013817815432272673669_);}
	.st153{fill:#181716;}
	.st154{fill:#706153;}
	.st155{fill:none;stroke:#1B1C1E;stroke-width:0.8477;stroke-miterlimit:10;}
	.st156{fill:#FCBD30;}
	.st157{fill:#E8D9CD;}
	.st158{fill:#534E4A;}
	.st159{opacity:0.78;clip-path:url(#SVGID_00000063621983069298689680000011856370484686484645_);}
	.st160{fill:#7DA050;}
	.st161{opacity:0.78;clip-path:url(#SVGID_00000158026169226097934240000002380457252215435443_);}
	.st162{opacity:0.78;clip-path:url(#SVGID_00000109024460411184976450000000389477712838559386_);}
	.st163{opacity:0.78;clip-path:url(#SVGID_00000125592437637569834350000014477709823050776713_);}
	.st164{fill:#EFEECE;}
	.st165{opacity:0.78;clip-path:url(#SVGID_00000062191760400488506200000015523084937914764449_);}
	.st166{fill:#93543B;}
	.st167{fill:#FF510C;}
	.st168{opacity:0.78;clip-path:url(#SVGID_00000178896068918639948300000015701001702295583883_);}
	.st169{fill:#4B1804;}
	.st170{fill:#000A0E;}
	.st171{opacity:0.78;clip-path:url(#SVGID_00000008838425836458663480000011642734694363271836_);}
	.st172{opacity:0.78;clip-path:url(#SVGID_00000034077911590426536440000005416473755741535166_);}
	.st173{fill:#F9C8A7;}
	.st174{fill:#1B1C1E;stroke:#1B1C1E;stroke-width:1.3738;stroke-miterlimit:10;}
	.st175{fill:none;stroke:#1B1C1E;stroke-width:1.3;stroke-miterlimit:10;}
	.st176{fill:#FFCB6E;}
	.st177{fill:#CECECE;}
	.st178{fill:none;stroke:#1B1C1E;stroke-width:1.3037;stroke-miterlimit:10;}
	.st179{fill:#FFFFFF;stroke:#1B1C1E;stroke-width:1.3;stroke-miterlimit:10;}
	.st180{opacity:0.78;clip-path:url(#SVGID_00000011017484527537218950000003622905070631807656_);}
	.st181{fill:none;stroke:#1B1C1E;stroke-width:1.3738;stroke-miterlimit:10;}
	.st182{opacity:0.45;clip-path:url(#SVGID_00000101077268215321668240000016620349688574384558_);}
	.st183{opacity:0.45;clip-path:url(#SVGID_00000171712685234351642530000010833405625461222538_);}
	.st184{opacity:0.45;clip-path:url(#SVGID_00000033368011058971948930000004640456730053954698_);}
	.st185{opacity:0.45;clip-path:url(#SVGID_00000087399311627788814900000001117897702645669521_);}
	.st186{fill:none;stroke:#1B1C1E;stroke-width:1.3738;stroke-linecap:round;stroke-linejoin:round;stroke-miterlimit:10;}
	.st187{fill:#FFB192;}
	.st188{fill:#EB8226;}
	.st189{fill:#F7EDE1;}
	.st190{opacity:0.78;clip-path:url(#SVGID_00000179645913656029296300000008153460559281571495_);}
	.st191{opacity:0.78;clip-path:url(#SVGID_00000047746479280605012220000014119508489359150475_);}
	.st192{opacity:0.5;clip-path:url(#SVGID_00000075143412275268119080000002441412941466459042_);}
	.st193{opacity:0.5;clip-path:url(#SVGID_00000001622611244864653650000017799469994131673499_);}
	.st194{fill:none;stroke:#06002C;stroke-width:1.3038;stroke-miterlimit:10;}
	.st195{fill:#F7A9B4;}
	.st196{fill:#06002C;}
	.st197{opacity:0.5;clip-path:url(#SVGID_00000045597612898642494200000014724087582347471510_);}
	.st198{fill:none;stroke:#06002C;stroke-width:1.3038;stroke-linecap:round;stroke-linejoin:round;stroke-miterlimit:10;}
	.st199{fill:#9BBEDC;}
	.st200{opacity:0.88;clip-path:url(#SVGID_00000027591625849918115360000013105511668815451804_);}
	.st201{opacity:0.88;clip-path:url(#SVGID_00000083796728919586636530000012658862098006079905_);}
</style>
<g id="Background">
	<rect x="-3.2" y="-2.4" class="st3" width="510" height="382.5"/>
</g>
<g id="Illustration">
	<g>
		<path class="st22" d="M160.9,310.8c0,0-7.4,2.6,12.9,3.4c20.4,0.8,128,1.2,139.1,0c11.1-1.2,32.6-0.5,4-3.4
			c-28.6-2.9-58-1.2-86.9-2.9C201.2,306.1,165.2,307.7,160.9,310.8z"/>
		<g>
			<path class="st56" d="M295.4,212l14.4,88.3c0,0-24-4.6-24.8-9.1s-9.6-61.3-9.6-61.3L295.4,212z"/>
			<g>
				<defs>
					<path id="SVGID_00000149354551998417880680000000545197395193436832_" d="M295.4,212l14.4,88.3c0,0-24-4.6-24.8-9.1
						s-9.6-61.3-9.6-61.3L295.4,212z"/>
				</defs>
				<clipPath id="SVGID_00000106837371568557359660000014861236399194522241_">
					<use xlink:href="#SVGID_00000149354551998417880680000000545197395193436832_"  style="overflow:visible;"/>
				</clipPath>
				<g style="opacity:0.88;clip-path:url(#SVGID_00000106837371568557359660000014861236399194522241_);">
					<g>
						<g>
							<g>
								<path class="st21" d="M290.8,229.2c0.1,0,0.2,0,0.3,0C291.2,229.2,291.1,229.2,290.8,229.2z"/>
								<path class="st21" d="M289,236.3C289,236.3,288.9,236.3,289,236.3l-0.1,0L289,236.3z"/>
								<path class="st21" d="M288.9,236.3l-0.4-0.1C288.7,236.1,288.8,236.2,288.9,236.3z"/>
								<path class="st21" d="M293.5,229.5c0.1,0,0.3,0,0.5,0L293.5,229.5z"/>
								<path class="st21" d="M294.8,230.7c0.1,0,0.1,0.1,0.2,0.1C294.8,230.8,294.8,230.7,294.8,230.7z"/>
								<path class="st21" d="M292.2,222.6c-0.1,0-0.1,0-0.1,0C292.1,222.6,292.1,222.6,292.2,222.6z"/>
								<path class="st21" d="M292.9,222.3c0,0,0-0.1,0-0.1l0.1,0C293.1,222.3,293,222.3,292.9,222.3z"/>
								<path class="st21" d="M293.3,222.7L293.3,222.7C293.4,222.6,293.4,222.7,293.3,222.7z"/>
								<path class="st21" d="M298.8,221l0.4,0.1C299,221.1,298.9,221.1,298.8,221z"/>
								<path class="st21" d="M291.7,222.5c0.1,0,0.2,0,0.4,0C291.9,222.6,291.8,222.6,291.7,222.5z"/>
								<path class="st21" d="M290.7,229.1c0.1,0,0.1,0,0.2,0C290.8,229.2,290.7,229.2,290.7,229.1z"/>
								<path class="st21" d="M293.6,229L293.6,229C293.6,229,293.6,229,293.6,229z"/>
								<path class="st21" d="M287.7,238.7c-0.1,0-0.1,0.1-0.2,0.1C287.5,238.7,287.6,238.7,287.7,238.7z"/>
								<path class="st21" d="M292.3,224.6c1.1,0.5,0.1-0.2,1.2,0.2c-0.3,0-0.5,0.1,0.1,0.3c0.6,0.1,0-0.3,1,0l-0.4,0.1
									c0.4,0.3,1.2,0.4,1.1,0.5c-1.3-0.3,0.3,0.7,0,0.9l0.1,0l0.5,0.5c0,0,0,0,0.1,0c-0.1,0-0.1,0-0.2-0.1
									c0.6,0.3,0.9,0.7,0.7,0.9c-0.7-0.2-0.5,0.7-1.1,0.5c0.2,0,0.3-0.1,0.1-0.3l-0.9-0.3c-0.1,0.2,0.8,0.3,0.2,0.3
									c-1.1-0.5,0.1-0.3,0-0.5c-0.3,0-0.5,0-0.7,0c0.1-0.3-0.2-0.8,1-0.6c-0.2-0.2-0.7-0.3-0.9-0.3c0.8,0-0.6-0.4,0.1-0.4
									c-1.1-0.3-0.7,0.3-1.4,0.2c0.7,0.6-0.2,0.7-0.5,0.9c0.8,0.3,1.5,0.3,2,0.6c0.4,0.5-0.5,0.2-1.1,0.2c0.2,0.3,1.3,0.5,1.2,0.9
									l0.6,0c1,0.6-0.5,0-0.3,0.3c-0.3-0.2-0.6-0.3-0.5-0.4c-0.4-0.2-0.6-0.1-0.7,0l0-0.1c-0.6-0.1-1.2-0.3-1,0
									c0.7,0.1,0.4,0.4,0.7,0.5l0.2,0c-0.3,0.1-0.2,0.3-0.4,0.3l0.2,0.1c-0.3,0-1.2-0.2-1,0c0.3,0.1,1.3,0.2,1.1,0.4
									c0.5,0.2,0.6,0,0.5-0.3c0.1,0.2,0.9,0.6,1,0.4c0.6,0.3-0.3,0.1-0.1,0.3c-0.2-0.1-0.4-0.1-0.6-0.2c0.8,0.3-0.1,0.5-0.7,0.2
									l0.6,0c-0.7-0.3-1.2-0.2-1.6-0.4c1,0.5-0.7,0.4,0.1,0.8l-0.5-0.3c0.2,0.6-1.2,0.5-1.6,0.8c0.4,0,1.6,0.4,1.3,0
									c0.1,0.5,1.1,0.6,1.6,0.9c0.3,0.5-1.2-0.2-1.6-0.3l0.3-0.1c-1.5-0.2,0,1-1,1.1c0.3,0.2,0.2,0,0.4,0c0.6,0.5-0.2,0.1-0.5,0.2
									c0,0.3,0.2,0.6,1.1,0.8c0.1,0.3-0.5-0.2-0.8-0.2l0.2,0.1l-1.1-0.1c0.2,0.3,0.6,0.7,1.3,1.1c-0.3,0.4-2-0.6-2.4-0.4
									c0.4,0.4,0.7,0.2,1,0.3l-0.2,0.3c1,0.3,0.6-0.2,1.7,0.3c-1.2-0.2-0.5,0.2-1.3,0.2l-0.1-0.1c-0.8-0.2-0.4,0.4-0.6,0.5
									c0.5,0.1,0.6-0.1,0.9-0.2c0.3,0.4-0.3,0.8-1.4,0.6c0.1,0.2,0.4,0.6,0.9,0.6c0,0.5-1.5-0.4-1.3,0.1l0.7,0.3
									c0.9,0.9-1.3,0.4-0.5,1.2l-0.9-0.4c0.3,0.2,0.4,0.5,0.8,0.7l0.4-0.1c0.7,0.5-0.8-0.1-0.4,0.3c-0.3-0.1-0.8-0.6-1.1-0.7
									c0.9-0.6-0.1-2,1.2-2.4c0.1,0.1,0.2,0.2,0.4,0.2c-0.2-0.2,0.1-0.3-0.4-0.4l-0.1,0c0.3-0.1-0.7-0.8-0.7-0.9
									c0.7,0.2-0.1-0.6,0.9,0l-0.6-0.4c0.4,0.1,0.9,0.3,1.2,0.3c0-0.2-0.4-0.4-0.8-0.3c-0.2-0.7,0.2-1.4,0.8-1.9l-0.6,0
									c-0.2-0.2,1.1-0.2-0.2-0.6c0.6-0.1-0.1-0.9,1.3-0.4c-1.2-0.7-0.3-0.9,0.1-1.3c1.1,0.5,0.4-0.2,1-0.1c-0.9-0.4-1,0-1.6-0.2
									c1.5,0.1-0.6-1.5,1.8-0.9c-0.1-0.1-0.2-0.1-0.3-0.1c0-0.1-0.3-0.3-0.4-0.5c0.4,0.1,0.5,0.3,0.7,0.2c0-0.2-0.7-0.3-1-0.5
									c0.6-0.1,1-0.5,1.9-0.2c-0.2-0.2-0.7-0.5-0.9-0.4c0.9-0.2,0-0.5,0.7-0.8c-0.1,0.2-1-0.3-0.7,0.1c-1.2-0.7,0.5-0.6,0-1.3
									l0.9,0.1c0.2-0.2-0.6-0.5-0.9-0.4c-0.4-0.6,0.2-0.6,0.3-0.9c-0.1-0.1-0.3-0.1-0.2,0l0.1-0.4c0.2,0,0.7,0,1.2,0.2
									C292.4,224.3,292.1,224.3,292.3,224.6z"/>
								<path class="st21" d="M292.9,224.4l0.1,0L292.9,224.4C293,224.4,292.9,224.4,292.9,224.4z"/>
								<path class="st21" d="M295.1,229.7c-0.2-0.1-0.3-0.2-0.3-0.2C294.9,229.5,295,229.6,295.1,229.7z"/>
								<path class="st21" d="M295.9,220.8c1.2,0.5-0.3,0.2,0,0.5c0.3-0.1,1,0.2,1.3,0.4c-1.7-0.4,0.2,0.4-0.3,0.7
									c0.5,0.2,0.7,0,1.3,0.2c-0.5,0.1-0.8,0.4-1.8,0.1c-0.2,0.4,0.1,0.8-0.2,1c0.5-0.1,0.9,0.3,1.8,0.4c-1.2-0.1-2.7,0.1-4.1,0
									c1,0.4,1.1,0.5,2,0.7c0.5,0.7-1-0.2-0.8,0.4l-0.1-0.3c-0.4,0.1-1.3-0.2-2-0.4l0.3-0.5c-0.7-0.2-0.7,0.1-0.9,0.1
									c-0.9-0.1-0.5-0.5-1.2-0.7c0.6,0.1,0.5-0.1,0.7-0.2l-0.4-0.2c-0.3-0.4,0.7-0.2,0.7-0.4c-0.1-0.1-0.2-0.1-0.2-0.1
									c0.4,0.1,1,0.2,1.2,0.1l-0.1,0.1c0.9,0.1,1.7-0.1,2.5,0.5l-0.1-0.6c-1-0.3-2.5-0.7-2.7-0.4l-0.4-0.1c-0.5-0.4,1-0.4,1.7,0.1
									c2.4,0.6,0.4-0.8,1.5-0.8c-0.6-0.3-0.9-0.1-1.4-0.2c-0.1,0.1-0.2,0.2,0.4,0.4c-0.5,0.4-2-0.8-1.9-0.2c0.2,0.4,1.1,0,1.1,0.5
									l-1.9-0.3c0.1-0.2,0.5-0.4,0.8-0.5c1.6-0.7,0.9-1.9,0.9-1.9c0.8-1.6,1.6-3.2,2.4-4.8c0.4-0.4,0.5-0.6,2.2-0.2
									c0.3,0.2,0,0.5,0.7,0.6c-0.7-0.2-1.1-0.1-1.1,0.2c0.6,0.3,0.4-0.1,0.5,0l0,0.1c0.3,0.1,0.6,0.1,0.6,0.1
									c0.8,0.7,0.4,1.1-0.9,0.9c0.6,0.5,1,0.2,1.6,0.3c0.2,1-0.2,1.6-0.4,2.5c-1.1-0.4-0.7-0.2-1.5-0.3l0.4,0.2
									c-0.2-0.1-1-0.3-1.2-0.5c0.7,0.8-1.7,0.1-2.3,0.2l0.6,0.2c-0.2,0.2-0.3,0.3-0.7,0.5c0.9,0.9,0.3-0.3,1.7,0.3l-0.3,0
									c0.6,0.1,1.6,0.4,2,0.4c-1.1,0.1,0.1,0.8-0.7,1c0.7,0.2,1.3-0.1,1.4-0.2c0,0.2-0.6,0.3,0,0.5l-0.8-0.3
									c-0.2,0.2,0.8,0.2,1.2,0.5C298.8,221.9,296.6,220.4,295.9,220.8z"/>
								<path class="st21" d="M293.9,227.8c0-0.1,0-0.2,0.1-0.2C294,227.7,294,227.7,293.9,227.8z"/>
								<path class="st21" d="M295.9,227c0.1,0,0.2,0.1,0.3,0.1C296.1,227.1,296,227.1,295.9,227z"/>
								<path class="st21" d="M297.1,227.3c-0.4-0.2-0.4-0.1-0.9-0.2C296.5,227.1,296.6,226.9,297.1,227.3z"/>
								<path class="st21" d="M287.2,248.8c-0.2-0.1-0.6-0.1-0.7-0.3l0.4-0.1L287.2,248.8z"/>
								<path class="st21" d="M286.8,247.7l-0.1-0.4l1.1,0.5C287.5,248,287,247.5,286.8,247.7z"/>
								<path class="st21" d="M286.7,246.7l-0.3-0.1C286.5,246.6,286.6,246.6,286.7,246.7z"/>
								<path class="st21" d="M287.1,246.9l0.8,0.4l-0.7,0l-0.1-0.2c-0.2-0.2-0.3-0.3-0.4-0.4l0.6,0.2
									C287.2,246.9,287,246.9,287.1,246.9z"/>
								<path class="st21" d="M287.3,246.7c0.1,0.1,0.1,0.1,0.2,0.2C287.4,246.8,287.4,246.8,287.3,246.7z"/>
								<path class="st21" d="M286.3,245.3c0.2,0.2,0.7,0.3,1,0.5c0.1,0.4-0.9-0.2-0.7,0.2c0.8,0,0.4,0.4,0.7,0.7
									c-0.6-0.5-1-0.9-1.1-1.2l0.5,0.2C286.8,245.6,286.5,245.5,286.3,245.3z"/>
								<path class="st21" d="M288.2,244.7l-0.8-0.2c0.3,0.2,0.2,0.5,0.9,0.9c-0.2,0.1-0.5-0.1-0.7-0.1c0.3,0.3,0.5,0.5,0,0.3
									c-0.2-0.7-0.4-0.7-0.5-1.2c-0.2-0.1-0.2,0-0.2,0.1l-0.2-0.5C287.5,244.4,287.8,244.1,288.2,244.7z"/>
								<path class="st21" d="M287.8,244c-0.2,0.2-0.9-0.1-1.3-0.4l0.8-0.1C287.3,243.6,287.1,243.7,287.8,244z"/>
								<path class="st21" d="M288,243.7c-0.3-0.3-1.1-0.8-0.2-0.6C287.5,243.3,288.6,243.7,288,243.7z"/>
								<path class="st21" d="M288.1,241.8l0.3,0.6c0.9,0.5,0.4-0.1,0.9,0c0,0.5-0.2,0.2-0.9,0.2c0,0.1-0.5,0-0.9,0
									C288.4,242.5,286.1,241.4,288.1,241.8z"/>
								<polygon class="st21" points="288.6,243.1 288.2,243 288.6,242.9 								"/>
								<path class="st21" d="M287.5,240.4c-1-0.8,0.8-0.2,0.5-0.7c-0.1,0-0.2-0.1-0.3-0.1l0.2-0.2l-0.2-0.1c0.7,0.3,1,0.2,1.6,0.3
									c0.6,0.6-0.9-0.2-0.2,0.3c0.3,0.1,0.8,0.3,1.1,0.3c-0.4,0-0.8-0.1-1.2-0.2c-0.1,0.1,0.3,0.3,0.5,0.4c-0.5,0-1.5-0.4-1.3-0.1
									c0.5,0.4,1,0.3,0.6,0.5c-1-0.6,0,0.4-0.7,0.2c0.1,0.3,0.7,0.8,1.1,0.9c-0.8-0.4-1.6-0.5-1.9-0.5l0.9,0l-0.9-0.6
									C287.6,240.8,287.6,240.6,287.5,240.4L287.5,240.4z"/>
								<path class="st21" d="M290.1,240.3c0.1,0,0.1,0,0.2,0C290.3,240.3,290.2,240.3,290.1,240.3z"/>
								<polygon class="st21" points="289.3,242.1 289.5,242.1 289.8,242.3 								"/>
								<path class="st21" d="M290.9,240.4c0,0.1-0.3-0.1-0.3-0.1l0.5,0.1L290.9,240.4z"/>
								<polygon class="st21" points="290.4,239.9 289.9,239.5 290.4,239.6 								"/>
								<path class="st21" d="M292,234.4c0.3,0.3-0.4,0-0.9-0.1C291.1,233.9,291.7,234.5,292,234.4z"/>
								<path class="st21" d="M294.1,231.4c0.4,0.4-0.4,0.3-0.4,0.5C293.4,231.6,293.7,231.4,294.1,231.4z"/>
								<path class="st21" d="M297,230.8c-0.2,0-0.4,0-0.4-0.1l-1.3-0.3C295,230,296.5,230.6,297,230.8z"/>
								<path class="st21" d="M297.8,229.3l-0.6,0.1l0-0.1c-0.5-0.1-0.8-0.1-1.2-0.2C296.3,228.9,296.9,228.9,297.8,229.3z"/>
								<path class="st21" d="M295.7,229.2c0,0,0.1,0,0.1-0.1C295.9,229.2,296.1,229.3,295.7,229.2z"/>
								<path class="st21" d="M295.9,229c0.1,0,0.1,0,0.2,0C295.9,229,295.9,229.1,295.9,229C295.7,229,295.6,229,295.9,229z"/>
								<path class="st21" d="M297.2,228.8l0.3-0.4l0.2,0.3C296.9,228.5,298.1,229.1,297.2,228.8z"/>
								<path class="st21" d="M297.4,226.2l-0.7-0.3c-0.1-0.3,1.7-0.1,0.5-0.7c0.4,0.3,0.9,0.1,1,0.5
									C297.5,225.6,297.3,226,297.4,226.2z"/>
								<path class="st21" d="M296.7,224.8c-0.2,0-0.4-0.2-0.6-0.3c0-0.1,0.3-0.1,0.6,0C295.8,224.3,297.4,224.9,296.7,224.8z"/>
								<path class="st21" d="M297.3,223.5c0,0.1-0.2,0.2-0.3,0c0.1-0.2,0.9,0.1,1.5,0.2C298.8,224,297.6,223.8,297.3,223.5z"/>
								<path class="st21" d="M292.5,219.5c0.6,0.3,0.5,0.4,0.2,0.4C292.9,219.9,292.8,219.7,292.5,219.5z"/>
								<polygon class="st21" points="297.8,221.4 297.9,221.5 296.9,221.2 								"/>
								<polygon class="st21" points="298.9,220.1 299.6,220.1 299.4,220.3 								"/>
								<path class="st21" d="M298.8,219.7l0.1-0.2l0.2,0.2C299.3,219.9,298.9,219.6,298.8,219.7z"/>
								<path class="st21" d="M299.2,219c-0.1,0,0,0.1,0.1,0.1l-0.5,0.1L299.2,219z"/>
								<path class="st21" d="M296.8,213.5c-0.7-0.2-0.2-0.3-0.3-0.4C296.7,213.2,297.4,213.6,296.8,213.5z"/>
							</g>
						</g>
					</g>
				</g>
			</g>
			<path class="st56" d="M261.4,68.2c0,0,11.6-0.8,20.4,0c8.8,0.8,13.7,11.2,13.7,11.2s32.3,2.3,32.8,2.7
				c0.5,0.3,4.1,18.5-11.7,27.2c-12.8,7-26.3,7-26.3,7s-2.1,6.6-2.4,12c-0.3,5.3,2,9.8,5.8,16.9c3.8,7.1,11.2,22.5,9.8,40.9
				c-0.4,5-3.1,16.5-6.9,30.5c-1.2,4.4-2.5,9.1-3.9,13.9c-0.9,3.3-1.9,6.6-2.9,10c-9.9,34.1-21.5,70.7-21.5,70.7s-42.5,0-59.6,0
				s-30.6-7.6-24.7-43c5.6-34,21.9-55.5,63.7-155.9C247.6,112.1,250.8,70.9,261.4,68.2z"/>
			<path class="st23" d="M296.4,216.5c-1.2,4.4-2.5,9.1-3.9,13.9c-0.9,3.3-1.9,6.6-2.9,10"/>
			<path class="st23" d="M192,263.5c0,0-1.4,16,14.3,22c15.7,5.9,35,5.7,34.8,25.6"/>
			<path class="st56" d="M272,165.4c0,0,6.2,3.5,9.7,26.5c3.5,23,16,102.8,16,102.8s24.2-1.4,23,16.4h-67.9l-3.7-105.9
				C249.2,205.1,260.5,162.6,272,165.4z"/>
			<path class="st23" d="M272,165.4c0,0,6.2,3.5,9.7,26.5c3.5,23,16,102.8,16,102.8s24.2-1.4,23,16.4"/>
			<path class="st22" d="M260.9,67.8c0,0,3,2.3,2,7.4c-1,5.1-7,17.5-7.1,23.2s4.4,23,0,25.5c-2.4,1.4-8.5,0.8-17.5-9.6
				c-9.1-10.4-12.4-15.3-7.6-23.5S252.6,61.7,260.9,67.8z"/>
			<path class="st23" d="M322.9,104.2c0,0-4,3.9-13.1,4.4c-9.1,0.4-20.6,0.7-24.1,3.7"/>
			<path class="st58" d="M320.2,81c0,0-1.2,6.4,2,8.8s6.6,0.6,6.6,0.8c0,0,1.1-4-0.1-8.3c-0.1-0.3-0.3-0.5-0.6-0.5
				C326.4,81.5,320.8,80.9,320.2,81z"/>
			<path class="st22" d="M285,81.6c0,1.8-1.1,3.2-2.5,3.2c-1.4,0-2.5-1.5-2.5-3.2s1.1-1.8,2.5-1.8C283.9,79.8,285,79.8,285,81.6z"/>
			<path class="st56" d="M256.2,311h25.4c0,0,3.7-16.4-23.9-15.9c0,0,14.3-21.9,11.2-44.4c-3.2-23.3-29-35.2-52.4-16.7"/>
			<path class="st23" d="M274,311c0,0,0.3-5.6-2-8.5"/>
			<path class="st23" d="M265.3,311c0,0-0.2-5.8-3.3-7.7"/>
			<path class="st23" d="M313.5,311c0,0,0.3-5.6-2-8.5"/>
			<path class="st23" d="M306.4,311c0,0-0.2-5.8-3.3-7.7"/>
			<path class="st23" d="M281.6,311c0,0,3.7-16.4-23.9-15.9c0,0,14.3-21.9,11.2-44.4c-3.2-23.3-29-35.2-52.4-16.7"/>
			<g>
				<defs>
					<path id="SVGID_00000102506469075308051510000018287192403871310489_" d="M290.3,116.1c0,0-8,0.2-16.8,0c0,0,11,12.6,16.8,12.8
						c2.2,0.1-2.6,0.4-2.4-1.8C288.3,123.1,290.3,116.1,290.3,116.1z"/>
				</defs>
				<clipPath id="SVGID_00000172400254631945411220000013967282882203201722_">
					<use xlink:href="#SVGID_00000102506469075308051510000018287192403871310489_"  style="overflow:visible;"/>
				</clipPath>
				<g style="opacity:0.88;clip-path:url(#SVGID_00000172400254631945411220000013967282882203201722_);">
					<g>
						<g>
							<g>
								<path class="st21" d="M283,116.1c0,0.1,0,0.2,0,0.2C283,116.3,283,116.2,283,116.1z"/>
								<path class="st21" d="M277.7,115.7C277.7,115.7,277.7,115.7,277.7,115.7L277.7,115.7L277.7,115.7z"/>
								<path class="st21" d="M277.7,115.6l0-0.3C277.8,115.4,277.8,115.5,277.7,115.6z"/>
								<path class="st21" d="M283.2,118c0,0.1,0.1,0.2,0.1,0.4L283.2,118z"/>
								<path class="st21" d="M282.5,119.1c0,0.1,0,0.1-0.1,0.1C282.5,119.2,282.5,119.2,282.5,119.1z"/>
								<path class="st21" d="M287.8,115.8c0,0,0-0.1,0-0.1C287.8,115.8,287.8,115.8,287.8,115.8z"/>
								<path class="st21" d="M288.1,116.3C288.2,116.3,288.2,116.3,288.1,116.3L288.1,116.3C288.2,116.5,288.2,116.4,288.1,116.3z"
									/>
								<path class="st21" d="M288,116.7L288,116.7C288,116.7,288,116.7,288,116.7z"/>
								<path class="st21" d="M290.4,120.1l0,0.3C290.4,120.3,290.4,120.2,290.4,120.1z"/>
								<path class="st21" d="M287.7,115.5c0,0.1,0,0.2,0,0.3C287.8,115.6,287.7,115.6,287.7,115.5z"/>
								<path class="st21" d="M283,115.9c0,0.1,0,0.1,0,0.1C283,116,283,116,283,115.9z"/>
								<path class="st21" d="M283.6,118L283.6,118C283.6,118,283.6,118,283.6,118z"/>
								<path class="st21" d="M275.8,115.1c0,0-0.1-0.1-0.1-0.1C275.8,114.9,275.9,114.9,275.8,115.1z"/>
								<path class="st21" d="M286.4,116.4c-0.1,0.9,0.2,0.1,0.1,0.9c-0.1-0.2-0.1-0.3-0.2,0.1c0,0.5,0.2,0,0.2,0.7l-0.1-0.3
									c-0.1,0.3,0,0.9-0.1,0.9c0-1-0.5,0.3-0.6,0.2l0,0.1l-0.3,0.4c0,0,0,0,0,0.1c0-0.1,0-0.1,0-0.2c-0.1,0.5-0.3,0.8-0.5,0.7
									c0-0.6-0.6-0.3-0.6-0.7c0.1,0.1,0.1,0.2,0.2,0l0.1-0.7c-0.2,0-0.1,0.6-0.2,0.2c0.1-0.9,0.2,0,0.4-0.1c0-0.2-0.1-0.4-0.1-0.5
									c0.2,0,0.5-0.3,0.6,0.6c0.1-0.2,0.1-0.6,0.1-0.7c0.1,0.5,0.2-0.5,0.3,0c0-0.8-0.3-0.5-0.4-1c-0.3,0.6-0.5,0-0.7-0.2
									c-0.1,0.6,0,1.2-0.1,1.5c-0.3,0.4-0.2-0.4-0.3-0.7c-0.2,0.2-0.2,1-0.4,1l0.1,0.4c-0.3,0.9-0.1-0.4-0.3-0.2
									c0.1-0.2,0.1-0.4,0.2-0.4c0.1-0.3,0-0.5-0.1-0.5l0,0c0-0.4,0-0.9-0.2-0.7c0,0.5-0.2,0.4-0.3,0.6l0,0.1
									c-0.1-0.2-0.2-0.1-0.3-0.2l0,0.1c-0.1-0.2,0-0.9-0.2-0.7c0,0.3,0,1-0.1,0.8c0,0.4,0.1,0.5,0.3,0.3c-0.2,0.1-0.3,0.7-0.2,0.8
									c-0.1,0.5-0.1-0.2-0.3,0c0-0.1,0-0.3,0.1-0.5c-0.1,0.7-0.3,0-0.3-0.5l0.1,0.4c0.1-0.5-0.1-0.9,0.1-1.2
									c-0.2,0.8-0.4-0.5-0.6,0.2l0.1-0.4c-0.4,0.2-0.5-0.8-0.8-1.1c0.1,0.3-0.1,1.2,0.2,0.9c-0.4,0.1-0.3,0.9-0.4,1.3
									c-0.3,0.3,0-0.9,0-1.2l0.1,0.2c0-1.1-0.7,0.1-0.9-0.6c-0.1,0.3,0,0.2,0.1,0.3c-0.3,0.5-0.1-0.1-0.2-0.4
									c-0.2,0.1-0.4,0.3-0.4,0.9c-0.2,0.1,0.1-0.4,0-0.6l-0.1,0.1l0-0.8c-0.2,0.2-0.5,0.5-0.7,1.1c-0.3-0.2,0.2-1.5,0-1.8
									c-0.2,0.3-0.1,0.5-0.1,0.8l-0.2-0.1c-0.1,0.8,0.2,0.4,0,1.3c0-0.9-0.2-0.3-0.3-0.9l0-0.1c0-0.6-0.3-0.3-0.5-0.4
									c0,0.4,0.1,0.4,0.2,0.6c-0.2,0.3-0.6-0.1-0.6-0.9c-0.1,0.1-0.4,0.4-0.3,0.7c-0.4,0,0.1-1.1-0.2-1l-0.1,0.6
									c-0.5,0.7-0.4-0.9-0.9-0.2l0.2-0.7c-0.1,0.3-0.3,0.4-0.4,0.6l0.1,0.3c-0.3,0.5,0-0.6-0.3-0.2c0.1-0.2,0.3-0.6,0.4-0.9
									c0.5,0.6,1.4-0.3,1.9,0.6c0,0.1-0.1,0.2-0.1,0.3c0.1-0.2,0.2,0.1,0.3-0.3l0-0.1c0.1,0.2,0.5-0.6,0.6-0.6
									c0,0.5,0.4-0.1,0.1,0.7l0.2-0.5c0,0.3-0.1,0.7-0.1,0.9c0.1,0,0.2-0.4,0.2-0.6c0.5-0.2,1,0,1.4,0.3l0-0.4
									c0.1-0.2,0.3,0.8,0.4-0.2c0.1,0.4,0.7-0.2,0.5,0.9c0.3-1,0.6-0.3,0.9-0.1c-0.2,0.9,0.2,0.3,0.2,0.7c0.2-0.7-0.1-0.7-0.1-1.2
									c0.2,1.1,1-0.6,0.9,1.1c0-0.1,0.1-0.1,0.1-0.2c0.1,0,0.2-0.3,0.3-0.4c0,0.3-0.2,0.4,0,0.6c0.1,0,0.1-0.5,0.2-0.8
									c0.2,0.4,0.5,0.6,0.4,1.4c0.1-0.2,0.2-0.6,0.2-0.7c0.3,0.6,0.4-0.1,0.7,0.3c-0.1,0,0-0.8-0.2-0.5c0.3-1,0.5,0.2,0.9-0.2
									l0,0.7c0.2,0.1,0.2-0.5,0.1-0.7c0.3-0.4,0.5,0,0.7,0.1c0-0.1,0-0.2,0-0.2l0.3,0c0,0.2,0.1,0.5,0.1,0.9
									C286.7,116.4,286.6,116.1,286.4,116.4z"/>
								<path class="st21" d="M286.7,116.7L286.7,116.7L286.7,116.7C286.7,116.8,286.7,116.8,286.7,116.7z"/>
								<path class="st21" d="M283.3,119.2c0.1-0.2,0.1-0.2,0.1-0.3C283.4,119,283.4,119.1,283.3,119.2z"/>
								<path class="st21" d="M289.8,118c-0.1,1-0.2-0.2-0.4,0.1c0.1,0.2,0.1,0.7,0.1,1c-0.2-1.3-0.2,0.3-0.5,0
									c0,0.4,0.1,0.5,0.1,0.9c-0.2-0.3-0.5-0.5-0.5-1.2c-0.3,0-0.5,0.2-0.7,0.1c0.2,0.3,0,0.7,0.1,1.3c-0.2-0.8-0.6-1.9-0.9-2.9
									c-0.1,0.8-0.1,0.9-0.1,1.6c-0.4,0.5-0.1-0.7-0.4-0.5l0.2-0.1c-0.1-0.2-0.1-1-0.1-1.5l0.4,0.1c0-0.5-0.2-0.5-0.3-0.6
									c-0.1-0.7,0.2-0.4,0.2-0.9c0,0.4,0.2,0.3,0.3,0.5l0-0.3c0.2-0.3,0.2,0.4,0.4,0.4c0-0.1,0-0.1,0-0.2c0,0.3,0.1,0.7,0.2,0.8
									l-0.1,0c0.1,0.7,0.4,1.1,0.2,1.9l0.4-0.2c0-0.8,0-1.9-0.3-2l0-0.3c0.2-0.4,0.5,0.6,0.3,1.2c0.1,1.8,0.6,0.1,0.9,0.8
									c0-0.5-0.1-0.7-0.2-1c-0.1-0.1-0.1-0.1-0.2,0.3c-0.4-0.3,0.1-1.6-0.3-1.4c-0.2,0.2,0.2,0.8-0.1,0.9l-0.2-1.4
									c0.2,0,0.3,0.3,0.5,0.4c0.8,0.9,1.4,0.2,1.4,0.2c0.6,0.1,1.2,0.1,1.8,0.2c0.6,0,1.2,0.1,1.7,0c0.4,0.1,0.5,0,0.9,1.3
									c0,0.3-0.3,0.2-0.1,0.7c-0.1-0.5-0.3-0.7-0.5-0.6c0.1,0.5,0.2,0.2,0.2,0.3l0,0c0.1,0.2,0.1,0.4,0.2,0.4
									c-0.1,0.8-0.6,0.7-0.9-0.2c-0.1,0.5,0.2,0.8,0.4,1.1c-0.7,0.5-1.2,0.4-1.9,0.6c-0.1-0.9-0.1-0.5-0.2-1.1l0,0.3
									c0-0.2-0.1-0.8,0-0.9c-0.4,0.7-0.5-1.1-0.8-1.5l0,0.5c-0.2-0.1-0.3-0.1-0.5-0.3c-0.3,0.9,0.3,0.1,0.2,1.2l-0.1-0.2
									c0.1,0.4,0.2,1.2,0.3,1.5c-0.4-0.7-0.5,0.3-0.9-0.3c0,0.5,0.4,0.9,0.5,1c-0.1,0.1-0.4-0.3-0.4,0.2l0-0.6c-0.2-0.1,0,0.6,0,1
									C289.8,120.4,290.2,118.4,289.8,118z"/>
								<path class="st21" d="M284.5,118.1c0.1,0,0.1,0,0.2,0.1C284.6,118.1,284.5,118.1,284.5,118.1z"/>
								<path class="st21" d="M285.4,119.3c0,0.1,0,0.2,0,0.2C285.4,119.5,285.4,119.4,285.4,119.3z"/>
								<path class="st21" d="M285.4,120.2c0.1-0.3,0-0.3,0-0.7C285.5,119.8,285.6,119.8,285.4,120.2z"/>
								<path class="st21" d="M268.4,115.5c0.1-0.2,0-0.4,0.1-0.5l0.1,0.3L268.4,115.5z"/>
								<path class="st21" d="M269.2,115.1l0.3-0.1l-0.3,0.8C269,115.7,269.4,115.3,269.2,115.1z"/>
								<path class="st21" d="M269.9,115l0.1-0.2C270,114.9,270,115,269.9,115z"/>
								<path class="st21" d="M269.8,115.4l-0.2,0.6l0-0.5L269.8,115.4c0-0.2,0.1-0.2,0.2-0.3l-0.1,0.4
									C269.8,115.4,269.8,115.3,269.8,115.4z"/>
								<path class="st21" d="M270,115.5c0,0.1-0.1,0.1-0.1,0.2C269.9,115.6,270,115.5,270,115.5z"/>
								<path class="st21" d="M270.9,114.6c-0.1,0.2-0.2,0.5-0.3,0.8c-0.3,0.1,0.1-0.7-0.2-0.5c0,0.6-0.2,0.3-0.5,0.6
									c0.3-0.5,0.6-0.8,0.8-0.9l-0.1,0.4C270.8,115,270.8,114.8,270.9,114.6z"/>
								<path class="st21" d="M271.6,115.9l0.1-0.6c-0.1,0.2-0.4,0.2-0.6,0.7c-0.1-0.1,0-0.4,0-0.5c-0.2,0.2-0.3,0.4-0.2,0
									c0.5-0.2,0.5-0.4,0.8-0.4c0-0.1,0-0.1-0.1-0.1l0.3-0.2C271.7,115.4,271.9,115.6,271.6,115.9z"/>
								<path class="st21" d="M272,115.6c-0.2-0.1,0-0.6,0.2-1l0.2,0.6C272.3,115.2,272.2,115.1,272,115.6z"/>
								<path class="st21" d="M272.3,115.7c0.2-0.3,0.5-0.8,0.4-0.2C272.5,115.3,272.3,116.2,272.3,115.7z"/>
								<path class="st21" d="M273.6,115.6l-0.4,0.3c-0.3,0.7,0.1,0.3,0.1,0.6c-0.3,0.1-0.2-0.2-0.2-0.7c-0.1,0-0.1-0.4-0.1-0.6
									C273.1,115.9,273.8,114.2,273.6,115.6z"/>
								<polygon class="st21" points="272.7,116.1 272.8,115.8 272.9,116.1 								"/>
								<path class="st21" d="M274.6,115.1c0.5-0.8,0.2,0.6,0.5,0.3c0-0.1,0-0.1,0-0.2l0.2,0.1l0.1-0.2c-0.2,0.5,0,0.8-0.1,1.2
									c-0.4,0.5,0.1-0.7-0.3-0.1c0,0.2-0.1,0.6-0.1,0.8c0-0.3,0-0.6,0.1-0.9c-0.1-0.1-0.2,0.2-0.2,0.4c-0.1-0.3,0.2-1.1-0.1-1
									c-0.3,0.4-0.1,0.7-0.3,0.5c0.4-0.8-0.3,0.1-0.2-0.5c-0.2,0.1-0.5,0.6-0.6,0.9c0.2-0.6,0.2-1.2,0.2-1.5l0.1,0.6l0.3-0.7
									C274.3,115.2,274.4,115.2,274.6,115.1L274.6,115.1z"/>
								<path class="st21" d="M275,116.9c0,0.1,0,0.1,0,0.2C275,117.1,275,117,275,116.9z"/>
								<polygon class="st21" points="273.5,116.5 273.5,116.7 273.4,116.9 								"/>
								<path class="st21" d="M275,117.5c0,0,0-0.2,0.1-0.3l0,0.4L275,117.5z"/>
								<polygon class="st21" points="275.3,117.1 275.5,116.7 275.5,117.1 								"/>
								<path class="st21" d="M279.5,117.6c-0.2,0.2-0.1-0.3,0-0.7C279.7,116.9,279.4,117.4,279.5,117.6z"/>
								<path class="st21" d="M281.9,118.8c-0.2,0.3-0.3-0.2-0.4-0.2C281.7,118.3,281.9,118.5,281.9,118.8z"/>
								<path class="st21" d="M282.8,120.7c0-0.2-0.1-0.3,0-0.3l0-1C283.1,119.2,282.9,120.3,282.8,120.7z"/>
								<path class="st21" d="M284.1,121l-0.2-0.4l0.1,0c0-0.4,0-0.6-0.1-0.9C284.1,120,284.2,120.4,284.1,121z"/>
								<path class="st21" d="M283.8,119.6C283.8,119.6,283.9,119.6,283.8,119.6C283.8,119.7,283.8,119.9,283.8,119.6z"/>
								<path class="st21" d="M284,119.6c0,0,0,0.1,0,0.1C283.9,119.7,283.9,119.7,284,119.6C283.9,119.5,283.9,119.5,284,119.6z"/>
								<path class="st21" d="M284.3,120.6l0.4,0.1l-0.2,0.2C284.5,120.3,284.3,121.2,284.3,120.6z"/>
								<path class="st21" d="M286.3,120.3l0.1-0.6c0.2-0.1,0.4,1.2,0.6,0.2c-0.1,0.3,0.1,0.7-0.1,0.8
									C286.8,120.2,286.5,120.2,286.3,120.3z"/>
								<path class="st21" d="M287.2,119.5c0-0.2,0-0.3,0.1-0.4c0.1-0.1,0.2,0.2,0.1,0.4C287.4,118.7,287.3,120,287.2,119.5z"/>
								<path class="st21" d="M288.3,119.6c-0.1,0-0.2-0.1-0.1-0.2c0.2,0,0.1,0.7,0.2,1.1C288.2,120.8,288.1,119.9,288.3,119.6z"/>
								<path class="st21" d="M289.9,115.4c0,0.5-0.2,0.4-0.2,0.3C289.7,115.7,289.8,115.6,289.9,115.4z"/>
								<polygon class="st21" points="289.9,119.5 289.8,119.6 289.8,118.9 								"/>
								<polygon class="st21" points="291.1,119.9 291.3,120.4 291,120.3 								"/>
								<path class="st21" d="M291.3,119.8l0.2,0l-0.1,0.2C291.4,120.1,291.4,119.8,291.3,119.8z"/>
								<path class="st21" d="M292,119.8c0,0,0,0-0.1,0.1l-0.2-0.3L292,119.8z"/>
								<path class="st21" d="M294.6,116.4c-0.2-0.5,0.1-0.2,0.1-0.3C294.8,116.2,294.8,116.8,294.6,116.4z"/>
							</g>
						</g>
					</g>
				</g>
			</g>
			<line class="st60" x1="257.7" y1="295.2" x2="251.8" y2="295.2"/>
		</g>
	</g>
</g>
</svg>
