<?xml version="1.0" encoding="utf-8"?>
<!-- Generator: Adobe Illustrator 26.0.3, SVG Export Plug-In . SVG Version: 6.00 Build 0)  -->
<svg version="1.1" xmlns="http://www.w3.org/2000/svg" xmlns:xlink="http://www.w3.org/1999/xlink" x="0px" y="0px"
	 viewBox="0 0 503.6 377.7" style="enable-background:new 0 0 503.6 377.7;" xml:space="preserve">
<style type="text/css">
	.st0{fill:#FFF0DD;}
	.st1{fill:#6B5C52;}
	.st2{fill:#B8BBBF;}
	.st3{fill:#F9E9CD;}
	.st4{fill:#FFE6BD;}
	.st5{fill:#F5F5F2;}
	.st6{fill:#637189;}
	.st7{fill:#9E9082;}
	.st8{fill:#938D89;}
	.st9{fill:#FFDBC0;}
	.st10{fill:#6E85BD;}
	.st11{fill:#E8D9D6;}
	.st12{fill:#A7BC79;}
	.st13{fill:#FF8080;}
	.st14{fill:#3D3533;}
	.st15{fill:#A1683D;}
	.st16{fill:#CCE0FF;}
	.st17{fill:#383531;}
	.st18{fill:#757060;}
	.st19{fill:#D29F7E;}
	.st20{opacity:0.88;clip-path:url(#SVGID_00000135672705984403998300000016713110022869526656_);}
	.st21{fill:#322015;}
	.st22{fill:#1B1C1E;}
	.st23{fill:none;stroke:#1B1C1E;stroke-width:1.2604;stroke-linecap:round;stroke-linejoin:round;stroke-miterlimit:10;}
	.st24{opacity:0.84;clip-path:url(#SVGID_00000111172639024470922850000013002684140227222962_);}
	.st25{clip-path:url(#SVGID_00000083047645815740941280000017099422032296352177_);}
	.st26{fill:none;stroke:#1B1C1E;stroke-width:1.2604;stroke-linecap:round;stroke-linejoin:round;}
	.st27{fill:#D1493B;}
	.st28{fill:#FFAE1F;}
	.st29{opacity:0.88;clip-path:url(#SVGID_00000151510292349747046260000009159781792702028733_);}
	.st30{opacity:0.7;clip-path:url(#SVGID_00000048475974066936979720000011645977368600305299_);}
	.st31{fill:#2C2C2D;}
	.st32{opacity:0.87;clip-path:url(#SVGID_00000016767568280874290450000005844627719889926307_);}
	.st33{fill:#080809;}
	.st34{opacity:0.7;clip-path:url(#SVGID_00000016758642273618033910000017575996147468471948_);}
	.st35{fill:#FBAF5E;}
	.st36{opacity:0.62;clip-path:url(#SVGID_00000177466877328228411590000012244021127259509128_);}
	.st37{fill:#3E240C;}
	.st38{fill:#BC763C;}
	.st39{opacity:0.62;clip-path:url(#SVGID_00000145749708830361943740000015205175143561824165_);}
	.st40{opacity:0.62;clip-path:url(#SVGID_00000156557519511066013080000018138908267284015799_);}
	.st41{fill:#967258;}
	.st42{opacity:0.53;clip-path:url(#SVGID_00000032643155254173335270000000663139351592561559_);}
	.st43{opacity:0.73;clip-path:url(#SVGID_00000159471982134511543290000001433031244509993398_);}
	.st44{fill:none;stroke:#1B1C1E;stroke-width:1.1311;stroke-linecap:round;stroke-linejoin:round;stroke-miterlimit:10;}
	.st45{fill:#3D291C;}
	.st46{fill:#3D291C;stroke:#967258;stroke-width:1.2604;stroke-linecap:round;stroke-linejoin:round;stroke-miterlimit:10;}
	.st47{fill:#D6D4C8;}
	.st48{fill:#1B1C1E;stroke:#967258;stroke-width:1.2604;stroke-linecap:round;stroke-linejoin:round;stroke-miterlimit:10;}
	.st49{opacity:0.52;clip-path:url(#SVGID_00000061465893374017207850000006416822897293275047_);}
	.st50{fill:#B37D4F;}
	.st51{opacity:0.88;clip-path:url(#SVGID_00000117638766915319051450000017155696939256313260_);}
	.st52{fill:#343434;}
	.st53{fill:#BC6464;}
	.st54{opacity:0.88;clip-path:url(#SVGID_00000131356631535996105840000014757342301709629607_);}
	.st55{fill:#1B1C1E;stroke:#1B1C1E;stroke-width:1.1485;stroke-linecap:round;stroke-linejoin:round;stroke-miterlimit:10;}
	.st56{fill:#8C7265;}
	.st57{opacity:0.88;clip-path:url(#SVGID_00000132777798395498003200000001927394799291549074_);}
	.st58{fill:#1B1C1E;stroke:#1B1C1E;stroke-width:1.3664;stroke-linecap:round;stroke-linejoin:round;stroke-miterlimit:10;}
	.st59{opacity:0.88;clip-path:url(#SVGID_00000125604579573979646240000006801897604770395291_);}
	.st60{fill:none;stroke:#1B1C1E;stroke-width:1.3664;stroke-linecap:round;stroke-linejoin:round;stroke-miterlimit:10;}
	.st61{opacity:0.88;clip-path:url(#SVGID_00000167377308449004762270000017923237819762642073_);}
	.st62{opacity:0.88;clip-path:url(#SVGID_00000075141084887552313500000004800665736689006260_);}
	.st63{fill:#5F6C72;}
	.st64{fill:#1B1C1E;stroke:#1B1C1E;stroke-width:1.5329;stroke-linecap:round;stroke-linejoin:round;stroke-miterlimit:10;}
	.st65{opacity:0.88;clip-path:url(#SVGID_00000085931486200651684560000004955905635233574551_);}
	.st66{clip-path:url(#SVGID_00000097461528030642040700000006719359020483156097_);}
	.st67{opacity:0.58;clip-path:url(#SVGID_00000103976255344013259670000001849675155361208455_);}
	.st68{opacity:0.58;clip-path:url(#SVGID_00000173127062778654524490000016691575383596644224_);}
	.st69{fill:#1B1C1E;stroke:#1B1C1E;stroke-width:1.818;stroke-linecap:round;stroke-linejoin:round;stroke-miterlimit:10;}
	.st70{fill:#FFFFFF;}
	.st71{fill:#CC813E;}
	.st72{opacity:0.58;clip-path:url(#SVGID_00000142161541985302819040000010978358356721678484_);}
	.st73{fill:#AA8C7D;}
	.st74{opacity:0.88;clip-path:url(#SVGID_00000077287297835336604430000010966915646356337598_);}
	.st75{opacity:0.88;clip-path:url(#SVGID_00000035500217477556960270000001224941569051286448_);}
	.st76{fill:#1B1C1E;stroke:#1B1C1E;stroke-width:1.2604;stroke-linecap:round;stroke-linejoin:round;stroke-miterlimit:10;}
	.st77{opacity:0.88;clip-path:url(#SVGID_00000029021404628436591780000001823892994302885009_);}
	.st78{opacity:0.88;clip-path:url(#SVGID_00000164485077978950620260000012034281807952750994_);}
	.st79{opacity:0.88;clip-path:url(#SVGID_00000183963233317415819310000007310389332841904531_);}
	.st80{fill:none;stroke:#1B1C1E;stroke-miterlimit:10;}
	.st81{fill:#B8BDC4;}
	.st82{fill:#B4D3CD;}
	.st83{opacity:0.88;clip-path:url(#SVGID_00000177467206861211043180000007860091521256728252_);}
	.st84{opacity:0.88;clip-path:url(#SVGID_00000050620786172965809480000004664161559773619334_);}
	.st85{fill:#EFBE9D;}
	.st86{opacity:0.88;clip-path:url(#SVGID_00000081625424273678755080000011993671420022953351_);}
	.st87{fill:#443730;}
	.st88{opacity:0.88;clip-path:url(#SVGID_00000163062431213258174020000011876131663220311739_);}
	.st89{opacity:0.88;clip-path:url(#SVGID_00000063599405606638378420000017027565057096131477_);}
	.st90{fill:#E2AF8D;}
	.st91{fill:none;stroke:#1B1C1E;stroke-linecap:round;stroke-linejoin:round;stroke-miterlimit:10;}
	.st92{fill:#1B1C1E;stroke:#1B1C1E;stroke-miterlimit:10;}
	.st93{fill:#FCEA9F;}
	.st94{fill:#F6EBEF;}
	.st95{fill:#D4DADD;}
	.st96{opacity:0.61;clip-path:url(#SVGID_00000091700214309461798480000000928423222200839325_);}
	.st97{fill:#353737;}
	.st98{fill:#B3B9BC;}
	.st99{opacity:0.61;clip-path:url(#SVGID_00000072253330773642029330000015029590692277850283_);}
	.st100{opacity:0.61;clip-path:url(#SVGID_00000062908777530203093580000007200403878665548195_);}
	.st101{fill:#B3B9BC;stroke:#1B1C1E;stroke-miterlimit:10;}
	.st102{fill:#CCE2CF;stroke:#1B1C1E;stroke-miterlimit:10;}
	.st103{fill:#EAD6DE;}
	.st104{fill:#1B1C1E;stroke:#1B1C1E;stroke-width:1.0185;stroke-miterlimit:10;}
	.st105{fill:none;stroke:#1B1C1E;stroke-width:1.0185;stroke-miterlimit:10;}
	.st106{fill:#FBAF5E;stroke:#1B1C1E;stroke-miterlimit:10;}
	.st107{fill:#513F3B;}
	.st108{opacity:0.88;clip-path:url(#SVGID_00000162339574939555879950000009062760443510144684_);}
	.st109{opacity:0.88;clip-path:url(#SVGID_00000060722604355119083200000013706575956172495492_);}
	.st110{fill:#8B2403;}
	.st111{fill:#EBDAD2;}
	.st112{fill:#A84E39;}
	.st113{fill:#751A01;}
	.st114{fill:#EBDAD2;stroke:#1B1C1E;stroke-miterlimit:10;}
	.st115{opacity:0.78;clip-path:url(#SVGID_00000085244856201757608180000009651343675639688075_);}
	.st116{fill:#290B01;}
	.st117{opacity:0.78;clip-path:url(#SVGID_00000126295258536592357770000014587658083532499608_);}
	.st118{opacity:0.78;clip-path:url(#SVGID_00000016764141317698785620000012321295531621516425_);}
	.st119{opacity:0.78;clip-path:url(#SVGID_00000137848223717498911580000001057662104830416293_);}
	.st120{fill:#030203;}
	.st121{fill:#86889A;}
	.st122{fill:#0B060A;}
	.st123{fill:#736E72;}
	.st124{fill:#9E9AA0;}
	.st125{fill:#18172A;}
	.st126{fill:#3B4D84;}
	.st127{fill:#FFA3AC;}
	.st128{fill:none;stroke:#0B080B;stroke-width:1.2005;stroke-miterlimit:10;}
	.st129{fill:#E7E6E8;}
	.st130{fill:#0B080B;}
	.st131{fill:none;stroke:#1B1C1E;stroke-width:1.2005;stroke-linecap:round;stroke-linejoin:round;stroke-miterlimit:10;}
	.st132{opacity:0.78;clip-path:url(#SVGID_00000054986503035703987000000002246061685652853941_);}
	.st133{opacity:0.78;clip-path:url(#SVGID_00000103978427116236077940000017430907142096455861_);}
	.st134{fill:#89745E;}
	.st135{opacity:0.78;clip-path:url(#SVGID_00000103242268017062955490000007070665401033022634_);}
	.st136{fill:#060606;}
	.st137{fill:#4D483E;}
	.st138{fill:#FF8A00;}
	.st139{fill:#50483F;}
	.st140{fill:#131313;}
	.st141{fill:#E8DBCD;}
	.st142{opacity:0.78;clip-path:url(#SVGID_00000140731041812710011290000000090777262720489900_);}
	.st143{opacity:0.78;clip-path:url(#SVGID_00000068677340854188222000000014573360912312420751_);}
	.st144{fill:#191212;}
	.st145{fill:#6C5353;}
	.st146{opacity:0.78;clip-path:url(#SVGID_00000119101709131291839690000010658608759187376051_);}
	.st147{fill:#B3B3B3;}
	.st148{fill:#FF9F2C;}
	.st149{fill:none;stroke:#343434;stroke-miterlimit:10;}
	.st150{fill:#21262A;}
	.st151{fill:#563D3D;}
	.st152{opacity:0.78;clip-path:url(#SVGID_00000121244329153038745530000005013725052996713862_);}
	.st153{fill:#181716;}
	.st154{fill:#706153;}
	.st155{fill:none;stroke:#1B1C1E;stroke-width:0.8477;stroke-miterlimit:10;}
	.st156{fill:#FCBD30;}
	.st157{fill:#E8D9CD;}
	.st158{fill:#534E4A;}
	.st159{opacity:0.78;clip-path:url(#SVGID_00000116950819344091415530000010914635720003901594_);}
	.st160{fill:#7DA050;}
	.st161{opacity:0.78;clip-path:url(#SVGID_00000117659329957935871030000005815799757258530696_);}
	.st162{opacity:0.78;clip-path:url(#SVGID_00000047751663306337403910000012517213580334577080_);}
	.st163{opacity:0.78;clip-path:url(#SVGID_00000122701193625005916610000009409309990684691077_);}
	.st164{fill:#EFEECE;}
	.st165{opacity:0.78;clip-path:url(#SVGID_00000037666109373812969160000017793629171206125453_);}
	.st166{fill:#93543B;}
	.st167{fill:#FF510C;}
	.st168{opacity:0.78;clip-path:url(#SVGID_00000127733420452820932320000016951467466233614011_);}
	.st169{fill:#4B1804;}
	.st170{fill:#000A0E;}
	.st171{opacity:0.78;clip-path:url(#SVGID_00000111883916520586115660000012602990828094416519_);}
	.st172{opacity:0.78;clip-path:url(#SVGID_00000053516969550176035190000012856427887224546476_);}
	.st173{fill:#F9C8A7;}
	.st174{fill:#1B1C1E;stroke:#1B1C1E;stroke-width:1.3738;stroke-miterlimit:10;}
	.st175{fill:none;stroke:#1B1C1E;stroke-width:1.3;stroke-miterlimit:10;}
	.st176{fill:#FFCB6E;}
	.st177{fill:#CECECE;}
	.st178{fill:none;stroke:#1B1C1E;stroke-width:1.3037;stroke-miterlimit:10;}
	.st179{fill:#FFFFFF;stroke:#1B1C1E;stroke-width:1.3;stroke-miterlimit:10;}
	.st180{opacity:0.78;clip-path:url(#SVGID_00000175304720484143566590000006516790041865519255_);}
	.st181{fill:none;stroke:#1B1C1E;stroke-width:1.3738;stroke-miterlimit:10;}
	.st182{opacity:0.45;clip-path:url(#SVGID_00000000198829037608793650000009836647420557046440_);}
	.st183{opacity:0.45;clip-path:url(#SVGID_00000054241915513794026210000013801460075617169319_);}
	.st184{opacity:0.45;clip-path:url(#SVGID_00000067915772881010769980000004833410611431450509_);}
	.st185{opacity:0.45;clip-path:url(#SVGID_00000074411162203321641240000010556246199787087538_);}
	.st186{fill:none;stroke:#1B1C1E;stroke-width:1.3738;stroke-linecap:round;stroke-linejoin:round;stroke-miterlimit:10;}
	.st187{fill:#FFB192;}
	.st188{fill:#EB8226;}
	.st189{fill:#F7EDE1;}
	.st190{opacity:0.78;clip-path:url(#SVGID_00000116198462039454819820000010722153440996669615_);}
	.st191{opacity:0.78;clip-path:url(#SVGID_00000163036226015086261050000012748616252311929741_);}
	.st192{opacity:0.5;clip-path:url(#SVGID_00000016046350634596317070000008510640225045353616_);}
	.st193{opacity:0.5;clip-path:url(#SVGID_00000026158168020138073450000003628196755577579907_);}
	.st194{fill:none;stroke:#06002C;stroke-width:1.3038;stroke-miterlimit:10;}
	.st195{fill:#F7A9B4;}
	.st196{fill:#06002C;}
	.st197{opacity:0.5;clip-path:url(#SVGID_00000163773811865414061720000011525910257551354041_);}
	.st198{fill:none;stroke:#06002C;stroke-width:1.3038;stroke-linecap:round;stroke-linejoin:round;stroke-miterlimit:10;}
	.st199{fill:#9BBEDC;}
	.st200{opacity:0.88;clip-path:url(#SVGID_00000111150405082124072440000005433665113101419953_);}
	.st201{opacity:0.88;clip-path:url(#SVGID_00000142175173265479618600000001884567693351138694_);}
</style>
<g id="Background">
	<rect x="-3.2" y="-2.4" class="st12" width="510" height="382.5"/>
</g>
<g id="Illustration">
	<g>
		<path class="st22" d="M212.5,269.2c0,0-5.6,2.1,9.6,2.7c15.2,0.6,95.4,0.9,103.6,0c8.2-0.9,17.4-2,1.9-3.2
			c-11.8-0.9-29-0.8-41-1.1C265.1,267.1,219,267.3,212.5,269.2z"/>
		<g>
			<path class="st134" d="M183.6,204.6c0,0-37.9,12.3-45.6,20c-6.4,6.3,31.3,0,31.3,0s-10.3,2.9-6.8,3.9c5.3,1.5,18.8-1.8,24.7-5.3
				C194.8,218.7,183.6,204.6,183.6,204.6z"/>
			<g>
				<defs>
					<path id="SVGID_00000128457201499844187800000008634393429848818362_" d="M183.6,204.6c0,0-37.9,12.3-45.6,20
						c-6.4,6.3,31.3,0,31.3,0s-10.3,2.9-6.8,3.9c5.3,1.5,18.8-1.8,24.7-5.3C194.8,218.7,183.6,204.6,183.6,204.6z"/>
				</defs>
				<clipPath id="SVGID_00000097502661930129632360000003716010641961328021_">
					<use xlink:href="#SVGID_00000128457201499844187800000008634393429848818362_"  style="overflow:visible;"/>
				</clipPath>
				<g style="opacity:0.78;clip-path:url(#SVGID_00000097502661930129632360000003716010641961328021_);">
					<g>
						<g>
							<g>
								<path class="st136" d="M185.6,217.6c-0.1,0-0.2,0-0.3-0.1C185.3,217.6,185.4,217.6,185.6,217.6z"/>
								<path class="st136" d="M185.8,224.2C185.8,224.2,185.8,224.2,185.8,224.2l0.1,0L185.8,224.2z"/>
								<path class="st136" d="M185.9,224.2l0.4,0C186.1,224.1,186,224.2,185.9,224.2z"/>
								<path class="st136" d="M183.2,217.2c-0.1-0.1-0.2-0.1-0.4-0.2L183.2,217.2z"/>
								<path class="st136" d="M181.7,218c-0.1,0-0.1,0-0.2,0.1C181.6,218,181.7,218,181.7,218z"/>
								<path class="st136" d="M186.5,211.8c0,0,0.1,0,0.1,0C186.6,211.8,186.5,211.8,186.5,211.8z"/>
								<path class="st136" d="M185.9,211.3c0,0,0-0.1,0-0.1l-0.1,0C185.7,211.2,185.8,211.3,185.9,211.3z"/>
								<path class="st136" d="M185.4,211.5L185.4,211.5C185.4,211.4,185.4,211.4,185.4,211.5z"/>
								<path class="st136" d="M181.3,208.1l-0.4,0C181.1,208.1,181.3,208.1,181.3,208.1z"/>
								<path class="st136" d="M186.9,211.9c-0.1,0-0.2-0.1-0.3-0.1C186.7,211.8,186.7,211.9,186.9,211.9z"/>
								<path class="st136" d="M185.8,217.6c-0.1,0-0.1,0-0.2,0C185.7,217.6,185.8,217.7,185.8,217.6z"/>
								<path class="st136" d="M183.2,216.8L183.2,216.8C183.3,216.8,183.3,216.8,183.2,216.8z"/>
								<path class="st136" d="M186.6,226.6c0.1,0,0.1,0.1,0.2,0.1C186.8,226.6,186.7,226.6,186.6,226.6z"/>
								<path class="st136" d="M185.6,213.4c-1.1,0.1,0-0.2-1.1-0.2c0.2,0.1,0.4,0.2-0.2,0.3c-0.6-0.1,0.1-0.3-0.8-0.3l0.3,0.2
									c-0.5,0.1-1.2,0-1.1,0.1c1.2,0.2-0.5,0.6-0.3,0.7l-0.1-0.1l-0.6,0.3c0,0,0,0-0.1,0c0.1,0,0.1,0,0.2,0
									c-0.6,0.1-1,0.3-0.9,0.6c0.7,0.1,0.3,0.7,0.9,0.8c-0.2-0.1-0.2-0.2,0-0.3l0.8,0c0,0.2-0.8,0-0.3,0.2c1.1-0.1,0-0.3,0.1-0.5
									c0.3,0,0.5,0.1,0.6,0.2c0-0.3,0.4-0.6-0.7-0.8c0.2-0.1,0.7-0.1,0.8,0c-0.7-0.2,0.7-0.2,0-0.3c1.1,0,0.6,0.4,1.2,0.6
									c-0.8,0.3,0,0.6,0.2,0.9c-0.8,0-1.5-0.1-1.9,0c-0.5,0.3,0.4,0.3,0.9,0.4c-0.3,0.2-1.3,0.1-1.3,0.4l-0.5-0.2
									c-1.1,0.3,0.5,0.2,0.2,0.3c0.3-0.1,0.6-0.1,0.5-0.3c0.4,0,0.6,0.1,0.6,0.1l0,0c0.5,0,1.1,0,0.9,0.3
									c-0.7-0.1-0.5,0.2-0.8,0.3l-0.1,0c0.2,0.1,0.1,0.3,0.3,0.4l-0.2,0c0.3,0.1,1.1,0.1,0.9,0.3c-0.3,0-1.2-0.1-1.1,0.1
									c-0.5,0-0.6-0.2-0.4-0.4c-0.2,0.2-1,0.3-1,0.1c-0.6,0.1,0.3,0.2,0,0.3c0.2,0,0.4,0,0.6,0c-0.8,0.1,0,0.4,0.6,0.4l-0.5-0.2
									c0.7-0.1,1.1,0.2,1.5,0c-1.1,0.2,0.6,0.5-0.3,0.7l0.5-0.1c-0.3,0.5,1,0.7,1.3,1.1c-0.4-0.1-1.5,0-1.1-0.3
									c-0.2,0.4-1.1,0.3-1.7,0.4c-0.4,0.4,1.1,0,1.5,0.1l-0.2-0.2c1.4,0.1-0.2,0.9,0.7,1.2c-0.3,0.1-0.2-0.1-0.4-0.1
									c-0.7,0.3,0.2,0.2,0.5,0.2c-0.1,0.2-0.3,0.5-1.2,0.5c-0.2,0.3,0.5-0.1,0.8,0l-0.2,0.1l1,0.1c-0.2,0.2-0.7,0.5-1.5,0.8
									c0.2,0.4,1.9-0.2,2.3,0.1c-0.4,0.3-0.7,0.1-1,0.1l0.1,0.3c-1,0.1-0.5-0.2-1.6,0c1.2,0,0.4,0.3,1.2,0.5l0.1,0
									c0.8,0,0.3,0.4,0.5,0.6c-0.5,0-0.6-0.2-0.8-0.3c-0.3,0.3,0.1,0.8,1.1,0.7c-0.1,0.2-0.5,0.5-0.9,0.4
									c-0.1,0.5,1.4-0.1,1.2,0.3l-0.7,0.2c-0.9,0.7,1.1,0.5,0.3,1.2l0.9-0.2c-0.4,0.2-0.5,0.4-0.8,0.5l-0.4-0.1
									c-0.7,0.4,0.8,0,0.3,0.3c0.3-0.1,0.8-0.4,1.1-0.5c-0.7-0.7,0.4-1.8-0.7-2.3c-0.1,0.1-0.2,0.1-0.4,0.1
									c0.2-0.1-0.1-0.3,0.4-0.3l0.1,0c-0.2-0.2,0.8-0.6,0.8-0.7c-0.6,0,0.2-0.5-0.9-0.2l0.6-0.3c-0.4,0-0.9,0.1-1.1,0.1
									c0.1-0.2,0.5-0.2,0.8-0.2c0.3-0.6,0.1-1.3-0.3-1.8l0.5,0.1c0.2-0.2-1-0.4,0.3-0.4c-0.5-0.2,0.2-0.8-1.1-0.6
									c1.3-0.3,0.5-0.7,0.3-1.1c-1.1,0.2-0.3-0.3-0.9-0.3c0.9-0.1,0.9,0.2,1.5,0.2c-1.4-0.3,0.9-1.2-1.4-1.2
									c0.1-0.1,0.2-0.1,0.3-0.1c0-0.1,0.4-0.2,0.5-0.3c-0.4,0-0.6,0.2-0.7,0c0.1-0.2,0.7-0.1,1-0.2c-0.5-0.2-0.8-0.7-1.7-0.7
									c0.2-0.1,0.8-0.2,0.9-0.1c-0.7-0.4,0.1-0.4-0.4-0.9c0,0.2,1,0,0.6,0.3c1.3-0.2-0.3-0.7,0.4-1.1l-0.8-0.1
									c-0.1-0.2,0.6-0.2,0.9-0.1c0.5-0.4,0-0.6,0-0.8c0.1,0,0.3,0,0.2,0l0-0.4c-0.2,0-0.6-0.2-1.1-0.2
									C185.7,213.1,186,213.2,185.6,213.4z"/>
								<path class="st136" d="M185.2,213l-0.1,0L185.2,213C185.1,213,185.2,213,185.2,213z"/>
								<path class="st136" d="M181.7,217c0.2-0.1,0.3-0.1,0.3-0.1C181.9,216.9,181.8,216.9,181.7,217z"/>
								<path class="st136" d="M183.9,209c-1.3,0,0.2,0.3-0.2,0.4c-0.2-0.2-0.9-0.2-1.3-0.2c1.6,0.3-0.3,0.3,0,0.7
									c-0.5,0-0.6-0.2-1.2-0.3c0.4,0.3,0.6,0.6,1.5,0.7c0,0.4-0.3,0.6-0.2,0.9c-0.3-0.3-0.9-0.1-1.7-0.3c1,0.3,2.3,1,3.5,1.4
									c-1,0-1.1,0-2,0c-0.7,0.5,0.9,0.1,0.6,0.6l0.2-0.2c0.3,0.2,1.2,0.2,1.9,0.3l-0.1-0.5c0.7,0,0.6,0.3,0.8,0.4
									c0.8,0.2,0.6-0.3,1.2-0.2c-0.5-0.1-0.4-0.3-0.6-0.4l0.4,0c0.4-0.2-0.5-0.4-0.5-0.6c0.1,0,0.2,0,0.2,0
									c-0.4-0.1-0.9-0.2-1-0.3l0,0.1c-0.9-0.2-1.4-0.7-2.4-0.4l0.3-0.5c1,0.1,2.4,0.3,2.5,0.6l0.4,0c0.5-0.2-0.7-0.6-1.5-0.5
									c-2.3-0.3,0-0.8-1-1.2c0.6,0,0.9,0.2,1.3,0.4c0.1,0.1,0.1,0.2-0.4,0.2c0.3,0.5,2,0,1.7,0.5c-0.3,0.2-1-0.4-1.1,0l1.7,0.4
									c0-0.2-0.3-0.5-0.5-0.7c-1.1-1.1,0-1.8,0-1.8l-0.1-2.3l0.1-2.3c-0.2-0.5-0.1-0.7-1.7-1.2c-0.4,0-0.3,0.4-0.8,0.2
									c0.6,0.2,0.9,0.4,0.8,0.7c-0.6-0.1-0.3-0.3-0.4-0.2l-0.1,0c-0.3-0.1-0.5-0.2-0.5-0.2c-1,0.1-0.9,0.7,0.3,1.1
									c-0.7,0.1-0.9-0.3-1.4-0.5c-0.6,0.8-0.6,1.4-0.8,2.3c1.1,0.1,0.7,0.2,1.4,0.4l-0.4,0c0.2,0,0.9,0.2,1.2,0.1
									c-0.9,0.4,1.4,0.7,1.9,1.1l-0.6-0.1c0.1,0.3,0.1,0.4,0.4,0.6c-1.1,0.3-0.1-0.4-1.5-0.4l0.2,0.1c-0.5-0.1-1.5-0.3-1.9-0.5
									c0.9,0.5-0.4,0.6,0.2,1.1c-0.6-0.1-1.1-0.6-1.1-0.7c-0.1,0.2,0.4,0.5-0.2,0.4l0.8,0.1c0.1,0.3-0.7-0.1-1.3-0.1
									C180.9,208.8,183.5,208.4,183.9,209z"/>
								<path class="st136" d="M183.3,215.6c0.1-0.1,0-0.1-0.1-0.2C183.2,215.5,183.2,215.6,183.3,215.6z"/>
								<path class="st136" d="M181.7,214.4c-0.1,0-0.2,0-0.3,0C181.5,214.4,181.6,214.4,181.7,214.4z"/>
								<path class="st136" d="M180.6,214.2c0.4,0,0.4,0,0.8,0.1C181.2,214.3,181.2,214,180.6,214.2z"/>
								<path class="st136" d="M185.8,235.7c0.2-0.1,0.5,0,0.7-0.1l-0.4-0.1L185.8,235.7z"/>
								<path class="st136" d="M186.3,234.9l0.2-0.4l-1.1,0.3C185.6,235.1,186.2,234.6,186.3,234.9z"/>
								<path class="st136" d="M186.6,233.9l0.3-0.1C186.7,233.9,186.6,233.9,186.6,233.9z"/>
								<path class="st136" d="M186.2,234.1l-0.8,0.2l0.7,0.1l0.1-0.2c0.2-0.1,0.3-0.2,0.4-0.3l-0.6,0.1
									C186.1,234.1,186.2,234.1,186.2,234.1z"/>
								<path class="st136" d="M186,233.9c-0.1,0-0.1,0.1-0.2,0.1C185.9,234,185.9,233.9,186,233.9z"/>
								<path class="st136" d="M187.1,232.7c-0.2,0.2-0.7,0.2-1,0.3c-0.2,0.4,0.9-0.1,0.7,0.2c-0.7-0.1-0.4,0.3-0.7,0.6
									c0.6-0.4,1-0.7,1.1-1l-0.5,0.2C186.6,232.9,186.9,232.9,187.1,232.7z"/>
								<path class="st136" d="M185.4,231.9l0.8-0.1c-0.3,0.2-0.2,0.5-0.9,0.7c0.1,0.1,0.5,0,0.7,0c-0.3,0.2-0.6,0.4,0,0.3
									c0.3-0.7,0.5-0.6,0.6-1.1c0.2-0.1,0.1,0,0.1,0.1l0.3-0.4C186.1,231.8,185.9,231.5,185.4,231.9z"/>
								<path class="st136" d="M185.8,231.4c0.1,0.2,0.8,0,1.2-0.2l-0.7-0.2C186.4,231,186.5,231.2,185.8,231.4z"/>
								<path class="st136" d="M185.7,231.1c0.3-0.2,1.1-0.6,0.3-0.5C186.2,230.7,185.1,231,185.7,231.1z"/>
								<path class="st136" d="M185.9,229.4l-0.3,0.6c-0.9,0.4-0.4-0.1-0.8-0.1c-0.1,0.4,0.2,0.2,0.9,0.3c0,0.1,0.5,0.1,0.8,0.1
									C185.4,230,187.7,229.2,185.9,229.4z"/>
								<polygon class="st136" points="185.2,230.5 185.6,230.4 185.2,230.3 								"/>
								<path class="st136" d="M186.6,228.1c1-0.6-0.8-0.3-0.4-0.7c0.1,0,0.2,0,0.3,0l-0.2-0.2l0.2-0.1c-0.7,0.2-1,0-1.5,0.1
									c-0.6,0.4,0.9-0.1,0.2,0.3c-0.3,0-0.8,0.1-1,0.1c0.4,0.1,0.8,0,1.2-0.1c0.1,0.1-0.3,0.2-0.5,0.3c0.4,0.1,1.4-0.2,1.3,0.1
									c-0.5,0.3-0.9,0.2-0.6,0.4c1-0.5-0.1,0.3,0.6,0.2c-0.1,0.3-0.7,0.6-1.1,0.7c0.8-0.3,1.6-0.3,1.8-0.2L186,229l0.9-0.4
									C186.4,228.5,186.4,228.3,186.6,228.1L186.6,228.1z"/>
								<path class="st136" d="M184.2,227.7c-0.1,0-0.1,0-0.2,0C184,227.7,184,227.7,184.2,227.7z"/>
								<polygon class="st136" points="184.7,229.5 184.5,229.5 184.2,229.6 								"/>
								<path class="st136" d="M183.4,227.7c0,0.1,0.3,0,0.3-0.1l-0.5,0L183.4,227.7z"/>
								<polygon class="st136" points="184,227.3 184.5,227 184,227 								"/>
								<path class="st136" d="M183.4,222c-0.3,0.2,0.4,0.1,0.8,0C184.4,221.7,183.7,222.1,183.4,222z"/>
								<path class="st136" d="M182.1,218.8c-0.4,0.2,0.3,0.3,0.3,0.5C182.7,219.1,182.5,218.9,182.1,218.8z"/>
								<path class="st136" d="M179.7,217.5c0.2,0,0.3,0.1,0.4,0l1.2,0.1C181.8,217.3,180.2,217.5,179.7,217.5z"/>
								<path class="st136" d="M179.5,215.8l0.5,0.3l0-0.1c0.5,0,0.7,0.1,1.1,0.2C180.8,215.9,180.3,215.8,179.5,215.8z"/>
								<path class="st136" d="M181.3,216.4C181.3,216.3,181.3,216.3,181.3,216.4C181.1,216.3,180.9,216.3,181.3,216.4z"/>
								<path class="st136" d="M181.2,216.2c-0.1,0-0.1,0-0.1,0c0.1,0,0.1,0.1,0.2,0.1C181.4,216.2,181.4,216.2,181.2,216.2z"/>
								<path class="st136" d="M180,215.6l-0.2-0.5l-0.2,0.2C180.4,215.4,179.2,215.6,180,215.6z"/>
								<path class="st136" d="M180.7,213.2l0.7,0c0.2-0.3-1.4-0.7-0.2-0.8c-0.5,0.1-0.8-0.3-1,0.1
									C180.8,212.5,180.8,213,180.7,213.2z"/>
								<path class="st136" d="M181.7,212.1c0.2,0.1,0.4,0,0.6,0c0.1-0.1-0.2-0.2-0.5-0.2C182.7,212,181.1,212,181.7,212.1z"/>
								<path class="st136" d="M181.7,210.8c0,0.1,0.1,0.2,0.3,0.1c0-0.3-0.9-0.2-1.4-0.4C180.2,210.7,181.3,210.9,181.7,210.8z"/>
								<path class="st136" d="M187.2,209.2c-0.6,0-0.6,0.2-0.3,0.2C186.8,209.3,187,209.2,187.2,209.2z"/>
								<polygon class="st136" points="182,208.7 181.9,208.8 182.8,209 								"/>
								<polygon class="st136" points="181.7,207.2 181.1,206.9 181.1,207.2 								"/>
								<path class="st136" d="M181.8,206.9l0-0.3l-0.3,0.1C181.4,206.8,181.8,206.8,181.8,206.9z"/>
								<path class="st136" d="M181.8,206.2c0.1,0,0,0-0.2,0.1l0.4,0.3L181.8,206.2z"/>
								<path class="st136" d="M186.3,202.8c0.6,0.2,0.3-0.1,0.4-0.2C186.5,202.6,185.7,202.6,186.3,202.8z"/>
							</g>
						</g>
					</g>
				</g>
			</g>
			<g>
				<g>
					<path class="st137" d="M251.9,254.5l8.1,14.2c0.7,1.2,1.9,1.9,3.3,1.9h13.8c2.7,0,1.2-3-2.5-3.2c-3.7-0.2-11.5-0.9-11.5-0.9
						l-5.8-12.1C257.3,254.5,251.2,252,251.9,254.5z"/>
					<path class="st137" d="M291.2,270.6c0,0,2.9-2.9-10.8-2.4"/>
				</g>
			</g>
			<path class="st0" d="M329.1,145.8c0,0,6.4-21.9-5.9-33.1s-46.9-18-85.3,11.2s-48.6,59.1-54.4,80.8s30.2,52.3,65.8,53.5
				c35.6,1.2,69-8.8,85.4-44.6C348.8,183.4,329.1,145.8,329.1,145.8z"/>
			<path class="st138" d="M334.9,213.6c-1.3,2.8-2.7,5.4-4.2,7.9c0.9-1.9-3.3-14-3.3-14s-10.1,23.3-28.6,15.5
				c-18.5-7.8-21.2-39.6-23.6-56c-2.5-16.3-18.8-18-18.8-18c2.4-3.3,26.8-7.2,28-18.4s4.6-17.9,16.8-17.9c6,0,14.4,2.6,17.6,3.4
				c7.6,1.8,7.6,0.1,7.6-0.1c8.1,11.7,2.9,29.7,2.9,29.7S348.8,183.4,334.9,213.6z"/>
			<path class="st134" d="M318.7,116.1c-3.1-0.7-11.5-3.4-17.6-3.4c-12.2,0-15.5,6.6-16.8,17.9s-25.5,15.1-28,18.4
				c0,0,16.3,1.6,18.8,18c0,0.3,0.1,0.5,0.1,0.8v0c-11.7,15-27.5,20.3-53.4,28c-24.3,7.2-37.3,15-38.7,16c-0.3-2.4-0.1-4.8,0.5-7.1
				c5.7-21.7,15.9-51.6,54.4-80.8c38.4-29.2,73-22.3,85.3-11.2c1.2,1,2.1,2.2,3,3.4c0,0,0,0,0,0
				C326.3,116.2,326.3,117.9,318.7,116.1z"/>
			<path class="st139" d="M339.8,136.8c0,0-9.1,3.1-12.7,4.1s-13.1-4.1-13.1-4.1S333.4,135.7,339.8,136.8z"/>
			<circle class="st140" cx="298.8" cy="125.5" r="7"/>
			<circle class="st141" cx="296.8" cy="123" r="1.4"/>
			<g>
				<defs>
					<path id="SVGID_00000176040836720363764090000007651640378784702084_" d="M339.8,136.8c0,0-9.1,3.1-12.7,4.1
						s-13.1-4.1-13.1-4.1S333.4,135.7,339.8,136.8z"/>
				</defs>
				<clipPath id="SVGID_00000103262275250971863510000000772725521660621983_">
					<use xlink:href="#SVGID_00000176040836720363764090000007651640378784702084_"  style="overflow:visible;"/>
				</clipPath>
				<g style="opacity:0.78;clip-path:url(#SVGID_00000103262275250971863510000000772725521660621983_);">
					<g>
						<g>
							<g>
								<path class="st136" d="M321.8,136.8C321.8,136.9,321.7,136.9,321.8,136.8C321.7,136.9,321.8,136.9,321.8,136.8z"/>
								<path class="st136" d="M325.6,136.8C325.7,136.8,325.7,136.8,325.6,136.8L325.6,136.8L325.6,136.8z"/>
								<path class="st136" d="M325.7,136.8l0-0.1C325.6,136.7,325.6,136.7,325.7,136.8z"/>
								<path class="st136" d="M321.4,137.5c0,0-0.1,0.1-0.1,0.1L321.4,137.5z"/>
								<path class="st136" d="M321.9,137.9C321.9,137.9,321.9,137.9,321.9,137.9C321.9,137.9,321.9,137.9,321.9,137.9z"/>
								<path class="st136" d="M318.3,136.7L318.3,136.7C318.3,136.7,318.3,136.7,318.3,136.7z"/>
								<path class="st136" d="M318,136.8C318,136.8,317.9,136.8,318,136.8L318,136.8C317.9,136.9,318,136.9,318,136.8z"/>
								<path class="st136" d="M318.1,137L318.1,137C318.1,137,318.1,137,318.1,137z"/>
								<path class="st136" d="M316.3,138.1l0,0.1C316.3,138.2,316.3,138.2,316.3,138.1z"/>
								<path class="st136" d="M318.3,136.6C318.3,136.6,318.3,136.6,318.3,136.6C318.3,136.6,318.3,136.6,318.3,136.6z"/>
								<path class="st136" d="M321.8,136.8C321.8,136.8,321.8,136.8,321.8,136.8C321.8,136.8,321.8,136.8,321.8,136.8z"/>
								<path class="st136" d="M321.2,137.5L321.2,137.5C321.2,137.5,321.2,137.5,321.2,137.5z"/>
								<path class="st136" d="M327.1,136.6c0,0,0.1,0,0.1,0C327.1,136.5,327.1,136.5,327.1,136.6z"/>
								<path class="st136" d="M319.2,136.9c0,0.3-0.1,0-0.1,0.3c0.1-0.1,0.1-0.1,0.2,0c-0.1,0.2-0.2,0-0.2,0.2l0.1-0.1
									c0.1,0.1,0,0.3,0,0.3c0.1-0.3,0.3,0.1,0.4,0.1l0,0l0.2,0.2l0,0c0,0,0,0,0-0.1c0.1,0.2,0.2,0.3,0.3,0.2
									c0-0.2,0.4-0.1,0.5-0.2c-0.1,0-0.1,0.1-0.2,0l0-0.2c0.1,0,0,0.2,0.1,0.1c0-0.3-0.2,0-0.3,0c0-0.1,0.1-0.1,0.1-0.2
									c-0.2,0-0.3-0.1-0.5,0.2c-0.1-0.1,0-0.2,0-0.2c-0.1,0.2-0.1-0.2-0.2,0c0-0.3,0.3-0.2,0.4-0.3c0.2,0.2,0.4,0,0.5,0
									c0,0.2-0.1,0.4,0,0.5c0.2,0.1,0.2-0.1,0.3-0.2c0.1,0.1,0,0.4,0.2,0.4l-0.1,0.1c0.1,0.3,0.1-0.1,0.2-0.1c0-0.1,0-0.2-0.1-0.1
									c0-0.1,0.1-0.2,0.1-0.2l0,0c0-0.2,0-0.3,0.2-0.2c-0.1,0.2,0.1,0.1,0.1,0.2l0,0c0.1-0.1,0.2,0,0.2-0.1l0,0
									c0.1-0.1,0.1-0.3,0.2-0.3c0,0.1-0.1,0.3,0,0.3c0,0.1-0.1,0.2-0.2,0.1c0.1,0,0.2,0.3,0,0.3c0,0.2,0.1-0.1,0.2,0
									c0-0.1,0-0.1,0-0.2c0,0.2,0.2,0,0.2-0.2l-0.1,0.1c0-0.2,0.1-0.3,0.1-0.4c0.1,0.3,0.3-0.2,0.4,0.1l-0.1-0.1
									c0.3,0.1,0.4-0.3,0.7-0.4c-0.1,0.1-0.1,0.4-0.2,0.3c0.2,0,0.1,0.3,0.2,0.5c0.2,0.1,0.1-0.3,0.1-0.4l-0.1,0.1
									c0.1-0.4,0.5,0.1,0.7-0.2c0,0.1,0,0.1-0.1,0.1c0.1,0.2,0.1,0,0.2-0.1c0.1,0,0.3,0.1,0.2,0.3c0.1,0,0-0.1,0-0.2l0,0.1
									l0.1-0.3c0.1,0.1,0.3,0.2,0.3,0.4c0.3-0.1,0-0.5,0.2-0.6c0.1,0.1,0,0.2,0,0.3l0.2,0c0,0.3-0.2,0.1-0.2,0.5
									c0.1-0.3,0.2-0.1,0.4-0.3l0,0c0.1-0.2,0.3-0.1,0.4-0.1c0,0.1-0.2,0.2-0.2,0.2c0.1,0.1,0.4,0,0.5-0.3c0.1,0,0.2,0.1,0.1,0.3
									c0.3,0,0.1-0.4,0.3-0.3l0,0.2c0.3,0.3,0.4-0.3,0.7-0.1l0-0.3c0.1,0.1,0.2,0.1,0.2,0.2L327,137c0.1,0.2,0.1-0.2,0.2-0.1
									c0-0.1-0.1-0.2-0.1-0.3c-0.5,0.2-1-0.1-1.4,0.2c0,0,0,0.1,0,0.1c-0.1-0.1-0.2,0-0.1-0.1l0,0c-0.1,0.1-0.3-0.2-0.3-0.2
									c0,0.2-0.3,0-0.2,0.2l-0.1-0.2c0,0.1,0,0.3,0,0.3c-0.1,0-0.1-0.1,0-0.2c-0.3-0.1-0.7,0-1.1,0.1l0.1-0.1
									c-0.1-0.1-0.3,0.3-0.2-0.1c-0.2,0.2-0.5-0.1-0.4,0.3c-0.1-0.3-0.4-0.1-0.6-0.1c0.1,0.3-0.2,0.1-0.2,0.2
									c0-0.2,0.2-0.3,0.2-0.4c-0.2,0.4-0.7-0.2-0.7,0.4c0,0,0,0,0-0.1c0,0-0.1-0.1-0.2-0.1c0,0.1,0.1,0.2,0,0.2
									c-0.1,0,0-0.2-0.1-0.3c-0.2,0.1-0.4,0.2-0.4,0.5c-0.1-0.1-0.1-0.2-0.1-0.3c-0.3,0.2-0.3,0-0.5,0.1c0.1,0,0-0.3,0.2-0.2
									c-0.1-0.3-0.4,0.1-0.6-0.1l-0.1,0.2c-0.1,0-0.1-0.2-0.1-0.3c-0.2-0.1-0.3,0-0.5,0c0,0,0-0.1,0-0.1l-0.2,0
									c0,0.1-0.1,0.2-0.1,0.3C319.1,136.9,319.1,136.8,319.2,136.9z"/>
								<polygon class="st136" points="319,137 319,137 319,137 								"/>
								<path class="st136" d="M321.3,137.9C321.3,137.9,321.2,137.8,321.3,137.9C321.2,137.9,321.3,137.9,321.3,137.9z"/>
								<path class="st136" d="M316.7,137.4c0,0.3,0.1-0.1,0.3,0c-0.1,0.1-0.1,0.3-0.1,0.4c0.1-0.4,0.2,0.1,0.4,0
									c0,0.1-0.1,0.2-0.1,0.3c0.1-0.1,0.3-0.2,0.4-0.4c0.2,0,0.4,0.1,0.5,0c-0.2,0.1,0,0.2-0.1,0.5c0.2-0.3,0.5-0.6,0.7-1
									c0,0.3,0,0.3,0,0.5c0.3,0.2,0.1-0.3,0.3-0.2l-0.1,0c0.1-0.1,0.1-0.3,0.2-0.5l-0.3,0c0-0.2,0.2-0.2,0.2-0.2
									c0.1-0.2-0.2-0.2-0.1-0.3c0,0.1-0.2,0.1-0.2,0.2l0-0.1c-0.1-0.1-0.2,0.2-0.3,0.1c0,0,0,0,0-0.1c0,0.1-0.1,0.3-0.2,0.3l0.1,0
									c-0.1,0.2-0.4,0.4-0.2,0.7l-0.3-0.1c0-0.3,0.1-0.7,0.3-0.7l0-0.1c-0.1-0.1-0.4,0.2-0.3,0.4c-0.1,0.6-0.5,0-0.7,0.3
									c0-0.2,0.1-0.2,0.2-0.4c0.1,0,0.1,0,0.1,0.1c0.3-0.1-0.1-0.5,0.3-0.5c0.2,0.1-0.2,0.3,0,0.3l0.2-0.5c-0.1,0-0.3,0.1-0.4,0.2
									c-0.6,0.3-1.1,0-1.1,0c-0.9,0.1-1.8,0.1-2.8,0.1c-0.3,0.1-0.4,0-0.5,0.5c0.1,0.1,0.2,0.1,0.2,0.2c0-0.2,0.2-0.3,0.3-0.2
									c0,0.2-0.1,0.1-0.1,0.1l0,0c0,0.1,0,0.1-0.1,0.1c0.2,0.3,0.5,0.2,0.6-0.1c0.1,0.2-0.1,0.3-0.2,0.4c0.5,0.1,0.8,0.1,1.3,0.2
									c0-0.3,0.1-0.2,0.1-0.4l0,0.1c0-0.1,0.1-0.3,0-0.3c0.3,0.2,0.3-0.4,0.5-0.5l0,0.2c0.2,0,0.2,0,0.3-0.1
									c0.3,0.3-0.2,0-0.2,0.4l0.1-0.1c0,0.1-0.1,0.4-0.2,0.5c0.2-0.3,0.4,0.1,0.6-0.1c0,0.2-0.3,0.3-0.3,0.3
									c0.1,0,0.3-0.1,0.3,0.1l0-0.2c0.2,0,0,0.2,0,0.3C316.7,138.2,316.4,137.6,316.7,137.4z"/>
								<path class="st136" d="M320.5,137.5c0,0-0.1,0-0.1,0C320.5,137.5,320.5,137.5,320.5,137.5z"/>
								<path class="st136" d="M319.8,137.9C319.8,138,319.8,138,319.8,137.9C319.8,138,319.8,138,319.8,137.9z"/>
								<path class="st136" d="M319.7,138.2c0-0.1,0-0.1,0.1-0.2C319.7,138.1,319.6,138.1,319.7,138.2z"/>
								<path class="st136" d="M331.9,136.9c0-0.1,0.1-0.2,0.1-0.2L331.9,136.9L331.9,136.9z"/>
								<path class="st136" d="M331.6,136.8l-0.2-0.1l0,0.3C331.5,137,331.4,136.8,331.6,136.8z"/>
								<path class="st136" d="M331.2,136.7L331.2,136.7C331.2,136.6,331.1,136.7,331.2,136.7z"/>
								<path class="st136" d="M331.2,136.8l0,0.2l0.2-0.2L331.2,136.8c0-0.1,0-0.1,0-0.1L331.2,136.8
									C331.1,136.8,331.2,136.8,331.2,136.8z"/>
								<path class="st136" d="M331,136.9L331,136.9C331,136.9,331,136.9,331,136.9z"/>
								<path class="st136" d="M330.6,136.5c0.1,0.1,0,0.2,0,0.3c0.2,0.1,0.1-0.3,0.2-0.2c-0.2,0.2,0.1,0.1,0.2,0.2
									c-0.1-0.2-0.2-0.3-0.3-0.3l0,0.1C330.6,136.7,330.7,136.6,330.6,136.5z"/>
								<path class="st136" d="M329.9,137l0.1-0.2c0,0.1,0.2,0.1,0.2,0.3c0.1,0,0.1-0.1,0.1-0.2c0.1,0.1,0.1,0.2,0.2,0
									c-0.3-0.1-0.2-0.2-0.5-0.2c0,0,0,0,0.1,0l-0.2-0.1C329.9,136.8,329.7,136.8,329.9,137z"/>
								<path class="st136" d="M329.7,136.9c0.1,0,0.2-0.2,0.1-0.4l-0.2,0.2C329.6,136.7,329.7,136.7,329.7,136.9z"/>
								<path class="st136" d="M329.5,136.9c-0.1-0.1-0.2-0.3-0.2-0.1C329.4,136.7,329.4,137,329.5,136.9z"/>
								<path class="st136" d="M328.6,136.8l0.3,0.1c0.1,0.3-0.1,0.1-0.2,0.2c0.2,0,0.1-0.1,0.3-0.2c0.1,0,0.1-0.1,0.2-0.2
									C328.8,136.9,328.7,136.3,328.6,136.8z"/>
								<polygon class="st136" points="329.1,137 329.1,136.9 329,137 								"/>
								<path class="st136" d="M328,136.6c-0.2-0.3-0.3,0.2-0.4,0.1c0,0,0,0,0-0.1l-0.1,0l0-0.1c0,0.2-0.1,0.3-0.1,0.4
									c0.2,0.2,0-0.2,0.2,0c0,0.1,0,0.2,0,0.3c0.1-0.1,0.1-0.2,0.1-0.3c0.1,0,0.1,0.1,0.1,0.1c0.1-0.1,0.1-0.4,0.2-0.4
									c0.1,0.2,0,0.3,0.1,0.2c-0.1-0.3,0.2,0,0.2-0.2c0.1,0,0.2,0.2,0.2,0.3c0-0.2,0.1-0.4,0.1-0.5l-0.2,0.2l-0.1-0.3
									C328.2,136.7,328.1,136.6,328,136.6L328,136.6z"/>
								<path class="st136" d="M327.4,137.3C327.4,137.3,327.4,137.3,327.4,137.3C327.4,137.3,327.4,137.3,327.4,137.3z"/>
								<polygon class="st136" points="328.5,137.1 328.4,137.2 328.5,137.3 								"/>
								<path class="st136" d="M327.3,137.5C327.3,137.5,327.3,137.4,327.3,137.5L327.3,137.5L327.3,137.5z"/>
								<polygon class="st136" points="327.2,137.3 327.1,137.2 327,137.3 								"/>
								<path class="st136" d="M324.2,137.4c0.1,0.1,0.1-0.1,0.1-0.2C324.1,137.2,324.3,137.4,324.2,137.4z"/>
								<path class="st136" d="M322.3,137.8c0.1,0.1,0.2-0.1,0.3-0.1C322.5,137.6,322.4,137.7,322.3,137.8z"/>
								<path class="st136" d="M321.5,138.5c0-0.1,0.1-0.1,0-0.1l0.1-0.3C321.5,137.9,321.5,138.3,321.5,138.5z"/>
								<path class="st136" d="M320.6,138.6l0.1-0.1l-0.1,0c0-0.1,0.1-0.2,0.1-0.3C320.7,138.2,320.6,138.3,320.6,138.6z"/>
								<path class="st136" d="M320.9,138C320.9,138,320.9,138.1,320.9,138C320.9,138.1,320.9,138.2,320.9,138z"/>
								<path class="st136" d="M320.8,138.1C320.8,138.1,320.8,138.1,320.8,138.1C320.8,138.1,320.8,138.1,320.8,138.1
									C320.9,138,320.8,138,320.8,138.1z"/>
								<path class="st136" d="M320.5,138.4l-0.3,0l0.1,0.1C320.4,138.3,320.5,138.6,320.5,138.4z"/>
								<path class="st136" d="M319.1,138.3l0-0.2c-0.2,0-0.4,0.4-0.5,0.1c0.1,0.1-0.1,0.2,0.1,0.3
									C318.8,138.2,319,138.2,319.1,138.3z"/>
								<path class="st136" d="M318.5,138c0-0.1,0-0.1,0-0.2c-0.1,0-0.1,0.1-0.1,0.2C318.5,137.7,318.5,138.1,318.5,138z"/>
								<path class="st136" d="M317.8,138C317.8,138,317.9,138,317.8,138c-0.1-0.1-0.1,0.2-0.1,0.3
									C317.8,138.4,317.9,138.1,317.8,138z"/>
								<path class="st136" d="M316.7,136.5c0,0.2,0.1,0.1,0.2,0.1C316.8,136.6,316.7,136.6,316.7,136.5z"/>
								<polygon class="st136" points="316.6,137.9 316.7,138 316.7,137.7 								"/>
								<polygon class="st136" points="315.8,138.1 315.7,138.3 315.8,138.2 								"/>
								<path class="st136" d="M315.6,138l-0.1,0L315.6,138C315.6,138.2,315.6,138,315.6,138z"/>
								<path class="st136" d="M315.2,138.1C315.2,138.1,315.2,138.1,315.2,138.1l0.2-0.1L315.2,138.1z"/>
								<path class="st136" d="M313,136.9c0-0.2-0.1-0.1-0.1-0.1C312.8,136.9,312.9,137.1,313,136.9z"/>
							</g>
						</g>
					</g>
				</g>
			</g>
			<path class="st137" d="M328.6,129.4c0,0-14.2,6.9-14.6,7.4c-0.4,0.4,24.7-0.3,25.8,0C341,137,341,135.1,328.6,129.4z"/>
			<path class="st80" d="M256.4,149c0,0-34.5,4-56.4,27.5s9,8.7,9,8.7s-17,8.7-16.8,16.1c0.2,6.9,14.4-0.4,14.4-0.4"/>
			<path class="st80" d="M228.6,144.7c0,0-28,15.8-14.3,20"/>
			<line class="st80" x1="169.3" y1="224.6" x2="177.1" y2="222.8"/>
			<g>
				<g>
					<path class="st137" d="M247.8,254.5l8.1,14.2c0.7,1.2,1.9,1.9,3.3,1.9h27.2c2.7,0,1.2-3-2.5-3.2s-24.9-0.9-24.9-0.9l-5.8-12.1
						C253.2,254.5,249.6,252.2,247.8,254.5z"/>
					<path class="st80" d="M285.1,270.6c0,0,3.2-3.3-17-2.7"/>
				</g>
			</g>
		</g>
	</g>
</g>
</svg>
