<?xml version="1.0" encoding="utf-8"?>
<!-- Generator: Adobe Illustrator 26.0.3, SVG Export Plug-In . SVG Version: 6.00 Build 0)  -->
<svg version="1.1" xmlns="http://www.w3.org/2000/svg" xmlns:xlink="http://www.w3.org/1999/xlink" x="0px" y="0px"
	 viewBox="0 0 503.6 377.7" style="enable-background:new 0 0 503.6 377.7;" xml:space="preserve">
<style type="text/css">
	.st0{fill:#FFF0DD;}
	.st1{fill:#6B5C52;}
	.st2{fill:#B8BBBF;}
	.st3{fill:#F9E9CD;}
	.st4{fill:#FFE6BD;}
	.st5{fill:#F5F5F2;}
	.st6{fill:#637189;}
	.st7{fill:#9E9082;}
	.st8{fill:#938D89;}
	.st9{fill:#FFDBC0;}
	.st10{fill:#6E85BD;}
	.st11{fill:#E8D9D6;}
	.st12{fill:#A7BC79;}
	.st13{fill:#FF8080;}
	.st14{fill:#3D3533;}
	.st15{fill:#A1683D;}
	.st16{fill:#CCE0FF;}
	.st17{fill:#383531;}
	.st18{fill:#757060;}
	.st19{fill:#D29F7E;}
	.st20{opacity:0.88;clip-path:url(#SVGID_00000075150331646623074800000004928189177551125171_);}
	.st21{fill:#322015;}
	.st22{fill:#1B1C1E;}
	.st23{fill:none;stroke:#1B1C1E;stroke-width:1.2604;stroke-linecap:round;stroke-linejoin:round;stroke-miterlimit:10;}
	.st24{opacity:0.84;clip-path:url(#SVGID_00000175298505708369575020000017099932630886562451_);}
	.st25{clip-path:url(#SVGID_00000170241724758026185150000017948827904580747165_);}
	.st26{fill:none;stroke:#1B1C1E;stroke-width:1.2604;stroke-linecap:round;stroke-linejoin:round;}
	.st27{fill:#D1493B;}
	.st28{fill:#FFAE1F;}
	.st29{opacity:0.88;clip-path:url(#SVGID_00000168114733041089080880000009775158444603094943_);}
	.st30{opacity:0.7;clip-path:url(#SVGID_00000178197950460886636240000000107794813203761831_);}
	.st31{fill:#2C2C2D;}
	.st32{opacity:0.87;clip-path:url(#SVGID_00000129915443406182029550000001409857796784070046_);}
	.st33{fill:#080809;}
	.st34{opacity:0.7;clip-path:url(#SVGID_00000078003136428988517000000009020301961672607888_);}
	.st35{fill:#FBAF5E;}
	.st36{opacity:0.62;clip-path:url(#SVGID_00000007403142564786245600000010896347712863277976_);}
	.st37{fill:#3E240C;}
	.st38{fill:#BC763C;}
	.st39{opacity:0.62;clip-path:url(#SVGID_00000035517783146984127330000018290319821223458688_);}
	.st40{opacity:0.62;clip-path:url(#SVGID_00000082342454276387394520000001433065329491740816_);}
	.st41{fill:#967258;}
	.st42{opacity:0.53;clip-path:url(#SVGID_00000066481703077330500760000006298948035458774431_);}
	.st43{opacity:0.73;clip-path:url(#SVGID_00000001626787938135620020000000128595413135898525_);}
	.st44{fill:none;stroke:#1B1C1E;stroke-width:1.1311;stroke-linecap:round;stroke-linejoin:round;stroke-miterlimit:10;}
	.st45{fill:#3D291C;}
	.st46{fill:#3D291C;stroke:#967258;stroke-width:1.2604;stroke-linecap:round;stroke-linejoin:round;stroke-miterlimit:10;}
	.st47{fill:#D6D4C8;}
	.st48{fill:#1B1C1E;stroke:#967258;stroke-width:1.2604;stroke-linecap:round;stroke-linejoin:round;stroke-miterlimit:10;}
	.st49{opacity:0.52;clip-path:url(#SVGID_00000172419288096816246010000011144834384954153913_);}
	.st50{fill:#B37D4F;}
	.st51{opacity:0.88;clip-path:url(#SVGID_00000073694986126602024610000014245618813081764263_);}
	.st52{fill:#343434;}
	.st53{fill:#BC6464;}
	.st54{opacity:0.88;clip-path:url(#SVGID_00000067204233894514960860000016001829250018073264_);}
	.st55{fill:#1B1C1E;stroke:#1B1C1E;stroke-width:1.1485;stroke-linecap:round;stroke-linejoin:round;stroke-miterlimit:10;}
	.st56{fill:#8C7265;}
	.st57{opacity:0.88;clip-path:url(#SVGID_00000115481977882014205840000005981303235203271817_);}
	.st58{fill:#1B1C1E;stroke:#1B1C1E;stroke-width:1.3664;stroke-linecap:round;stroke-linejoin:round;stroke-miterlimit:10;}
	.st59{opacity:0.88;clip-path:url(#SVGID_00000137123042946127711640000009370712169817941179_);}
	.st60{fill:none;stroke:#1B1C1E;stroke-width:1.3664;stroke-linecap:round;stroke-linejoin:round;stroke-miterlimit:10;}
	.st61{opacity:0.88;clip-path:url(#SVGID_00000169547012597868844320000011382496705534092194_);}
	.st62{opacity:0.88;clip-path:url(#SVGID_00000168074812247047215020000000434314741721003441_);}
	.st63{fill:#5F6C72;}
	.st64{fill:#1B1C1E;stroke:#1B1C1E;stroke-width:1.5329;stroke-linecap:round;stroke-linejoin:round;stroke-miterlimit:10;}
	.st65{opacity:0.88;clip-path:url(#SVGID_00000002357016136771156310000014271199103829339029_);}
	.st66{clip-path:url(#SVGID_00000098202191051836163560000016764658351063505056_);}
	.st67{opacity:0.58;clip-path:url(#SVGID_00000176042004929730034730000008722111395688532362_);}
	.st68{opacity:0.58;clip-path:url(#SVGID_00000034048461422309795100000006064439084421832105_);}
	.st69{fill:#1B1C1E;stroke:#1B1C1E;stroke-width:1.818;stroke-linecap:round;stroke-linejoin:round;stroke-miterlimit:10;}
	.st70{fill:#FFFFFF;}
	.st71{fill:#CC813E;}
	.st72{opacity:0.58;clip-path:url(#SVGID_00000129923139628103351630000010031184161469860497_);}
	.st73{fill:#AA8C7D;}
	.st74{opacity:0.88;clip-path:url(#SVGID_00000075157463267480324430000014159940365060913824_);}
	.st75{opacity:0.88;clip-path:url(#SVGID_00000086664022234042207760000010032255852436159108_);}
	.st76{fill:#1B1C1E;stroke:#1B1C1E;stroke-width:1.2604;stroke-linecap:round;stroke-linejoin:round;stroke-miterlimit:10;}
	.st77{opacity:0.88;clip-path:url(#SVGID_00000168802403224035302760000010693738639351618193_);}
	.st78{opacity:0.88;clip-path:url(#SVGID_00000060007071432607862150000011096106262561757583_);}
	.st79{opacity:0.88;clip-path:url(#SVGID_00000119086219668641852700000018092095114278422155_);}
	.st80{fill:none;stroke:#1B1C1E;stroke-miterlimit:10;}
	.st81{fill:#B8BDC4;}
	.st82{fill:#B4D3CD;}
	.st83{opacity:0.88;clip-path:url(#SVGID_00000147211201930505317440000005297460976143919519_);}
	.st84{opacity:0.88;clip-path:url(#SVGID_00000130646180746826186370000002006555058161182130_);}
	.st85{fill:#EFBE9D;}
	.st86{opacity:0.88;clip-path:url(#SVGID_00000082363307824325060090000011679212527520702094_);}
	.st87{fill:#443730;}
	.st88{opacity:0.88;clip-path:url(#SVGID_00000000937133185702557720000011405013903643427000_);}
	.st89{opacity:0.88;clip-path:url(#SVGID_00000140004370234916744800000006766803780123080860_);}
	.st90{fill:#E2AF8D;}
	.st91{fill:none;stroke:#1B1C1E;stroke-linecap:round;stroke-linejoin:round;stroke-miterlimit:10;}
	.st92{fill:#1B1C1E;stroke:#1B1C1E;stroke-miterlimit:10;}
	.st93{fill:#FCEA9F;}
	.st94{fill:#F6EBEF;}
	.st95{fill:#D4DADD;}
	.st96{opacity:0.61;clip-path:url(#SVGID_00000094578869740478710770000013198038364622375841_);}
	.st97{fill:#353737;}
	.st98{fill:#B3B9BC;}
	.st99{opacity:0.61;clip-path:url(#SVGID_00000096748540932360227540000013693030219418736305_);}
	.st100{opacity:0.61;clip-path:url(#SVGID_00000054945467766618868050000016941199601826310581_);}
	.st101{fill:#B3B9BC;stroke:#1B1C1E;stroke-miterlimit:10;}
	.st102{fill:#CCE2CF;stroke:#1B1C1E;stroke-miterlimit:10;}
	.st103{fill:#EAD6DE;}
	.st104{fill:#1B1C1E;stroke:#1B1C1E;stroke-width:1.0185;stroke-miterlimit:10;}
	.st105{fill:none;stroke:#1B1C1E;stroke-width:1.0185;stroke-miterlimit:10;}
	.st106{fill:#FBAF5E;stroke:#1B1C1E;stroke-miterlimit:10;}
	.st107{fill:#513F3B;}
	.st108{opacity:0.88;clip-path:url(#SVGID_00000056426762024068668730000013182975654934551181_);}
	.st109{opacity:0.88;clip-path:url(#SVGID_00000008116033899999087480000001285624323876051588_);}
	.st110{fill:#8B2403;}
	.st111{fill:#EBDAD2;}
	.st112{fill:#A84E39;}
	.st113{fill:#751A01;}
	.st114{fill:#EBDAD2;stroke:#1B1C1E;stroke-miterlimit:10;}
	.st115{opacity:0.78;clip-path:url(#SVGID_00000091737537063209874750000017462021580869649815_);}
	.st116{fill:#290B01;}
	.st117{opacity:0.78;clip-path:url(#SVGID_00000076567164352610461470000008130469050520465577_);}
	.st118{opacity:0.78;clip-path:url(#SVGID_00000167367535226035641770000007412562194935012736_);}
	.st119{opacity:0.78;clip-path:url(#SVGID_00000041291352969266537900000001379780930238721973_);}
	.st120{fill:#030203;}
	.st121{fill:#86889A;}
	.st122{fill:#0B060A;}
	.st123{fill:#736E72;}
	.st124{fill:#9E9AA0;}
	.st125{fill:#18172A;}
	.st126{fill:#3B4D84;}
	.st127{fill:#FFA3AC;}
	.st128{fill:none;stroke:#0B080B;stroke-width:1.2005;stroke-miterlimit:10;}
	.st129{fill:#E7E6E8;}
	.st130{fill:#0B080B;}
	.st131{fill:none;stroke:#1B1C1E;stroke-width:1.2005;stroke-linecap:round;stroke-linejoin:round;stroke-miterlimit:10;}
	.st132{opacity:0.78;clip-path:url(#SVGID_00000142170015904402971340000014984976450999270572_);}
	.st133{opacity:0.78;clip-path:url(#SVGID_00000111177319168289368560000016155481055734822551_);}
	.st134{fill:#89745E;}
	.st135{opacity:0.78;clip-path:url(#SVGID_00000127015380112263393520000004185069802780722845_);}
	.st136{fill:#060606;}
	.st137{fill:#4D483E;}
	.st138{fill:#FF8A00;}
	.st139{fill:#50483F;}
	.st140{fill:#131313;}
	.st141{fill:#E8DBCD;}
	.st142{opacity:0.78;clip-path:url(#SVGID_00000129912526205997063080000014557514539290089102_);}
	.st143{opacity:0.78;clip-path:url(#SVGID_00000063609221800288140210000005445669162781043078_);}
	.st144{fill:#191212;}
	.st145{fill:#6C5353;}
	.st146{opacity:0.78;clip-path:url(#SVGID_00000166638506472717118470000004634265924042984331_);}
	.st147{fill:#B3B3B3;}
	.st148{fill:#FF9F2C;}
	.st149{fill:none;stroke:#343434;stroke-miterlimit:10;}
	.st150{fill:#21262A;}
	.st151{fill:#563D3D;}
	.st152{opacity:0.78;clip-path:url(#SVGID_00000094586008471622126740000003406462313148082576_);}
	.st153{fill:#181716;}
	.st154{fill:#706153;}
	.st155{fill:none;stroke:#1B1C1E;stroke-width:0.8477;stroke-miterlimit:10;}
	.st156{fill:#FCBD30;}
	.st157{fill:#E8D9CD;}
	.st158{fill:#534E4A;}
	.st159{opacity:0.78;clip-path:url(#SVGID_00000086653297369741346540000015275122020832632502_);}
	.st160{fill:#7DA050;}
	.st161{opacity:0.78;clip-path:url(#SVGID_00000045600065158662908560000005943759375419114937_);}
	.st162{opacity:0.78;clip-path:url(#SVGID_00000135673410744431109880000000343133970958966418_);}
	.st163{opacity:0.78;clip-path:url(#SVGID_00000152258811675581268800000008833453927396638851_);}
	.st164{fill:#EFEECE;}
	.st165{opacity:0.78;clip-path:url(#SVGID_00000127010163789731564960000008180566357530028208_);}
	.st166{fill:#93543B;}
	.st167{fill:#FF510C;}
	.st168{opacity:0.78;clip-path:url(#SVGID_00000085970785647647413070000003636050421765211271_);}
	.st169{fill:#4B1804;}
	.st170{fill:#000A0E;}
	.st171{opacity:0.78;clip-path:url(#SVGID_00000109029121496110340580000000857177874856465041_);}
	.st172{opacity:0.78;clip-path:url(#SVGID_00000070837228396722022740000018384490708507319706_);}
	.st173{fill:#F9C8A7;}
	.st174{fill:#1B1C1E;stroke:#1B1C1E;stroke-width:1.3738;stroke-miterlimit:10;}
	.st175{fill:none;stroke:#1B1C1E;stroke-width:1.3;stroke-miterlimit:10;}
	.st176{fill:#FFCB6E;}
	.st177{fill:#CECECE;}
	.st178{fill:none;stroke:#1B1C1E;stroke-width:1.3037;stroke-miterlimit:10;}
	.st179{fill:#FFFFFF;stroke:#1B1C1E;stroke-width:1.3;stroke-miterlimit:10;}
	.st180{opacity:0.78;clip-path:url(#SVGID_00000066509285359781342950000010090299914135002511_);}
	.st181{fill:none;stroke:#1B1C1E;stroke-width:1.3738;stroke-miterlimit:10;}
	.st182{opacity:0.45;clip-path:url(#SVGID_00000160910984959744120900000006624400925311749549_);}
	.st183{opacity:0.45;clip-path:url(#SVGID_00000073714988836144035030000006953345650598696878_);}
	.st184{opacity:0.45;clip-path:url(#SVGID_00000052076383113898834240000016753726435462963607_);}
	.st185{opacity:0.45;clip-path:url(#SVGID_00000126311047485753666550000009029858391437911227_);}
	.st186{fill:none;stroke:#1B1C1E;stroke-width:1.3738;stroke-linecap:round;stroke-linejoin:round;stroke-miterlimit:10;}
	.st187{fill:#FFB192;}
	.st188{fill:#EB8226;}
	.st189{fill:#F7EDE1;}
	.st190{opacity:0.78;clip-path:url(#SVGID_00000181769512316736620990000010875607970311693976_);}
	.st191{opacity:0.78;clip-path:url(#SVGID_00000097466062790627783150000004689158206702451366_);}
	.st192{opacity:0.5;clip-path:url(#SVGID_00000183207209550075217040000004827144939781414319_);}
	.st193{opacity:0.5;clip-path:url(#SVGID_00000002377354870786030030000010968177021312900491_);}
	.st194{fill:none;stroke:#06002C;stroke-width:1.3038;stroke-miterlimit:10;}
	.st195{fill:#F7A9B4;}
	.st196{fill:#06002C;}
	.st197{opacity:0.5;clip-path:url(#SVGID_00000108297681717726631230000002227485439851840446_);}
	.st198{fill:none;stroke:#06002C;stroke-width:1.3038;stroke-linecap:round;stroke-linejoin:round;stroke-miterlimit:10;}
	.st199{fill:#9BBEDC;}
	.st200{opacity:0.88;clip-path:url(#SVGID_00000054949356275554321580000009461584335753795479_);}
	.st201{opacity:0.88;clip-path:url(#SVGID_00000151538397101852373990000007652197181803189668_);}
</style>
<g id="Background">
	<rect x="-3.2" y="-2.4" class="st5" width="510" height="382.5"/>
</g>
<g id="Illustration">
	<g>
		<path class="st22" d="M158,311.7c0,0-8.5,2.6,14.7,3.4s145.9,1.2,158.6,0c12.6-1.2,37.2-0.5,4.6-3.4s-66.2-1.2-99-2.9
			C204.1,307,163,308.7,158,311.7z"/>
		<path class="st6" d="M185,231.5c0,0,19.8,61.1,21.9,69.8c0,0-10.1,1.3-10,10.7c0,0,13.3,0,14.8,0s4.3-7.8,4.3-7.8s-2-59,0-71.7
			C218,219.8,185,221.3,185,231.5z"/>
		<g>
			<defs>
				<path id="SVGID_00000180325061366891030950000012533917523387410575_" d="M216,232.4c-0.7,4.6-0.9,15.4-0.9,27.2
					c-12.9-13.6-25.7-14.4-25.7-14.4s0,0,0,0c-2.6-8.1-4.4-13.7-4.4-13.7C185,221.3,218,219.8,216,232.4z"/>
			</defs>
			<clipPath id="SVGID_00000126282042895374767050000006480719191703040439_">
				<use xlink:href="#SVGID_00000180325061366891030950000012533917523387410575_"  style="overflow:visible;"/>
			</clipPath>
			<g style="opacity:0.88;clip-path:url(#SVGID_00000126282042895374767050000006480719191703040439_);">
				<g>
					<g>
						<g>
							<g>
								<path class="st33" d="M203.6,240.8c0,0.1,0,0.3,0,0.4C203.6,241.2,203.6,241,203.6,240.8z"/>
								<path class="st33" d="M194.6,239.5C194.6,239.5,194.6,239.5,194.6,239.5l0-0.1L194.6,239.5z"/>
								<path class="st33" d="M194.6,239.4l0.1-0.5C194.8,239.1,194.7,239.2,194.6,239.4z"/>
								<path class="st33" d="M203.8,244.2c0.1,0.1,0.1,0.3,0.1,0.6L203.8,244.2z"/>
								<path class="st33" d="M202.5,246.1c0,0.1-0.1,0.2-0.1,0.2C202.4,246.2,202.5,246.2,202.5,246.1z"/>
								<path class="st33" d="M211.8,240.5c0-0.1,0-0.1,0-0.2C211.8,240.3,211.8,240.4,211.8,240.5z"/>
								<path class="st33" d="M212.3,241.3c0.1,0,0.1,0,0.1,0l0,0.1C212.4,241.6,212.4,241.4,212.3,241.3z"/>
								<path class="st33" d="M212,242l0.1,0.1C212.1,242,212.1,242,212,242z"/>
								<path class="st33" d="M216.1,248.1l0,0.5C216.1,248.4,216.1,248.2,216.1,248.1z"/>
								<path class="st33" d="M211.7,239.8c0,0.1,0,0.3,0.1,0.5C211.7,240.1,211.6,240.1,211.7,239.8z"/>
								<path class="st33" d="M203.6,240.5c0,0.1,0,0.2,0,0.2C203.6,240.7,203.6,240.6,203.6,240.5z"/>
								<path class="st33" d="M204.4,244.3L204.4,244.3C204.4,244.2,204.4,244.2,204.4,244.3z"/>
								<path class="st33" d="M191.5,238.1c-0.1-0.1-0.1-0.2-0.2-0.3C191.6,237.7,191.6,237.9,191.5,238.1z"/>
								<path class="st33" d="M209.4,241.4c-0.2,1.5,0.3,0.1,0.2,1.6c-0.1-0.3-0.2-0.6-0.4,0.2c0.1,0.8,0.4,0,0.3,1.2l-0.2-0.5
									c-0.2,0.6-0.1,1.6-0.2,1.5c0-1.8-0.8,0.6-1.1,0.3l0.1,0.2l-0.5,0.8c0,0,0,0.1,0,0.1c0-0.1,0-0.2,0-0.3
									c-0.3,0.8-0.6,1.4-0.9,1.2c0-1-1-0.5-1-1.3c0.1,0.3,0.2,0.3,0.4,0.1l0.1-1.2c-0.3,0-0.2,1.1-0.4,0.3
									c0.3-1.6,0.4,0.1,0.6-0.1c0-0.4-0.1-0.7-0.2-0.9c0.4,0,0.9-0.5,1,1.1c0.2-0.3,0.2-1,0.1-1.2c0.2,1,0.3-0.9,0.5,0
									c0.1-1.5-0.5-0.8-0.7-1.7c-0.5,1.1-0.9,0-1.3-0.3c-0.2,1.1,0,2.1-0.3,2.7c-0.5,0.7-0.3-0.6-0.5-1.3
									c-0.4,0.3-0.3,1.8-0.8,1.8l0.2,0.8c-0.5,1.5-0.2-0.7-0.4-0.4c0.1-0.4,0.2-0.8,0.4-0.7c0.1-0.6,0-0.8-0.1-0.9l0.1,0
									c0-0.8,0.1-1.6-0.2-1.2c0,0.9-0.4,0.6-0.5,1l0,0.2c-0.2-0.3-0.4-0.3-0.5-0.4l0,0.2c-0.1-0.4,0.1-1.5-0.2-1.3
									c-0.1,0.5,0,1.7-0.2,1.5c-0.1,0.7,0.2,0.8,0.5,0.6c-0.3,0.2-0.6,1.3-0.3,1.4c-0.2,0.8-0.2-0.4-0.4-0.1
									c0.1-0.3,0.1-0.6,0.1-0.8c-0.2,1.2-0.6,0-0.4-0.8l0.2,0.7c0.2-0.9,0-1.6,0.2-2.1c-0.4,1.4-0.6-0.9-1,0.3l0.3-0.7
									c-0.7,0.4-0.8-1.5-1.3-2c0.1,0.5-0.3,2.1,0.2,1.6c-0.6,0.2-0.5,1.5-0.9,2.3c-0.6,0.5,0.1-1.5,0.1-2.1l0.2,0.4
									c0.1-1.9-1.2,0.1-1.5-1.2c-0.2,0.5,0,0.3,0.1,0.5c-0.5,0.9-0.2-0.3-0.3-0.7c-0.3,0.1-0.8,0.4-0.9,1.6
									c-0.4,0.2,0.2-0.7,0.2-1.1l-0.1,0.2l0.1-1.4c-0.4,0.3-0.9,0.8-1.3,1.9c-0.5-0.4,0.6-2.7,0.3-3.2c-0.4,0.5-0.2,0.9-0.3,1.3
									l-0.3-0.2c-0.3,1.3,0.2,0.8-0.2,2.3c0.1-1.6-0.3-0.6-0.4-1.7l0.1-0.1c0.1-1.1-0.5-0.5-0.7-0.8c-0.1,0.6,0.2,0.8,0.3,1.1
									c-0.5,0.4-1-0.3-0.8-1.7c-0.2,0.1-0.8,0.5-0.7,1.2c-0.6,0,0.4-1.9-0.2-1.7l-0.4,1c-1.1,1.2-0.6-1.6-1.6-0.6l0.5-1.2
									c-0.3,0.5-0.6,0.6-0.9,1l0.1,0.5c-0.6,0.9,0.1-1.1-0.4-0.5c0.2-0.4,0.7-1.1,0.9-1.5c0.8,1.2,2.5-0.2,3.1,1.4
									c-0.1,0.1-0.2,0.3-0.3,0.5c0.2-0.2,0.3,0.2,0.5-0.5l0-0.1c0.2,0.4,0.9-1,1.1-1c-0.2,0.9,0.7-0.2,0.1,1.2l0.5-0.8
									c-0.1,0.5-0.4,1.2-0.3,1.5c0.2-0.1,0.4-0.6,0.4-1c0.9-0.3,1.7,0.1,2.4,0.8l0-0.7c0.3-0.3,0.4,1.4,0.6-0.4
									c0.2,0.8,1.1-0.2,0.7,1.6c0.7-1.7,1.1-0.5,1.5-0.2c-0.4,1.5,0.3,0.5,0.3,1.3c0.3-1.2-0.2-1.3,0-2.1c0.2,2,1.7-1.1,1.4,2.1
									c0.1-0.1,0.1-0.2,0.1-0.4c0.1,0,0.3-0.5,0.5-0.6c0,0.6-0.3,0.8-0.1,1c0.2-0.1,0.3-1,0.4-1.3c0.3,0.8,0.8,1.2,0.7,2.4
									c0.2-0.3,0.4-1,0.3-1.3c0.5,1.1,0.6-0.1,1.1,0.6c-0.2-0.1,0.1-1.3-0.3-0.9c0.5-1.7,0.9,0.4,1.5-0.4l0.1,1.2
									c0.3,0.2,0.4-0.9,0.3-1.3c0.6-0.6,0.8,0.1,1.2,0.1c0-0.1,0-0.4,0-0.3l0.6,0c0,0.3,0.2,0.9,0.1,1.6
									C209.8,241.4,209.7,241,209.4,241.4z"/>
								<path class="st33" d="M209.8,242.1l0,0.1l0,0C209.8,242.1,209.8,242.1,209.8,242.1z"/>
								<path class="st33" d="M203.9,246.3c0.1-0.3,0.2-0.4,0.2-0.5C204,246,204,246.2,203.9,246.3z"/>
								<path class="st33" d="M215.2,244.4c-0.1,1.8-0.4-0.3-0.6,0.2c0.2,0.3,0.1,1.3,0.1,1.8c-0.2-2.3-0.4,0.5-0.9,0
									c0,0.7,0.2,0.9,0.2,1.7c-0.3-0.6-0.8-0.9-0.8-2.2c-0.5-0.1-0.9,0.4-1.2,0.1c0.4,0.5,0,1.3,0.2,2.4c-0.3-1.5-1.1-3.3-1.5-5.1
									c-0.2,1.4-0.2,1.5-0.3,2.8c-0.7,0.9-0.1-1.3-0.7-0.9l0.3-0.2c-0.2-0.4-0.1-1.7-0.1-2.7l0.7,0.2c0.1-1-0.4-0.8-0.5-1.1
									c-0.1-1.2,0.4-0.8,0.4-1.7c0,0.8,0.3,0.5,0.5,0.9l0.1-0.5c0.3-0.5,0.4,0.8,0.7,0.8c0-0.1,0-0.2,0-0.3
									c0.1,0.6,0.1,1.3,0.3,1.5l-0.1-0.1c0.2,1.2,0.7,2,0.2,3.3l0.7-0.3c0-1.3,0-3.4-0.4-3.6l0-0.6c0.3-0.7,0.8,1.1,0.5,2.2
									c0.1,3.2,1.1,0.2,1.5,1.5c0.1-0.9-0.2-1.2-0.3-1.8c-0.1-0.1-0.3-0.1-0.3,0.6c-0.6-0.5,0.2-2.8-0.5-2.5
									c-0.4,0.4,0.4,1.4-0.2,1.5l-0.2-2.4c0.3,0.1,0.6,0.5,0.8,0.8c0.7,0.9,1.3,0.9,1.8,0.8c0.4-0.1,0.7-0.5,0.7-0.5
									c1.1,0.1,2.1,0.3,3.2,0.4l3.2,0.2c0.7,0.3,0.9,0.2,1.4,2.6c-0.1,0.5-0.6,0.3-0.3,1.1c-0.1-0.9-0.4-1.4-0.8-1.3
									c0,0.9,0.4,0.4,0.3,0.6l-0.1,0.1c0.1,0.4,0.1,0.7,0.3,0.8c-0.3,1.3-1.1,1.1-1.5-0.6c-0.3,0.9,0.3,1.4,0.5,2
									c-1.2,0.7-2,0.6-3.2,0.8c-0.1-1.5-0.1-1-0.3-2l-0.1,0.6c0-0.3-0.1-1.3,0.1-1.7c-0.7,1.2-0.8-2.1-1.3-2.7l0,0.8
									c-0.4-0.1-0.5-0.2-0.8-0.6c-0.6,1.5,0.5,0.2,0.4,2.2L217,244c0.1,0.8,0.2,2.1,0.4,2.7c-0.6-1.3-0.9,0.5-1.5-0.5
									c0.1,0.9,0.6,1.6,0.8,1.7c-0.2,0.1-0.6-0.6-0.7,0.3l0-1.1c-0.4-0.1,0,1-0.1,1.8C215,248.5,215.9,245.1,215.2,244.4z"/>
								<path class="st33" d="M206,244.3c0.1-0.1,0.2,0,0.3,0.1C206.2,244.4,206.1,244.4,206,244.3z"/>
								<path class="st33" d="M207.5,246.6c0,0.2,0,0.3,0,0.4C207.5,247,207.5,246.8,207.5,246.6z"/>
								<path class="st33" d="M207.5,248.2c0.1-0.5,0-0.5,0-1.2C207.6,247.4,207.9,247.5,207.5,248.2z"/>
								<path class="st33" d="M178.7,237c0.2-0.3,0.1-0.8,0.4-0.9c0,0.2,0.1,0.4,0.1,0.6L178.7,237z"/>
								<path class="st33" d="M180.1,236.6l0.6-0.1l-0.7,1.4C179.6,237.6,180.4,236.8,180.1,236.6z"/>
								<path class="st33" d="M181.4,236.5l0.2-0.3C181.6,236.4,181.5,236.5,181.4,236.5z"/>
								<path class="st33" d="M181.1,237.1l-0.5,1l0.1-0.9l0.3-0.1c0.2-0.3,0.4-0.4,0.5-0.5l-0.3,0.7
									C181.1,237.2,181.2,237,181.1,237.1z"/>
								<path class="st33" d="M181.4,237.3c-0.1,0.1-0.1,0.2-0.2,0.3C181.2,237.5,181.3,237.4,181.4,237.3z"/>
								<path class="st33" d="M183.3,236.2c-0.3,0.3-0.5,0.9-0.7,1.3c-0.5,0.2,0.4-1.2-0.2-1c-0.1,1-0.5,0.4-1,0.9
									c0.7-0.8,1.2-1.3,1.7-1.3l-0.4,0.6C182.8,236.7,183,236.3,183.3,236.2z"/>
								<path class="st33" d="M183.9,238.6l0.3-1c-0.3,0.4-0.7,0.2-1.2,1.1c-0.1-0.2,0.2-0.6,0.2-0.9c-0.4,0.4-0.7,0.7-0.4,0
									c1-0.2,0.9-0.6,1.6-0.5c0.1-0.2,0-0.2-0.1-0.2l0.6-0.3C184.3,237.8,184.7,238.1,183.9,238.6z"/>
								<path class="st33" d="M184.8,238.2c-0.2-0.2,0.1-1.1,0.6-1.6l0.1,1C185.4,237.5,185.2,237.3,184.8,238.2z"/>
								<path class="st33" d="M185.2,238.4c0.4-0.4,1.1-1.3,0.8-0.3C185.8,237.8,185.1,239.2,185.2,238.4z"/>
								<path class="st33" d="M187.6,238.5l-0.8,0.3c-0.7,1.2,0.1,0.5-0.1,1.1c-0.6,0-0.2-0.3-0.2-1.2c-0.2,0,0-0.7,0-1.1
									C186.6,239,188.2,236.1,187.6,238.5z"/>
								<polygon class="st33" points="185.9,239.2 186.1,238.7 186.1,239.2 								"/>
								<path class="st33" d="M189.4,237.8c1-1.3,0.2,1.1,0.9,0.6c0-0.1,0.1-0.2,0.1-0.4l0.2,0.3l0.2-0.3c-0.4,0.9-0.2,1.4-0.4,2.1
									c-0.7,0.8,0.3-1.2-0.4-0.3c-0.1,0.4-0.3,1.1-0.4,1.4c0-0.5,0.2-1.1,0.3-1.6c-0.2-0.2-0.3,0.3-0.5,0.7c0-0.6,0.6-1.9,0.1-1.7
									c-0.6,0.7-0.4,1.3-0.7,0.8c0.8-1.3-0.5,0-0.2-0.9c-0.4,0.1-1,0.9-1.2,1.4c0.5-1.1,0.7-2.1,0.7-2.5l0,1.1l0.8-1.2
									c0,0.7,0.2,0.7,0.5,0.7L189.4,237.8z"/>
								<path class="st33" d="M189.6,241.2c0,0.1,0,0.2,0,0.3C189.5,241.5,189.5,241.4,189.6,241.2z"/>
								<polygon class="st33" points="187.2,240.1 187.2,240.4 186.9,240.7 								"/>
								<path class="st33" d="M189.4,242.2c-0.1,0,0.1-0.4,0.2-0.4l-0.2,0.6L189.4,242.2z"/>
								<polygon class="st33" points="190.1,241.5 190.6,240.9 190.4,241.5 								"/>
								<path class="st33" d="M197.3,243.2c-0.4,0.4-0.1-0.5,0.1-1.2C197.7,241.9,197.1,242.8,197.3,243.2z"/>
								<path class="st33" d="M201.5,245.5c-0.4,0.6-0.4-0.4-0.7-0.4C201.1,244.6,201.4,245,201.5,245.5z"/>
								<path class="st33" d="M202.9,249c0-0.3-0.1-0.5,0.1-0.6l0-1.7C203.5,246.2,203,248.3,202.9,249z"/>
								<path class="st33" d="M205.1,249.6l-0.3-0.7l0.2,0c0-0.7,0-1-0.1-1.6C205.2,247.7,205.4,248.4,205.1,249.6z"/>
								<path class="st33" d="M204.7,247c0,0,0.1,0.1,0.1,0.1C204.7,247.3,204.7,247.5,204.7,247z"/>
								<path class="st33" d="M205,247.1c0,0.1,0,0.1,0,0.2c-0.1-0.1-0.1-0.2-0.2-0.2C204.9,247,204.9,246.8,205,247.1z"/>
								<path class="st33" d="M205.5,248.8l0.6,0.3l-0.3,0.3C206,248.4,205.5,250,205.5,248.8z"/>
								<path class="st33" d="M209,248.4l0.2-1c0.4-0.2,0.7,2,1.1,0.4c-0.2,0.6,0.2,1.2-0.3,1.4C209.9,248.3,209.3,248.1,209,248.4z
									"/>
								<path class="st33" d="M210.6,247c0-0.3,0.1-0.5,0.1-0.8c0.1-0.1,0.3,0.4,0.2,0.8C210.9,245.6,210.7,247.8,210.6,247z"/>
								<path class="st33" d="M212.5,247.2c-0.1,0-0.3-0.1-0.1-0.4c0.3,0.1,0.2,1.2,0.3,1.9C212.4,249.3,212.2,247.7,212.5,247.2z"
									/>
								<path class="st33" d="M215.4,239.7c-0.1,0.9-0.3,0.8-0.4,0.4C215.1,240.3,215.3,240.1,215.4,239.7z"/>
								<polygon class="st33" points="215.3,247 215.2,247.2 215.1,245.9 								"/>
								<polygon class="st33" points="217.4,247.8 217.6,248.6 217.2,248.5 								"/>
								<path class="st33" d="M217.8,247.6l0.4,0.1L218,248C217.8,248.2,217.9,247.6,217.8,247.6z"/>
								<path class="st33" d="M218.8,247.7c0-0.1-0.1,0.1-0.1,0.2l-0.3-0.6L218.8,247.7z"/>
								<path class="st33" d="M224,242c-0.1-0.9,0.2-0.3,0.3-0.5C224.3,241.7,224.2,242.8,224,242z"/>
							</g>
						</g>
					</g>
				</g>
			</g>
		</g>
		<path class="st6" d="M332.6,172c0,0,14.8-13.5,19.3-34.7s-10.8-29.4-23-24.9c-13.8,5-14.4,21.8-16.1,30.1
			c-1.1,5.4-4.8,2.4-5.2,1.4c-1.4-3.7,0.3-47.2,33.9-41c20.4,3.8,24.3,22,21.5,36.3s-11.2,29.4-22.5,40.2
			C332.5,187,332.6,172,332.6,172z"/>
		<g>
			<defs>
				<path id="SVGID_00000098198085717457116850000000554084619473976485_" d="M354.5,161.4c-3.8,6.6-8.6,12.8-14,18
					c-7.9,7.6-7.8-7.4-7.8-7.4s3.1-2.8,6.9-7.9C342.4,164.3,347,163.9,354.5,161.4z"/>
			</defs>
			<clipPath id="SVGID_00000097463371354409139680000002689596898200457866_">
				<use xlink:href="#SVGID_00000098198085717457116850000000554084619473976485_"  style="overflow:visible;"/>
			</clipPath>
			<g style="opacity:0.88;clip-path:url(#SVGID_00000097463371354409139680000002689596898200457866_);">
				<g>
					<g>
						<g>
							<path class="st33" d="M334,172.1c0.1,0,0.1-0.1,0.2-0.1C334.2,172,334.2,172,334,172.1z"/>
							<path class="st33" d="M329.3,168C329.2,168,329.2,168,329.3,168L329.3,168L329.3,168z"/>
							<path class="st33" d="M329.2,168.1l-0.2,0.2C329.1,168.2,329.2,168.2,329.2,168.1z"/>
							<path class="st33" d="M335.8,170.9c0.1,0,0.2-0.1,0.4-0.2L335.8,170.9z"/>
							<path class="st33" d="M336.1,169.5c0,0,0.1-0.1,0.1-0.1C336.1,169.4,336.1,169.5,336.1,169.5z"/>
							<path class="st33" d="M337.6,176.5c0,0-0.1,0-0.1,0.1C337.5,176.6,337.6,176.6,337.6,176.5z"/>
							<path class="st33" d="M338.2,176.5C338.3,176.5,338.3,176.6,338.2,176.5l0.1,0C338.4,176.5,338.3,176.5,338.2,176.5z"/>
							<path class="st33" d="M338.4,176.1L338.4,176.1C338.5,176.1,338.5,176.1,338.4,176.1z"/>
							<path class="st33" d="M343.1,176l0.3-0.2C343.3,175.9,343.2,176,343.1,176z"/>
							<path class="st33" d="M337.2,176.7c0.1,0,0.2-0.1,0.2-0.1C337.4,176.6,337.3,176.6,337.2,176.7z"/>
							<path class="st33" d="M333.9,172.2c0,0,0.1-0.1,0.1-0.1C334,172.2,334,172.2,333.9,172.2z"/>
							<path class="st33" d="M336.1,171.2L336.1,171.2C336,171.2,336.1,171.2,336.1,171.2z"/>
							<path class="st33" d="M327.1,167c-0.1,0-0.1,0-0.2,0C326.9,167.1,327,167.1,327.1,167z"/>
							<path class="st33" d="M337,174.9c0.6-0.7,0.2,0.1,0.8-0.5c-0.2,0.1-0.4,0.1-0.1-0.3c0.4-0.3,0.1,0.2,0.7-0.3l-0.3,0.1
								c0.2-0.4,0.7-0.7,0.6-0.7c-0.8,0.6-0.1-0.7-0.3-0.7l0.1,0l0.1-0.5c0,0,0,0,0,0c0,0-0.1,0.1-0.1,0.1c0.3-0.4,0.4-0.9,0.1-0.9
								c-0.5,0.4-0.7-0.3-1.1,0c0.2,0,0.2,0,0.2,0.2l-0.5,0.5c-0.1-0.1,0.4-0.5,0-0.3c-0.6,0.8,0.2,0.2,0.2,0.4
								c-0.2,0.1-0.4,0.2-0.5,0.2c0.2,0.2,0.2,0.7,1,0.1c-0.1,0.2-0.4,0.5-0.5,0.5c0.5-0.3-0.3,0.5,0.2,0.3
								c-0.7,0.6-0.6,0.1-1.1,0.3c0.3-0.7-0.4-0.4-0.7-0.5c0.4-0.5,1-0.8,1.1-1.2c0.1-0.5-0.5,0.1-0.8,0.2c0-0.3,0.7-0.9,0.5-1.1
								l0.4-0.2c0.5-0.9-0.4,0.2-0.4-0.1c-0.1,0.2-0.3,0.4-0.1,0.5c-0.2,0.3-0.4,0.3-0.5,0.3l0,0c-0.4,0.3-0.7,0.7-0.7,0.4
								c0.5-0.3,0.1-0.4,0.3-0.7l0.1-0.1c-0.2,0-0.3-0.1-0.5-0.1l0.1-0.1c-0.2,0.1-0.7,0.6-0.7,0.4c0.2-0.2,0.8-0.7,0.6-0.7
								c0.3-0.3,0.5-0.2,0.5,0c0-0.2,0.3-0.8,0.5-0.7c0.3-0.5-0.3,0.1-0.2-0.2c-0.1,0.1-0.2,0.3-0.3,0.4c0.4-0.6-0.3-0.3-0.6,0.1
								l0.4-0.2c-0.4,0.5-0.8,0.6-0.9,0.9c0.5-0.8-0.7,0-0.3-0.7l-0.2,0.4c-0.1-0.5-1.1,0.2-1.5,0.1c0.3-0.2,0.9-0.9,0.9-0.5
								c-0.2-0.4,0.5-0.9,0.7-1.3c0-0.5-0.7,0.7-0.9,0.8l0.3,0c-0.9,0.8-0.5-0.7-1.3-0.3c0.1-0.3,0.2-0.1,0.3-0.2
								c0.2-0.6-0.2,0-0.4,0.1c-0.1-0.2-0.1-0.5,0.4-1.1c-0.1-0.3-0.2,0.4-0.5,0.5l0.1-0.2l-0.6,0.5c0-0.3,0-0.8,0.3-1.4
								c-0.5-0.1-1,1.3-1.4,1.4c0.1-0.4,0.3-0.5,0.5-0.7l-0.3-0.1c0.5-0.6,0.5-0.2,1-1c-0.7,0.7-0.4,0.1-1,0.4l0,0.1
								c-0.5,0.5-0.5-0.1-0.7-0.1c0.3-0.3,0.5-0.2,0.7-0.3c0-0.4-0.6-0.4-1.2,0.2c0-0.2-0.1-0.6,0.2-0.8c-0.3-0.3-0.7,1-0.9,0.6
								l0.3-0.5c0.1-1-1.1,0.4-1-0.5l-0.4,0.7c0.1-0.3,0-0.5,0.1-0.8l0.3-0.1c0.2-0.7-0.5,0.5-0.4,0c-0.1,0.2-0.2,0.8-0.3,1
								c0.9,0,1.1,1.3,2.1,1c0-0.1,0-0.2,0.1-0.3c0,0.2,0.2,0.1,0,0.5l-0.1,0c0.3,0-0.1,0.9,0,0.9c0.3-0.4,0.2,0.4,0.6-0.4l-0.2,0.6
								c0.2-0.3,0.4-0.6,0.6-0.7c0.1,0.1-0.1,0.4-0.3,0.6c0.3,0.6,0.9,0.8,1.5,0.9l-0.4,0.3c0,0.3,0.8-0.3,0.1,0.5
								c0.5-0.2,0.4,0.7,1.1-0.2c-0.5,1,0.2,0.8,0.6,0.9c0.5-0.8,0.4,0,0.8-0.3c-0.4,0.6-0.7,0.4-1,0.8c1-0.7,0.3,1.3,1.6-0.1
								c0,0.1-0.1,0.1-0.1,0.2c0.1,0.1-0.1,0.4-0.1,0.5c0.2-0.2,0.2-0.5,0.4-0.4c0.1,0.1-0.3,0.5-0.4,0.7c0.5-0.2,0.9,0,1.5-0.6
								c-0.1,0.2-0.3,0.6-0.5,0.7c0.7-0.2,0.2,0.4,0.8,0.4c-0.1-0.1-0.6,0.6-0.5,0.2c-0.6,0.9,0.6,0.3,0.5,0.9l0.6-0.4
								c0.2,0.1-0.2,0.5-0.5,0.6c0,0.5,0.4,0.4,0.6,0.6c0,0.1-0.2,0.2-0.2,0.1l0.3,0.3c0.2-0.1,0.5-0.2,0.8-0.6
								C337.2,175.2,336.9,175.3,337,174.9z"/>
							<path class="st33" d="M337.5,174.9L337.5,174.9L337.5,174.9C337.5,174.9,337.5,174.9,337.5,174.9z"/>
							<path class="st33" d="M336.8,170.2c-0.1,0.2-0.1,0.2-0.1,0.3C336.8,170.4,336.8,170.3,336.8,170.2z"/>
							<path class="st33" d="M341,176.9c0.8-0.7-0.3-0.1-0.2-0.4c0.2,0,0.7-0.4,0.9-0.6c-1.2,0.7,0.1-0.4-0.4-0.5
								c0.3-0.3,0.5-0.2,0.9-0.5c-0.4,0.1-0.8-0.1-1.4,0.4c-0.3-0.3-0.2-0.6-0.5-0.7c0.4,0,0.6-0.5,1.2-0.8c-0.9,0.4-2,0.7-3.1,1.2
								c0.6-0.6,0.6-0.7,1.2-1.2c0.1-0.7-0.7,0.5-0.8,0l0,0.2c-0.3,0-0.9,0.6-1.3,0.9l0.4,0.3c-0.4,0.4-0.6,0.1-0.7,0.2
								c-0.6,0.4-0.2,0.5-0.6,0.9c0.4-0.3,0.4,0,0.6-0.1l-0.2,0.2c-0.1,0.4,0.6-0.1,0.7,0.1c-0.1,0.1-0.1,0.1-0.1,0.2
								c0.3-0.2,0.7-0.4,0.8-0.4l-0.1,0c0.7-0.4,1.3-0.4,1.7-1.1l0.2,0.5c-0.6,0.5-1.6,1.3-1.9,1.1l-0.3,0.2c-0.2,0.5,0.8,0,1.3-0.6
								c1.6-1.1,0.6,0.5,1.4,0.2c-0.4,0.4-0.7,0.3-1,0.5c-0.1,0-0.2-0.1,0.2-0.4c-0.5-0.1-1.2,1.2-1.4,0.7c0-0.4,0.8-0.3,0.7-0.7
								l-1.3,0.8c0.2,0.1,0.5,0.1,0.7,0.1c0.7,0,1,0.4,1.1,0.7c0.1,0.3,0.1,0.6,0.1,0.6c1,1,2,2.1,2.9,3.3c0.4,0.3,0.4,0.4,1.8-0.1
								c0.2-0.2,0-0.4,0.5-0.6c-0.5,0.2-0.8,0.2-0.9,0c0.4-0.3,0.3,0.1,0.4,0l0-0.1c0.2-0.1,0.4-0.2,0.5-0.1
								c0.6-0.6,0.1-1.1-0.9-0.7c0.3-0.5,0.8-0.3,1.2-0.4c-0.1-0.9-0.5-1.4-0.9-2.1c-0.8,0.5-0.5,0.3-1.1,0.5l0.2-0.3
								c-0.1,0.1-0.7,0.4-0.8,0.7c0.3-0.8-1.3,0.3-1.9,0.3l0.4-0.3c-0.2-0.2-0.3-0.2-0.6-0.2c0.5-0.9,0.3,0.2,1.2-0.6l-0.2,0
								c0.4-0.2,1.1-0.7,1.5-0.7c-0.9,0.1-0.1-0.7-0.9-0.7c0.5-0.3,1.1-0.2,1.2-0.2c-0.1-0.2-0.5-0.1-0.2-0.5l-0.6,0.4
								c-0.2-0.2,0.5-0.4,0.8-0.7C342.9,175.3,341.6,177,341,176.9z"/>
							<path class="st33" d="M336.8,172c0,0.1,0.1,0.1,0.2,0.1C337,172.1,336.9,172,336.8,172z"/>
							<path class="st33" d="M338.6,171.9c0.1-0.1,0.1-0.1,0.2-0.2C338.8,171.8,338.7,171.8,338.6,171.9z"/>
							<path class="st33" d="M339.4,171.3c-0.2,0.2-0.3,0.2-0.6,0.4C339,171.7,339.2,171.8,339.4,171.3z"/>
							<path class="st33" d="M321.1,160.8c-0.1,0.2-0.3,0.3-0.3,0.5l0.3-0.1L321.1,160.8z"/>
							<path class="st33" d="M321.4,161.6l0.1,0.3l0.5-0.8C321.7,161.1,321.6,161.7,321.4,161.6z"/>
							<path class="st33" d="M321.8,162.4l-0.1,0.2C321.8,162.5,321.8,162.4,321.8,162.4z"/>
							<path class="st33" d="M322,162l0.3-0.6l-0.5,0.4L322,162c-0.2,0.1-0.1,0.3-0.1,0.4l0.3-0.4C322.1,162,322,162.1,322,162z"/>
							<path class="st33" d="M322.3,162.1c0-0.1,0-0.1,0-0.2C322.3,161.9,322.3,162,322.3,162.1z"/>
							<path class="st33" d="M322.4,163.4c0-0.3,0.3-0.6,0.4-0.8c-0.1-0.3-0.5,0.6-0.6,0.2c0.5-0.4,0-0.4,0.1-0.8
								c-0.2,0.6-0.2,1.1,0,1.3l0.2-0.4C322.5,163,322.4,163.2,322.4,163.4z"/>
							<path class="st33" d="M324,162.9l-0.4,0.5c0.1-0.3-0.2-0.4,0-1c-0.1,0-0.3,0.3-0.4,0.4c0-0.3,0.1-0.6-0.2-0.2
								c0.3,0.6,0.1,0.7,0.4,1c-0.1,0.1-0.1,0.1-0.1,0l0.1,0.4C323.7,163.4,324,163.5,324,162.9z"/>
							<path class="st33" d="M324.1,163.5c-0.2,0-0.5,0.5-0.6,0.9l0.6-0.3C324,164.1,323.8,164.1,324.1,163.5z"/>
							<path class="st33" d="M324.4,163.6c-0.1,0.3-0.2,1,0.2,0.5C324.3,164.2,324.8,163.3,324.4,163.6z"/>
							<path class="st33" d="M325.5,164.8l-0.2-0.5c0.3-0.8,0.3-0.2,0.6-0.4c-0.3-0.3-0.3,0-0.7,0.4c-0.1-0.1-0.4,0.2-0.6,0.4
								C325.3,164.2,324.5,166,325.5,164.8z"/>
							<polygon class="st33" points="325.1,163.7 324.9,164 325.2,163.8 							"/>
							<path class="st33" d="M326,166c-0.2,1,0.7-0.3,0.7,0.2c-0.1,0-0.1,0.1-0.2,0.2l0.2,0l-0.1,0.2c0.3-0.5,0.6-0.6,0.9-1
								c0.1-0.7-0.4,0.6-0.3-0.1c0.2-0.2,0.4-0.6,0.5-0.7c-0.3,0.2-0.5,0.5-0.7,0.8c-0.2,0,0-0.3,0.1-0.5c-0.3,0.2-0.7,1-0.8,0.7
								c0.1-0.5,0.4-0.7,0.1-0.6c-0.3,0.9-0.2-0.3-0.6,0.2c-0.1-0.3,0-0.8,0.2-1.1c-0.3,0.7-0.7,1.1-1,1.3l0.6-0.4l-0.2,0.8
								C325.8,165.7,325.9,165.8,326,166L326,166z"/>
							<path class="st33" d="M327.8,164.8c0,0,0.1-0.1,0.1-0.1C327.9,164.7,327.8,164.8,327.8,164.8z"/>
							<polygon class="st33" points="326.1,164 326.3,163.9 326.3,163.7 							"/>
							<path class="st33" d="M328.2,164.4c0,0-0.2,0.2-0.1,0.2l0.2-0.3L328.2,164.4z"/>
							<polygon class="st33" points="328.2,165 328.1,165.5 328.3,165.1 							"/>
							<path class="st33" d="M332.3,168c0-0.3-0.3,0.2-0.5,0.5C331.9,168.7,332,168,332.3,168z"/>
							<path class="st33" d="M335.3,169.3c0.1-0.4-0.4-0.1-0.5-0.2C334.7,169.4,335,169.4,335.3,169.3z"/>
							<path class="st33" d="M337.6,168.6c-0.2,0.1-0.3,0.1-0.2,0.3l-0.8,0.7C336.6,170,337.4,168.9,337.6,168.6z"/>
							<path class="st33" d="M339,169.6l-0.5,0.1l0.1,0.1c-0.3,0.3-0.5,0.4-0.8,0.6C338.1,170.3,338.5,170.1,339,169.6z"/>
							<path class="st33" d="M337.5,170.3c0,0,0.1,0,0.1,0C337.7,170.2,337.8,170.1,337.5,170.3z"/>
							<path class="st33" d="M337.7,170.4c0,0,0.1,0,0.1-0.1C337.7,170.4,337.7,170.4,337.7,170.4
								C337.6,170.4,337.5,170.5,337.7,170.4z"/>
							<path class="st33" d="M338.8,170.1l0.4,0.2l0-0.3C338.7,170.5,339.3,169.6,338.8,170.1z"/>
							<path class="st33" d="M340.1,172.1l-0.4,0.5c0.1,0.3,1.3-0.4,0.7,0.4c0.2-0.4,0.7-0.3,0.6-0.7
								C340.5,172.6,340.1,172.3,340.1,172.1z"/>
							<path class="st33" d="M340.2,173.5c-0.2,0.1-0.2,0.2-0.3,0.4c0,0.1,0.3,0,0.4-0.2C339.7,174.1,340.6,173.2,340.2,173.5z"/>
							<path class="st33" d="M341.1,174.4c-0.1-0.1-0.2-0.1-0.2,0.1c0.2,0.2,0.7-0.4,1.1-0.5C342.1,173.5,341.2,174,341.1,174.4z"/>
							<path class="st33" d="M338.8,178.7c0.4-0.4,0.2-0.4,0.1-0.4C339,178.4,338.9,178.6,338.8,178.7z"/>
							<polygon class="st33" points="342.3,176 342.3,175.8 341.6,176.3 							"/>
							<polygon class="st33" points="343.5,176.8 344,176.7 343.8,176.5 							"/>
							<path class="st33" d="M343.6,177.2l0.2,0.2l0.1-0.2C343.9,176.9,343.6,177.2,343.6,177.2z"/>
							<path class="st33" d="M344.1,177.7c-0.1,0,0-0.1,0.1-0.1l-0.4,0L344.1,177.7z"/>
							<path class="st33" d="M343.3,182.6c-0.5,0.2-0.1,0.2-0.2,0.3C343.2,182.9,343.8,182.5,343.3,182.6z"/>
						</g>
					</g>
				</g>
			</g>
		</g>
		<path class="st6" d="M271.8,243.8c0,0,5.4,16.8,21.1,30.7l-9.8,26c0,0-16.4-0.5-15.9,11.4h18c0,0,7.1-6.8,7.7-7.7
			c0.6-1,16.5-33.8,16.5-33.8l-11.6-37C297.8,233.5,269.3,237.8,271.8,243.8z"/>
		<path class="st80" d="M272.2,306.8c0,0-1.7,1.9-0.5,5.1"/>
		<path class="st80" d="M203.9,306.5c0,0-1.9,2.3-1,5.4"/>
		<path class="st6" d="M144.1,127.8c0,0-13.2-30-5.1-31c6.6-0.8,25.2,20.7,25.2,20.7S146.4,129.1,144.1,127.8z"/>
		<path class="st6" d="M180.5,118.3c0,0,8.1-10.3,18.6-16.8s9.3,0.8,7.1,9.1c-2.6,9.4-8.5,19.8-8.5,19.8s-15.2-8.4-17.2-12.9"/>
		<path class="st6" d="M149.9,160.6c-2.1,34.7,7.7,70.5,36.4,77.4s86.8,5.8,86.8,5.8c9.1,18.2,23.7,26.8,23.7,26.8l-10.4,30.8
			c-13.3,1-11.7,10.6-11.7,10.6h19.3c0,0,52.2-83.7,52.8-111.3s-15.4-40.2-61.4-42.8s-86.1,4.2-86.1,4.2l-3.6-5.9c0,0,7.4-9,7-17.7
			c-0.2-3.6-1.4-7.3-3.7-10.6c-1.8-2.6-4.3-4.9-7.5-6.8c-2.5-1.4-5.3-2.5-8.6-3.2c-6.6-1.4-13.3-1.7-19.3-1.1
			c-1.4,0.1-2.7,0.3-4,0.6c-1.8,0.3-3.5,0.7-5,1.2c-2.1,0.7-4.1,1.5-5.8,2.5c-8.8,5.1-13.2,16.1-10,25.4
			C142.1,155.9,149.9,160.6,149.9,160.6z"/>
		<path class="st80" d="M273.1,243.8c9.1,18.2,23.7,26.8,23.7,26.8l-10.4,30.8"/>
		<path class="st80" d="M163.5,116.8c-1.4,0.1-2.7,0.3-4,0.6c-1.8,0.3-3.5,0.7-5,1.2"/>
		<line class="st80" x1="149.9" y1="160.6" x2="151.7" y2="161.8"/>
		<path class="st81" d="M170.9,158.7c0,0,1.5,1.1,4.1,1c2.6-0.1,3.5-1.4,3.5-1.4s-1.5-3.2-3.9-3.5
			C172.2,154.4,170.9,158.7,170.9,158.7z"/>
		<g>
			<path class="st82" d="M164.1,143.5c2.1-0.5,3.3-2.7,2.6-4.7c-0.7-2.1-2.1-4.5-4.9-5.5c-2.8-0.9-5.4-0.5-7.2,0.1
				c-1.8,0.6-2.9,2.5-2.4,4.4c0.5,1.8,1.8,3.9,4.6,5.2C159.3,144.1,162,143.9,164.1,143.5z"/>
		</g>
		<path class="st82" d="M183.8,142.4c-2.5-0.2-4-2.9-3-5.1c1-2.2,2.9-4.6,6-5.3c2.3-0.5,4.1-0.4,5.4,0c2.2,0.6,3.3,3.2,2.2,5.2
			c-0.8,1.5-2.2,3.2-4.4,4.2C187.8,142.4,185.6,142.6,183.8,142.4z"/>
		<path class="st80" d="M273.1,243.8c0,0-2.1-3.8-2.7-6.1"/>
		<path class="st80" d="M280,311.9c0,0-0.2-2.9,1.7-4.9"/>
		<path class="st80" d="M288.6,306.8c0,0-2.1,1.7-1.9,5.1"/>
		<ellipse class="st22" cx="160.8" cy="138.4" rx="1.6" ry="3.5"/>
		<ellipse class="st22" cx="186.5" cy="137.3" rx="1.6" ry="3.5"/>
		<path class="st81" d="M174.7,153.2v2c0,0-0.2,1-2.7,3.3c-1.6,1.6-6.6,3.3-8.6-0.3c-2-3.6,2.2-8.7,7.7-8.7
			C176.6,149.5,174.7,153.2,174.7,153.2z"/>
		<path class="st81" d="M174.7,155.2c0,0,1.7,2.1,2.9,2.9c0.9,0.6,3.5,2.8,5.8,1.7c2.4-1,3.1-4.5,2-6.8s-4.4-4-7.4-3.5
			C175,149.9,174.4,151.5,174.7,155.2z"/>
		<path class="st22" d="M174.7,153.2c0,0-4.2-2-4.6-4s3.6-2.6,6.2-2.1C179.6,147.6,180.2,150.1,174.7,153.2z"/>
		<path class="st6" d="M198.7,227.9c0,0,1.6,5.3,3.7,12.8c3.7,13.1,9,32.7,10.1,41.2c1.8,13.3,1.4,19.5,1.4,19.5
			s-13.7-0.6-13.2,10.5c0,0,19,0,20.1,0c1.1,0,5.6-12.9,5.6-12.9s4.2-35.9,6.4-55.9c0.8-6.9,1.3-11.8,1.3-12.9"/>
		<path class="st80" d="M202.4,240.7c3.7,13.1,9,32.7,10.1,41.2c1.8,13.3,1.4,19.5,1.4,19.5s-13.7-0.6-13.2,10.5"/>
		<path class="st80" d="M204.4,311.2c0,0-0.2-3,2.3-4.7"/>
		<path class="st80" d="M211.9,308c0,0-1.1,0.6-1,3.9"/>
		<path class="st80" d="M198.7,227.9c0,0,1.6,5.3,3.7,12.8"/>
		<path class="st80" d="M232.7,243.2c0.8-6.9,1.3-11.8,1.3-12.9"/>
		<g>
			<defs>
				<path id="SVGID_00000172415097920121292930000013986014348207255956_" d="M199.4,162l-10.5,1.9c1.2-2,6.9-7.8,6.9-7.8L199.4,162
					z"/>
			</defs>
			<clipPath id="SVGID_00000115498804885217240460000017109145252532904863_">
				<use xlink:href="#SVGID_00000172415097920121292930000013986014348207255956_"  style="overflow:visible;"/>
			</clipPath>
			<g style="opacity:0.88;clip-path:url(#SVGID_00000115498804885217240460000017109145252532904863_);">
				<g>
					<g>
						<g>
							<path class="st33" d="M193.7,158.9c0.1,0,0.2,0.1,0.2,0.1C193.9,159.1,193.8,159,193.7,158.9z"/>
							<path class="st33" d="M189.1,163.3C189.1,163.3,189.1,163.3,189.1,163.3L189.1,163.3L189.1,163.3z"/>
							<path class="st33" d="M189,163.2l-0.2-0.2C189,163,189,163.1,189,163.2z"/>
							<path class="st33" d="M195.5,160.1c0.1,0,0.2,0.1,0.4,0.2L195.5,160.1z"/>
							<path class="st33" d="M195.9,161.4c0,0,0.1,0.1,0.1,0.1C195.9,161.5,195.9,161.5,195.9,161.4z"/>
							<path class="st33" d="M197,154.4c0,0-0.1,0-0.1-0.1C197,154.3,197,154.3,197,154.4z"/>
							<path class="st33" d="M197.7,154.4C197.7,154.3,197.7,154.3,197.7,154.4l0.1,0C197.9,154.4,197.7,154.4,197.7,154.4z"/>
							<path class="st33" d="M197.9,154.8L197.9,154.8C198,154.7,197.9,154.8,197.9,154.8z"/>
							<path class="st33" d="M202.6,154.6l0.3,0.2C202.7,154.7,202.6,154.7,202.6,154.6z"/>
							<path class="st33" d="M196.7,154.2c0.1,0,0.2,0.1,0.2,0.1C196.8,154.3,196.8,154.3,196.7,154.2z"/>
							<path class="st33" d="M193.6,158.8c0,0,0.1,0.1,0.1,0.1C193.6,158.9,193.6,158.9,193.6,158.8z"/>
							<path class="st33" d="M195.8,159.7L195.8,159.7C195.7,159.8,195.7,159.7,195.8,159.7z"/>
							<path class="st33" d="M187,164.4c-0.1,0-0.1,0-0.2,0C186.8,164.2,186.9,164.3,187,164.4z"/>
							<path class="st33" d="M196.5,156c0.6,0.7,0.2-0.1,0.8,0.5c-0.2,0-0.4-0.1-0.1,0.3c0.4,0.3,0.1-0.2,0.7,0.3l-0.3-0.1
								c0.2,0.3,0.8,0.6,0.6,0.7c-0.9-0.6-0.1,0.7-0.3,0.7l0.1,0l0.2,0.5c0,0,0,0,0,0c0,0-0.1-0.1-0.1-0.1c0.3,0.4,0.4,0.8,0.2,0.9
								c-0.5-0.4-0.7,0.4-1.1,0.1c0.2,0,0.2,0,0.2-0.2l-0.5-0.5c-0.1,0.2,0.5,0.5,0,0.3c-0.7-0.7,0.2-0.2,0.2-0.4
								c-0.2-0.1-0.4-0.2-0.5-0.2c0.2-0.2,0.1-0.7,1-0.1c-0.1-0.2-0.4-0.5-0.5-0.5c0.6,0.2-0.3-0.5,0.2-0.3c-0.7-0.6-0.6,0-1.1-0.3
								c0.3,0.7-0.4,0.5-0.7,0.6c0.5,0.5,1,0.7,1.2,1.1c0.1,0.5-0.5,0-0.8-0.2c0,0.3,0.8,0.8,0.5,1.1l0.4,0.2
								c0.5,0.8-0.4-0.1-0.4,0.1c-0.1-0.2-0.3-0.4-0.2-0.5c-0.2-0.3-0.4-0.3-0.5-0.3l0,0c-0.4-0.3-0.7-0.6-0.7-0.3
								c0.5,0.3,0.2,0.4,0.3,0.6l0.1,0.1c-0.2,0-0.3,0.1-0.4,0.1l0.1,0.1c-0.2-0.1-0.7-0.6-0.8-0.4c0.2,0.2,0.9,0.6,0.6,0.7
								c0.3,0.3,0.5,0.2,0.5,0c0,0.2,0.4,0.8,0.6,0.7c0.3,0.4-0.3,0-0.2,0.2c-0.1-0.1-0.2-0.2-0.3-0.4c0.5,0.5-0.3,0.3-0.6-0.1
								l0.4,0.2c-0.4-0.4-0.8-0.6-1-0.9c0.5,0.7-0.7,0-0.3,0.7l-0.2-0.4c-0.1,0.5-1.1-0.1-1.5,0c0.3,0.1,0.9,0.9,0.9,0.5
								c-0.2,0.4,0.5,0.8,0.7,1.3c0,0.5-0.7-0.6-1-0.8l0.3,0c-0.9-0.7-0.5,0.7-1.2,0.4c0.2,0.3,0.2,0.1,0.3,0.1
								c0.2,0.6-0.2,0-0.4-0.1c-0.1,0.2-0.1,0.6,0.4,1.1c-0.1,0.3-0.2-0.4-0.5-0.5l0.1,0.2l-0.7-0.5c0,0.3,0,0.8,0.4,1.4
								c-0.4,0.1-1.1-1.2-1.5-1.3c0.1,0.4,0.3,0.4,0.5,0.7l-0.3,0.1c0.5,0.6,0.5,0.2,1,0.9c-0.7-0.6-0.4,0-1-0.4l0-0.1
								c-0.5-0.5-0.5,0.1-0.7,0.1c0.3,0.3,0.5,0.2,0.7,0.2c0,0.4-0.6,0.4-1.2-0.2c0,0.2-0.1,0.6,0.3,0.8c-0.3,0.4-0.8-0.9-1-0.5
								l0.4,0.5c0.1,1-1.1-0.3-1,0.6l-0.4-0.7c0.1,0.3,0,0.5,0.2,0.8l0.3,0.1c0.2,0.6-0.5-0.4-0.4,0.1c-0.1-0.2-0.2-0.7-0.4-1
								c0.9,0,1-1.3,2.1-1.1c0,0.1,0.1,0.2,0.2,0.3c0-0.2,0.2-0.1,0-0.5l-0.1,0c0.3,0-0.1-0.9,0-0.9c0.4,0.4,0.2-0.4,0.7,0.4
								l-0.2-0.5c0.2,0.3,0.5,0.6,0.6,0.7c0.1-0.1-0.1-0.4-0.4-0.6c0.3-0.6,0.8-0.9,1.4-1l-0.4-0.2c0-0.2,0.8,0.3,0.1-0.5
								c0.5,0.2,0.4-0.7,1.1,0.2c-0.5-1,0.2-0.8,0.6-0.9c0.6,0.8,0.4,0,0.8,0.3c-0.4-0.6-0.7-0.4-1.1-0.8c1,0.6,0.2-1.3,1.6,0
								c0-0.1-0.1-0.1-0.1-0.2c0.1-0.1-0.1-0.4-0.1-0.5c0.3,0.2,0.2,0.4,0.5,0.4c0.1-0.1-0.4-0.5-0.5-0.7c0.5,0.1,0.9,0,1.5,0.5
								c-0.1-0.2-0.3-0.6-0.5-0.6c0.7,0.1,0.2-0.4,0.8-0.4c-0.1,0.1-0.6-0.5-0.6-0.1c-0.6-0.9,0.6-0.3,0.4-1l0.6,0.4
								c0.2-0.1-0.2-0.5-0.5-0.6c-0.1-0.5,0.4-0.4,0.6-0.6c-0.1-0.1-0.2-0.2-0.2-0.1l0.2-0.3c0.2,0.1,0.5,0.2,0.8,0.5
								C196.7,155.7,196.4,155.6,196.5,156z"/>
							<path class="st33" d="M197,156L197,156L197,156C197,156,197,156,197,156z"/>
							<path class="st33" d="M196.5,160.8c-0.1-0.2-0.1-0.2-0.1-0.3C196.5,160.6,196.5,160.7,196.5,160.8z"/>
							<path class="st33" d="M200.4,153.9c0.8,0.7-0.3,0.1-0.2,0.4c0.2,0,0.7,0.4,0.9,0.6c-1.2-0.7,0.1,0.4-0.4,0.5
								c0.3,0.3,0.5,0.2,0.9,0.5c-0.4,0-0.8,0.1-1.4-0.3c-0.2,0.3-0.2,0.7-0.4,0.7c0.4,0,0.6,0.5,1.3,0.7c-0.9-0.4-2.1-0.6-3.1-1
								c0.6,0.6,0.7,0.7,1.3,1.1c0.1,0.7-0.7-0.4-0.8,0.1l0-0.2c-0.3,0-0.9-0.5-1.4-0.9l0.4-0.3c-0.4-0.4-0.6-0.1-0.7-0.1
								c-0.6-0.4-0.2-0.5-0.6-0.8c0.4,0.3,0.4,0,0.6,0.1l-0.2-0.2c-0.1-0.4,0.6,0.1,0.7-0.1c-0.1-0.1-0.1-0.1-0.1-0.1
								c0.3,0.2,0.7,0.4,0.8,0.4l-0.1,0c0.7,0.4,1.3,0.3,1.7,1l0.1-0.5c-0.7-0.5-1.7-1.2-1.9-1l-0.3-0.2c-0.2-0.4,0.8,0,1.3,0.5
								c1.7,1.1,0.5-0.5,1.4-0.3c-0.4-0.3-0.7-0.3-1-0.5c-0.1,0-0.2,0.1,0.2,0.4c-0.5,0.2-1.3-1.1-1.4-0.6c0.1,0.4,0.9,0.3,0.7,0.6
								l-1.3-0.7c0.2-0.1,0.5-0.1,0.7-0.2c0.7-0.1,1-0.4,1.1-0.7c0.1-0.3,0-0.6,0-0.6c1-1.1,1.9-2.2,2.7-3.4c0.4-0.3,0.4-0.5,1.8,0
								c0.2,0.2,0,0.4,0.5,0.6c-0.5-0.2-0.9-0.2-0.9,0.1c0.5,0.3,0.3-0.1,0.4,0l0,0.1c0.3,0.1,0.4,0.1,0.5,0.1
								c0.6,0.6,0.2,1.1-0.8,0.7c0.4,0.5,0.8,0.3,1.2,0.4c-0.1,0.9-0.4,1.4-0.8,2.2c-0.8-0.5-0.5-0.2-1.1-0.5l0.3,0.2
								c-0.1-0.1-0.7-0.4-0.8-0.6c0.3,0.8-1.4-0.2-1.9-0.2l0.4,0.3c-0.2,0.2-0.3,0.2-0.6,0.3c0.5,0.9,0.3-0.2,1.2,0.6l-0.2,0
								c0.4,0.2,1.1,0.6,1.5,0.7c-0.9-0.1-0.1,0.7-0.9,0.7c0.5,0.3,1.1,0.2,1.2,0.1c0,0.2-0.5,0.2-0.1,0.5l-0.6-0.4
								c-0.2,0.2,0.5,0.3,0.8,0.7C202.4,155.4,201,153.7,200.4,153.9z"/>
							<path class="st33" d="M196.5,158.9c0-0.1,0.1-0.1,0.2-0.1C196.6,158.9,196.6,158.9,196.5,158.9z"/>
							<path class="st33" d="M198.3,158.9c0.1,0.1,0.1,0.1,0.2,0.2C198.4,159,198.4,159,198.3,158.9z"/>
							<path class="st33" d="M199.1,159.5c-0.2-0.2-0.3-0.2-0.6-0.4C198.7,159.2,198.9,159,199.1,159.5z"/>
							<path class="st33" d="M181.3,170.9c-0.1-0.2-0.3-0.3-0.4-0.5l0.3,0.1L181.3,170.9z"/>
							<path class="st33" d="M181.5,170l0.1-0.3l0.5,0.8C181.9,170.5,181.8,169.9,181.5,170z"/>
							<path class="st33" d="M182,169.2l-0.1-0.2C181.9,169.1,181.9,169.2,182,169.2z"/>
							<path class="st33" d="M182.1,169.6l0.3,0.6l-0.5-0.3L182.1,169.6c-0.2-0.1-0.1-0.2-0.2-0.4l0.3,0.4
								C182.2,169.6,182.1,169.5,182.1,169.6z"/>
							<path class="st33" d="M182.4,169.5c0,0.1,0,0.1,0.1,0.2C182.4,169.6,182.4,169.6,182.4,169.5z"/>
							<path class="st33" d="M182.5,168.1c0,0.2,0.3,0.5,0.4,0.8c-0.1,0.3-0.5-0.6-0.6-0.2c0.5,0.4,0,0.4,0.1,0.8
								c-0.2-0.6-0.2-1-0.1-1.3l0.2,0.4C182.6,168.6,182.4,168.3,182.5,168.1z"/>
							<path class="st33" d="M184,168.6l-0.4-0.5c0.1,0.3-0.2,0.4,0.1,1c-0.1,0-0.3-0.3-0.4-0.4c0.1,0.3,0.1,0.6-0.2,0.2
								c0.3-0.6,0.1-0.7,0.3-1c-0.1-0.1-0.1-0.1-0.1,0l0.1-0.4C183.7,168.1,184.1,168,184,168.6z"/>
							<path class="st33" d="M184.2,168c-0.2,0.1-0.6-0.4-0.6-0.8l0.6,0.3C184,167.4,183.9,167.5,184.2,168z"/>
							<path class="st33" d="M184.5,167.8c-0.1-0.3-0.3-1,0.2-0.5C184.4,167.3,184.9,168.1,184.5,167.8z"/>
							<path class="st33" d="M185.5,166.6l-0.2,0.6c0.3,0.8,0.3,0.1,0.6,0.4c-0.2,0.3-0.3,0-0.7-0.3c-0.1,0.1-0.4-0.2-0.6-0.4
								C185.4,167.3,184.5,165.5,185.5,166.6z"/>
							<polygon class="st33" points="185.2,167.7 185,167.5 185.3,167.6 							"/>
							<path class="st33" d="M185.9,165.4c-0.3-1,0.7,0.3,0.7-0.2c-0.1,0-0.1-0.1-0.2-0.2l0.2,0l-0.1-0.2c0.3,0.5,0.6,0.6,0.9,0.9
								c0.1,0.7-0.5-0.6-0.3,0.1c0.2,0.2,0.4,0.5,0.6,0.7c-0.3-0.2-0.5-0.5-0.7-0.7c-0.2,0,0,0.3,0.1,0.5c-0.3-0.2-0.7-1-0.9-0.6
								c0.1,0.5,0.5,0.7,0.1,0.6c-0.3-0.9-0.2,0.3-0.6-0.2c-0.1,0.3,0,0.8,0.2,1.1c-0.3-0.6-0.8-1.1-1-1.2l0.6,0.4l-0.3-0.8
								C185.8,165.7,185.9,165.6,185.9,165.4L185.9,165.4z"/>
							<path class="st33" d="M187.8,166.5c0,0,0.1,0.1,0.1,0.1C187.9,166.6,187.8,166.6,187.8,166.5z"/>
							<polygon class="st33" points="186.2,167.4 186.3,167.5 186.4,167.7 							"/>
							<path class="st33" d="M188.2,166.9c0,0-0.2-0.2-0.2-0.2l0.3,0.3L188.2,166.9z"/>
							<polygon class="st33" points="188.2,166.4 188,165.9 188.3,166.2 							"/>
							<path class="st33" d="M192.1,163.2c0,0.3-0.3-0.1-0.6-0.5C191.7,162.5,191.9,163.1,192.1,163.2z"/>
							<path class="st33" d="M195.1,161.7c0.1,0.4-0.4,0.1-0.5,0.2C194.5,161.6,194.8,161.6,195.1,161.7z"/>
							<path class="st33" d="M197.4,162.3c-0.2-0.1-0.3-0.1-0.2-0.3l-0.8-0.6C196.3,161,197.1,162,197.4,162.3z"/>
							<path class="st33" d="M198.7,161.3l-0.5-0.1l0.1-0.1c-0.3-0.2-0.5-0.4-0.8-0.5C197.8,160.6,198.2,160.7,198.7,161.3z"/>
							<path class="st33" d="M197.2,160.6c0,0,0.1,0,0.1,0C197.4,160.6,197.5,160.8,197.2,160.6z"/>
							<path class="st33" d="M197.4,160.5c0,0,0.1,0,0.1,0.1C197.5,160.5,197.4,160.5,197.4,160.5
								C197.3,160.5,197.3,160.4,197.4,160.5z"/>
							<path class="st33" d="M198.5,160.8l0.4-0.2l0,0.3C198.5,160.4,199,161.2,198.5,160.8z"/>
							<path class="st33" d="M199.7,158.7l-0.4-0.5c0.1-0.3,1.3,0.3,0.7-0.5c0.2,0.3,0.7,0.3,0.6,0.7
								C200.1,158.2,199.8,158.4,199.7,158.7z"/>
							<path class="st33" d="M199.8,157.3c-0.2-0.1-0.2-0.2-0.3-0.4c0-0.1,0.3,0,0.5,0.2C199.2,156.7,200.2,157.6,199.8,157.3z"/>
							<path class="st33" d="M200.6,156.4c-0.1,0.1-0.2,0.1-0.2-0.1c0.2-0.2,0.7,0.3,1.1,0.5C201.7,157.2,200.8,156.7,200.6,156.4z"
								/>
							<path class="st33" d="M198.1,152.1c0.4,0.3,0.2,0.4,0.1,0.4C198.3,152.5,198.3,152.3,198.1,152.1z"/>
							<polygon class="st33" points="201.7,154.7 201.8,154.8 201.1,154.4 							"/>
							<polygon class="st33" points="202.9,153.8 203.5,153.9 203.2,154.1 							"/>
							<path class="st33" d="M203,153.5l0.2-0.2l0.1,0.2C203.3,153.7,203,153.4,203,153.5z"/>
							<path class="st33" d="M203.5,152.9c-0.1,0,0,0.1,0.1,0.1l-0.4,0L203.5,152.9z"/>
							<path class="st33" d="M202.4,148c-0.5-0.2-0.1-0.2-0.2-0.3C202.3,147.8,202.9,148.2,202.4,148z"/>
						</g>
					</g>
				</g>
			</g>
		</g>
		<g>
			<defs>
				<path id="SVGID_00000013187330875455519650000008306441286379694005_" d="M255.5,243.8c-6.6-0.1-14.5-0.2-22.8-0.6
					c0.6-5.8,1.1-10.3,1.3-12.2C237.9,233.7,248.1,240.4,255.5,243.8z"/>
			</defs>
			<clipPath id="SVGID_00000060731102216217688440000013018416612900928696_">
				<use xlink:href="#SVGID_00000013187330875455519650000008306441286379694005_"  style="overflow:visible;"/>
			</clipPath>
			<g style="opacity:0.88;clip-path:url(#SVGID_00000060731102216217688440000013018416612900928696_);">
				<g>
					<g>
						<g>
							<path class="st33" d="M233.4,238.2c0.1,0,0.2,0,0.3,0C233.7,238.2,233.6,238.2,233.4,238.2z"/>
							<path class="st33" d="M232.9,231.8C232.9,231.7,232.9,231.7,232.9,231.8L232.9,231.8L232.9,231.8z"/>
							<path class="st33" d="M232.8,231.8l-0.3,0C232.6,231.8,232.7,231.8,232.8,231.8z"/>
							<path class="st33" d="M235.5,238.4c0.1,0,0.2,0.1,0.4,0.1L235.5,238.4z"/>
							<path class="st33" d="M236.6,237.5c0.1,0,0.1,0,0.1-0.1C236.7,237.5,236.6,237.5,236.6,237.5z"/>
							<path class="st33" d="M233.9,244.1c0,0-0.1,0-0.1,0C233.9,244.1,233.9,244.1,233.9,244.1z"/>
							<path class="st33" d="M234.5,244.4c0,0,0,0.1,0,0.1L234.5,244.4C234.7,244.5,234.6,244.5,234.5,244.4z"/>
							<path class="st33" d="M234.9,244.2L234.9,244.2C234.9,244.2,234.9,244.2,234.9,244.2z"/>
							<path class="st33" d="M239,246.1l0.3-0.1C239.2,246.1,239.1,246.1,239,246.1z"/>
							<path class="st33" d="M233.5,244.1c0.1,0,0.2,0,0.3,0C233.7,244.1,233.7,244,233.5,244.1z"/>
							<path class="st33" d="M233.3,238.2c0.1,0,0.1,0,0.1,0C233.4,238.2,233.3,238.2,233.3,238.2z"/>
							<path class="st33" d="M235.5,238.8L235.5,238.8C235.5,238.8,235.5,238.8,235.5,238.8z"/>
							<path class="st33" d="M232.4,229.4c0-0.1-0.1-0.1-0.1-0.2C232.2,229.4,232.2,229.4,232.4,229.4z"/>
							<path class="st33" d="M234.2,242.4c0.9-0.3,0.1,0.2,0.9,0c-0.2-0.1-0.4-0.1,0.1-0.3c0.5,0,0,0.3,0.8,0.1l-0.3-0.1
								c0.3-0.2,1-0.2,0.9-0.3c-1,0.1,0.3-0.6,0.1-0.7l0.1,0l0.4-0.4c0,0,0,0,0.1,0c-0.1,0-0.1,0-0.2,0c0.5-0.2,0.8-0.5,0.6-0.7
								c-0.6,0-0.3-0.6-0.8-0.6c0.2,0.1,0.2,0.1,0.1,0.3l-0.7,0.1c0-0.2,0.6-0.2,0.2-0.3c-0.9,0.2,0.1,0.3,0,0.4
								c-0.2,0-0.4,0-0.5-0.1c0,0.3-0.2,0.6,0.7,0.6c-0.2,0.1-0.6,0.2-0.7,0.1c0.6,0.1-0.5,0.3,0,0.3c-0.9,0.1-0.5-0.3-1.1-0.4
								c0.6-0.4-0.1-0.6-0.3-0.9c0.6-0.2,1.2-0.1,1.6-0.3c0.4-0.4-0.4-0.2-0.8-0.3c0.2-0.2,1.1-0.2,1-0.6l0.5,0.1
								c0.9-0.4-0.4-0.1-0.2-0.3c-0.2,0.1-0.5,0.1-0.4,0.3c-0.3,0.1-0.5,0-0.5-0.1l0,0c-0.5,0-0.9,0.1-0.7-0.1
								c0.6,0,0.4-0.2,0.6-0.3l0.1,0c-0.2-0.1-0.2-0.3-0.3-0.4l0.1,0c-0.2-0.1-0.9,0-0.8-0.2c0.3,0,1,0,0.9-0.1
								c0.4-0.1,0.5,0.1,0.4,0.3c0.1-0.2,0.8-0.4,0.8-0.2c0.5-0.2-0.3-0.1,0-0.3c-0.2,0.1-0.3,0.1-0.5,0.1c0.7-0.1,0-0.4-0.5-0.3
								l0.4,0.1c-0.6,0.1-1,0-1.3,0.1c0.9-0.3-0.5-0.4,0.2-0.7l-0.4,0.2c0.2-0.5-0.9-0.6-1.2-1c0.3,0.1,1.3-0.1,1,0.2
								c0.1-0.4,0.9-0.3,1.4-0.5c0.3-0.4-0.9,0-1.2,0l0.2,0.2c-1.2-0.1,0.1-0.8-0.7-1.1c0.3-0.1,0.2,0.1,0.3,0.1
								c0.5-0.3-0.2-0.2-0.4-0.2c0.1-0.2,0.3-0.5,1-0.5c0.1-0.2-0.4,0.1-0.7,0l0.2-0.1l-0.8-0.1c0.2-0.2,0.5-0.5,1.2-0.7
								c-0.2-0.4-1.6,0.1-1.9-0.1c0.3-0.2,0.5-0.1,0.8-0.1l-0.1-0.3c0.8,0,0.4,0.3,1.4,0.1c-1-0.1-0.3-0.3-1-0.5l-0.1,0
								c-0.6,0-0.3-0.4-0.4-0.6c0.4,0,0.5,0.2,0.6,0.3c0.3-0.3-0.1-0.7-1-0.8c0.1-0.1,0.4-0.4,0.8-0.3c0.1-0.4-1.2,0-1-0.4l0.6-0.1
								c0.8-0.5-0.9-0.6-0.2-1.1l-0.8,0.1c0.3-0.1,0.4-0.3,0.7-0.4l0.3,0.1c0.6-0.3-0.6-0.1-0.2-0.4c-0.2,0-0.7,0.3-1,0.3
								c0.6,0.7-0.4,1.7,0.5,2.4c0.1,0,0.2-0.1,0.3-0.1c-0.2,0.1,0.1,0.2-0.3,0.3l-0.1,0c0.2,0.2-0.7,0.5-0.7,0.6
								c0.5,0-0.1,0.5,0.7,0.2l-0.5,0.2c0.3,0,0.8-0.1,0.9,0c0,0.2-0.4,0.2-0.6,0.1c-0.2,0.6,0,1.2,0.3,1.8l-0.4-0.1
								c-0.2,0.2,0.8,0.4-0.3,0.4c0.5,0.2-0.2,0.8,0.9,0.6c-1,0.4-0.3,0.8-0.1,1.1c0.9-0.2,0.3,0.3,0.8,0.3
								c-0.7,0.2-0.8-0.2-1.3-0.1c1.2,0.2-0.6,1.3,1.3,1c-0.1,0.1-0.1,0.1-0.2,0.1c0,0.1-0.3,0.2-0.3,0.3c0.3,0,0.4-0.2,0.6-0.1
								c0,0.2-0.6,0.2-0.8,0.3c0.5,0.2,0.7,0.6,1.5,0.5c-0.2,0.1-0.6,0.3-0.7,0.2c0.7,0.3,0,0.4,0.4,0.8c-0.1-0.1-0.8,0.1-0.5-0.2
								c-1,0.4,0.3,0.6-0.1,1.1l0.7,0c0.2,0.2-0.5,0.3-0.7,0.2c-0.3,0.5,0.1,0.6,0.2,0.8c-0.1,0-0.2,0.1-0.2,0l0.1,0.4
								c0.2,0,0.5,0.1,1-0.1C234.2,242.7,234,242.6,234.2,242.4z"/>
							<path class="st33" d="M234.6,242.6L234.6,242.6L234.6,242.6C234.7,242.6,234.7,242.6,234.6,242.6z"/>
							<path class="st33" d="M236.7,238.4c-0.2,0.1-0.2,0.1-0.3,0.2C236.6,238.5,236.7,238.5,236.7,238.4z"/>
							<path class="st33" d="M236.7,246c1-0.3-0.2-0.2,0-0.4c0.2,0.1,0.8-0.1,1.1-0.2c-1.4,0.1,0.2-0.3-0.2-0.6c0.4-0.1,0.5,0,1-0.1
								c-0.4-0.1-0.6-0.4-1.4-0.2c-0.1-0.3,0.1-0.7-0.1-0.8c0.4,0.2,0.7-0.1,1.4-0.1c-0.9,0-2.1-0.4-3.2-0.5
								c0.8-0.2,0.9-0.3,1.6-0.4c0.4-0.5-0.8,0.1-0.6-0.4l-0.1,0.2c-0.3-0.1-1,0-1.6,0.1l0.2,0.4c-0.6,0.1-0.5-0.2-0.7-0.2
								c-0.7,0-0.4,0.4-0.9,0.4c0.5,0,0.4,0.2,0.6,0.3l-0.3,0.1c-0.3,0.3,0.5,0.2,0.6,0.4c-0.1,0-0.1,0.1-0.2,0.1
								c0.3,0,0.8,0,0.9,0.1l-0.1-0.1c0.7,0,1.3,0.3,2-0.2l-0.1,0.5c-0.8,0.1-2,0.3-2.1,0.1l-0.3,0c-0.4,0.3,0.7,0.4,1.4,0.1
								c1.9-0.3,0.3,0.7,1.1,0.9c-0.5,0.2-0.7,0-1.1,0c-0.1-0.1-0.1-0.2,0.3-0.3c-0.4-0.4-1.6,0.5-1.5-0.1c0.2-0.3,0.9,0.1,0.9-0.3
								l-1.5,0.1c0.1,0.2,0.4,0.4,0.6,0.5c1.2,0.8,0.6,1.7,0.6,1.7c0.6,1.5,1.1,2.9,1.8,4.3c0.3,0.4,0.3,0.6,1.8,0.3
								c0.2-0.2,0-0.4,0.5-0.5c-0.5,0.1-0.9,0-0.9-0.2c0.5-0.2,0.3,0.1,0.4,0l0-0.1c0.3-0.1,0.4-0.1,0.5,0c0.7-0.5,0.3-0.9-0.7-0.8
								c0.4-0.4,0.8-0.1,1.2-0.1c0.1-0.9-0.1-1.4-0.3-2.1c-0.9,0.2-0.6,0.1-1.2,0.2l0.3-0.2c-0.2,0.1-0.8,0.1-0.9,0.4
								c0.6-0.6-1.3-0.2-1.8-0.4l0.5-0.1c-0.2-0.2-0.2-0.3-0.5-0.5c0.8-0.6,0.2,0.3,1.3-0.1l-0.2-0.1c0.5-0.1,1.2-0.2,1.6-0.2
								c-0.8-0.2,0.1-0.6-0.5-0.9c0.5-0.1,1,0.2,1.1,0.3c0-0.2-0.4-0.3,0-0.4l-0.7,0.1c-0.1-0.2,0.6-0.1,1-0.3
								C239.1,245.4,237.3,246.4,236.7,246z"/>
							<path class="st33" d="M235.7,239.8c0,0.1,0,0.1,0.1,0.2C235.7,240,235.7,239.9,235.7,239.8z"/>
							<path class="st33" d="M237.2,240.8c0.1,0,0.2,0,0.2,0C237.3,240.7,237.3,240.7,237.2,240.8z"/>
							<path class="st33" d="M238.1,240.7c-0.3,0.1-0.3,0-0.7,0.1C237.6,240.8,237.7,241,238.1,240.7z"/>
							<path class="st33" d="M234.7,221.3c-0.2,0-0.4-0.2-0.6-0.1l0.3,0.2L234.7,221.3z"/>
							<path class="st33" d="M234,221.9l-0.2,0.3l0.9,0.1C234.7,222,234.1,222.1,234,221.9z"/>
							<path class="st33" d="M233.6,222.6l-0.2,0C233.5,222.6,233.6,222.6,233.6,222.6z"/>
							<path class="st33" d="M234,222.6l0.7,0l-0.5-0.2l-0.1,0.1c-0.2,0-0.3,0.1-0.4,0.1L234,222.6C234,222.6,233.9,222.6,234,222.6
								z"/>
							<path class="st33" d="M234.1,222.8c0.1,0,0.1,0,0.2,0C234.2,222.8,234.1,222.8,234.1,222.8z"/>
							<path class="st33" d="M232.9,223.5c0.2-0.1,0.6,0,0.9,0c0.2-0.3-0.7-0.2-0.5-0.4c0.5,0.3,0.4-0.2,0.7-0.3
								c-0.6,0.1-1,0.3-1.2,0.5l0.4,0C233.3,223.5,233.1,223.4,232.9,223.5z"/>
							<path class="st33" d="M234,224.6l-0.6-0.1c0.3-0.1,0.3-0.4,0.9-0.4c-0.1-0.1-0.4-0.1-0.5-0.1c0.3-0.1,0.5-0.2,0.1-0.3
								c-0.4,0.5-0.5,0.4-0.7,0.8c-0.1,0-0.1,0-0.1-0.1l-0.3,0.3C233.5,224.6,233.6,224.9,234,224.6z"/>
							<path class="st33" d="M233.6,225.1c-0.1-0.2-0.7-0.2-1-0.1l0.5,0.4C233.1,225.2,233,225.1,233.6,225.1z"/>
							<path class="st33" d="M233.7,225.3c-0.3,0.1-1,0.3-0.3,0.4C233.2,225.5,234.1,225.5,233.7,225.3z"/>
							<path class="st33" d="M233.3,226.9l0.4-0.4c0.8-0.2,0.3,0.2,0.7,0.2c0.1-0.4-0.1-0.2-0.7-0.4c0-0.1-0.4-0.2-0.6-0.3
								C233.7,226.4,231.7,226.7,233.3,226.9z"/>
							<polygon class="st33" points="234,226 233.6,226 233.9,226.1 							"/>
							<path class="st33" d="M232.5,227.9c-0.9,0.4,0.6,0.4,0.2,0.7c-0.1,0-0.1,0-0.3,0l0.1,0.2l-0.2,0c0.6-0.1,0.8,0.1,1.3,0.1
								c0.6-0.3-0.7,0-0.1-0.3c0.3,0,0.7,0,0.9,0c-0.3-0.1-0.6-0.1-1-0.1c-0.1-0.1,0.2-0.1,0.5-0.2c-0.4-0.1-1.2,0-1-0.3
								c0.5-0.2,0.8,0,0.6-0.3c-0.9,0.3,0.1-0.3-0.5-0.3c0.1-0.2,0.7-0.5,1-0.5c-0.7,0.1-1.3,0-1.5-0.1l0.6,0.3l-0.8,0.2
								C232.7,227.6,232.6,227.7,232.5,227.9L232.5,227.9z"/>
							<path class="st33" d="M234.5,228.7c0.1,0,0.1,0,0.2,0.1C234.6,228.7,234.6,228.7,234.5,228.7z"/>
							<polygon class="st33" points="234.2,227 234.4,227 234.6,226.9 							"/>
							<path class="st33" d="M235.1,228.8c0-0.1-0.3,0-0.3,0l0.4,0L235.1,228.8z"/>
							<polygon class="st33" points="234.6,229.1 234.1,229.3 234.5,229.3 							"/>
							<path class="st33" d="M234.9,234c0.3-0.2-0.3-0.1-0.7,0C234.1,234.2,234.7,233.8,234.9,234z"/>
							<path class="st33" d="M236.2,236.8c0.3-0.2-0.2-0.3-0.3-0.5C235.7,236.6,235.9,236.8,236.2,236.8z"/>
							<path class="st33" d="M238.3,237.7c-0.2,0-0.3,0-0.3,0.1l-1,0C236.7,238.1,237.9,237.8,238.3,237.7z"/>
							<path class="st33" d="M238.8,239.1l-0.4-0.1l0,0.1c-0.4,0-0.6,0-0.9,0C237.6,239.2,238.1,239.3,238.8,239.1z"/>
							<path class="st33" d="M237.2,238.9C237.2,239,237.2,239,237.2,238.9C237.4,239,237.5,238.9,237.2,238.9z"/>
							<path class="st33" d="M237.3,239.1c0,0,0.1,0,0.1,0C237.3,239.1,237.3,239,237.3,239.1C237.2,239,237.1,239.1,237.3,239.1z"
								/>
							<path class="st33" d="M238.3,239.4l0.2,0.4l0.2-0.2C238.1,239.7,239,239.3,238.3,239.4z"/>
							<path class="st33" d="M238.3,241.6l-0.6,0.2c-0.1,0.3,1.3,0.3,0.4,0.7c0.3-0.2,0.7,0,0.8-0.3
								C238.3,242.2,238.2,241.8,238.3,241.6z"/>
							<path class="st33" d="M237.6,242.8c-0.2,0-0.3,0.1-0.4,0.2c0,0.1,0.2,0.1,0.5,0C236.9,243.1,238.1,242.7,237.6,242.8z"/>
							<path class="st33" d="M238,243.9c0-0.1-0.1-0.2-0.2,0c0.1,0.2,0.7,0,1.2,0C239.2,243.6,238.2,243.7,238,243.9z"/>
							<path class="st33" d="M234.1,246.8c0.5-0.2,0.4-0.3,0.2-0.3C234.4,246.5,234.3,246.7,234.1,246.8z"/>
							<polygon class="st33" points="238.3,245.8 238.4,245.7 237.6,245.8 							"/>
							<polygon class="st33" points="239.1,247 239.6,247 239.4,246.8 							"/>
							<path class="st33" d="M239,247.3l0.1,0.2l0.2-0.1C239.4,247.2,239,247.3,239,247.3z"/>
							<path class="st33" d="M239.3,247.9C239.2,247.9,239.3,247.8,239.3,247.9l-0.3-0.2L239.3,247.9z"/>
							<path class="st33" d="M237.2,252.4c-0.5,0.1-0.1,0.2-0.2,0.3C237.2,252.7,237.7,252.3,237.2,252.4z"/>
						</g>
					</g>
				</g>
			</g>
		</g>
		<path class="st80" d="M199,127.9c-0.8-1.1-1.7-2.2-2.8-3.2c-1.4-1.3-2.9-2.5-4.8-3.6"/>
		<path class="st80" d="M286.5,301.4c-13.3,1-11.7,10.6-11.7,10.6"/>
	</g>
</g>
</svg>
