<?xml version="1.0" encoding="utf-8"?>
<!-- Generator: Adobe Illustrator 26.0.3, SVG Export Plug-In . SVG Version: 6.00 Build 0)  -->
<svg version="1.1" xmlns="http://www.w3.org/2000/svg" xmlns:xlink="http://www.w3.org/1999/xlink" x="0px" y="0px"
	 viewBox="0 0 503.6 377.7" style="enable-background:new 0 0 503.6 377.7;" xml:space="preserve">
<style type="text/css">
	.st0{fill:#FFF0DD;}
	.st1{fill:#6B5C52;}
	.st2{fill:#B8BBBF;}
	.st3{fill:#F9E9CD;}
	.st4{fill:#FFE6BD;}
	.st5{fill:#F5F5F2;}
	.st6{fill:#637189;}
	.st7{fill:#9E9082;}
	.st8{fill:#938D89;}
	.st9{fill:#FFDBC0;}
	.st10{fill:#6E85BD;}
	.st11{fill:#E8D9D6;}
	.st12{fill:#A7BC79;}
	.st13{fill:#FF8080;}
	.st14{fill:#3D3533;}
	.st15{fill:#A1683D;}
	.st16{fill:#CCE0FF;}
	.st17{fill:#383531;}
	.st18{fill:#757060;}
	.st19{fill:#D29F7E;}
	.st20{opacity:0.88;clip-path:url(#SVGID_00000183948415014421413710000011787685109346793646_);}
	.st21{fill:#322015;}
	.st22{fill:#1B1C1E;}
	.st23{fill:none;stroke:#1B1C1E;stroke-width:1.2604;stroke-linecap:round;stroke-linejoin:round;stroke-miterlimit:10;}
	.st24{opacity:0.84;clip-path:url(#SVGID_00000047037651312342466220000001754061850938234040_);}
	.st25{clip-path:url(#SVGID_00000117649389445201937960000008144091265509121177_);}
	.st26{fill:none;stroke:#1B1C1E;stroke-width:1.2604;stroke-linecap:round;stroke-linejoin:round;}
	.st27{fill:#D1493B;}
	.st28{fill:#FFAE1F;}
	.st29{opacity:0.88;clip-path:url(#SVGID_00000161608994002545703560000009722098660749263039_);}
	.st30{opacity:0.7;clip-path:url(#SVGID_00000019668362283499095310000002344899106521147560_);}
	.st31{fill:#2C2C2D;}
	.st32{opacity:0.87;clip-path:url(#SVGID_00000119114884713882989280000011360153398248480933_);}
	.st33{fill:#080809;}
	.st34{opacity:0.7;clip-path:url(#SVGID_00000103225773704894669030000015685579133739269055_);}
	.st35{fill:#FBAF5E;}
	.st36{opacity:0.62;clip-path:url(#SVGID_00000176723671695752533300000014553867065311508627_);}
	.st37{fill:#3E240C;}
	.st38{fill:#BC763C;}
	.st39{opacity:0.62;clip-path:url(#SVGID_00000047780723003968513120000012812468175952538261_);}
	.st40{opacity:0.62;clip-path:url(#SVGID_00000070801844008119274040000012601244848789581962_);}
	.st41{fill:#967258;}
	.st42{opacity:0.53;clip-path:url(#SVGID_00000157998114634966612380000002692812971860019109_);}
	.st43{opacity:0.73;clip-path:url(#SVGID_00000098909001388941168410000013501006245271959424_);}
	.st44{fill:none;stroke:#1B1C1E;stroke-width:1.1311;stroke-linecap:round;stroke-linejoin:round;stroke-miterlimit:10;}
	.st45{fill:#3D291C;}
	.st46{fill:#3D291C;stroke:#967258;stroke-width:1.2604;stroke-linecap:round;stroke-linejoin:round;stroke-miterlimit:10;}
	.st47{fill:#D6D4C8;}
	.st48{fill:#1B1C1E;stroke:#967258;stroke-width:1.2604;stroke-linecap:round;stroke-linejoin:round;stroke-miterlimit:10;}
	.st49{opacity:0.52;clip-path:url(#SVGID_00000155110806832043368870000005036276517935491722_);}
	.st50{fill:#B37D4F;}
	.st51{opacity:0.88;clip-path:url(#SVGID_00000013891120393516639620000002208572018937548978_);}
	.st52{fill:#343434;}
	.st53{fill:#BC6464;}
	.st54{opacity:0.88;clip-path:url(#SVGID_00000113343804487429963970000004886326307014387363_);}
	.st55{fill:#1B1C1E;stroke:#1B1C1E;stroke-width:1.1485;stroke-linecap:round;stroke-linejoin:round;stroke-miterlimit:10;}
	.st56{fill:#8C7265;}
	.st57{opacity:0.88;clip-path:url(#SVGID_00000077306011400647444420000002110008960321996173_);}
	.st58{fill:#1B1C1E;stroke:#1B1C1E;stroke-width:1.3664;stroke-linecap:round;stroke-linejoin:round;stroke-miterlimit:10;}
	.st59{opacity:0.88;clip-path:url(#SVGID_00000183249806106952519870000005830222546882910131_);}
	.st60{fill:none;stroke:#1B1C1E;stroke-width:1.3664;stroke-linecap:round;stroke-linejoin:round;stroke-miterlimit:10;}
	.st61{opacity:0.88;clip-path:url(#SVGID_00000135674337706311751860000011755301178665934983_);}
	.st62{opacity:0.88;clip-path:url(#SVGID_00000094608248717396687750000008981315445771521207_);}
	.st63{fill:#5F6C72;}
	.st64{fill:#1B1C1E;stroke:#1B1C1E;stroke-width:1.5329;stroke-linecap:round;stroke-linejoin:round;stroke-miterlimit:10;}
	.st65{opacity:0.88;clip-path:url(#SVGID_00000059278472464229609350000000050583338575818898_);}
	.st66{clip-path:url(#SVGID_00000031924820377556284180000010085264110897062335_);}
	.st67{opacity:0.58;clip-path:url(#SVGID_00000014592545158789813410000009514853214801312440_);}
	.st68{opacity:0.58;clip-path:url(#SVGID_00000165932871654299407890000012046507035204750011_);}
	.st69{fill:#1B1C1E;stroke:#1B1C1E;stroke-width:1.818;stroke-linecap:round;stroke-linejoin:round;stroke-miterlimit:10;}
	.st70{fill:#FFFFFF;}
	.st71{fill:#CC813E;}
	.st72{opacity:0.58;clip-path:url(#SVGID_00000084487937210689689130000012988513294790988676_);}
	.st73{fill:#AA8C7D;}
	.st74{opacity:0.88;clip-path:url(#SVGID_00000176006027827325572880000001386397308856362386_);}
	.st75{opacity:0.88;clip-path:url(#SVGID_00000022525928664446906870000011028829158478003095_);}
	.st76{fill:#1B1C1E;stroke:#1B1C1E;stroke-width:1.2604;stroke-linecap:round;stroke-linejoin:round;stroke-miterlimit:10;}
	.st77{opacity:0.88;clip-path:url(#SVGID_00000012435093331926387610000002409716041464947331_);}
	.st78{opacity:0.88;clip-path:url(#SVGID_00000003814211296840038260000005529430246788424848_);}
	.st79{opacity:0.88;clip-path:url(#SVGID_00000030479966155970225000000003719254204824224418_);}
	.st80{fill:none;stroke:#1B1C1E;stroke-miterlimit:10;}
	.st81{fill:#B8BDC4;}
	.st82{fill:#B4D3CD;}
	.st83{opacity:0.88;clip-path:url(#SVGID_00000079460089980015492290000003364337817024596125_);}
	.st84{opacity:0.88;clip-path:url(#SVGID_00000117670297116926766220000009462701896434925484_);}
	.st85{fill:#EFBE9D;}
	.st86{opacity:0.88;clip-path:url(#SVGID_00000039825804381001471700000013723043941577235603_);}
	.st87{fill:#443730;}
	.st88{opacity:0.88;clip-path:url(#SVGID_00000073711435812355871440000014311071129399560579_);}
	.st89{opacity:0.88;clip-path:url(#SVGID_00000086678321142795910250000016285468783064675231_);}
	.st90{fill:#E2AF8D;}
	.st91{fill:none;stroke:#1B1C1E;stroke-linecap:round;stroke-linejoin:round;stroke-miterlimit:10;}
	.st92{fill:#1B1C1E;stroke:#1B1C1E;stroke-miterlimit:10;}
	.st93{fill:#FCEA9F;}
	.st94{fill:#F6EBEF;}
	.st95{fill:#D4DADD;}
	.st96{opacity:0.61;clip-path:url(#SVGID_00000132071428181398832090000018195988217510184075_);}
	.st97{fill:#353737;}
	.st98{fill:#B3B9BC;}
	.st99{opacity:0.61;clip-path:url(#SVGID_00000137100272124961150550000008467060157325241228_);}
	.st100{opacity:0.61;clip-path:url(#SVGID_00000113337222612811778460000006011379426665905284_);}
	.st101{fill:#B3B9BC;stroke:#1B1C1E;stroke-miterlimit:10;}
	.st102{fill:#CCE2CF;stroke:#1B1C1E;stroke-miterlimit:10;}
	.st103{fill:#EAD6DE;}
	.st104{fill:#1B1C1E;stroke:#1B1C1E;stroke-width:1.0185;stroke-miterlimit:10;}
	.st105{fill:none;stroke:#1B1C1E;stroke-width:1.0185;stroke-miterlimit:10;}
	.st106{fill:#FBAF5E;stroke:#1B1C1E;stroke-miterlimit:10;}
	.st107{fill:#513F3B;}
	.st108{opacity:0.88;clip-path:url(#SVGID_00000151542754129517854980000012313054347424590752_);}
	.st109{opacity:0.88;clip-path:url(#SVGID_00000052786531067927930300000010340390199099532451_);}
	.st110{fill:#8B2403;}
	.st111{fill:#EBDAD2;}
	.st112{fill:#A84E39;}
	.st113{fill:#751A01;}
	.st114{fill:#EBDAD2;stroke:#1B1C1E;stroke-miterlimit:10;}
	.st115{opacity:0.78;clip-path:url(#SVGID_00000057871213882362577230000005451289108218221742_);}
	.st116{fill:#290B01;}
	.st117{opacity:0.78;clip-path:url(#SVGID_00000122689491122831074780000010957535892536127128_);}
	.st118{opacity:0.78;clip-path:url(#SVGID_00000003786702996161917350000013838529466618975128_);}
	.st119{opacity:0.78;clip-path:url(#SVGID_00000085243087741937211070000015771395315920844217_);}
	.st120{fill:#030203;}
	.st121{fill:#86889A;}
	.st122{fill:#0B060A;}
	.st123{fill:#736E72;}
	.st124{fill:#9E9AA0;}
	.st125{fill:#18172A;}
	.st126{fill:#3B4D84;}
	.st127{fill:#FFA3AC;}
	.st128{fill:none;stroke:#0B080B;stroke-width:1.2005;stroke-miterlimit:10;}
	.st129{fill:#E7E6E8;}
	.st130{fill:#0B080B;}
	.st131{fill:none;stroke:#1B1C1E;stroke-width:1.2005;stroke-linecap:round;stroke-linejoin:round;stroke-miterlimit:10;}
	.st132{opacity:0.78;clip-path:url(#SVGID_00000143603807518355298020000009143921735645294782_);}
	.st133{opacity:0.78;clip-path:url(#SVGID_00000105425290502316868510000014749521225502982056_);}
	.st134{fill:#89745E;}
	.st135{opacity:0.78;clip-path:url(#SVGID_00000072962457612476177430000015094451179230022561_);}
	.st136{fill:#060606;}
	.st137{fill:#4D483E;}
	.st138{fill:#FF8A00;}
	.st139{fill:#50483F;}
	.st140{fill:#131313;}
	.st141{fill:#E8DBCD;}
	.st142{opacity:0.78;clip-path:url(#SVGID_00000042731885753349216520000006393165652988000658_);}
	.st143{opacity:0.78;clip-path:url(#SVGID_00000101794063730692054360000002798112730658391459_);}
	.st144{fill:#191212;}
	.st145{fill:#6C5353;}
	.st146{opacity:0.78;clip-path:url(#SVGID_00000114795252864903766130000017766024541581846944_);}
	.st147{fill:#B3B3B3;}
	.st148{fill:#FF9F2C;}
	.st149{fill:none;stroke:#343434;stroke-miterlimit:10;}
	.st150{fill:#21262A;}
	.st151{fill:#563D3D;}
	.st152{opacity:0.78;clip-path:url(#SVGID_00000063603974709582880090000002101265880268413860_);}
	.st153{fill:#181716;}
	.st154{fill:#706153;}
	.st155{fill:none;stroke:#1B1C1E;stroke-width:0.8477;stroke-miterlimit:10;}
	.st156{fill:#FCBD30;}
	.st157{fill:#E8D9CD;}
	.st158{fill:#534E4A;}
	.st159{opacity:0.78;clip-path:url(#SVGID_00000093135343747947531140000009389003134646267303_);}
	.st160{fill:#7DA050;}
	.st161{opacity:0.78;clip-path:url(#SVGID_00000132773209146480194430000009729760567279042981_);}
	.st162{opacity:0.78;clip-path:url(#SVGID_00000140723005068618299310000011069696645657735313_);}
	.st163{opacity:0.78;clip-path:url(#SVGID_00000106142976092804947540000006539234539781318840_);}
	.st164{fill:#EFEECE;}
	.st165{opacity:0.78;clip-path:url(#SVGID_00000053527802198210792520000007740182153698765223_);}
	.st166{fill:#93543B;}
	.st167{fill:#FF510C;}
	.st168{opacity:0.78;clip-path:url(#SVGID_00000094620350207320529690000001379666005959124898_);}
	.st169{fill:#4B1804;}
	.st170{fill:#000A0E;}
	.st171{opacity:0.78;clip-path:url(#SVGID_00000078010152651846497670000008955447852257025981_);}
	.st172{opacity:0.78;clip-path:url(#SVGID_00000115498153714212121200000003295224843286500795_);}
	.st173{fill:#F9C8A7;}
	.st174{fill:#1B1C1E;stroke:#1B1C1E;stroke-width:1.3738;stroke-miterlimit:10;}
	.st175{fill:none;stroke:#1B1C1E;stroke-width:1.3;stroke-miterlimit:10;}
	.st176{fill:#FFCB6E;}
	.st177{fill:#CECECE;}
	.st178{fill:none;stroke:#1B1C1E;stroke-width:1.3037;stroke-miterlimit:10;}
	.st179{fill:#FFFFFF;stroke:#1B1C1E;stroke-width:1.3;stroke-miterlimit:10;}
	.st180{opacity:0.78;clip-path:url(#SVGID_00000067928226838274945080000008006623816591436446_);}
	.st181{fill:none;stroke:#1B1C1E;stroke-width:1.3738;stroke-miterlimit:10;}
	.st182{opacity:0.45;clip-path:url(#SVGID_00000050632873578170878360000005585551096571398320_);}
	.st183{opacity:0.45;clip-path:url(#SVGID_00000046307292777278752830000008384293938827667345_);}
	.st184{opacity:0.45;clip-path:url(#SVGID_00000152266605091772519580000008404402192442282912_);}
	.st185{opacity:0.45;clip-path:url(#SVGID_00000043442882678807114110000006761116610659613090_);}
	.st186{fill:none;stroke:#1B1C1E;stroke-width:1.3738;stroke-linecap:round;stroke-linejoin:round;stroke-miterlimit:10;}
	.st187{fill:#FFB192;}
	.st188{fill:#EB8226;}
	.st189{fill:#F7EDE1;}
	.st190{opacity:0.78;clip-path:url(#SVGID_00000057137689830224485770000003801299087876395191_);}
	.st191{opacity:0.78;clip-path:url(#SVGID_00000111879500504215208160000001311789497115944373_);}
	.st192{opacity:0.5;clip-path:url(#SVGID_00000176736474681119291860000014845952594169493155_);}
	.st193{opacity:0.5;clip-path:url(#SVGID_00000013879107986791349750000008774250987500762042_);}
	.st194{fill:none;stroke:#06002C;stroke-width:1.3038;stroke-miterlimit:10;}
	.st195{fill:#F7A9B4;}
	.st196{fill:#06002C;}
	.st197{opacity:0.5;clip-path:url(#SVGID_00000137849035039534251110000008674055179767398310_);}
	.st198{fill:none;stroke:#06002C;stroke-width:1.3038;stroke-linecap:round;stroke-linejoin:round;stroke-miterlimit:10;}
	.st199{fill:#9BBEDC;}
	.st200{opacity:0.88;clip-path:url(#SVGID_00000010311545484459531550000009635156712605634977_);}
	.st201{opacity:0.88;clip-path:url(#SVGID_00000069389733858140863030000010600066557666715811_);}
</style>
<g id="Background">
	<rect x="-3.2" y="-2.4" class="st4" width="510" height="382.5"/>
</g>
<g id="Illustration">
	<g>
		<g>
			<path class="st19" d="M346.4,181.2c0,0,21.3-8.8,19-34.6c0,0,6.1,25-17.3,37.8C348,184.5,344.5,183.1,346.4,181.2z"/>
		</g>
		<g>
			<defs>
				<path id="SVGID_1_" d="M346.4,181.2c0,0,21.3-8.8,19-34.6c0,0,6.1,25-17.3,37.8C348,184.5,344.5,183.1,346.4,181.2z"/>
			</defs>
			<clipPath id="SVGID_00000077293214449622870710000010876520777553189521_">
				<use xlink:href="#SVGID_1_"  style="overflow:visible;"/>
			</clipPath>
			<g style="opacity:0.88;clip-path:url(#SVGID_00000077293214449622870710000010876520777553189521_);">
				<g>
					<g>
						<g>
							<path class="st21" d="M351.1,180.8c0,0.1,0,0.1,0,0.2C351.2,181,351.1,180.9,351.1,180.8z"/>
							<path class="st21" d="M354.7,179.1C354.7,179.1,354.7,179.1,354.7,179.1L354.7,179.1L354.7,179.1z"/>
							<path class="st21" d="M354.7,179.1l-0.1-0.2C354.6,179,354.6,179,354.7,179.1z"/>
							<path class="st21" d="M351.4,182.3c0,0.1,0,0.2,0,0.3L351.4,182.3z"/>
							<path class="st21" d="M352.2,183C352.2,183,352.2,183,352.2,183C352.2,183,352.2,183,352.2,183z"/>
							<path class="st21" d="M347.7,181.4C347.7,181.3,347.7,181.3,347.7,181.4C347.7,181.3,347.7,181.3,347.7,181.4z"/>
							<path class="st21" d="M347.5,181.8C347.5,181.7,347.4,181.7,347.5,181.8L347.5,181.8C347.5,181.9,347.5,181.8,347.5,181.8z"
								/>
							<path class="st21" d="M347.6,182L347.6,182C347.6,182.1,347.6,182,347.6,182z"/>
							<path class="st21" d="M346.1,184.9l0,0.2C346.1,185,346.1,184.9,346.1,184.9z"/>
							<path class="st21" d="M347.7,181.1c0,0.1,0,0.1,0,0.2C347.7,181.2,347.7,181.2,347.7,181.1z"/>
							<path class="st21" d="M351.1,180.7C351.1,180.7,351.1,180.8,351.1,180.7C351.1,180.8,351.1,180.7,351.1,180.7z"/>
							<path class="st21" d="M351.1,182.4L351.1,182.4C351.1,182.4,351.1,182.4,351.1,182.4z"/>
							<path class="st21" d="M355.8,178.1c0,0,0-0.1,0-0.1C355.7,177.9,355.8,178,355.8,178.1z"/>
							<path class="st21" d="M348.7,181.6c0.2,0.6-0.1,0.1,0,0.7c0-0.2,0.1-0.3,0.2,0.1c0,0.4-0.2,0,0,0.5l0.1-0.2
								c0.1,0.2,0.2,0.7,0.2,0.6c-0.1-0.8,0.4,0.2,0.5,0l0,0.1l0.3,0.3c0,0,0,0,0,0c0,0,0-0.1,0-0.1c0.2,0.3,0.4,0.5,0.5,0.4
								c-0.1-0.4,0.4-0.3,0.3-0.7c0,0.1-0.1,0.1-0.2,0.1l-0.2-0.5c0.1,0,0.2,0.4,0.2,0.1c-0.3-0.7-0.2,0.1-0.3,0c0-0.2,0-0.3,0-0.4
								c-0.2,0-0.4-0.1-0.3,0.6c-0.1-0.1-0.2-0.4-0.2-0.5c0,0.4-0.2-0.4-0.2,0c-0.2-0.6,0.2-0.4,0.1-0.8c0.3,0.4,0.4-0.1,0.5-0.2
								c0.2,0.4,0.2,0.9,0.4,1.1c0.3,0.2,0.1-0.3,0.1-0.6c0.2,0.1,0.3,0.7,0.5,0.7l0,0.3c0.4,0.6,0-0.3,0.2-0.2
								c-0.1-0.2-0.2-0.3-0.3-0.2c-0.1-0.2-0.1-0.4,0-0.4l0,0c-0.1-0.3-0.2-0.7,0-0.6c0.1,0.4,0.2,0.2,0.3,0.4l0,0.1
								c0-0.2,0.2-0.2,0.2-0.2l0,0.1c0-0.2-0.2-0.6,0-0.6c0.1,0.2,0.2,0.7,0.3,0.6c0.1,0.3,0,0.4-0.1,0.3c0.1,0.1,0.4,0.5,0.3,0.6
								c0.2,0.3,0.1-0.2,0.2-0.1c-0.1-0.1-0.1-0.2-0.2-0.3c0.2,0.5,0.3-0.1,0.1-0.4l0,0.3c-0.2-0.4-0.2-0.7-0.3-0.9
								c0.3,0.6,0.2-0.4,0.5,0l-0.2-0.3c0.3,0,0.2-0.7,0.3-1c0,0.2,0.4,0.9,0.1,0.7c0.3,0,0.4,0.6,0.7,0.9c0.3,0.1-0.2-0.6-0.3-0.9
								l-0.1,0.2c-0.3-0.8,0.5-0.1,0.5-0.7c0.1,0.2,0,0.1,0,0.2c0.3,0.3,0.1-0.1,0-0.3c0.1,0,0.4,0.1,0.6,0.6c0.2,0-0.2-0.3-0.2-0.4
								l0.1,0.1l-0.2-0.6c0.2,0.1,0.5,0.2,0.8,0.6c0.2-0.2-0.6-1-0.5-1.3c0.2,0.2,0.2,0.3,0.3,0.5l0.1-0.1c0.3,0.5,0,0.4,0.4,0.9
								c-0.3-0.7,0.1-0.3,0-0.8l0,0c-0.2-0.4,0.2-0.3,0.2-0.4c0.1,0.3,0,0.4,0,0.5c0.2,0.1,0.4-0.3,0.1-0.8c0.1,0,0.4,0.1,0.5,0.4
								c0.3-0.1-0.5-0.7-0.2-0.8l0.3,0.4c0.6,0.3,0-0.8,0.6-0.5l-0.4-0.4c0.2,0.1,0.4,0.2,0.5,0.3l0,0.2c0.4,0.3-0.2-0.4,0.1-0.3
								c-0.1-0.1-0.5-0.3-0.6-0.5c-0.2,0.6-1.1,0.3-1.1,1c0.1,0,0.1,0.1,0.2,0.2c-0.1-0.1-0.1,0.1-0.3-0.1l0,0
								c0,0.2-0.5-0.3-0.6-0.3c0.2,0.3-0.3,0,0.1,0.5l-0.3-0.3c0.1,0.2,0.3,0.5,0.3,0.6c-0.1,0-0.3-0.2-0.3-0.4
								c-0.4,0-0.7,0.3-0.9,0.6l-0.1-0.3c-0.2-0.1,0,0.6-0.3-0.1c0,0.3-0.5,0-0.1,0.7c-0.5-0.6-0.5-0.1-0.7,0.1
								c0.4,0.6-0.1,0.3,0,0.6c-0.3-0.5-0.1-0.6-0.2-0.9c0.2,0.9-0.8-0.3-0.3,1c0,0-0.1-0.1-0.1-0.1c0,0-0.2-0.2-0.3-0.2
								c0.1,0.2,0.2,0.3,0.1,0.4c-0.1,0-0.2-0.4-0.3-0.5c0,0.4-0.2,0.6,0,1.1c-0.1-0.1-0.3-0.4-0.3-0.5c-0.1,0.5-0.3,0-0.4,0.4
								c0.1,0-0.2-0.6,0-0.4c-0.4-0.7-0.3,0.3-0.7-0.1l0.1,0.5c-0.1,0.1-0.2-0.3-0.2-0.5c-0.3-0.2-0.3,0.1-0.5,0.1
								c0-0.1,0-0.2,0-0.1l-0.2,0c0,0.1,0,0.4,0.1,0.7C348.5,181.6,348.5,181.4,348.7,181.6z"/>
							<path class="st21" d="M348.6,181.9L348.6,181.9L348.6,181.9C348.6,181.9,348.6,181.9,348.6,181.9z"/>
							<path class="st21" d="M351.6,183.2c-0.1-0.1-0.1-0.2-0.1-0.2C351.5,183.1,351.5,183.2,351.6,183.2z"/>
							<path class="st21" d="M346.4,183.2c0.1,0.8,0.1-0.1,0.3,0.1c-0.1,0.1,0,0.6,0,0.8c0-1,0.2,0.2,0.4-0.1c0.1,0.3-0.1,0.4,0,0.7
								c0.1-0.3,0.3-0.4,0.3-1c0.2,0,0.4,0.1,0.6,0c-0.1,0.2,0.1,0.5,0,1c0.1-0.7,0.3-1.5,0.4-2.3c0.2,0.6,0.2,0.6,0.3,1.2
								c0.4,0.3-0.1-0.6,0.3-0.5l-0.1-0.1c0.1-0.2-0.1-0.8-0.1-1.2l-0.3,0.2c-0.1-0.4,0.1-0.4,0.1-0.5c0-0.5-0.2-0.3-0.3-0.7
								c0,0.3-0.1,0.3-0.1,0.4l-0.1-0.2c-0.2-0.2-0.1,0.4-0.2,0.4c0-0.1,0-0.1,0-0.1c0,0.3,0,0.6,0,0.7l0.1,0c0,0.5-0.2,0.9,0.1,1.5
								l-0.3-0.1c-0.1-0.6-0.1-1.5,0-1.6l0-0.2c-0.2-0.3-0.3,0.5-0.1,1c0.1,1.4-0.5,0.1-0.6,0.7c-0.1-0.4,0-0.5,0.1-0.8
								c0.1-0.1,0.1-0.1,0.2,0.2c0.3-0.3-0.2-1.2,0.1-1.1c0.2,0.2-0.1,0.6,0.1,0.7l0-1.1c-0.1,0-0.2,0.2-0.3,0.4
								c-0.2,0.4-0.5,0.4-0.7,0.4c-0.2,0-0.3-0.2-0.3-0.2c-0.9,0.2-1.8,0.3-2.7,0.2c-0.3,0.1-0.4,0-0.7,1c0,0.2,0.2,0.2,0.1,0.5
								c0.1-0.4,0.3-0.6,0.4-0.5c0,0.4-0.2,0.2-0.2,0.3l0,0c-0.1,0.2-0.1,0.3-0.2,0.3c0.1,0.6,0.5,0.5,0.7-0.2
								c0.1,0.4-0.2,0.6-0.3,0.9c0.5,0.4,0.9,0.3,1.5,0.4c0-0.7,0.1-0.4,0.2-0.9l0,0.2c0-0.1,0.1-0.6,0-0.7c0.3,0.5,0.4-0.9,0.5-1.2
								l0,0.4c0.2-0.1,0.2-0.1,0.3-0.3c0.3,0.7-0.2,0.1-0.1,1l0.1-0.1c0,0.3-0.1,0.9-0.1,1.2c0.3-0.6,0.4,0.2,0.7-0.2
								c0,0.4-0.3,0.7-0.3,0.8c0.1,0,0.3-0.3,0.3,0.1l0-0.5c0.2-0.1,0,0.5,0.1,0.8C346.6,185,346.1,183.5,346.4,183.2z"/>
							<path class="st21" d="M350.4,182.6c-0.1,0-0.1,0-0.1,0.1C350.4,182.6,350.4,182.6,350.4,182.6z"/>
							<path class="st21" d="M349.9,183.7c0,0.1,0,0.1,0,0.2C350,183.8,350,183.8,349.9,183.7z"/>
							<path class="st21" d="M350.1,184.4c-0.1-0.2,0-0.2-0.1-0.5C350,184.1,349.8,184.1,350.1,184.4z"/>
							<path class="st21" d="M361.1,175.9c-0.1-0.1-0.1-0.3-0.3-0.3l0,0.2L361.1,175.9z"/>
							<path class="st21" d="M360.4,175.9l-0.2,0l0.5,0.5C360.7,176.2,360.3,176,360.4,175.9z"/>
							<path class="st21" d="M359.9,176l-0.1-0.1C359.8,175.9,359.8,176,359.9,176z"/>
							<path class="st21" d="M360.1,176.2l0.3,0.3l-0.1-0.4L360.1,176.2c-0.1-0.1-0.1-0.1-0.2-0.2L360.1,176.2
								C360.1,176.2,360,176.1,360.1,176.2z"/>
							<path class="st21" d="M360,176.3c0,0,0.1,0.1,0.1,0.1C360.1,176.4,360,176.3,360,176.3z"/>
							<path class="st21" d="M359,176.1c0.2,0.1,0.3,0.3,0.5,0.4c0.2,0-0.3-0.5,0-0.4c0.2,0.4,0.3,0.1,0.5,0.2
								C359.6,176.1,359.3,175.9,359,176.1l0.3,0.1C359.3,176.2,359.2,176.1,359,176.1z"/>
							<path class="st21" d="M359.1,177.2l-0.3-0.4c0.2,0.1,0.3,0,0.7,0.3c0-0.1-0.2-0.2-0.2-0.4c0.2,0.1,0.4,0.2,0.2-0.1
								c-0.4,0-0.5-0.1-0.7,0c-0.1-0.1,0-0.1,0-0.1l-0.3,0C358.8,176.9,358.7,177.1,359.1,177.2z"/>
							<path class="st21" d="M358.7,177.1c0.1-0.1-0.2-0.5-0.5-0.6c0,0.2,0.1,0.3,0.1,0.4C358.3,176.9,358.4,176.8,358.7,177.1z"/>
							<path class="st21" d="M358.5,177.3c-0.2-0.1-0.7-0.4-0.4,0C358.2,177.1,358.7,177.6,358.5,177.3z"/>
							<path class="st21" d="M357.5,177.7l0.4,0c0.5,0.4,0,0.2,0.2,0.5c0.2-0.1,0.1-0.2-0.1-0.5c0.1,0-0.1-0.3-0.2-0.5
								C358,177.7,356.9,176.7,357.5,177.7z"/>
							<polygon class="st21" points="358.3,177.7 358.2,177.5 358.2,177.7 							"/>
							<path class="st21" d="M356.6,177.7c-0.6-0.4,0.1,0.5-0.3,0.4c0,0-0.1-0.1-0.1-0.2l-0.1,0.1l-0.1-0.1c0.3,0.3,0.3,0.5,0.5,0.8
								c0.4,0.2-0.3-0.4,0.1-0.2c0.1,0.2,0.3,0.4,0.4,0.5c-0.1-0.2-0.2-0.4-0.4-0.6c0-0.1,0.2,0.1,0.3,0.2c-0.1-0.3-0.5-0.7-0.3-0.7
								c0.3,0.2,0.4,0.5,0.4,0.2c-0.5-0.4,0.2-0.1,0-0.4c0.2,0,0.5,0.2,0.7,0.4c-0.4-0.4-0.6-0.8-0.6-0.9l0.1,0.5l-0.5-0.4
								C356.9,177.6,356.8,177.7,356.6,177.7L356.6,177.7z"/>
							<path class="st21" d="M357.1,179.1c0,0,0,0.1,0,0.1C357.1,179.2,357.1,179.2,357.1,179.1z"/>
							<polygon class="st21" points="357.9,178.3 358,178.4 358.1,178.5 							"/>
							<path class="st21" d="M357.3,179.5c0,0-0.1-0.2-0.1-0.2L357.3,179.5L357.3,179.5z"/>
							<polygon class="st21" points="356.9,179.3 356.6,179.1 356.8,179.3 							"/>
							<path class="st21" d="M354.1,181.1c0.2,0.1,0-0.2-0.2-0.5C353.7,180.6,354.1,180.9,354.1,181.1z"/>
							<path class="st21" d="M352.5,182.6c0.2,0.2,0.1-0.2,0.3-0.3C352.6,182.2,352.5,182.4,352.5,182.6z"/>
							<path class="st21" d="M352.3,184.2c0-0.1,0-0.2-0.1-0.2l-0.2-0.7C351.7,183.1,352.1,184,352.3,184.2z"/>
							<path class="st21" d="M351.3,184.8l0.1-0.3l-0.1,0c-0.1-0.3-0.1-0.4-0.1-0.7C351.1,184,351.1,184.3,351.3,184.8z"/>
							<path class="st21" d="M351.2,183.6C351.2,183.6,351.2,183.6,351.2,183.6C351.3,183.7,351.3,183.8,351.2,183.6z"/>
							<path class="st21" d="M351.1,183.7C351.1,183.7,351.2,183.7,351.1,183.7C351.2,183.7,351.2,183.7,351.1,183.7
								C351.2,183.6,351.1,183.5,351.1,183.7z"/>
							<path class="st21" d="M351,184.5l-0.3,0.2l0.2,0.1C350.8,184.3,351.2,184.9,351,184.5z"/>
							<path class="st21" d="M349.4,184.6l-0.1-0.4c-0.2-0.1-0.2,1-0.5,0.3c0.1,0.2,0,0.5,0.2,0.6
								C349,184.6,349.2,184.5,349.4,184.6z"/>
							<path class="st21" d="M348.6,184.1c0-0.1-0.1-0.2-0.1-0.3c-0.1,0-0.1,0.2,0,0.4C348.3,183.5,348.6,184.5,348.6,184.1z"/>
							<path class="st21" d="M347.7,184.3c0.1,0,0.1-0.1,0-0.2c-0.2,0.1,0,0.5-0.1,0.9C347.9,185.2,347.9,184.5,347.7,184.3z"/>
							<path class="st21" d="M346.1,181.2c0.1,0.4,0.2,0.3,0.2,0.2C346.3,181.4,346.2,181.3,346.1,181.2z"/>
							<polygon class="st21" points="346.4,184.4 346.5,184.5 346.5,183.9 							"/>
							<polygon class="st21" points="345.5,184.7 345.3,185.1 345.5,185.1 							"/>
							<path class="st21" d="M345.3,184.7l-0.2,0l0.1,0.2C345.2,184.9,345.2,184.7,345.3,184.7z"/>
							<path class="st21" d="M344.8,184.7C344.8,184.7,344.8,184.8,344.8,184.7l0.2-0.2L344.8,184.7z"/>
							<path class="st21" d="M342.7,182.1c0.1-0.4,0-0.2,0-0.2C342.6,181.9,342.5,182.4,342.7,182.1z"/>
						</g>
					</g>
				</g>
			</g>
		</g>
		<path class="st22" d="M136.8,269.2c-2.4-1.3,238.4-3.6,252.4,0c10.1,2.6-26.5,5.2-69.6,5.1c-45.8,0-99-2.8-113.9-1.3
			C176.7,275.8,144.9,273.6,136.8,269.2z"/>
		<path class="st19" d="M331.5,235.6c-8.3,6.9-14.5,27.1-16.5,34c-0.4,1.4-1.7,2.4-3.2,2.4h-5.4c-1.6,0-2.9-1.2-3.1-2.8
			c-2.3-20.8,4.6-44.3,4.6-44.3s6.5-6.2,15.2-4.3C331.9,222.7,346.1,223.4,331.5,235.6z"/>
		<path class="st23" d="M306.6,271.8c0,0-0.5-4.3,0.2-7.8"/>
		<path class="st23" d="M311.1,271.4c0,0,0.2-3.8,0.6-5.5"/>
		<g>
			<defs>
				<path id="SVGID_00000160164298650176151320000013636667619456906887_" d="M331.5,235.6c-8.3,6.9-14.5,27.1-16.5,34
					c-0.4,1.4-1.7,2.4-3.2,2.4h-5.4c-1.6,0-2.9-1.2-3.1-2.8c-2.3-20.8,4.6-44.3,4.6-44.3s6.5-6.2,15.2-4.3
					C331.9,222.7,346.1,223.4,331.5,235.6z"/>
			</defs>
			<clipPath id="SVGID_00000176031696194060720350000012832175505956358025_">
				<use xlink:href="#SVGID_00000160164298650176151320000013636667619456906887_"  style="overflow:visible;"/>
			</clipPath>
			<g style="opacity:0.84;clip-path:url(#SVGID_00000176031696194060720350000012832175505956358025_);">
				<g>
					<g>
						<g>
							<g>
								<path class="st21" d="M322.9,226.9c0,0.1,0,0.2,0,0.2C322.9,227.1,322.9,227,322.9,226.9z"/>
								<path class="st21" d="M317,226C317,226,317,226,317,226L317,226L317,226z"/>
								<path class="st21" d="M317,225.9l0-0.3C317.1,225.7,317.1,225.8,317,225.9z"/>
								<path class="st21" d="M322.9,228.8c0,0.1,0,0.2,0,0.4L322.9,228.8z"/>
								<path class="st21" d="M322,229.7c0,0,0,0.1-0.1,0.1C321.9,229.7,322,229.7,322,229.7z"/>
								<path class="st21" d="M328.5,229.8C328.6,229.8,328.6,229.7,328.5,229.8C328.6,229.7,328.6,229.8,328.5,229.8z"/>
								<path class="st21" d="M328.4,230.4C328.5,230.4,328.5,230.5,328.4,230.4l0,0.1C328.4,230.6,328.4,230.5,328.4,230.4z"/>
								<path class="st21" d="M328,230.5L328,230.5C328.1,230.6,328,230.5,328,230.5z"/>
								<path class="st21" d="M327,234.6l-0.2,0.2C326.9,234.6,326.9,234.6,327,234.6z"/>
								<path class="st21" d="M328.7,229.5c0,0.1-0.1,0.1-0.1,0.2C328.6,229.6,328.6,229.6,328.7,229.5z"/>
								<path class="st21" d="M323,226.7c0,0.1,0,0.1,0,0.1C322.9,226.8,322.9,226.8,323,226.7z"/>
								<path class="st21" d="M323.2,228.8L323.2,228.8C323.2,228.8,323.2,228.8,323.2,228.8z"/>
								<path class="st21" d="M314.9,225.5c-0.1,0-0.1-0.1-0.1-0.1C314.9,225.3,314.9,225.3,314.9,225.5z"/>
								<path class="st21" d="M327,228.9c-0.7,0.5,0.1,0.2-0.5,0.7c0.1-0.2,0.1-0.4-0.3-0.1c-0.3,0.4,0.2,0.1-0.3,0.6l0.1-0.3
									c-0.3,0.2-0.6,0.6-0.7,0.5c0.6-0.8-0.6-0.1-0.6-0.3l0,0.1c-0.2,0.1-0.3,0.1-0.4,0.2c0,0,0,0,0,0c0,0,0.1-0.1,0.1-0.1
									c-0.4,0.3-0.6,0.5-0.6,0.4c0.1-0.3,0.1-0.3,0-0.4c-0.1-0.1-0.2-0.1-0.1-0.3c0,0.2,0.1,0.2,0.2,0.1l0.2-0.6
									c-0.2,0-0.2,0.6-0.2,0.1c0.2-0.6,0.3-0.3,0.3-0.1c0,0.1,0,0.1,0.1,0.1c0-0.1,0.1-0.3,0-0.4c0,0,0-0.1,0-0.1l0.1,0
									c0.2,0,0.6,0,0.2,0.8c0.2-0.1,0.4-0.4,0.4-0.5c-0.2,0.5,0.4-0.3,0.3,0.2c0.5-0.6-0.1-0.6,0-1.1c-0.3,0.2-0.4,0.1-0.5,0
									c-0.2-0.1-0.2-0.4-0.4-0.5c-0.2,0.6-0.2,1.1-0.4,1.4c-0.4,0.3-0.1-0.4-0.2-0.8c-0.2,0.1-0.4,0.9-0.6,0.9l0,0.4
									c-0.4,0.7,0-0.4-0.2-0.3c0.1-0.2,0.2-0.4,0.3-0.3c0.1-0.3,0.1-0.4,0-0.5l0,0c0.1-0.4,0.2-0.8,0-0.7c0,0.5-0.3,0.3-0.4,0.5
									l0,0.1c-0.1-0.2-0.2-0.2-0.3-0.3l0,0.1c0-0.2,0.1-0.8-0.1-0.7c-0.1,0.2-0.1,0.9-0.2,0.8c-0.1,0.4,0.1,0.5,0.2,0.4
									c-0.2,0.1-0.4,0.7-0.3,0.7c-0.2,0.4-0.1-0.2-0.3-0.1c0.1-0.1,0.1-0.3,0.1-0.4c-0.2,0.6-0.3-0.1-0.2-0.5l0.1,0.4
									c0.2-0.5,0.1-0.9,0.2-1.1c-0.3,0.8-0.3-0.5-0.6,0.1l0.2-0.4c-0.4,0.1-0.5-0.8-0.8-1.1c0.1,0.3-0.2,1.2,0.1,0.9
									c-0.4,0.1-0.3,0.8-0.6,1.2c-0.3,0.2,0.1-0.8,0.1-1.1l0.1,0.2c0-1.1-0.7,0-0.9-0.7c-0.1,0.3,0,0.2,0.1,0.3
									c-0.3,0.5-0.1-0.1-0.2-0.4c-0.2,0-0.5,0.2-0.5,0.9c-0.2,0.1,0.1-0.4,0.1-0.6l-0.1,0.1l0-0.8c-0.2,0.2-0.5,0.5-0.7,1.1
									c-0.4-0.2,0.2-1.5,0-1.8c-0.2,0.3-0.1,0.5-0.1,0.7l-0.2-0.1c-0.1,0.7,0.2,0.4,0,1.2c0-0.9-0.2-0.3-0.4-0.9l0-0.1
									c0-0.6-0.4-0.3-0.5-0.4c0,0.4,0.2,0.4,0.3,0.6c-0.2,0.2-0.6-0.1-0.7-0.9c-0.1,0.1-0.4,0.4-0.3,0.7c-0.4,0.1,0-1.1-0.3-0.9
									l-0.1,0.6c-0.5,0.7-0.6-0.8-1-0.2l0.1-0.7c-0.1,0.3-0.3,0.4-0.4,0.7l0.1,0.3c-0.2,0.6-0.1-0.6-0.3-0.2
									c0-0.2,0.3-0.7,0.3-0.9c0.6,0.5,1.5-0.3,2.1,0.5c0,0.1-0.1,0.2-0.1,0.3c0.1-0.2,0.2,0.1,0.3-0.3l0-0.1
									c0.2,0.2,0.5-0.6,0.6-0.6c0,0.5,0.4-0.1,0.2,0.7l0.2-0.5c0,0.3-0.1,0.7-0.1,0.9c0.1,0,0.2-0.4,0.2-0.6
									c0.6-0.2,1.1,0,1.6,0.4l0-0.4c0.2-0.2,0.3,0.8,0.4-0.2c0.2,0.4,0.8-0.1,0.5,0.9c0.4-0.9,0.7-0.2,1,0
									c-0.3,0.8,0.2,0.3,0.2,0.7c0.2-0.6-0.1-0.7,0-1.2c0.1,1.1,1.2-0.4,0.8,1.3c0.1-0.1,0.1-0.1,0.1-0.2c0.1,0,0.3-0.2,0.3-0.3
									c-0.1,0.3-0.2,0.4-0.1,0.5c0.1,0,0.2-0.5,0.3-0.7c0.1,0.4,0.5,0.7,0.3,1.4c0.1-0.2,0.3-0.5,0.3-0.6c0.2,0.7,0.4,0,0.7,0.5
									c-0.2-0.1,0.2-0.7-0.1-0.5c0.2-0.4,0.4-0.3,0.6-0.2c0.2,0.2,0.4,0.6,0.8,0.5c-0.1,0.2-0.1,0.4-0.2,0.6
									c0.2,0.3,0.6-0.2,0.5-0.5c0.4,0,0.5,0.1,0.5,0.3c0.1,0.1,0.1,0.3,0.2,0.4c0.1,0,0.1-0.1,0.1-0.2c0.1,0.1,0.2,0.2,0.3,0.3
									c-0.1,0.1-0.2,0.5-0.5,0.7C327.2,229.2,327.3,228.9,327,228.9z"/>
								<path class="st21" d="M327,229.4L327,229.4L327,229.4C327,229.5,327,229.4,327,229.4z"/>
								<path class="st21" d="M322.7,229.9c0.1-0.1,0.1-0.2,0.2-0.2C322.9,229.8,322.8,229.8,322.7,229.9z"/>
								<path class="st21" d="M328.3,232.9c-0.8,0.5,0-0.3-0.3-0.3c0,0.2-0.5,0.5-0.7,0.6c0.9-0.9-0.3,0-0.3-0.5
									c-0.3,0.2-0.3,0.4-0.6,0.7c0.1-0.3,0.1-0.7,0.6-1.1c-0.2-0.3-0.5-0.3-0.5-0.5c-0.1,0.3-0.5,0.5-0.9,0.9
									c0.5-0.7,1-1.7,1.5-2.6c-0.6,0.5-0.7,0.5-1.2,1c-0.6,0,0.5-0.5,0.1-0.7l0.2,0c0.1-0.3,0.6-0.8,0.9-1.1
									c0.1,0.1,0.2,0.3,0.2,0.4c0.4-0.3,0.2-0.5,0.2-0.7c0.4-0.5,0.5-0.1,0.8-0.5c-0.3,0.3,0,0.4-0.1,0.6l0.2-0.2
									c0.4,0-0.1,0.5,0,0.7c0.1,0,0.1-0.1,0.2-0.1c-0.2,0.2-0.5,0.5-0.5,0.7l0-0.1c-0.4,0.5-0.5,1.1-1.2,1.3l0.4,0.2
									c0.6-0.5,1.4-1.2,1.3-1.5l0.2-0.2c0.5-0.1-0.1,0.8-0.7,1.1c-1.3,1.2,0.4,0.6,0,1.3c0.4-0.3,0.5-0.5,0.7-0.8
									c0-0.1,0-0.2-0.4,0.1c0-0.5,1.3-0.8,0.8-1.1c-0.3,0-0.4,0.7-0.7,0.4l0.9-1c0.1,0.2,0.1,0.5,0,0.7c-0.1,1.3,0.9,1.4,0.9,1.4
									c0.7,1.3,1.3,2.5,1.9,3.8c0.1,0.5,0.2,0.6-0.9,1.4c-0.3,0-0.3-0.2-0.7,0.1c0.4-0.3,0.6-0.6,0.4-0.7
									c-0.4,0.2-0.1,0.3-0.2,0.3l-0.1,0c-0.2,0.1-0.3,0.3-0.3,0.3c-0.7,0.1-0.8-0.3-0.2-0.9c-0.5,0.1-0.6,0.5-0.8,0.8
									c-0.7-0.4-0.9-0.9-1.3-1.4c0.7-0.5,0.4-0.4,0.8-0.7l-0.3,0.1c0.1-0.1,0.6-0.5,0.8-0.4c-0.8,0,0.7-1,0.8-1.5l-0.4,0.3
									c-0.1-0.2-0.1-0.3,0-0.6c-0.9,0.1,0.1,0.4-0.9,0.9l0.1-0.2c-0.3,0.3-0.9,0.7-1.1,1c0.4-0.7-0.5-0.3-0.3-0.9
									c-0.4,0.3-0.5,0.8-0.5,0.9c-0.1-0.1,0-0.5-0.3-0.2l0.5-0.4c-0.1-0.2-0.5,0.3-0.8,0.5C326.4,234.2,328.2,233.5,328.3,232.9z"
									/>
								<path class="st21" d="M324.1,229.1c0.1,0,0.1,0,0.2,0.1C324.2,229.2,324.2,229.1,324.1,229.1z"/>
								<path class="st21" d="M324.4,230.5c-0.1,0.1-0.1,0.1-0.1,0.2C324.2,230.6,324.3,230.6,324.4,230.5z"/>
								<path class="st21" d="M323.8,231.2c0.2-0.2,0.2-0.2,0.4-0.5C324.1,230.8,324.2,231,323.8,231.2z"/>
								<path class="st21" d="M307.7,227.7c0-0.2-0.1-0.4-0.1-0.5l0.2,0.2L307.7,227.7z"/>
								<path class="st21" d="M308.2,227.1l0.2-0.2l0.1,0.8C308.2,227.7,308.4,227.1,308.2,227.1z"/>
								<path class="st21" d="M308.8,226.7l0-0.2C308.8,226.5,308.8,226.6,308.8,226.7z"/>
								<path class="st21" d="M308.8,227l0,0.6l-0.2-0.5L308.8,227c-0.1-0.2,0-0.2,0-0.3L308.8,227C308.8,227,308.8,226.9,308.8,227
									z"/>
								<path class="st21" d="M309,227.1c0,0.1,0,0.1,0,0.2C309,227.2,309,227.1,309,227.1z"/>
								<path class="st21" d="M309.6,226c-0.1,0.2,0,0.6,0,0.8c-0.2,0.2-0.2-0.7-0.4-0.4c0.2,0.5-0.1,0.3-0.3,0.7
									c0.1-0.6,0.2-0.9,0.5-1.1l0,0.4C309.6,226.4,309.5,226.1,309.6,226z"/>
								<path class="st21" d="M310.6,227l-0.1-0.6c-0.1,0.3-0.3,0.2-0.4,0.8c-0.1-0.1-0.1-0.3-0.1-0.5c-0.1,0.3-0.2,0.5-0.2,0.1
									c0.4-0.4,0.3-0.5,0.7-0.6c0-0.1,0-0.1-0.1-0.1l0.3-0.3C310.6,226.5,310.9,226.6,310.6,227z"/>
								<path class="st21" d="M311,226.6c-0.2-0.1-0.2-0.6-0.1-0.9l0.3,0.5C311.1,226.1,311,226.1,311,226.6z"/>
								<path class="st21" d="M311.3,226.6c0.1-0.3,0.3-0.9,0.4-0.3C311.4,226.2,311.4,227.1,311.3,226.6z"/>
								<path class="st21" d="M312.6,226.3l-0.4,0.3c-0.2,0.7,0.1,0.3,0.2,0.6c-0.3,0.1-0.2-0.1-0.4-0.6c-0.1,0-0.2-0.4-0.3-0.6
									C312.2,226.7,312.4,224.9,312.6,226.3z"/>
								<polygon class="st21" points="311.8,226.9 311.8,226.6 312,226.9 								"/>
								<path class="st21" d="M313.6,225.6c0.3-0.8,0.3,0.6,0.6,0.2c0-0.1,0-0.1,0-0.2l0.2,0.1l0-0.2c-0.1,0.5,0.1,0.8,0.1,1.2
									c-0.3,0.5,0-0.7-0.3-0.1c0,0.2,0,0.6,0,0.8c-0.1-0.3-0.1-0.6-0.1-0.9c-0.1-0.1-0.1,0.2-0.2,0.4c-0.1-0.3,0-1.1-0.3-0.9
									c-0.2,0.4,0,0.7-0.2,0.5c0.2-0.8-0.3,0.1-0.3-0.4c-0.2,0.1-0.4,0.6-0.4,0.9c0.1-0.6,0-1.2-0.1-1.4l0.3,0.6l0.2-0.7
									C313.3,225.7,313.4,225.7,313.6,225.6L313.6,225.6z"/>
								<path class="st21" d="M314.3,227.4c0,0.1,0,0.1,0,0.1C314.3,227.5,314.3,227.5,314.3,227.4z"/>
								<polygon class="st21" points="312.7,227.2 312.8,227.3 312.7,227.5 								"/>
								<path class="st21" d="M314.3,227.9c0,0,0-0.2,0-0.2l0,0.4L314.3,227.9z"/>
								<polygon class="st21" points="314.6,227.5 314.8,227.1 314.8,227.4 								"/>
								<path class="st21" d="M319,227.9c-0.2,0.2-0.1-0.3,0-0.7C319.2,227.2,318.9,227.7,319,227.9z"/>
								<path class="st21" d="M321.4,229.2c-0.2,0.3-0.2-0.2-0.4-0.3C321.2,228.8,321.4,229,321.4,229.2z"/>
								<path class="st21" d="M322,231.3c0-0.2,0-0.3,0.1-0.3l0.2-0.9C322.5,229.8,322.1,230.9,322,231.3z"/>
								<path class="st21" d="M323.1,231.8l-0.1-0.4l0.1,0c0.1-0.4,0.1-0.5,0.1-0.9C323.3,230.8,323.3,231.2,323.1,231.8z"/>
								<path class="st21" d="M323.1,230.3C323.2,230.4,323.2,230.4,323.1,230.3C323.1,230.5,323.1,230.6,323.1,230.3z"/>
								<path class="st21" d="M323.3,230.5c0,0,0,0.1,0,0.1C323.2,230.5,323.2,230.5,323.3,230.5
									C323.2,230.3,323.3,230.3,323.3,230.5z"/>
								<path class="st21" d="M323.4,231.4L323.4,231.4c0,0.1,0,0.1,0,0.1l-0.1,0.1c0.1-0.3,0.1-0.2,0-0.1
									C323.3,231.6,323.2,231.7,323.4,231.4z"/>
								<path class="st21" d="M324.3,231.6l0.4-0.3c0.2,0.1-0.5,1.1,0.3,0.6c-0.3,0.1-0.4,0.5-0.7,0.4
									C324.7,231.9,324.5,231.7,324.3,231.6z"/>
								<path class="st21" d="M325.5,231.7c0.1-0.1,0.2-0.2,0.4-0.2c0.1,0,0,0.3-0.2,0.4C326.1,231.3,325.2,232.1,325.5,231.7z"/>
								<path class="st21" d="M326.1,232.6c0-0.1,0-0.2,0.1-0.2c0.1,0.2-0.4,0.5-0.7,0.8C325.2,233.3,325.8,232.7,326.1,232.6z"/>
								<path class="st21" d="M330.4,231.5c-0.4,0.3-0.5,0.1-0.3-0.1C330,231.6,330.2,231.6,330.4,231.5z"/>
								<polygon class="st21" points="327.2,233.8 327,233.8 327.6,233.4 								"/>
								<polygon class="st21" points="327.5,235.1 327.2,235.4 327.2,235.2 								"/>
								<path class="st21" d="M327.8,235.2l0.1,0.2l-0.2,0C327.5,235.4,327.8,235.2,327.8,235.2z"/>
								<path class="st21" d="M328,235.8c0,0-0.1,0-0.1,0l0.2-0.3L328,235.8z"/>
								<path class="st21" d="M332.3,237.1c0.4-0.3,0.2,0.1,0.4,0.1C332.6,237.2,332,237.4,332.3,237.1z"/>
							</g>
						</g>
					</g>
				</g>
			</g>
		</g>
		<path class="st19" d="M159.9,220.7c0,0-16,7.7-19.3,26.7c-0.3,1.6-0.4,3.3-0.3,5c0,1.1,0.8,2.1,1.9,2.3c1.1,0.2,2.5,0.4,3.6,0.6
			c1.2,0.2,2.4-0.3,3.1-1.3c2-2.9,6.8-9,14.8-12.3c0,0,8.5-0.6,10.9-6.7c2.4-6.1-7.1-15.8-9.5-15.8
			C162.8,219.3,159.9,220.7,159.9,220.7z"/>
		<path class="st23" d="M142.5,254.8c0,0,0.5-4.3,1.4-6.5"/>
		<path class="st23" d="M145.2,255.3c0,0,1.3-4.9,3.3-6.7"/>
		<g>
			<defs>
				<path id="SVGID_00000132809723915786742340000012711828981631029145_" d="M159.9,220.7c0,0-16,7.7-19.3,26.7
					c-0.3,1.6-0.4,3.3-0.3,5c0,1.1,0.8,2.1,1.9,2.3c1.1,0.2,2.5,0.4,3.6,0.6c1.2,0.2,2.4-0.3,3.1-1.3c2-2.9,6.8-9,14.8-12.3
					c0,0,8.5-0.6,10.9-6.7c2.4-6.1-7.1-15.8-9.5-15.8C162.8,219.3,159.9,220.7,159.9,220.7z"/>
			</defs>
			<clipPath id="SVGID_00000045602455779080894730000012597057131325547918_">
				<use xlink:href="#SVGID_00000132809723915786742340000012711828981631029145_"  style="overflow:visible;"/>
			</clipPath>
			<g style="clip-path:url(#SVGID_00000045602455779080894730000012597057131325547918_);">
				<g>
					<g>
						<g>
							<path class="st21" d="M162.3,232c-0.1,0-0.1,0.1-0.2,0.1C162.1,232,162.2,232,162.3,232z"/>
							<path class="st21" d="M162,225.6C162,225.6,162,225.6,162,225.6L162,225.6L162,225.6z"/>
							<path class="st21" d="M162.1,225.6l0.3,0C162.2,225.7,162.1,225.7,162.1,225.6z"/>
							<path class="st21" d="M160.7,232.5c-0.1,0.1-0.1,0.1-0.3,0.2L160.7,232.5z"/>
							<path class="st21" d="M159.6,231.9c0,0-0.1,0-0.1,0C159.6,231.9,159.6,231.9,159.6,231.9z"/>
							<path class="st21" d="M163.1,237.6C163.1,237.6,163.1,237.6,163.1,237.6C163.2,237.6,163.1,237.6,163.1,237.6z"/>
							<path class="st21" d="M162.7,238.1C162.7,238.1,162.7,238.2,162.7,238.1l0,0.1C162.6,238.2,162.7,238.1,162.7,238.1z"/>
							<path class="st21" d="M162.4,237.9L162.4,237.9C162.3,238,162.3,238,162.4,237.9z"/>
							<path class="st21" d="M159.6,241.1l-0.2,0C159.5,241.1,159.6,241.1,159.6,241.1z"/>
							<path class="st21" d="M163.4,237.5c-0.1,0-0.1,0.1-0.2,0.1C163.2,237.6,163.3,237.5,163.4,237.5z"/>
							<path class="st21" d="M162.4,232c0,0-0.1,0-0.1,0C162.4,231.9,162.4,231.9,162.4,232z"/>
							<path class="st21" d="M160.7,233L160.7,233C160.7,232.9,160.7,232.9,160.7,233z"/>
							<path class="st21" d="M162.3,223.3c0-0.1,0.1-0.1,0.1-0.2C162.4,223.2,162.4,223.3,162.3,223.3z"/>
							<path class="st21" d="M162.5,236.1c-0.8,0,0,0.2-0.7,0.2c0.2-0.1,0.3-0.2-0.1-0.3c-0.4,0.1,0,0.2-0.6,0.3l0.2-0.2
								c-0.3-0.1-0.8,0.1-0.8,0c0.9-0.2-0.3-0.5-0.2-0.7l-0.1,0.1l-0.4-0.3c0,0,0,0,0,0c0,0,0.1,0,0.2,0c-0.4-0.1-0.7-0.3-0.6-0.5
								c0.5-0.1,0.2-0.7,0.6-0.8c-0.1,0.1-0.1,0.2,0,0.3l0.6,0c0-0.2-0.5,0-0.2-0.2c0.8,0,0,0.3,0.1,0.4c0.2-0.1,0.3-0.1,0.4-0.2
								c0,0.3,0.3,0.6-0.5,0.8c0.2,0.1,0.5,0,0.6,0c-0.5,0.2,0.5,0.1,0,0.3c0.7-0.1,0.4-0.4,0.8-0.6c-0.6-0.3,0-0.6,0.1-0.9
								c-0.5,0-1,0.2-1.3,0.1c-0.4-0.3,0.3-0.3,0.6-0.5c-0.2-0.2-0.9,0-0.9-0.3l-0.4,0.2c-0.8-0.2,0.3-0.2,0.1-0.3
								c0.2,0,0.4,0,0.4,0.2c0.3,0,0.4-0.1,0.4-0.2l0,0c0.4-0.1,0.8-0.1,0.6-0.3c-0.5,0.1-0.3-0.2-0.6-0.2l-0.1,0.1
								c0.2-0.2,0.1-0.3,0.2-0.4l-0.1,0c0.2-0.1,0.8-0.2,0.6-0.3c-0.2,0-0.8,0.2-0.7,0c-0.3,0-0.4,0.2-0.2,0.4
								c-0.1-0.2-0.7-0.3-0.7,0c-0.4-0.1,0.2-0.2,0-0.3c0.1,0,0.3,0,0.4,0c-0.6,0,0-0.4,0.4-0.4l-0.3,0.2c0.5,0,0.8-0.2,1-0.1
								c-0.7-0.1,0.4-0.5-0.3-0.6l0.4,0.1c-0.2-0.4,0.6-0.7,0.8-1.1c-0.2,0.1-1,0.1-0.8,0.4c-0.2-0.4-0.8-0.1-1.2-0.3
								c-0.3-0.3,0.8-0.1,1-0.2L161,230c0.9-0.2-0.2-0.8,0.4-1.2c-0.2,0-0.1,0.1-0.2,0.1c-0.5-0.2,0.1-0.2,0.3-0.3
								c-0.1-0.2-0.3-0.4-0.9-0.3c-0.1-0.2,0.4,0,0.5-0.1l-0.1,0l0.7-0.2c-0.2-0.2-0.5-0.4-1.1-0.5c0.1-0.4,1.3-0.1,1.6-0.4
								c-0.3-0.2-0.5,0-0.7,0l0.1-0.3c-0.7,0.1-0.3,0.3-1.1,0.3c0.8-0.2,0.2-0.3,0.8-0.6l0.1,0c0.5-0.1,0.2-0.4,0.3-0.6
								c-0.3,0.1-0.4,0.3-0.5,0.4c-0.2-0.2,0-0.7,0.7-0.9c-0.1-0.1-0.4-0.4-0.7-0.2c-0.1-0.4,1-0.1,0.8-0.5l-0.5,0
								c-0.7-0.4,0.7-0.7,0.1-1.1l0.6,0c-0.3-0.1-0.4-0.3-0.6-0.3l-0.2,0.2c-0.5-0.2,0.5-0.1,0.2-0.4c0.2,0,0.6,0.2,0.8,0.2
								c-0.4,0.8,0.4,1.6-0.3,2.3c-0.1,0-0.2-0.1-0.3-0.1c0.1,0.1,0,0.2,0.3,0.2l0,0c-0.2,0.2,0.6,0.4,0.6,0.6
								c-0.4,0.1,0.2,0.4-0.6,0.3l0.5,0.2c-0.3,0-0.6,0-0.8,0.1c0.1,0.1,0.3,0.2,0.5,0.1c0.3,0.6,0.2,1.2-0.1,1.7l0.4-0.1
								c0.2,0.1-0.6,0.5,0.3,0.4c-0.4,0.3,0.2,0.7-0.7,0.7c0.9,0.2,0.4,0.7,0.2,1c-0.8-0.1-0.2,0.3-0.6,0.4c0.6,0.1,0.6-0.3,1-0.3
								c-1,0.4,0.7,1.1-0.9,1.2c0.1,0,0.1,0,0.2,0c0,0.1,0.3,0.2,0.3,0.3c-0.3,0-0.4-0.1-0.5,0.1c0.1,0.1,0.5,0.1,0.7,0.1
								c-0.4,0.3-0.5,0.7-1.1,0.8c0.2,0.1,0.5,0.2,0.6,0.1c-0.5,0.4,0.1,0.4-0.2,0.9c0-0.2,0.7-0.1,0.4-0.3c0.9,0.2-0.2,0.7,0.3,1
								l-0.6,0.2c-0.1,0.2,0.4,0.2,0.6,0.1c0.4,0.4,0,0.5,0,0.8c0.1,0,0.2,0,0.2,0l0,0.4c-0.1,0-0.4,0.2-0.8,0.2
								C162.5,236.4,162.7,236.3,162.5,236.1z"/>
							<path class="st21" d="M162.2,236.4L162.2,236.4L162.2,236.4C162.1,236.4,162.2,236.4,162.2,236.4z"/>
							<path class="st21" d="M159.7,232.8c0.1,0,0.2,0.1,0.2,0.1C159.8,232.9,159.7,232.9,159.7,232.8z"/>
							<path class="st21" d="M161.4,240.2c-0.9,0,0.1-0.3-0.1-0.4c-0.1,0.2-0.6,0.2-0.9,0.2c1.1-0.3-0.2-0.2,0-0.6
								c-0.4,0-0.4,0.2-0.8,0.3c0.3-0.2,0.4-0.6,1-0.6c0-0.4-0.2-0.6-0.2-0.8c-0.2,0.3-0.6,0.1-1.1,0.3c0.7-0.3,1.6-0.9,2.4-1.3
								c-0.7,0-0.8,0-1.4,0c-0.5-0.4,0.6-0.1,0.4-0.5l0.1,0.2c0.2-0.2,0.8-0.2,1.3-0.3l-0.1,0.5c0.5,0,0.4-0.3,0.5-0.4
								c0.6-0.2,0.4,0.2,0.9,0.2c-0.4,0.1-0.2,0.3-0.4,0.4l0.3,0c0.3,0.2-0.4,0.4-0.3,0.6c0.1,0,0.1,0,0.2,0
								c-0.3,0.1-0.6,0.2-0.7,0.3l0-0.1c-0.6,0.2-1,0.6-1.6,0.4l0.2,0.5c0.7-0.1,1.7-0.2,1.7-0.5l0.3,0c0.4,0.2-0.5,0.6-1.1,0.5
								c-1.6,0.3,0,0.7-0.7,1.1c0.4,0,0.6-0.2,0.9-0.3c0-0.1,0-0.2-0.3-0.2c0.2-0.5,1.4,0,1.2-0.5c-0.2-0.2-0.7,0.3-0.8,0l1.2-0.3
								c0,0.2-0.2,0.4-0.3,0.6c-0.7,1.1,0,1.7,0,1.7c0,0.7,0,1.5,0.1,2.2c0,0.7,0.1,1.4,0.2,1.9c-0.1,0.3-0.1,0.2-0.8,1.1
								c-0.3,0.1-0.4-0.2-0.6,0.1c0.3-0.3,0.5-0.5,0.4-0.7c-0.4,0.1-0.1,0.3-0.2,0.3l0,0c-0.2,0.1-0.3,0.2-0.3,0.3
								c-0.8,0-0.8-0.7-0.1-1.1c-0.5-0.1-0.6,0.3-0.9,0.6c-0.6-0.8-0.6-1.4-0.8-2.2c0.8-0.1,0.5-0.2,1-0.3l-0.3,0
								c0.1,0,0.6-0.2,0.8,0c-0.6-0.4,0.9-0.7,1.2-1l-0.4,0.1c0-0.3,0-0.3,0.2-0.6c-0.8-0.3-0.1,0.4-1.1,0.4l0.1-0.1
								c-0.4,0.1-1,0.2-1.3,0.4c0.6-0.5-0.3-0.6,0.1-1c-0.4,0.1-0.7,0.5-0.8,0.6c-0.1-0.1,0.2-0.4-0.2-0.4l0.5-0.1
								c0-0.3-0.5,0.1-0.9,0C159.3,240.4,161.1,240.8,161.4,240.2z"/>
							<path class="st21" d="M160.8,234c0,0.1,0,0.1,0,0.2C160.7,234.1,160.7,234.1,160.8,234z"/>
							<path class="st21" d="M159.8,235.3c-0.1,0-0.1,0-0.2,0C159.6,235.3,159.7,235.3,159.8,235.3z"/>
							<path class="st21" d="M159,235.4c0.3,0,0.3-0.1,0.6-0.1C159.4,235.4,159.4,235.6,159,235.4z"/>
							<path class="st21" d="M161.3,214.7c0.2,0,0.5-0.1,0.5,0c-0.1,0.1-0.3,0.2-0.4,0.2C161.3,214.9,161.3,214.8,161.3,214.7z"/>
							<path class="st21" d="M161.4,215.7c0,0.1,0.1,0.2,0.1,0.3l-0.8-0.1C160.9,215.6,161.3,215.9,161.4,215.7z"/>
							<path class="st21" d="M161.6,216.5l0.2,0C161.7,216.5,161.6,216.5,161.6,216.5z"/>
							<path class="st21" d="M161.3,216.4l-0.6-0.1l0.5-0.2l0.1,0.2c0.2,0.1,0.2,0.2,0.3,0.2l-0.4,0
								C161.2,216.5,161.3,216.5,161.3,216.4z"/>
							<path class="st21" d="M161.1,216.7c-0.1,0-0.1,0-0.2-0.1C161.1,216.6,161.1,216.7,161.1,216.7z"/>
							<path class="st21" d="M162,217.5c-0.2-0.1-0.5-0.1-0.7-0.1c-0.2-0.3,0.6-0.1,0.4-0.4c-0.5,0.2-0.3-0.2-0.5-0.4
								c0.5,0.2,0.8,0.4,0.9,0.7l-0.3-0.1C161.6,217.4,161.8,217.4,162,217.5z"/>
							<path class="st21" d="M160.9,218.6l0.5-0.1c-0.2-0.1-0.2-0.4-0.7-0.5c0.1-0.1,0.3-0.1,0.5-0.1c-0.2-0.1-0.4-0.2,0-0.3
								c0.3,0.5,0.4,0.4,0.5,0.8c0.1,0,0.1,0,0.1-0.1l0.2,0.3C161.4,218.6,161.3,218.9,160.9,218.6z"/>
							<path class="st21" d="M161.2,219c0.1-0.2,0.6-0.2,0.9-0.1l-0.5,0.4C161.7,219.2,161.7,219.1,161.2,219z"/>
							<path class="st21" d="M161.2,219.3c0.3,0.1,0.8,0.3,0.3,0.4C161.6,219.5,160.8,219.5,161.2,219.3z"/>
							<path class="st21" d="M161.5,220.9l-0.3-0.4c-0.7-0.2-0.2,0.2-0.5,0.2c-0.1-0.4,0.1-0.2,0.6-0.4c0-0.1,0.3-0.2,0.5-0.3
								C161.1,220.4,162.7,220.6,161.5,220.9z"/>
							<polygon class="st21" points="160.9,220 161.2,220 160.9,220.1 							"/>
							<path class="st21" d="M162.1,221.9c0.8,0.3-0.5,0.4-0.2,0.7c0,0,0.1,0,0.2,0l-0.1,0.2l0.2,0c-0.5-0.1-0.7,0.2-1.1,0.2
								c-0.5-0.3,0.6-0.1,0.1-0.3c-0.2,0-0.5,0-0.7,0.1c0.3-0.1,0.5-0.1,0.8-0.2c0.1-0.1-0.2-0.1-0.4-0.2c0.3-0.1,1-0.1,0.9-0.4
								c-0.4-0.2-0.7,0-0.5-0.2c0.7,0.2-0.1-0.3,0.4-0.4c-0.1-0.2-0.6-0.4-0.8-0.4c0.6,0.1,1.1-0.1,1.3-0.2l-0.5,0.3l0.7,0.2
								C161.9,221.5,162,221.7,162.1,221.9L162.1,221.9z"/>
							<path class="st21" d="M160.5,222.7c0,0-0.1,0-0.1,0.1C160.4,222.8,160.4,222.8,160.5,222.7z"/>
							<polygon class="st21" points="160.7,221 160.5,221.1 160.3,221 							"/>
							<path class="st21" d="M160,222.9c0-0.1,0.2,0,0.2,0L160,222.9L160,222.9z"/>
							<polygon class="st21" points="160.4,223.1 160.8,223.3 160.5,223.3 							"/>
							<path class="st21" d="M160.5,228.1c-0.2-0.2,0.2-0.1,0.6-0.1C161.2,228.2,160.7,227.9,160.5,228.1z"/>
							<path class="st21" d="M159.9,231.2c-0.3-0.2,0.2-0.3,0.1-0.5C160.2,230.8,160.1,231,159.9,231.2z"/>
							<path class="st21" d="M158.2,232.5c0.2,0,0.2-0.1,0.3,0l0.8-0.2C159.7,232.5,158.6,232.5,158.2,232.5z"/>
							<path class="st21" d="M158.1,234l0.3-0.2l0,0.1c0.3-0.1,0.5-0.1,0.8-0.2C159.1,233.8,158.7,234,158.1,234z"/>
							<path class="st21" d="M159.4,233.4C159.4,233.5,159.4,233.5,159.4,233.4C159.2,233.5,159.1,233.5,159.4,233.4z"/>
							<path class="st21" d="M159.3,233.6C159.3,233.6,159.3,233.6,159.3,233.6C159.3,233.6,159.3,233.6,159.3,233.6
								C159.4,233.5,159.5,233.6,159.3,233.6z"/>
							<path class="st21" d="M158.6,234.2l-0.1,0.4l-0.2-0.2C158.8,234.4,158,234.2,158.6,234.2z"/>
							<path class="st21" d="M159,236.4l0.5,0c0.1,0.3-1,0.6-0.1,0.8c-0.3-0.1-0.6,0.2-0.7-0.1C159.1,237,159.2,236.6,159,236.4z"/>
							<path class="st21" d="M159.8,237.3c0.1,0,0.3,0,0.4,0c0.1,0.1-0.2,0.2-0.4,0.2C160.5,237.4,159.4,237.5,159.8,237.3z"/>
							<path class="st21" d="M159.8,238.6c0-0.1,0-0.2,0.2-0.1c0,0.2-0.6,0.2-0.9,0.3C158.8,238.7,159.6,238.4,159.8,238.6z"/>
							<path class="st21" d="M163.7,240.1c-0.4,0-0.4-0.2-0.2-0.2C163.4,240,163.5,240.1,163.7,240.1z"/>
							<polygon class="st21" points="160.1,240.5 160,240.4 160.6,240.3 							"/>
							<polygon class="st21" points="159.9,241.9 159.5,242.1 159.5,241.9 							"/>
							<path class="st21" d="M160,242.2l0,0.2l-0.2-0.1C159.7,242.2,160,242.2,160,242.2z"/>
							<path class="st21" d="M160,242.9c0,0,0,0-0.1-0.1l0.3-0.3L160,242.9z"/>
							<path class="st21" d="M163.4,245.3c0.3-0.3,0.2-0.1,0.3-0.2C163.6,245.2,163.2,245.6,163.4,245.3z"/>
						</g>
					</g>
				</g>
			</g>
		</g>
		<path class="st22" d="M161.8,105.4c-2.5,2.3-5.6,6.6-5.4,13.7c0,0,22.1-14.1,12.4-15.8C166.3,102.8,163.7,103.7,161.8,105.4z"/>
		<path class="st19" d="M192.6,153.3c0,0-2.3,19,16.2,24.2s91.8-3,115.9-4.5c19.8-1.3,31.7,9.8,30.6,29.1c-0.5,9.9-0.4,17,0.1,22
			c0.8,9,7.9,28.5,11.1,34.4c1.6,3,1,6.6-1.3,9l-1.1,1c-1.7,1.6-4.2,1.9-6.2,0.6c-5.1-3.4-15.2-12.2-26.4-33.3
			c-0.2-0.4-0.5-0.9-0.7-1.4c-2.1-4-4-5.9-4-5.9s-5.7-2.6-19.2-2.8c-10.5-0.1-25.6,1.2-46.5,6.4c-32.1,8-64.1,8.3-71,4.4
			c0,0-4.8,11-4.8,32.6c0,1.9-1.5,3.4-3.4,3.5l-4.8,0.2c-1.5,0.1-2.9-0.8-3.6-2.1c-0.4-0.8-0.9-1.9-1.5-3.2
			c-2.2-4.9-5.3-13.1-8.2-25.1c-1.4-5.9-2.7-12.7-3.9-20.4c-0.1-0.7-0.2-1.3-0.3-2c-4.6-34.5-0.4-66.2-0.4-66.2
			s-36.8,12.3-45.5-13.4c-0.9-2.6,0.9-5.4,3.6-5.6c0.4,0,0.9,0,1.4,0c6.5,0.2,25.3,1.4,32.5-12.4c5.3-10,14.2-21.7,25.4-20.2
			c0.5,0.1,0.9,0.1,1.4,0.2C178.4,102.5,192.3,120.2,192.6,153.3z"/>
		<path class="st23" d="M163.8,241.8c-1.3-5.7-2.6-12.3-3.7-19.7c-0.1-0.4-0.1-0.7-0.2-1.1"/>
		<path class="st22" d="M178.4,102.5c0,0-3,0-1.6,6.8c1.1,5.7,3.1,11.7-0.4,27.6c-4,18.1,5.2,22.3,15.4,17.8
			c10.3-4.5,8.5-14.5,6.5-24.2S187.6,101.6,178.4,102.5z"/>
		<path class="st22" d="M112.7,137.6c-0.1-1.6,1.2-3,2.8-3.1c2.3-0.1,5.9-0.2,7.8-0.4c2.9-0.3,4.3,3.9,0.1,8.6
			c-4.2,4.7-8.4,2.6-10.1-2.5C112.9,139.2,112.8,138.4,112.7,137.6z"/>
		<g>
			<path class="st26" d="M142.8,156.8c0,0,9.6-0.2,10.6-13.2"/>
		</g>
		<path class="st23" d="M151.6,143c0,0,1.7,1.3,3.5,0.8"/>
		<path class="st22" d="M159.1,130.7c-0.2,1.4-1.3,2.5-2.3,2.3c-1-0.2-1.5-1.4-1.3-2.9c0.2-1.4,1.2-2.5,2.2-2.3
			C158.7,128,159.3,129.3,159.1,130.7z"/>
		<path class="st23" d="M195.7,226.4c0,0-3.2,4.8-5.6,10.3"/>
		<path class="st23" d="M326.9,228.6c0,0-3.6-4.8-6-11.6"/>
		<path class="st27" d="M194.6,165.7c-5.8,2.9-11.5,4.6-16.4,5.6c-8.4,1.7-14.4,1.3-14.4,1.3c0.9-1.1,1.5-2.6,1.6-4.3
			c0-0.9-0.1-1.7-0.4-2.5c0,0,16.9-1.2,27.7-6.2C193.1,161.4,193.7,163.5,194.6,165.7z"/>
		<path class="st23" d="M181.8,272.6c0,0-0.1-7-0.2-8.8"/>
		<path class="st23" d="M363.6,269.3c0,0-3.1-1.9-5.3-4.3"/>
		<path class="st23" d="M366,267.1c0,0-2.1-2.3-3.4-4.2"/>
		<path class="st23" d="M178,273c-0.2-0.7-1.1-3.1-2.4-7.7"/>
		<path class="st28" d="M166.1,169.1c-0.1,3.9-2.8,6.9-5.9,6.8c-1.1,0-2.1-0.5-3-1.1c-1.6-1.3-2.6-3.5-2.5-6
			c0.1-3.9,2.8-6.9,5.9-6.8c1.9,0.1,3.5,1.2,4.5,3C165.8,166.1,166.2,167.6,166.1,169.1z"/>
		<path class="st23" d="M165.2,164.9c0.7,1.2,1,2.6,1,4.2c-0.1,3.9-2.8,6.9-5.9,6.8c-1.1,0-2.1-0.5-3-1.1"/>
		<g>
			<defs>
				<path id="SVGID_00000064341891164697688640000000638187342442164918_" d="M168,159.5c-5,4.3-9.3,1.3-9.3,1.3
					c0.4-4.4,0.7-6.9,0.7-6.9s4.8-1.2,9.3-6l2.5-3.4C171.3,144.5,173,155.2,168,159.5z"/>
			</defs>
			<clipPath id="SVGID_00000177450104795577961670000003462226503703596948_">
				<use xlink:href="#SVGID_00000064341891164697688640000000638187342442164918_"  style="overflow:visible;"/>
			</clipPath>
			<g style="opacity:0.88;clip-path:url(#SVGID_00000177450104795577961670000003462226503703596948_);">
				<g>
					<g>
						<g>
							<path class="st21" d="M164.3,151.8c0,0.1,0,0.1,0.1,0.2C164.4,152,164.4,151.9,164.3,151.8z"/>
							<path class="st21" d="M167.4,149.3C167.4,149.2,167.4,149.2,167.4,149.3L167.4,149.3L167.4,149.3z"/>
							<path class="st21" d="M167.4,149.2l-0.2-0.2C167.2,149.1,167.3,149.2,167.4,149.2z"/>
							<path class="st21" d="M165,153.2c0,0.1,0,0.2,0.1,0.3L165,153.2z"/>
							<path class="st21" d="M165.9,153.6C165.9,153.6,166,153.7,165.9,153.6C166,153.6,165.9,153.6,165.9,153.6z"/>
							<path class="st21" d="M161.2,153.2C161.2,153.2,161.1,153.2,161.2,153.2C161.1,153.2,161.2,153.2,161.2,153.2z"/>
							<path class="st21" d="M161.1,153.7C161.1,153.7,161,153.7,161.1,153.7L161.1,153.7C161.1,153.8,161.1,153.7,161.1,153.7z"/>
							<path class="st21" d="M161.3,153.9L161.3,153.9C161.3,153.9,161.3,153.9,161.3,153.9z"/>
							<path class="st21" d="M160.5,157l0.1,0.2C160.6,157.2,160.6,157.1,160.5,157z"/>
							<path class="st21" d="M161.1,153c0,0.1,0,0.1,0.1,0.2C161.1,153.1,161.2,153,161.1,153z"/>
							<path class="st21" d="M164.3,151.7C164.3,151.8,164.3,151.8,164.3,151.7C164.3,151.8,164.3,151.7,164.3,151.7z"/>
							<path class="st21" d="M164.8,153.3L164.8,153.3C164.8,153.3,164.8,153.3,164.8,153.3z"/>
							<path class="st21" d="M168.2,147.9c0,0,0-0.1,0-0.1C168.1,147.8,168.1,147.9,168.2,147.9z"/>
							<path class="st21" d="M162.2,153.2c0.4,0.6-0.1,0.1,0.2,0.6c0-0.2,0-0.3,0.2,0c0.1,0.3-0.2,0,0.1,0.5l0-0.2
								c0.2,0.2,0.3,0.6,0.4,0.6c-0.3-0.7,0.5,0.1,0.5-0.1l0,0.1l0.3,0.2l0,0c0,0,0-0.1-0.1-0.1c0.3,0.3,0.5,0.4,0.6,0.3
								c-0.2-0.4,0.3-0.4,0.2-0.7c0,0.1,0,0.2-0.2,0.1l-0.3-0.4c0.1-0.1,0.3,0.4,0.2,0.1c-0.4-0.6-0.2,0.1-0.3,0.1
								c-0.1-0.2-0.1-0.3-0.1-0.4c-0.2,0.1-0.5,0-0.2,0.6c-0.1-0.1-0.3-0.4-0.3-0.4c0.1,0.4-0.3-0.3-0.2,0.1c-0.3-0.6,0-0.4-0.1-0.8
								c0.4,0.3,0.3-0.2,0.4-0.4c0.3,0.4,0.4,0.8,0.6,1c0.3,0.1,0-0.3-0.1-0.6c0.2,0.1,0.5,0.6,0.7,0.5l0.1,0.3
								c0.5,0.5-0.1-0.3,0.1-0.2c-0.1-0.1-0.2-0.3-0.3-0.2c-0.2-0.2-0.2-0.3-0.1-0.4l0,0c-0.2-0.3-0.4-0.6-0.2-0.5
								c0.2,0.4,0.3,0.2,0.4,0.3l0,0.1c0-0.2,0.1-0.2,0.1-0.3l0.1,0.1c0-0.2-0.3-0.6-0.2-0.6c0.1,0.2,0.4,0.7,0.4,0.5
								c0.2,0.2,0.1,0.4-0.1,0.3c0.2,0,0.5,0.4,0.4,0.5c0.3,0.3,0-0.2,0.2-0.1c-0.1-0.1-0.2-0.2-0.2-0.3c0.3,0.4,0.2-0.1,0-0.4
								l0.1,0.3c-0.3-0.3-0.3-0.6-0.5-0.8c0.5,0.5,0.1-0.5,0.5-0.1l-0.3-0.2c0.3,0,0-0.7,0-1c0.1,0.2,0.6,0.7,0.3,0.7
								c0.3-0.1,0.6,0.5,0.9,0.7c0.3,0-0.4-0.6-0.5-0.8l0,0.2c-0.5-0.7,0.5-0.2,0.3-0.8c0.2,0.1,0.1,0.1,0.1,0.2
								c0.4,0.2,0-0.1-0.1-0.3c0.1,0,0.4,0,0.7,0.4c0.2,0-0.2-0.2-0.3-0.4l0.1,0.1l-0.3-0.5c0.2,0,0.5,0.1,0.9,0.4
								c0.1-0.3-0.8-0.8-0.9-1.1c0.3,0.1,0.3,0.3,0.4,0.4l0.1-0.2c0.4,0.4,0.1,0.4,0.6,0.8c-0.4-0.6,0-0.3-0.2-0.7l-0.1,0
								c-0.3-0.4,0.1-0.3,0.1-0.5c0.2,0.2,0.1,0.3,0.2,0.5c0.3,0,0.3-0.4-0.1-0.8c0.1,0,0.4,0,0.5,0.2c0.2-0.2-0.6-0.6-0.4-0.7
								l0.4,0.3c0.7,0.2-0.2-0.8,0.4-0.6l-0.5-0.3c0.2,0.1,0.4,0.1,0.6,0.2l0.1,0.2c0.5,0.2-0.3-0.3,0-0.3c-0.1-0.1-0.5-0.2-0.7-0.3
								c0,0.6-1,0.5-0.8,1.3c0.1,0,0.1,0.1,0.2,0.1c-0.1,0-0.1,0.1-0.3-0.1l0,0c0,0.2-0.6-0.2-0.6-0.1c0.3,0.3-0.3,0.1,0.3,0.5
								l-0.4-0.2c0.2,0.2,0.4,0.4,0.5,0.5c-0.1,0-0.3-0.1-0.4-0.3c-0.4,0.1-0.6,0.5-0.7,0.9l-0.2-0.3c-0.2,0,0.2,0.6-0.3,0
								c0.1,0.3-0.5,0.2,0.1,0.7c-0.6-0.5-0.5,0-0.6,0.3c0.5,0.5,0,0.3,0.2,0.6c-0.4-0.4-0.2-0.6-0.5-0.8c0.4,0.8-0.9,0-0.1,1.1
								c-0.1,0-0.1-0.1-0.1-0.1c0,0-0.2-0.1-0.3-0.1c0.1,0.2,0.3,0.2,0.3,0.4c-0.1,0-0.3-0.3-0.4-0.4c0.1,0.3-0.1,0.6,0.3,1.1
								c-0.1-0.1-0.4-0.3-0.4-0.4c0.1,0.5-0.3,0.1-0.3,0.5c0.1-0.1-0.3-0.5-0.1-0.4c-0.5-0.6-0.3,0.3-0.7,0.1l0.2,0.5
								c-0.1,0.1-0.3-0.3-0.4-0.5c-0.3-0.1-0.3,0.2-0.4,0.3c0,0-0.1-0.1,0-0.1l-0.2,0.1c0,0.1,0.1,0.4,0.3,0.7
								C162.1,153.3,162,153.1,162.2,153.2z"/>
							<polygon class="st21" points="162.2,153.5 162.2,153.6 162.2,153.6 							"/>
							<path class="st21" d="M165.4,154c-0.1-0.1-0.2-0.1-0.2-0.1C165.3,153.9,165.3,154,165.4,154z"/>
							<path class="st21" d="M160.4,155.4c0.3,0.7,0.1-0.2,0.3,0c-0.1,0.1,0.1,0.6,0.2,0.8c-0.2-1,0.2,0.1,0.4-0.2
								c0.1,0.3,0,0.4,0.2,0.7c0-0.3,0.2-0.5,0-1c0.2-0.1,0.5,0,0.6-0.1c-0.1,0.3,0.2,0.5,0.3,1c-0.1-0.7-0.1-1.5-0.3-2.3
								c0.3,0.5,0.4,0.6,0.6,1.1c0.5,0.2-0.2-0.5,0.1-0.5l-0.2,0c0-0.2-0.3-0.7-0.4-1.1l-0.2,0.2c-0.2-0.4,0-0.4,0-0.5
								c-0.2-0.5-0.3-0.2-0.5-0.6c0.1,0.3,0,0.3,0,0.4l-0.1-0.2c-0.2-0.1,0,0.4-0.1,0.4c0-0.1-0.1-0.1-0.1-0.1
								c0.1,0.2,0.2,0.5,0.1,0.6l0,0c0.1,0.5,0,0.9,0.5,1.4l-0.4,0c-0.2-0.5-0.5-1.4-0.4-1.5l-0.1-0.2c-0.2-0.3-0.1,0.6,0.2,1
								c0.5,1.3-0.4,0.2-0.4,0.9c-0.2-0.4-0.1-0.5-0.2-0.8c0-0.1,0.1-0.1,0.2,0.2c0.2-0.3-0.5-1.1-0.2-1.1c0.2,0.1,0.1,0.6,0.3,0.6
								l-0.3-1c-0.1,0.1-0.1,0.3-0.2,0.5c-0.1,0.5-0.4,0.6-0.6,0.6c-0.2,0-0.3-0.1-0.3-0.1c-0.8,0.4-1.6,0.7-2.5,0.9
								c-0.3,0.2-0.3,0.1-0.4,1.2c0.1,0.2,0.3,0.1,0.2,0.5c0-0.4,0.1-0.6,0.3-0.6c0.1,0.4-0.1,0.2-0.1,0.3l0,0c0,0.2,0,0.3-0.1,0.3
								c0.2,0.6,0.6,0.4,0.6-0.4c0.2,0.4,0,0.6-0.1,0.9c0.6,0.2,1,0.1,1.6,0c-0.2-0.7,0-0.4-0.1-0.9l0.1,0.2
								c-0.1-0.1-0.1-0.6-0.2-0.7c0.4,0.4,0.1-1,0.2-1.3l0.1,0.3c0.1-0.1,0.2-0.1,0.3-0.3c0.5,0.6-0.2,0.2,0.1,1l0-0.2
								c0.1,0.3,0.2,0.9,0.2,1.2c0.1-0.6,0.5,0.1,0.6-0.4c0.1,0.4-0.1,0.8-0.1,0.8c0.1,0,0.2-0.3,0.3,0l-0.1-0.5
								c0.2-0.1,0.1,0.4,0.3,0.7C161.1,157.1,160.2,155.8,160.4,155.4z"/>
							<path class="st21" d="M164.2,153.7C164.1,153.7,164.1,153.7,164.2,153.7C164.1,153.8,164.1,153.7,164.2,153.7z"/>
							<path class="st21" d="M164,154.9c0,0.1,0.1,0.1,0.1,0.2C164.1,155,164,155,164,154.9z"/>
							<path class="st21" d="M164.3,155.5c-0.1-0.2-0.1-0.2-0.2-0.5C164.1,155.2,164,155.3,164.3,155.5z"/>
							<path class="st21" d="M172.7,144.5c-0.1-0.1-0.2-0.2-0.3-0.2l0.1,0.2L172.7,144.5z"/>
							<path class="st21" d="M172,144.6l-0.2,0.1l0.6,0.4C172.4,144.9,172,144.8,172,144.6z"/>
							<path class="st21" d="M171.5,144.9l-0.1-0.1C171.4,144.8,171.5,144.8,171.5,144.9z"/>
							<path class="st21" d="M171.8,145l0.4,0.2l-0.2-0.3L171.8,145c-0.1-0.1-0.2-0.1-0.3-0.1L171.8,145
								C171.8,145,171.7,145,171.8,145z"/>
							<path class="st21" d="M171.7,145.1c0,0,0.1,0,0.1,0C171.8,145.2,171.8,145.2,171.7,145.1z"/>
							<path class="st21" d="M170.7,145.1c0.2,0,0.4,0.2,0.6,0.3c0.2-0.1-0.4-0.4-0.2-0.4c0.3,0.3,0.3,0,0.6,0.1
								c-0.4-0.1-0.7-0.2-0.9-0.1l0.3,0.1C171,145.3,170.9,145.1,170.7,145.1z"/>
							<path class="st21" d="M171.1,146.2l-0.4-0.3c0.2,0.1,0.3-0.1,0.7,0.1c0-0.1-0.2-0.2-0.3-0.3c0.2,0,0.4,0.1,0.1-0.1
								c-0.4,0.1-0.5,0-0.7,0.2c-0.1,0-0.1-0.1,0-0.1l-0.3,0C170.8,146,170.7,146.2,171.1,146.2z"/>
							<path class="st21" d="M170.7,146.3c0-0.1-0.3-0.4-0.6-0.5c0.1,0.1,0.1,0.3,0.2,0.4C170.3,146.2,170.3,146,170.7,146.3z"/>
							<path class="st21" d="M170.6,146.5c-0.2-0.1-0.7-0.2-0.4,0.1C170.2,146.4,170.8,146.7,170.6,146.5z"/>
							<path class="st21" d="M169.7,147.1l0.4-0.1c0.5,0.2,0.1,0.2,0.3,0.4c0.2-0.1,0-0.2-0.2-0.5c0.1,0-0.2-0.3-0.3-0.4
								C170.2,147,168.9,146.4,169.7,147.1z"/>
							<polygon class="st21" points="170.5,146.9 170.3,146.8 170.4,147 							"/>
							<path class="st21" d="M168.9,147.3c-0.7-0.2,0.2,0.5-0.1,0.5c0,0-0.1-0.1-0.1-0.1l0,0.2l-0.1-0.1c0.4,0.2,0.4,0.4,0.7,0.7
								c0.5,0.1-0.4-0.3,0.1-0.2c0.1,0.1,0.4,0.3,0.5,0.4c-0.1-0.2-0.3-0.3-0.5-0.5c0-0.1,0.2,0,0.3,0.1c-0.2-0.2-0.7-0.6-0.5-0.6
								c0.4,0.1,0.5,0.4,0.4,0.1c-0.6-0.3,0.2-0.1-0.1-0.4c0.2-0.1,0.6,0.1,0.8,0.2c-0.5-0.3-0.8-0.6-0.9-0.7l0.3,0.4l-0.6-0.2
								C169.1,147.2,169,147.3,168.9,147.3L168.9,147.3z"/>
							<path class="st21" d="M169.7,148.6c0,0,0,0.1,0.1,0.1C169.7,148.7,169.7,148.6,169.7,148.6z"/>
							<polygon class="st21" points="170.3,147.6 170.3,147.7 170.5,147.7 							"/>
							<path class="st21" d="M170,148.9c0,0-0.1-0.1-0.2-0.1L170,148.9L170,148.9z"/>
							<polygon class="st21" points="169.5,148.8 169.2,148.7 169.4,148.9 							"/>
							<path class="st21" d="M167.3,151.3c0.2,0.1-0.1-0.2-0.3-0.4C166.8,150.9,167.2,151.1,167.3,151.3z"/>
							<path class="st21" d="M166.2,153.1c0.3,0.1,0.1-0.3,0.2-0.3C166.1,152.7,166.1,152.9,166.2,153.1z"/>
							<path class="st21" d="M166.4,154.8c-0.1-0.1-0.1-0.2-0.2-0.2l-0.4-0.7C165.5,153.9,166.2,154.6,166.4,154.8z"/>
							<path class="st21" d="M165.6,155.6l0-0.3l-0.1,0c-0.1-0.3-0.2-0.4-0.3-0.6C165.2,154.9,165.2,155.2,165.6,155.6z"/>
							<path class="st21" d="M165.2,154.5C165.2,154.5,165.2,154.5,165.2,154.5C165.3,154.6,165.3,154.7,165.2,154.5z"/>
							<path class="st21" d="M165.1,154.6C165.1,154.6,165.2,154.6,165.1,154.6C165.2,154.6,165.2,154.6,165.1,154.6
								C165.1,154.5,165.1,154.4,165.1,154.6z"/>
							<path class="st21" d="M165.2,155.4l-0.2,0.2l0.2,0.1C165,155.3,165.5,155.8,165.2,155.4z"/>
							<path class="st21" d="M163.7,155.9l-0.3-0.4c-0.2,0,0.1,1-0.4,0.4c0.2,0.2,0.1,0.5,0.4,0.5
								C163.3,156,163.5,155.9,163.7,155.9z"/>
							<path class="st21" d="M162.7,155.7c0-0.1-0.1-0.2-0.2-0.3c-0.1,0,0,0.2,0.1,0.4C162.4,155.2,162.9,156,162.7,155.7z"/>
							<path class="st21" d="M162,156.1c0,0,0.1-0.1,0-0.2c-0.1,0.1,0.1,0.5,0.2,0.8C162.4,156.9,162.2,156.2,162,156.1z"/>
							<path class="st21" d="M159.6,153.5c0.1,0.4,0.2,0.3,0.2,0.1C159.8,153.7,159.7,153.6,159.6,153.5z"/>
							<polygon class="st21" points="160.7,156.5 160.8,156.5 160.7,156 							"/>
							<polygon class="st21" points="159.9,157.1 159.9,157.5 160.1,157.4 							"/>
							<path class="st21" d="M159.7,157l-0.2,0.1l0.1,0.1C159.8,157.3,159.7,157.1,159.7,157z"/>
							<path class="st21" d="M159.3,157.3C159.3,157.2,159.3,157.3,159.3,157.3l0.1-0.2L159.3,157.3z"/>
							<path class="st21" d="M156.5,155.3c0-0.4-0.1-0.1-0.1-0.2C156.4,155.1,156.5,155.6,156.5,155.3z"/>
						</g>
					</g>
				</g>
			</g>
		</g>
		<path class="st23" d="M331.6,235.9c-0.2-0.4-0.5-0.9-0.7-1.4c-2.1-4-4-5.9-4-5.9s-5.7-2.6-19.2-2.8"/>
	</g>
</g>
</svg>
