<?xml version="1.0" encoding="utf-8"?>
<!-- Generator: Adobe Illustrator 26.0.3, SVG Export Plug-In . SVG Version: 6.00 Build 0)  -->
<svg version="1.1" xmlns="http://www.w3.org/2000/svg" xmlns:xlink="http://www.w3.org/1999/xlink" x="0px" y="0px"
	 viewBox="0 0 503.6 377.7" style="enable-background:new 0 0 503.6 377.7;" xml:space="preserve">
<style type="text/css">
	.st0{fill:#FFF0DD;}
	.st1{fill:#6B5C52;}
	.st2{fill:#B8BBBF;}
	.st3{fill:#F9E9CD;}
	.st4{fill:#FFE6BD;}
	.st5{fill:#F5F5F2;}
	.st6{fill:#637189;}
	.st7{fill:#9E9082;}
	.st8{fill:#938D89;}
	.st9{fill:#FFDBC0;}
	.st10{fill:#6E85BD;}
	.st11{fill:#E8D9D6;}
	.st12{fill:#A7BC79;}
	.st13{fill:#FF8080;}
	.st14{fill:#3D3533;}
	.st15{fill:#A1683D;}
	.st16{fill:#CCE0FF;}
	.st17{fill:#383531;}
	.st18{fill:#757060;}
	.st19{fill:#D29F7E;}
	.st20{opacity:0.88;clip-path:url(#SVGID_00000121981296487260048200000007263075088362184377_);}
	.st21{fill:#322015;}
	.st22{fill:#1B1C1E;}
	.st23{fill:none;stroke:#1B1C1E;stroke-width:1.2604;stroke-linecap:round;stroke-linejoin:round;stroke-miterlimit:10;}
	.st24{opacity:0.84;clip-path:url(#SVGID_00000011736443993533029920000011435329008948790165_);}
	.st25{clip-path:url(#SVGID_00000018235618123773175370000006812768610165680299_);}
	.st26{fill:none;stroke:#1B1C1E;stroke-width:1.2604;stroke-linecap:round;stroke-linejoin:round;}
	.st27{fill:#D1493B;}
	.st28{fill:#FFAE1F;}
	.st29{opacity:0.88;clip-path:url(#SVGID_00000085242638303866122230000002549252425310453153_);}
	.st30{opacity:0.7;clip-path:url(#SVGID_00000024697371446466017860000016406024458507228555_);}
	.st31{fill:#2C2C2D;}
	.st32{opacity:0.87;clip-path:url(#SVGID_00000103236621329892619860000016469417833141931921_);}
	.st33{fill:#080809;}
	.st34{opacity:0.7;clip-path:url(#SVGID_00000126299381036226462550000014098535477593362573_);}
	.st35{fill:#FBAF5E;}
	.st36{opacity:0.62;clip-path:url(#SVGID_00000029728391564692554860000016019594035668306110_);}
	.st37{fill:#3E240C;}
	.st38{fill:#BC763C;}
	.st39{opacity:0.62;clip-path:url(#SVGID_00000092440908732633983000000005366187752115696776_);}
	.st40{opacity:0.62;clip-path:url(#SVGID_00000178207134427220409300000010975972343453898425_);}
	.st41{fill:#967258;}
	.st42{opacity:0.53;clip-path:url(#SVGID_00000068669431838555134610000017302666901572544950_);}
	.st43{opacity:0.73;clip-path:url(#SVGID_00000041277883535936701520000005055868894249673611_);}
	.st44{fill:none;stroke:#1B1C1E;stroke-width:1.1311;stroke-linecap:round;stroke-linejoin:round;stroke-miterlimit:10;}
	.st45{fill:#3D291C;}
	.st46{fill:#3D291C;stroke:#967258;stroke-width:1.2604;stroke-linecap:round;stroke-linejoin:round;stroke-miterlimit:10;}
	.st47{fill:#D6D4C8;}
	.st48{fill:#1B1C1E;stroke:#967258;stroke-width:1.2604;stroke-linecap:round;stroke-linejoin:round;stroke-miterlimit:10;}
	.st49{opacity:0.52;clip-path:url(#SVGID_00000116921654742443113660000006574647415909197996_);}
	.st50{fill:#B37D4F;}
	.st51{opacity:0.88;clip-path:url(#SVGID_00000178903885597273378550000013202052920768592814_);}
	.st52{fill:#343434;}
	.st53{fill:#BC6464;}
	.st54{opacity:0.88;clip-path:url(#SVGID_00000031921540217712778640000000160767804033682827_);}
	.st55{fill:#1B1C1E;stroke:#1B1C1E;stroke-width:1.1485;stroke-linecap:round;stroke-linejoin:round;stroke-miterlimit:10;}
	.st56{fill:#8C7265;}
	.st57{opacity:0.88;clip-path:url(#SVGID_00000035514611630385733640000000936959499929853836_);}
	.st58{fill:#1B1C1E;stroke:#1B1C1E;stroke-width:1.3664;stroke-linecap:round;stroke-linejoin:round;stroke-miterlimit:10;}
	.st59{opacity:0.88;clip-path:url(#SVGID_00000002362747319985681370000006220246798656976062_);}
	.st60{fill:none;stroke:#1B1C1E;stroke-width:1.3664;stroke-linecap:round;stroke-linejoin:round;stroke-miterlimit:10;}
	.st61{opacity:0.88;clip-path:url(#SVGID_00000058551498485019897020000003950963427534274492_);}
	.st62{opacity:0.88;clip-path:url(#SVGID_00000143615350225098572090000014181859612285879448_);}
	.st63{fill:#5F6C72;}
	.st64{fill:#1B1C1E;stroke:#1B1C1E;stroke-width:1.5329;stroke-linecap:round;stroke-linejoin:round;stroke-miterlimit:10;}
	.st65{opacity:0.88;clip-path:url(#SVGID_00000047050048074494911660000015444304429703008417_);}
	.st66{clip-path:url(#SVGID_00000143610862811143931990000004189563306525747624_);}
	.st67{opacity:0.58;clip-path:url(#SVGID_00000175320909932278876780000004611797762455884425_);}
	.st68{opacity:0.58;clip-path:url(#SVGID_00000115502998478742269500000002111577476007895694_);}
	.st69{fill:#1B1C1E;stroke:#1B1C1E;stroke-width:1.818;stroke-linecap:round;stroke-linejoin:round;stroke-miterlimit:10;}
	.st70{fill:#FFFFFF;}
	.st71{fill:#CC813E;}
	.st72{opacity:0.58;clip-path:url(#SVGID_00000079468923032957011380000009188342073227819912_);}
	.st73{fill:#AA8C7D;}
	.st74{opacity:0.88;clip-path:url(#SVGID_00000090270118946085899270000000222799876607687603_);}
	.st75{opacity:0.88;clip-path:url(#SVGID_00000100365011023006270970000004741619893676964525_);}
	.st76{fill:#1B1C1E;stroke:#1B1C1E;stroke-width:1.2604;stroke-linecap:round;stroke-linejoin:round;stroke-miterlimit:10;}
	.st77{opacity:0.88;clip-path:url(#SVGID_00000173868115238600658570000009853003193485127830_);}
	.st78{opacity:0.88;clip-path:url(#SVGID_00000105427217484366720210000008195630704229014153_);}
	.st79{opacity:0.88;clip-path:url(#SVGID_00000094619850076623297450000002051034221817915788_);}
	.st80{fill:none;stroke:#1B1C1E;stroke-miterlimit:10;}
	.st81{fill:#B8BDC4;}
	.st82{fill:#B4D3CD;}
	.st83{opacity:0.88;clip-path:url(#SVGID_00000057865380610605591340000011906007157451502244_);}
	.st84{opacity:0.88;clip-path:url(#SVGID_00000004542374640190740980000009730651261819728272_);}
	.st85{fill:#EFBE9D;}
	.st86{opacity:0.88;clip-path:url(#SVGID_00000176035799217895733380000011082584931440378757_);}
	.st87{fill:#443730;}
	.st88{opacity:0.88;clip-path:url(#SVGID_00000008145054866087021700000006571642669869303976_);}
	.st89{opacity:0.88;clip-path:url(#SVGID_00000166651239081518687060000001661235452089245579_);}
	.st90{fill:#E2AF8D;}
	.st91{fill:none;stroke:#1B1C1E;stroke-linecap:round;stroke-linejoin:round;stroke-miterlimit:10;}
	.st92{fill:#1B1C1E;stroke:#1B1C1E;stroke-miterlimit:10;}
	.st93{fill:#FCEA9F;}
	.st94{fill:#F6EBEF;}
	.st95{fill:#D4DADD;}
	.st96{opacity:0.61;clip-path:url(#SVGID_00000093884928766997048880000010222438886180938170_);}
	.st97{fill:#353737;}
	.st98{fill:#B3B9BC;}
	.st99{opacity:0.61;clip-path:url(#SVGID_00000175290615431018380600000018100313831430211004_);}
	.st100{opacity:0.61;clip-path:url(#SVGID_00000028327154754048478470000009592097168377908148_);}
	.st101{fill:#B3B9BC;stroke:#1B1C1E;stroke-miterlimit:10;}
	.st102{fill:#CCE2CF;stroke:#1B1C1E;stroke-miterlimit:10;}
	.st103{fill:#EAD6DE;}
	.st104{fill:#1B1C1E;stroke:#1B1C1E;stroke-width:1.0185;stroke-miterlimit:10;}
	.st105{fill:none;stroke:#1B1C1E;stroke-width:1.0185;stroke-miterlimit:10;}
	.st106{fill:#FBAF5E;stroke:#1B1C1E;stroke-miterlimit:10;}
	.st107{fill:#513F3B;}
	.st108{opacity:0.88;clip-path:url(#SVGID_00000065043373259725922570000011722990447820215954_);}
	.st109{opacity:0.88;clip-path:url(#SVGID_00000097458414765790621770000005938668364246782892_);}
	.st110{fill:#8B2403;}
	.st111{fill:#EBDAD2;}
	.st112{fill:#A84E39;}
	.st113{fill:#751A01;}
	.st114{fill:#EBDAD2;stroke:#1B1C1E;stroke-miterlimit:10;}
	.st115{opacity:0.78;clip-path:url(#SVGID_00000177448902338569553770000009863459716904236416_);}
	.st116{fill:#290B01;}
	.st117{opacity:0.78;clip-path:url(#SVGID_00000070828979655570836850000015617848975170586036_);}
	.st118{opacity:0.78;clip-path:url(#SVGID_00000140725211599156833660000001699111031860461753_);}
	.st119{opacity:0.78;clip-path:url(#SVGID_00000049939487509611033040000011800439485717540737_);}
	.st120{fill:#030203;}
	.st121{fill:#86889A;}
	.st122{fill:#0B060A;}
	.st123{fill:#736E72;}
	.st124{fill:#9E9AA0;}
	.st125{fill:#18172A;}
	.st126{fill:#3B4D84;}
	.st127{fill:#FFA3AC;}
	.st128{fill:none;stroke:#0B080B;stroke-width:1.2005;stroke-miterlimit:10;}
	.st129{fill:#E7E6E8;}
	.st130{fill:#0B080B;}
	.st131{fill:none;stroke:#1B1C1E;stroke-width:1.2005;stroke-linecap:round;stroke-linejoin:round;stroke-miterlimit:10;}
	.st132{opacity:0.78;clip-path:url(#SVGID_00000091719939610246093380000002992837323659736724_);}
	.st133{opacity:0.78;clip-path:url(#SVGID_00000056402262875167513290000005810671271256305809_);}
	.st134{fill:#89745E;}
	.st135{opacity:0.78;clip-path:url(#SVGID_00000043423365506379573970000008188683282057842824_);}
	.st136{fill:#060606;}
	.st137{fill:#4D483E;}
	.st138{fill:#FF8A00;}
	.st139{fill:#50483F;}
	.st140{fill:#131313;}
	.st141{fill:#E8DBCD;}
	.st142{opacity:0.78;clip-path:url(#SVGID_00000049904213360615302360000011757051115127447184_);}
	.st143{opacity:0.78;clip-path:url(#SVGID_00000052097238035645507740000014689738731860372895_);}
	.st144{fill:#191212;}
	.st145{fill:#6C5353;}
	.st146{opacity:0.78;clip-path:url(#SVGID_00000157293898000064512160000006597244703149429910_);}
	.st147{fill:#B3B3B3;}
	.st148{fill:#FF9F2C;}
	.st149{fill:none;stroke:#343434;stroke-miterlimit:10;}
	.st150{fill:#21262A;}
	.st151{fill:#563D3D;}
	.st152{opacity:0.78;clip-path:url(#SVGID_00000136389641875813034520000007945463729775332748_);}
	.st153{fill:#181716;}
	.st154{fill:#706153;}
	.st155{fill:none;stroke:#1B1C1E;stroke-width:0.8477;stroke-miterlimit:10;}
	.st156{fill:#FCBD30;}
	.st157{fill:#E8D9CD;}
	.st158{fill:#534E4A;}
	.st159{opacity:0.78;clip-path:url(#SVGID_00000015314759493805913990000010580106111988149688_);}
	.st160{fill:#7DA050;}
	.st161{opacity:0.78;clip-path:url(#SVGID_00000170995247221863211880000003397591503368291230_);}
	.st162{opacity:0.78;clip-path:url(#SVGID_00000142873547773361354360000006608035302048836256_);}
	.st163{opacity:0.78;clip-path:url(#SVGID_00000026152368616110234910000000743388360327963543_);}
	.st164{fill:#EFEECE;}
	.st165{opacity:0.78;clip-path:url(#SVGID_00000071522333805847410930000009459991589334228662_);}
	.st166{fill:#93543B;}
	.st167{fill:#FF510C;}
	.st168{opacity:0.78;clip-path:url(#SVGID_00000034074283980107737660000014689677332429570955_);}
	.st169{fill:#4B1804;}
	.st170{fill:#000A0E;}
	.st171{opacity:0.78;clip-path:url(#SVGID_00000138550570859736855370000012785212643365992066_);}
	.st172{opacity:0.78;clip-path:url(#SVGID_00000047022977074229657850000000038802906389705136_);}
	.st173{fill:#F9C8A7;}
	.st174{fill:#1B1C1E;stroke:#1B1C1E;stroke-width:1.3738;stroke-miterlimit:10;}
	.st175{fill:none;stroke:#1B1C1E;stroke-width:1.3;stroke-miterlimit:10;}
	.st176{fill:#FFCB6E;}
	.st177{fill:#CECECE;}
	.st178{fill:none;stroke:#1B1C1E;stroke-width:1.3037;stroke-miterlimit:10;}
	.st179{fill:#FFFFFF;stroke:#1B1C1E;stroke-width:1.3;stroke-miterlimit:10;}
	.st180{opacity:0.78;clip-path:url(#SVGID_00000157294400846500883480000016957747199914120336_);}
	.st181{fill:none;stroke:#1B1C1E;stroke-width:1.3738;stroke-miterlimit:10;}
	.st182{opacity:0.45;clip-path:url(#SVGID_00000025420550471732040530000015972830307849993657_);}
	.st183{opacity:0.45;clip-path:url(#SVGID_00000140730480131338364310000002057694926621860256_);}
	.st184{opacity:0.45;clip-path:url(#SVGID_00000179615680224903122770000001922943262222017210_);}
	.st185{opacity:0.45;clip-path:url(#SVGID_00000050626231501171313810000011071887611267388067_);}
	.st186{fill:none;stroke:#1B1C1E;stroke-width:1.3738;stroke-linecap:round;stroke-linejoin:round;stroke-miterlimit:10;}
	.st187{fill:#FFB192;}
	.st188{fill:#EB8226;}
	.st189{fill:#F7EDE1;}
	.st190{opacity:0.78;clip-path:url(#SVGID_00000029728088731637128720000013200811591170371467_);}
	.st191{opacity:0.78;clip-path:url(#SVGID_00000129890637368433033250000012695128809720189352_);}
	.st192{opacity:0.5;clip-path:url(#SVGID_00000003798172039802408220000016935929031364338365_);}
	.st193{opacity:0.5;clip-path:url(#SVGID_00000111179947678066193330000017409057409993033143_);}
	.st194{fill:none;stroke:#06002C;stroke-width:1.3038;stroke-miterlimit:10;}
	.st195{fill:#F7A9B4;}
	.st196{fill:#06002C;}
	.st197{opacity:0.5;clip-path:url(#SVGID_00000048503548661341974300000007621758922682023584_);}
	.st198{fill:none;stroke:#06002C;stroke-width:1.3038;stroke-linecap:round;stroke-linejoin:round;stroke-miterlimit:10;}
	.st199{fill:#9BBEDC;}
	.st200{opacity:0.88;clip-path:url(#SVGID_00000003063504232894159640000009324672612749628580_);}
	.st201{opacity:0.88;clip-path:url(#SVGID_00000048469934353363406950000004274739832441899905_);}
</style>
<g id="Background">
	<rect x="-3.2" y="-2.4" class="st18" width="510" height="382.5"/>
</g>
<g id="Illustration">
	<g>
		<path class="st22" d="M190.6,295.1c0,0-6.1,2.1,10.6,2.8s105,1,114,0c9.1-1,26.8-0.4,3.3-2.8c-23.5-2.4-47.6-0.9-71.2-2.4
			S194.1,292.7,190.6,295.1z"/>
		<g>
			<path class="st35" d="M305.4,225.1c0,0,7.4-1.9,7.8-10.1c0,0,7.8,4.1,8.1,14.8c0.3,10.7-8,15.3-8,15.3S302,238,305.4,225.1z"/>
			<g>
				<defs>
					<path id="SVGID_00000075851481843212030990000016759761471447853501_" d="M305.4,225.1c0,0,7.4-1.9,7.8-10.1
						c0,0,7.8,4.1,8.1,14.8c0.3,10.7-8,15.3-8,15.3S302,238,305.4,225.1z"/>
				</defs>
				<clipPath id="SVGID_00000176016438864661232710000017674412303500763269_">
					<use xlink:href="#SVGID_00000075851481843212030990000016759761471447853501_"  style="overflow:visible;"/>
				</clipPath>
				<g style="opacity:0.62;clip-path:url(#SVGID_00000176016438864661232710000017674412303500763269_);">
					<g>
						<g>
							<g>
								<g>
									<path class="st37" d="M311.6,236.1c0.1,0,0.2,0,0.3,0C311.9,236,311.9,236,311.6,236.1z"/>
									<path class="st37" d="M310.5,231.9C310.5,231.9,310.5,231.9,310.5,231.9L310.5,231.9L310.5,231.9z"/>
									<path class="st37" d="M310.5,232l-0.3,0.2C310.3,232.1,310.4,232.1,310.5,232z"/>
									<path class="st37" d="M314.2,235.7c0.1,0,0.2,0,0.5,0L314.2,235.7z"/>
									<path class="st37" d="M315.5,234.7c0.1,0,0.1-0.1,0.2-0.1C315.6,234.7,315.6,234.7,315.5,234.7z"/>
									<path class="st37" d="M311.4,239.8c-0.1,0-0.1,0-0.1,0C311.3,239.8,311.3,239.8,311.4,239.8z"/>
									<path class="st37" d="M312,240C312,240,312,240,312,240L312,240C312.2,240,312.1,240,312,240z"/>
									<path class="st37" d="M312.5,239.9L312.5,239.9C312.5,239.9,312.5,239.9,312.5,239.9z"/>
									<path class="st37" d="M316.9,242.1l0.4,0C317.1,242.1,317,242.1,316.9,242.1z"/>
									<path class="st37" d="M310.9,239.7c0.1,0,0.2,0,0.3,0C311.1,239.7,311.1,239.7,310.9,239.7z"/>
									<path class="st37" d="M311.5,236.1c0.1,0,0.1,0,0.2,0C311.6,236.1,311.5,236.1,311.5,236.1z"/>
									<path class="st37" d="M314.2,236L314.2,236C314.2,236,314.2,236,314.2,236z"/>
									<path class="st37" d="M309.4,230.7c-0.1,0-0.1,0-0.2,0C309.2,230.8,309.3,230.8,309.4,230.7z"/>
									<path class="st37" d="M312.1,238.7c1.1-0.2,0.1,0.1,1.2,0c-0.3-0.1-0.4-0.1,0.1-0.2c0.6,0,0,0.2,0.9,0.1l-0.4-0.1
										c0.5-0.1,1.2-0.1,1.1-0.2c-1.3,0.1,0.4-0.5,0.2-0.6l0.1,0l0.6-0.3c0,0,0,0,0.1,0c-0.1,0-0.1,0-0.2,0c0.6-0.2,1-0.4,0.8-0.6
										c-0.7,0.1-0.4-0.5-1-0.4c0.2,0,0.2,0.1,0.1,0.2l-0.9,0.2c0-0.2,0.8-0.2,0.2-0.2c-1.2,0.3,0,0.2-0.1,0.3c-0.3,0-0.5,0-0.7,0
										c0,0.2-0.4,0.5,0.9,0.4c-0.2,0.1-0.7,0.2-0.9,0.1c0.7,0-0.6,0.2,0,0.2c-1.1,0.1-0.6-0.2-1.3-0.2c0.8-0.4,0-0.4-0.3-0.6
										c0.8-0.2,1.5-0.2,2-0.4c0.5-0.3-0.5-0.1-1-0.1c0.2-0.2,1.3-0.4,1.3-0.6l0.6,0c1.1-0.5-0.5,0-0.3-0.2
										c-0.3,0.1-0.6,0.2-0.5,0.3c-0.4,0.1-0.6,0.1-0.7,0l0,0c-0.6,0.1-1.1,0.3-0.9,0c0.7-0.1,0.5-0.3,0.8-0.4l0.2,0
										c-0.3,0-0.2-0.2-0.3-0.2l0.2,0c-0.3,0-1.1,0.2-1,0.1c0.3-0.1,1.3-0.3,1.1-0.3c0.5-0.1,0.6,0,0.5,0.2c0.1-0.2,0.9-0.5,1-0.4
										c0.6-0.2-0.3-0.1-0.1-0.2c-0.2,0.1-0.4,0.1-0.6,0.2c0.8-0.3,0-0.3-0.6-0.1l0.5,0c-0.7,0.2-1.2,0.2-1.5,0.4
										c1-0.4-0.6-0.2,0.2-0.6l-0.5,0.3c0.2-0.4-1.1-0.2-1.4-0.3c0.4-0.1,1.5-0.5,1.2-0.2c0.1-0.3,1.1-0.5,1.6-0.9
										c0.3-0.4-1.1,0.3-1.5,0.4l0.3,0.1c-1.4,0.4,0-0.6-0.9-0.5c0.3-0.2,0.2,0,0.4-0.1c0.6-0.4-0.2-0.1-0.5,0
										c0.1-0.2,0.3-0.5,1.1-0.8c0.1-0.2-0.5,0.3-0.8,0.3l0.2-0.1l-1,0.3c0.2-0.2,0.5-0.6,1.3-1.1c-0.3-0.2-1.8,0.9-2.2,0.9
										c0.3-0.3,0.6-0.3,0.9-0.5l-0.2-0.1c0.9-0.4,0.6-0.1,1.6-0.6c-1.1,0.4-0.4,0-1.2,0.2l-0.1,0.1c-0.7,0.3-0.4-0.2-0.6-0.2
										c0.4-0.2,0.6-0.1,0.8-0.1c0.3-0.3-0.3-0.5-1.2,0c0.1-0.2,0.3-0.5,0.8-0.7c0-0.3-1.3,0.7-1.2,0.4l0.6-0.5
										c0.7-0.9-1.2,0.2-0.5-0.7l-0.8,0.6c0.3-0.3,0.4-0.5,0.6-0.8l0.3-0.1c0.6-0.6-0.7,0.4-0.3-0.1c-0.2,0.2-0.7,0.7-0.9,0.9
										c0.8,0.1,0,1.3,1.1,1.2c0.1-0.1,0.2-0.2,0.3-0.3c-0.2,0.2,0.1,0.1-0.3,0.4l-0.1,0c0.3,0-0.7,0.7-0.6,0.8
										c0.6-0.3-0.1,0.4,0.8-0.3l-0.6,0.4c0.4-0.2,0.8-0.5,1-0.5c0,0.1-0.4,0.4-0.7,0.4c-0.2,0.5,0.1,0.8,0.6,1l-0.5,0.1
										c-0.2,0.2,1-0.1-0.3,0.4c0.6-0.1-0.2,0.6,1.1,0c-1.2,0.7-0.4,0.6-0.1,0.8c1.1-0.5,0.4,0.1,0.9-0.1c-0.9,0.3-1,0.1-1.5,0.4
										c1.4-0.3-0.8,1,1.5,0.3c-0.1,0.1-0.2,0.1-0.3,0.1c0,0-0.4,0.2-0.4,0.3c0.4-0.1,0.6-0.3,0.7-0.2c-0.1,0.1-0.7,0.3-1,0.4
										c0.6,0,0.9,0.2,1.8,0c-0.2,0.1-0.7,0.3-0.9,0.3c0.8,0.1-0.1,0.3,0.4,0.5c-0.1-0.1-1,0.2-0.6-0.1c-1.3,0.4,0.3,0.4-0.3,0.7
										l0.9-0.1c0.2,0.1-0.6,0.3-1,0.2c-0.5,0.3,0,0.3,0.1,0.5c-0.1,0-0.3,0-0.2,0l0,0.2c0.2,0,0.7,0,1.2,0
										C312.1,238.9,311.8,238.9,312.1,238.7z"/>
									<path class="st37" d="M312.6,238.8l0.1,0L312.6,238.8C312.6,238.8,312.6,238.8,312.6,238.8z"/>
									<path class="st37" d="M315.7,235.5c-0.2,0.1-0.3,0.1-0.3,0.2C315.5,235.6,315.6,235.5,315.7,235.5z"/>
									<path class="st37" d="M314.2,241.4c1.3,0-0.2-0.2,0.1-0.3c0.2,0.1,1,0.1,1.3,0.1c-1.7-0.2,0.3-0.2,0-0.5
										c0.6,0,0.6,0.1,1.2,0.2c-0.4-0.2-0.7-0.4-1.6-0.5c0-0.3,0.3-0.5,0.1-0.6c0.4,0.2,0.9,0,1.8,0.1c-1.1-0.2-2.4-0.6-3.8-0.7
										c1-0.1,1.1-0.2,2.1-0.2c0.6-0.4-1,0-0.7-0.3l-0.2,0.2c-0.3-0.1-1.3,0-2,0l0.2,0.3c-0.7,0.1-0.6-0.1-0.8-0.2
										c-0.9,0-0.6,0.2-1.3,0.3c0.6,0,0.4,0.1,0.7,0.2l-0.4,0c-0.4,0.2,0.6,0.2,0.6,0.3c-0.1,0-0.2,0-0.3,0c0.4,0,1,0,1.1,0.1
										l0-0.1c0.9,0.1,1.5,0.3,2.5,0.1l-0.3,0.4c-1,0-2.5,0-2.7-0.2l-0.4,0c-0.6,0.1,0.8,0.3,1.6,0.2c2.4,0.1,0.1,0.5,1.1,0.8
										c-0.7,0-0.9-0.1-1.4-0.2c-0.1-0.1-0.1-0.1,0.5-0.1c-0.4-0.3-2.1,0.1-1.9-0.3c0.3-0.2,1.1,0.2,1.1-0.1l-1.8-0.1
										c0.1,0.1,0.4,0.2,0.6,0.4c0.6,0.3,0.6,0.6,0.5,0.8c-0.1,0.2-0.4,0.3-0.4,0.3c0.1,0.9,0.2,1.9,0.1,2.9
										c0.2,0.4,0.1,0.4,1.7,1.1c0.4,0.1,0.3-0.2,0.9,0.1c-0.6-0.2-0.9-0.5-0.8-0.6c0.6,0.2,0.3,0.2,0.4,0.2l0.1,0
										c0.3,0.1,0.5,0.2,0.5,0.3c1,0.1,0.9-0.4-0.3-0.9c0.7,0,1,0.4,1.4,0.6c0.6-0.5,0.6-1,0.8-1.6c-1.1-0.2-0.7-0.2-1.5-0.4
										l0.4,0c-0.2,0-1-0.2-1.2-0.1c1-0.2-1.5-0.6-2-0.9l0.6,0.1c-0.1-0.2-0.1-0.2-0.4-0.4c1.2-0.2,0.2,0.3,1.6,0.3l-0.2-0.1
										c0.6,0.1,1.6,0.3,2,0.4c-0.9-0.4,0.4-0.4-0.3-0.8c0.7,0.1,1.2,0.4,1.2,0.5c0.1-0.1-0.4-0.4,0.2-0.3l-0.8-0.1
										c-0.1-0.2,0.8,0.1,1.3,0C317.3,241.5,314.7,241.8,314.2,241.4z"/>
									<path class="st37" d="M314.3,236.8c-0.1,0.1,0,0.1,0.1,0.1C314.4,236.9,314.4,236.8,314.3,236.8z"/>
									<path class="st37" d="M316,237.4c0.1,0,0.2,0,0.3,0C316.3,237.4,316.2,237.4,316,237.4z"/>
									<path class="st37" d="M317.2,237.3c-0.4,0.1-0.4,0-0.9,0.1C316.6,237.4,316.6,237.6,317.2,237.3z"/>
									<path class="st37" d="M308.2,223.7c-0.2,0.2-0.4,0.3-0.5,0.5l0.3-0.1L308.2,223.7z"/>
									<path class="st37" d="M307.9,224.7l-0.1,0.4l0.8-0.8C308.5,224.1,308.1,224.8,307.9,224.7z"/>
									<path class="st37" d="M307.9,225.5l-0.2,0.2C307.8,225.6,307.9,225.5,307.9,225.5z"/>
									<path class="st37" d="M308.2,225.1l0.6-0.6l-0.6,0.3L308.2,225.1c-0.2,0.1-0.2,0.3-0.3,0.4l0.4-0.4
										C308.3,225.1,308.2,225.2,308.2,225.1z"/>
									<path class="st37" d="M308.4,225.2c0-0.1,0.1-0.1,0.1-0.2C308.5,225.1,308.4,225.2,308.4,225.2z"/>
									<path class="st37" d="M307.8,226.7c0.2-0.3,0.5-0.5,0.8-0.8c0.1-0.4-0.7,0.6-0.6,0.2c0.6-0.3,0.2-0.4,0.5-0.8
										C308,225.8,307.7,226.3,307.8,226.7l0.3-0.5C308.1,226.3,307.9,226.5,307.8,226.7z"/>
									<path class="st37" d="M309.3,226.3l-0.6,0.5c0.2-0.3,0.1-0.4,0.6-1c-0.1,0-0.4,0.3-0.6,0.4c0.2-0.3,0.4-0.6,0-0.2
										c-0.1,0.6-0.3,0.7-0.2,1.1c-0.1,0.1-0.1,0.1-0.1,0l-0.1,0.4C308.8,226.8,309.1,226.9,309.3,226.3z"/>
									<path class="st37" d="M309.1,227c-0.1-0.1-0.7,0.4-1,0.8l0.6-0.2C308.7,227.5,308.6,227.5,309.1,227z"/>
									<path class="st37" d="M309.3,227.1c-0.2,0.3-0.8,1-0.2,0.5C308.9,227.6,309.8,226.8,309.3,227.1z"/>
									<path class="st37" d="M309.5,228.4l0.2-0.6c0.7-0.8,0.3-0.1,0.7-0.4c0-0.3-0.2,0-0.8,0.3c0-0.1-0.5,0.2-0.7,0.3
										C309.7,227.8,308,229.5,309.5,228.4z"/>
									<polygon class="st37" points="309.8,227.3 309.5,227.6 309.8,227.4 									"/>
									<path class="st37" d="M309.2,229.7c-0.8,0.9,0.7-0.2,0.5,0.3c-0.1,0-0.1,0.1-0.3,0.2l0.2,0l-0.2,0.2
										c0.5-0.5,0.9-0.5,1.4-0.8c0.5-0.6-0.7,0.5-0.2-0.2c0.3-0.2,0.7-0.5,0.9-0.6c-0.3,0.1-0.7,0.4-1,0.6c-0.1,0,0.2-0.3,0.4-0.5
										c-0.4,0.2-1.2,0.9-1.1,0.6c0.4-0.5,0.8-0.6,0.5-0.6c-0.8,0.8,0-0.3-0.6,0.2c0.1-0.3,0.5-0.8,0.8-1.1
										c-0.7,0.6-1.3,1-1.6,1.1l0.7-0.3l-0.7,0.8C309.2,229.3,309.2,229.5,309.2,229.7L309.2,229.7z"/>
									<path class="st37" d="M311.4,228.8c0.1,0,0.1-0.1,0.2-0.1C311.6,228.7,311.5,228.7,311.4,228.8z"/>
									<polygon class="st37" points="310.5,227.8 310.7,227.7 310.9,227.4 									"/>
									<path class="st37" d="M312.1,228.4c0-0.1-0.3,0.2-0.3,0.2l0.4-0.3L312.1,228.4z"/>
									<polygon class="st37" points="311.6,229 311.2,229.4 311.6,229.2 									"/>
									<path class="st37" d="M313.2,232.4c0.3-0.3-0.4,0.1-0.8,0.3C312.4,233,313,232.4,313.2,232.4z"/>
									<path class="st37" d="M315,234.3c0.4-0.3-0.3-0.2-0.3-0.3C314.4,234.2,314.7,234.3,315,234.3z"/>
									<path class="st37" d="M317.7,234.6c-0.2,0-0.4,0-0.4,0.1l-1.3,0.2C315.6,235.3,317.2,234.8,317.7,234.6z"/>
									<path class="st37" d="M318.2,235.9l-0.5-0.1l0,0.1c-0.5,0.1-0.8,0.1-1.2,0.1C316.8,236.1,317.3,236.1,318.2,235.9z"/>
									<path class="st37" d="M316.2,235.9C316.2,235.9,316.3,235.9,316.2,235.9C316.5,235.9,316.6,235.8,316.2,235.9z"/>
									<path class="st37" d="M316.3,236c0.1,0,0.1,0,0.1,0C316.4,236,316.4,235.9,316.3,236C316.2,236,316.1,236,316.3,236z"/>
									<path class="st37" d="M317.6,236.2l0.2,0.3l0.2-0.2C317.3,236.4,318.5,236,317.6,236.2z"/>
									<path class="st37" d="M317.3,238.1l-0.8,0.1c-0.1,0.2,1.5,0.3,0.3,0.6c0.5-0.1,0.9,0.1,1.1-0.2
										C317.2,238.6,317.1,238.3,317.3,238.1z"/>
									<path class="st37" d="M316.3,239.1c-0.2,0-0.4,0-0.6,0.1c-0.1,0.1,0.3,0.1,0.6,0.1C315.2,239.3,316.9,239.1,316.3,239.1z"
										/>
									<path class="st37" d="M316.4,240.1c0-0.1-0.1-0.1-0.3,0c0.1,0.2,0.9,0.1,1.4,0.2C318,240,316.8,239.9,316.4,240.1z"/>
									<path class="st37" d="M310.7,241.3c0.7,0,0.6-0.1,0.3-0.1C311.2,241.2,311,241.3,310.7,241.3z"/>
									<polygon class="st37" points="316.2,241.6 316.3,241.5 315.3,241.4 									"/>
									<polygon class="st37" points="316.6,242.7 317.3,242.9 317.2,242.7 									"/>
									<path class="st37" d="M316.4,242.9l0,0.2l0.3,0C316.9,243,316.4,243,316.4,242.9z"/>
									<path class="st37" d="M316.5,243.5c-0.1,0,0.1,0,0.2,0l-0.4-0.2L316.5,243.5z"/>
									<path class="st37" d="M311.9,245.2c-0.6-0.2-0.3,0-0.4-0.1C311.6,245.2,312.5,245.4,311.9,245.2z"/>
								</g>
							</g>
						</g>
					</g>
				</g>
			</g>
			<path class="st35" d="M197.3,185.6c0,0-1.6,43.1,2.1,91.5c0,0-6.2,7.7-2.6,18c0,0,22.3,0,25.2,0c0,0,6-11.3,7-26.8h19.8
				c0,0,7.4,10.6,12.6,19.5c1.6,2.7,2.4,6.3,3.6,7.3c0,0,42.9,0,43.6,0c0.7,0,8.1-25,6.5-46.7c-0.1-1.1-0.2-2.2-0.3-3.3
				c-0.6-4.6-1.7-8.4-3.1-11.8c-1.4-3.2-3-6-5-8.6c-4.6-6.2-10.6-10.9-16.6-16.7c-8.9-8.6-15.8-26.1-15.8-26.1s2.8-5.8-27.3-7.2
				C216.9,173.4,198.8,177.7,197.3,185.6z"/>
			<line class="st23" x1="248.8" y1="268.3" x2="245.9" y2="263.9"/>
			<path class="st0" d="M267.7,226.9c-5.9,12.1-12.3,13.4-12.3,13.4c-7.5,9-11,9.2-11,9.2c-4,5.3-11.7,10.6-11.7,10.6
				c-5.8-2.2-11.4-11.2-11.4-11.2c-5-0.9-9.4-11-9.4-11c-9.7-5.5-13.8-19.9-15.1-26c-0.1-16,0.3-26.2,0.3-26.2
				c1.6-7.8,19.6-12.2,49.7-10.8c30.1,1.4,27.3,7.2,27.3,7.2s1.1,2.7,2.9,6.5C283.7,214.4,267.7,226.9,267.7,226.9z"/>
			<path class="st27" d="M274.2,181.9c1.7,4.4,0.8,9.4-2.5,12.8c-8.1,8.4-24.4,22-43.3,19.3c-9.9-1.4-17.2-5.3-22.3-9.3
				c-5.9-4.6-9.1-11.7-8.9-19.2l0,0c1.6-7.8,19.6-12.2,49.7-10.8C277,176.1,274.2,181.9,274.2,181.9
				C274.2,181.9,274.2,181.9,274.2,181.9z"/>
			<path class="st28" d="M238.1,210.5c0-4.8-3.9-8.6-8.6-8.6s-8.6,3.9-8.6,8.6c0,2.2,0.8,4.2,2.2,5.7c1.6,1.8,3.9,2.9,6.4,2.9
				C234.2,219.1,238.1,215.3,238.1,210.5z"/>
			<path class="st23" d="M223,216.2c1.6,1.8,3.9,2.9,6.4,2.9c4.8,0,8.6-3.9,8.6-8.6"/>
			<path class="st35" d="M250,126.6c0,0,9.9-17.6,13.6-30.5c0.7-2.4,3.6-3.2,5.5-1.5c7.2,6.7,19.3,23.9,2.7,54.8
				C271.9,149.4,248.9,140.8,250,126.6z"/>
			<path class="st38" d="M271.2,143.3c-1.5-3.2-3.4-6.4-6.1-9.1c-3-3-3.7-7.6-2.1-11.5c2.8-6.6,5.2-14.5,6.3-18.3
				c0.3-1,1.6-1.2,2.2-0.3C283,120.6,271.2,143.3,271.2,143.3z"/>
			<path class="st38" d="M271.2,143.3c-1,2.1-17.5-4.5-12.1-12.7c0.1-0.2,0.3-0.5,0.5-0.7C265.3,133.1,268.8,138.1,271.2,143.3z"/>
			<path class="st0" d="M280.9,172.8c-6.4,11.9-18.1,20.7-28.7,26.8c-14.2,8.1-31.9,6.7-44.5-3.7c-16.9-13.9-21.3-28-19.7-29.1
				c0.7-0.5,1.9-2.8,3.2-5.6c0,0,4.9-0.6,13.9,4.4c8.9,4.9,15.5,1.1,17.2-15.3c1.9-19.4,5.2-24.7,5.2-24.7c3.1-0.3,6.9-0.5,10.9-0.3
				c0,0-6.9,27.6,1,39.6c5.5,8.4,17,2.8,24.1-1c7-3.7,12.6-4,12.6-4c0.2,0.6,0.3,1.2,0.4,1.6C278,166.8,280.9,172.8,280.9,172.8z"/>
			<path class="st35" d="M222.3,126.4c1.4-0.4,3.1-0.6,5.2-0.9c0,0-3.3,5.3-5.2,24.7c-1.6,16.3-8.2,20.2-17.2,15.3
				c-8.9-5-13.9-4.4-13.9-4.4c2.6-5.9,5.6-14.2,5.6-14.2c-13-28.9,0.7-45.6,8.8-52.4c2.1-1.7,5.3-0.5,5.7,2.2
				C213.7,112.4,222.3,126.4,222.3,126.4z"/>
			<path class="st35" d="M275.9,159.8c0,0-5.6,0.3-12.6,4c-7,3.7-18.5,9.4-24.1,1c-7.8-12-1-39.6-1-39.6c5.9,0.2,12.1,1,17.1,2.8
				c1.1,0.4,2.1,0.8,3.1,1.3c0.3,0.2,0.7,0.3,1,0.5c5.7,3.2,9.3,8.2,11.6,13.4c0.7,1.4,1.2,2.8,1.7,4.2
				C274.5,152.4,275.3,157,275.9,159.8z"/>
			<path class="st22" d="M231.6,174.3c-2.2,1.8-5.3,1.7-7.4-0.2c-1.9-1.7-4-4.2-4-7c0-3.2,14.7-3.3,15.1,0
				C235.8,169.9,233.7,172.5,231.6,174.3z"/>
			<path class="st22" d="M216.1,159.6c0,1.6-1.2,3.4-3,3.3c-1.9-0.2-2.7-1.9-2.7-3.4c0-1.6,1.4-2.8,2.9-2.8
				C214.9,156.7,216.1,158,216.1,159.6z"/>
			<path class="st22" d="M246.8,160.5c0,1.6-1.3,3.2-2.8,3.1c-1.6,0-2.9-1.7-2.8-3.3c0-1.6,1.4-2.8,2.9-2.8
				C245.6,157.6,246.8,158.9,246.8,160.5z"/>
			<path class="st38" d="M207,133.6c-3.7,3.1-6.5,6.9-8.2,9.7c-11.9-22.2,5.2-47.3,5.8-37.5c0.3,5.1,2.8,11.7,5,16.8
				C211.4,126.4,210.3,130.9,207,133.6z"/>
			<g>
				<defs>
					<path id="SVGID_00000107560864957244018810000017567177664766901416_" d="M229,268.3c-0.3,5.3-1.3,10.1-2.3,14.2
						c-11.1-7.2-13.8-20.2-14.3-23.4C219,269.2,229,268.3,229,268.3z"/>
				</defs>
				<clipPath id="SVGID_00000173856379059002492290000002955261249685728940_">
					<use xlink:href="#SVGID_00000107560864957244018810000017567177664766901416_"  style="overflow:visible;"/>
				</clipPath>
				<g style="opacity:0.62;clip-path:url(#SVGID_00000173856379059002492290000002955261249685728940_);">
					<g>
						<g>
							<g>
								<g>
									<path class="st37" d="M223,266.8c0,0.1-0.1,0.2-0.1,0.3C222.9,267.1,223,267,223,266.8z"/>
									<path class="st37" d="M219.2,265C219.2,265,219.2,265,219.2,265L219.2,265L219.2,265z"/>
									<path class="st37" d="M219.2,265l0.2-0.3C219.4,264.8,219.3,264.9,219.2,265z"/>
									<path class="st37" d="M222.2,269.3c0,0.1,0,0.2-0.1,0.5L222.2,269.3z"/>
									<path class="st37" d="M221.1,270.4c0,0.1-0.1,0.1-0.1,0.2C221,270.5,221,270.5,221.1,270.4z"/>
									<path class="st37" d="M226.7,267.2c0-0.1,0-0.1,0-0.1C226.8,267.1,226.7,267.1,226.7,267.2z"/>
									<path class="st37" d="M226.9,267.9C226.9,267.8,226.9,267.9,226.9,267.9L226.9,267.9C226.9,268.1,226.9,267.9,226.9,267.9z
										"/>
									<path class="st37" d="M226.6,268.3L226.6,268.3C226.7,268.4,226.6,268.4,226.6,268.3z"/>
									<path class="st37" d="M228,273.1l0,0.4C228,273.3,228,273.2,228,273.1z"/>
									<path class="st37" d="M226.8,266.7c0,0.1,0,0.2,0,0.3C226.8,266.9,226.7,266.9,226.8,266.7z"/>
									<path class="st37" d="M223.1,266.7c0,0.1-0.1,0.1-0.1,0.2C223.1,266.8,223.1,266.7,223.1,266.7z"/>
									<path class="st37" d="M222.5,269.4L222.5,269.4C222.5,269.3,222.5,269.3,222.5,269.4z"/>
									<path class="st37" d="M218.2,263.7c0-0.1,0-0.1,0-0.2C218.3,263.5,218.3,263.6,218.2,263.7z"/>
									<path class="st37" d="M225.5,267.7c-0.4,1.1,0.1,0.1-0.2,1.1c0-0.3,0-0.4-0.2,0.1c-0.1,0.6,0.2,0-0.1,0.9l0-0.4
										c-0.2,0.4-0.3,1.2-0.4,1.1c0.3-1.3-0.5,0.4-0.6,0.1l0,0.1l-0.4,0.5c0,0,0,0,0,0.1c0-0.1,0-0.1,0.1-0.2
										c-0.3,0.6-0.6,0.9-0.7,0.7c0.2-0.7-0.4-0.4-0.3-1.1c0,0.2,0,0.2,0.2,0.1l0.3-0.8c-0.1,0-0.3,0.8-0.3,0.2
										c0.5-1.1,0.2,0.1,0.4,0c0.1-0.3,0.1-0.5,0.1-0.7c0.2,0,0.5-0.3,0.3,0.9c0.1-0.2,0.3-0.7,0.3-0.8c-0.1,0.7,0.3-0.6,0.2,0
										c0.3-1.1-0.1-0.7,0-1.3c-0.5,0.8-0.4-0.1-0.5-0.3c-0.3,0.8-0.5,1.5-0.7,1.9c-0.4,0.4,0-0.5,0.1-1c-0.3,0.2-0.6,1.2-0.8,1.2
										l-0.1,0.5c-0.6,1,0.1-0.5-0.1-0.3c0.2-0.3,0.3-0.5,0.4-0.4c0.2-0.4,0.2-0.6,0.2-0.6l0,0c0.2-0.5,0.4-1.1,0.2-0.9
										c-0.2,0.7-0.3,0.4-0.5,0.7l0,0.1c0-0.3-0.1-0.2-0.1-0.4l-0.1,0.2c0.1-0.3,0.4-1.1,0.2-0.9c-0.2,0.3-0.5,1.2-0.5,1
										c-0.2,0.5-0.1,0.6,0.1,0.5c-0.2,0.1-0.7,0.8-0.5,0.9c-0.3,0.6,0-0.3-0.2-0.1c0.1-0.2,0.2-0.4,0.3-0.6
										c-0.4,0.8-0.3-0.1,0-0.6l-0.1,0.5c0.4-0.6,0.4-1.1,0.7-1.4c-0.6,0.9-0.1-0.7-0.6,0.1l0.3-0.5c-0.4,0.2,0-1.1,0-1.5
										c-0.1,0.3-0.8,1.4-0.4,1.1c-0.4,0-0.7,1-1.1,1.4c-0.4,0.2,0.5-1,0.7-1.4l0,0.3c0.6-1.3-0.6-0.1-0.4-1
										c-0.2,0.3-0.1,0.2-0.1,0.3c-0.5,0.5,0-0.2,0.1-0.5c-0.2,0-0.5,0.2-1,0.9c-0.3,0.1,0.3-0.4,0.4-0.7l-0.1,0.1l0.5-0.9
										c-0.3,0.2-0.7,0.4-1.3,1c-0.1-0.3,1.2-1.6,1.3-2c-0.4,0.3-0.4,0.5-0.6,0.8l-0.1-0.2c-0.6,0.8-0.2,0.5-0.9,1.4
										c0.6-1,0-0.4,0.4-1.2l0.1-0.1c0.5-0.7-0.1-0.4-0.1-0.6c-0.3,0.4-0.2,0.5-0.3,0.7c-0.4,0.2-0.4-0.3,0.2-1.2
										c-0.2,0.1-0.6,0.2-0.8,0.6c-0.3-0.1,1-1.1,0.6-1.1l-0.6,0.6c-1,0.6,0.4-1.1-0.6-0.6l0.7-0.7c-0.3,0.2-0.6,0.3-0.9,0.5
										l-0.2,0.3c-0.7,0.4,0.5-0.6,0-0.3c0.2-0.2,0.8-0.5,1-0.7c0,0.8,1.3,0.2,1,1.3c-0.1,0.1-0.2,0.2-0.3,0.3
										c0.2-0.1,0.1,0.1,0.5-0.3l0-0.1c0,0.3,0.9-0.5,0.9-0.5c-0.4,0.5,0.4,0-0.4,0.8l0.5-0.5c-0.2,0.3-0.6,0.7-0.7,0.9
										c0.1,0,0.4-0.3,0.5-0.6c0.5-0.1,0.8,0.3,0.9,0.8l0.2-0.5c0.2-0.2-0.3,0.9,0.4-0.2c-0.2,0.5,0.6-0.1-0.2,1.1
										c0.9-1.1,0.7-0.2,0.8,0.1c-0.7,1,0,0.4-0.2,0.9c0.5-0.8,0.3-0.9,0.6-1.4c-0.5,1.4,1.1-0.6,0,1.5c0.1-0.1,0.1-0.2,0.2-0.2
										c0,0,0.3-0.3,0.4-0.4c-0.2,0.4-0.3,0.5-0.3,0.7c0.1,0,0.4-0.6,0.5-0.9c-0.1,0.6,0.1,0.9-0.3,1.8c0.2-0.2,0.4-0.7,0.5-0.9
										c0,0.8,0.3,0,0.4,0.5c-0.1-0.1,0.3-0.9,0.1-0.6c0.6-1.2,0.3,0.4,0.8-0.2l-0.2,0.8c0.1,0.2,0.4-0.6,0.4-0.9
										c0.4-0.4,0.3,0.1,0.5,0.2c0-0.1,0.1-0.3,0-0.2l0.2,0c0,0.2-0.1,0.7-0.3,1.2C225.7,267.7,225.8,267.4,225.5,267.7z"/>
									<path class="st37" d="M225.6,268.2l0,0.1L225.6,268.2C225.6,268.3,225.6,268.3,225.6,268.2z"/>
									<path class="st37" d="M221.8,270.7c0.1-0.2,0.2-0.3,0.2-0.3C221.9,270.6,221.8,270.7,221.8,270.7z"/>
									<path class="st37" d="M227.8,270.3c-0.2,1.3-0.1-0.2-0.3,0.1c0.1,0.2-0.1,1-0.1,1.3c0.1-1.7-0.2,0.3-0.5-0.1
										c-0.1,0.5,0,0.7-0.1,1.3c-0.1-0.4-0.3-0.7-0.2-1.7c-0.3-0.1-0.5,0.2-0.7,0c0.1,0.4-0.2,0.9-0.2,1.8c0-1.1-0.1-2.5,0-3.9
										c-0.3,1-0.3,1.1-0.6,2c-0.5,0.6,0.2-1-0.2-0.8l0.2-0.1c0-0.3,0.2-1.3,0.4-2l0.3,0.2c0.2-0.7,0-0.6,0-0.8
										c0.2-0.8,0.3-0.5,0.5-1.2c-0.1,0.6,0,0.4,0,0.7l0.1-0.4c0.2-0.4,0.1,0.6,0.2,0.6c0-0.1,0.1-0.2,0.1-0.2
										c-0.1,0.4-0.1,0.9-0.1,1.1l0-0.1c-0.1,0.9,0.1,1.5-0.3,2.5l0.4-0.2c0.2-1,0.4-2.5,0.3-2.7l0.1-0.4c0.2-0.5,0.2,0.8-0.1,1.7
										c-0.3,2.4,0.5,0.2,0.6,1.2c0.1-0.6,0-0.9,0-1.4c-0.1-0.1-0.1-0.1-0.2,0.4c-0.2-0.4,0.4-2,0.1-1.9c-0.2,0.3,0,1.1-0.3,1.1
										l0.2-1.8c0.1,0.1,0.2,0.4,0.3,0.6c0.2,0.6,0.5,0.7,0.7,0.6c0.2-0.1,0.3-0.3,0.3-0.3c0.9,0.3,1.9,0.5,2.8,0.6
										c0.3,0.2,0.4,0.1,0.8,1.9c0,0.4-0.2,0.2-0.1,0.8c-0.1-0.7-0.3-1-0.5-0.9c0,0.7,0.2,0.3,0.2,0.5l0,0
										c0.1,0.3,0.1,0.6,0.2,0.6c-0.1,1-0.6,0.8-0.8-0.4c-0.1,0.7,0.2,1,0.3,1.5c-0.6,0.5-1.1,0.5-1.7,0.5c0-1.2-0.1-0.7-0.1-1.5
										l-0.1,0.4c0-0.2,0-1,0.1-1.2c-0.4,0.9-0.3-1.6-0.5-2.1l0,0.6c-0.2-0.1-0.2-0.1-0.3-0.5c-0.4,1.1,0.2,0.2,0,1.7l-0.1-0.2
										c0,0.6,0,1.6,0.1,2c-0.2-1-0.5,0.4-0.8-0.4c0,0.7,0.2,1.2,0.3,1.3c-0.1,0.1-0.3-0.4-0.4,0.2l0.1-0.8
										c-0.2-0.1-0.1,0.8-0.2,1.3C227.4,273.4,228.2,270.8,227.8,270.3z"/>
									<path class="st37" d="M223.3,269.6c0.1,0,0.1,0,0.1,0.1C223.4,269.7,223.3,269.6,223.3,269.6z"/>
									<path class="st37" d="M223.6,271.4c0,0.1-0.1,0.2-0.1,0.3C223.5,271.6,223.6,271.5,223.6,271.4z"/>
									<path class="st37" d="M223.3,272.5c0.2-0.3,0.1-0.4,0.2-0.8C223.5,272,223.7,272,223.3,272.5z"/>
									<path class="st37" d="M211.5,261.3c0.2-0.1,0.4-0.4,0.6-0.4l-0.2,0.3L211.5,261.3z"/>
									<path class="st37" d="M212.5,261.2l0.4,0l-0.9,0.6C211.8,261.6,212.6,261.4,212.5,261.2z"/>
									<path class="st37" d="M213.3,261.3l0.2-0.2C213.4,261.2,213.4,261.3,213.3,261.3z"/>
									<path class="st37" d="M212.9,261.6l-0.7,0.5l0.4-0.5L212.9,261.6c0.2-0.2,0.3-0.2,0.4-0.2l-0.5,0.4
										C212.9,261.6,213,261.5,212.9,261.6z"/>
									<path class="st37" d="M212.9,261.8c-0.1,0-0.1,0.1-0.2,0.1C212.8,261.8,212.9,261.8,212.9,261.8z"/>
									<path class="st37" d="M214.5,261.4c-0.3,0.1-0.6,0.4-0.9,0.6c-0.4,0,0.7-0.6,0.3-0.6c-0.4,0.5-0.5,0.2-0.9,0.3
										c0.7-0.3,1.2-0.5,1.5-0.5l-0.4,0.3C214,261.6,214.3,261.4,214.5,261.4z"/>
									<path class="st37" d="M213.9,262.8l0.6-0.5c-0.3,0.2-0.4,0-1.1,0.4c0.1-0.1,0.3-0.3,0.5-0.5c-0.4,0.2-0.7,0.3-0.2-0.1
										c0.6,0,0.7-0.2,1.1,0c0.1-0.1,0.1-0.1,0.1-0.1l0.5-0.1C214.4,262.4,214.5,262.7,213.9,262.8z"/>
									<path class="st37" d="M214.5,262.8c-0.1-0.2,0.5-0.6,1-0.8l-0.3,0.6C215.1,262.5,215.1,262.3,214.5,262.8z"/>
									<path class="st37" d="M214.7,262.9c0.4-0.2,1.2-0.6,0.6-0.1C215.2,262.7,214.3,263.4,214.7,262.9z"/>
									<path class="st37" d="M215.9,263.4l-0.6,0.1c-0.9,0.5-0.2,0.3-0.5,0.7c-0.3-0.1,0-0.2,0.4-0.7c-0.1,0,0.3-0.4,0.5-0.6
										C215.2,263.5,217.3,262.1,215.9,263.4z"/>
									<polygon class="st37" points="214.7,263.5 215,263.3 214.9,263.6 									"/>
									<path class="st37" d="M217.2,263.3c1-0.6-0.3,0.7,0.2,0.5c0-0.1,0.1-0.1,0.2-0.2l0,0.2l0.2-0.2c-0.6,0.5-0.7,0.8-1,1.2
										c-0.7,0.4,0.6-0.6-0.1-0.2c-0.2,0.2-0.6,0.6-0.8,0.8c0.2-0.3,0.5-0.6,0.8-0.9c0-0.1-0.3,0.2-0.5,0.3c0.2-0.4,1.1-1,0.7-1
										c-0.6,0.3-0.7,0.7-0.7,0.3c1-0.6-0.3-0.1,0.3-0.6c-0.3,0-0.9,0.4-1.2,0.6c0.7-0.5,1.2-1.1,1.4-1.3l-0.4,0.7l0.9-0.6
										C216.8,263.3,217,263.3,217.2,263.3L217.2,263.3z"/>
									<path class="st37" d="M215.9,265.3c0,0.1-0.1,0.1-0.1,0.2C215.8,265.5,215.8,265.4,215.9,265.3z"/>
									<polygon class="st37" points="215.1,264.3 214.9,264.4 214.7,264.6 									"/>
									<path class="st37" d="M215.4,265.9c0,0,0.2-0.2,0.3-0.2l-0.3,0.4L215.4,265.9z"/>
									<polygon class="st37" points="216.1,265.6 216.6,265.3 216.3,265.6 									"/>
									<path class="st37" d="M219.2,267.8c-0.3,0.2,0.1-0.3,0.4-0.8C219.9,267,219.3,267.5,219.2,267.8z"/>
									<path class="st37" d="M220.7,269.9c-0.4,0.3-0.1-0.3-0.2-0.4C220.8,269.2,220.8,269.5,220.7,269.9z"/>
									<path class="st37" d="M220.5,272.5c0.1-0.2,0.1-0.4,0.2-0.4l0.5-1.2C221.6,270.6,220.8,272,220.5,272.5z"/>
									<path class="st37" d="M221.7,273.3l0-0.5l0.1,0c0.2-0.5,0.2-0.7,0.3-1.1C222.1,271.9,222.1,272.4,221.7,273.3z"/>
									<path class="st37" d="M222.1,271.3C222.1,271.3,222.1,271.4,222.1,271.3C222,271.5,221.9,271.7,222.1,271.3z"/>
									<path class="st37" d="M222.2,271.5c0,0.1,0,0.1,0,0.1C222.1,271.5,222.1,271.5,222.2,271.5
										C222.1,271.3,222.2,271.2,222.2,271.5z"/>
									<path class="st37" d="M222.1,272.7l0.3,0.3l-0.2,0.2C222.4,272.4,221.8,273.5,222.1,272.7z"/>
									<path class="st37" d="M224.1,272.7l0.3-0.7c0.2-0.1,0.1,1.6,0.5,0.4c-0.2,0.4,0,0.9-0.4,1
										C224.6,272.8,224.3,272.6,224.1,272.7z"/>
									<path class="st37" d="M225.2,271.9c0-0.2,0.1-0.4,0.2-0.6c0.1-0.1,0.1,0.3,0,0.6C225.6,270.9,225.1,272.5,225.2,271.9z"/>
									<path class="st37" d="M226.2,272.2c-0.1,0-0.1-0.1,0-0.3c0.2,0.1-0.1,0.9-0.1,1.5C225.8,273.8,226,272.6,226.2,272.2z"/>
									<path class="st37" d="M228.4,266.8c-0.1,0.6-0.2,0.5-0.2,0.3C228.2,267.3,228.3,267.1,228.4,266.8z"/>
									<polygon class="st37" points="227.7,272.3 227.6,272.4 227.7,271.4 									"/>
									<polygon class="st37" points="228.7,272.9 228.8,273.6 228.6,273.4 									"/>
									<path class="st37" d="M229,272.8l0.2,0.1l-0.1,0.3C229,273.3,229,272.8,229,272.8z"/>
									<path class="st37" d="M229.5,272.9c0-0.1,0,0-0.1,0.2l-0.2-0.4L229.5,272.9z"/>
									<path class="st37" d="M232,268.7c-0.1-0.7,0-0.3,0-0.4C232,268.4,232.1,269.3,232,268.7z"/>
								</g>
							</g>
						</g>
					</g>
				</g>
			</g>
			<g>
				<path class="st23" d="M203.7,295.1c0,0-1.5-8,2.1-11.5"/>
				<path class="st23" d="M212.4,295.1c0,0-1.4-3.9,1.7-10.5"/>
				<path class="st23" d="M229,268.3c0,0-12.2,1.1-18.6-12.9"/>
				<path class="st23" d="M288.1,295.1c0,0,2.2-5.1,1.2-13.5c-1-8.4-8.5-42.2-7.6-43.8"/>
				<path class="st23" d="M212,237.8c0,0-2-4.9-2.6-9.1"/>
				<path class="st23" d="M221.5,248.9c0,0-1.6-2.8-2.3-6.1"/>
				<path class="st23" d="M244.5,249.4c0,0,3.4-4.1,4-6.7"/>
				<path class="st23" d="M255.4,240.2c0,0,5.8-7.2,6.7-15.1"/>
				<path class="st23" d="M267.7,226.9c0,0,2.5-4.7,3-9.4"/>
				<path class="st23" d="M272.8,295.1c0,0-2.4-3.4-1.9-9.6"/>
				<path class="st23" d="M280,295.1c0,0-1-5.3,0-9.6"/>
				<path class="st23" d="M293.2,295.1c0,0-2.3-5,0.4-10.4"/>
				<path class="st23" d="M300.8,295.1c0,0-1-5.9,2.5-9.6"/>
				<path class="st23" d="M228.2,180.5c0,0,9.9,4.9,15.1-0.1c1.7-1.6,2-5.9-1.3-8.9"/>
				<path class="st23" d="M227.8,175.6c0,0-0.3,1.6,0.4,4.9c0.2,0.9-10.2,4.5-14.2-0.1c-1.4-1.6-2-4.8,1-8.4"/>
				<path class="st23" d="M224.2,182.4c0,0,1.4,0.8,4.2,1c3,0.2,4.2-0.9,4.2-0.9"/>
				<path class="st23" d="M287,268.3c0,0,4.1-0.1,6.6-4.4"/>
				<path class="st23" d="M314.7,245.1c-0.6-4.6-1.7-8.4-3.1-11.8c-1.4-3.2-3-6-5-8.6"/>
			</g>
		</g>
		<g>
			<defs>
				<path id="SVGID_00000116956039205897759170000015488201030635459748_" d="M287,268.3c0,0,2.1,0,4.5-1.9s3.4-4.9,3.4-4.9
					s3.6,9.4,1.8,14c-1.7,4.6-7.4,6-7.4,6L287,268.3z"/>
			</defs>
			<clipPath id="SVGID_00000144311831621832364620000017271750842608811922_">
				<use xlink:href="#SVGID_00000116956039205897759170000015488201030635459748_"  style="overflow:visible;"/>
			</clipPath>
			<g style="opacity:0.62;clip-path:url(#SVGID_00000144311831621832364620000017271750842608811922_);">
				<g>
					<g>
						<g>
							<g>
								<path class="st37" d="M288.7,267.8c0.1,0.1,0.1,0.2,0.2,0.3C288.9,268.1,288.9,268,288.7,267.8z"/>
								<path class="st37" d="M291.9,264.9C291.9,264.9,291.9,264.9,291.9,264.9L291.9,264.9L291.9,264.9z"/>
								<path class="st37" d="M291.8,264.9l-0.3-0.2C291.6,264.8,291.7,264.8,291.8,264.9z"/>
								<path class="st37" d="M290.2,269.9c0,0.1,0.1,0.2,0.2,0.4L290.2,269.9z"/>
								<path class="st37" d="M291.7,270.7c0.1,0,0.1,0.1,0.2,0.1C291.8,270.7,291.7,270.7,291.7,270.7z"/>
								<path class="st37" d="M285.3,269.3c0,0,0-0.1-0.1-0.1C285.3,269.2,285.3,269.2,285.3,269.3z"/>
								<path class="st37" d="M285.4,269.9C285.4,269.9,285.3,269.9,285.4,269.9l0,0.1C285.4,270.1,285.4,270,285.4,269.9z"/>
								<path class="st37" d="M285.7,270.3L285.7,270.3C285.7,270.4,285.7,270.3,285.7,270.3z"/>
								<path class="st37" d="M285.8,275.3l0.1,0.4C285.9,275.5,285.9,275.4,285.8,275.3z"/>
								<path class="st37" d="M285.1,268.8c0,0.1,0.1,0.2,0.1,0.3C285.2,269,285.2,269,285.1,268.8z"/>
								<path class="st37" d="M288.6,267.7c0.1,0.1,0.1,0.1,0.1,0.1C288.7,267.8,288.6,267.7,288.6,267.7z"/>
								<path class="st37" d="M290,270.1L290,270.1C290,270.1,290,270.1,290,270.1z"/>
								<path class="st37" d="M292.5,263.4c0-0.1,0-0.1-0.1-0.2C292.2,263.3,292.3,263.3,292.5,263.4z"/>
								<path class="st37" d="M286.6,269.4c0.7,0.9-0.1,0.1,0.5,1c-0.1-0.2-0.1-0.4,0.2,0c0.3,0.6-0.2,0,0.3,0.8l-0.1-0.4
									c0.3,0.3,0.7,1,0.7,0.9c-0.7-1.1,0.6,0.2,0.6-0.1l0,0.1l0.5,0.4c0,0,0,0,0,0.1c0-0.1-0.1-0.1-0.1-0.2
									c0.5,0.5,0.9,0.7,0.9,0.5c-0.4-0.6,0.3-0.6-0.1-1.1c0.1,0.2,0,0.2-0.2,0.1l-0.6-0.7c0.1-0.1,0.5,0.6,0.3,0.1
									c-0.8-0.9-0.2,0.1-0.3,0.1c-0.1-0.2-0.3-0.5-0.3-0.6c-0.2,0.1-0.6-0.1,0,0.9c-0.2-0.2-0.5-0.6-0.5-0.7
									c0.3,0.7-0.5-0.5-0.2,0.1c-0.6-0.9-0.1-0.7-0.4-1.2c0.7,0.6,0.4-0.2,0.4-0.5c0.5,0.6,0.9,1.2,1.3,1.6
									c0.5,0.3-0.1-0.5-0.3-0.9c0.3,0.1,0.9,1,1.2,0.9l0.2,0.5c0.9,0.8-0.2-0.4,0-0.3c-0.2-0.2-0.4-0.4-0.5-0.3
									c-0.3-0.3-0.3-0.5-0.3-0.6l0,0c-0.3-0.4-0.8-0.9-0.5-0.8c0.4,0.6,0.4,0.3,0.7,0.5l0.1,0.1c-0.1-0.2,0.1-0.3,0-0.4l0.1,0.1
									c-0.1-0.3-0.7-0.9-0.5-0.8c0.2,0.2,0.8,1,0.8,0.8c0.4,0.4,0.3,0.5,0.1,0.5c0.2,0,0.9,0.6,0.8,0.7c0.5,0.4-0.1-0.3,0.2-0.2
									c-0.2-0.1-0.3-0.3-0.4-0.4c0.6,0.6,0.3-0.2-0.2-0.6l0.2,0.5c-0.5-0.5-0.7-0.9-1.1-1.2c0.9,0.7-0.1-0.6,0.6-0.1l-0.5-0.3
									c0.5,0-0.4-1-0.4-1.4c0.2,0.3,1.2,1.1,0.7,1c0.4-0.1,1,0.7,1.5,1c0.5,0.1-0.8-0.8-1.1-1.1l0.1,0.3c-1-1,0.6-0.3,0.1-1
									c0.3,0.2,0.1,0.2,0.2,0.3c0.7,0.3,0-0.2-0.2-0.4c0.2,0,0.5,0,1.2,0.6c0.3,0-0.5-0.3-0.6-0.5l0.2,0.1l-0.7-0.7
									c0.3,0.1,0.8,0.2,1.5,0.6c0-0.4-1.6-1.2-1.8-1.6c0.5,0.1,0.6,0.4,0.8,0.6l0-0.2c0.8,0.6,0.3,0.5,1.3,1.1
									c-0.9-0.8-0.2-0.4-0.7-1l-0.1,0c-0.6-0.5,0-0.4-0.1-0.6c0.4,0.3,0.4,0.4,0.5,0.6c0.4,0.1,0.3-0.5-0.6-1.1c0.2,0,0.6,0,1,0.4
									c0.3-0.2-1.3-0.8-0.9-0.9l0.7,0.4c1.1,0.2-0.7-0.9,0.4-0.7l-0.9-0.4c0.4,0.1,0.6,0.1,1,0.2l0.2,0.3c0.8,0.2-0.6-0.4-0.1-0.3
									c-0.3-0.1-0.9-0.3-1.2-0.4c0.3,0.7-1.2,0.6-0.6,1.5c0.1,0,0.2,0.1,0.4,0.2c-0.2-0.1-0.1,0.2-0.5-0.1l-0.1-0.1
									c0.1,0.2-1-0.3-1-0.2c0.5,0.4-0.4,0.1,0.6,0.6l-0.6-0.3c0.3,0.2,0.8,0.5,1,0.7c-0.1,0-0.5-0.2-0.7-0.4
									c-0.6,0.1-0.7,0.5-0.6,1l-0.4-0.4c-0.3-0.1,0.6,0.8-0.5-0.1c0.3,0.5-0.6,0.1,0.5,1c-1.1-0.8-0.7,0-0.7,0.3
									c0.9,0.8,0.1,0.4,0.5,0.8c-0.7-0.6-0.6-0.8-1-1.2c0.9,1.1-1.2-0.2,0.4,1.5c-0.1,0-0.2-0.1-0.2-0.2c0,0-0.4-0.2-0.5-0.2
									c0.3,0.3,0.5,0.4,0.5,0.6c-0.1,0-0.5-0.5-0.8-0.7c0.3,0.5,0.2,0.9,0.8,1.6c-0.2-0.2-0.6-0.5-0.7-0.7
									c0.3,0.7-0.3,0.1-0.2,0.6c0.1-0.1-0.6-0.8-0.2-0.6c-1-1-0.2,0.5-0.8,0.1l0.5,0.7c0,0.2-0.5-0.4-0.6-0.7
									c-0.5-0.3-0.3,0.2-0.4,0.3c-0.1-0.1-0.2-0.2-0.1-0.2l-0.2,0.1c0.1,0.2,0.3,0.6,0.6,1C286.4,269.5,286.3,269.2,286.6,269.4z"
									/>
								<path class="st37" d="M286.7,269.9L286.7,269.9L286.7,269.9C286.7,270,286.7,269.9,286.7,269.9z"/>
								<path class="st37" d="M291.1,271.2c-0.2-0.1-0.3-0.2-0.3-0.2C290.9,271,291,271.1,291.1,271.2z"/>
								<path class="st37" d="M285.2,272.6c0.6,1.2,0.1-0.3,0.3,0c0,0.2,0.3,0.9,0.5,1.2c-0.6-1.6,0.3,0.2,0.4-0.2
									c0.3,0.5,0.2,0.6,0.4,1.2c0-0.5,0.1-0.8-0.3-1.6c0.2-0.1,0.6,0,0.6-0.2c0,0.4,0.4,0.8,0.7,1.6c-0.3-1.1-0.6-2.4-1.1-3.7
									c0.6,0.9,0.7,0.9,1.1,1.8c0.7,0.4-0.4-0.9,0-0.8l-0.2-0.1c-0.1-0.3-0.6-1.2-1-1.8l-0.2,0.3c-0.4-0.6-0.2-0.6-0.2-0.8
									c-0.4-0.8-0.5-0.4-0.8-1c0.3,0.5,0.1,0.4,0.2,0.7l-0.2-0.3c-0.3-0.3,0.1,0.6,0,0.6c-0.1-0.1-0.1-0.2-0.1-0.2
									c0.2,0.4,0.4,0.9,0.4,1l0-0.1c0.4,0.8,0.4,1.5,1.1,2.3l-0.5-0.1c-0.4-0.9-1.1-2.3-1-2.5l-0.2-0.4c-0.4-0.4,0.1,0.9,0.5,1.6
									c1,2.2-0.4,0.3-0.2,1.3c-0.3-0.6-0.3-0.9-0.4-1.3c0-0.1,0.1-0.1,0.3,0.4c0.1-0.5-1-1.8-0.6-1.8c0.3,0.2,0.3,1,0.6,1
									l-0.7-1.7c-0.1,0.1-0.1,0.4-0.1,0.7c0,0.7-0.3,0.8-0.5,0.8c-0.2,0-0.4-0.2-0.4-0.2c-0.8,0.5-1.6,1-2.5,1.4
									c-0.2,0.3-0.3,0.2-0.2,2c0.1,0.4,0.3,0.2,0.3,0.8c-0.1-0.7,0-1,0.2-1c0.1,0.6-0.1,0.3,0,0.5l0,0c0,0.3,0.1,0.6,0,0.6
									c0.4,0.9,0.8,0.6,0.6-0.6c0.3,0.6,0.1,1,0.1,1.6c0.8,0.3,1.2,0.1,1.8,0c-0.4-1.1-0.2-0.7-0.3-1.5l0.2,0.4
									c-0.1-0.2-0.3-1-0.5-1.2c0.6,0.7-0.1-1.6-0.1-2.1l0.2,0.6c0.1-0.2,0.2-0.2,0.2-0.5c0.7,0.9-0.2,0.3,0.5,1.6l0-0.3
									c0.2,0.5,0.5,1.5,0.5,1.9c-0.1-1,0.6,0.2,0.6-0.6c0.2,0.6,0.1,1.2,0.1,1.3c0.1,0,0.2-0.5,0.4,0.1l-0.3-0.8
									c0.1-0.2,0.3,0.7,0.6,1.2C286.5,275.3,285,273.2,285.2,272.6z"/>
								<path class="st37" d="M289.3,270.5c-0.1,0-0.1,0-0.1,0.1C289.2,270.6,289.3,270.6,289.3,270.5z"/>
								<path class="st37" d="M289.5,272.3c0.1,0.1,0.1,0.2,0.2,0.3C289.7,272.5,289.6,272.4,289.5,272.3z"/>
								<path class="st37" d="M290.2,273.3c-0.2-0.3-0.2-0.3-0.5-0.7C289.8,272.9,289.7,273,290.2,273.3z"/>
								<path class="st37" d="M298.1,259.1c-0.2-0.1-0.5-0.2-0.7-0.2l0.2,0.2L298.1,259.1z"/>
								<path class="st37" d="M297.1,259.3l-0.4,0.1l1.1,0.3C297.9,259.5,297.1,259.5,297.1,259.3z"/>
								<path class="st37" d="M296.4,259.6l-0.3-0.1C296.2,259.6,296.3,259.6,296.4,259.6z"/>
								<path class="st37" d="M296.9,259.8l0.8,0.2l-0.5-0.4L296.9,259.8c-0.2-0.1-0.3-0.1-0.5-0.1l0.6,0.2
									C296.9,259.8,296.8,259.7,296.9,259.8z"/>
								<path class="st37" d="M296.9,260c0.1,0,0.2,0,0.2,0C297,260,296.9,260,296.9,260z"/>
								<path class="st37" d="M295.3,260.1c0.3,0,0.7,0.2,1.1,0.3c0.4-0.1-0.8-0.4-0.4-0.4c0.6,0.4,0.5,0,1,0
									c-0.8-0.1-1.3-0.1-1.6,0l0.5,0.1C295.8,260.2,295.5,260,295.3,260.1z"/>
								<path class="st37" d="M296.3,261.3l-0.7-0.3c0.4,0.1,0.4-0.1,1.2,0.1c-0.1-0.1-0.4-0.2-0.6-0.3c0.4,0,0.7,0.1,0.2-0.1
									c-0.6,0.2-0.8,0.1-1.1,0.3c-0.2,0-0.1-0.1-0.1-0.1l-0.4,0.1C295.7,261,295.7,261.3,296.3,261.3z"/>
								<path class="st37" d="M295.6,261.4c0-0.2-0.7-0.4-1.2-0.5l0.5,0.5C295,261.3,294.9,261.1,295.6,261.4z"/>
								<path class="st37" d="M295.6,261.6c-0.4-0.1-1.3-0.2-0.5,0.1C294.9,261.5,296,261.9,295.6,261.6z"/>
								<path class="st37" d="M294.5,262.4l0.6-0.1c1,0.3,0.3,0.2,0.7,0.5c0.3-0.2-0.1-0.2-0.6-0.6c0.1-0.1-0.4-0.3-0.6-0.5
									C295.2,262.3,292.8,261.5,294.5,262.4z"/>
								<polygon class="st37" points="295.7,262.2 295.3,262 295.6,262.3 								"/>
								<path class="st37" d="M293.2,262.7c-1.2-0.3,0.5,0.6,0,0.5c-0.1,0-0.2-0.1-0.3-0.2l0,0.2l-0.3-0.1c0.7,0.3,0.9,0.5,1.3,0.8
									c0.8,0.1-0.8-0.4,0-0.2c0.3,0.2,0.7,0.4,1,0.5c-0.3-0.2-0.7-0.4-1-0.6c0-0.1,0.3,0.1,0.6,0.2c-0.3-0.3-1.3-0.7-1-0.8
									c0.6,0.1,0.9,0.4,0.7,0.1c-1.1-0.3,0.2-0.1-0.4-0.5c0.3-0.1,1,0.1,1.3,0.2c-0.8-0.3-1.5-0.7-1.7-0.9l0.6,0.5l-1-0.3
									C293.6,262.6,293.5,262.6,293.2,262.7L293.2,262.7z"/>
								<path class="st37" d="M295.1,264.2c0.1,0,0.1,0.1,0.1,0.1C295.3,264.4,295.2,264.3,295.1,264.2z"/>
								<polygon class="st37" points="295.6,263 295.7,263.1 296,263.2 								"/>
								<path class="st37" d="M295.7,264.7c0,0-0.3-0.2-0.3-0.1l0.4,0.2L295.7,264.7z"/>
								<polygon class="st37" points="295,264.6 294.4,264.4 294.8,264.6 								"/>
								<path class="st37" d="M292.7,267.6c0.4,0.1-0.2-0.3-0.6-0.6C291.8,267,292.5,267.3,292.7,267.6z"/>
								<path class="st37" d="M291.8,270c0.4,0.2,0-0.4,0.1-0.4C291.6,269.4,291.7,269.7,291.8,270z"/>
								<path class="st37" d="M292.8,272.5c-0.1-0.2-0.2-0.3-0.3-0.3l-0.8-1C291.3,271,292.4,272.1,292.8,272.5z"/>
								<path class="st37" d="M291.9,273.5l-0.2-0.5l-0.1,0c-0.3-0.4-0.4-0.6-0.6-1C291.1,272.4,291.3,272.9,291.9,273.5z"/>
								<path class="st37" d="M291,271.8c0,0,0,0.1,0,0.1C291.1,272,291.2,272.1,291,271.8z"/>
								<path class="st37" d="M290.9,272c0,0,0,0.1,0.1,0.1C291,272,291,272,290.9,272C290.9,271.8,290.8,271.8,290.9,272z"/>
								<path class="st37" d="M291.4,273.2l-0.2,0.3l0.3,0.1C291,273,291.9,273.9,291.4,273.2z"/>
								<path class="st37" d="M289.5,273.8l-0.5-0.6c-0.3,0,0.4,1.5-0.4,0.6c0.3,0.3,0.3,0.8,0.7,0.9
									C289,274,289.2,273.7,289.5,273.8z"/>
								<path class="st37" d="M288.2,273.3c-0.1-0.2-0.2-0.3-0.4-0.5c-0.1,0,0,0.3,0.2,0.6C287.5,272.5,288.4,273.9,288.2,273.3z"/>
								<path class="st37" d="M287.3,273.9c0,0,0.1-0.2-0.1-0.3c-0.1,0.1,0.3,0.9,0.5,1.4C288.1,275.3,287.6,274.2,287.3,273.9z"/>
								<path class="st37" d="M283.6,269.4c0.3,0.6,0.4,0.5,0.3,0.2C283.9,269.8,283.8,269.6,283.6,269.4z"/>
								<polygon class="st37" points="285.9,274.4 286,274.5 285.7,273.5 								"/>
								<polygon class="st37" points="285.1,275.3 285.2,276 285.4,275.8 								"/>
								<path class="st37" d="M284.8,275.2l-0.2,0.1l0.2,0.2C285,275.7,284.8,275.3,284.8,275.2z"/>
								<path class="st37" d="M284.3,275.6c0-0.1,0.1,0,0.1,0.1l0-0.5L284.3,275.6z"/>
								<path class="st37" d="M280.7,272.2c-0.1-0.7-0.1-0.2-0.1-0.4C280.6,272,280.8,272.9,280.7,272.2z"/>
							</g>
						</g>
					</g>
				</g>
			</g>
		</g>
	</g>
</g>
</svg>
