<?xml version="1.0" encoding="utf-8"?>
<!-- Generator: Adobe Illustrator 26.0.3, SVG Export Plug-In . SVG Version: 6.00 Build 0)  -->
<svg version="1.1" xmlns="http://www.w3.org/2000/svg" xmlns:xlink="http://www.w3.org/1999/xlink" x="0px" y="0px"
	 viewBox="0 0 503.6 377.7" style="enable-background:new 0 0 503.6 377.7;" xml:space="preserve">
<style type="text/css">
	.st0{fill:#FFF0DD;}
	.st1{fill:#6B5C52;}
	.st2{fill:#B8BBBF;}
	.st3{fill:#F9E9CD;}
	.st4{fill:#FFE6BD;}
	.st5{fill:#F5F5F2;}
	.st6{fill:#637189;}
	.st7{fill:#9E9082;}
	.st8{fill:#938D89;}
	.st9{fill:#FFDBC0;}
	.st10{fill:#6E85BD;}
	.st11{fill:#E8D9D6;}
	.st12{fill:#A7BC79;}
	.st13{fill:#FF8080;}
	.st14{fill:#3D3533;}
	.st15{fill:#A1683D;}
	.st16{fill:#CCE0FF;}
	.st17{fill:#383531;}
	.st18{fill:#757060;}
	.st19{fill:#D29F7E;}
	.st20{opacity:0.88;clip-path:url(#SVGID_00000082333004350849067740000003128254800065104276_);}
	.st21{fill:#322015;}
	.st22{fill:#1B1C1E;}
	.st23{fill:none;stroke:#1B1C1E;stroke-width:1.2604;stroke-linecap:round;stroke-linejoin:round;stroke-miterlimit:10;}
	.st24{opacity:0.84;clip-path:url(#SVGID_00000134961833565084262700000005142872876313456280_);}
	.st25{clip-path:url(#SVGID_00000181778668913712753770000011688266151795264397_);}
	.st26{fill:none;stroke:#1B1C1E;stroke-width:1.2604;stroke-linecap:round;stroke-linejoin:round;}
	.st27{fill:#D1493B;}
	.st28{fill:#FFAE1F;}
	.st29{opacity:0.88;clip-path:url(#SVGID_00000167356174425770555180000011686186026314299033_);}
	.st30{opacity:0.7;clip-path:url(#SVGID_00000156577085500477849920000005609851662015433367_);}
	.st31{fill:#2C2C2D;}
	.st32{opacity:0.87;clip-path:url(#SVGID_00000117674706772580109520000004639527773925623433_);}
	.st33{fill:#080809;}
	.st34{opacity:0.7;clip-path:url(#SVGID_00000056412878406271569130000008495488998702367667_);}
	.st35{fill:#FBAF5E;}
	.st36{opacity:0.62;clip-path:url(#SVGID_00000066492699403391079290000018321466842650572212_);}
	.st37{fill:#3E240C;}
	.st38{fill:#BC763C;}
	.st39{opacity:0.62;clip-path:url(#SVGID_00000080900639712778877550000009125104353174167464_);}
	.st40{opacity:0.62;clip-path:url(#SVGID_00000125599823055588483750000009474038343365844915_);}
	.st41{fill:#967258;}
	.st42{opacity:0.53;clip-path:url(#SVGID_00000160884398105129892320000011506287288946093492_);}
	.st43{opacity:0.73;clip-path:url(#SVGID_00000109725827835950392750000007204335514716275851_);}
	.st44{fill:none;stroke:#1B1C1E;stroke-width:1.1311;stroke-linecap:round;stroke-linejoin:round;stroke-miterlimit:10;}
	.st45{fill:#3D291C;}
	.st46{fill:#3D291C;stroke:#967258;stroke-width:1.2604;stroke-linecap:round;stroke-linejoin:round;stroke-miterlimit:10;}
	.st47{fill:#D6D4C8;}
	.st48{fill:#1B1C1E;stroke:#967258;stroke-width:1.2604;stroke-linecap:round;stroke-linejoin:round;stroke-miterlimit:10;}
	.st49{opacity:0.52;clip-path:url(#SVGID_00000033366242791489396810000006703953621014043069_);}
	.st50{fill:#B37D4F;}
	.st51{opacity:0.88;clip-path:url(#SVGID_00000055669516089004827790000017381723896543435415_);}
	.st52{fill:#343434;}
	.st53{fill:#BC6464;}
	.st54{opacity:0.88;clip-path:url(#SVGID_00000013155037534081816240000014800667234128666271_);}
	.st55{fill:#1B1C1E;stroke:#1B1C1E;stroke-width:1.1485;stroke-linecap:round;stroke-linejoin:round;stroke-miterlimit:10;}
	.st56{fill:#8C7265;}
	.st57{opacity:0.88;clip-path:url(#SVGID_00000137823980694220900920000004338360113661577911_);}
	.st58{fill:#1B1C1E;stroke:#1B1C1E;stroke-width:1.3664;stroke-linecap:round;stroke-linejoin:round;stroke-miterlimit:10;}
	.st59{opacity:0.88;clip-path:url(#SVGID_00000106826607312880924480000009229080177087822514_);}
	.st60{fill:none;stroke:#1B1C1E;stroke-width:1.3664;stroke-linecap:round;stroke-linejoin:round;stroke-miterlimit:10;}
	.st61{opacity:0.88;clip-path:url(#SVGID_00000072984006727152145270000012932156491426552208_);}
	.st62{opacity:0.88;clip-path:url(#SVGID_00000119835868455984510080000017937320989970983608_);}
	.st63{fill:#5F6C72;}
	.st64{fill:#1B1C1E;stroke:#1B1C1E;stroke-width:1.5329;stroke-linecap:round;stroke-linejoin:round;stroke-miterlimit:10;}
	.st65{opacity:0.88;clip-path:url(#SVGID_00000052822948708997809620000005568136463211056530_);}
	.st66{clip-path:url(#SVGID_00000155110224056582444690000011582004694413045893_);}
	.st67{opacity:0.58;clip-path:url(#SVGID_00000121978303981663914650000002049283044860433300_);}
	.st68{opacity:0.58;clip-path:url(#SVGID_00000042011688573939855070000007369654376634748834_);}
	.st69{fill:#1B1C1E;stroke:#1B1C1E;stroke-width:1.818;stroke-linecap:round;stroke-linejoin:round;stroke-miterlimit:10;}
	.st70{fill:#FFFFFF;}
	.st71{fill:#CC813E;}
	.st72{opacity:0.58;clip-path:url(#SVGID_00000110469322487452695730000004000063792515247287_);}
	.st73{fill:#AA8C7D;}
	.st74{opacity:0.88;clip-path:url(#SVGID_00000142162662570228905970000001907070481329661328_);}
	.st75{opacity:0.88;clip-path:url(#SVGID_00000008127102431697805020000008299343252213945757_);}
	.st76{fill:#1B1C1E;stroke:#1B1C1E;stroke-width:1.2604;stroke-linecap:round;stroke-linejoin:round;stroke-miterlimit:10;}
	.st77{opacity:0.88;clip-path:url(#SVGID_00000160151329222421580770000013081288165042411443_);}
	.st78{opacity:0.88;clip-path:url(#SVGID_00000078767837031600230340000015390359835743295915_);}
	.st79{opacity:0.88;clip-path:url(#SVGID_00000046334653463927087350000006399469782970845834_);}
	.st80{fill:none;stroke:#1B1C1E;stroke-miterlimit:10;}
	.st81{fill:#B8BDC4;}
	.st82{fill:#B4D3CD;}
	.st83{opacity:0.88;clip-path:url(#SVGID_00000172434526065076880250000016362816229019040665_);}
	.st84{opacity:0.88;clip-path:url(#SVGID_00000103978134322238149900000015282693818253984683_);}
	.st85{fill:#EFBE9D;}
	.st86{opacity:0.88;clip-path:url(#SVGID_00000013180098291244763020000003686244315683560342_);}
	.st87{fill:#443730;}
	.st88{opacity:0.88;clip-path:url(#SVGID_00000158741631361800772210000015147028091845333410_);}
	.st89{opacity:0.88;clip-path:url(#SVGID_00000142175350606524967320000005858801662196413867_);}
	.st90{fill:#E2AF8D;}
	.st91{fill:none;stroke:#1B1C1E;stroke-linecap:round;stroke-linejoin:round;stroke-miterlimit:10;}
	.st92{fill:#1B1C1E;stroke:#1B1C1E;stroke-miterlimit:10;}
	.st93{fill:#FCEA9F;}
	.st94{fill:#F6EBEF;}
	.st95{fill:#D4DADD;}
	.st96{opacity:0.61;clip-path:url(#SVGID_00000183216937740721465660000004613802632316661648_);}
	.st97{fill:#353737;}
	.st98{fill:#B3B9BC;}
	.st99{opacity:0.61;clip-path:url(#SVGID_00000035518085691908906710000007363679896361818504_);}
	.st100{opacity:0.61;clip-path:url(#SVGID_00000025421435318201451610000000838608882844701109_);}
	.st101{fill:#B3B9BC;stroke:#1B1C1E;stroke-miterlimit:10;}
	.st102{fill:#CCE2CF;stroke:#1B1C1E;stroke-miterlimit:10;}
	.st103{fill:#EAD6DE;}
	.st104{fill:#1B1C1E;stroke:#1B1C1E;stroke-width:1.0185;stroke-miterlimit:10;}
	.st105{fill:none;stroke:#1B1C1E;stroke-width:1.0185;stroke-miterlimit:10;}
	.st106{fill:#FBAF5E;stroke:#1B1C1E;stroke-miterlimit:10;}
	.st107{fill:#513F3B;}
	.st108{opacity:0.88;clip-path:url(#SVGID_00000065042664560803017080000012971069145942564736_);}
	.st109{opacity:0.88;clip-path:url(#SVGID_00000034088105986348644800000015220304172833275576_);}
	.st110{fill:#8B2403;}
	.st111{fill:#EBDAD2;}
	.st112{fill:#A84E39;}
	.st113{fill:#751A01;}
	.st114{fill:#EBDAD2;stroke:#1B1C1E;stroke-miterlimit:10;}
	.st115{opacity:0.78;clip-path:url(#SVGID_00000176743503984393025540000000448927767942239883_);}
	.st116{fill:#290B01;}
	.st117{opacity:0.78;clip-path:url(#SVGID_00000130618158330300504450000016556947280327250103_);}
	.st118{opacity:0.78;clip-path:url(#SVGID_00000120517933301518976410000015011601515377607338_);}
	.st119{opacity:0.78;clip-path:url(#SVGID_00000111167171061959425010000016950724489701300628_);}
	.st120{fill:#030203;}
	.st121{fill:#86889A;}
	.st122{fill:#0B060A;}
	.st123{fill:#736E72;}
	.st124{fill:#9E9AA0;}
	.st125{fill:#18172A;}
	.st126{fill:#3B4D84;}
	.st127{fill:#FFA3AC;}
	.st128{fill:none;stroke:#0B080B;stroke-width:1.2005;stroke-miterlimit:10;}
	.st129{fill:#E7E6E8;}
	.st130{fill:#0B080B;}
	.st131{fill:none;stroke:#1B1C1E;stroke-width:1.2005;stroke-linecap:round;stroke-linejoin:round;stroke-miterlimit:10;}
	.st132{opacity:0.78;clip-path:url(#SVGID_00000077292298718231994160000009505778784575725722_);}
	.st133{opacity:0.78;clip-path:url(#SVGID_00000026885880305222570030000015797592823741396873_);}
	.st134{fill:#89745E;}
	.st135{opacity:0.78;clip-path:url(#SVGID_00000160872701070589153660000009992162283506757559_);}
	.st136{fill:#060606;}
	.st137{fill:#4D483E;}
	.st138{fill:#FF8A00;}
	.st139{fill:#50483F;}
	.st140{fill:#131313;}
	.st141{fill:#E8DBCD;}
	.st142{opacity:0.78;clip-path:url(#SVGID_00000182524275931893876210000005834374303107465865_);}
	.st143{opacity:0.78;clip-path:url(#SVGID_00000163751235422086127170000004899240636839051185_);}
	.st144{fill:#191212;}
	.st145{fill:#6C5353;}
	.st146{opacity:0.78;clip-path:url(#SVGID_00000085959673192522530530000014442405474020026758_);}
	.st147{fill:#B3B3B3;}
	.st148{fill:#FF9F2C;}
	.st149{fill:none;stroke:#343434;stroke-miterlimit:10;}
	.st150{fill:#21262A;}
	.st151{fill:#563D3D;}
	.st152{opacity:0.78;clip-path:url(#SVGID_00000103225764631417622690000014655506737631879322_);}
	.st153{fill:#181716;}
	.st154{fill:#706153;}
	.st155{fill:none;stroke:#1B1C1E;stroke-width:0.8477;stroke-miterlimit:10;}
	.st156{fill:#FCBD30;}
	.st157{fill:#E8D9CD;}
	.st158{fill:#534E4A;}
	.st159{opacity:0.78;clip-path:url(#SVGID_00000005251358608978161340000009353773117749702799_);}
	.st160{fill:#7DA050;}
	.st161{opacity:0.78;clip-path:url(#SVGID_00000048459885531612847600000000185428087299018889_);}
	.st162{opacity:0.78;clip-path:url(#SVGID_00000072262604220267755030000011675632634351598007_);}
	.st163{opacity:0.78;clip-path:url(#SVGID_00000141440977971603387010000007360883448047746488_);}
	.st164{fill:#EFEECE;}
	.st165{opacity:0.78;clip-path:url(#SVGID_00000178179685984463302880000008416833983615117242_);}
	.st166{fill:#93543B;}
	.st167{fill:#FF510C;}
	.st168{opacity:0.78;clip-path:url(#SVGID_00000124860290702814194520000011893067977100478369_);}
	.st169{fill:#4B1804;}
	.st170{fill:#000A0E;}
	.st171{opacity:0.78;clip-path:url(#SVGID_00000153668728553051663050000017930982836706369189_);}
	.st172{opacity:0.78;clip-path:url(#SVGID_00000146468036445011427970000009460086621558928573_);}
	.st173{fill:#F9C8A7;}
	.st174{fill:#1B1C1E;stroke:#1B1C1E;stroke-width:1.3738;stroke-miterlimit:10;}
	.st175{fill:none;stroke:#1B1C1E;stroke-width:1.3;stroke-miterlimit:10;}
	.st176{fill:#FFCB6E;}
	.st177{fill:#CECECE;}
	.st178{fill:none;stroke:#1B1C1E;stroke-width:1.3037;stroke-miterlimit:10;}
	.st179{fill:#FFFFFF;stroke:#1B1C1E;stroke-width:1.3;stroke-miterlimit:10;}
	.st180{opacity:0.78;clip-path:url(#SVGID_00000026122265600791936350000004540546324534765961_);}
	.st181{fill:none;stroke:#1B1C1E;stroke-width:1.3738;stroke-miterlimit:10;}
	.st182{opacity:0.45;clip-path:url(#SVGID_00000090999920132674659760000013943205473931626399_);}
	.st183{opacity:0.45;clip-path:url(#SVGID_00000029033555283418355770000012887641181500170627_);}
	.st184{opacity:0.45;clip-path:url(#SVGID_00000076566356530732810900000012000132261294726288_);}
	.st185{opacity:0.45;clip-path:url(#SVGID_00000017492470558730113670000013312853331219894935_);}
	.st186{fill:none;stroke:#1B1C1E;stroke-width:1.3738;stroke-linecap:round;stroke-linejoin:round;stroke-miterlimit:10;}
	.st187{fill:#FFB192;}
	.st188{fill:#EB8226;}
	.st189{fill:#F7EDE1;}
	.st190{opacity:0.78;clip-path:url(#SVGID_00000080901234108869258690000014465773532460158903_);}
	.st191{opacity:0.78;clip-path:url(#SVGID_00000034076822697753911680000009303664658546132631_);}
	.st192{opacity:0.5;clip-path:url(#SVGID_00000049915311006751095780000011717490135620236221_);}
	.st193{opacity:0.5;clip-path:url(#SVGID_00000048484390218940230040000017410026153721992077_);}
	.st194{fill:none;stroke:#06002C;stroke-width:1.3038;stroke-miterlimit:10;}
	.st195{fill:#F7A9B4;}
	.st196{fill:#06002C;}
	.st197{opacity:0.5;clip-path:url(#SVGID_00000066516668324530929020000002241444940679714948_);}
	.st198{fill:none;stroke:#06002C;stroke-width:1.3038;stroke-linecap:round;stroke-linejoin:round;stroke-miterlimit:10;}
	.st199{fill:#9BBEDC;}
	.st200{opacity:0.88;clip-path:url(#SVGID_00000130607224373898736470000007168289193234443701_);}
	.st201{opacity:0.88;clip-path:url(#SVGID_00000091727342257534012700000008022842935362870710_);}
</style>
<g id="Background">
	<rect x="-3.2" y="-2.4" class="st1" width="510" height="382.5"/>
</g>
<g id="Illustration">
	<g>
		<path class="st22" d="M161.1,292.2c0,0-8.8,2.6,15.2,3.4c24,0.8,150.6,1.2,163.6,0c13-1.2,38.4-0.5,4.7-3.4s-68.3-1.2-102.2-2.9
			C208.6,287.6,166.2,289.2,161.1,292.2z"/>
		<g>
			<path class="st35" d="M301.8,277.4c0,0,8,11.3,26.6,9c20.1-2.5,35-26.3,30.6-50.4c-4.4-24.1-29.7-30.4-44-22s-15.1,22-10.3,32.8
				C304.6,246.7,300.2,273.3,301.8,277.4z"/>
			<path class="st23" d="M304.6,246.7c0,0,5.9,10.5,19.4,8.2c13.4-2.3,12.1-19,5.5-21.8"/>
			<g>
				<defs>
					<path id="SVGID_00000090986172948505618250000007692973516998102939_" d="M301.8,277.4c0,0,8,11.3,26.6,9
						c20.1-2.5,35-26.3,30.6-50.4c-4.4-24.1-29.7-30.4-44-22s-15.1,22-10.3,32.8C304.6,246.7,300.2,273.3,301.8,277.4z"/>
				</defs>
				<clipPath id="SVGID_00000106149639475721147550000002788191722605574025_">
					<use xlink:href="#SVGID_00000090986172948505618250000007692973516998102939_"  style="overflow:visible;"/>
				</clipPath>
				<g style="clip-path:url(#SVGID_00000106149639475721147550000002788191722605574025_);">
					<g>
						<g>
							<g>
								<path class="st21" d="M304.1,277.8c0.1-0.1,0.1-0.3,0.2-0.4C304.4,277.5,304.4,277.6,304.1,277.8z"/>
								<path class="st21" d="M315,286C315,286,315,286.1,315,286l0,0.1L315,286z"/>
								<path class="st21" d="M315,286.2l-0.1,0.5C314.8,286.4,314.8,286.3,315,286.2z"/>
								<path class="st21" d="M306.4,275.1c0-0.2,0.1-0.3,0.4-0.6L306.4,275.1z"/>
								<path class="st21" d="M308.7,275c0.1,0,0.2-0.1,0.2-0.1C308.8,275,308.8,275,308.7,275z"/>
								<path class="st21" d="M298.8,266.3c-0.1,0-0.1,0.1-0.2,0.1C298.7,266.3,298.7,266.3,298.8,266.3z"/>
								<path class="st21" d="M299.5,265.3c0-0.1,0-0.1,0-0.2l0.1,0C299.7,265,299.5,265.2,299.5,265.3z"/>
								<path class="st21" d="M300.1,265.5l0-0.2C300.2,265.4,300.2,265.5,300.1,265.5z"/>
								<path class="st21" d="M305.6,259.5l0.5,0C305.9,259.5,305.7,259.5,305.6,259.5z"/>
								<path class="st21" d="M298.2,266.6c0.1-0.1,0.2-0.1,0.4-0.2C298.5,266.5,298.5,266.6,298.2,266.6z"/>
								<path class="st21" d="M304,277.9c0.1-0.1,0.1-0.1,0.2-0.1C304.1,277.9,304,277.9,304,277.9z"/>
								<path class="st21" d="M305.9,274.4L305.9,274.4C305.9,274.5,305.9,274.5,305.9,274.4z"/>
								<path class="st21" d="M319.6,288c0.1,0.1,0.2,0.2,0.3,0.3C319.6,288.4,319.5,288.2,319.6,288z"/>
								<path class="st21" d="M300.5,269.5c1.5-0.2,0-0.5,1.3-0.8c-0.3,0.3-0.4,0.6,0.3,0.5c0.7-0.4-0.2-0.5,1-0.8l-0.4,0.5
									c0.6,0.1,1.5-0.5,1.5-0.2c-1.6,0.7,0.9,0.8,0.7,1.1l0.1-0.2c0.3,0.1,0.6,0.2,0.9,0.2c0,0,0.1,0,0.1,0
									c-0.1,0-0.2,0.1-0.3,0.1c0.9-0.1,1.5,0.1,1.5,0.5c-0.9,0.5,0.1,1.2-0.6,1.7c0.2-0.2,0.1-0.4-0.2-0.5l-1.1,0.4
									c0.2,0.3,1-0.4,0.5,0.2c-1.5,0.5-0.2-0.5-0.5-0.7c-0.3,0.2-0.5,0.5-0.6,0.7c-0.3-0.5-0.9-0.8,0.4-1.7c-0.4,0-1,0.2-1.1,0.4
									c0.7-0.7-0.9,0-0.3-0.6c-1.3,0.5-0.5,1-1.1,1.6c1.2,0.1,0.5,1.1,0.5,1.8c1-0.4,1.7-1.1,2.3-1.2c0.9,0.2-0.3,0.7-0.7,1.3
									c0.5,0.2,1.6-0.7,2-0.2l0.5-0.6c1.5-0.4-0.4,0.5,0,0.6c-0.4,0.1-0.7,0.3-0.8,0c-0.5,0.2-0.6,0.5-0.6,0.7l-0.1,0
									c-0.6,0.5-1.3,0.9-0.8,1.1c0.7-0.6,0.7,0,1.2-0.2l0.1-0.2c-0.1,0.4,0.2,0.6,0.1,0.8l0.2-0.1c-0.2,0.4-1.1,1-0.7,1.2
									c0.4-0.3,1.2-1.2,1.2-0.8c0.5-0.4,0.4-0.8,0-0.9c0.4,0.1,1.4-0.3,1.3-0.7c0.8-0.4-0.1,0.5,0.3,0.4c-0.2,0.1-0.5,0.3-0.7,0.4
									c1-0.6,0.5,0.5-0.2,1l0.3-0.7c-0.8,0.5-1,1.2-1.5,1.4c1.3-0.7,0,1.3,1.1,0.7l-0.7,0.3c0.9,0.3,0,2,0.3,2.9
									c0.1-0.5,1.3-1.6,0.5-1.6c0.7,0.4,1.3-0.9,2.1-1.2c0.8,0-0.9,1.2-1.1,1.7l-0.1-0.5c-0.5,0.8-0.1,1,0.3,1.2
									c0.4,0.2,0.9,0.3,0.9,1c0.4-0.3,0.1-0.3,0.1-0.5c0.9-0.5,0.1,0.4,0.1,0.8c0.4,0.1,1,0.1,1.6-1c0.5,0-0.5,0.5-0.5,1l0.2-0.2
									c-0.2,0.4-0.3,0.9-0.4,1.3c0.5-0.1,1.3-0.3,2-1.2c0.5,0.6-1.2,2.4-0.9,3.1c0.6-0.3,0.4-0.8,0.6-1.2l0.4,0.4
									c0.5-1.2-0.2-0.9,0.6-2.1c-0.4,1.5,0.3,0.7,0.3,1.8L314,284c-0.3,1,0.6,0.7,0.9,1.1c0.2-0.6-0.2-0.8-0.3-1.2
									c0.6-0.2,1.2,0.6,1,2c0.3-0.1,1-0.4,0.9-1c0.8,0.1-0.4,1.9,0.4,1.8l0.4-1c1.2-1.1,1,1.8,2.1,0.8l-0.3,1.2
									c0.3-0.5,0.7-0.6,0.9-1l-0.2-0.5c0.6-0.9,0.1,1.1,0.6,0.5c-0.1,0.4-0.7,1.1-0.8,1.5c-0.7-0.6-1.5-0.6-2.4-0.7
									c-0.4-0.1-0.8-0.1-1.2-0.3c-0.4-0.2-0.7-0.5-0.9-1c0.1-0.1,0.3-0.2,0.3-0.5c-0.3,0.2-0.4-0.2-0.7,0.4l0,0.1
									c-0.3-0.4-1.3,0.7-1.6,0.6c0.3-0.8-1-0.2-0.1-1.3l-0.7,0.6c0.2-0.5,0.6-1.1,0.6-1.4c-0.3-0.1-0.6,0.4-0.6,0.9
									c-0.7,0-1.3-0.4-1.8-0.8c-0.5-0.4-1-0.9-1.3-1.5l-0.2,0.7c-0.5,0.1,0-1.6-1-0.1c0-0.9-1.6-0.9-0.3-2.1
									c-0.8,0.5-1.2,0.3-1.4,0c-0.2-0.4-0.3-1-0.5-1.4c1.3-0.9-0.1-0.8,0.4-1.4c-1,0.6-0.6,1.3-1.2,1.8c0.4-0.9-0.2-1.2-0.6-1.6
									c-0.5-0.3-0.8-0.8,0.4-1.7c-0.2,0-0.3,0-0.3,0.1c-0.1-0.1-0.7-0.1-0.9-0.1c0.4-0.4,0.8-0.2,0.8-0.6
									c-0.3-0.2-0.9,0.4-1.3,0.4c0.3-0.9,0.2-1.9,1.2-2.5c-0.4,0-1.1,0.1-1.2,0.4c0.5-1.2-0.5-0.8-0.3-1.9
									c0.1,0.3-1.2,0.6-0.5,0.9c-0.9,0.2-1-0.2-0.9-0.7c0-0.5,0.1-1-0.4-1.2l1-0.6c0-0.5-1-0.2-1.3,0.2c-0.9-0.6-0.3-1.2-0.5-1.8
									c-0.1,0-0.3,0.1-0.3,0.2c-0.1-0.3-0.2-0.6-0.2-0.9c0.3-0.2,0.7-0.6,1.4-0.7C300.3,268.9,300,269.2,300.5,269.5z"/>
								<path class="st21" d="M300.9,268.7l0.1-0.1l0,0C301,268.7,301,268.7,300.9,268.7z"/>
								<path class="st21" d="M307.8,273.7c-0.3,0.1-0.4,0.1-0.5,0.1C307.5,273.7,307.7,273.7,307.8,273.7z"/>
								<path class="st21" d="M302,260.8c1.7,0.1-0.3,0.5,0.2,0.8c0.2-0.3,1.2-0.3,1.7-0.3c-2.2,0.5,0.4,0.5,0,1.2
									c0.7,0,0.8-0.4,1.6-0.5c-0.5,0.4-0.8,1-2,1.2c0,0.7,0.5,1.1,0.4,1.5c0.4-0.5,1.2-0.2,2.2-0.7c-1.4,0.6-2.9,1.9-4.5,3
									c1.3-0.1,1.5-0.1,2.7-0.5c1,0.6-1.2,0.5-0.6,1.2l-0.3-0.3c-0.3,0.4-1.6,0.7-2.4,1l0-1c-0.9,0.2-0.6,0.8-0.8,1
									c-1,0.5-0.9-0.4-1.7-0.1c0.7-0.3,0.4-0.7,0.6-1l-0.5,0c-0.6-0.4,0.6-0.9,0.5-1.3c-0.1,0-0.3,0-0.3,0
									c0.5-0.2,1.2-0.5,1.4-0.8l0,0.2c1.1-0.5,1.8-1.4,3.1-1l-0.5-0.9c-1.3,0.2-3.2,0.6-3.3,1.2l-0.5,0.1c-0.8-0.4,0.9-1.4,2-1.2
									c3.1-0.7,0-1.5,1.3-2.3c-0.9,0-1.2,0.4-1.8,0.6c-0.1,0.2-0.1,0.4,0.6,0.4c-0.4,1-2.7,0-2.3,1c0.5,0.5,1.3-0.8,1.5,0
									c-0.8,0.2-1.5,0.5-2.3,0.8c0-0.5,0.4-1,0.6-1.4c0.7-1.2,0.8-2,0.6-2.7c-0.1-0.6-0.5-1-0.5-1c0.3-3.2,0.8-6.3,1.5-9.2
									c0.5-0.9,0.4-1.3,2.8-1.2c0.4,0.3,0.1,0.8,1,0.7c-0.9,0-1.4,0.2-1.4,0.7c0.8,0.2,0.5-0.4,0.7-0.2l0,0.1c0.4,0,0.7,0,0.8-0.2
									c1.2,0.7,0.8,1.7-0.9,1.8c0.8,0.5,1.4-0.1,2.1-0.2c0.5,1.6,0.2,2.6,0.2,4.1c-1.5-0.1-1,0.1-2,0.2l0.5,0.2
									c-0.3-0.1-1.3,0.1-1.6-0.3c1.1,1-2.1,0.9-2.7,1.6l0.8,0c-0.2,0.5-0.2,0.7-0.6,1.1c1.4,0.9,0.3-0.7,2.2-0.4l-0.3,0.2
									c0.7-0.1,2.1-0.2,2.6-0.5c-1.3,0.7,0.5,1.1-0.5,1.9c0.9-0.1,1.5-0.8,1.6-1c0.1,0.3-0.5,0.8,0.3,0.8l-1.1,0.1
									c-0.1,0.5,1-0.1,1.7,0.1C306,260.8,302.7,259.8,302,260.8z"/>
								<path class="st21" d="M304.9,272.7c-0.1-0.1-0.1-0.2-0.1-0.4C304.9,272.4,304.9,272.5,304.9,272.7z"/>
								<path class="st21" d="M306.1,269.8c0.1-0.1,0.3-0.1,0.4-0.2C306.4,269.7,306.2,269.8,306.1,269.8z"/>
								<path class="st21" d="M307.5,269.2c-0.5,0.1-0.5,0.2-1,0.5C306.7,269.4,306.6,269.1,307.5,269.2z"/>
								<path class="st21" d="M334.8,284.3c0.1,0.3,0.4,0.6,0.3,0.9l-0.5-0.4L334.8,284.3z"/>
								<path class="st21" d="M334,285.5l-0.4,0.4l-0.3-1.5C333.7,284.5,333.5,285.5,334,285.5z"/>
								<path class="st21" d="M332.7,286.4l0.1,0.4C332.7,286.6,332.7,286.5,332.7,286.4z"/>
								<path class="st21" d="M332.7,285.7l-0.2-1.1l0.6,0.8l-0.2,0.2c0,0.4-0.1,0.5-0.2,0.7l-0.2-0.8
									C332.6,285.7,332.7,285.9,332.7,285.7z"/>
								<path class="st21" d="M332.2,285.7c0-0.1,0-0.2,0-0.3C332.3,285.5,332.3,285.6,332.2,285.7z"/>
								<path class="st21" d="M331.1,287.6c0.1-0.4-0.1-1-0.1-1.4c0.5-0.4,0.4,1.2,0.8,0.7c-0.6-0.9,0.2-0.6,0.4-1.2
									c-0.1,1-0.4,1.7-0.8,2l0-0.7C331.1,286.9,331.2,287.4,331.1,287.6z"/>
								<path class="st21" d="M328.8,285.9l0.3,1c0.1-0.5,0.7-0.5,0.7-1.5c0.2,0.2,0.2,0.6,0.3,0.9c0.2-0.5,0.3-0.9,0.5-0.2
									c-0.9,0.7-0.6,0.9-1.4,1.2c0,0.2,0.1,0.2,0.2,0.2l-0.5,0.5C328.9,286.8,328.3,286.6,328.8,285.9z"/>
								<path class="st21" d="M328.1,286.6c0.4,0.1,0.5,1.1,0.3,1.7l-0.8-0.9C327.8,287.4,328.1,287.6,328.1,286.6z"/>
								<path class="st21" d="M327.5,286.5c-0.2,0.5-0.6,1.6-0.7,0.6C327.2,287.3,327.1,285.8,327.5,286.5z"/>
								<path class="st21" d="M324.6,287.1l0.9-0.5c0.3-1.3-0.3-0.5-0.4-1.1c0.7-0.2,0.4,0.2,0.8,1.1c0.2-0.1,0.4,0.7,0.6,1.1
									C325.5,286.5,325,289.6,324.6,287.1z"/>
								<polygon class="st21" points="326.3,286 326.3,286.6 326,286.1 								"/>
								<path class="st21" d="M322.5,288.2c-0.8,1.4-0.7-1.1-1.4-0.5c0,0.1,0,0.2,0,0.4l-0.4-0.3l-0.1,0.3c0.3-0.9-0.1-1.4-0.1-2.1
									c0.7-0.8-0.1,1.2,0.6,0.3c0-0.4,0.1-1.1,0.1-1.4c0.1,0.5,0,1.1,0,1.6c0.3,0.2,0.3-0.4,0.4-0.7c0.2,0.6-0.1,1.9,0.4,1.7
									c0.5-0.7,0.1-1.3,0.6-0.8c-0.6,1.4,0.6-0.1,0.6,0.9c0.5-0.2,0.9-1.1,0.9-1.6c-0.2,1.1,0,2.2,0.2,2.5l-0.5-1.1l-0.5,1.3
									c-0.3-0.7-0.6-0.7-1-0.6L322.5,288.2z"/>
								<path class="st21" d="M321.2,284.8c0-0.1,0-0.2-0.1-0.3C321.2,284.5,321.2,284.6,321.2,284.8z"/>
								<polygon class="st21" points="324.4,285.5 324.3,285.2 324.5,284.9 								"/>
								<path class="st21" d="M321.2,283.8c0.1,0,0,0.4-0.1,0.4l0-0.6L321.2,283.8z"/>
								<polygon class="st21" points="320.6,284.5 320.1,285.2 320.2,284.5 								"/>
								<path class="st21" d="M312.1,281.2c0.5-0.2-0.1,0.5-0.4,1.1C311.2,282.1,312.2,281.6,312.1,281.2z"/>
								<path class="st21" d="M309.1,276.4c0.7-0.1,0.1,0.7,0.3,0.9C308.8,277.3,308.8,276.8,309.1,276.4z"/>
								<path class="st21" d="M310.6,272.9c-0.2,0.2-0.3,0.4-0.5,0.3l-1.3,1.1C308.1,274.1,309.9,273.2,310.6,272.9z"/>
								<path class="st21" d="M309.8,270.7l-0.4,0.6l-0.1-0.2c-0.6,0.3-0.8,0.5-1.3,0.9C308.2,271.6,308.7,271.1,309.8,270.7z"/>
								<path class="st21" d="M307.8,272.5c0-0.1,0-0.1,0-0.2C308.1,272.3,308.3,272.2,307.8,272.5z"/>
								<path class="st21" d="M307.8,272.2c0.1,0,0.1-0.1,0.2-0.1c0,0.1-0.1,0.2-0.1,0.3C307.7,272.4,307.6,272.4,307.8,272.2z"/>
								<path class="st21" d="M308.9,270.8c0-0.2-0.1-0.4-0.1-0.7l0.4,0.1C308.3,270.6,309.9,270.3,308.9,270.8z"/>
								<path class="st21" d="M307,267.6l-1,0.1c-0.3-0.4,1.7-1.4,0.1-1.4c0.6,0.1,1-0.6,1.4-0.1C306.7,266.7,306.7,267.3,307,267.6
									z"/>
								<path class="st21" d="M305.2,266.2c-0.3,0.1-0.5,0-0.8,0c-0.1-0.2,0.3-0.4,0.7-0.4C303.9,266.2,306,265.9,305.2,266.2z"/>
								<path class="st21" d="M305,264c0,0.1-0.1,0.3-0.4,0.2c0-0.4,1.1-0.4,1.8-0.7C307.1,263.7,305.6,264.2,305,264z"/>
								<path class="st21" d="M297.5,260.8c0.9,0,0.7,0.4,0.5,0.5C298.1,261.2,297.8,260.9,297.5,260.8z"/>
								<polygon class="st21" points="304.6,260.6 304.8,260.7 303.5,260.8 								"/>
								<polygon class="st21" points="305.3,258 306.1,257.7 306,258.2 								"/>
								<path class="st21" d="M305.1,257.5l0.1-0.4l0.3,0.2C305.8,257.5,305.1,257.4,305.1,257.5z"/>
								<path class="st21" d="M305.4,256.2c-0.1,0,0.1,0.1,0.2,0.1l-0.6,0.4L305.4,256.2z"/>
								<path class="st21" d="M300.9,248.5c-0.9,0-0.3-0.4-0.4-0.5C300.7,248,301.7,248.4,300.9,248.5z"/>
							</g>
						</g>
					</g>
				</g>
			</g>
			<path class="st0" d="M181.8,235l-3.3,47.6c0,0,10.5-3.8,14.7-6.6c4.2-2.8,8.3-35.7,8.3-35.7S180.6,235.9,181.8,235z"/>
			<g>
				<defs>
					<path id="SVGID_00000116235034960958980550000016908550800676352144_" d="M181.8,235l-3.3,47.6c0,0,10.5-3.8,14.7-6.6
						c4.2-2.8,8.3-35.7,8.3-35.7S180.6,235.9,181.8,235z"/>
				</defs>
				<clipPath id="SVGID_00000003823690421988775400000015382682045856418976_">
					<use xlink:href="#SVGID_00000116235034960958980550000016908550800676352144_"  style="overflow:visible;"/>
				</clipPath>
				<g style="opacity:0.58;clip-path:url(#SVGID_00000003823690421988775400000015382682045856418976_);">
					<g>
						<g>
							<g>
								<path class="st21" d="M187.7,244.7c0,0.1-0.1,0.1-0.1,0.2C187.6,244.9,187.6,244.9,187.7,244.7z"/>
								<path class="st21" d="M183.9,241.1C183.9,241.1,183.9,241.1,183.9,241.1L183.9,241.1L183.9,241.1z"/>
								<path class="st21" d="M183.9,241l0.2-0.2C184.1,240.9,184,241,183.9,241z"/>
								<path class="st21" d="M186.6,246.4c0,0.1-0.1,0.2-0.2,0.3L186.6,246.4z"/>
								<path class="st21" d="M185.4,246.8c0,0-0.1,0.1-0.1,0.1C185.3,246.8,185.4,246.8,185.4,246.8z"/>
								<path class="st21" d="M191.6,247.6C191.6,247.5,191.6,247.5,191.6,247.6C191.6,247.5,191.6,247.5,191.6,247.6z"/>
								<path class="st21" d="M191.5,248.2C191.5,248.2,191.6,248.2,191.5,248.2l0,0.1C191.5,248.3,191.5,248.2,191.5,248.2z"/>
								<path class="st21" d="M191.1,248.3L191.1,248.3C191.2,248.4,191.1,248.4,191.1,248.3z"/>
								<path class="st21" d="M190.8,252.5l-0.2,0.2C190.7,252.6,190.8,252.6,190.8,252.5z"/>
								<path class="st21" d="M191.7,247.3c0,0.1-0.1,0.1-0.1,0.2C191.6,247.4,191.6,247.4,191.7,247.3z"/>
								<path class="st21" d="M187.8,244.6C187.8,244.7,187.7,244.7,187.8,244.6C187.7,244.7,187.8,244.7,187.8,244.6z"/>
								<path class="st21" d="M186.9,246.6L186.9,246.6C186.9,246.6,186.9,246.6,186.9,246.6z"/>
								<path class="st21" d="M182.8,239.4c0-0.1,0-0.1,0-0.2C182.9,239.2,182.9,239.3,182.8,239.4z"/>
								<path class="st21" d="M190.2,247.1c-0.6,0.6,0.1,0.2-0.5,0.7c0.1-0.2,0.1-0.4-0.2-0.1c-0.3,0.4,0.2,0.1-0.3,0.7l0.1-0.3
									c-0.3,0.2-0.6,0.7-0.6,0.6c0.6-0.8-0.6,0-0.6-0.2l0,0.1l-0.5,0.2c0,0,0,0,0,0c0,0,0.1-0.1,0.1-0.1c-0.4,0.3-0.8,0.4-0.8,0.2
									c0.3-0.4-0.3-0.6,0-0.9c0,0.2,0,0.2,0.2,0.2l0.5-0.5c-0.1-0.1-0.5,0.4-0.3,0c0.7-0.6,0.2,0.2,0.3,0.2
									c0.1-0.2,0.2-0.3,0.2-0.5c0.2,0.2,0.6,0.1,0,0.9c0.2-0.1,0.4-0.4,0.5-0.5c-0.2,0.5,0.5-0.3,0.2,0.2c0.6-0.6,0.1-0.6,0.3-1
									c-0.6,0.3-0.4-0.3-0.5-0.6c-0.5,0.4-0.7,0.9-1,1.1c-0.5,0.1,0.1-0.4,0.2-0.8c-0.3,0-0.8,0.7-1,0.5l-0.2,0.4
									c-0.8,0.5,0.1-0.3-0.1-0.3c0.2-0.1,0.4-0.3,0.4-0.2c0.2-0.2,0.3-0.4,0.3-0.4l0,0c0.3-0.3,0.6-0.7,0.3-0.6
									c-0.3,0.4-0.4,0.2-0.6,0.3l0,0.1c0-0.2-0.1-0.3-0.1-0.4l-0.1,0.1c0.1-0.2,0.5-0.7,0.3-0.7c-0.2,0.2-0.6,0.8-0.6,0.6
									c-0.3,0.3-0.2,0.4,0,0.4c-0.2,0-0.7,0.4-0.6,0.5c-0.4,0.3,0-0.3-0.2-0.2c0.1-0.1,0.2-0.2,0.3-0.3c-0.5,0.4-0.3-0.2,0.1-0.5
									l-0.2,0.4c0.4-0.4,0.5-0.7,0.8-0.9c-0.7,0.5,0-0.6-0.6-0.2l0.4-0.2c-0.4-0.1,0.1-0.9,0.1-1.3c-0.1,0.3-0.8,0.9-0.4,0.8
									c-0.3-0.1-0.8,0.5-1.2,0.7c-0.4,0,0.6-0.7,0.7-0.9l0,0.2c0.7-0.9-0.6-0.4-0.3-1.1c-0.2,0.2-0.1,0.2-0.1,0.3
									c-0.5,0.2,0-0.2,0.1-0.4c-0.2-0.1-0.5-0.1-0.9,0.4c-0.2,0,0.3-0.2,0.4-0.5l-0.1,0.1l0.5-0.6c-0.3,0-0.7,0.1-1.2,0.4
									c-0.1-0.4,1.1-1.1,1.1-1.4c-0.4,0.1-0.4,0.3-0.6,0.5l-0.1-0.2c-0.5,0.5-0.1,0.4-0.8,1c0.6-0.7,0-0.4,0.3-0.9l0.1,0
									c0.4-0.5-0.1-0.4-0.1-0.6c-0.3,0.3-0.2,0.4-0.2,0.6c-0.3,0-0.4-0.5,0.2-1.1c-0.2,0-0.5,0-0.7,0.3c-0.3-0.2,0.8-0.8,0.4-0.9
									l-0.5,0.4c-0.9,0.2,0.2-1-0.6-0.8l0.6-0.4c-0.3,0.1-0.5,0.1-0.7,0.2l-0.1,0.3c-0.6,0.2,0.4-0.5-0.1-0.4
									c0.2-0.1,0.7-0.3,0.9-0.4c0,0.8,1.3,0.7,1.1,1.7c-0.1,0-0.2,0.1-0.3,0.2c0.2,0,0.1,0.2,0.4-0.1l0-0.1c0,0.2,0.8-0.2,0.8-0.1
									c-0.3,0.4,0.4,0.2-0.3,0.6l0.5-0.2c-0.2,0.2-0.6,0.5-0.6,0.6c0.1,0.1,0.4-0.2,0.5-0.4c0.5,0.2,0.8,0.6,0.9,1.2l0.2-0.3
									c0.2,0-0.3,0.8,0.4,0c-0.2,0.4,0.6,0.3-0.2,1c0.9-0.5,0.7,0.1,0.8,0.5c-0.7,0.5,0,0.4-0.3,0.7c0.5-0.4,0.4-0.7,0.7-1
									c-0.6,1,1.2,0.1-0.1,1.4c0.1,0,0.1-0.1,0.2-0.1c0,0,0.3-0.1,0.4-0.1c-0.2,0.2-0.4,0.2-0.4,0.4c0.1,0,0.4-0.3,0.6-0.5
									c-0.1,0.4,0,0.8-0.5,1.3c0.2-0.1,0.5-0.3,0.6-0.5c-0.2,0.6,0.3,0.2,0.3,0.7c-0.1-0.1,0.5-0.6,0.2-0.5
									c0.8-0.6,0.3,0.5,0.8,0.4l-0.4,0.5c0,0.2,0.5-0.2,0.6-0.5c0.5-0.1,0.3,0.3,0.5,0.5c0.1,0,0.1-0.1,0.1-0.1l0.2,0.2
									c-0.1,0.1-0.2,0.5-0.5,0.7C190.4,247.3,190.5,247.1,190.2,247.1z"/>
								<path class="st21" d="M190.1,247.6L190.1,247.6L190.1,247.6C190.1,247.6,190.1,247.6,190.1,247.6z"/>
								<path class="st21" d="M186,247.3c0.1-0.1,0.2-0.1,0.3-0.1C186.1,247.3,186,247.3,186,247.3z"/>
								<path class="st21" d="M191.7,250.5c-0.7,0.7-0.1-0.3-0.3-0.1c0,0.2-0.4,0.6-0.6,0.8c0.7-1.1-0.3,0.1-0.4-0.4
									c-0.3,0.3-0.2,0.5-0.5,0.8c0.1-0.4,0-0.7,0.4-1.2c-0.2-0.2-0.5-0.2-0.6-0.4c0,0.4-0.4,0.6-0.7,1.1c0.4-0.8,0.7-1.8,1.1-2.8
									c-0.6,0.5-0.6,0.6-1.1,1.1c-0.6,0.1,0.4-0.6,0-0.7l0.2,0c0-0.3,0.6-0.8,0.9-1.2l0.2,0.4c0.4-0.4,0.1-0.5,0.2-0.7
									c0.4-0.5,0.5-0.2,0.8-0.6c-0.3,0.3-0.1,0.4-0.1,0.6l0.2-0.2c0.3-0.1-0.1,0.5,0,0.6c0.1-0.1,0.1-0.1,0.1-0.1
									c-0.2,0.3-0.4,0.6-0.4,0.8l0-0.1c-0.4,0.6-0.4,1.2-1.1,1.6l0.5,0.1c0.5-0.6,1.2-1.5,1.1-1.7l0.2-0.3c0.4-0.2,0,0.8-0.5,1.2
									c-1.1,1.5,0.4,0.5,0.2,1.2c0.3-0.4,0.3-0.6,0.5-0.9c0-0.1-0.1-0.1-0.3,0.2c-0.1-0.5,1.1-1.1,0.7-1.3
									c-0.3,0.1-0.3,0.8-0.6,0.6l0.8-1.2c0.1,0.1,0.1,0.4,0.1,0.7c0,1.2,1,1,1,1c0.4,0.4,0.9,0.8,1.3,1.3c0.4,0.4,0.9,0.8,1.3,1.1
									c0.2,0.3,0.3,0.3-0.1,1.6c-0.2,0.2-0.4,0-0.5,0.4c0.2-0.5,0.2-0.8,0-0.8c-0.3,0.4,0.1,0.3-0.1,0.4l-0.1,0
									c-0.1,0.2-0.2,0.4-0.1,0.4c-0.6,0.5-0.9,0.2-0.6-0.7c-0.4,0.3-0.3,0.7-0.4,1.1c-0.8-0.1-1.2-0.4-1.8-0.8
									c0.5-0.7,0.3-0.5,0.5-1l-0.2,0.2c0.1-0.1,0.4-0.7,0.6-0.7c-0.7,0.3,0.3-1.2,0.4-1.7l-0.3,0.4c-0.1-0.2-0.2-0.2-0.2-0.5
									c-0.8,0.5,0.2,0.3-0.6,1.1l0-0.2c-0.2,0.4-0.6,1-0.7,1.3c0.2-0.8-0.6-0.1-0.5-0.8c-0.3,0.4-0.3,0.9-0.2,1
									c-0.1,0-0.1-0.5-0.4-0.1l0.4-0.5c-0.1-0.2-0.3,0.5-0.7,0.7C190.2,252.3,191.8,251.1,191.7,250.5z"/>
								<path class="st21" d="M187.6,247.2c0.1,0,0.1,0.1,0.1,0.1C187.6,247.3,187.6,247.3,187.6,247.2z"/>
								<path class="st21" d="M187.5,248.8c-0.1,0.1-0.1,0.1-0.1,0.2C187.4,248.9,187.4,248.8,187.5,248.8z"/>
								<path class="st21" d="M186.9,249.5c0.2-0.2,0.2-0.2,0.4-0.5C187.2,249.2,187.4,249.3,186.9,249.5z"/>
								<path class="st21" d="M176.8,235.1c0.2-0.1,0.3-0.3,0.4-0.3l-0.1,0.3L176.8,235.1z"/>
								<path class="st21" d="M177.6,235.3l0.3,0.1l-0.7,0.5C177.1,235.6,177.7,235.5,177.6,235.3z"/>
								<path class="st21" d="M178.3,235.6l0.2-0.1C178.4,235.6,178.3,235.6,178.3,235.6z"/>
								<path class="st21" d="M177.9,235.8l-0.5,0.3l0.3-0.4L177.9,235.8c0.1-0.2,0.2-0.1,0.3-0.2l-0.4,0.3
									C177.9,235.9,178,235.8,177.9,235.8z"/>
								<path class="st21" d="M178,236c-0.1,0-0.1,0-0.2,0.1C177.9,236,177.9,236,178,236z"/>
								<path class="st21" d="M179.3,236c-0.2,0.1-0.5,0.3-0.7,0.4c-0.3-0.1,0.5-0.5,0.2-0.5c-0.3,0.5-0.4,0.1-0.7,0.1
									c0.6-0.2,1-0.3,1.2-0.2l-0.3,0.2C178.9,236.1,179.1,236,179.3,236z"/>
								<path class="st21" d="M178.9,237.4l0.4-0.4c-0.3,0.1-0.4-0.1-0.9,0.2c0-0.1,0.3-0.3,0.4-0.4c-0.3,0.1-0.5,0.1-0.2-0.1
									c0.5,0.2,0.6,0,0.9,0.2c0.1-0.1,0.1-0.1,0-0.1l0.4,0C179.3,237.1,179.4,237.3,178.9,237.4z"/>
								<path class="st21" d="M179.5,237.4c-0.1-0.2,0.4-0.5,0.7-0.6l-0.2,0.5C180,237.2,179.9,237.1,179.5,237.4z"/>
								<path class="st21" d="M179.6,237.6c0.3-0.1,0.9-0.3,0.5,0.1C180,237.5,179.3,238,179.6,237.6z"/>
								<path class="st21" d="M180.7,238.4l-0.5-0.1c-0.7,0.3-0.1,0.3-0.4,0.5c-0.3-0.2,0-0.2,0.3-0.7c-0.1,0,0.2-0.4,0.3-0.6
									C180.1,238.4,181.7,237.4,180.7,238.4z"/>
								<polygon class="st21" points="179.7,238.2 179.9,238.1 179.8,238.3 								"/>
								<path class="st21" d="M181.8,238.6c0.9-0.3-0.2,0.6,0.2,0.6c0,0,0.1-0.1,0.2-0.2l0,0.2l0.2-0.1c-0.5,0.3-0.5,0.6-0.8,0.9
									c-0.6,0.2,0.5-0.5-0.1-0.3c-0.2,0.2-0.5,0.4-0.6,0.6c0.2-0.3,0.4-0.5,0.6-0.7c0-0.1-0.3,0.1-0.4,0.2
									c0.2-0.3,0.8-0.7,0.6-0.8c-0.5,0.1-0.6,0.5-0.5,0.2c0.8-0.4-0.3-0.1,0.2-0.5c-0.2-0.1-0.7,0.1-1,0.3c0.6-0.4,1-0.8,1.1-1
									l-0.3,0.6l0.7-0.3C181.5,238.5,181.7,238.6,181.8,238.6L181.8,238.6z"/>
								<path class="st21" d="M180.9,240.3c0,0-0.1,0.1-0.1,0.1C180.8,240.4,180.9,240.4,180.9,240.3z"/>
								<polygon class="st21" points="180.1,239.1 180,239.2 179.8,239.3 								"/>
								<path class="st21" d="M180.6,240.8c0,0,0.2-0.2,0.2-0.2l-0.3,0.3L180.6,240.8z"/>
								<polygon class="st21" points="181.1,240.6 181.5,240.4 181.2,240.7 								"/>
								<path class="st21" d="M184,243.7c-0.3,0.1,0.1-0.3,0.4-0.5C184.6,243.3,184,243.5,184,243.7z"/>
								<path class="st21" d="M185.2,246.1c-0.4,0.1-0.1-0.3-0.2-0.4C185.3,245.6,185.3,245.9,185.2,246.1z"/>
								<path class="st21" d="M184.6,248.2c0.1-0.1,0.1-0.2,0.2-0.2l0.6-0.8C185.8,247.2,184.9,247.9,184.6,248.2z"/>
								<path class="st21" d="M185.4,249.3l0.1-0.4l0.1,0.1c0.2-0.3,0.3-0.5,0.5-0.7C186.1,248.4,185.9,248.8,185.4,249.3z"/>
								<path class="st21" d="M186.1,247.9C186.1,248,186.1,248,186.1,247.9C186,248.1,185.9,248.2,186.1,247.9z"/>
								<path class="st21" d="M186.2,248.1C186.1,248.1,186.1,248.2,186.2,248.1C186.1,248.1,186.1,248.1,186.2,248.1
									C186.2,248,186.3,247.9,186.2,248.1z"/>
								<path class="st21" d="M185.8,249.1l0.2,0.3l-0.2,0C186.2,249,185.4,249.5,185.8,249.1z"/>
								<path class="st21" d="M187.6,250.1l0.4-0.4c0.3,0.1-0.4,1.2,0.3,0.6c-0.3,0.2-0.3,0.6-0.6,0.5
									C188,250.3,187.8,250.1,187.6,250.1z"/>
								<path class="st21" d="M188.8,250c0.1-0.2,0.2-0.2,0.3-0.3c0.1,0,0,0.3-0.2,0.4C189.4,249.5,188.5,250.4,188.8,250z"/>
								<path class="st21" d="M189.5,250.8c0-0.1-0.1-0.2,0.1-0.2c0.1,0.2-0.3,0.6-0.5,1C188.7,251.7,189.2,250.9,189.5,250.8z"/>
								<path class="st21" d="M193.4,248.6c-0.3,0.4-0.4,0.2-0.3,0.1C193.1,248.7,193.3,248.7,193.4,248.6z"/>
								<polygon class="st21" points="190.8,251.7 190.7,251.8 191.2,251.2 								"/>
								<polygon class="st21" points="191.5,252.8 191.4,253.3 191.2,253.1 								"/>
								<path class="st21" d="M191.8,252.9l0.1,0.2l-0.2,0.1C191.6,253.2,191.8,252.9,191.8,252.9z"/>
								<path class="st21" d="M192.2,253.3c0-0.1-0.1,0-0.1,0.1l0-0.4L192.2,253.3z"/>
								<path class="st21" d="M196.5,252.3c0.2-0.5,0.2-0.1,0.3-0.2C196.7,252.3,196.3,252.8,196.5,252.3z"/>
							</g>
						</g>
					</g>
				</g>
			</g>
			<path class="st0" d="M170.9,105.9c0,0-18.2-3.6-21-4.2c-2.8-0.6-7.2,3.8-5.3,15.4c1.9,11.6,8,18.3,15.8,22.3s8.6,4.3,9,5.1
				c0.5,0.8,3.2,12.2,3,13.2c-0.2,1-13.6,24.7-3.4,58.1c10.2,33.4,51.2,56.1,61.9,60.3c0,0-10.7,1.7-10.5,16.5c0,0,77.2,0,80.2,0
				s7.9-20.7,3.6-47.9c-4.3-27.2-26.2-44.4-38.5-56.6c-12.3-12.3-21.1-27.1-25.9-41c-4.9-13.9-6-19.2-7.1-22.4
				c0,0-1.2-14.2-1.4-21.3c-0.2-7.1-0.9-16.4-6.2-17.8s-10.6,3.9-16.8,11.6C208.3,97,179.2,89.4,170.9,105.9z"/>
			<g>
				<defs>
					<path id="SVGID_00000020374110599220848730000009928330331597855883_" d="M231.9,275.8c-0.6,0.2-0.9,0.2-0.9,0.2
						c-3.2-1.3-9.2-4.2-16.3-8.7c2.5-6.4,5.1-13.1,7.4-18.8c2.4,1.5,4.7,2.9,6.9,4.1C225.8,266.8,231.9,275.8,231.9,275.8z"/>
				</defs>
				<clipPath id="SVGID_00000177445317528180828880000000465908039488421033_">
					<use xlink:href="#SVGID_00000020374110599220848730000009928330331597855883_"  style="overflow:visible;"/>
				</clipPath>
				<g style="opacity:0.58;clip-path:url(#SVGID_00000177445317528180828880000000465908039488421033_);">
					<g>
						<g>
							<g>
								<path class="st21" d="M216.6,260.2c0.1,0,0.2-0.1,0.2-0.1C216.8,260.2,216.7,260.2,216.6,260.2z"/>
								<path class="st21" d="M215.3,269.9C215.3,270,215.3,270,215.3,269.9L215.3,269.9L215.3,269.9z"/>
								<path class="st21" d="M215.2,270L215,270C215.1,269.9,215.2,269.9,215.2,270z"/>
								<path class="st21" d="M218.5,259.7c0.1-0.1,0.2-0.1,0.4-0.2L218.5,259.7z"/>
								<path class="st21" d="M219.3,260.9c0,0,0.1,0,0.1,0.1C219.4,260.9,219.4,260.9,219.3,260.9z"/>
								<path class="st21" d="M218.2,251.4c0,0-0.1,0-0.1,0C218.1,251.4,218.2,251.4,218.2,251.4z"/>
								<path class="st21" d="M218.8,250.8c0-0.1,0-0.1,0-0.2l0.1,0C219,250.7,218.9,250.8,218.8,250.8z"/>
								<path class="st21" d="M219.1,251.2l0.1-0.1C219.1,251.1,219.1,251.2,219.1,251.2z"/>
								<path class="st21" d="M223.3,247.9l0.3,0.1C223.5,247.9,223.4,247.9,223.3,247.9z"/>
								<path class="st21" d="M217.8,251.4c0.1,0,0.2,0,0.3,0C218,251.4,218,251.5,217.8,251.4z"/>
								<path class="st21" d="M216.5,260.2c0.1,0,0.1,0,0.1,0C216.5,260.2,216.5,260.2,216.5,260.2z"/>
								<path class="st21" d="M218.6,259.1L218.6,259.1C218.6,259.1,218.6,259.1,218.6,259.1z"/>
								<path class="st21" d="M214.8,273.6c0,0.1-0.1,0.2-0.1,0.3C214.6,273.7,214.6,273.6,214.8,273.6z"/>
								<path class="st21" d="M218.1,253.9c0.7,0.3,0.1-0.3,0.8-0.1c-0.2,0.1-0.4,0.2,0,0.4c0.5,0,0.1-0.4,0.7-0.3l-0.3,0.2
									c0.3,0.3,0.8,0.2,0.7,0.3c-0.9,0,0.1,0.9-0.1,1.1l0.1-0.1l0.3,0.5c0,0,0,0,0,0c-0.1,0-0.1,0-0.2,0c0.4,0.3,0.6,0.6,0.4,0.9
									c-0.5,0-0.4,0.9-0.9,1c0.2-0.1,0.2-0.2,0.1-0.4l-0.6-0.1c-0.1,0.3,0.5,0.2,0.1,0.4c-0.8-0.3,0.1-0.4,0.1-0.6
									c-0.2,0-0.4,0.1-0.5,0.2c0.1-0.4-0.1-0.9,0.8-1c-0.1-0.2-0.5-0.2-0.6-0.1c0.5-0.2-0.4-0.3,0.1-0.5c-0.8-0.1-0.6,0.5-1,0.7
									c0.5,0.5-0.2,0.9-0.4,1.3c0.5,0.2,1.1,0,1.4,0.2c0.3,0.5-0.4,0.4-0.8,0.5c0.1,0.4,0.9,0.3,0.8,0.7l0.4-0.2
									c0.7,0.5-0.4,0.2-0.3,0.4c-0.2-0.1-0.4-0.2-0.3-0.4c-0.3-0.1-0.4,0.1-0.5,0.1l0-0.1c-0.4,0-0.8-0.1-0.7,0.3
									c0.5-0.1,0.3,0.3,0.5,0.5l0.1-0.1c-0.2,0.2-0.2,0.4-0.3,0.6l0.1,0c-0.2,0.1-0.8,0.1-0.7,0.3c0.2,0,0.9-0.1,0.8,0.1
									c0.4,0,0.5-0.2,0.4-0.5c0.1,0.3,0.6,0.5,0.7,0.2c0.4,0.2-0.3,0.2-0.1,0.4c-0.1-0.1-0.3,0-0.4-0.1c0.6,0.1-0.1,0.6-0.5,0.5
									l0.4-0.2c-0.5-0.1-0.9,0.2-1.1,0c0.7,0.3-0.5,0.7,0.1,1l-0.4-0.2c0.1,0.7-0.9,1-1.2,1.6c0.3-0.2,1.1,0,0.9-0.4
									c0,0.6,0.8,0.3,1.2,0.6c0.2,0.5-0.8,0.1-1.1,0.2l0.2-0.3c-1,0.2,0,1.2-0.7,1.7c0.2,0.1,0.2-0.1,0.3-0.2
									c0.4,0.4-0.2,0.3-0.4,0.4c0,0.3,0.2,0.7,0.8,0.6c0.1,0.3-0.4-0.1-0.6,0l0.1,0.1l-0.7,0.2c0.1,0.3,0.4,0.7,1,0.9
									c-0.2,0.6-1.4,0-1.7,0.4c0.3,0.3,0.5,0,0.7,0l-0.1,0.4c0.7,0,0.4-0.4,1.2-0.3c-0.9,0.2-0.3,0.4-0.9,0.8l-0.1,0
									c-0.6,0.1-0.3,0.7-0.4,0.9c0.3-0.1,0.4-0.4,0.6-0.5c0.2,0.3-0.2,1.1-0.9,1.3c0.1,0.2,0.3,0.6,0.6,0.4c0,0.6-1,0.1-0.9,0.7
									l0.5,0c0.7,0.7-0.8,1.1-0.2,1.7l-0.7,0c0.3,0.2,0.4,0.4,0.6,0.5l0.3-0.3c0.5,0.3-0.6,0.2-0.2,0.6c-0.2,0-0.6-0.3-0.8-0.3
									c0.5-1.2-0.3-2.5,0.5-3.6c0.1,0.1,0.2,0.1,0.3,0.1c-0.1-0.2,0.1-0.4-0.3-0.4l-0.1,0c0.2-0.3-0.6-0.7-0.5-0.9
									c0.5-0.1-0.1-0.7,0.7-0.4l-0.4-0.3c0.3,0,0.7,0.1,0.8,0c0-0.2-0.3-0.3-0.5-0.1c-0.2-0.9,0.1-1.9,0.5-2.7l-0.4,0.2
									c-0.1-0.2,0.8-0.6-0.2-0.6c0.4-0.3,0-1.2,0.9-1c-0.9-0.5-0.2-1.1,0.1-1.6c0.8,0.3,0.3-0.4,0.7-0.5c-0.6-0.2-0.7,0.3-1.2,0.3
									c1.1-0.4-0.3-1.8,1.3-1.7c0-0.1-0.1-0.1-0.2-0.1c0-0.1-0.2-0.3-0.3-0.5c0.3,0,0.4,0.3,0.5,0c0-0.2-0.5-0.2-0.7-0.3
									c0.5-0.3,0.8-0.9,1.4-0.9c-0.1-0.2-0.5-0.4-0.6-0.3c0.7-0.5,0.1-0.7,0.5-1.2c-0.1,0.2-0.7-0.1-0.5,0.3
									c-0.8-0.5,0.4-1,0.1-1.6l0.6-0.1c0.2-0.3-0.4-0.5-0.6-0.3c-0.2-0.6,0.2-0.8,0.3-1.2c-0.1,0-0.2-0.1-0.2,0l0.1-0.6
									c0.2,0,0.5-0.2,0.9,0C218.2,253.5,217.9,253.5,218.1,253.9z"/>
								<path class="st21" d="M218.5,253.5L218.5,253.5L218.5,253.5C218.5,253.5,218.5,253.5,218.5,253.5z"/>
								<path class="st21" d="M219.6,259.5c-0.1-0.1-0.2-0.2-0.2-0.2C219.5,259.4,219.5,259.5,219.6,259.5z"/>
								<path class="st21" d="M221.2,248.3c0.8,0.4-0.3,0.3-0.1,0.6c0.2-0.2,0.7,0,0.9,0.1c-1.2-0.1,0.1,0.4-0.3,0.9
									c0.4,0.1,0.5-0.1,0.9,0c-0.4,0.2-0.7,0.6-1.3,0.5c-0.2,0.5-0.1,0.9-0.3,1.2c0.4-0.3,0.6,0.1,1.3,0c-0.8,0.2-2,0.7-3,1
									c0.7,0.3,0.7,0.3,1.4,0.4c0.3,0.8-0.7,0-0.7,0.7l0-0.3c-0.3,0.2-0.9,0.1-1.4,0l0.3-0.7c-0.5-0.1-0.5,0.3-0.7,0.4
									c-0.6,0.1-0.3-0.5-0.8-0.5c0.4,0,0.4-0.3,0.6-0.4l-0.2-0.1c-0.2-0.4,0.5-0.4,0.6-0.7c-0.1,0-0.1-0.1-0.2-0.1
									c0.3,0,0.7,0,0.8-0.2l-0.1,0.1c0.7-0.1,1.2-0.6,1.8,0l0-0.8c-0.7-0.1-1.7-0.3-1.9,0.1l-0.3,0c-0.3-0.4,0.8-0.7,1.3-0.3
									c1.7,0.2,0.4-1.1,1.2-1.4c-0.4-0.2-0.7,0.1-1,0.1c-0.1,0.1-0.1,0.3,0.2,0.4c-0.5,0.6-1.3-0.6-1.4,0.2
									c0.1,0.4,0.8-0.2,0.7,0.3l-1.3,0c0.1-0.3,0.4-0.6,0.7-0.8c1.3-1.3,1-2.6,1-2.6c0.9-2.2,1.9-4.4,2.9-6.5
									c0.5-0.6,0.5-0.9,1.8-0.6c0.2,0.2-0.1,0.6,0.3,0.6c-0.5-0.1-0.8,0-0.9,0.4c0.4,0.2,0.3-0.2,0.4-0.1l0,0.1
									c0.2,0.1,0.4,0.1,0.5,0c0.5,0.7,0,1.3-0.9,1.3c0.3,0.5,0.7,0,1.1,0c-0.1,1.2-0.5,2-0.9,3.1c-0.8-0.3-0.5-0.1-1.1-0.1
									l0.2,0.2c-0.1-0.1-0.7-0.1-0.8-0.4c0.3,0.9-1.3,0.4-1.8,0.8l0.4,0.1c-0.2,0.4-0.3,0.5-0.6,0.7c0.5,0.9,0.3-0.5,1.2,0
									l-0.2,0.1c0.4,0,1.1,0.1,1.4,0.1c-0.8,0.4,0,0.9-0.7,1.4c0.5,0.1,1-0.4,1.1-0.5c0,0.2-0.5,0.5-0.1,0.7l-0.6-0.1
									c-0.2,0.4,0.5,0.1,0.8,0.4C223.2,248.9,221.8,247.6,221.2,248.3z"/>
								<path class="st21" d="M218.9,257.5c0-0.1,0-0.2,0.1-0.3C219,257.3,219,257.4,218.9,257.5z"/>
								<path class="st21" d="M220.4,256c0.1,0,0.2,0,0.2,0C220.6,256,220.5,256,220.4,256z"/>
								<path class="st21" d="M221.2,256c-0.2-0.1-0.3,0-0.6,0C220.8,255.9,220.9,255.6,221.2,256z"/>
								<path class="st21" d="M217.9,283.3c0,0,0-0.1,0-0.1c0,0.1,0,0.2,0,0.2C217.9,283.4,217.9,283.3,217.9,283.3L217.9,283.3
									C217.9,283.3,217.9,283.3,217.9,283.3L217.9,283.3L217.9,283.3z"/>
								<path class="st21" d="M217.7,283.5c-0.1,0-0.2,0.1-0.3,0.1c0.2-0.2,0.4-0.4,0.5-0.6C218.1,283.1,217.6,283.4,217.7,283.5z"
									/>
								<path class="st21" d="M217.1,283.3l-0.1,0.1C217,283.4,217,283.3,217.1,283.3z"/>
								<path class="st21" d="M217.3,283.1l0.5-0.3c-0.1,0.1-0.2,0.3-0.2,0.4C217.5,283.2,217.5,283.2,217.3,283.1
									c-0.1,0.2-0.2,0.1-0.3,0.2c0.1-0.1,0.2-0.2,0.3-0.3C217.3,283.1,217.3,283.2,217.3,283.1z"/>
								<path class="st21" d="M217.2,282.9c0.1,0,0.1,0,0.2,0C217.4,282.8,217.3,282.9,217.2,282.9z"/>
								<path class="st21" d="M216,282.4c0.2,0,0.5-0.2,0.7-0.3c0.3,0.3-0.5,0.5-0.2,0.7c0.3-0.6,0.4,0.1,0.7,0
									c-0.5,0.1-0.9,0.1-1.2-0.2l0.3-0.1C216.4,282.3,216.2,282.5,216,282.4z"/>
								<path class="st21" d="M216.6,280.5l-0.5,0.3c0.3,0,0.3,0.5,0.9,0.4c-0.1,0.2-0.3,0.2-0.4,0.4c0.3,0.1,0.5,0.1,0.2,0.3
									c-0.5-0.6-0.6-0.4-0.8-0.9c-0.1,0-0.1,0.1-0.1,0.2l-0.3-0.4C216.1,280.6,216.1,280.1,216.6,280.5z"/>
								<path class="st21" d="M216.1,279.9c0,0.3-0.5,0.5-0.9,0.4c0.1-0.2,0.3-0.5,0.4-0.7C215.7,279.8,215.6,280.1,216.1,279.9z"/>
								<path class="st21" d="M216.1,279.5c-0.3-0.1-0.9-0.3-0.3-0.5C215.7,279.3,216.5,279.1,216.1,279.5z"/>
								<path class="st21" d="M215.6,277.3l0.3,0.6c0.7,0.1,0.2-0.3,0.5-0.5c0.1,0.5-0.1,0.3-0.5,0.7c0,0.1-0.3,0.4-0.5,0.5
									C216,277.9,214.3,277.9,215.6,277.3z"/>
								<polygon class="st21" points="216.3,278.5 216,278.6 216.2,278.3 								"/>
								<path class="st21" d="M214.9,275.8c-0.8-0.4,0.5-0.7,0.2-1.1c-0.1,0-0.1,0-0.2,0.1l0.1-0.3l-0.2,0c0.5,0.1,0.7-0.3,1.1-0.4
									c0.5,0.4-0.6,0.1-0.1,0.5c0.2-0.1,0.6-0.1,0.8-0.1c-0.3,0.2-0.6,0.2-0.9,0.3c-0.1,0.2,0.2,0.2,0.4,0.2
									c-0.3,0.2-1,0.2-0.9,0.6c0.4,0.3,0.7-0.1,0.5,0.3c-0.8-0.3,0.1,0.4-0.4,0.6c0.1,0.3,0.6,0.6,0.9,0.5c-0.6,0-1.2,0.2-1.3,0.5
									l0.5-0.5l-0.7-0.2C215.1,276.3,215,276.1,214.9,275.8L214.9,275.8z"/>
								<path class="st21" d="M216.6,274.4c0,0,0.1-0.1,0.1-0.1C216.7,274.3,216.7,274.3,216.6,274.4z"/>
								<polygon class="st21" points="216.4,277 216.6,276.8 216.8,276.9 								"/>
								<path class="st21" d="M217.1,274.1c0,0.1-0.2,0.1-0.2,0l0.3-0.1L217.1,274.1z"/>
								<polygon class="st21" points="216.7,273.8 216.3,273.5 216.6,273.5 								"/>
								<path class="st21" d="M217.3,266.4c0.2,0.3-0.3,0.2-0.6,0.1C216.7,266.1,217.1,266.6,217.3,266.4z"/>
								<path class="st21" d="M218.9,261.9c0.3,0.3-0.3,0.5-0.3,0.7C218.4,262.4,218.6,262.1,218.9,261.9z"/>
								<path class="st21" d="M220.9,260.4c-0.2,0-0.3,0.1-0.3-0.1l-0.9,0C219.5,259.9,220.5,260.3,220.9,260.4z"/>
								<path class="st21" d="M221.6,258.3l-0.4,0.3l0-0.2c-0.4,0-0.5,0-0.8,0.1C220.6,258.2,221,258.1,221.6,258.3z"/>
								<path class="st21" d="M220.1,258.7c0,0,0-0.1,0.1-0.1C220.3,258.7,220.4,258.7,220.1,258.7z"/>
								<path class="st21" d="M220.2,258.5c0,0,0.1,0,0.1,0c-0.1,0.1-0.1,0.1-0.2,0.2C220.1,258.5,220,258.5,220.2,258.5z"/>
								<path class="st21" d="M221.2,257.9l0.2-0.6l0.1,0.3C221,257.5,221.8,257.9,221.2,257.9z"/>
								<path class="st21" d="M221.6,254.6l-0.5-0.2c0-0.4,1.2-0.6,0.5-1c0.3,0.3,0.7-0.1,0.7,0.3
									C221.8,253.8,221.6,254.3,221.6,254.6z"/>
								<path class="st21" d="M221.3,253c-0.2,0-0.2-0.1-0.4-0.2c0-0.2,0.3-0.2,0.4-0.1C220.6,252.6,221.7,253,221.3,253z"/>
								<path class="st21" d="M221.8,251.2c0,0.1-0.1,0.2-0.2,0c0.1-0.3,0.7-0.1,1.1-0.1C222.9,251.5,222,251.5,221.8,251.2z"/>
								<path class="st21" d="M219,247.4c0.4,0.2,0.3,0.4,0.1,0.4C219.2,247.8,219.1,247.5,219,247.4z"/>
								<polygon class="st21" points="222.6,248.5 222.6,248.6 221.9,248.5 								"/>
								<polygon class="st21" points="223.6,246.6 224.1,246.5 223.9,246.9 								"/>
								<path class="st21" d="M223.6,246.2l0.1-0.3l0.1,0.2C224,246.3,223.7,246.1,223.6,246.2z"/>
								<path class="st21" d="M224.1,245.3c-0.1,0,0,0.1,0.1,0.1l-0.4,0.2L224.1,245.3z"/>
								<path class="st21" d="M223.5,239c-0.5-0.1-0.1-0.3-0.1-0.4C223.5,238.6,224,239,223.5,239z"/>
							</g>
						</g>
					</g>
				</g>
			</g>
			<path class="st35" d="M300.6,292.5c-3,0-80.2,0-80.2,0C220.3,277.8,231,276,231,276s0.3-0.1,0.9-0.2c0,0-6.1-9-3-23.1
				c-10.1-5.8-21.8-13.4-33.4-30c-14.1-20.1-7.5-53.8-5.8-65.7c1.7-11.9,2.6-23.9,1.3-26.2c-1.3-2.3-7-0.8-20-6
				c-10.4-4.1-15.2-11-16.7-13.7c0.2-0.1,0.4-0.2,0.5-0.3c2.6-1.6,3.6-4.5,3.9-6.3c0.1-0.3,0-0.7-0.1-1c5.8,1.2,12.3,2.4,12.3,2.4
				c8.3-16.5,37.3-8.9,37.3-8.9c6.2-7.7,11.4-13,16.8-11.6c5.4,1.4,6.1,10.7,6.2,17.8c0.2,7.1,1.4,21.3,1.4,21.3
				c1.1,3.2,2.2,8.5,7.1,22.4c4.9,13.9,13.7,28.8,25.9,41c12.2,12.3,34.2,29.4,38.5,56.6C308.6,271.8,303.7,292.5,300.6,292.5z"/>
			<path class="st23" d="M231,276.1c0,0,6.2-1.9,13.1-1"/>
			<path class="st23" d="M231.9,275.8c0,0-6.9-10.1-2.3-25.7c3.9-13.4,18.5-17.6,24.6-16.9"/>
			<path class="st23" d="M225.1,292.5c0,0-0.5-6.3,3.2-9.9"/>
			<path class="st35" d="M193.9,220.2c0,0-7.6,50.5-9.5,55.9c0,0-13.4,0-13.4,16.5c0,0,31.8,0,33.1,0c1,0,11.2-26.7,18-44
				c2.9-7.5,5.3-13.2,5.9-14.2L193.9,220.2z"/>
			<path class="st23" d="M178.5,292.5c0,0-0.5-6.3,3.2-9.9"/>
			<path class="st23" d="M186.5,292.5c0,0,0.3-5.6,3.1-7.9"/>
			<path class="st23" d="M233.1,292.5c0,0,0.3-5.6,3.1-7.9"/>
			<path class="st69" d="M157.5,102.4c0.9,0.2,1.4,1.1,1.2,2c-0.4,1.8-1.4,4.7-3.9,6.3c-3.9,2.5-9.3,1.2-10.6-1.6
				c-1.3-2.9,2.1-8.5,4.9-8.4C151.1,100.8,155.2,101.8,157.5,102.4z"/>
			
				<ellipse transform="matrix(0.3009 -0.9537 0.9537 0.3009 17.6587 249.7543)" class="st22" cx="179.2" cy="112.8" rx="3.7" ry="2.7"/>
			<path class="st70" d="M191.2,101.5c-1.5-0.5-5.1-1.3-6.4,0c-1.6,1.5,0.4,3.9,4.6,5C194.3,107.7,197.1,103.5,191.2,101.5z"/>
			<path class="st71" d="M216.9,106.3c-1.4-0.8-3.3-1.7-4.6-4s0-4.7,2.6-7.3c2.6-2.5,6.9-5.6,9.2-3.3c2.2,2.2,0.8,13.8-1.1,15.5
				C221.8,108.4,218.2,107,216.9,106.3z"/>
			<path class="st23" d="M148.6,128.7c0,0,2.7,3.6,8.2,4.1c4.8,0.4,7-1.7,7-1.7"/>
			<path class="st23" d="M222.1,248.5c2.9-7.5,5.3-13.2,5.9-14.2"/>
			<g>
				<defs>
					<path id="SVGID_00000117638996022431234500000006422469064312125596_" d="M172.4,157c-0.3-2.8-2.6-11.8-3-12.5
						c-0.1-0.2-0.2-0.3-0.4-0.5c0,0,0,0,0,0s7.7,4.4,16.1,3.3C190.1,146.7,181.7,153.2,172.4,157z"/>
				</defs>
				<clipPath id="SVGID_00000134240626780975535750000010831257013305360780_">
					<use xlink:href="#SVGID_00000117638996022431234500000006422469064312125596_"  style="overflow:visible;"/>
				</clipPath>
				<g style="opacity:0.58;clip-path:url(#SVGID_00000134240626780975535750000010831257013305360780_);">
					<g>
						<g>
							<g>
								<path class="st21" d="M176.6,147.8c0-0.1,0-0.1,0-0.2C176.6,147.5,176.6,147.6,176.6,147.8z"/>
								<path class="st21" d="M182.2,147.6C182.2,147.6,182.2,147.6,182.2,147.6L182.2,147.6L182.2,147.6z"/>
								<path class="st21" d="M182.2,147.7l0,0.3C182.2,147.8,182.2,147.7,182.2,147.7z"/>
								<path class="st21" d="M176.3,146c0-0.1-0.1-0.2-0.1-0.3L176.3,146z"/>
								<path class="st21" d="M177,145c0,0,0-0.1,0-0.1C177,145,177,145,177,145z"/>
								<path class="st21" d="M171.5,147.6C171.5,147.7,171.5,147.7,171.5,147.6C171.5,147.7,171.5,147.7,171.5,147.6z"/>
								<path class="st21" d="M171.2,147.1C171.2,147.2,171.1,147.1,171.2,147.1L171.2,147.1C171.2,147,171.2,147.1,171.2,147.1z"/>
								<path class="st21" d="M171.4,146.9L171.4,146.9C171.4,146.8,171.4,146.8,171.4,146.9z"/>
								<path class="st21" d="M169.7,143.4l0.1-0.2C169.7,143.2,169.7,143.3,169.7,143.4z"/>
								<path class="st21" d="M171.5,148c0-0.1,0-0.1,0-0.2C171.5,147.8,171.6,147.8,171.5,148z"/>
								<path class="st21" d="M176.6,147.9c0-0.1,0-0.1,0-0.1C176.6,147.8,176.6,147.8,176.6,147.9z"/>
								<path class="st21" d="M176,146L176,146C176,146,176,146,176,146z"/>
								<path class="st21" d="M184.3,147.7c0.1,0,0.1,0,0.2,0.1C184.3,147.9,184.3,147.8,184.3,147.7z"/>
								<path class="st21" d="M173,147.4c0.2-0.7-0.2-0.1-0.1-0.8c0.1,0.2,0.1,0.3,0.2-0.1c0-0.4-0.2,0-0.1-0.6l0.1,0.3
									c0.2-0.3,0.1-0.8,0.2-0.7c0,0.9,0.5-0.3,0.6-0.1l0-0.1l0.3-0.4c0,0,0,0,0,0c0,0,0,0.1,0,0.2c0.2-0.4,0.4-0.7,0.5-0.6
									c0,0.5,0.5,0.2,0.6,0.7c-0.1-0.1-0.1-0.2-0.2,0l-0.1,0.6c0.2,0,0.1-0.5,0.2-0.2c-0.1,0.8-0.2,0-0.4,0c0,0.2,0.1,0.4,0.1,0.4
									c-0.2,0-0.5,0.2-0.6-0.6c-0.1,0.2-0.1,0.5-0.1,0.6c-0.1-0.5-0.2,0.4-0.3,0c-0.1,0.7,0.3,0.4,0.4,0.9c0.3-0.6,0.5,0,0.8,0.2
									c0.1-0.5,0-1,0.1-1.3c0.3-0.3,0.2,0.3,0.3,0.7c0.2-0.2,0.1-0.9,0.4-0.9l-0.1-0.4c0.3-0.8,0.1,0.3,0.2,0.2
									c-0.1,0.2-0.1,0.4-0.2,0.4c-0.1,0.3,0,0.4,0.1,0.5l0,0c0,0.4,0,0.8,0.2,0.6c-0.1-0.5,0.2-0.3,0.2-0.5l0-0.1
									c0.1,0.2,0.2,0.1,0.3,0.2l0-0.1c0.1,0.2,0,0.8,0.2,0.7c0-0.2-0.1-0.9,0.1-0.8c0-0.3-0.1-0.4-0.3-0.3
									c0.2-0.1,0.3-0.7,0.1-0.7c0.1-0.4,0.1,0.2,0.2,0c0,0.1,0,0.3,0,0.4c0.1-0.6,0.3,0,0.3,0.4l-0.1-0.3c-0.1,0.5,0.1,0.8,0,1.1
									c0.2-0.7,0.4,0.4,0.6-0.2l-0.1,0.4c0.4-0.2,0.6,0.7,0.9,0.9c-0.1-0.2,0-1.1-0.3-0.8c0.3-0.1,0.2-0.8,0.3-1.2
									c0.3-0.3,0.1,0.8,0.1,1l-0.2-0.2c0.2,1,0.7-0.2,1,0.5c0-0.2-0.1-0.1-0.1-0.2c0.2-0.5,0.1,0.1,0.2,0.3
									c0.2-0.1,0.4-0.3,0.3-0.9c0.2-0.1,0,0.4,0,0.6l0-0.1l0.2,0.7c0.2-0.2,0.4-0.5,0.5-1.1c0.4,0.1,0.1,1.4,0.3,1.6
									c0.2-0.3,0-0.5,0-0.7l0.2,0.1c-0.1-0.7-0.3-0.3-0.2-1.1c0.2,0.8,0.3,0.2,0.5,0.8l0,0.1c0.1,0.5,0.4,0.2,0.5,0.3
									c-0.1-0.3-0.2-0.4-0.3-0.5c0.2-0.2,0.6,0,0.7,0.7c0.1-0.1,0.3-0.4,0.2-0.7c0.4-0.1,0.1,1,0.4,0.8l0-0.5c0.3-0.8,0.7,0.7,1,0
									l0,0.6c0.1-0.3,0.2-0.4,0.2-0.7l-0.2-0.2c0.1-0.5,0.2,0.5,0.3,0.1c0,0.2-0.1,0.6-0.1,0.8c-0.7-0.3-1.4,0.5-2.1-0.1
									c0-0.1,0.1-0.2,0-0.3c-0.1,0.2-0.2,0-0.2,0.3l0,0c-0.2-0.1-0.4,0.6-0.5,0.6c-0.1-0.4-0.4,0.2-0.3-0.6l-0.1,0.5
									c0-0.3,0-0.6-0.1-0.8c-0.1,0.1-0.1,0.4-0.1,0.5c-0.5,0.3-1.1,0.2-1.5-0.1l0.1,0.4c-0.1,0.2-0.4-0.7-0.3,0.3
									c-0.2-0.4-0.7,0.2-0.6-0.7c-0.2,0.9-0.6,0.4-0.9,0.2c0.1-0.8-0.3-0.2-0.3-0.6c-0.1,0.6,0.2,0.7,0.2,1.1c-0.2-1-1,0.6-1-1
									c0,0.1-0.1,0.1,0,0.2c-0.1,0-0.2,0.3-0.3,0.3c0-0.3,0.1-0.4,0-0.5c-0.1,0-0.1,0.5-0.2,0.7c-0.2-0.4-0.6-0.6-0.5-1.2
									c-0.1,0.2-0.2,0.5-0.2,0.6c-0.3-0.5-0.4,0-0.7-0.3c0.1,0,0,0.7,0.2,0.4c-0.3,0.9-0.6-0.2-0.9,0.2l0-0.6
									c-0.2-0.1-0.3,0.4-0.2,0.6c-0.4,0.3-0.5-0.1-0.7-0.1c0,0.1,0,0.2,0,0.2l-0.4,0c0-0.1-0.1-0.5,0-0.8
									C172.8,147.3,172.8,147.5,173,147.4z"/>
								<path class="st21" d="M172.8,147L172.8,147L172.8,147C172.8,147,172.8,147,172.8,147z"/>
								<path class="st21" d="M176.2,145c-0.1,0.1-0.1,0.2-0.1,0.2C176.1,145.1,176.2,145,176.2,145z"/>
								<path class="st21" d="M169.8,145.3c0.3-0.8,0.2,0.2,0.4,0c-0.1-0.2,0.1-0.7,0.1-0.9c-0.1,1.1,0.3-0.2,0.5,0.1
									c0.1-0.4,0-0.5,0-0.9c0.1,0.3,0.3,0.5,0.2,1.2c0.3,0.1,0.5-0.1,0.7,0c-0.2-0.3,0.1-0.6,0.1-1.2c0.1,0.8,0.4,1.7,0.5,2.7
									c0.2-0.7,0.2-0.7,0.3-1.4c0.4-0.4,0,0.7,0.4,0.5l-0.2,0.1c0.1,0.2,0,0.9,0,1.3l-0.4-0.2c-0.1,0.5,0.2,0.4,0.2,0.6
									c0,0.6-0.3,0.4-0.3,0.8c0-0.4-0.2-0.3-0.3-0.5l-0.1,0.2c-0.2,0.2-0.2-0.4-0.4-0.5c0,0.1,0,0.1,0,0.2c0-0.3,0-0.7-0.1-0.8
									l0.1,0c0-0.6-0.3-1.1,0.1-1.7l-0.4,0.1c-0.1,0.7-0.2,1.7,0,1.8l0,0.3c-0.3,0.3-0.4-0.6-0.2-1.1c0.2-1.6-0.6-0.2-0.8-0.9
									c-0.1,0.4,0,0.6,0,0.9c0.1,0.1,0.1,0.1,0.2-0.3c0.3,0.3-0.4,1.3,0.1,1.3c0.3-0.2-0.1-0.7,0.2-0.7l0,1.2
									c-0.2-0.1-0.3-0.3-0.5-0.5c-0.7-1-1.5-0.5-1.5-0.5c-0.6-0.2-1.3-0.5-1.9-0.8c-0.6-0.3-1.3-0.6-1.9-1
									c-0.3-0.3-0.5-0.4-0.1-1.5c0.2-0.2,0.4,0,0.5-0.4c-0.2,0.4-0.1,0.7,0.1,0.8c0.2-0.4-0.1-0.3,0-0.3l0,0
									c0.1-0.2,0.1-0.4,0.1-0.4c0.5-0.5,0.8-0.2,0.6,0.6c0.4-0.3,0.1-0.7,0.2-1c0.7-0.1,1.1,0.1,1.7,0.3c-0.2,0.7-0.1,0.5-0.2,1
									l0.1-0.3c-0.1,0.1-0.1,0.7-0.3,0.8c0.6-0.5,0.1,1.1,0.3,1.5l0.1-0.4c0.2,0.1,0.3,0.2,0.4,0.4c0.6-0.6-0.3-0.2,0.1-1.1
									l0.1,0.2c0-0.4,0.2-1,0.1-1.3c0.1,0.7,0.5-0.1,0.7,0.5c0.1-0.4-0.2-0.9-0.2-0.9c0.1,0,0.3,0.4,0.4,0l-0.1,0.5
									c0.2,0.1,0.1-0.5,0.3-0.8C170.3,143.3,169.4,144.9,169.8,145.3z"/>
								<path class="st21" d="M175.1,146c-0.1,0-0.1,0-0.2-0.1C175,145.9,175,145.9,175.1,146z"/>
								<path class="st21" d="M174.2,144.8c0-0.1,0-0.1,0-0.2C174.2,144.6,174.2,144.7,174.2,144.8z"/>
								<path class="st21" d="M174.2,144c-0.1,0.2,0,0.3,0,0.6C174.2,144.4,174,144.4,174.2,144z"/>
								<path class="st21" d="M190.2,144.2c0.1,0.1,0.2,0.3,0.3,0.4l-0.2-0.1L190.2,144.2z"/>
								<path class="st21" d="M190,144.9l-0.1,0.3l-0.3-0.7C189.8,144.4,189.8,144.9,190,144.9z"/>
								<path class="st21" d="M189.6,145.5l0.1,0.2C189.7,145.6,189.6,145.5,189.6,145.5z"/>
								<path class="st21" d="M189.6,145.1l-0.2-0.5l0.3,0.3L189.6,145.1c0.1,0.1,0.1,0.2,0.1,0.3L189.6,145.1
									C189.5,145.1,189.6,145.2,189.6,145.1z"/>
								<path class="st21" d="M189.4,145.1c0-0.1,0-0.1,0-0.2C189.4,145,189.4,145.1,189.4,145.1z"/>
								<path class="st21" d="M189.1,146.2c0-0.2-0.1-0.5-0.2-0.7c0.1-0.2,0.3,0.6,0.4,0.3c-0.3-0.4,0-0.3,0.1-0.7
									c0.1,0.5,0,0.9-0.1,1.1l-0.1-0.3C189,145.9,189.1,146.1,189.1,146.2z"/>
								<path class="st21" d="M187.9,145.6l0.2,0.5c0-0.2,0.2-0.3,0.2-0.8c0.1,0.1,0.1,0.3,0.2,0.4c0-0.3,0-0.5,0.2-0.1
									c-0.3,0.4-0.2,0.5-0.5,0.7c0,0.1,0.1,0.1,0.1,0.1l-0.2,0.3C188,146,187.8,146,187.9,145.6z"/>
								<path class="st21" d="M187.7,146c0.2,0,0.3,0.5,0.3,0.8l-0.4-0.4C187.6,146.4,187.8,146.5,187.7,146z"/>
								<path class="st21" d="M187.4,146c0,0.3-0.1,0.9-0.3,0.4C187.4,146.4,187.2,145.7,187.4,146z"/>
								<path class="st21" d="M186.2,146.6l0.3-0.4c0-0.7-0.2-0.2-0.3-0.5c0.3-0.2,0.2,0.1,0.4,0.5c0.1,0,0.2,0.3,0.3,0.5
									C186.6,146.2,186.7,147.8,186.2,146.6z"/>
								<polygon class="st21" points="186.9,145.9 186.9,146.1 186.7,145.9 								"/>
								<path class="st21" d="M185.5,147.4c-0.2,0.8-0.4-0.4-0.6-0.1c0,0,0,0.1,0.1,0.2l-0.2-0.1l0,0.2c0-0.5-0.2-0.7-0.3-1
									c0.2-0.5,0.1,0.6,0.3,0c0-0.2-0.1-0.6-0.1-0.7c0.1,0.2,0.2,0.5,0.2,0.8c0.1,0.1,0.1-0.2,0.1-0.4c0.2,0.3,0.2,1,0.4,0.8
									c0.1-0.4-0.1-0.7,0.1-0.5c-0.1,0.8,0.2-0.1,0.4,0.3c0.2-0.2,0.3-0.6,0.2-0.9c0,0.6,0.2,1.1,0.4,1.3l-0.3-0.5l-0.1,0.7
									C185.7,147.2,185.6,147.3,185.5,147.4L185.5,147.4z"/>
								<path class="st21" d="M184.5,145.9c0,0,0-0.1-0.1-0.1C184.5,145.7,184.5,145.8,184.5,145.9z"/>
								<polygon class="st21" points="186,145.8 185.9,145.7 186,145.5 								"/>
								<path class="st21" d="M184.4,145.4c0,0,0.1,0.2,0,0.2L184.4,145.4L184.4,145.4z"/>
								<polygon class="st21" points="184.2,145.8 184.1,146.2 184,145.9 								"/>
								<path class="st21" d="M180.1,146.1c0.1-0.2,0.1,0.2,0.1,0.6C180,146.8,180.2,146.3,180.1,146.1z"/>
								<path class="st21" d="M177.6,145.3c0.2-0.3,0.3,0.2,0.4,0.2C177.8,145.7,177.7,145.6,177.6,145.3z"/>
								<path class="st21" d="M176.7,143.6c0,0.2,0.1,0.2,0,0.3l0,0.9C176.4,145,176.6,144,176.7,143.6z"/>
								<path class="st21" d="M175.5,143.3l0.1,0.3l-0.1,0c0,0.3,0,0.5,0.1,0.8C175.5,144.3,175.4,143.9,175.5,143.3z"/>
								<path class="st21" d="M175.7,144.6C175.7,144.6,175.7,144.6,175.7,144.6C175.7,144.5,175.7,144.4,175.7,144.6z"/>
								<path class="st21" d="M175.6,144.6C175.6,144.5,175.6,144.5,175.6,144.6C175.6,144.5,175.7,144.6,175.6,144.6
									C175.7,144.7,175.6,144.7,175.6,144.6z"/>
								<path class="st21" d="M175.3,143.7l-0.3-0.1l0.2-0.1C175.1,144,175.3,143.2,175.3,143.7z"/>
								<path class="st21" d="M173.5,143.9l-0.1,0.5c-0.2,0.1-0.3-1.1-0.6-0.3c0.2-0.3-0.1-0.6,0.2-0.7
									C173,143.9,173.3,144,173.5,143.9z"/>
								<path class="st21" d="M172.5,144.5c0,0.2-0.1,0.2-0.1,0.4c-0.1,0-0.1-0.2,0-0.4C172.3,145.1,172.5,144.1,172.5,144.5z"/>
								<path class="st21" d="M171.5,144.2c0.1,0,0.1,0.1,0,0.2c-0.2-0.1,0-0.6,0-1C171.8,143.2,171.7,144,171.5,144.2z"/>
								<path class="st21" d="M169.1,147.5c0.1-0.4,0.3-0.3,0.3-0.2C169.4,147.3,169.2,147.4,169.1,147.5z"/>
								<polygon class="st21" points="170,144 170.1,143.9 170,144.6 								"/>
								<polygon class="st21" points="169,143.3 169,142.9 169.2,143 								"/>
								<path class="st21" d="M168.8,143.4l-0.2-0.1l0.1-0.1C168.8,143.1,168.7,143.4,168.8,143.4z"/>
								<path class="st21" d="M168.3,143.1C168.3,143.2,168.3,143.1,168.3,143.1l0.2,0.2L168.3,143.1z"/>
								<path class="st21" d="M164.3,144.5c-0.2,0.4-0.2,0.1-0.3,0.1C164,144.5,164.4,144.1,164.3,144.5z"/>
							</g>
						</g>
					</g>
				</g>
			</g>
		</g>
	</g>
</g>
</svg>
