<?xml version="1.0" encoding="utf-8"?>
<!-- Generator: Adobe Illustrator 26.0.3, SVG Export Plug-In . SVG Version: 6.00 Build 0)  -->
<svg version="1.1" xmlns="http://www.w3.org/2000/svg" xmlns:xlink="http://www.w3.org/1999/xlink" x="0px" y="0px"
	 viewBox="0 0 503.6 377.7" style="enable-background:new 0 0 503.6 377.7;" xml:space="preserve">
<style type="text/css">
	.st0{fill:#FFF0DD;}
	.st1{fill:#6B5C52;}
	.st2{fill:#B8BBBF;}
	.st3{fill:#F9E9CD;}
	.st4{fill:#FFE6BD;}
	.st5{fill:#F5F5F2;}
	.st6{fill:#637189;}
	.st7{fill:#9E9082;}
	.st8{fill:#938D89;}
	.st9{fill:#FFDBC0;}
	.st10{fill:#6E85BD;}
	.st11{fill:#E8D9D6;}
	.st12{fill:#A7BC79;}
	.st13{fill:#FF8080;}
	.st14{fill:#3D3533;}
	.st15{fill:#A1683D;}
	.st16{fill:#CCE0FF;}
	.st17{fill:#383531;}
	.st18{fill:#757060;}
	.st19{fill:#D29F7E;}
	.st20{opacity:0.88;clip-path:url(#SVGID_00000035489116696153259490000002854769232545482657_);}
	.st21{fill:#322015;}
	.st22{fill:#1B1C1E;}
	.st23{fill:none;stroke:#1B1C1E;stroke-width:1.2604;stroke-linecap:round;stroke-linejoin:round;stroke-miterlimit:10;}
	.st24{opacity:0.84;clip-path:url(#SVGID_00000142137646819627473000000015823083919788446639_);}
	.st25{clip-path:url(#SVGID_00000054231585427149884280000001260279870831259015_);}
	.st26{fill:none;stroke:#1B1C1E;stroke-width:1.2604;stroke-linecap:round;stroke-linejoin:round;}
	.st27{fill:#D1493B;}
	.st28{fill:#FFAE1F;}
	.st29{opacity:0.88;clip-path:url(#SVGID_00000047041355874087881000000007867865377284553877_);}
	.st30{opacity:0.7;clip-path:url(#SVGID_00000170997050895409117060000016614451046132663183_);}
	.st31{fill:#2C2C2D;}
	.st32{opacity:0.87;clip-path:url(#SVGID_00000177480535967298456130000003265848934455725247_);}
	.st33{fill:#080809;}
	.st34{opacity:0.7;clip-path:url(#SVGID_00000084494159889870839380000017764852932477746574_);}
	.st35{fill:#FBAF5E;}
	.st36{opacity:0.62;clip-path:url(#SVGID_00000147940465690147918110000007002187787600364169_);}
	.st37{fill:#3E240C;}
	.st38{fill:#BC763C;}
	.st39{opacity:0.62;clip-path:url(#SVGID_00000033367772415007830180000005071199998179398313_);}
	.st40{opacity:0.62;clip-path:url(#SVGID_00000037678212603435848240000003369511737612983482_);}
	.st41{fill:#967258;}
	.st42{opacity:0.53;clip-path:url(#SVGID_00000016763051496542276860000014842594159220108724_);}
	.st43{opacity:0.73;clip-path:url(#SVGID_00000045610097662359815230000013918379677452821415_);}
	.st44{fill:none;stroke:#1B1C1E;stroke-width:1.1311;stroke-linecap:round;stroke-linejoin:round;stroke-miterlimit:10;}
	.st45{fill:#3D291C;}
	.st46{fill:#3D291C;stroke:#967258;stroke-width:1.2604;stroke-linecap:round;stroke-linejoin:round;stroke-miterlimit:10;}
	.st47{fill:#D6D4C8;}
	.st48{fill:#1B1C1E;stroke:#967258;stroke-width:1.2604;stroke-linecap:round;stroke-linejoin:round;stroke-miterlimit:10;}
	.st49{opacity:0.52;clip-path:url(#SVGID_00000168092968838077117500000013120606561565900698_);}
	.st50{fill:#B37D4F;}
	.st51{opacity:0.88;clip-path:url(#SVGID_00000135678522936752805510000015236139613916292530_);}
	.st52{fill:#343434;}
	.st53{fill:#BC6464;}
	.st54{opacity:0.88;clip-path:url(#SVGID_00000059271657751181418310000007533079137144270231_);}
	.st55{fill:#1B1C1E;stroke:#1B1C1E;stroke-width:1.1485;stroke-linecap:round;stroke-linejoin:round;stroke-miterlimit:10;}
	.st56{fill:#8C7265;}
	.st57{opacity:0.88;clip-path:url(#SVGID_00000078018587016081086930000015699749625266798517_);}
	.st58{fill:#1B1C1E;stroke:#1B1C1E;stroke-width:1.3664;stroke-linecap:round;stroke-linejoin:round;stroke-miterlimit:10;}
	.st59{opacity:0.88;clip-path:url(#SVGID_00000129196624272746672440000004701264134439372181_);}
	.st60{fill:none;stroke:#1B1C1E;stroke-width:1.3664;stroke-linecap:round;stroke-linejoin:round;stroke-miterlimit:10;}
	.st61{opacity:0.88;clip-path:url(#SVGID_00000121250528579496075060000017488981643107366288_);}
	.st62{opacity:0.88;clip-path:url(#SVGID_00000127748421435807139980000015282562560149794215_);}
	.st63{fill:#5F6C72;}
	.st64{fill:#1B1C1E;stroke:#1B1C1E;stroke-width:1.5329;stroke-linecap:round;stroke-linejoin:round;stroke-miterlimit:10;}
	.st65{opacity:0.88;clip-path:url(#SVGID_00000049920259679770471450000016375293945602331789_);}
	.st66{clip-path:url(#SVGID_00000109744028063385370510000010581425924982055078_);}
	.st67{opacity:0.58;clip-path:url(#SVGID_00000039115188710250965480000011023660410466599328_);}
	.st68{opacity:0.58;clip-path:url(#SVGID_00000146469526939026030840000003911578667590985654_);}
	.st69{fill:#1B1C1E;stroke:#1B1C1E;stroke-width:1.818;stroke-linecap:round;stroke-linejoin:round;stroke-miterlimit:10;}
	.st70{fill:#FFFFFF;}
	.st71{fill:#CC813E;}
	.st72{opacity:0.58;clip-path:url(#SVGID_00000112633979704531545650000011741217367252539561_);}
	.st73{fill:#AA8C7D;}
	.st74{opacity:0.88;clip-path:url(#SVGID_00000139282343814600629800000008617128997733998512_);}
	.st75{opacity:0.88;clip-path:url(#SVGID_00000046322587274970256760000010872446693843602861_);}
	.st76{fill:#1B1C1E;stroke:#1B1C1E;stroke-width:1.2604;stroke-linecap:round;stroke-linejoin:round;stroke-miterlimit:10;}
	.st77{opacity:0.88;clip-path:url(#SVGID_00000145033524417685897430000010723216752818262950_);}
	.st78{opacity:0.88;clip-path:url(#SVGID_00000044163806960570227850000001260671926998916229_);}
	.st79{opacity:0.88;clip-path:url(#SVGID_00000158737576064116478900000008778490670038967730_);}
	.st80{fill:none;stroke:#1B1C1E;stroke-miterlimit:10;}
	.st81{fill:#B8BDC4;}
	.st82{fill:#B4D3CD;}
	.st83{opacity:0.88;clip-path:url(#SVGID_00000134934014004450184160000009169566884545948857_);}
	.st84{opacity:0.88;clip-path:url(#SVGID_00000164495590928229532240000016699370293200950459_);}
	.st85{fill:#EFBE9D;}
	.st86{opacity:0.88;clip-path:url(#SVGID_00000065073659305167117140000015935833401890950330_);}
	.st87{fill:#443730;}
	.st88{opacity:0.88;clip-path:url(#SVGID_00000107551357692193032160000007203535792157857723_);}
	.st89{opacity:0.88;clip-path:url(#SVGID_00000155836204608025562690000012032902511624927904_);}
	.st90{fill:#E2AF8D;}
	.st91{fill:none;stroke:#1B1C1E;stroke-linecap:round;stroke-linejoin:round;stroke-miterlimit:10;}
	.st92{fill:#1B1C1E;stroke:#1B1C1E;stroke-miterlimit:10;}
	.st93{fill:#FCEA9F;}
	.st94{fill:#F6EBEF;}
	.st95{fill:#D4DADD;}
	.st96{opacity:0.61;clip-path:url(#SVGID_00000092445510872247817730000005976996741589206942_);}
	.st97{fill:#353737;}
	.st98{fill:#B3B9BC;}
	.st99{opacity:0.61;clip-path:url(#SVGID_00000123425657640582487370000017576604389558465212_);}
	.st100{opacity:0.61;clip-path:url(#SVGID_00000080203779428277388090000018272624814741272220_);}
	.st101{fill:#B3B9BC;stroke:#1B1C1E;stroke-miterlimit:10;}
	.st102{fill:#CCE2CF;stroke:#1B1C1E;stroke-miterlimit:10;}
	.st103{fill:#EAD6DE;}
	.st104{fill:#1B1C1E;stroke:#1B1C1E;stroke-width:1.0185;stroke-miterlimit:10;}
	.st105{fill:none;stroke:#1B1C1E;stroke-width:1.0185;stroke-miterlimit:10;}
	.st106{fill:#FBAF5E;stroke:#1B1C1E;stroke-miterlimit:10;}
	.st107{fill:#513F3B;}
	.st108{opacity:0.88;clip-path:url(#SVGID_00000158720407810299230030000000498365800688744119_);}
	.st109{opacity:0.88;clip-path:url(#SVGID_00000165218212859438778380000001146965399515190969_);}
	.st110{fill:#8B2403;}
	.st111{fill:#EBDAD2;}
	.st112{fill:#A84E39;}
	.st113{fill:#751A01;}
	.st114{fill:#EBDAD2;stroke:#1B1C1E;stroke-miterlimit:10;}
	.st115{opacity:0.78;clip-path:url(#SVGID_00000160905815717087840370000002217937503843512712_);}
	.st116{fill:#290B01;}
	.st117{opacity:0.78;clip-path:url(#SVGID_00000055685010262153723610000002376134292190944432_);}
	.st118{opacity:0.78;clip-path:url(#SVGID_00000011028869828096650420000001054668721579398302_);}
	.st119{opacity:0.78;clip-path:url(#SVGID_00000108299130282650019700000018401504436434466453_);}
	.st120{fill:#030203;}
	.st121{fill:#86889A;}
	.st122{fill:#0B060A;}
	.st123{fill:#736E72;}
	.st124{fill:#9E9AA0;}
	.st125{fill:#18172A;}
	.st126{fill:#3B4D84;}
	.st127{fill:#FFA3AC;}
	.st128{fill:none;stroke:#0B080B;stroke-width:1.2005;stroke-miterlimit:10;}
	.st129{fill:#E7E6E8;}
	.st130{fill:#0B080B;}
	.st131{fill:none;stroke:#1B1C1E;stroke-width:1.2005;stroke-linecap:round;stroke-linejoin:round;stroke-miterlimit:10;}
	.st132{opacity:0.78;clip-path:url(#SVGID_00000131333136640495100250000017894840422666441888_);}
	.st133{opacity:0.78;clip-path:url(#SVGID_00000068676365749431711530000010470601500309120399_);}
	.st134{fill:#89745E;}
	.st135{opacity:0.78;clip-path:url(#SVGID_00000170270233985806259990000009250822290823981953_);}
	.st136{fill:#060606;}
	.st137{fill:#4D483E;}
	.st138{fill:#FF8A00;}
	.st139{fill:#50483F;}
	.st140{fill:#131313;}
	.st141{fill:#E8DBCD;}
	.st142{opacity:0.78;clip-path:url(#SVGID_00000039848915320118630900000005286730423897864079_);}
	.st143{opacity:0.78;clip-path:url(#SVGID_00000135653919205549879580000008261009789655655614_);}
	.st144{fill:#191212;}
	.st145{fill:#6C5353;}
	.st146{opacity:0.78;clip-path:url(#SVGID_00000103248550557528301580000004504677797447506107_);}
	.st147{fill:#B3B3B3;}
	.st148{fill:#FF9F2C;}
	.st149{fill:none;stroke:#343434;stroke-miterlimit:10;}
	.st150{fill:#21262A;}
	.st151{fill:#563D3D;}
	.st152{opacity:0.78;clip-path:url(#SVGID_00000089559709873622968880000017228216658319688104_);}
	.st153{fill:#181716;}
	.st154{fill:#706153;}
	.st155{fill:none;stroke:#1B1C1E;stroke-width:0.8477;stroke-miterlimit:10;}
	.st156{fill:#FCBD30;}
	.st157{fill:#E8D9CD;}
	.st158{fill:#534E4A;}
	.st159{opacity:0.78;clip-path:url(#SVGID_00000067957584188570990400000013824201982502980258_);}
	.st160{fill:#7DA050;}
	.st161{opacity:0.78;clip-path:url(#SVGID_00000018221859086942004930000003652966109754253481_);}
	.st162{opacity:0.78;clip-path:url(#SVGID_00000041986675190977134990000013536421796142137523_);}
	.st163{opacity:0.78;clip-path:url(#SVGID_00000160190728128208585580000013651168134939982490_);}
	.st164{fill:#EFEECE;}
	.st165{opacity:0.78;clip-path:url(#SVGID_00000124155293075575831810000009956987343923643298_);}
	.st166{fill:#93543B;}
	.st167{fill:#FF510C;}
	.st168{opacity:0.78;clip-path:url(#SVGID_00000072966852431158135280000007185305032691496605_);}
	.st169{fill:#4B1804;}
	.st170{fill:#000A0E;}
	.st171{opacity:0.78;clip-path:url(#SVGID_00000076595839499834889620000000353398002367763337_);}
	.st172{opacity:0.78;clip-path:url(#SVGID_00000127024111866313379270000006690251701238444691_);}
	.st173{fill:#F9C8A7;}
	.st174{fill:#1B1C1E;stroke:#1B1C1E;stroke-width:1.3738;stroke-miterlimit:10;}
	.st175{fill:none;stroke:#1B1C1E;stroke-width:1.3;stroke-miterlimit:10;}
	.st176{fill:#FFCB6E;}
	.st177{fill:#CECECE;}
	.st178{fill:none;stroke:#1B1C1E;stroke-width:1.3037;stroke-miterlimit:10;}
	.st179{fill:#FFFFFF;stroke:#1B1C1E;stroke-width:1.3;stroke-miterlimit:10;}
	.st180{opacity:0.78;clip-path:url(#SVGID_00000043459555602014414100000006746543674986988168_);}
	.st181{fill:none;stroke:#1B1C1E;stroke-width:1.3738;stroke-miterlimit:10;}
	.st182{opacity:0.45;clip-path:url(#SVGID_00000042696222005876890340000017116443032221783941_);}
	.st183{opacity:0.45;clip-path:url(#SVGID_00000005959481482345251740000015316709542801916815_);}
	.st184{opacity:0.45;clip-path:url(#SVGID_00000000919657639238136600000015103924782495716284_);}
	.st185{opacity:0.45;clip-path:url(#SVGID_00000080888506096353307940000000602698149715263641_);}
	.st186{fill:none;stroke:#1B1C1E;stroke-width:1.3738;stroke-linecap:round;stroke-linejoin:round;stroke-miterlimit:10;}
	.st187{fill:#FFB192;}
	.st188{fill:#EB8226;}
	.st189{fill:#F7EDE1;}
	.st190{opacity:0.78;clip-path:url(#SVGID_00000029016486967732264360000001494607239874910851_);}
	.st191{opacity:0.78;clip-path:url(#SVGID_00000168098868213716801320000004629706331970919353_);}
	.st192{opacity:0.5;clip-path:url(#SVGID_00000165221215428732764210000012140653125044040858_);}
	.st193{opacity:0.5;clip-path:url(#SVGID_00000010995317033285243880000010531198916544134072_);}
	.st194{fill:none;stroke:#06002C;stroke-width:1.3038;stroke-miterlimit:10;}
	.st195{fill:#F7A9B4;}
	.st196{fill:#06002C;}
	.st197{opacity:0.5;clip-path:url(#SVGID_00000132086883138739739970000015982962852633128606_);}
	.st198{fill:none;stroke:#06002C;stroke-width:1.3038;stroke-linecap:round;stroke-linejoin:round;stroke-miterlimit:10;}
	.st199{fill:#9BBEDC;}
	.st200{opacity:0.88;clip-path:url(#SVGID_00000115484701642941955810000002284449719882336924_);}
	.st201{opacity:0.88;clip-path:url(#SVGID_00000058551526391692482270000014798321101145874610_);}
</style>
<g id="Background">
	<rect x="-3.2" y="-2.4" class="st7" width="510" height="382.5"/>
</g>
<g id="Illustration">
	<g>
		<path class="st22" d="M189.3,305.9c0,0-5.9,2.6,10.2,3.4c16.1,0.8,101.3,1.2,110.1,0c8.8-1.2,25.8-0.5,3.2-3.4
			c-22.6-2.9-45.9-1.2-68.7-2.9S192.7,302.9,189.3,305.9z"/>
		<g>
			<path class="st107" d="M307.4,255.8c0,0,9-4.1,10.5-25.1s-7.7-37.9-8.6-64.5s14.1-41.6,25.7-33c11.6,8.6-5.8,25.4-2.6,60.1
				c3.2,34.6,4.1,69.6-23.4,78.6C309.1,271.9,304.4,265.4,307.4,255.8z"/>
			<path class="st107" d="M234.8,306c0,0-34.7,0-36.8,0c-2.1,0-4.7-15.8,13.7-16.1c18.4-0.3,29.5,0,29.5,0L234.8,306z"/>
			<path class="st80" d="M202.9,306c0,0-1-3.8,1.8-6.5"/>
			<path class="st80" d="M209.5,306c0,0,0-3.1,1.4-4.5"/>
			<path class="st107" d="M222.5,80.9c0,0-12.2-18-20.1-16.3c-7.9,1.7-9,38.8-2.1,41.1C207.1,108.1,222.5,80.9,222.5,80.9z"/>
			<path class="st107" d="M258.3,82.2c0,0,16.1-11.6,25.9-10.9c9.9,0.6-0.2,29.8-7.5,37.3C269.4,116.1,258.3,82.2,258.3,82.2z"/>
			<path class="st4" d="M213.3,143.9c0,0-12.9-7.9-15-24.4c-2.1-16.5,5.4-42.6,41.4-42.6s42.8,30.1,40.2,45.6
				c-2.4,14.7-9.8,19.3-9.8,19.3s8,18.1,12,28.7c3.1,8.2,4.6,16.6,3.4,26.4c0,0,12,17.8,19.5,32.6c7.2,14.2,13.2,49.8,6.7,73.9
				c-0.4,1.6-1.9,2.7-3.5,2.7h-94.7c-8.4,0-18.2-13.8-10.5-68.5c0,0-4-9.4-0.5-28.9S213.3,143.9,213.3,143.9z"/>
			<path class="st107" d="M296.6,306c0,0-6.1,0-7.9,0h-44.1c-5.1-13.3,10.4-18.3,18.3-18.3c6.1,0,20.1,0,20.1,0s7.5,0.3,10.7,5.5
				C297.5,299.3,296.8,305.7,296.6,306z"/>
			<path class="st107" d="M224,240.9c-3.7,2.6-7.1,4.1-9.5,5c-2.6,0.9-5.5,0.3-7.4-1.8c-2.6-2.8-4.2-6.6-4.2-6.6s-2.6-6.1-1.8-18.6
				c0,0,0.3-8.2,11.7-10.7c8.5-1.9,13.1,2.2,13.1,2.2c-0.2,1.6-0.5,3.2-0.8,5c-1,6,0.2,16.4,0.8,21.2
				C226.1,238.2,225.4,239.9,224,240.9z"/>
			<path class="st80" d="M213.3,143.9c0,0,1.6,1,2.1,1.1"/>
			<path class="st80" d="M202.9,237.6c0,0,1.6,3.8,4.2,6.6c1.9,2,4.8,2.7,7.4,1.7c2.4-0.9,5.8-2.4,9.5-5c1.4-1,2.1-2.6,1.8-4.3
				c-0.6-4.8-1.7-15.2-0.8-21.2c1.3-8,2.1-14.5,2.1-14.5"/>
			<path class="st80" d="M215,245.6c0,0-4-3.1-4.5-8.7"/>
			<path class="st80" d="M221.3,242.6c0,0-3-2.8-3.3-7.7"/>
			<path class="st107" d="M271,216c-7,4.3-10.6,6.8-10.2,11.6c0.5,5.6-3.8,6.1-5.7,6.6c-2.8,0.7-8.1,1.2-12.2,0.7
				c-1.8-0.2-5.3-3.5-5.3-10.9c0-6.8,5.5-18.4,16.1-24.3c0,0,8.7-1.7,14.5,5C272,209.2,271,216,271,216z"/>
			<path class="st80" d="M285.5,196.9c0,0-1.3,10.8-10.8,16.8s-14.5,8.4-14,14s-3.8,6.1-5.7,6.6c-2.8,0.7-8.1,1.2-12.2,0.7
				c-1.8-0.2-5.3-3.5-5.3-10.9c0-6.8,5.5-18.4,16.1-24.3"/>
			<path class="st80" d="M249,235c0,0-4.9-1.1-4.6-8.6"/>
			<path class="st80" d="M255.1,234.2c0,0-3.2-2.2-2.8-7.8"/>
			<path class="st80" d="M295.5,231.9c0,0-9-11.1-23.1-3.1c-13,7.4-16.2,41.5-5.1,58.8"/>
			<path class="st80" d="M244.7,306c-5.1-13.3,10.4-18.3,18.3-18.3c6.1,0,20.1,0,20.1,0"/>
			<path class="st80" d="M251.8,306c0,0-2.5-3.9,0-6.5"/>
			<path class="st80" d="M257.5,306c0,0-0.6-4.4,1.1-5.9"/>
			<path class="st107" d="M239,140.9c0,0-17.8-3.9-25.7-14.8c-7.9-10.9-3.4-26.5-1.5-29.1c1.9-2.5,3.9-11.6,29.8-10.4
				c20.3,1,27.7,11.9,28.9,19.2c1.1,6.6-0.6,18.9-8.1,24.9C251.8,139.2,239,140.9,239,140.9z"/>
			<g>
				<path class="st199" d="M229.8,106.1c0.3-0.5,0.3-1,0-1.5c-1-1.5-3.4-5-6.6-4.8c-3.8,0.2-6.6,4.3-6.6,5.6c0,1.7,2.6,5.5,6.5,5.9
					C226.1,111.5,228.8,107.7,229.8,106.1z"/>
				<ellipse class="st22" cx="223.1" cy="105.3" rx="3.2" ry="4.3"/>
			</g>
			<g>
				<path class="st80" d="M236.3,110.3c0,0-5.3-0.4-8.3,2.7c-3,3.1-2.5,8.2,0.5,10.1c2.7,1.8,4.1-2.5,7.8-2.7
					c3.7-0.2,3.3-2.9,3.5-5.6C239.9,112.2,236.3,110.3,236.3,110.3z"/>
				<path class="st80" d="M239.5,118.3c0,0-0.2,1.8,1.8,2.7c2,1,3.7,0.7,5.8,3.1c2.1,2.3,6.2-0.4,6.2-4.8c0-5-3.3-8.5-9.3-8.7
					c-6-0.2-4,2-4,2L239.5,118.3z"/>
				<path class="st80" d="M231.7,122.8c0,0,2.5,3.5,6.7,3.9c3.9,0.4,7.4-2,8-3.2"/>
				<path class="st92" d="M239.8,114.9c0,0-4.3-2.7-4.9-5c-0.6-2.2,0.6-3.6,5.6-3.4c4.1,0.2,5.9,1.8,4.3,4.4
					C243.2,113.2,239.8,114.9,239.8,114.9z"/>
			</g>
			<g>
				<defs>
					<path id="SVGID_00000081649700439436628730000011637257799079068859_" d="M273.4,149.4c-37.3,6.5-13.3-2.8-13.3-2.8
						c6.2-1.6,10-4.8,10-4.8S271.5,145,273.4,149.4z"/>
				</defs>
				<clipPath id="SVGID_00000007422615196960599280000015046270840977236391_">
					<use xlink:href="#SVGID_00000081649700439436628730000011637257799079068859_"  style="overflow:visible;"/>
				</clipPath>
				<g style="opacity:0.88;clip-path:url(#SVGID_00000007422615196960599280000015046270840977236391_);">
					<g>
						<g>
							<g>
								<path class="st87" d="M274.4,139.5c0.1,0.1,0.2,0.2,0.3,0.3C274.7,139.8,274.6,139.7,274.4,139.5z"/>
								<path class="st87" d="M268.4,143.8C268.4,143.8,268.4,143.8,268.4,143.8l-0.1-0.1L268.4,143.8z"/>
								<path class="st87" d="M268.4,143.6l-0.2-0.5C268.3,143.3,268.3,143.5,268.4,143.6z"/>
								<path class="st87" d="M277,142c0.1,0.1,0.3,0.2,0.5,0.4L277,142z"/>
								<path class="st87" d="M277.5,144.2c0,0.1,0.1,0.2,0.1,0.2C277.6,144.4,277.5,144.3,277.5,144.2z"/>
								<path class="st87" d="M278.5,134.4c-0.1,0-0.1-0.1-0.2-0.1C278.4,134.3,278.4,134.3,278.5,134.4z"/>
								<path class="st87" d="M279.5,134.6C279.5,134.5,279.5,134.5,279.5,134.6l0.2,0C279.7,134.7,279.5,134.6,279.5,134.6z"/>
								<path class="st87" d="M279.8,135.2l0.1,0C279.9,135.2,279.9,135.2,279.8,135.2z"/>
								<path class="st87" d="M286.8,136.5l0.4,0.3C287.1,136.7,286.9,136.6,286.8,136.5z"/>
								<path class="st87" d="M278,134c0.1,0.1,0.2,0.2,0.4,0.3C278.2,134.2,278.1,134.2,278,134z"/>
								<path class="st87" d="M274.3,139.3c0.1,0.1,0.1,0.1,0.1,0.2C274.4,139.4,274.3,139.4,274.3,139.3z"/>
								<path class="st87" d="M277.3,141.6L277.3,141.6C277.3,141.6,277.3,141.6,277.3,141.6z"/>
								<path class="st87" d="M265.7,144.4c-0.1,0-0.2-0.1-0.2-0.1C265.5,144,265.6,144.1,265.7,144.4z"/>
								<path class="st87" d="M278,136.4c1,1.2,0.2-0.1,1.2,1c-0.3-0.1-0.6-0.3-0.1,0.4c0.7,0.6,0.2-0.3,1.1,0.7l-0.5-0.2
									c0.3,0.6,1.2,1.2,1,1.2c-1.3-1.2,0,1-0.4,0.9l0.2,0.1l0.3,0.9c0,0,0,0,0.1,0.1c-0.1-0.1-0.1-0.1-0.2-0.2
									c0.5,0.8,0.7,1.4,0.3,1.4c-0.7-0.7-0.9,0.3-1.6-0.3c0.2,0.1,0.3,0.1,0.3-0.2l-0.8-0.9c-0.2,0.2,0.7,0.9,0,0.5
									c-1-1.3,0.3-0.2,0.3-0.5c-0.3-0.3-0.6-0.5-0.8-0.5c0.3-0.3,0.1-0.9,1.4,0.2c-0.2-0.3-0.6-0.8-0.8-0.9
									c0.8,0.6-0.5-0.8,0.3-0.3c-1-1.1-0.9-0.3-1.6-0.8c0.5,1.1-0.5,0.5-0.9,0.5c0.7,0.9,1.5,1.5,1.8,2.1c0.2,0.8-0.7-0.3-1.2-0.7
									c0,0.5,1.1,1.5,0.8,1.8l0.6,0.4c0.7,1.4-0.6-0.4-0.5,0c-0.2-0.4-0.4-0.7-0.2-0.8c-0.3-0.5-0.6-0.6-0.7-0.6l0-0.1
									c-0.5-0.6-1-1.2-1-0.8c0.7,0.7,0.3,0.7,0.5,1.1l0.2,0.1c-0.3-0.1-0.4,0.1-0.6,0l0.1,0.2c-0.3-0.2-1-1.2-1.1-0.9
									c0.3,0.4,1.2,1.3,0.9,1.3c0.4,0.6,0.7,0.5,0.7,0.2c0,0.3,0.5,1.3,0.8,1.3c0.4,0.8-0.4-0.2-0.3,0.2c-0.1-0.2-0.3-0.5-0.5-0.7
									c0.7,1-0.4,0.4-0.8-0.4l0.6,0.4c-0.5-0.8-1.1-1.2-1.3-1.7c0.7,1.4-0.9-0.3-0.4,0.9l-0.3-0.7c-0.2,0.7-1.4-0.6-2-0.7
									c0.4,0.3,1.2,1.8,1.2,1.1c-0.2,0.5,0.7,1.5,1,2.3c0,0.8-0.9-1.3-1.3-1.7c0.1,0.1,0.3,0.1,0.4,0.1c-1.2-1.5-0.7,0.8-1.7,0
									c0.2,0.5,0.2,0.2,0.4,0.4c0.3,1-0.3-0.1-0.6-0.4c-0.1,0.2-0.2,0.8,0.5,1.8c-0.1,0.4-0.3-0.7-0.6-1l0.1,0.3l-0.8-1.1
									c0,0.5,0,1.2,0.4,2.3c-0.6,0-1.3-2.5-1.8-2.7c0.1,0.7,0.4,0.9,0.6,1.3l-0.4,0c0.6,1.2,0.6,0.5,1.2,2
									c-0.9-1.4-0.6-0.3-1.3-1.1l0-0.1c-0.6-1-0.6-0.1-0.9-0.2c0.3,0.6,0.6,0.6,0.8,0.7c0,0.6-0.8,0.3-1.5-0.9
									c-0.1,0.3-0.2,0.9,0.2,1.4c-0.4,0.4-0.8-1.9-1.1-1.3l0.3,1c0,1.6-1.3-1.1-1.3,0.4l-0.4-1.3c0.1,0.6-0.1,0.9,0,1.4l0.3,0.4
									c0.1,1.1-0.5-1-0.5-0.2c-0.1-0.4-0.1-1.3-0.2-1.7c0.5,0.3,0.9-0.1,1.3-0.4c0.4-0.3,0.7-0.6,1.4-0.2c0,0.2,0,0.3,0.1,0.6
									c0-0.3,0.3-0.1,0-0.7l-0.1-0.1c0.3,0.2,0-1.4,0.1-1.4c0.4,0.8,0.3-0.5,0.8,0.9l-0.2-1c0.3,0.5,0.5,1.2,0.7,1.4
									c0.1-0.2-0.1-0.7-0.4-1c0.4-0.7,1-1,1.8-0.8l-0.5-0.6c0-0.4,1.1,0.9,0.1-0.7c0.6,0.5,0.5-0.8,1.4,0.9
									c-0.7-1.7,0.2-1.1,0.8-1.1c0.8,1.4,0.5,0.2,1,0.8c-0.6-1.1-1-0.9-1.4-1.6c1.4,1.4,0.2-1.8,2.2,0.8c0-0.1-0.1-0.2-0.2-0.3
									c0.1-0.1-0.1-0.6-0.2-0.7c0.4,0.4,0.4,0.8,0.6,0.8c0.1-0.2-0.5-0.9-0.7-1.3c0.7,0.4,1.2,0.4,2.1,1.4c-0.1-0.3-0.5-1-0.7-1.1
									c1,0.5,0.3-0.4,1.1-0.2c-0.2,0.1-0.9-1-0.8-0.5c-1-1.6,0.8-0.2,0.5-1.2l0.9,0.8c0.3,0-0.4-0.9-0.8-1.1
									c-0.2-0.8,0.5-0.4,0.7-0.6c-0.1-0.1-0.3-0.3-0.2-0.2l0.3-0.3c0.2,0.2,0.8,0.5,1.2,1.1C278.2,136.2,277.9,135.9,278,136.4z"
									/>
								<path class="st87" d="M278.7,136.6l0.1,0.1l0,0C278.8,136.7,278.8,136.7,278.7,136.6z"/>
								<path class="st87" d="M278.5,143.5c-0.1-0.3-0.2-0.4-0.2-0.5C278.4,143.1,278.4,143.3,278.5,143.5z"/>
								<path class="st87" d="M283.4,134.8c1.3,1.2-0.4,0-0.2,0.5c0.3,0,1.1,0.7,1.5,1.1c-1.9-1.3,0.1,0.5-0.5,0.6
									c0.6,0.5,0.8,0.4,1.5,0.9c-0.6-0.2-1.1-0.1-2.1-0.9c-0.3,0.3-0.2,0.9-0.6,0.9c0.6,0.1,1,0.9,2,1.4c-1.4-0.8-3.2-1.5-4.8-2.5
									c1,1.1,1,1.2,2,2.1c0.3,1.1-1-0.8-1.1-0.2l0-0.3c-0.5-0.2-1.4-1.1-2.1-1.8c0.2-0.1,0.4-0.1,0.5-0.2
									c-0.7-0.7-0.8-0.4-1.1-0.5c-0.9-0.8-0.4-0.8-1-1.4c0.6,0.5,0.6,0.2,0.9,0.3l-0.3-0.4c-0.2-0.6,0.8,0.3,0.9,0.1
									c-0.1-0.1-0.2-0.2-0.2-0.3c0.5,0.4,1,0.8,1.3,0.8l-0.1,0c1,0.7,2,0.9,2.7,2.1l0.1-0.7c-1.1-0.9-2.7-2.2-3-2.1l-0.4-0.4
									c-0.4-0.7,1.2,0.3,2,1.2c2.6,2,0.7-0.6,2,0c-0.7-0.6-1.1-0.7-1.6-1c-0.2,0-0.2,0.1,0.3,0.6c-0.7,0.1-2.1-2-2.2-1.3
									c0.2,0.5,1.3,0.7,1.1,1.1l-2-1.5c0.2-0.1,0.7,0,1,0c1,0.1,1.4-0.2,1.5-0.6c0.1-0.4,0-0.7,0-0.7c1.3-1.2,2.5-2.4,3.5-3.7
									c0.6-0.3,0.5-0.5,2.9,0.4c0.4,0.3,0,0.5,0.8,0.8c-0.8-0.4-1.4-0.4-1.5-0.1c0.8,0.5,0.5,0,0.7,0.1l0,0.1
									c0.4,0.2,0.7,0.3,0.8,0.2c1,1,0.4,1.5-1.2,0.8c0.6,0.7,1.3,0.6,2,0.8c0.1,1.3-0.5,1.8-1,2.8c-1.3-0.9-0.9-0.5-1.9-1l0.4,0.4
									c-0.2-0.2-1.2-0.7-1.3-1.1c0.7,1.2-2.1-0.7-2.9-0.8l0.7,0.5c-0.3,0.2-0.4,0.2-0.9,0.2c0.9,1.3,0.5-0.2,2,1.1l-0.4-0.1
									c0.7,0.4,1.8,1.2,2.4,1.4c-1.4-0.4,0,0.9-1.2,0.7c0.8,0.5,1.6,0.5,1.8,0.5c-0.1,0.2-0.8,0.1-0.1,0.6l-0.9-0.7
									c-0.3,0.2,0.9,0.6,1.4,1.2C286.6,137.5,284.3,134.7,283.4,134.8z"/>
								<path class="st87" d="M278.3,140.7c0-0.1,0.1-0.1,0.2-0.1C278.5,140.6,278.4,140.7,278.3,140.7z"/>
								<path class="st87" d="M280.9,141.3c0.1,0.1,0.2,0.2,0.3,0.3C281.1,141.6,281,141.5,280.9,141.3z"/>
								<path class="st87" d="M282.1,142.4c-0.3-0.4-0.4-0.4-0.9-0.8C281.5,141.8,281.7,141.7,282.1,142.4z"/>
								<path class="st87" d="M256.7,151.1c0-0.3-0.3-0.7-0.2-1l0.3,0.4L256.7,151.1z"/>
								<path class="st87" d="M257.3,149.9l0.3-0.5l0.2,1.6C257.5,151,257.7,149.9,257.3,149.9z"/>
								<path class="st87" d="M258.2,149l-0.1-0.4C258.2,148.8,258.2,148.9,258.2,149z"/>
								<path class="st87" d="M258.2,149.6l0.1,1.1l-0.4-0.8l0.2-0.2c0-0.4,0.1-0.6,0.1-0.7l0.2,0.8
									C258.3,149.7,258.2,149.5,258.2,149.6z"/>
								<path class="st87" d="M258.6,149.7c0,0.1,0,0.2,0,0.3C258.5,149.9,258.5,149.8,258.6,149.7z"/>
								<path class="st87" d="M259.2,147.6c-0.1,0.4,0.1,1,0.2,1.5c-0.3,0.4-0.4-1.2-0.6-0.7c0.4,0.9-0.1,0.7-0.2,1.3
									c0.1-1.1,0.2-1.8,0.5-2.1l0.1,0.7C259.2,148.3,259.1,147.9,259.2,147.6z"/>
								<path class="st87" d="M260.9,149.2l-0.3-1c0,0.5-0.4,0.5-0.3,1.6c-0.1-0.1-0.2-0.6-0.3-0.9c-0.1,0.6-0.1,1-0.3,0.2
									c0.5-0.8,0.3-1,0.8-1.3c0-0.2-0.1-0.2-0.1-0.1l0.3-0.6C260.7,148.3,261.2,148.4,260.9,149.2z"/>
								<path class="st87" d="M261.3,148.4c-0.3,0-0.5-1-0.4-1.7l0.6,0.8C261.3,147.4,261.1,147.3,261.3,148.4z"/>
								<path class="st87" d="M261.7,148.3c0-0.6,0.1-1.8,0.4-0.7C261.7,147.4,262.1,149,261.7,148.3z"/>
								<path class="st87" d="M263.4,147l-0.4,0.8c0.1,1.4,0.3,0.4,0.6,1c-0.4,0.3-0.3-0.1-0.8-0.9c-0.1,0.1-0.4-0.6-0.6-1
									C263,147.9,262.5,144.6,263.4,147z"/>
								<polygon class="st87" points="262.6,148.6 262.4,148 262.7,148.4 								"/>
								<path class="st87" d="M264.2,145.4c-0.1-1.7,0.7,0.8,0.9,0c-0.1-0.1-0.1-0.2-0.2-0.4l0.3,0.1l-0.1-0.4c0.2,1,0.6,1.3,0.9,2
									c0,1.1-0.4-1.2-0.4,0c0.2,0.4,0.4,1.1,0.5,1.4c-0.3-0.4-0.5-1-0.7-1.5c-0.2-0.1,0,0.5,0,0.8c-0.3-0.5-0.7-1.9-0.9-1.5
									c0,0.9,0.4,1.3,0,1c-0.1-1.6-0.3,0.3-0.6-0.6c-0.2,0.3-0.2,1.3-0.1,1.9c-0.2-1.2-0.6-2.2-0.9-2.5l0.6,0.9l-0.1-1.4
									C263.9,145.8,264.1,145.7,264.2,145.4L264.2,145.4z"/>
								<path class="st87" d="M266.1,148.1c0.1,0.1,0.1,0.2,0.2,0.2C266.3,148.4,266.2,148.3,266.1,148.1z"/>
								<polygon class="st87" points="263.9,148.6 264.1,148.9 264.1,149.3 								"/>
								<path class="st87" d="M266.6,149c-0.1,0.1-0.2-0.4-0.1-0.5l0.3,0.6L266.6,149z"/>
								<polygon class="st87" points="266.7,148.1 266.6,147.2 266.9,147.9 								"/>
								<path class="st87" d="M272.3,145.2c0,0.5-0.4-0.4-0.7-1C271.8,143.9,272,145,272.3,145.2z"/>
								<path class="st87" d="M276.4,144.3c0.1,0.7-0.5,0-0.7,0.1C275.6,143.9,276,144,276.4,144.3z"/>
								<path class="st87" d="M279.8,146.1c-0.2-0.2-0.4-0.3-0.4-0.5l-1.2-1.3C278.2,143.7,279.4,145.5,279.8,146.1z"/>
								<path class="st87" d="M281.6,145l-0.7-0.3l0.1-0.1c-0.5-0.5-0.7-0.7-1.2-1.1C280.3,143.6,280.9,144,281.6,145z"/>
								<path class="st87" d="M279.4,143.4c0,0,0.1,0,0.2,0C279.7,143.6,279.8,143.8,279.4,143.4z"/>
								<path class="st87" d="M279.7,143.4c0.1,0.1,0.1,0.1,0.2,0.1c-0.1,0-0.2-0.1-0.3-0.1C279.5,143.3,279.5,143.1,279.7,143.4z"
									/>
								<path class="st87" d="M281.3,144.2l0.6-0.2l0,0.4C281.2,143.6,282.1,145.1,281.3,144.2z"/>
								<path class="st87" d="M283,141.5l-0.7-0.8c0.1-0.4,2,0.9,1-0.4c0.3,0.6,1,0.6,0.9,1.2C283.5,140.9,283,141.2,283,141.5z"/>
								<path class="st87" d="M282.9,139.5c-0.3-0.2-0.3-0.4-0.5-0.6c0-0.2,0.4,0.1,0.7,0.4C282,138.4,283.6,140,282.9,139.5z"/>
								<path class="st87" d="M284.1,138.4c-0.1,0.1-0.3,0.1-0.4-0.2c0.3-0.2,1.1,0.7,1.7,1.1C285.7,139.9,284.4,138.9,284.1,138.4z
									"/>
								<path class="st87" d="M279.7,131.7c0.7,0.6,0.4,0.7,0.2,0.5C280.1,132.2,279.9,131.9,279.7,131.7z"/>
								<polygon class="st87" points="285.5,136.4 285.6,136.6 284.5,135.8 								"/>
								<polygon class="st87" points="287.2,135.4 288.1,135.7 287.8,135.9 								"/>
								<path class="st87" d="M287.3,135l0.2-0.2l0.2,0.3C287.9,135.3,287.4,134.9,287.3,135z"/>
								<path class="st87" d="M288,134.3c-0.1,0,0,0.1,0.1,0.2l-0.6-0.1L288,134.3z"/>
								<path class="st87" d="M285.5,127.5c-0.8-0.4-0.2-0.3-0.4-0.4C285.3,127.2,286.3,127.8,285.5,127.5z"/>
							</g>
						</g>
					</g>
				</g>
			</g>
			<g>
				<defs>
					<path id="SVGID_00000140722511957969675900000017062474864830581436_" d="M301.4,222.6L292,229c-3.8-2.6-10.7-5.2-19.7-0.1
						c-1.8,1-3.3,2.5-4.7,4.3l-6.5-8.6c1.3-3.7,6-6.2,13.6-11c9.5-5.9,10.8-16.8,10.8-16.8S294.2,209.7,301.4,222.6z"/>
				</defs>
				<clipPath id="SVGID_00000114040246667713330940000015785018428776471961_">
					<use xlink:href="#SVGID_00000140722511957969675900000017062474864830581436_"  style="overflow:visible;"/>
				</clipPath>
				<g style="opacity:0.88;clip-path:url(#SVGID_00000114040246667713330940000015785018428776471961_);">
					<g>
						<g>
							<g>
								<path class="st87" d="M279.2,210.7c0.1,0,0.1,0,0.2,0.1C279.4,210.8,279.3,210.8,279.2,210.7z"/>
								<path class="st87" d="M273.4,215.3C273.4,215.3,273.4,215.3,273.4,215.3L273.4,215.3L273.4,215.3z"/>
								<path class="st87" d="M273.4,215.2l-0.2-0.2C273.4,215.1,273.4,215.2,273.4,215.2z"/>
								<path class="st87" d="M280.8,211.3c0.1,0,0.2,0,0.3,0L280.8,211.3z"/>
								<path class="st87" d="M280.9,212.5c0,0,0,0.1,0,0.1C280.9,212.6,280.9,212.5,280.9,212.5z"/>
								<path class="st87" d="M282.8,205.2C282.7,205.1,282.7,205.1,282.8,205.2C282.7,205.1,282.7,205.1,282.8,205.2z"/>
								<path class="st87" d="M283.3,204.9c0,0,0-0.1,0.1-0.1L283.3,204.9C283.5,204.8,283.4,204.9,283.3,204.9z"/>
								<path class="st87" d="M283.5,205.2L283.5,205.2C283.5,205.2,283.5,205.2,283.5,205.2z"/>
								<path class="st87" d="M287.4,203l0.2,0.1C287.5,203.1,287.4,203.1,287.4,203z"/>
								<path class="st87" d="M282.5,205.1c0.1,0,0.1,0,0.2,0C282.6,205.1,282.5,205.2,282.5,205.1z"/>
								<path class="st87" d="M279.1,210.6C279.2,210.7,279.2,210.7,279.1,210.6C279.2,210.7,279.2,210.7,279.1,210.6z"/>
								<path class="st87" d="M281.1,210.9L281.1,210.9C281.1,210.9,281.1,210.9,281.1,210.9z"/>
								<path class="st87" d="M270.7,216.2c-0.1,0-0.1,0-0.2,0C270.6,216.1,270.7,216.2,270.7,216.2z"/>
								<path class="st87" d="M282.2,207c0.5,0.4,0.2-0.2,0.7,0.2c-0.2,0-0.3,0.1-0.1,0.3c0.4,0.1,0.1-0.3,0.6,0l-0.3,0.1
									c0.2,0.3,0.6,0.4,0.5,0.4c-0.7-0.3-0.1,0.7-0.3,0.8l0.1,0l0.1,0.5c0,0,0,0,0,0c0,0-0.1,0-0.1-0.1c0.2,0.3,0.3,0.7,0.1,0.9
									c-0.4-0.2-0.7,0.6-1,0.4c0.2,0,0.2-0.1,0.2-0.3l-0.4-0.3c-0.2,0.2,0.4,0.3,0,0.3c-0.5-0.5,0.2-0.3,0.3-0.5
									c-0.2-0.1-0.3-0.1-0.5,0c0.2-0.3,0.2-0.7,0.9-0.4c-0.1-0.2-0.3-0.3-0.4-0.3c0.5,0.1-0.2-0.4,0.2-0.3c-0.6-0.3-0.6,0.2-1,0.1
									c0.2,0.6-0.4,0.6-0.7,0.8c0.4,0.3,0.8,0.4,1,0.7c0,0.5-0.4,0.1-0.8,0.1c0,0.3,0.6,0.6,0.4,0.9l0.4,0c0.4,0.7-0.4,0-0.4,0.2
									c-0.1-0.2-0.2-0.3-0.1-0.4c-0.2-0.2-0.4-0.1-0.4-0.1l0-0.1c-0.3-0.2-0.6-0.4-0.6-0.1c0.4,0.2,0.1,0.4,0.2,0.5l0.1,0
									c-0.2,0-0.3,0.2-0.5,0.2l0.1,0.1c-0.2,0-0.6-0.4-0.7-0.1c0.2,0.1,0.7,0.4,0.5,0.5c0.2,0.2,0.4,0.1,0.5-0.2
									c-0.1,0.2,0.2,0.7,0.4,0.5c0.2,0.3-0.3,0-0.3,0.3c-0.1-0.1-0.2-0.2-0.3-0.3c0.4,0.4-0.3,0.4-0.6,0.1l0.4,0
									c-0.3-0.3-0.7-0.3-0.8-0.6c0.4,0.6-0.7,0.2-0.4,0.7l-0.2-0.3c-0.2,0.5-1,0.1-1.5,0.3c0.3,0.1,0.7,0.6,0.8,0.3
									c-0.3,0.4,0.3,0.7,0.4,1c-0.1,0.4-0.6-0.4-0.8-0.5l0.3,0c-0.8-0.5-0.7,0.7-1.4,0.6c0.1,0.2,0.2,0,0.3,0.1
									c0.1,0.5-0.2,0.1-0.4,0c-0.1,0.2-0.3,0.5,0.1,0.9c-0.1,0.3-0.2-0.3-0.4-0.4l0,0.1c-0.2-0.1-0.4-0.2-0.5-0.4
									c-0.1,0.3-0.2,0.6,0,1.1c-0.5,0.2-0.8-1-1.2-1c0,0.3,0.2,0.3,0.4,0.5l-0.3,0.1c0.4,0.5,0.5,0.1,0.8,0.7
									c-0.6-0.5-0.4,0-1-0.2l0-0.1c-0.4-0.3-0.6,0.1-0.8,0.2c0.2,0.2,0.4,0.1,0.6,0.1c-0.1,0.3-0.8,0.4-1.2,0
									c-0.1,0.2-0.3,0.5,0,0.6c-0.4,0.3-0.6-0.7-0.9-0.4l0.2,0.4c-0.2,0.8-1.1-0.2-1.3,0.5l-0.2-0.5c0,0.3-0.1,0.4-0.1,0.7
									l0.3,0.1c0,0.5-0.4-0.4-0.5,0.1c-0.1-0.2,0-0.6-0.1-0.8c1,0,1.6-1.1,2.6-1c0,0.1,0,0.2,0.1,0.3c0-0.2,0.3-0.1,0.1-0.4l0,0
									c0.3,0,0.2-0.7,0.3-0.8c0.3,0.3,0.4-0.4,0.6,0.3l-0.1-0.4c0.2,0.2,0.3,0.5,0.4,0.6c0.1-0.1,0-0.4-0.2-0.4
									c0.4-0.5,1.1-0.8,1.8-1l-0.3-0.2c0-0.2,0.8,0.1,0.2-0.5c0.4,0.1,0.6-0.7,1.1,0c-0.3-0.8,0.4-0.7,0.8-0.9
									c0.4,0.6,0.4-0.1,0.7,0.1c-0.3-0.5-0.6-0.2-0.9-0.5c0.9,0.3,0.5-1.3,1.6-0.4c0-0.1,0-0.1-0.1-0.1c0.1-0.1,0-0.3,0-0.4
									c0.2,0.1,0.2,0.4,0.4,0.3c0.1-0.2-0.3-0.4-0.3-0.5c0.5,0,0.9-0.3,1.4,0.1c-0.1-0.2-0.2-0.5-0.4-0.5c0.7-0.1,0.2-0.4,0.8-0.6
									c-0.1,0.1-0.5-0.3-0.5,0c-0.5-0.7,0.6-0.5,0.5-1.1l0.5,0.2c0.2-0.1-0.2-0.5-0.4-0.4c0-0.5,0.3-0.5,0.5-0.8
									c0-0.1-0.1-0.1-0.1,0l0.2-0.4c0.1,0,0.4,0,0.7,0.2C282.4,206.7,282.2,206.7,282.2,207z"/>
								<polygon class="st87" points="282.7,206.8 282.7,206.8 282.7,206.8 								"/>
								<path class="st87" d="M281.7,211.7c-0.1-0.1-0.1-0.2-0.1-0.2C281.7,211.5,281.7,211.6,281.7,211.7z"/>
								<path class="st87" d="M285.5,203.2c0.7,0.4-0.2,0.2-0.1,0.5c0.2-0.1,0.6,0.1,0.8,0.2c-1-0.2,0.1,0.4-0.3,0.7
									c0.3,0.1,0.4,0,0.8,0.1c-0.3,0.1-0.6,0.5-1.2,0.3c-0.2,0.4-0.2,0.8-0.4,1c0.4-0.2,0.5,0.2,1.1,0.2c-0.7,0-1.8,0.3-2.7,0.3
									c0.5,0.4,0.5,0.4,1.1,0.7c0.1,0.7-0.6-0.2-0.7,0.3l0-0.3c-0.3,0.1-0.8-0.2-1.2-0.4l0.4-0.4c-0.4-0.2-0.5,0.1-0.7,0.1
									c-0.5-0.1-0.1-0.4-0.5-0.6c0.3,0.1,0.4-0.1,0.6-0.2l-0.2-0.1c-0.1-0.3,0.5-0.2,0.6-0.4c0,0-0.1-0.1-0.1-0.1
									c0.3,0.1,0.6,0.1,0.7,0.1l-0.1,0.1c0.6,0.1,1.1-0.2,1.5,0.4l0.1-0.6c-0.6-0.2-1.4-0.5-1.7-0.3l-0.2-0.1
									c-0.2-0.4,0.7-0.4,1.1,0c1.4,0.4,0.4-0.8,1.1-0.9c-0.3-0.2-0.6,0-0.9,0c-0.1,0.1-0.1,0.2,0.2,0.3c-0.4,0.4-1.1-0.6-1.2,0
									c0,0.3,0.7,0,0.6,0.4l-1.1-0.2c0.1-0.2,0.4-0.3,0.6-0.5c0.6-0.4,0.8-0.9,0.9-1.2c0.1-0.3,0-0.6,0-0.6c0.7-1.6,1.2-3.3,1.6-5
									c0.2-0.5,0.2-0.7,1.3-0.8c0.2,0.1,0.1,0.5,0.5,0.4c-0.4,0-0.6,0.2-0.6,0.5c0.4,0.1,0.2-0.2,0.3-0.2l0,0.1
									c0.2,0,0.3,0,0.4-0.1c0.5,0.4,0.3,1.1-0.5,1.2c0.3,0.3,0.6-0.1,1-0.2c0.1,1-0.1,1.7-0.3,2.7c-0.7-0.2-0.5,0-0.9,0l0.2,0.2
									c-0.1-0.1-0.6-0.1-0.7-0.3c0.4,0.7-1.1,0.4-1.5,0.6l0.4,0.1c-0.2,0.3-0.2,0.4-0.5,0.5c0.5,0.7,0.2-0.4,1,0l-0.2,0.1
									c0.3,0,0.9,0.1,1.2,0c-0.7,0.3,0,0.8-0.6,1.1c0.4,0.1,0.8-0.3,0.9-0.4c0,0.2-0.4,0.4-0.1,0.6l-0.5-0.1
									c-0.2,0.3,0.5,0.1,0.7,0.3C287.3,203.9,286.1,202.8,285.5,203.2z"/>
								<path class="st87" d="M281.9,209.9c0-0.1,0.1-0.1,0.2-0.2C282,209.8,282,209.8,281.9,209.9z"/>
								<path class="st87" d="M283.6,209.3c0.1,0,0.1,0.1,0.2,0.1C283.7,209.3,283.7,209.3,283.6,209.3z"/>
								<path class="st87" d="M284.3,209.5c-0.2-0.2-0.2-0.1-0.5-0.2C284,209.4,284.1,209.1,284.3,209.5z"/>
								<path class="st87" d="M262,220.6c-0.1-0.1-0.3-0.3-0.2-0.4l0.3,0.1L262,220.6z"/>
								<path class="st87" d="M262.6,220l0.3-0.2l0.3,0.7C262.8,220.4,262.9,219.9,262.6,220z"/>
								<path class="st87" d="M263.4,219.5l-0.1-0.2C263.3,219.4,263.4,219.4,263.4,219.5z"/>
								<path class="st87" d="M263.4,219.8l0.2,0.5l-0.4-0.3l0.1-0.1c0-0.2,0.1-0.3,0.1-0.3l0.2,0.3
									C263.5,219.8,263.4,219.7,263.4,219.8z"/>
								<path class="st87" d="M263.7,219.8c0,0.1,0,0.1,0,0.2C263.7,219.8,263.7,219.8,263.7,219.8z"/>
								<path class="st87" d="M264.3,218.7c0,0.2,0.1,0.4,0.2,0.6c-0.3,0.2-0.4-0.5-0.6-0.2c0.4,0.3-0.1,0.3-0.2,0.6
									c0-0.5,0.1-0.8,0.4-1l0.1,0.3C264.3,219.1,264.2,218.9,264.3,218.7z"/>
								<path class="st87" d="M265.9,219.3l-0.3-0.4c0,0.2-0.4,0.3-0.3,0.7c-0.1,0-0.2-0.3-0.3-0.4c-0.1,0.3-0.1,0.4-0.3,0.1
									c0.5-0.4,0.3-0.5,0.8-0.7c0-0.1-0.1-0.1-0.1,0l0.3-0.3C265.8,218.9,266.2,218.9,265.9,219.3z"/>
								<path class="st87" d="M266.3,218.9c-0.2,0-0.5-0.4-0.4-0.7c0.2,0.1,0.4,0.2,0.6,0.3C266.4,218.5,266.2,218.5,266.3,218.9z"
									/>
								<path class="st87" d="M266.7,218.8c0-0.3,0.1-0.8,0.4-0.4C266.8,218.4,267,219.1,266.7,218.8z"/>
								<path class="st87" d="M268.3,217.9l-0.4,0.4c0.1,0.6,0.3,0.1,0.5,0.4c-0.4,0.2-0.3,0-0.7-0.3c-0.1,0.1-0.4-0.2-0.5-0.3
									C267.9,218.4,267.6,217,268.3,217.9z"/>
								<polygon class="st87" points="267.5,218.8 267.4,218.5 267.7,218.7 								"/>
								<path class="st87" d="M269.3,217c0.1-0.8,0.7,0.3,0.9-0.1c0,0,0-0.1-0.1-0.2l0.3,0l0-0.2c0.1,0.4,0.4,0.5,0.7,0.7
									c-0.1,0.5-0.3-0.5-0.4,0.1c0.1,0.2,0.3,0.4,0.4,0.6c-0.2-0.1-0.4-0.4-0.5-0.6c-0.2,0-0.1,0.2,0,0.4
									c-0.3-0.2-0.5-0.8-0.7-0.6c-0.1,0.4,0.3,0.5-0.1,0.5c0-0.7-0.3,0.2-0.6-0.2c-0.2,0.2-0.3,0.6-0.2,0.9
									c-0.1-0.5-0.5-0.9-0.7-1l0.5,0.3l0-0.6C268.9,217.3,269.1,217.2,269.3,217L269.3,217z"/>
								<path class="st87" d="M270.9,218c0,0,0.1,0.1,0.1,0.1C271,218.1,270.9,218,270.9,218z"/>
								<polygon class="st87" points="268.8,218.6 268.9,218.7 268.9,218.8 								"/>
								<path class="st87" d="M271.2,218.3c-0.1,0-0.1-0.1-0.1-0.2L271.2,218.3L271.2,218.3z"/>
								<polygon class="st87" points="271.3,217.8 271.4,217.4 271.5,217.7 								"/>
								<path class="st87" d="M276.7,214.9c0,0.3-0.3-0.1-0.5-0.3C276.4,214.3,276.4,214.9,276.7,214.9z"/>
								<path class="st87" d="M280.1,213c0,0.4-0.4,0.2-0.6,0.3C279.5,213,279.8,213,280.1,213z"/>
								<path class="st87" d="M282.3,212.9c-0.1-0.1-0.2-0.1-0.2-0.2l-0.7-0.4C281.5,211.9,282.1,212.6,282.3,212.9z"/>
								<path class="st87" d="M283.7,211.5l-0.4,0.1l0.1-0.1c-0.3-0.1-0.4-0.2-0.7-0.3C283,211.1,283.3,211.1,283.7,211.5z"/>
								<path class="st87" d="M282.4,211.2c0,0,0.1,0,0.1-0.1C282.6,211.3,282.6,211.4,282.4,211.2z"/>
								<path class="st87" d="M282.6,211.1C282.6,211.1,282.7,211.1,282.6,211.1C282.6,211.1,282.6,211.2,282.6,211.1
									C282.5,211.1,282.5,211.1,282.6,211.1z"/>
								<path class="st87" d="M283.6,211l0.4-0.4l0,0.3C283.6,210.7,284,211.3,283.6,211z"/>
								<path class="st87" d="M285,208.5l-0.4-0.3c0.1-0.3,1.2-0.2,0.7-0.7c0.2,0.3,0.6,0,0.5,0.4C285.3,207.8,285,208.2,285,208.5z
									"/>
								<path class="st87" d="M285.1,207.1c-0.1,0-0.2-0.1-0.3-0.2c0-0.1,0.3-0.1,0.4,0C284.6,206.6,285.4,207.2,285.1,207.1z"/>
								<path class="st87" d="M285.8,205.7c-0.1,0.1-0.2,0.2-0.2,0c0.2-0.2,0.6,0.1,0.9,0.1C286.7,206.1,286,206,285.8,205.7z"/>
								<path class="st87" d="M283.6,202.4c0.4,0.2,0.2,0.3,0.1,0.3C283.8,202.7,283.7,202.5,283.6,202.4z"/>
								<polygon class="st87" points="286.7,203.5 286.7,203.6 286.2,203.5 								"/>
								<polygon class="st87" points="287.6,202 288,201.9 287.9,202.2 								"/>
								<path class="st87" d="M287.6,201.6l0.1-0.3l0.1,0.1C287.9,201.7,287.6,201.5,287.6,201.6z"/>
								<path class="st87" d="M287.9,200.8c0,0,0,0.1,0.1,0.1l-0.3,0.2L287.9,200.8z"/>
								<path class="st87" d="M286.3,196c-0.4,0-0.1-0.2-0.2-0.2C286.2,195.7,286.7,195.9,286.3,196z"/>
							</g>
						</g>
					</g>
				</g>
			</g>
			<g>
				<path class="st199" d="M250.5,106.5c-0.2-0.5-0.2-1.1,0.2-1.5c1.1-1.4,3.9-4.6,7.1-4.1c3.7,0.6,6.1,5,6,6.2
					c-0.2,1.7-3.1,5.2-7.1,5.1C253.5,112.3,251.3,108.2,250.5,106.5z"/>
				
					<ellipse transform="matrix(0.107 -0.9943 0.9943 0.107 123.8332 350.7664)" class="st22" cx="257.2" cy="106.4" rx="4.3" ry="3.2"/>
			</g>
		</g>
	</g>
</g>
</svg>
