<?xml version="1.0" encoding="utf-8"?>
<!-- Generator: Adobe Illustrator 26.0.3, SVG Export Plug-In . SVG Version: 6.00 Build 0)  -->
<svg version="1.1" xmlns="http://www.w3.org/2000/svg" xmlns:xlink="http://www.w3.org/1999/xlink" x="0px" y="0px"
	 viewBox="0 0 503.6 377.7" style="enable-background:new 0 0 503.6 377.7;" xml:space="preserve">
<style type="text/css">
	.st0{fill:#FFF0DD;}
	.st1{fill:#6B5C52;}
	.st2{fill:#B8BBBF;}
	.st3{fill:#F9E9CD;}
	.st4{fill:#FFE6BD;}
	.st5{fill:#F5F5F2;}
	.st6{fill:#637189;}
	.st7{fill:#9E9082;}
	.st8{fill:#938D89;}
	.st9{fill:#FFDBC0;}
	.st10{fill:#6E85BD;}
	.st11{fill:#E8D9D6;}
	.st12{fill:#A7BC79;}
	.st13{fill:#FF8080;}
	.st14{fill:#3D3533;}
	.st15{fill:#A1683D;}
	.st16{fill:#CCE0FF;}
	.st17{fill:#383531;}
	.st18{fill:#757060;}
	.st19{fill:#D29F7E;}
	.st20{opacity:0.88;clip-path:url(#SVGID_00000052105101036005119360000004761177552177557389_);}
	.st21{fill:#322015;}
	.st22{fill:#1B1C1E;}
	.st23{fill:none;stroke:#1B1C1E;stroke-width:1.2604;stroke-linecap:round;stroke-linejoin:round;stroke-miterlimit:10;}
	.st24{opacity:0.84;clip-path:url(#SVGID_00000176037096006781903630000012099216871130441657_);}
	.st25{clip-path:url(#SVGID_00000080188946047643449940000003918458269099911586_);}
	.st26{fill:none;stroke:#1B1C1E;stroke-width:1.2604;stroke-linecap:round;stroke-linejoin:round;}
	.st27{fill:#D1493B;}
	.st28{fill:#FFAE1F;}
	.st29{opacity:0.88;clip-path:url(#SVGID_00000008835753407425950680000014533575201040523944_);}
	.st30{opacity:0.7;clip-path:url(#SVGID_00000150819107384463701860000005045783138881354393_);}
	.st31{fill:#2C2C2D;}
	.st32{opacity:0.87;clip-path:url(#SVGID_00000079469327819587123130000016135464667477786537_);}
	.st33{fill:#080809;}
	.st34{opacity:0.7;clip-path:url(#SVGID_00000079484904779907870700000012899576303733331076_);}
	.st35{fill:#FBAF5E;}
	.st36{opacity:0.62;clip-path:url(#SVGID_00000121986316951317520820000011054001940157326234_);}
	.st37{fill:#3E240C;}
	.st38{fill:#BC763C;}
	.st39{opacity:0.62;clip-path:url(#SVGID_00000016056057315361773990000017121315800511966399_);}
	.st40{opacity:0.62;clip-path:url(#SVGID_00000161595869397913708960000008163613726140091304_);}
	.st41{fill:#967258;}
	.st42{opacity:0.53;clip-path:url(#SVGID_00000140701263757263831840000016503441392819274654_);}
	.st43{opacity:0.73;clip-path:url(#SVGID_00000047045473893658405370000000576263497899384476_);}
	.st44{fill:none;stroke:#1B1C1E;stroke-width:1.1311;stroke-linecap:round;stroke-linejoin:round;stroke-miterlimit:10;}
	.st45{fill:#3D291C;}
	.st46{fill:#3D291C;stroke:#967258;stroke-width:1.2604;stroke-linecap:round;stroke-linejoin:round;stroke-miterlimit:10;}
	.st47{fill:#D6D4C8;}
	.st48{fill:#1B1C1E;stroke:#967258;stroke-width:1.2604;stroke-linecap:round;stroke-linejoin:round;stroke-miterlimit:10;}
	.st49{opacity:0.52;clip-path:url(#SVGID_00000096758093432303422230000010982293226746247866_);}
	.st50{fill:#B37D4F;}
	.st51{opacity:0.88;clip-path:url(#SVGID_00000073722802772210625150000003507450090650785180_);}
	.st52{fill:#343434;}
	.st53{fill:#BC6464;}
	.st54{opacity:0.88;clip-path:url(#SVGID_00000150822035991485638610000011849359542133167019_);}
	.st55{fill:#1B1C1E;stroke:#1B1C1E;stroke-width:1.1485;stroke-linecap:round;stroke-linejoin:round;stroke-miterlimit:10;}
	.st56{fill:#8C7265;}
	.st57{opacity:0.88;clip-path:url(#SVGID_00000170958907195631905320000004237640958513649302_);}
	.st58{fill:#1B1C1E;stroke:#1B1C1E;stroke-width:1.3664;stroke-linecap:round;stroke-linejoin:round;stroke-miterlimit:10;}
	.st59{opacity:0.88;clip-path:url(#SVGID_00000037657851155612886740000011720346734681852069_);}
	.st60{fill:none;stroke:#1B1C1E;stroke-width:1.3664;stroke-linecap:round;stroke-linejoin:round;stroke-miterlimit:10;}
	.st61{opacity:0.88;clip-path:url(#SVGID_00000102536773275420358770000007293157955286466493_);}
	.st62{opacity:0.88;clip-path:url(#SVGID_00000054241768776639699390000008959810165102860948_);}
	.st63{fill:#5F6C72;}
	.st64{fill:#1B1C1E;stroke:#1B1C1E;stroke-width:1.5329;stroke-linecap:round;stroke-linejoin:round;stroke-miterlimit:10;}
	.st65{opacity:0.88;clip-path:url(#SVGID_00000181075665691979511100000003371438757001556352_);}
	.st66{clip-path:url(#SVGID_00000015321833358966046980000006845710377835370403_);}
	.st67{opacity:0.58;clip-path:url(#SVGID_00000031897114316947854640000012996157976942362792_);}
	.st68{opacity:0.58;clip-path:url(#SVGID_00000072280749312540621780000015958337778566002821_);}
	.st69{fill:#1B1C1E;stroke:#1B1C1E;stroke-width:1.818;stroke-linecap:round;stroke-linejoin:round;stroke-miterlimit:10;}
	.st70{fill:#FFFFFF;}
	.st71{fill:#CC813E;}
	.st72{opacity:0.58;clip-path:url(#SVGID_00000111881918692239889470000012046731140282962872_);}
	.st73{fill:#AA8C7D;}
	.st74{opacity:0.88;clip-path:url(#SVGID_00000146459083571500918440000007188625183835428240_);}
	.st75{opacity:0.88;clip-path:url(#SVGID_00000047035850879239784100000003714276579387882638_);}
	.st76{fill:#1B1C1E;stroke:#1B1C1E;stroke-width:1.2604;stroke-linecap:round;stroke-linejoin:round;stroke-miterlimit:10;}
	.st77{opacity:0.88;clip-path:url(#SVGID_00000056385710314222570000000010614470465414380162_);}
	.st78{opacity:0.88;clip-path:url(#SVGID_00000072253020855453980000000011237872671643609733_);}
	.st79{opacity:0.88;clip-path:url(#SVGID_00000097497448743080074400000012864710638760994199_);}
	.st80{fill:none;stroke:#1B1C1E;stroke-miterlimit:10;}
	.st81{fill:#B8BDC4;}
	.st82{fill:#B4D3CD;}
	.st83{opacity:0.88;clip-path:url(#SVGID_00000167397163727946129280000007176099763753509309_);}
	.st84{opacity:0.88;clip-path:url(#SVGID_00000166664319931460940240000004212795804827386027_);}
	.st85{fill:#EFBE9D;}
	.st86{opacity:0.88;clip-path:url(#SVGID_00000079476039579869517360000017486666555266587022_);}
	.st87{fill:#443730;}
	.st88{opacity:0.88;clip-path:url(#SVGID_00000158711039175672376440000012835390839079779227_);}
	.st89{opacity:0.88;clip-path:url(#SVGID_00000073680367881600637450000011002653571356327809_);}
	.st90{fill:#E2AF8D;}
	.st91{fill:none;stroke:#1B1C1E;stroke-linecap:round;stroke-linejoin:round;stroke-miterlimit:10;}
	.st92{fill:#1B1C1E;stroke:#1B1C1E;stroke-miterlimit:10;}
	.st93{fill:#FCEA9F;}
	.st94{fill:#F6EBEF;}
	.st95{fill:#D4DADD;}
	.st96{opacity:0.61;clip-path:url(#SVGID_00000033329325075223054180000000635421418533981347_);}
	.st97{fill:#353737;}
	.st98{fill:#B3B9BC;}
	.st99{opacity:0.61;clip-path:url(#SVGID_00000017496021346970631470000013086523166846595499_);}
	.st100{opacity:0.61;clip-path:url(#SVGID_00000020359543840734766740000017149136102045192583_);}
	.st101{fill:#B3B9BC;stroke:#1B1C1E;stroke-miterlimit:10;}
	.st102{fill:#CCE2CF;stroke:#1B1C1E;stroke-miterlimit:10;}
	.st103{fill:#EAD6DE;}
	.st104{fill:#1B1C1E;stroke:#1B1C1E;stroke-width:1.0185;stroke-miterlimit:10;}
	.st105{fill:none;stroke:#1B1C1E;stroke-width:1.0185;stroke-miterlimit:10;}
	.st106{fill:#FBAF5E;stroke:#1B1C1E;stroke-miterlimit:10;}
	.st107{fill:#513F3B;}
	.st108{opacity:0.88;clip-path:url(#SVGID_00000063627063353618888770000017987350255036085653_);}
	.st109{opacity:0.88;clip-path:url(#SVGID_00000033330261180330576210000012627911773954060702_);}
	.st110{fill:#8B2403;}
	.st111{fill:#EBDAD2;}
	.st112{fill:#A84E39;}
	.st113{fill:#751A01;}
	.st114{fill:#EBDAD2;stroke:#1B1C1E;stroke-miterlimit:10;}
	.st115{opacity:0.78;clip-path:url(#SVGID_00000095320644407903468590000006017828968986312349_);}
	.st116{fill:#290B01;}
	.st117{opacity:0.78;clip-path:url(#SVGID_00000004505920330879197960000006368270617728877461_);}
	.st118{opacity:0.78;clip-path:url(#SVGID_00000160885934887573536800000004281336159664870062_);}
	.st119{opacity:0.78;clip-path:url(#SVGID_00000131346692408377023020000012857014490689236890_);}
	.st120{fill:#030203;}
	.st121{fill:#86889A;}
	.st122{fill:#0B060A;}
	.st123{fill:#736E72;}
	.st124{fill:#9E9AA0;}
	.st125{fill:#18172A;}
	.st126{fill:#3B4D84;}
	.st127{fill:#FFA3AC;}
	.st128{fill:none;stroke:#0B080B;stroke-width:1.2005;stroke-miterlimit:10;}
	.st129{fill:#E7E6E8;}
	.st130{fill:#0B080B;}
	.st131{fill:none;stroke:#1B1C1E;stroke-width:1.2005;stroke-linecap:round;stroke-linejoin:round;stroke-miterlimit:10;}
	.st132{opacity:0.78;clip-path:url(#SVGID_00000072258614492544020410000008794494506919773604_);}
	.st133{opacity:0.78;clip-path:url(#SVGID_00000035514001244925199700000000519453785795115699_);}
	.st134{fill:#89745E;}
	.st135{opacity:0.78;clip-path:url(#SVGID_00000073698543256368078800000004826874266905056171_);}
	.st136{fill:#060606;}
	.st137{fill:#4D483E;}
	.st138{fill:#FF8A00;}
	.st139{fill:#50483F;}
	.st140{fill:#131313;}
	.st141{fill:#E8DBCD;}
	.st142{opacity:0.78;clip-path:url(#SVGID_00000111893655415662831820000007448832343264075446_);}
	.st143{opacity:0.78;clip-path:url(#SVGID_00000096016920213400785020000011306258455191459477_);}
	.st144{fill:#191212;}
	.st145{fill:#6C5353;}
	.st146{opacity:0.78;clip-path:url(#SVGID_00000069382364324211310070000015159530703638948250_);}
	.st147{fill:#B3B3B3;}
	.st148{fill:#FF9F2C;}
	.st149{fill:none;stroke:#343434;stroke-miterlimit:10;}
	.st150{fill:#21262A;}
	.st151{fill:#563D3D;}
	.st152{opacity:0.78;clip-path:url(#SVGID_00000135660319070302319710000000027015981343049377_);}
	.st153{fill:#181716;}
	.st154{fill:#706153;}
	.st155{fill:none;stroke:#1B1C1E;stroke-width:0.8477;stroke-miterlimit:10;}
	.st156{fill:#FCBD30;}
	.st157{fill:#E8D9CD;}
	.st158{fill:#534E4A;}
	.st159{opacity:0.78;clip-path:url(#SVGID_00000013892468931522551650000011808294268877862810_);}
	.st160{fill:#7DA050;}
	.st161{opacity:0.78;clip-path:url(#SVGID_00000135673778522542766830000014560744151140267651_);}
	.st162{opacity:0.78;clip-path:url(#SVGID_00000089549680263142871270000005472560286128422039_);}
	.st163{opacity:0.78;clip-path:url(#SVGID_00000149377263371947235610000001925587155216394942_);}
	.st164{fill:#EFEECE;}
	.st165{opacity:0.78;clip-path:url(#SVGID_00000150092363079336308150000003847716575763883926_);}
	.st166{fill:#93543B;}
	.st167{fill:#FF510C;}
	.st168{opacity:0.78;clip-path:url(#SVGID_00000181795438887434367460000011765412421345825939_);}
	.st169{fill:#4B1804;}
	.st170{fill:#000A0E;}
	.st171{opacity:0.78;clip-path:url(#SVGID_00000151501197941658942100000018239914595114353290_);}
	.st172{opacity:0.78;clip-path:url(#SVGID_00000070101999454216165650000012988424998092166814_);}
	.st173{fill:#F9C8A7;}
	.st174{fill:#1B1C1E;stroke:#1B1C1E;stroke-width:1.3738;stroke-miterlimit:10;}
	.st175{fill:none;stroke:#1B1C1E;stroke-width:1.3;stroke-miterlimit:10;}
	.st176{fill:#FFCB6E;}
	.st177{fill:#CECECE;}
	.st178{fill:none;stroke:#1B1C1E;stroke-width:1.3037;stroke-miterlimit:10;}
	.st179{fill:#FFFFFF;stroke:#1B1C1E;stroke-width:1.3;stroke-miterlimit:10;}
	.st180{opacity:0.78;clip-path:url(#SVGID_00000037679143121221957620000002293525404963926932_);}
	.st181{fill:none;stroke:#1B1C1E;stroke-width:1.3738;stroke-miterlimit:10;}
	.st182{opacity:0.45;clip-path:url(#SVGID_00000036226769779144927290000013996932326679360180_);}
	.st183{opacity:0.45;clip-path:url(#SVGID_00000038401721450043906780000014850546205243105967_);}
	.st184{opacity:0.45;clip-path:url(#SVGID_00000017493108950355720020000013639852036117924538_);}
	.st185{opacity:0.45;clip-path:url(#SVGID_00000164492604022420940090000006785984429676085679_);}
	.st186{fill:none;stroke:#1B1C1E;stroke-width:1.3738;stroke-linecap:round;stroke-linejoin:round;stroke-miterlimit:10;}
	.st187{fill:#FFB192;}
	.st188{fill:#EB8226;}
	.st189{fill:#F7EDE1;}
	.st190{opacity:0.78;clip-path:url(#SVGID_00000036226461167145352390000003794588778550047903_);}
	.st191{opacity:0.78;clip-path:url(#SVGID_00000167355917269629793000000008727557070782027414_);}
	.st192{opacity:0.5;clip-path:url(#SVGID_00000097462340206491081930000012004943800808820390_);}
	.st193{opacity:0.5;clip-path:url(#SVGID_00000180347909553336750780000015651615127756937382_);}
	.st194{fill:none;stroke:#06002C;stroke-width:1.3038;stroke-miterlimit:10;}
	.st195{fill:#F7A9B4;}
	.st196{fill:#06002C;}
	.st197{opacity:0.5;clip-path:url(#SVGID_00000146485579937313980190000010470995753659105671_);}
	.st198{fill:none;stroke:#06002C;stroke-width:1.3038;stroke-linecap:round;stroke-linejoin:round;stroke-miterlimit:10;}
	.st199{fill:#9BBEDC;}
	.st200{opacity:0.88;clip-path:url(#SVGID_00000182488546087573280740000016966144194560033437_);}
	.st201{opacity:0.88;clip-path:url(#SVGID_00000157285129517667495720000004863588419532098448_);}
</style>
<g id="Background">
	<rect x="-3.2" y="-2.4" class="st14" width="510" height="382.5"/>
</g>
<g id="Illustration">
	<g>
		<path class="st22" d="M145.7,257.5c0,0-24.2-2.2-26.9,4.2c-2.7,6.4,104.1,6.8,144.9,7.7s90-4.2,91.9-10.6c1.9-6.4-130.2-7-130.2-7
			L145.7,257.5z"/>
		<path class="st70" d="M306.1,211.2c-3-0.6-6.1-1.2-9.2-1.7c-5.5-25.2-15.9-46.2-15.9-46.2c12.9-1.6,34.6,0.4,40.2-4.8
			c5.5-5.1,8.9-18.6-4.8-27.4c-11-7.1-70.1-8.9-67.2,25.7c1.8,21.1,9.2,34.3,13.5,49c-43.3-2.5-87.6,2.4-108.7,7.7
			c-34.8,8.7-46.6,34.7-22.8,44.4c14.8,6,44.7,7.4,70.3,6.7h0c0,0,130.8,5.8,148-13.2C358.9,240.9,356.5,221.8,306.1,211.2z"/>
		<ellipse class="st22" cx="307.4" cy="141.9" rx="2.1" ry="3"/>
		<path class="st181" d="M201.5,264.6c0,0,19-15.3,56-21.5c37-6.2,63.8-6.6,73.8-11.1"/>
		<path class="st181" d="M296.9,209.5c0.7,3.1,1.3,6.2,1.8,9.4c1.2,7.6-0.9,13.9-5,19.2"/>
		<path class="st181" d="M150.8,227.6c0,0,10,1.9,44,2.2s69.4-5.1,68.8-19c-0.1-1.5-0.4-3.1-0.9-4.9"/>
		<g>
			<defs>
				<path id="SVGID_00000096745945932052692380000010251680686052544659_" d="M209.9,229.6L209.9,229.6l-50-1c0,0-0.1,0-0.1,0
					c0.6-0.2,21.8-4,39.6-6.4c13.2-1.8,52.5-1.2,52.4,0.7C251.8,224.4,209.9,229.6,209.9,229.6z"/>
			</defs>
			<clipPath id="SVGID_00000124158725692635405430000009685769968615992234_">
				<use xlink:href="#SVGID_00000096745945932052692380000010251680686052544659_"  style="overflow:visible;"/>
			</clipPath>
			<g style="opacity:0.45;clip-path:url(#SVGID_00000124158725692635405430000009685769968615992234_);">
				<g>
					<g>
						<g>
							<path class="st33" d="M197.8,231.3c-0.1-0.1-0.2-0.2-0.3-0.4C197.6,230.9,197.7,231.1,197.8,231.3z"/>
							<path class="st33" d="M217.3,229.3c0,0,0.1,0,0.1,0l0,0.1L217.3,229.3z"/>
							<path class="st33" d="M217.4,229.4l0.2,0.4C217.3,229.7,217.3,229.5,217.4,229.4z"/>
							<path class="st33" d="M195.9,228.2c-0.2-0.1-0.4-0.3-0.5-0.6L195.9,228.2z"/>
							<path class="st33" d="M197.8,226.1c0-0.1,0.1-0.2,0.1-0.2C197.9,226,197.8,226,197.8,226.1z"/>
							<path class="st33" d="M180,232.2c0,0.1,0.1,0.1,0.1,0.2C180,232.4,180,232.3,180,232.2z"/>
							<path class="st33" d="M178.6,231.5c-0.1,0-0.2,0-0.3,0l0-0.1C178.3,231.3,178.5,231.4,178.6,231.5z"/>
							<path class="st33" d="M179.2,231l-0.3-0.1C179,230.9,179.1,231,179.2,231z"/>
							<path class="st33" d="M170.2,226.7l0-0.3C170.2,226.5,170.2,226.6,170.2,226.7z"/>
							<path class="st33" d="M180.3,232.8c-0.1-0.1-0.2-0.2-0.2-0.4C180.2,232.5,180.4,232.6,180.3,232.8z"/>
							<path class="st33" d="M197.9,231.6c0-0.1,0-0.2-0.1-0.2C197.9,231.4,197.9,231.5,197.9,231.6z"/>
							<path class="st33" d="M194.6,228.3L194.6,228.3C194.8,228.3,194.7,228.3,194.6,228.3z"/>
							<path class="st33" d="M224.7,228.8c0.2,0,0.4,0,0.6,0.1C224.9,229,224.8,229,224.7,228.8z"/>
							<path class="st33" d="M185,231.5c0.2-1.3-0.7-0.1-0.7-1.3c0.4,0.3,0.7,0.5,0.8-0.2c-0.3-0.7-0.8,0.1-0.9-1l0.6,0.4
								c0.3-0.6-0.1-1.4,0.2-1.3c0.5,1.5,1.6-0.6,2.1-0.4l-0.2-0.1l0.8-0.8c0,0,0-0.1,0-0.1c0,0.1,0,0.2,0,0.3
								c0.3-0.8,0.9-1.4,1.5-1.2c0.3,0.9,2.1,0.2,2.4,1c-0.3-0.2-0.5-0.2-0.9,0l0.1,1.1c0.6,0,0-1,0.6-0.4c-0.1,1.5-0.9,0-1.3,0.2
								c0.2,0.3,0.4,0.6,0.7,0.8c-0.9,0.1-1.7,0.6-2.3-0.9c-0.2,0.3-0.1,0.9,0.1,1.1c-0.6-0.8-0.4,0.8-1,0.1
								c0.2,1.3,1.3,0.7,1.9,1.5c0.8-1.1,1.9-0.1,2.8,0.1c0-1-0.6-1.9-0.3-2.5c0.9-0.7,0.9,0.5,1.4,1.1c0.6-0.4,0-1.7,1-1.8
								l-0.6-0.7c0.5-1.5,0.6,0.6,1,0.2c-0.1,0.4-0.1,0.8-0.6,0.7c0,0.5,0.3,0.7,0.5,0.8l-0.1,0c0.2,0.7,0.3,1.5,0.9,1.1
								c-0.4-0.9,0.5-0.7,0.6-1.1l-0.2-0.2c0.5,0.3,0.9,0.1,1.2,0.3l0-0.2c0.4,0.3,0.5,1.4,1,1.2c-0.1-0.4-0.7-1.6-0.1-1.4
								c-0.1-0.7-0.7-0.7-1.2-0.4c0.5-0.3,0.7-1.4,0.1-1.4c0.1-0.8,0.6,0.3,0.9-0.1c-0.1,0.3,0.1,0.5,0,0.8c0-1.1,1.2-0.1,1.2,0.7
								l-0.6-0.6c0,0.9,0.8,1.5,0.5,2c0.2-1.4,1.6,0.7,1.9-0.6l-0.2,0.7c1.2-0.5,2.3,1.1,3.6,1.4c-0.5-0.4-0.5-2-1.3-1.4
								c1.2-0.4,0.3-1.6,0.6-2.4c0.9-0.6,0.5,1.4,0.8,1.9l-0.7-0.3c0.9,1.8,2.4-0.5,3.7,0.6c0.1-0.5-0.3-0.3-0.5-0.4
								c0.5-1,0.6,0.2,0.9,0.5c0.6-0.2,1.3-0.6,0.9-1.7c0.6-0.3,0,0.7,0.3,1l0.1-0.3l0.7,1.2c0.5-0.4,1.2-1,1.4-2.1
								c1.3,0.1,0.6,2.5,1.6,2.8c0.5-0.6-0.1-0.8-0.2-1.2l0.9,0.1c-0.4-1.2-1-0.6-1-2c0.8,1.4,1,0.4,2,1.2l-0.1,0.1
								c0.5,0.9,1.4,0.2,2,0.3c-0.3-0.6-0.9-0.6-1.3-0.8c0.6-0.5,2.2-0.1,2.8,1c0.3-0.2,1.1-0.7,0.5-1.2c1.3-0.3,0.6,1.6,1.7,1.2
								l-0.1-0.9c1.1-1.3,2.4,0.9,3.5-0.3l0.1,1c0.2-0.4,0.7-0.7,0.8-1.1l-0.6-0.3c0.4-0.9,0.6,0.7,1.2,0.1c0,0.3-0.4,1-0.4,1.3
								c-1.2-0.1-2.4,0.2-3.6,0.5c-1.2,0.3-2.4,0.5-3.7,0.1c0.1-0.1,0.2-0.3,0.1-0.5c-0.3,0.3-0.8,0-0.7,0.6l0.1,0.1
								c-0.7-0.2-1.2,1.2-1.5,1.2c-0.3-0.8-1.3,0.4-1.1-0.9l-0.4,0.9c-0.2-0.5-0.1-1.1-0.4-1.4c-0.4,0.1-0.4,0.7-0.1,1
								c-1.7,0.7-3.7,0.7-5.4,0.3l0.5,0.6c-0.4,0.4-1.6-1.1-1.1,0.6c-0.9-0.6-2.3,0.6-2.4-1.2c-0.5,1.8-2,0.9-3.2,0.6
								c0.1-1.5-1-0.4-1.3-1.1c-0.1,1.2,1,1.2,1.1,2c-1.3-1.8-3.3,1.4-3.9-1.6c-0.1,0.1-0.1,0.2-0.1,0.4c-0.2,0-0.5,0.5-0.8,0.7
								c-0.2-0.5,0.3-0.8-0.2-1c-0.4,0.1-0.2,1-0.3,1.3c-0.9-0.7-2.2-0.9-2.4-2.1c-0.2,0.3-0.5,1-0.2,1.2c-1.4-0.9-1.3,0.2-2.7-0.4
								c0.5,0,0.3,1.3,0.9,0.8c-0.5,1.7-2.1-0.3-3.2,0.5l-0.5-1c-0.7-0.2-0.7,0.8-0.2,1.2c-1.1,0.6-1.7,0-2.6-0.1
								c0,0.1,0,0.3,0.1,0.3l-1.2,0c-0.1-0.3-0.6-0.8-0.5-1.4C184.1,231.5,184.3,231.9,185,231.5z"/>
							<path class="st33" d="M183.9,231l0-0.1l0,0C183.9,230.9,183.9,230.9,183.9,231z"/>
							<path class="st33" d="M195,226.3c-0.1,0.3-0.2,0.4-0.3,0.5C194.8,226.6,194.9,226.4,195,226.3z"/>
							<path class="st33" d="M172.3,229c0.2-1.2,0.7,0.2,1.3-0.1c-0.5-0.2-0.4-0.9-0.3-1.2c0.6,1.6,0.8-0.3,1.9,0
								c0-0.5-0.5-0.6-0.6-1.2c0.6,0.4,1.6,0.6,1.8,1.5c1.1,0,1.9-0.4,2.5-0.2c-0.8-0.4-0.1-1-0.7-1.8c0.8,1.1,2.6,2.5,3.8,4
								c0.1-1.2,0.2-1.3,0-2.3c1.3-0.8,0.4,1.1,1.6,0.7l-0.6,0.2c0.6,0.4,0.6,1.5,0.8,2.3l-1.5-0.2c0,0.8,0.9,0.7,1.2,0.9
								c0.4,1-0.8,0.7-0.6,1.4c-0.2-0.7-0.8-0.5-1.2-0.8l-0.1,0.4c-0.7,0.4-1.1-0.7-1.7-0.7c-0.1,0.1-0.1,0.2-0.1,0.3
								c-0.2-0.5-0.4-1.1-0.8-1.2l0.3,0.1c-0.5-1-1.8-1.6-1-2.6c-0.5,0.1-1,0.2-1.5,0.3c0.2,1,0.5,2.6,1.3,2.8l0.1,0.4
								c-0.6,0.5-1.8-0.9-1.4-1.8c-0.3-1.2-0.9-1.3-1.5-1.1c-0.6,0.1-1.3,0.4-1.9-0.1c-0.1,0.6,0.5,0.9,0.8,1.3
								c0.3,0.1,0.6,0.1,0.6-0.4c1.4,0.4-0.3,2,1.3,1.9c0.8-0.3-0.9-1.1,0.2-1.1l0.8,1.9c-0.7-0.1-1.4-0.5-1.9-0.8
								c-1.6-0.7-2.9-0.9-3.9-0.9c-1,0-1.5,0.1-1.5,0.1c-4.7-0.7-9.3-1.5-14-2.5c-1.4-0.3-2-0.5-2.5-0.6c0.3,0,1.2,0.1,0.9,0
								c0.2,0.1,0.7,0.2,1.5,0.2c0.1-0.1-0.7-0.1-0.5-0.1l0.1,0c-0.1-0.1-0.2-0.1-0.4-0.1c0.9-0.1,2.5-0.2,3.1,0.2
								c0.7-0.2-0.5-0.4-0.8-0.5c2.5-0.2,4.1-0.3,6.6-0.5c0,0.7,0.2,0.4,0.6,0.9l0.2-0.3c-0.1,0.1,0.2,0.6-0.3,0.8
								c1.4-0.5,1.7,1.1,2.6,1.6l-0.1-0.4c0.8,0.2,1,0.2,1.7,0.5c1.3-0.8-1.1-0.3-0.8-1.3l0.4,0.2c-0.2-0.4-0.4-1.2-0.8-1.5
								c1.2,0.7,1.8-0.3,3.1,0.2c-0.1-0.6-1.3-0.9-1.7-1c0.5-0.1,1.3,0.3,1.3-0.2l0.1,0.7c0.8,0.1-0.1-0.6,0.2-1.1
								C172.4,226.3,170.7,228.6,172.3,229z"/>
							<path class="st33" d="M191.4,228.5c-0.2,0.1-0.4,0.1-0.6,0C191,228.4,191.2,228.4,191.4,228.5z"/>
							<path class="st33" d="M187.6,226.7c0-0.1,0-0.3-0.1-0.4C187.6,226.4,187.7,226.5,187.6,226.7z"/>
							<path class="st33" d="M187.2,225.3c-0.1,0.5,0.2,0.5,0.3,1C187.3,226,186.7,226,187.2,225.3z"/>
							<path class="st33" d="M248.1,225.1c0.1,0,0.6,0,0.5,0l-0.7,0L248.1,225.1z"/>
							<path class="st33" d="M246.6,225.1l-0.7,0.1c-0.2-0.1-0.3-0.1-0.5-0.2C246.2,225,245.8,225.1,246.6,225.1z"/>
							<path class="st33" d="M244.6,225.3l0.2,0.1C244.6,225.3,244.6,225.3,244.6,225.3z"/>
							<path class="st33" d="M244.6,225.2l-0.3-0.2c0.3,0.1,0.6,0.1,0.9,0.2l-0.4,0c0,0.1-0.2,0.1-0.3,0.1l-0.4-0.1
								C244.3,225.2,244.5,225.2,244.6,225.2z"/>
							<path class="st33" d="M243.8,225.2C243.8,225.1,243.8,225.1,243.8,225.2C243.8,225.1,243.8,225.1,243.8,225.2z"/>
							<path class="st33" d="M242,225.8c0.2-0.1-0.2-0.3-0.3-0.4c0.7-0.1,0.8,0.3,1.4,0.1c-1-0.2,0.3-0.2,0.6-0.3
								c-0.2,0.2-0.5,0.4-1.2,0.6l-0.1-0.2C242.1,225.6,242.3,225.7,242,225.8z"/>
							<path class="st33" d="M238.2,225.4l0.6,0.4c0.1-0.2,1-0.3,0.9-0.6c0.3,0.1,0.4,0.2,0.7,0.3c0.2-0.2,0.4-0.3,0.7-0.1
								c-1.3,0.3-0.9,0.4-2.1,0.6c0,0.1,0.2,0.1,0.3,0l-0.8,0.3C238.5,225.8,237.5,225.8,238.2,225.4z"/>
							<path class="st33" d="M237.1,225.8c0.6,0,1,0.4,0.7,0.7c-0.4-0.1-0.9-0.2-1.3-0.2C236.8,226.2,237.3,226.2,237.1,225.8z"/>
							<path class="st33" d="M236.2,225.8c-0.2,0.3-0.6,0.9-1,0.4C235.9,226.3,235.5,225.5,236.2,225.8z"/>
							<path class="st33" d="M231.8,226.7l1.2-0.5c0.2-0.8-0.6-0.2-1-0.6c1-0.2,0.7,0.1,1.5,0.5c0.3-0.1,0.8,0.3,1.1,0.5
								C233,226.1,233.1,228,231.8,226.7z"/>
							<polygon class="st33" points="234.1,225.7 234.3,226 233.7,225.8 							"/>
							<path class="st33" d="M229,227.9c-0.7,1.2-1.4-0.5-2.2,0.1c0.1,0.1,0,0.2,0.2,0.3l-0.7,0l0,0.3c0-0.7-0.8-0.9-1.1-1.5
								c0.7-0.8,0.4,0.9,1,0c-0.2-0.3-0.3-0.8-0.5-1c0.5,0.3,0.6,0.7,0.8,1.1c0.5,0,0.3-0.3,0.3-0.6c0.5,0.4,0.6,1.4,1.4,1.1
								c0.5-0.6-0.4-0.9,0.5-0.7c-0.4,1.1,0.9-0.2,1.3,0.4c0.6-0.3,1-0.9,0.9-1.2c0,0.7,0.7,1.3,1.2,1.5c-0.4-0.2-0.8-0.3-1.1-0.5
								l-0.3,0.9C229.9,227.6,229.5,227.7,229,227.9L229,227.9z"/>
							<path class="st33" d="M225.7,226c-0.1-0.1-0.2-0.1-0.3-0.2C225.5,225.8,225.6,225.8,225.7,226z"/>
							<polygon class="st33" points="231,225.8 230.7,225.6 230.9,225.3 							"/>
							<path class="st33" d="M225.1,225.3c0.1,0,0.2,0.3,0.1,0.3l-0.3-0.5L225.1,225.3z"/>
							<polygon class="st33" points="224.4,225.9 224.1,226.6 223.9,226.1 							"/>
							<path class="st33" d="M209.5,227.3c0.5-0.5,0.5,0.4,0.6,1.1C209.4,228.5,210,227.5,209.5,227.3z"/>
							<path class="st33" d="M200.1,226.5c0.5-0.6,1,0.3,1.6,0.2C201.2,227.2,200.5,226.9,200.1,226.5z"/>
							<path class="st33" d="M196,223.5c0.1,0.3,0.3,0.4,0,0.6l0.6,1.6C195.8,226.2,196,224.2,196,223.5z"/>
							<path class="st33" d="M191.5,223.5l0.7,0.6l-0.4,0.1c0.2,0.6,0.3,0.9,0.6,1.4C191.9,225.2,191.4,224.6,191.5,223.5z"/>
							<path class="st33" d="M193.1,225.8c-0.1,0-0.2,0-0.3-0.1C192.9,225.6,193,225.3,193.1,225.8z"/>
							<path class="st33" d="M192.6,225.7c0-0.1-0.1-0.1-0.1-0.2c0.1,0.1,0.3,0.1,0.4,0.2C192.8,225.9,192.7,226,192.6,225.7z"/>
							<path class="st33" d="M190.9,224.3l-1.3-0.1l0.5-0.3C190.3,224.8,190.7,223.3,190.9,224.3z"/>
							<path class="st33" d="M184.3,225.5l-0.1,0.9c-0.8,0.2-1.8-1.6-2.3-0.2c0.4-0.6-0.7-0.9,0.3-1.2
								C182.6,225.7,183.7,225.7,184.3,225.5z"/>
							<path class="st33" d="M181.3,226.9c0.1,0.2-0.1,0.4-0.2,0.7c-0.3,0.1-0.6-0.3-0.4-0.6C181,228,181,226.2,181.3,226.9z"/>
							<path class="st33" d="M177.6,226.9c0.2,0,0.6,0.1,0.2,0.3c-0.7,0-0.5-0.9-0.9-1.4C177.5,225.3,178,226.5,177.6,226.9z"/>
							<path class="st33" d="M172,232.1c0.1-0.6,0.7-0.4,0.8-0.2C172.6,231.8,172.2,231.9,172,232.1z"/>
							<polygon class="st33" points="171.9,227.3 172.1,227.2 172.3,228 							"/>
							<polygon class="st33" points="167.7,227 167.1,226.6 167.9,226.6 							"/>
							<path class="st33" d="M166.9,227.2l-0.7,0l0.3-0.2C166.7,226.8,166.6,227.2,166.9,227.2z"/>
							<path class="st33" d="M164.7,227.2c0.1,0,0.1,0,0.2-0.1l0.6,0.2L164.7,227.2z"/>
							<path class="st33" d="M153.4,228c0.2,0.1-0.5-0.1-0.7-0.1C152.7,227.9,153.1,227.9,153.4,228z"/>
						</g>
					</g>
				</g>
			</g>
		</g>
		<g>
			<defs>
				<path id="SVGID_00000166637127120870448160000002985182769547241105_" d="M242.4,246.3c-26.5,7-40.4,17.9-40.9,18.3c0,0,0,0,0,0
					c-25.5,0.6-55.5-0.8-70.3-6.7c-14.7-6-15.8-18.2-6.2-28.7L242.4,246.3z"/>
			</defs>
			<clipPath id="SVGID_00000179643070338115376950000003207615529431695798_">
				<use xlink:href="#SVGID_00000166637127120870448160000002985182769547241105_"  style="overflow:visible;"/>
			</clipPath>
			<g style="opacity:0.45;clip-path:url(#SVGID_00000179643070338115376950000003207615529431695798_);">
				<g>
					<g>
						<g>
							<path class="st33" d="M167,266.7c-0.1-0.2-0.2-0.4-0.3-0.6C166.8,266.1,166.9,266.3,167,266.7z"/>
							<path class="st33" d="M190.8,266.8c0,0,0.1,0,0.1,0.1c0,0.1,0,0.1-0.1,0.2L190.8,266.8z"/>
							<path class="st33" d="M190.8,267l0.2,0.9C190.7,267.6,190.8,267.3,190.8,267z"/>
							<path class="st33" d="M165.1,262c-0.2-0.2-0.4-0.4-0.6-0.8L165.1,262z"/>
							<path class="st33" d="M167.6,259.2c0-0.1,0.1-0.2,0.2-0.3C167.7,259,167.6,259.1,167.6,259.2z"/>
							<path class="st33" d="M145.3,264.7c0,0.1,0,0.1,0.1,0.2C145.3,264.8,145.3,264.8,145.3,264.7z"/>
							<path class="st33" d="M143.8,263.5c-0.1,0-0.3,0-0.4-0.1l0-0.1C143.5,263.2,143.7,263.4,143.8,263.5z"/>
							<path class="st33" d="M144.5,263l-0.3-0.1C144.3,262.9,144.4,263,144.5,263z"/>
							<path class="st33" d="M134.9,256l0-0.4C135,255.7,135,255.9,134.9,256z"/>
							<path class="st33" d="M145.6,265.4c-0.1-0.1-0.1-0.3-0.2-0.5C145.5,265.1,145.7,265.2,145.6,265.4z"/>
							<path class="st33" d="M167,267c0-0.1,0-0.2,0-0.3C167,266.8,167.1,267,167,267z"/>
							<path class="st33" d="M163.5,262L163.5,262C163.7,262.1,163.7,262.1,163.5,262z"/>
							<path class="st33" d="M199.8,267c0.2,0.1,0.5,0.1,0.7,0.3C200,267.5,199.8,267.4,199.8,267z"/>
							<path class="st33" d="M151.5,264.8c0.4-1.6-0.9-0.2-0.6-1.8c0.4,0.4,0.7,0.7,1-0.1c-0.3-1-0.9,0-0.9-1.4l0.6,0.6
								c0.5-0.6,0-1.8,0.4-1.6c0.3,2,2-0.5,2.6-0.2l-0.2-0.2l1-0.9c0,0,0-0.1,0-0.1c0,0.1,0,0.2,0,0.4c0.5-1,1.2-1.7,2-1.4
								c0.2,1.2,2.4,0.5,2.7,1.5c-0.3-0.3-0.6-0.4-1,0L159,261c0.7,0,0.2-1.4,0.8-0.4c-0.3,2-1-0.1-1.6,0.1c0.2,0.5,0.4,0.9,0.7,1.1
								c-1,0-2.1,0.5-2.7-1.4c-0.3,0.4-0.3,1.2-0.1,1.4c-0.7-1.2-0.7,1-1.2,0c0,1.8,1.5,1.1,2,2.2c1.1-1.3,2.2,0.2,3.3,0.6
								c0.1-1.4-0.5-2.6,0-3.4c1.1-0.9,1,0.8,1.5,1.7c0.8-0.4,0.2-2.4,1.4-2.4l-0.6-1c0.8-2,0.6,0.8,1.2,0.4c-0.2,0.5-0.2,1-0.8,1
								c-0.1,0.7,0.3,1.1,0.5,1.2l-0.1,0.1c0.2,1,0.2,2.1,1,1.6c-0.4-1.2,0.7-0.9,0.9-1.4l-0.2-0.3c0.5,0.4,1.1,0.3,1.5,0.5l0-0.3
								c0.4,0.5,0.5,2.1,1.1,1.8c0-0.6-0.7-2.4,0-2.1c0-1-0.8-1.1-1.4-0.7c0.6-0.3,1-1.9,0.3-2c0.3-1.2,0.7,0.5,1.1,0
								c-0.1,0.4,0,0.8,0,1.1c0.1-1.6,1.4-0.1,1.4,1.1l-0.7-0.9c-0.1,1.3,0.7,2.2,0.4,3c0.4-2.1,1.9,1.1,2.4-0.6l-0.3,1.1
								c1.5-0.6,2.7,2,4.2,2.7c-0.5-0.8-0.5-3.2-1.4-2.4c1.4-0.4,0.5-2.4,1-3.6c1.1-0.9,0.5,2.3,0.8,3.1l-0.8-0.5
								c0.5,1.4,1.2,1.3,2,1.1c0.8-0.3,1.7-0.7,2.4,0.3c0.1-0.8-0.3-0.5-0.5-0.8c0.7-1.5,0.7,0.3,1.1,1c0.7-0.2,1.6-0.9,1.2-2.9
								c0.8-0.5-0.1,1.2,0.3,1.8l0.2-0.4l0.8,2.3c0.7-0.6,1.5-1.7,1.9-3.7c1.6,0.4,0.5,4.7,1.7,5.6c0.7-1.1-0.1-1.6-0.2-2.4l1,0.3
								c-0.4-2.4-1.2-1.2-1.1-4c0.8,2.8,1.2,0.8,2.3,2.7l-0.1,0.2c0.5,1.9,1.7,0.6,2.4,1c-0.3-1.2-1-1.3-1.5-1.8
								c0.8-1,2.7,0,3.3,2.6c0.4-0.4,1.4-1.5,0.7-2.5c1.5-0.4,0.7,3.7,2,2.9l-0.1-2c1.4-2.8,2.9,2.4,4.2-0.1l0.1,2.3
								c0.3-1,0.9-1.5,1-2.4l-0.7-0.8c0.6-1.9,0.7,1.8,1.4,0.4c0,0.7-0.6,2.3-0.5,3c-3-1.2-5.9,2.3-8.9-0.1c0.1-0.3,0.2-0.6,0.2-1.1
								c-0.3,0.6-0.9-0.1-0.8,1.2l0.1,0.2c-0.8-0.6-1.5,2.3-2,2.3c-0.3-1.6-1.6,0.6-1.3-2.1l-0.5,1.7c-0.2-1-0.1-2.3-0.4-2.8
								c-0.5,0.2-0.6,1.2-0.1,1.9c-2.1,0.9-4.5,0.3-6.6-0.6l0.5,1.2c-0.5,0.5-1.8-2.2-1.4,0.7c-1-1.3-2.8,0.4-2.8-2.4
								c-0.8,2.7-2.5,0.9-3.9,0.4c0.3-2.3-1.1-0.7-1.5-1.8c-0.3,1.7,1.1,1.9,1.1,3.1c-0.7-1.5-1.7-1-2.6-0.9
								c-0.9,0.2-1.7,0.1-1.9-2.1c-0.2,0.2-0.2,0.3-0.1,0.5c-0.3,0-0.7,0.7-1,0.8c-0.1-0.8,0.5-1-0.2-1.4c-0.5,0.1-0.3,1.3-0.6,1.8
								c-1-1.1-2.6-1.7-2.6-3.3c-0.3,0.4-0.7,1.3-0.4,1.7c-1.5-1.5-1.6,0-3.2-0.9c0.6,0.1,0.2,1.7,1,1.2c-0.8,2.1-2.5-0.8-3.9,0.2
								l-0.4-1.4c-0.8-0.4-0.9,0.9-0.4,1.5c-1.4,0.6-2.1-0.4-3.1-0.6c-0.1,0.1-0.1,0.4,0.1,0.4l-1.5-0.3c-0.1-0.3-0.6-1.1-0.4-1.8
								C150.3,264.7,150.6,265.2,151.5,264.8z"/>
							<path class="st33" d="M150.2,263.9l0-0.2l0.1,0C150.3,263.9,150.2,263.9,150.2,263.9z"/>
							<path class="st33" d="M164.2,259.3c-0.2,0.4-0.3,0.5-0.4,0.6C163.9,259.7,164,259.4,164.2,259.3z"/>
							<path class="st33" d="M136.7,259.1c0.5-1.3,0.8,0.4,1.6,0.2c-0.6-0.3-0.2-1.1-0.1-1.5c0.4,1.9,1-0.2,2.3,0.4
								c0.2-0.6-0.5-0.8-0.4-1.5c0.7,0.6,1.8,1,1.7,2.1c1.3,0.2,2.3,0,3,0.3c-0.9-0.6,0-1.2-0.5-2.3c0.7,1.4,2.6,3.4,3.7,5.5
								c0.4-1.4,0.4-1.5,0.4-2.8c1.7-0.8,0.3,1.4,1.8,1.1l-0.7,0.2c0.6,0.5,0.5,1.9,0.6,2.9l-1.7-0.5c-0.1,1,1,1.1,1.3,1.4
								c0.4,1.3-1.1,0.7-1,1.6c-0.2-0.8-0.9-0.7-1.3-1.2l-0.2,0.5c-0.9,0.3-1.2-1.1-1.9-1.2c-0.1,0.1-0.1,0.2-0.1,0.3
								c-0.2-0.6-0.3-1.4-0.8-1.6l0.3,0.1c-0.5-1.3-1.9-2.3-0.7-3.3l-1.8,0c0,1.2,0,3.1,1,3.5l0,0.6c-0.9,0.5-2-1.5-1.3-2.4
								c-0.1-1.5-0.8-1.7-1.6-1.6c-0.8,0-1.7,0.2-2.2-0.5c-0.2,0.7,0.4,1.1,0.6,1.7c0.4,0.2,0.7,0.3,0.8-0.3
								c1.6,0.8-0.8,2.2,1.1,2.5c1-0.1-0.9-1.5,0.5-1.3l0.6,2.4c-0.8-0.3-1.6-0.9-2.2-1.3c-1.8-1.2-3.4-1.8-4.5-2
								c-1.2-0.3-1.9-0.3-1.9-0.3c-2.7-1.1-5.4-2.4-8-4c-2.5-1.6-5-3.6-6.4-6.5c-0.7-1.8-0.7-2.6-0.3-3.4c0.1,0.4,0.3,1.4,0.4,1
								c-0.1,0.1-0.1,0.3,0,0.7c0.1,0.3,0.2,0.7,0.4,1.1c0.3,0-0.3-0.8-0.1-0.6c0,0.1,0.1,0.1,0.1,0.2c0.1-0.1,0.1-0.3,0-0.6
								c0.7,0.8,1.8,2.2,1.9,3.1c0.8,0.4,0-0.8-0.2-1.2c2.1,1.8,3.9,2.6,6.5,3.7c-0.3,0.8,0,0.6,0.2,1.3l0.4-0.2
								c-0.2,0.1,0,0.8-0.6,0.7c0.9,0,1.3,0.5,1.5,1.1c0.3,0.6,0.4,1.3,0.9,1.8l0.1-0.5c0.9,0.4,1.2,0.6,1.9,1.2
								c1.8-0.4-1.3-0.6-0.5-1.7l0.4,0.4c-0.1-0.6-0.1-1.5-0.4-2c1.1,1.2,2.1,0.2,3.5,1.3c0-0.7-1.3-1.5-1.6-1.6
								c0.5,0.1,1.3,0.7,1.5,0.1l-0.1,0.8c0.9,0.3,0.1-0.8,0.5-1.2C137.5,256.1,134.9,258.2,136.7,259.1z"/>
							<path class="st33" d="M159.7,261.9c-0.3,0.1-0.5,0-0.7-0.1C159.2,261.8,159.4,261.8,159.7,261.9z"/>
							<path class="st33" d="M155.4,259.1c0-0.2,0-0.3,0-0.5C155.4,258.7,155.4,258.9,155.4,259.1z"/>
							<path class="st33" d="M155.1,257.3c-0.2,0.6,0.1,0.6,0.2,1.3C155.1,258.2,154.4,258.2,155.1,257.3z"/>
							<path class="st33" d="M228,260.9c0.1,0.1,0.8,0.3,0.6,0.3c-0.3-0.1-0.6-0.2-0.9-0.3C227.8,261,227.9,260.9,228,260.9z"/>
							<path class="st33" d="M226.2,261c-0.3,0-0.6,0.1-0.9,0.1c-0.2-0.3-0.4-0.6-0.6-0.9C225.7,260.4,225.3,260.8,226.2,261z"/>
							<path class="st33" d="M223.8,261.2l0.2,0.2C223.8,261.3,223.8,261.2,223.8,261.2z"/>
							<path class="st33" d="M223.8,260.8l-0.4-0.8c0.4,0.2,0.8,0.5,1.2,0.7c-0.1,0-0.3,0-0.4,0.1c0,0.2-0.3,0.3-0.3,0.4l-0.5-0.5
								C223.5,260.7,223.7,260.9,223.8,260.8z"/>
							<path class="st33" d="M222.8,260.6c0-0.1,0.1-0.1,0.1-0.2C222.9,260.5,222.8,260.6,222.8,260.6z"/>
							<path class="st33" d="M220.7,262.2c0.2-0.4-0.3-0.9-0.4-1.3c0.8-0.3,1,1,1.7,0.6c-1.2-0.7,0.4-0.5,0.8-0.9
								c-0.2,0.7-0.6,1.2-1.4,1.5l-0.1-0.6C220.8,261.6,221,262,220.7,262.2z"/>
							<path class="st33" d="M216.1,260.5l0.7,1.2c0.1-0.6,1.2-0.6,1.1-1.6c0.4,0.2,0.5,0.7,0.8,0.9c0.3-0.5,0.5-0.9,0.9-0.2
								c-1.6,0.6-1.1,0.9-2.5,1.3c0,0.2,0.2,0.2,0.4,0.1c-0.3,0.2-0.6,0.4-0.9,0.7C216.4,261.6,215.2,261.4,216.1,260.5z"/>
							<path class="st33" d="M214.8,261.4c0.7,0.1,1.2,1.2,0.9,2c-0.5-0.3-1.1-0.6-1.6-0.9C214.5,262.6,215,262.7,214.8,261.4z"/>
							<path class="st33" d="M213.7,261.5c-0.3,0.7-0.7,2.3-1.3,0.9C213.3,262.5,212.8,260.5,213.7,261.5z"/>
							<path class="st33" d="M208.3,263c0.5-0.4,1-0.7,1.4-1.1c0.2-2-0.7-0.6-1.2-1.6c1.2-0.4,0.9,0.3,1.8,1.5
								c0.4-0.1,0.9,0.9,1.4,1.4c-1-0.7-1.4,0.1-1.9,0.7C209.5,264.4,209.1,264.8,208.3,263z"/>
							<polygon class="st33" points="211.2,260.9 211.4,261.7 210.7,261.1 							"/>
							<path class="st33" d="M204.9,265.5c-0.8,2.8-1.7-1.4-2.7-0.2c0.1,0.2,0,0.4,0.3,0.7l-0.9-0.2l0,0.6c0-1.7-0.9-2.3-1.3-3.6
								c0.8-1.8,0.5,2.1,1.2,0.1c-0.2-0.8-0.4-1.9-0.5-2.5c0.5,0.9,0.7,1.8,0.9,2.8c0.6,0.2,0.4-0.8,0.4-1.4c0.7,1,0.7,3.4,1.7,2.7
								c0.6-1.4-0.4-2.2,0.7-1.7c-0.5,2.6,1.1-0.4,1.5,1.1c0.8-0.5,1.2-2,1-2.9c0,1.9,0.8,3.4,1.4,3.9c-0.5-0.5-0.9-0.9-1.4-1.4
								l-0.4,2.2c-0.8-1-1.3-0.8-2-0.4L204.9,265.5z"/>
							<path class="st33" d="M201,260.5c-0.1-0.2-0.2-0.3-0.3-0.4C200.8,260,200.9,260.2,201,260.5z"/>
							<polygon class="st33" points="207.4,260.5 207.1,260.1 207.3,259.5 							"/>
							<path class="st33" d="M200.3,258.7c0.2-0.1,0.3,0.7,0.1,0.8l-0.3-1.2L200.3,258.7z"/>
							<polygon class="st33" points="199.5,260.2 199.1,261.7 198.8,260.5 							"/>
							<path class="st33" d="M181.5,261.8c0.6-0.8,0.5,0.8,0.6,2C181.2,264,182.1,262.3,181.5,261.8z"/>
							<path class="st33" d="M170.3,259.9c0.7-0.9,1.2,0.5,1.8,0.4C171.5,261,170.7,260.6,170.3,259.9z"/>
							<path class="st33" d="M165.7,255.5c0.1,0.4,0.3,0.6,0,0.8l0.5,2.3C165.2,259.3,165.6,256.5,165.7,255.5z"/>
							<path class="st33" d="M160.4,255.3l0.8,0.8l-0.5,0.1c0.2,0.8,0.3,1.3,0.6,2C160.7,257.6,160.1,256.8,160.4,255.3z"/>
							<path class="st33" d="M162,258.5c-0.1,0-0.2-0.1-0.3-0.1C161.8,258.1,161.9,257.8,162,258.5z"/>
							<path class="st33" d="M161.4,258.4c0-0.1-0.1-0.2-0.1-0.2c0.1,0.1,0.3,0.2,0.4,0.3C161.6,258.6,161.5,258.7,161.4,258.4z"/>
							<path class="st33" d="M159.6,256.3l-1.5-0.2l0.6-0.4C158.8,257,159.5,254.9,159.6,256.3z"/>
							<path class="st33" d="M151.6,257.2l-0.3,1.1c-1,0.1-1.9-2.2-2.7-0.6c0.5-0.6-0.6-1.2,0.5-1.5
								C149.5,257.2,150.9,257.4,151.6,257.2z"/>
							<path class="st33" d="M147.9,258.5c0.1,0.3-0.1,0.5-0.3,0.8c-0.4,0.1-0.7-0.4-0.4-0.8C147.2,259.8,147.6,257.7,147.9,258.5z"
								/>
							<path class="st33" d="M143.5,257.9c0.3,0.1,0.6,0.2,0.2,0.4c-0.8-0.2-0.4-1.2-0.7-1.8C143.7,256,144.1,257.5,143.5,257.9z"/>
							<path class="st33" d="M135.5,262.6c0.3-0.6,0.9-0.3,1,0C136.4,262.3,135.9,262.4,135.5,262.6z"/>
							<polygon class="st33" points="136.7,257.1 137,257 137,258 							"/>
							<polygon class="st33" points="132,255.5 131.5,254.8 132.4,255.1 							"/>
							<path class="st33" d="M131,255.4l-0.8-0.3l0.4-0.1C131,254.9,130.8,255.3,131,255.4z"/>
							<path class="st33" d="M128.7,254.5c0.1,0.1,0.2,0,0.3,0l0.6,0.5L128.7,254.5z"/>
							<path class="st33" d="M118.3,246.8c-0.2,0.2-0.1-0.6-0.1-0.9C118.2,245.9,118.4,246.4,118.3,246.8z"/>
						</g>
					</g>
				</g>
			</g>
		</g>
		<g>
			<defs>
				<path id="SVGID_00000015337704736361382170000003135065500950009733_" d="M329.8,232.5c-6.8,2.4-19.3,3.6-36.2,5.6
					c4.1-5.2,6.2-11.5,5-19.2c-0.5-3.2-1.1-6.4-1.8-9.4c3.1,0.5,6.2,1.1,9.2,1.7c8.8,1.8,16.1,3.9,22.1,6.2
					C334.6,227,329.8,232.5,329.8,232.5z"/>
			</defs>
			<clipPath id="SVGID_00000175285420268768211760000007679501957340849055_">
				<use xlink:href="#SVGID_00000015337704736361382170000003135065500950009733_"  style="overflow:visible;"/>
			</clipPath>
			<g style="opacity:0.45;clip-path:url(#SVGID_00000175285420268768211760000007679501957340849055_);">
				<g>
					<g>
						<g>
							<path class="st33" d="M313.5,238.4c0-0.1-0.1-0.3-0.1-0.5C313.4,237.9,313.5,238.1,313.5,238.4z"/>
							<path class="st33" d="M326.7,237.5C326.8,237.5,326.8,237.5,326.7,237.5l0,0.1L326.7,237.5z"/>
							<path class="st33" d="M326.8,237.6l0.1,0.5C326.7,237.9,326.7,237.8,326.8,237.6z"/>
							<path class="st33" d="M312.5,234.6c-0.1-0.1-0.2-0.3-0.3-0.7L312.5,234.6z"/>
							<path class="st33" d="M313.9,232.3c0-0.1,0-0.2,0.1-0.3C314,232.2,313.9,232.3,313.9,232.3z"/>
							<path class="st33" d="M301.4,238.2c0,0.1,0,0.1,0,0.2C301.4,238.4,301.4,238.3,301.4,238.2z"/>
							<path class="st33" d="M300.6,237.3c-0.1,0-0.1,0-0.2,0l0-0.1C300.4,237,300.5,237.2,300.6,237.3z"/>
							<path class="st33" d="M301,236.8l-0.2-0.1C300.9,236.7,300.9,236.7,301,236.8z"/>
							<path class="st33" d="M295.5,231.3l0-0.4C295.5,231.1,295.5,231.2,295.5,231.3z"/>
							<path class="st33" d="M301.6,238.9c0-0.1-0.1-0.3-0.1-0.4C301.5,238.6,301.6,238.7,301.6,238.9z"/>
							<path class="st33" d="M313.5,238.6c0-0.1,0-0.2,0-0.3C313.5,238.5,313.5,238.6,313.5,238.6z"/>
							<path class="st33" d="M311.6,234.6L311.6,234.6C311.7,234.7,311.7,234.7,311.6,234.6z"/>
							<path class="st33" d="M331.7,237.5c0.1,0,0.3,0.1,0.4,0.1C331.8,237.8,331.7,237.7,331.7,237.5z"/>
							<path class="st33" d="M304.8,237.8c0.3-1.5-0.5-0.1-0.3-1.6c0.2,0.4,0.4,0.6,0.6-0.2c-0.1-0.9-0.5,0-0.5-1.2l0.3,0.5
								c0.3-0.6,0-1.6,0.3-1.5c0.2,1.8,1.1-0.6,1.4-0.3l-0.1-0.2l0.6-0.8c0,0,0-0.1,0-0.1c0,0.1,0,0.2,0,0.3
								c0.3-0.9,0.7-1.5,1.1-1.3c0.1,1,1.4,0.4,1.5,1.3c-0.2-0.3-0.3-0.3-0.6,0l0,1.3c0.4,0,0.1-1.2,0.5-0.4c-0.2,1.7-0.6,0-0.9,0.2
								c0.1,0.4,0.2,0.8,0.4,0.9c-0.6,0-1.2,0.6-1.5-1.2c-0.2,0.4-0.2,1.1-0.1,1.2c-0.4-1-0.4,0.9-0.7,0c0,1.6,0.8,0.9,1.1,1.8
								c0.6-1.2,1.3,0,1.8,0.3c0.1-1.2-0.3-2.2,0-2.9c0.6-0.8,0.5,0.7,0.8,1.4c0.4-0.4,0.2-2,0.8-2l-0.3-0.8
								c0.5-1.7,0.3,0.7,0.6,0.4c-0.1,0.4-0.1,0.9-0.5,0.8c-0.1,0.6,0.2,0.9,0.3,1l-0.1,0c0.1,0.8,0.1,1.7,0.5,1.3
								c-0.2-1,0.4-0.7,0.5-1.2l-0.1-0.2c0.3,0.4,0.6,0.2,0.8,0.4l0-0.3c0.2,0.4,0.2,1.7,0.6,1.4c0-0.5-0.3-1.9,0-1.7
								c0-0.8-0.4-0.9-0.8-0.6c0.4-0.3,0.6-1.5,0.2-1.6c0.2-1,0.4,0.4,0.6,0c-0.1,0.3,0,0.6,0,0.9c0.1-1.3,0.8-0.1,0.8,0.8l-0.4-0.7
								c-0.1,1.1,0.4,1.8,0.2,2.4c0.3-1.7,1,0.9,1.3-0.5l-0.2,0.9c0.9-0.5,1.5,1.5,2.3,1.9c-0.3-0.5-0.2-2.4-0.8-1.7
								c0.8-0.3,0.3-1.8,0.6-2.7c0.6-0.6,0.2,1.7,0.4,2.3l-0.4-0.3c0.5,2.1,1.6-0.4,2.4,0.9c0.1-0.5-0.2-0.3-0.3-0.5
								c0.4-1.1,0.4,0.2,0.6,0.7c0.4-0.2,0.9-0.6,0.7-1.9c0.4-0.3-0.1,0.8,0.1,1.2l0.1-0.3l0.4,1.5c0.4-0.4,0.9-1.1,1.1-2.3
								c0.9,0.3,0.2,2.9,0.9,3.4c0.4-0.7,0-1-0.1-1.5l0.6,0.1c-0.2-1.4-0.6-0.7-0.6-2.4c0.4,1.7,0.6,0.5,1.2,1.6l0,0.1
								c0.3,1.1,0.9,0.3,1.3,0.5c-0.1-0.7-0.5-0.7-0.8-1c0.4-0.5,1.5,0,1.8,1.4c0.2-0.2,0.8-0.8,0.4-1.3c0.9-0.2,0.3,1.9,1.1,1.5
								l0-1c0.8-1.4,1.6,1.3,2.4,0l0,1.1c0.2-0.5,0.5-0.7,0.6-1.2l-0.4-0.4c0.3-0.9,0.4,0.9,0.8,0.2c0,0.3-0.4,1.1-0.4,1.5
								c-0.8-0.3-1.6,0-2.5,0.2c-0.8,0.2-1.7,0.4-2.5-0.2c0.1-0.2,0.1-0.3,0.1-0.6c-0.2,0.3-0.5,0-0.5,0.7l0.1,0.1
								c-0.4-0.3-0.9,1.3-1.1,1.3c-0.1-0.9-0.9,0.4-0.7-1.2l-0.3,1c-0.1-0.6,0-1.3-0.2-1.6c-0.3,0.1-0.3,0.8-0.1,1.1
								c-1.2,0.6-2.5,0.5-3.7-0.1l0.3,0.8c-0.3,0.4-1-1.4-0.8,0.6c-0.5-0.8-1.6,0.5-1.5-1.5c-0.5,2-1.4,0.8-2.2,0.5
								c0.2-1.8-0.6-0.5-0.8-1.4c-0.2,1.4,0.6,1.4,0.6,2.4c-0.7-2.2-2.4,1.4-2.5-2.1c-0.1,0.1-0.1,0.3-0.1,0.4
								c-0.2,0-0.4,0.6-0.6,0.7c-0.1-0.6,0.3-0.9-0.1-1.1c-0.3,0.1-0.2,1.1-0.3,1.5c-0.5-0.8-1.4-1.2-1.4-2.6
								c-0.2,0.4-0.4,1.1-0.2,1.4c-0.8-1.2-0.9,0.1-1.8-0.6c0.3,0.1,0.1,1.5,0.6,0.9c-0.5,1.9-1.4-0.5-2.2,0.4l-0.2-1.2
								c-0.4-0.3-0.5,0.9-0.3,1.4c-0.8,0.6-1.2-0.2-1.7-0.2c0,0.1,0,0.4,0.1,0.3l-0.8-0.1c-0.1-0.3-0.3-0.9-0.2-1.6
								C304.2,237.7,304.4,238.1,304.8,237.8z"/>
							<path class="st33" d="M304.2,237l0-0.1l0,0C304.2,236.9,304.2,237,304.2,237z"/>
							<path class="st33" d="M312,232.3c-0.1,0.3-0.2,0.5-0.2,0.5C311.9,232.7,311.9,232.5,312,232.3z"/>
							<path class="st33" d="M296.6,234.1c0.2-1.3,0.5,0.3,0.9,0c-0.3-0.3-0.2-1-0.1-1.4c0.2,1.8,0.6-0.3,1.3,0.1
								c0.1-0.6-0.3-0.7-0.3-1.4c0.4,0.5,1,0.7,1,1.8c0.7,0.1,1.3-0.3,1.7-0.1c-0.5-0.5,0-1.2-0.3-2.1c0.4,1.3,1.5,3,2.1,4.9
								c0.2-1.3,0.3-1.5,0.3-2.7c1-0.9,0.2,1.3,1,0.9l-0.4,0.2c0.4,0.4,0.3,1.7,0.3,2.7l-1-0.3c-0.1,0.9,0.6,0.9,0.7,1.2
								c0.2,1.2-0.6,0.7-0.6,1.6c-0.1-0.8-0.5-0.6-0.7-1l-0.1,0.5c-0.5,0.4-0.7-0.9-1.1-0.9c0,0.1-0.1,0.2-0.1,0.3
								c-0.1-0.6-0.2-1.2-0.4-1.5l0.2,0.1c-0.3-1.2-1.1-2-0.4-3.1l-1,0.3c0,1.2,0,3,0.6,3.3l0,0.5c-0.5,0.6-1.1-1.2-0.8-2.1
								c-0.1-1.4-0.5-1.5-0.9-1.4c-0.4,0.1-0.9,0.4-1.2-0.2c-0.1,0.7,0.3,1,0.4,1.6c0.2,0.1,0.4,0.2,0.4-0.4
								c0.9,0.6-0.4,2.3,0.7,2.3c0.6-0.3-0.5-1.3,0.3-1.3l0.3,2.2c-0.5-0.2-0.9-0.6-1.2-1c-1-0.9-1.9-1.2-2.5-1.2
								c-0.6-0.1-1,0.1-1,0.1c-3.1-1.1-6.1-2.2-9.1-3.5c-0.9-0.4-1.3-0.6-1.6-0.8c0.2,0,0.8,0.1,0.6,0c0.1,0.1,0.5,0.2,1,0.3
								c0.1-0.1-0.5-0.2-0.3-0.2l0.1,0c0-0.1-0.1-0.1-0.3-0.1c0.6-0.1,1.7-0.2,2,0.4c0.5-0.2-0.3-0.4-0.5-0.6
								c1.7-0.2,2.8-0.2,4.5-0.3c-0.1,0.8,0.1,0.5,0.3,1.1l0.2-0.3c-0.1,0.1,0.1,0.7-0.3,0.9c1-0.5,1,1.3,1.6,1.9l0-0.5
								c0.5,0.2,0.7,0.3,1.1,0.7c1-0.8-0.7-0.3-0.4-1.6l0.2,0.3c-0.1-0.5-0.1-1.4-0.4-1.8c0.7,0.9,1.2-0.3,2.1,0.4
								c0-0.7-0.8-1.2-1-1.2c0.3-0.1,0.8,0.4,0.9-0.2l0,0.8c0.5,0.1,0-0.7,0.2-1.3c0.6,0,0.6,0.7,0.5,1.4
								C296.1,233,296.1,233.8,296.6,234.1z"/>
							<path class="st33" d="M309.4,234.7c-0.2,0.1-0.3,0-0.4-0.1C309.2,234.6,309.3,234.6,309.4,234.7z"/>
							<path class="st33" d="M307.1,232.3c0-0.2,0-0.3,0-0.4C307.1,232,307.1,232.1,307.1,232.3z"/>
							<path class="st33" d="M306.9,230.7c-0.1,0.5,0.1,0.5,0.1,1.2C306.9,231.5,306.5,231.5,306.9,230.7z"/>
							<path class="st33" d="M347.5,235.6c0.1,0,0.4,0.1,0.3,0.1c-0.2,0-0.3-0.1-0.5-0.1L347.5,235.6z"/>
							<path class="st33" d="M346.6,235.5c-0.2,0-0.3,0-0.5,0c-0.1-0.1-0.2-0.2-0.3-0.3C346.3,235.3,346.1,235.4,346.6,235.5z"/>
							<path class="st33" d="M345.2,235.4l0.1,0.1C345.2,235.5,345.2,235.4,345.2,235.4z"/>
							<path class="st33" d="M345.2,235.3L345,235c0.2,0.1,0.4,0.2,0.6,0.3l-0.2,0c0,0.1-0.2,0.1-0.2,0.1l-0.2-0.2
								C345,235.2,345.2,235.3,345.2,235.3z"/>
							<path class="st33" d="M344.7,235.2C344.7,235.1,344.7,235.1,344.7,235.2C344.7,235.1,344.7,235.2,344.7,235.2z"/>
							<path class="st33" d="M343.5,235.7c0.1-0.1-0.1-0.3-0.2-0.5c0.5-0.1,0.5,0.4,0.9,0.3c-0.6-0.3,0.2-0.2,0.5-0.3
								c-0.1,0.2-0.4,0.4-0.9,0.5l-0.1-0.2C343.5,235.4,343.6,235.6,343.5,235.7z"/>
							<path class="st33" d="M340.9,234.9l0.4,0.5c0.1-0.2,0.7-0.2,0.7-0.6c0.2,0.1,0.2,0.3,0.4,0.4c0.2-0.2,0.3-0.3,0.5,0
								c-0.9,0.2-0.6,0.3-1.4,0.5c0,0.1,0.1,0.1,0.2,0.1l-0.5,0.3C341.1,235.3,340.4,235.2,340.9,234.9z"/>
							<path class="st33" d="M340.2,235.2c0.4,0.1,0.6,0.5,0.4,0.9c-0.3-0.1-0.6-0.3-0.9-0.4C340,235.7,340.3,235.7,340.2,235.2z"/>
							<path class="st33" d="M339.6,235.2c-0.2,0.3-0.4,1-0.7,0.3C339.3,235.6,339.1,234.7,339.6,235.2z"/>
							<path class="st33" d="M336.6,235.7c0.3-0.2,0.5-0.3,0.8-0.5c0.2-0.9-0.4-0.3-0.6-0.7c0.7-0.1,0.5,0.2,1,0.7
								c0.2,0,0.5,0.4,0.7,0.6c-0.5-0.3-0.8,0-1.1,0.3C337.2,236.4,337,236.6,336.6,235.7z"/>
							<polygon class="st33" points="338.2,234.9 338.3,235.2 337.9,234.9 							"/>
							<path class="st33" d="M334.6,236.9c-0.5,1.3-0.9-0.7-1.5-0.1c0.1,0.1,0,0.2,0.1,0.3l-0.5-0.1l0,0.3c0-0.8-0.4-1.1-0.6-1.8
								c0.5-0.9,0.2,1,0.7,0.1c-0.1-0.4-0.2-0.9-0.3-1.2c0.3,0.4,0.3,0.9,0.5,1.4c0.3,0.1,0.2-0.4,0.3-0.7c0.3,0.5,0.3,1.6,0.9,1.3
								c0.4-0.7-0.2-1.1,0.4-0.8c-0.3,1.2,0.6-0.2,0.8,0.6c0.4-0.2,0.7-0.9,0.6-1.3c0,0.9,0.4,1.6,0.7,1.8c-0.2-0.2-0.5-0.4-0.7-0.7
								l-0.3,1C335.3,236.6,335,236.6,334.6,236.9L334.6,236.9z"/>
							<path class="st33" d="M332.5,234.3c-0.1-0.1-0.1-0.2-0.2-0.2C332.4,234.1,332.5,234.2,332.5,234.3z"/>
							<polygon class="st33" points="336.1,234.6 335.9,234.4 336.1,234.1 							"/>
							<path class="st33" d="M332.2,233.5c0.1,0,0.1,0.4,0,0.4l-0.1-0.6L332.2,233.5z"/>
							<polygon class="st33" points="331.7,234.2 331.4,234.9 331.3,234.3 							"/>
							<path class="st33" d="M321.6,234.5c0.3-0.5,0.3,0.5,0.3,1.3C321.4,236,322,234.9,321.6,234.5z"/>
							<path class="st33" d="M315.4,232.9c0.4-0.7,0.7,0.4,1,0.4C316.1,233.8,315.6,233.4,315.4,232.9z"/>
							<path class="st33" d="M312.9,229.2c0.1,0.3,0.2,0.5,0,0.7l0.2,1.9C312.6,232.4,312.9,230,312.9,229.2z"/>
							<path class="st33" d="M309.9,228.9l0.4,0.7l-0.3,0c0.1,0.7,0.1,1.1,0.3,1.7C310.1,230.9,309.8,230.2,309.9,228.9z"/>
							<path class="st33" d="M310.8,231.7c-0.1,0-0.1-0.1-0.2-0.1C310.7,231.4,310.8,231.1,310.8,231.7z"/>
							<path class="st33" d="M310.4,231.6c0-0.1,0-0.1-0.1-0.2c0.1,0.1,0.2,0.2,0.2,0.2C310.6,231.7,310.5,231.9,310.4,231.6z"/>
							<path class="st33" d="M309.5,229.8l-0.8-0.2l0.3-0.3C309,230.4,309.4,228.6,309.5,229.8z"/>
							<path class="st33" d="M305,230.7l-0.2,1c-0.6,0.2-1.1-2-1.5-0.4c0.3-0.6-0.4-1.1,0.3-1.4C303.8,230.8,304.6,230.9,305,230.7z
								"/>
							<path class="st33" d="M302.9,232.1c0.1,0.3-0.1,0.5-0.2,0.8c-0.2,0.1-0.4-0.4-0.2-0.8C302.5,233.4,302.7,231.3,302.9,232.1z"
								/>
							<path class="st33" d="M300.4,232c0.2,0,0.4,0.1,0.1,0.3c-0.5-0.1-0.3-1.1-0.4-1.7C300.5,230.1,300.7,231.5,300.4,232z"/>
							<path class="st33" d="M296,237.6c0.1-0.6,0.5-0.5,0.6-0.2C296.5,237.3,296.2,237.4,296,237.6z"/>
							<polygon class="st33" points="296.5,232.1 296.7,231.9 296.7,233 							"/>
							<polygon class="st33" points="293.7,231.5 293.4,231 293.9,231.1 							"/>
							<path class="st33" d="M293.2,231.7l-0.5,0l0.2-0.2C293.1,231.3,293,231.7,293.2,231.7z"/>
							<path class="st33" d="M291.7,231.6c0.1,0,0.1,0,0.1-0.1l0.4,0.3C292.1,231.7,291.9,231.7,291.7,231.6z"/>
							<path class="st33" d="M284,232.1c0.1,0.1-0.3-0.1-0.4-0.2C283.5,231.9,283.8,232,284,232.1z"/>
						</g>
					</g>
				</g>
			</g>
		</g>
		<g>
			<defs>
				<path id="SVGID_00000111185061371666120920000017557135350197809314_" d="M288,179.7c-9.1,0-18.9-14.3-18.9-14.3
					c3.5-1.6,11.9-2.1,11.9-2.1S284.2,169.7,288,179.7z"/>
			</defs>
			<clipPath id="SVGID_00000015335369437151790150000015431572430876497281_">
				<use xlink:href="#SVGID_00000111185061371666120920000017557135350197809314_"  style="overflow:visible;"/>
			</clipPath>
			<g style="opacity:0.45;clip-path:url(#SVGID_00000015335369437151790150000015431572430876497281_);">
				<g>
					<g>
						<g>
							<path class="st33" d="M278.4,164.2c0,0.1,0.1,0.1,0.1,0.2C278.5,164.4,278.4,164.3,278.4,164.2z"/>
							<path class="st33" d="M272.7,165C272.7,165,272.7,165,272.7,165L272.7,165L272.7,165z"/>
							<path class="st33" d="M272.7,165l-0.1-0.2C272.7,164.8,272.7,164.9,272.7,165z"/>
							<path class="st33" d="M279,165.8c0.1,0.1,0.1,0.1,0.2,0.3L279,165.8z"/>
							<path class="st33" d="M278.5,166.8c0,0,0,0.1,0,0.1C278.4,166.9,278.5,166.9,278.5,166.8z"/>
							<path class="st33" d="M283.6,163.4C283.6,163.4,283.6,163.4,283.6,163.4C283.6,163.4,283.6,163.4,283.6,163.4z"/>
							<path class="st33" d="M284,163.8C284,163.8,284.1,163.8,284,163.8L284,163.8C284.1,163.9,284,163.9,284,163.8z"/>
							<path class="st33" d="M283.9,164.1L283.9,164.1C283.9,164.2,283.9,164.2,283.9,164.1z"/>
							<path class="st33" d="M286.5,167l0,0.2C286.5,167.1,286.5,167.1,286.5,167z"/>
							<path class="st33" d="M283.5,163.1c0,0.1,0,0.1,0.1,0.2C283.5,163.3,283.5,163.2,283.5,163.1z"/>
							<path class="st33" d="M278.4,164.1c0,0,0,0.1,0,0.1C278.4,164.2,278.4,164.1,278.4,164.1z"/>
							<path class="st33" d="M279.4,165.8L279.4,165.8C279.3,165.7,279.3,165.7,279.4,165.8z"/>
							<path class="st33" d="M270.5,165.1c-0.1,0-0.1,0-0.2-0.1C270.5,164.9,270.5,165,270.5,165.1z"/>
							<path class="st33" d="M282.2,164c0,0.7,0.2,0,0.2,0.7c-0.1-0.2-0.2-0.3-0.2,0.1c0.1,0.4,0.2,0,0.3,0.6l-0.2-0.2
								c-0.1,0.3,0.1,0.8,0,0.7c-0.2-0.8-0.5,0.3-0.6,0.2l0.1,0.1l-0.2,0.4c0,0,0,0,0,0c0,0,0-0.1,0-0.2c-0.1,0.4-0.2,0.7-0.4,0.6
								c-0.1-0.5-0.6-0.1-0.7-0.5c0.1,0.1,0.2,0.1,0.2,0l0-0.6c-0.2,0,0,0.5-0.2,0.2c0-0.8,0.2,0,0.4-0.1c-0.1-0.2-0.1-0.3-0.2-0.4
								c0.3,0,0.5-0.3,0.7,0.5c0.1-0.2,0-0.5,0-0.6c0.2,0.4,0.1-0.4,0.3,0c-0.1-0.7-0.4-0.4-0.6-0.8c-0.2,0.6-0.5,0-0.8-0.1
								c0,0.5,0.2,1,0.1,1.3c-0.2,0.4-0.3-0.3-0.4-0.6c-0.2,0.2,0,0.9-0.3,0.9l0.2,0.3c-0.1,0.8-0.2-0.3-0.3-0.1
								c0-0.2,0-0.4,0.2-0.4c0-0.3-0.1-0.4-0.2-0.4l0,0c-0.1-0.4-0.1-0.8-0.3-0.6c0.1,0.4-0.1,0.3-0.2,0.5l0.1,0.1
								c-0.1-0.1-0.3-0.1-0.4-0.2l0,0.1c-0.1-0.2-0.2-0.7-0.3-0.6c0,0.2,0.2,0.8,0.1,0.7c0,0.3,0.2,0.4,0.4,0.2
								c-0.1,0.1-0.2,0.7,0,0.7c0,0.4-0.2-0.2-0.3,0c0-0.1,0-0.3,0-0.4c0,0.6-0.3,0.1-0.4-0.3l0.2,0.3c0-0.5-0.2-0.8-0.2-1
								c-0.1,0.7-0.5-0.3-0.5,0.3l0-0.4c-0.4,0.2-0.7-0.6-1.1-0.7c0.1,0.2,0.2,1,0.4,0.7c-0.3,0.2-0.1,0.8-0.2,1.2
								c-0.3,0.3-0.2-0.7-0.3-1l0.2,0.1c-0.3-0.9-0.7,0.2-1.1-0.3c0,0.2,0.1,0.1,0.1,0.2c-0.1,0.5-0.2-0.1-0.3-0.3
								c-0.2,0.1-0.4,0.3-0.2,0.9c-0.2,0.2,0-0.4-0.1-0.5l0,0.1l-0.2-0.6c-0.2,0.2-0.3,0.5-0.4,1.1c-0.4-0.1-0.2-1.3-0.5-1.5
								c-0.1,0.3,0.1,0.4,0.1,0.7l-0.3,0c0.1,0.6,0.3,0.3,0.3,1.1c-0.3-0.7-0.3-0.2-0.6-0.7l0-0.1c-0.2-0.5-0.4-0.1-0.6-0.2
								c0.1,0.3,0.3,0.3,0.4,0.4c-0.2,0.3-0.6,0-0.8-0.6c-0.1,0.1-0.3,0.4-0.1,0.7c-0.4,0.1-0.2-0.9-0.5-0.7l0,0.5
								c-0.3,0.7-0.7-0.6-1,0.1l-0.1-0.6c-0.1,0.3-0.2,0.4-0.2,0.6l0.2,0.2c-0.1,0.5-0.2-0.5-0.4-0.1c0-0.2,0.1-0.6,0.1-0.8
								c0.7,0.3,1.4-0.6,2.1-0.1c0,0.1,0,0.2,0,0.3c0.1-0.2,0.2,0,0.2-0.3l0,0c0.2,0.1,0.3-0.6,0.4-0.6c0.1,0.4,0.4-0.2,0.3,0.5
								l0.1-0.5c0.1,0.3,0.1,0.6,0.1,0.7c0.1-0.1,0.1-0.4,0-0.5c0.5-0.3,1.1-0.3,1.6-0.1l-0.2-0.3c0.1-0.2,0.5,0.6,0.3-0.3
								c0.3,0.3,0.7-0.3,0.7,0.6c0.1-0.9,0.6-0.4,0.9-0.3c0,0.8,0.3,0.2,0.4,0.6c0-0.6-0.3-0.6-0.3-1c0.4,0.9,1-0.7,1.2,0.8
								c0-0.1,0-0.1,0-0.2c0.1,0,0.1-0.3,0.2-0.3c0,0.3-0.1,0.4,0.1,0.5c0.1-0.1,0-0.5,0.1-0.7c0.3,0.3,0.7,0.5,0.7,1.1
								c0.1-0.2,0.1-0.5,0-0.6c0.4,0.5,0.4-0.1,0.8,0.2c-0.1,0-0.1-0.6-0.3-0.4c0.1-0.9,0.6,0.1,0.9-0.3l0.1,0.5
								c0.2,0.1,0.2-0.4,0.1-0.6c0.3-0.4,0.5,0,0.8,0c0-0.1,0-0.2,0-0.1l0.4,0c0,0.1,0.2,0.4,0.2,0.8
								C282.4,164,282.3,163.8,282.2,164z"/>
							<path class="st33" d="M282.5,164.3L282.5,164.3L282.5,164.3C282.5,164.3,282.5,164.3,282.5,164.3z"/>
							<path class="st33" d="M279.3,166.8c0-0.1,0.1-0.2,0.1-0.2C279.3,166.6,279.3,166.7,279.3,166.8z"/>
							<path class="st33" d="M285.9,165.2c0,0.8-0.2-0.1-0.4,0.1c0.2,0.1,0.1,0.6,0.1,0.9c-0.2-1.1-0.2,0.2-0.6,0
								c0,0.4,0.2,0.4,0.2,0.8c-0.2-0.3-0.5-0.4-0.5-1c-0.3,0-0.5,0.2-0.7,0.1c0.2,0.2,0,0.6,0.2,1.1c-0.2-0.7-0.8-1.6-1.1-2.4
								c0,0.7,0,0.7,0,1.4c-0.4,0.5-0.1-0.6-0.5-0.4l0.2-0.1c-0.2-0.2-0.2-0.8-0.3-1.3l0.4,0.1c0-0.5-0.3-0.4-0.4-0.5
								c-0.1-0.6,0.2-0.4,0.2-0.8c0.1,0.4,0.2,0.2,0.3,0.4l0-0.2c0.2-0.3,0.3,0.4,0.5,0.3c0-0.1,0-0.1,0-0.2
								c0.1,0.3,0.1,0.6,0.2,0.7l-0.1,0c0.2,0.6,0.5,1,0.3,1.6l0.4-0.2c-0.1-0.6-0.2-1.6-0.4-1.7l0-0.3c0.2-0.4,0.5,0.5,0.4,1
								c0.2,1.6,0.7,0,1,0.7c0-0.4-0.2-0.6-0.2-0.9c-0.1,0-0.2-0.1-0.2,0.3c-0.4-0.2,0.1-1.3-0.4-1.2c-0.2,0.2,0.3,0.7-0.1,0.7
								l-0.3-1.2c0.2,0,0.4,0.2,0.6,0.4c0.9,0.8,1.6,0.1,1.6,0.1l4.1,0.4c0.4,0.2,0.6,0.1,0.7,1.3c-0.1,0.2-0.4,0.1-0.3,0.5
								c0-0.4-0.2-0.7-0.4-0.6c0,0.4,0.2,0.2,0.1,0.3l0,0c0,0.2,0.1,0.4,0.1,0.4c-0.3,0.6-0.7,0.5-0.9-0.3c-0.2,0.4,0.1,0.7,0.2,1
								c-0.7,0.3-1.2,0.2-1.9,0.3c0-0.7-0.1-0.5-0.2-1l-0.1,0.3c0-0.1-0.1-0.7,0.1-0.8c-0.4,0.6-0.5-1-0.8-1.3l0,0.4
								c-0.2-0.1-0.3-0.1-0.5-0.3c-0.4,0.7,0.3,0.1,0.2,1.1L287,165c0.1,0.4,0.1,1,0.2,1.3c-0.4-0.6-0.5,0.2-0.9-0.2
								c0,0.4,0.4,0.8,0.5,0.8c-0.1,0-0.4-0.3-0.4,0.1l0-0.5c-0.2-0.1,0,0.5,0,0.8C285.9,167.2,286.3,165.6,285.9,165.2z"/>
							<path class="st33" d="M280.3,165.7c0.1,0,0.1,0,0.2,0C280.4,165.7,280.4,165.7,280.3,165.7z"/>
							<path class="st33" d="M281.4,166.6c0,0.1,0,0.1,0,0.2C281.4,166.8,281.4,166.7,281.4,166.6z"/>
							<path class="st33" d="M281.5,167.4c0-0.2,0-0.2-0.1-0.6C281.5,167,281.7,167,281.5,167.4z"/>
							<path class="st33" d="M263.9,168.3c0-0.2-0.2-0.3-0.2-0.4l0.2,0.2L263.9,168.3z"/>
							<path class="st33" d="M264.3,167.7l0.2-0.2l0.2,0.7C264.5,168.2,264.5,167.7,264.3,167.7z"/>
							<path class="st33" d="M264.9,167.3l-0.1-0.2C264.8,167.2,264.9,167.2,264.9,167.3z"/>
							<path class="st33" d="M264.9,167.6l0.1,0.5l-0.3-0.4L264.9,167.6c-0.1-0.1,0-0.2,0-0.3L264.9,167.6
								C265,167.6,264.9,167.5,264.9,167.6z"/>
							<path class="st33" d="M265.1,167.6c0,0.1,0,0.1,0,0.2C265.1,167.7,265.1,167.6,265.1,167.6z"/>
							<path class="st33" d="M265.6,166.5c0,0.2,0.1,0.5,0.1,0.7c-0.2,0.2-0.3-0.6-0.4-0.3c0.3,0.4-0.1,0.3-0.1,0.6
								c0-0.5,0.1-0.8,0.3-1l0.1,0.3C265.6,166.9,265.5,166.7,265.6,166.5z"/>
							<path class="st33" d="M266.7,167.2l-0.2-0.5c0,0.2-0.3,0.3-0.2,0.8c-0.1-0.1-0.1-0.3-0.2-0.4c0,0.3-0.1,0.5-0.2,0.1
								c0.4-0.4,0.2-0.5,0.6-0.7c0-0.1-0.1-0.1-0.1-0.1l0.2-0.3C266.6,166.8,266.9,166.8,266.7,167.2z"/>
							<path class="st33" d="M267,166.8c-0.2,0-0.3-0.5-0.3-0.8l0.4,0.4C267.1,166.4,266.9,166.4,267,166.8z"/>
							<path class="st33" d="M267.3,166.8c0-0.3,0.1-0.8,0.3-0.3C267.4,166.4,267.5,167.2,267.3,166.8z"/>
							<path class="st33" d="M268.5,166.2l-0.3,0.4c0,0.7,0.2,0.2,0.3,0.5c-0.3,0.2-0.2-0.1-0.5-0.5c-0.1,0-0.2-0.3-0.4-0.5
								C268.2,166.7,268.1,165.1,268.5,166.2z"/>
							<polygon class="st33" points="267.9,167 267.8,166.7 268,166.9 							"/>
							<path class="st33" d="M269.3,165.4c0.2-0.8,0.4,0.4,0.7,0.1c0,0,0-0.1-0.1-0.2l0.2,0.1l0-0.2c0,0.5,0.3,0.6,0.4,1
								c-0.2,0.5-0.2-0.6-0.3,0c0.1,0.2,0.1,0.5,0.2,0.7c-0.1-0.2-0.2-0.5-0.3-0.8c-0.1,0-0.1,0.2-0.1,0.4c-0.2-0.3-0.2-0.9-0.4-0.8
								c-0.1,0.4,0.1,0.6-0.1,0.5c0.1-0.7-0.2,0.1-0.4-0.3c-0.2,0.2-0.3,0.6-0.2,0.9c0-0.6-0.2-1.1-0.4-1.2l0.4,0.5l0.1-0.7
								C269.1,165.6,269.2,165.6,269.3,165.4L269.3,165.4z"/>
							<path class="st33" d="M270.4,166.8c0,0,0,0.1,0.1,0.1C270.4,167,270.4,166.9,270.4,166.8z"/>
							<polygon class="st33" points="268.8,167 268.9,167.1 268.9,167.3 							"/>
							<path class="st33" d="M270.6,167.3c0,0-0.1-0.2,0-0.2L270.6,167.3L270.6,167.3z"/>
							<polygon class="st33" points="270.7,166.9 270.8,166.5 270.9,166.8 							"/>
							<path class="st33" d="M275,166.2c-0.1,0.2-0.1-0.2-0.2-0.6C275.1,165.5,274.9,166,275,166.2z"/>
							<path class="st33" d="M277.8,166.6c-0.1,0.3-0.3-0.1-0.5-0.1C277.5,166.3,277.7,166.4,277.8,166.6z"/>
							<path class="st33" d="M279,168.2c0-0.1-0.1-0.2,0-0.3l-0.2-0.8C279,166.8,279,167.8,279,168.2z"/>
							<path class="st33" d="M280.3,168.2l-0.2-0.3l0.1,0c-0.1-0.3-0.1-0.5-0.2-0.7C280.2,167.3,280.3,167.7,280.3,168.2z"/>
							<path class="st33" d="M279.8,167C279.8,167,279.9,167,279.8,167C279.9,167.2,279.9,167.3,279.8,167z"/>
							<path class="st33" d="M280,167.1C280,167.1,280,167.1,280,167.1C280,167.1,279.9,167.1,280,167.1
								C279.9,167,279.9,166.9,280,167.1z"/>
							<path class="st33" d="M280.5,167.8l0.4,0.1l-0.1,0.2C280.7,167.6,280.5,168.4,280.5,167.8z"/>
							<path class="st33" d="M282.4,167.4l0-0.5c0.2-0.1,0.5,1,0.7,0.2c-0.1,0.3,0.2,0.6-0.1,0.7
								C282.9,167.3,282.6,167.2,282.4,167.4z"/>
							<path class="st33" d="M283.3,166.6c0-0.1,0-0.2,0-0.4c0.1-0.1,0.2,0.2,0.1,0.4C283.4,165.9,283.3,167,283.3,166.6z"/>
							<path class="st33" d="M284.3,166.6c-0.1,0-0.2-0.1-0.1-0.2c0.2,0,0.2,0.6,0.3,0.9C284.4,167.7,284.2,166.9,284.3,166.6z"/>
							<path class="st33" d="M285.9,163c0,0.4-0.2,0.4-0.2,0.2C285.8,163.3,285.9,163.1,285.9,163z"/>
							<polygon class="st33" points="286,166.5 285.9,166.6 285.9,166 							"/>
							<polygon class="st33" points="287.2,166.9 287.4,167.3 287.2,167.2 							"/>
							<path class="st33" d="M287.5,166.7l0.2,0l-0.1,0.2C287.5,167.1,287.5,166.8,287.5,166.7z"/>
							<path class="st33" d="M288.1,166.8C288.1,166.8,288,166.9,288.1,166.8l-0.2-0.2L288.1,166.8z"/>
							<path class="st33" d="M291.4,164.2c0-0.4,0.1-0.2,0.2-0.3C291.6,164,291.5,164.6,291.4,164.2z"/>
						</g>
					</g>
				</g>
			</g>
		</g>
		<path class="st167" d="M320,155.8c0,0,3.8,1.2,6.3,7c0,0,0.5-0.8,0.4-1.5c-0.1-0.6,3.4,1.5,3.4,1.5s-2.7-5.5-7.9-7.3L320,155.8z"
			/>
		<path class="st186" d="M312.4,155.5c0,0,1.8,3.1,2.8,3.1s0.8-2.7,2.1-3.1c1.3-0.3,2.6,1.2,6.5-0.6"/>
		<path class="st22" d="M194.2,207.2c0,0,8.7-0.5,17.7,8.5s10.7-5.8-0.2-9.9C211.7,205.8,197.8,206.7,194.2,207.2z"/>
		<path class="st22" d="M202.9,229.9c0,0-8.7,1-12.5,12.8c-3.9,11.9-17.4,6.1-19.9-2.9s-14.3-1.8-17.7-4.5s3.2-7.4,3.2-7.4
			S191.6,230.7,202.9,229.9z"/>
		<path class="st22" d="M155.3,238.7c0,0-8.6,2.1-3.5,6.9C156.9,250.4,161.1,239.1,155.3,238.7z"/>
		<path class="st22" d="M273.7,240.6c0,0,7.3-0.6,17.6,6.2c10.3,6.8,25.6,0.2,16.6-10.3"/>
		<path class="st22" d="M323.2,245.6c0,0-5.5-2.1-5.4,2.7c0.1,4.7,4.6,6.6,9.5,3.6C332.1,248.8,323.2,245.6,323.2,245.6z"/>
		<path class="st22" d="M330.1,238.7c0,0-3,4.7,0,4.1C333.1,242.1,333.8,236.9,330.1,238.7z"/>
	</g>
</g>
</svg>
