<?xml version="1.0" encoding="utf-8"?>
<!-- Generator: Adobe Illustrator 26.0.3, SVG Export Plug-In . SVG Version: 6.00 Build 0)  -->
<svg version="1.1" xmlns="http://www.w3.org/2000/svg" xmlns:xlink="http://www.w3.org/1999/xlink" x="0px" y="0px"
	 viewBox="0 0 503.6 377.7" style="enable-background:new 0 0 503.6 377.7;" xml:space="preserve">
<style type="text/css">
	.st0{fill:#FFF0DD;}
	.st1{fill:#6B5C52;}
	.st2{fill:#B8BBBF;}
	.st3{fill:#F9E9CD;}
	.st4{fill:#FFE6BD;}
	.st5{fill:#F5F5F2;}
	.st6{fill:#637189;}
	.st7{fill:#9E9082;}
	.st8{fill:#938D89;}
	.st9{fill:#FFDBC0;}
	.st10{fill:#6E85BD;}
	.st11{fill:#E8D9D6;}
	.st12{fill:#A7BC79;}
	.st13{fill:#FF8080;}
	.st14{fill:#3D3533;}
	.st15{fill:#A1683D;}
	.st16{fill:#CCE0FF;}
	.st17{fill:#383531;}
	.st18{fill:#757060;}
	.st19{fill:#D29F7E;}
	.st20{opacity:0.88;clip-path:url(#SVGID_00000043444793506964537420000010622277133937161373_);}
	.st21{fill:#322015;}
	.st22{fill:#1B1C1E;}
	.st23{fill:none;stroke:#1B1C1E;stroke-width:1.2604;stroke-linecap:round;stroke-linejoin:round;stroke-miterlimit:10;}
	.st24{opacity:0.84;clip-path:url(#SVGID_00000065057744977613771480000000821524508305341857_);}
	.st25{clip-path:url(#SVGID_00000029734411532338390740000010527617548512756388_);}
	.st26{fill:none;stroke:#1B1C1E;stroke-width:1.2604;stroke-linecap:round;stroke-linejoin:round;}
	.st27{fill:#D1493B;}
	.st28{fill:#FFAE1F;}
	.st29{opacity:0.88;clip-path:url(#SVGID_00000031172289055418068570000006249149067080041147_);}
	.st30{opacity:0.7;clip-path:url(#SVGID_00000131336116497828767580000014256162714693266590_);}
	.st31{fill:#2C2C2D;}
	.st32{opacity:0.87;clip-path:url(#SVGID_00000141453623596708395480000015372776390972499858_);}
	.st33{fill:#080809;}
	.st34{opacity:0.7;clip-path:url(#SVGID_00000040576384484242744610000006385109963412119485_);}
	.st35{fill:#FBAF5E;}
	.st36{opacity:0.62;clip-path:url(#SVGID_00000165234631088143625020000012247372591114075799_);}
	.st37{fill:#3E240C;}
	.st38{fill:#BC763C;}
	.st39{opacity:0.62;clip-path:url(#SVGID_00000183217249848673162640000003190084684070754485_);}
	.st40{opacity:0.62;clip-path:url(#SVGID_00000162334533557019378370000008690653894433802130_);}
	.st41{fill:#967258;}
	.st42{opacity:0.53;clip-path:url(#SVGID_00000006699163588003508840000004985701649637341368_);}
	.st43{opacity:0.73;clip-path:url(#SVGID_00000119102442104149048880000013405736372032061623_);}
	.st44{fill:none;stroke:#1B1C1E;stroke-width:1.1311;stroke-linecap:round;stroke-linejoin:round;stroke-miterlimit:10;}
	.st45{fill:#3D291C;}
	.st46{fill:#3D291C;stroke:#967258;stroke-width:1.2604;stroke-linecap:round;stroke-linejoin:round;stroke-miterlimit:10;}
	.st47{fill:#D6D4C8;}
	.st48{fill:#1B1C1E;stroke:#967258;stroke-width:1.2604;stroke-linecap:round;stroke-linejoin:round;stroke-miterlimit:10;}
	.st49{opacity:0.52;clip-path:url(#SVGID_00000033349513950499917070000004818150088842431371_);}
	.st50{fill:#B37D4F;}
	.st51{opacity:0.88;clip-path:url(#SVGID_00000005253840782356282980000014908573261247377851_);}
	.st52{fill:#343434;}
	.st53{fill:#BC6464;}
	.st54{opacity:0.88;clip-path:url(#SVGID_00000124151974063513329380000010918467678303668377_);}
	.st55{fill:#1B1C1E;stroke:#1B1C1E;stroke-width:1.1485;stroke-linecap:round;stroke-linejoin:round;stroke-miterlimit:10;}
	.st56{fill:#8C7265;}
	.st57{opacity:0.88;clip-path:url(#SVGID_00000021097533098672408630000012342349940226065855_);}
	.st58{fill:#1B1C1E;stroke:#1B1C1E;stroke-width:1.3664;stroke-linecap:round;stroke-linejoin:round;stroke-miterlimit:10;}
	.st59{opacity:0.88;clip-path:url(#SVGID_00000003816764393542598160000008239248658321032609_);}
	.st60{fill:none;stroke:#1B1C1E;stroke-width:1.3664;stroke-linecap:round;stroke-linejoin:round;stroke-miterlimit:10;}
	.st61{opacity:0.88;clip-path:url(#SVGID_00000123437032869741534830000013829633574638389686_);}
	.st62{opacity:0.88;clip-path:url(#SVGID_00000016765179690696793170000001023258191974856603_);}
	.st63{fill:#5F6C72;}
	.st64{fill:#1B1C1E;stroke:#1B1C1E;stroke-width:1.5329;stroke-linecap:round;stroke-linejoin:round;stroke-miterlimit:10;}
	.st65{opacity:0.88;clip-path:url(#SVGID_00000031197017903221588870000009867942748079079057_);}
	.st66{clip-path:url(#SVGID_00000149347895431233292380000017836939645634169217_);}
	.st67{opacity:0.58;clip-path:url(#SVGID_00000098904445288030686230000006205623066823342233_);}
	.st68{opacity:0.58;clip-path:url(#SVGID_00000104685731228435343130000003628730162630043565_);}
	.st69{fill:#1B1C1E;stroke:#1B1C1E;stroke-width:1.818;stroke-linecap:round;stroke-linejoin:round;stroke-miterlimit:10;}
	.st70{fill:#FFFFFF;}
	.st71{fill:#CC813E;}
	.st72{opacity:0.58;clip-path:url(#SVGID_00000091004703390090878220000003051760864782559369_);}
	.st73{fill:#AA8C7D;}
	.st74{opacity:0.88;clip-path:url(#SVGID_00000003072830349591315390000009144298078630386069_);}
	.st75{opacity:0.88;clip-path:url(#SVGID_00000054260276921169826400000011294517227407103670_);}
	.st76{fill:#1B1C1E;stroke:#1B1C1E;stroke-width:1.2604;stroke-linecap:round;stroke-linejoin:round;stroke-miterlimit:10;}
	.st77{opacity:0.88;clip-path:url(#SVGID_00000007409449700337822790000006864023357420887731_);}
	.st78{opacity:0.88;clip-path:url(#SVGID_00000158751139071538891150000004915711231379903916_);}
	.st79{opacity:0.88;clip-path:url(#SVGID_00000100359657548744944360000006850014537961884593_);}
	.st80{fill:none;stroke:#1B1C1E;stroke-miterlimit:10;}
	.st81{fill:#B8BDC4;}
	.st82{fill:#B4D3CD;}
	.st83{opacity:0.88;clip-path:url(#SVGID_00000029754223651985598190000003487219381542646459_);}
	.st84{opacity:0.88;clip-path:url(#SVGID_00000121243194090238958870000007111391633503169951_);}
	.st85{fill:#EFBE9D;}
	.st86{opacity:0.88;clip-path:url(#SVGID_00000025444820257760963480000011810745965575631790_);}
	.st87{fill:#443730;}
	.st88{opacity:0.88;clip-path:url(#SVGID_00000183218468860691432990000015237107771572363171_);}
	.st89{opacity:0.88;clip-path:url(#SVGID_00000025405934035940604490000018132161590754517399_);}
	.st90{fill:#E2AF8D;}
	.st91{fill:none;stroke:#1B1C1E;stroke-linecap:round;stroke-linejoin:round;stroke-miterlimit:10;}
	.st92{fill:#1B1C1E;stroke:#1B1C1E;stroke-miterlimit:10;}
	.st93{fill:#FCEA9F;}
	.st94{fill:#F6EBEF;}
	.st95{fill:#D4DADD;}
	.st96{opacity:0.61;clip-path:url(#SVGID_00000158729004641919477870000006559072431464419974_);}
	.st97{fill:#353737;}
	.st98{fill:#B3B9BC;}
	.st99{opacity:0.61;clip-path:url(#SVGID_00000048478644728515072480000006899108429094670767_);}
	.st100{opacity:0.61;clip-path:url(#SVGID_00000174603829806098558310000008745344810272949147_);}
	.st101{fill:#B3B9BC;stroke:#1B1C1E;stroke-miterlimit:10;}
	.st102{fill:#CCE2CF;stroke:#1B1C1E;stroke-miterlimit:10;}
	.st103{fill:#EAD6DE;}
	.st104{fill:#1B1C1E;stroke:#1B1C1E;stroke-width:1.0185;stroke-miterlimit:10;}
	.st105{fill:none;stroke:#1B1C1E;stroke-width:1.0185;stroke-miterlimit:10;}
	.st106{fill:#FBAF5E;stroke:#1B1C1E;stroke-miterlimit:10;}
	.st107{fill:#513F3B;}
	.st108{opacity:0.88;clip-path:url(#SVGID_00000036937197773711655100000011984519858806432405_);}
	.st109{opacity:0.88;clip-path:url(#SVGID_00000027575178619428814260000007310876811683459494_);}
	.st110{fill:#8B2403;}
	.st111{fill:#EBDAD2;}
	.st112{fill:#A84E39;}
	.st113{fill:#751A01;}
	.st114{fill:#EBDAD2;stroke:#1B1C1E;stroke-miterlimit:10;}
	.st115{opacity:0.78;clip-path:url(#SVGID_00000072990928953028957740000001533013774604729479_);}
	.st116{fill:#290B01;}
	.st117{opacity:0.78;clip-path:url(#SVGID_00000128470470151579136440000008589837653369019810_);}
	.st118{opacity:0.78;clip-path:url(#SVGID_00000131344087812870559420000013117839699442323874_);}
	.st119{opacity:0.78;clip-path:url(#SVGID_00000011710561509254203480000000045509966574860439_);}
	.st120{fill:#030203;}
	.st121{fill:#86889A;}
	.st122{fill:#0B060A;}
	.st123{fill:#736E72;}
	.st124{fill:#9E9AA0;}
	.st125{fill:#18172A;}
	.st126{fill:#3B4D84;}
	.st127{fill:#FFA3AC;}
	.st128{fill:none;stroke:#0B080B;stroke-width:1.2005;stroke-miterlimit:10;}
	.st129{fill:#E7E6E8;}
	.st130{fill:#0B080B;}
	.st131{fill:none;stroke:#1B1C1E;stroke-width:1.2005;stroke-linecap:round;stroke-linejoin:round;stroke-miterlimit:10;}
	.st132{opacity:0.78;clip-path:url(#SVGID_00000158018315910579629220000010002964225387762062_);}
	.st133{opacity:0.78;clip-path:url(#SVGID_00000134972573851289052310000015295216472590881161_);}
	.st134{fill:#89745E;}
	.st135{opacity:0.78;clip-path:url(#SVGID_00000132058252942480735000000011751043424006205102_);}
	.st136{fill:#060606;}
	.st137{fill:#4D483E;}
	.st138{fill:#FF8A00;}
	.st139{fill:#50483F;}
	.st140{fill:#131313;}
	.st141{fill:#E8DBCD;}
	.st142{opacity:0.78;clip-path:url(#SVGID_00000133518309301968102810000016220638866039873424_);}
	.st143{opacity:0.78;clip-path:url(#SVGID_00000142170968421071157710000002350691528891855245_);}
	.st144{fill:#191212;}
	.st145{fill:#6C5353;}
	.st146{opacity:0.78;clip-path:url(#SVGID_00000168822618202997194830000001391648977237692854_);}
	.st147{fill:#B3B3B3;}
	.st148{fill:#FF9F2C;}
	.st149{fill:none;stroke:#343434;stroke-miterlimit:10;}
	.st150{fill:#21262A;}
	.st151{fill:#563D3D;}
	.st152{opacity:0.78;clip-path:url(#SVGID_00000101806765732719619010000002424150365551511733_);}
	.st153{fill:#181716;}
	.st154{fill:#706153;}
	.st155{fill:none;stroke:#1B1C1E;stroke-width:0.8477;stroke-miterlimit:10;}
	.st156{fill:#FCBD30;}
	.st157{fill:#E8D9CD;}
	.st158{fill:#534E4A;}
	.st159{opacity:0.78;clip-path:url(#SVGID_00000122711440072238707000000006220679005056403080_);}
	.st160{fill:#7DA050;}
	.st161{opacity:0.78;clip-path:url(#SVGID_00000027589714376893590210000013454952601776243867_);}
	.st162{opacity:0.78;clip-path:url(#SVGID_00000026883258481788066060000001479596281436550800_);}
	.st163{opacity:0.78;clip-path:url(#SVGID_00000172439499949307596290000017172014912840585615_);}
	.st164{fill:#EFEECE;}
	.st165{opacity:0.78;clip-path:url(#SVGID_00000096754617506979529630000004885476042628827040_);}
	.st166{fill:#93543B;}
	.st167{fill:#FF510C;}
	.st168{opacity:0.78;clip-path:url(#SVGID_00000013882693106169363570000002183444844577349035_);}
	.st169{fill:#4B1804;}
	.st170{fill:#000A0E;}
	.st171{opacity:0.78;clip-path:url(#SVGID_00000017512860438745144110000012925678306457957031_);}
	.st172{opacity:0.78;clip-path:url(#SVGID_00000034807835840069942790000005848156575351331244_);}
	.st173{fill:#F9C8A7;}
	.st174{fill:#1B1C1E;stroke:#1B1C1E;stroke-width:1.3738;stroke-miterlimit:10;}
	.st175{fill:none;stroke:#1B1C1E;stroke-width:1.3;stroke-miterlimit:10;}
	.st176{fill:#FFCB6E;}
	.st177{fill:#CECECE;}
	.st178{fill:none;stroke:#1B1C1E;stroke-width:1.3037;stroke-miterlimit:10;}
	.st179{fill:#FFFFFF;stroke:#1B1C1E;stroke-width:1.3;stroke-miterlimit:10;}
	.st180{opacity:0.78;clip-path:url(#SVGID_00000037671983573768531120000008703652561777412996_);}
	.st181{fill:none;stroke:#1B1C1E;stroke-width:1.3738;stroke-miterlimit:10;}
	.st182{opacity:0.45;clip-path:url(#SVGID_00000017474743741714934220000010179691365089890977_);}
	.st183{opacity:0.45;clip-path:url(#SVGID_00000074403316455319913350000016530223502386694302_);}
	.st184{opacity:0.45;clip-path:url(#SVGID_00000181804618065696473770000010410058149802474118_);}
	.st185{opacity:0.45;clip-path:url(#SVGID_00000138543389108092824340000001154273306687672757_);}
	.st186{fill:none;stroke:#1B1C1E;stroke-width:1.3738;stroke-linecap:round;stroke-linejoin:round;stroke-miterlimit:10;}
	.st187{fill:#FFB192;}
	.st188{fill:#EB8226;}
	.st189{fill:#F7EDE1;}
	.st190{opacity:0.78;clip-path:url(#SVGID_00000073712858012731947040000013140090069066844605_);}
	.st191{opacity:0.78;clip-path:url(#SVGID_00000170251205414624546070000009793099512811102108_);}
	.st192{opacity:0.5;clip-path:url(#SVGID_00000070080322599988308360000014987444681857129144_);}
	.st193{opacity:0.5;clip-path:url(#SVGID_00000051382320251777997170000002316967948218985092_);}
	.st194{fill:none;stroke:#06002C;stroke-width:1.3038;stroke-miterlimit:10;}
	.st195{fill:#F7A9B4;}
	.st196{fill:#06002C;}
	.st197{opacity:0.5;clip-path:url(#SVGID_00000005946681093501136940000008502747040329511300_);}
	.st198{fill:none;stroke:#06002C;stroke-width:1.3038;stroke-linecap:round;stroke-linejoin:round;stroke-miterlimit:10;}
	.st199{fill:#9BBEDC;}
	.st200{opacity:0.88;clip-path:url(#SVGID_00000168088818158171069080000015556886325246786713_);}
	.st201{opacity:0.88;clip-path:url(#SVGID_00000122693061699659859050000015189473557077104776_);}
</style>
<g id="Background">
	<rect x="-3.2" y="-2.4" class="st9" width="510" height="382.5"/>
</g>
<g id="Illustration">
	<g>
		<path class="st22" d="M358.8,306.8c0,0,9.1,2.6-15.7,3.4c-24.8,0.8-155.8,1.2-169.3,0c-13.5-1.2-39.7-0.5-4.9-3.4
			s70.6-1.2,105.7-2.9C309.7,302.1,353.5,303.8,358.8,306.8z"/>
		<g>
			<g>
				<path class="st22" d="M191.5,105.2c-6.2,4.3-15,9.6-15,9.6c-7-17,1.3-38.5,3.3-38.6C179.8,76.2,191,84.3,191.5,105.2z"/>
				<path class="st110" d="M197.4,100.6c-0.6,0.9-3,2.6-5.9,4.6c-0.6-20.8-11.7-28.9-11.7-28.9c2-0.1,4.6,2.3,9.6,8.2
					C194.4,90.5,197.4,100.6,197.4,100.6z"/>
				<path class="st80" d="M191.5,107.4c0-0.8,0-1.5,0-2.3"/>
			</g>
			<g>
				<path class="st22" d="M231.1,124.5c0,0-5.6-8.7-9.3-15.2c9.6-18.5,23.1-20.9,23.1-20.9C246.7,89.3,244.8,112.2,231.1,124.5z"/>
				<path class="st110" d="M244.9,88.4c0,0-13.6,2.4-23.1,20.9c-1.7-3-3.1-5.6-3.3-6.7c0,0,7.1-7.8,14.2-11
					C239.8,88.4,243.2,87.5,244.9,88.4z"/>
				<path class="st80" d="M221.8,109.3c-0.3,0.7-0.7,1.3-1,2"/>
			</g>
			<path class="st110" d="M187.4,101.7c0,0-9.4,4.7-12.2,16.3c-2.8,11.6-0.4,23.8,0,28.3s0.6,10.7-0.2,19.3s2.1,27.4,18,49.3
				s49.5,48.6,53.4,70.5c3.9,21.9,97.3,5.1,97.3,5.1s4.7-20.9-4.3-61.7c-4.3-19.5-16.5-35-21.9-39.9c-9.8-8.8-25.7-19.7-43.1-24.4
				c-30.4-8.1-32.8-13.4-41.4-24.3c0,0,4.5-8.4,1.6-21.4c-3.2-14.2-13.4-18.4-16-19.1C214.7,98.6,196.1,96.9,187.4,101.7z"/>
			<path class="st111" d="M234.8,142.5c0,0-8.9,34.2-32.2,35.9c-17.8,1.3-27-24.4-27-24.4c0-3-0.2-5.6-0.4-7.7c-0.2-1.8-0.7-5-1-8.8
				c2.7,5.6,7.6,11.1,13.3,13.6c5.4,2.4,12.2,3.4,20.4,2.8c5.6-0.4,10-1.8,13.6-3.6c8.3-4.1,11.5-10.1,11.5-10.1
				C233.6,141,234.2,141.8,234.8,142.5z"/>
			<path class="st111" d="M221.5,150.2c-3.5,1.8-8,3.2-13.6,3.6c-8.2,0.6-15-0.4-20.4-2.8c-2.7-2.6-4.4-5.9-3.6-9.4
				c1.9-8.2,9.6-10.3,9.6-10.3l24.5,1.5C225,138.3,225.4,145.4,221.5,150.2z"/>
			<path class="st110" d="M219.9,229.5c0,0-0.3,2.7-1,7.3c-0.3,1.9-0.7,4-1.1,6.4c-2.6,13.8-8,35.2-18.2,50.9c0,0-6.4-0.2-9.9,4.5
				c-3.4,4.7-1.9,9.9-1.9,9.9s22.2,0,26,0c3.4,0,10.5-19.4,24.9-40c1.8-2.5,3.6-5,5.6-7.5c18.3-23.1,19.6-45,19.6-45L219.9,229.5z"
				/>
			<path class="st112" d="M234.1,275.5c-11.4,17.8-17.2,33-20.3,33c-3.9,0-26,0-26,0s-1.5-5.1,1.9-9.9c3.4-4.7,9.9-4.5,9.9-4.5
				c4.6-7,8.2-15.2,11-23.3C210.6,270.9,227.3,269.4,234.1,275.5z"/>
			<path class="st110" d="M349.1,274.6c0,0-4.6,8.8-28.3,8.4s-73.7-6.2-94.3,0.9c-20.6,7.1-18.2,24.6-14.4,24.6c3.9,0,0,0,13.5,0
				c13.5,0,64.3,0,101.9,0s32.1-30.8,24.8-39.1s-8.8-17.1-8.8-17.1s1.5,17.6,1.2,28.1L349.1,274.6z"/>
			<path class="st113" d="M306.3,288.1c-30.2,4.3-46.3,10.9-72.4,11.6c-26.1,0.6-18.2-9.6-18.2-9.6c2.6-2.4,6.1-4.6,10.9-6.3
				c20.6-7.1,70.6-1.3,94.3-0.9c1.4,0,2.8,0,4.1,0c0,0,0,0,0,0C325.6,283.1,335.6,284,306.3,288.1z"/>
			<path class="st80" d="M195.3,308.5c0,0-1.7-4.4,1.7-7.7"/>
			<path class="st80" d="M204.8,301.5c0,0-1.9,3-0.4,7"/>
			<path class="st114" d="M201.3,130.9c0,0-2.7-0.2-5.7,0c-3,0.2-7.8,3.2-6.7,8.7c1.1,5.5,4.9,7.1,7.6,6.8c2.7-0.4,8-5.8,8-5.8
				l0.1-4.8C204.6,135.6,204.5,131.4,201.3,130.9z"/>
			<path class="st114" d="M207.7,130.9c0,0,2.7-0.2,5.7,0c3,0.2,7.8,3.2,6.7,8.7c-1.1,5.5-4.9,7.1-7.6,6.8c-2.7-0.4-8-5.8-8-5.8
				l-0.1-4.8C204.4,135.6,204.5,131.4,207.7,130.9z"/>
			<g>
				<path class="st35" d="M197.7,124.2c0,0-2.7,3.1-8,2.4c-5.2-0.7-6.7-5-6.7-5c0.3-1,2.1-4.4,6.8-4.5c0.5,0,1,0,1.6,0.1
					c0.3,0,0.6,0.1,0.8,0.1C197.3,118.4,197.7,124.2,197.7,124.2z"/>
				<path class="st92" d="M192.7,120.6c0,2.6-0.8,4.7-1.8,4.7s-1.8-2.1-1.8-4.7c0-1.4,0.3-2.7,0.6-3.5c0.5,0,1,0,1.6,0.1
					c0.3,0,0.6,0.1,0.8,0.1C192.5,118.1,192.7,119.3,192.7,120.6z"/>
			</g>
			<g>
				<path class="st35" d="M211.1,124.3c0,0,2.7,3.1,7.9,2.5c5.2-0.7,6.8-4.9,6.8-4.9c-0.3-1-2-4.4-6.7-4.6c-0.5,0-1,0-1.6,0.1
					c-0.3,0-0.6,0.1-0.8,0.1C211.5,118.5,211.1,124.3,211.1,124.3z"/>
				<path class="st92" d="M216.1,120.7c0,2.6,0.8,4.7,1.8,4.7s1.8-2.1,1.8-4.7c0-1.4-0.2-2.7-0.6-3.6c-0.5,0-1,0-1.6,0.1
					c-0.3,0-0.6,0.1-0.8,0.1C216.4,118.3,216.1,119.4,216.1,120.7z"/>
			</g>
			<path class="st92" d="M204.6,135.6c0,0-3.1-1.6-4.7-4c-1.6-2.5,2.4-2.9,5-2.9c2.6,0.1,5,0.8,3.6,3.1
				C207,134.1,204.6,135.6,204.6,135.6z"/>
			<path class="st112" d="M241.3,150.1c0,0-8,42.4-21.8,57.5c-17.2,18.8-30.1,2.1-30.1,2.1c-12.8-19.6-15.2-36.2-14.4-44.1
				c0.5-4.5,0.6-8.3,0.6-11.5c0,0,9.3,25.7,27,24.4c23.3-1.7,32.2-35.9,32.2-35.9C237,145.4,238.9,147.9,241.3,150.1z"/>
			<path class="st113" d="M215.6,99.1c-0.7,1.3-3.2,5.7-6.4,11.8c-2.5,4.8-7.9,4.8-10.6-0.6c-2.2-4.5-5-9.1-5.9-10.5
				C200.3,97.9,210.3,98.4,215.6,99.1z"/>
			<path class="st80" d="M349.1,274.6c0,0-4.6,8.8-28.3,8.4s-73.7-6.2-94.3,0.9"/>
			<path class="st80" d="M238.8,268.5c1.8-2.5,3.6-5,5.6-7.5c18.3-23.1,19.6-45,19.6-45"/>
			<path class="st80" d="M219.9,229.5c0,0-0.3,2.7-1,7.3c-0.3,1.9-0.7,4-1.1,6.4"/>
			<g>
				<defs>
					<path id="SVGID_00000146493956551265391550000006339288521989380995_" d="M234.8,142.5c0,0-8.9,34.2-32.2,35.9
						c-17.8,1.3-27-24.4-27-24.4c0-3-0.2-5.6-0.4-7.7c-0.2-1.8-0.7-5-1-8.8c2.7,5.6,7.6,11.1,13.3,13.6c5.4,2.4,12.2,3.4,20.4,2.8
						c5.6-0.4,10-1.8,13.6-3.6c8.3-4.1,11.5-10.1,11.5-10.1C233.6,141,234.2,141.8,234.8,142.5z"/>
				</defs>
				<clipPath id="SVGID_00000038377414345519898500000007490463997822076344_">
					<use xlink:href="#SVGID_00000146493956551265391550000006339288521989380995_"  style="overflow:visible;"/>
				</clipPath>
				<g style="opacity:0.78;clip-path:url(#SVGID_00000038377414345519898500000007490463997822076344_);">
					<g>
						<g>
							<g>
								<path class="st116" d="M229.2,146.7c0-0.1-0.1-0.2-0.1-0.2C229,146.5,229.1,146.5,229.2,146.7z"/>
								<path class="st116" d="M223.5,150.3C223.5,150.3,223.5,150.3,223.5,150.3L223.5,150.3L223.5,150.3z"/>
								<path class="st116" d="M223.6,150.3l0.1,0.3C223.7,150.5,223.6,150.4,223.6,150.3z"/>
								<path class="st116" d="M228.2,144.8c0-0.1,0-0.2-0.1-0.4L228.2,144.8z"/>
								<path class="st116" d="M226.9,144.3c0,0-0.1-0.1-0.1-0.1C226.8,144.2,226.9,144.2,226.9,144.3z"/>
								<path class="st116" d="M234,142.8C234,142.9,234,142.9,234,142.8C234.1,142.9,234,142.9,234,142.8z"/>
								<path class="st116" d="M233.9,142.2C234,142.1,234,142.1,233.9,142.2l0-0.1C233.9,142,233.9,142.1,233.9,142.2z"/>
								<path class="st116" d="M233.5,142.1L233.5,142.1C233.5,142,233.5,142,233.5,142.1z"/>
								<path class="st116" d="M232.6,137.5l-0.2-0.2C232.4,137.4,232.5,137.5,232.6,137.5z"/>
								<path class="st116" d="M234.2,143.2c0-0.1-0.1-0.1-0.2-0.2C234.1,143,234.1,143.1,234.2,143.2z"/>
								<path class="st116" d="M229.2,146.8c0,0-0.1-0.1-0.1-0.1C229.2,146.7,229.2,146.8,229.2,146.8z"/>
								<path class="st116" d="M228.6,144.5L228.6,144.5C228.6,144.6,228.6,144.6,228.6,144.5z"/>
								<path class="st116" d="M221.5,151.7c0,0.1-0.1,0.1-0.1,0.2C221.6,151.9,221.6,151.8,221.5,151.7z"/>
								<path class="st116" d="M232.4,143.7c-0.7-0.6,0.1-0.2-0.5-0.8c0.1,0.2,0.1,0.4-0.3,0.1c-0.3-0.4,0.2-0.2-0.3-0.7l0.1,0.3
									c-0.4-0.2-0.7-0.7-0.7-0.6c0.7,0.8-0.7,0.1-0.6,0.3l0-0.1l-0.5-0.2c0,0,0,0,0,0c0,0,0.1,0.1,0.1,0.1
									c-0.4-0.3-0.8-0.4-0.9-0.2c0.4,0.5-0.3,0.6-0.1,1c0-0.2,0-0.2,0.2-0.2l0.5,0.5c-0.2,0.1-0.5-0.5-0.3,0
									c0.7,0.7,0.2-0.2,0.4-0.2c0.1,0.2,0.2,0.4,0.2,0.5c0.2-0.2,0.7-0.1,0.1-0.9c0.2,0.1,0.5,0.4,0.5,0.5
									c-0.3-0.5,0.5,0.3,0.3-0.2c0.6,0.7,0,0.6,0.3,1.1c-0.7-0.3-0.5,0.4-0.6,0.7c-0.5-0.5-0.7-1-1.1-1.2c-0.5-0.1,0,0.5,0.2,0.8
									c-0.3,0-0.8-0.8-1-0.6l-0.2-0.4c-0.8-0.5,0.1,0.4-0.1,0.4c0.2,0.1,0.4,0.3,0.5,0.2c0.2,0.2,0.3,0.4,0.2,0.5l0,0
									c0.3,0.4,0.6,0.7,0.3,0.7c-0.3-0.5-0.4-0.2-0.6-0.3l0-0.1c0,0.2-0.2,0.3-0.2,0.4l-0.1-0.1c0.1,0.2,0.5,0.8,0.3,0.8
									c-0.2-0.2-0.5-0.9-0.6-0.7c-0.3-0.3-0.1-0.5,0.1-0.5c-0.2,0-0.7-0.5-0.6-0.6c-0.4-0.4,0,0.3-0.2,0.2
									c0.1,0.1,0.2,0.3,0.3,0.4c-0.5-0.5-0.3,0.2,0,0.6l-0.1-0.4c0.4,0.4,0.5,0.9,0.7,1c-0.7-0.6-0.1,0.7-0.7,0.2l0.4,0.3
									c-0.5,0.1-0.1,1.1-0.3,1.5c-0.1-0.3-0.7-1.1-0.3-1c-0.4,0.1-0.7-0.7-1.1-1c-0.5-0.1,0.5,0.8,0.6,1.1l0.1-0.3
									c0.5,1-0.8,0.3-0.7,1.1c-0.2-0.2,0-0.2-0.1-0.3c-0.5-0.3-0.1,0.2,0,0.5c-0.2,0-0.6,0-0.9-0.7c-0.3,0,0.3,0.3,0.3,0.6
									l-0.1-0.1l0.3,0.8c-0.3-0.1-0.7-0.2-1.2-0.7c-0.3,0.4,0.8,1.4,0.7,1.8c-0.4-0.2-0.3-0.5-0.4-0.7l-0.2,0.2
									c-0.4-0.7,0-0.5-0.5-1.3c0.4,0.9-0.1,0.4,0,1.1l0.1,0.1c0.3,0.6-0.3,0.4-0.4,0.6c-0.2-0.4,0-0.5,0-0.7
									c-0.3-0.1-0.6,0.4-0.3,1.2c-0.2,0-0.6-0.2-0.6-0.6c-0.4,0.1,0.5,1.1,0.1,1.1l-0.3-0.5c-0.8-0.5-0.2,1.1-1,0.6l0.4,0.7
									c-0.2-0.2-0.5-0.3-0.6-0.5l0-0.3c-0.5-0.5,0.2,0.6-0.3,0.3c0.1,0.2,0.5,0.6,0.7,0.8c0.5-0.8,1.8-0.3,2-1.4
									c-0.1-0.1-0.2-0.1-0.2-0.3c0.2,0.1,0.2-0.2,0.4,0.2l0,0.1c0.1-0.3,0.8,0.4,0.9,0.3c-0.2-0.5,0.5-0.1-0.1-0.8l0.4,0.4
									c-0.2-0.3-0.4-0.6-0.5-0.8c0.2,0,0.4,0.3,0.4,0.5c0.7,0,1.2-0.6,1.5-1.1l0.1,0.4c0.2,0.1-0.1-0.9,0.5,0
									c0-0.5,0.8-0.3,0.1-1.1c0.8,0.7,0.9-0.1,1-0.5c-0.7-0.7,0.1-0.4-0.1-0.8c0.5,0.5,0.2,0.8,0.6,1.2c-0.4-1.1,1.4-0.1,0.3-1.7
									c0.1,0,0.1,0.1,0.2,0.1c0.1,0,0.4,0.1,0.5,0.1c-0.2-0.3-0.4-0.3-0.4-0.5c0.2,0,0.5,0.4,0.7,0.5c-0.1-0.5,0.1-1-0.4-1.5
									c0.2,0.1,0.6,0.3,0.6,0.5c-0.1-0.7,0.4-0.2,0.5-0.8c-0.1,0.1,0.5,0.6,0.1,0.6c0.9,0.6,0.4-0.6,1-0.5l-0.4-0.6
									c0.1-0.2,0.6,0.2,0.6,0.5c0.6,0,0.4-0.4,0.6-0.6c0.1,0,0.2,0.1,0.1,0.2l0.3-0.3c-0.1-0.1-0.2-0.5-0.6-0.8
									C232.6,143.5,232.7,143.7,232.4,143.7z"/>
								<path class="st116" d="M232.3,143.2L232.3,143.2L232.3,143.2C232.3,143.1,232.3,143.1,232.3,143.2z"/>
								<path class="st116" d="M227.6,143.7c0.1,0.1,0.2,0.1,0.3,0.1C227.8,143.8,227.7,143.7,227.6,143.7z"/>
								<path class="st116" d="M233.9,139.4c-0.9-0.6,0,0.3-0.4,0.3c0-0.2-0.5-0.6-0.8-0.7c0.9,1-0.4,0-0.4,0.5
									c-0.3-0.3-0.3-0.5-0.7-0.8c0.1,0.4,0.1,0.7,0.6,1.2c-0.2,0.3-0.6,0.3-0.6,0.5c-0.1-0.4-0.5-0.5-0.9-1.1
									c0.5,0.8,0.9,1.9,1.5,2.9c-0.7-0.5-0.7-0.6-1.3-1.1c-0.7-0.1,0.5,0.6,0,0.7l0.2,0c0.1,0.3,0.6,0.8,1,1.3l0.3-0.4
									c0.4,0.4,0.1,0.6,0.2,0.7c0.4,0.6,0.5,0.1,0.9,0.5c-0.3-0.4,0-0.4-0.1-0.6l0.2,0.2c0.4,0-0.1-0.6,0.1-0.7
									c0.1,0,0.1,0.1,0.2,0.1c-0.2-0.3-0.5-0.6-0.5-0.8l0,0.1c-0.4-0.6-0.5-1.2-1.3-1.5l0.5-0.2c0.6,0.6,1.5,1.4,1.3,1.7l0.2,0.2
									c0.5,0.1-0.1-0.9-0.7-1.2c-1.3-1.4,0.4-0.6,0-1.4c0.4,0.3,0.5,0.6,0.7,0.9c0,0.1-0.1,0.2-0.4-0.1c-0.1,0.6,1.4,1,0.9,1.3
									c-0.4,0-0.4-0.8-0.8-0.5l0.9,1.1c0.1-0.2,0.1-0.5,0.1-0.8c-0.1-1.5,1-1.6,1-1.6c0.8-1.4,1.6-2.8,2.3-4.3
									c0.1-0.5,0.2-0.7-0.9-1.5c-0.3,0-0.3,0.3-0.7-0.1c0.4,0.3,0.6,0.6,0.4,0.8c-0.5-0.2-0.1-0.3-0.2-0.3l-0.1,0
									c-0.2-0.2-0.4-0.3-0.3-0.4c-0.8-0.2-0.9,0.4-0.2,1.1c-0.6-0.1-0.6-0.6-0.9-0.9c-0.8,0.5-1,0.9-1.4,1.6
									c0.8,0.5,0.4,0.4,0.9,0.8l-0.3-0.1c0.2,0.1,0.6,0.5,0.9,0.5c-0.9,0,0.7,1.2,0.8,1.7l-0.4-0.3c-0.1,0.3-0.1,0.3-0.1,0.7
									c-1-0.2,0.1-0.4-0.9-1l0.1,0.2c-0.3-0.3-0.9-0.9-1.1-1.2c0.4,0.8-0.6,0.3-0.4,1c-0.4-0.4-0.5-0.9-0.5-1
									c-0.1,0.1,0,0.5-0.4,0.2l0.5,0.4c-0.1,0.3-0.5-0.4-0.9-0.6C231.9,137.9,233.9,138.7,233.9,139.4z"/>
								<path class="st116" d="M229.4,143.9c0.1,0,0.1-0.1,0.1-0.2C229.5,143.7,229.4,143.8,229.4,143.9z"/>
								<path class="st116" d="M229.4,142.1c-0.1-0.1-0.1-0.1-0.2-0.2C229.2,142,229.3,142,229.4,142.1z"/>
								<path class="st116" d="M228.8,141.4c0.2,0.2,0.2,0.2,0.4,0.5C229.1,141.7,229.2,141.6,228.8,141.4z"/>
								<path class="st116" d="M213.1,152.1c0,0.2,0,0.4,0.1,0.6l0.1-0.3L213.1,152.1z"/>
								<path class="st116" d="M213.8,152.6l0.3,0.2l-0.2-0.9C213.7,152,214,152.5,213.8,152.6z"/>
								<path class="st116" d="M214.6,152.8l0,0.2C214.6,152.9,214.6,152.9,214.6,152.8z"/>
								<path class="st116" d="M214.5,152.5l-0.2-0.6l-0.1,0.6l0.2,0.1c0.1,0.2,0.2,0.3,0.2,0.4l-0.1-0.5
									C214.5,152.4,214.5,152.5,214.5,152.5z"/>
								<path class="st116" d="M214.7,152.3c0-0.1-0.1-0.1-0.1-0.2C214.6,152.2,214.7,152.3,214.7,152.3z"/>
								<path class="st116" d="M215.7,153.2c-0.2-0.2-0.2-0.6-0.3-0.8c-0.3-0.1,0.1,0.8-0.2,0.6c0.1-0.6-0.3-0.3-0.5-0.6
									c0.3,0.5,0.6,0.9,0.9,1l-0.1-0.4C215.5,152.8,215.6,153.1,215.7,153.2z"/>
								<path class="st116" d="M216.4,151.8l0.1,0.6c-0.2-0.3-0.4-0.2-0.7-0.7c-0.1,0.1,0,0.4,0,0.6c-0.2-0.3-0.4-0.5-0.3,0
									c0.6,0.2,0.5,0.4,1,0.4c0,0.1,0,0.1-0.1,0.1l0.4,0.2C216.6,152.3,216.8,152.2,216.4,151.8z"/>
								<path class="st116" d="M217,152.1c-0.2,0.1,0,0.7,0.2,1l0.2-0.6C217.3,152.5,217.2,152.7,217,152.1z"/>
								<path class="st116" d="M217.2,152c0.2,0.3,0.6,0.8,0.5,0.2C217.5,152.3,217.2,151.5,217.2,152z"/>
								<path class="st116" d="M218.8,151.8l-0.5-0.2c-0.4-0.7,0-0.3,0-0.7c-0.4,0-0.2,0.2-0.1,0.8c-0.1,0-0.1,0.4-0.1,0.7
									C218.2,151.6,219.1,153.3,218.8,151.8z"/>
								<polygon class="st116" points="217.7,151.5 217.8,151.8 217.9,151.5 								"/>
								<path class="st116" d="M220.1,152.2c0.7,0.7,0.1-0.7,0.6-0.5c0,0.1,0.1,0.1,0.1,0.3l0.2-0.2l0.1,0.2
									c-0.3-0.5-0.2-0.8-0.4-1.2c-0.5-0.4,0.3,0.7-0.3,0.2c-0.1-0.3-0.3-0.6-0.3-0.8c0,0.3,0.2,0.6,0.3,1
									c-0.1,0.1-0.2-0.2-0.3-0.4c0,0.4,0.4,1.1,0.1,1.1c-0.4-0.4-0.3-0.7-0.5-0.4c0.6,0.7-0.3,0-0.1,0.6c-0.3-0.1-0.7-0.5-0.8-0.8
									c0.3,0.6,0.5,1.2,0.4,1.5l0-0.7l0.5,0.7C219.7,152.1,219.8,152.1,220.1,152.2L220.1,152.2z"/>
								<path class="st116" d="M220.1,150c0-0.1,0-0.1,0-0.2C220,149.9,220,149.9,220.1,150z"/>
								<polygon class="st116" points="218.6,150.9 218.5,150.7 218.4,150.5 								"/>
								<path class="st116" d="M219.9,149.4c-0.1,0,0.1,0.2,0.1,0.2l-0.1-0.4L219.9,149.4z"/>
								<polygon class="st116" points="220.4,149.8 220.7,150.1 220.6,149.8 								"/>
								<path class="st116" d="M224.7,147.4c-0.3-0.1,0.1,0.3,0.3,0.7C225.2,148,224.6,147.7,224.7,147.4z"/>
								<path class="st116" d="M226.6,145c-0.4-0.2-0.1,0.4-0.3,0.5C226.6,145.5,226.6,145.3,226.6,145z"/>
								<path class="st116" d="M226.2,142.7c0.1,0.2,0.1,0.3,0.2,0.3l0.6,0.9C227.4,143.9,226.5,143,226.2,142.7z"/>
								<path class="st116" d="M227.1,141.6l0.1,0.4l0.1-0.1c0.2,0.3,0.3,0.5,0.5,0.8C227.8,142.5,227.7,142.1,227.1,141.6z"/>
								<path class="st116" d="M227.8,143.1c0,0,0-0.1,0-0.1C227.7,142.9,227.6,142.8,227.8,143.1z"/>
								<path class="st116" d="M227.9,142.9c0,0,0-0.1-0.1-0.1C227.8,142.8,227.8,142.9,227.9,142.9C227.9,143,228,143,227.9,142.9z
									"/>
								<path class="st116" d="M227.6,141.8l0.2-0.4l-0.2,0C228,141.9,227.2,141.3,227.6,141.8z"/>
								<path class="st116" d="M229.4,140.7l0.5,0.4c0.3-0.1-0.5-1.2,0.3-0.7c-0.4-0.2-0.4-0.6-0.7-0.5
									C229.9,140.4,229.7,140.7,229.4,140.7z"/>
								<path class="st116" d="M230.7,140.6c0.1,0.2,0.2,0.2,0.4,0.3c0.1,0,0-0.3-0.3-0.4C231.4,141.1,230.4,140.2,230.7,140.6z"/>
								<path class="st116" d="M231.5,139.7c0,0.1-0.1,0.2,0.1,0.2c0.1-0.2-0.5-0.6-0.7-0.9C230.5,138.8,231.1,139.6,231.5,139.7z"
									/>
								<path class="st116" d="M236.2,141c-0.4-0.3-0.5-0.1-0.4,0.1C235.8,141,236,141,236.2,141z"/>
								<polygon class="st116" points="232.7,138.3 232.6,138.3 233.2,138.9 								"/>
								<polygon class="st116" points="233.2,137 232.9,136.5 232.8,136.8 								"/>
								<path class="st116" d="M233.5,136.8l0.1-0.2l-0.2-0.1C233.2,136.6,233.5,136.8,233.5,136.8z"/>
								<path class="st116" d="M233.8,136.2c0,0.1-0.1,0-0.1,0l0.2,0.4L233.8,136.2z"/>
								<path class="st116" d="M238.6,134.8c0.4,0.3,0.3-0.1,0.4-0.1C238.9,134.6,238.2,134.4,238.6,134.8z"/>
							</g>
						</g>
					</g>
				</g>
			</g>
			<g>
				<defs>
					<path id="SVGID_00000054981115391613732640000003143645401009462961_" d="M352.4,269.4c-7.4-8.4-8.8-17.1-8.8-17.1s0,0,0,0.1
						v0.1c0.2,1.2,0.3,2.5,0.4,3.7c1,9.3,1.1,16.7,0.9,22.3c1-0.6,1.8-1.1,2.3-1.7c0.4-0.4,0.8-0.7,1-1l-1.1,1.4l-2.4,3.2
						c-0.4,6.7-1.2,10.1-1.2,10.1s-93.4,16.7-97.3-5.1c-0.3-1.5-0.7-3-1.2-4.6c-7.3,0.5-13.7,1.4-18.5,3.1
						c-20.6,7.1-18.2,24.6-14.4,24.6c3.9,0,0,0,13.5,0h101.9C365.2,308.5,359.8,277.8,352.4,269.4z M348.3,275.8l0.8-1.1
						C349,274.8,348.8,275.2,348.3,275.8z"/>
				</defs>
				<clipPath id="SVGID_00000045593570119823311260000006079657933705584030_">
					<use xlink:href="#SVGID_00000054981115391613732640000003143645401009462961_"  style="overflow:visible;"/>
				</clipPath>
				<g style="opacity:0.78;clip-path:url(#SVGID_00000045593570119823311260000006079657933705584030_);">
					<g>
						<g>
							<g>
								<path class="st116" d="M346.4,267.1c-0.1,0-0.2-0.1-0.2-0.1C346.2,267.1,346.3,267.1,346.4,267.1z"/>
								<path class="st116" d="M345.7,273.5C345.7,273.6,345.7,273.6,345.7,273.5L345.7,273.5L345.7,273.5z"/>
								<path class="st116" d="M345.8,273.6l0.3,0.1C346,273.5,345.9,273.5,345.8,273.6z"/>
								<path class="st116" d="M344.4,266.5c-0.1-0.1-0.2-0.1-0.4-0.2L344.4,266.5z"/>
								<path class="st116" d="M343.2,267.1c-0.1,0-0.1,0-0.2,0C343.1,267.2,343.1,267.2,343.2,267.1z"/>
								<path class="st116" d="M347.4,261.4c0,0,0.1,0,0.1,0C347.4,261.4,347.4,261.4,347.4,261.4z"/>
								<path class="st116" d="M346.9,260.9c0,0,0-0.1,0-0.1l-0.1,0C346.7,260.8,346.8,260.9,346.9,260.9z"/>
								<path class="st116" d="M346.5,261.1L346.5,261.1C346.4,261,346.4,261,346.5,261.1z"/>
								<path class="st116" d="M343,258l-0.3,0C342.8,258,342.9,258,343,258z"/>
								<path class="st116" d="M347.7,261.5c-0.1,0-0.2-0.1-0.3-0.1C347.6,261.4,347.6,261.5,347.7,261.5z"/>
								<path class="st116" d="M346.6,267.2c-0.1,0-0.1,0-0.1,0C346.5,267.2,346.5,267.2,346.6,267.2z"/>
								<path class="st116" d="M344.5,266.1L344.5,266.1C344.5,266.2,344.5,266.1,344.5,266.1z"/>
								<path class="st116" d="M345.8,276c0,0.1,0.1,0.1,0.1,0.2C346,276,346,276,345.8,276z"/>
								<path class="st116" d="M346.7,263c-0.9,0,0-0.2-0.9-0.2c0.2,0.1,0.3,0.2-0.1,0.3c-0.5-0.1,0.1-0.2-0.7-0.3l0.3,0.2
									c-0.4,0.1-1-0.1-0.9,0c1,0.2-0.4,0.5-0.3,0.7l-0.1-0.1l-0.5,0.2c0,0,0,0-0.1,0c0.1,0,0.1,0,0.2,0c-0.5,0.1-0.9,0.3-0.8,0.5
									c0.6,0.1,0.2,0.7,0.7,0.8c-0.1-0.1-0.2-0.2,0-0.3l0.7,0c0,0.2-0.7,0-0.2,0.2c1,0,0-0.3,0.1-0.4c0.2,0.1,0.4,0.1,0.5,0.2
									c0-0.3,0.4-0.6-0.6-0.8c0.2-0.1,0.6,0,0.7,0c-0.6-0.2,0.6-0.1,0-0.3c0.9,0.1,0.5,0.4,1,0.6c-0.7,0.2-0.1,0.6,0.1,0.9
									c-0.7,0-1.2-0.2-1.6-0.1c-0.4,0.3,0.3,0.3,0.7,0.5c-0.2,0.2-1.1,0-1.1,0.3l-0.4-0.2c-0.9,0.2,0.4,0.2,0.2,0.3
									c0.2,0,0.5,0,0.5-0.2c0.3,0,0.5,0.1,0.5,0.2l0,0c0.5,0.1,0.9,0.1,0.7,0.3c-0.5-0.1-0.4,0.2-0.7,0.2l-0.1-0.1
									c0.2,0.2,0.1,0.3,0.2,0.4l-0.1,0c0.2,0.1,0.9,0.2,0.8,0.3c-0.3,0-1-0.2-0.9,0c-0.4,0-0.4-0.2-0.3-0.4
									c-0.2,0.2-0.8,0.2-0.9,0c-0.5,0,0.2,0.2,0,0.3c0.2,0,0.3,0,0.5,0c-0.7,0-0.1,0.4,0.4,0.4l-0.4-0.2c0.6,0,0.9,0.2,1.3,0.2
									c-0.9,0.1,0.4,0.5-0.3,0.6l0.5-0.1c-0.3,0.4,0.7,0.8,1,1.2c-0.3-0.1-1.3-0.2-0.9-0.4c-0.2,0.4-1,0.1-1.5,0.2
									c-0.4,0.3,0.9,0.2,1.2,0.3l-0.2-0.2c1.1,0.3-0.3,0.8,0.4,1.2c-0.3,0-0.2-0.1-0.3-0.1c-0.6,0.2,0.1,0.2,0.3,0.3
									c-0.1,0.2-0.4,0.4-1.1,0.3c-0.2,0.2,0.4,0,0.7,0.1l-0.2,0l0.8,0.2c-0.2,0.2-0.6,0.4-1.3,0.5c0.1,0.4,1.6,0.2,1.9,0.5
									c-0.4,0.2-0.5,0-0.8-0.1l0.1,0.3c-0.8-0.1-0.4-0.3-1.3-0.3c0.9,0.2,0.3,0.3,0.9,0.6l0.1,0c0.6,0.1,0.2,0.5,0.3,0.6
									c-0.4-0.1-0.4-0.3-0.6-0.4c-0.3,0.2,0,0.7,0.8,0.9c-0.1,0.1-0.5,0.4-0.8,0.2c-0.1,0.4,1.2,0.2,0.9,0.5l-0.6,0
									c-0.9,0.4,0.8,0.8,0,1.1l0.8,0c-0.3,0.1-0.5,0.2-0.8,0.3l-0.3-0.2c-0.6,0.2,0.6,0.2,0.2,0.4c0.2,0,0.8-0.2,1-0.2
									c-0.4-0.8,0.7-1.6-0.1-2.4c-0.1,0-0.2,0.1-0.3,0c0.2-0.1,0-0.3,0.4-0.2l0.1,0c-0.2-0.2,0.8-0.4,0.8-0.5
									c-0.5-0.1,0.2-0.4-0.7-0.3l0.6-0.1c-0.3,0-0.8,0-0.9-0.1c0.1-0.1,0.4-0.1,0.7,0c0.4-0.5,0.3-1.2,0-1.8l0.4,0.2
									c0.2-0.1-0.7-0.5,0.3-0.4c-0.4-0.3,0.3-0.7-0.8-0.8c1.1-0.2,0.5-0.7,0.3-1c-1,0.1-0.3-0.3-0.7-0.4c0.7,0,0.8,0.3,1.2,0.3
									c-1.1-0.4,0.8-1.1-1-1.3c0.1,0,0.2,0,0.2,0c0-0.1,0.3-0.2,0.4-0.2c-0.3-0.1-0.5,0.1-0.6-0.1c0.1-0.1,0.6-0.1,0.8-0.1
									c-0.4-0.3-0.6-0.7-1.3-0.8c0.2-0.1,0.6-0.2,0.8-0.1c-0.6-0.5,0.1-0.4-0.2-0.9c0,0.2,0.8,0.1,0.5,0.3c1.1-0.2-0.2-0.7,0.4-1
									l-0.7-0.2c-0.1-0.2,0.5-0.2,0.8-0.1c0.4-0.4,0-0.6,0-0.8c0.1,0,0.2,0,0.2,0l0-0.4c-0.2,0-0.5-0.2-1-0.2
									C346.7,262.7,346.9,262.8,346.7,263z"/>
								<path class="st116" d="M346.3,262.6L346.3,262.6L346.3,262.6C346.2,262.6,346.3,262.6,346.3,262.6z"/>
								<path class="st116" d="M343.2,266.2c0.2,0,0.3-0.1,0.3-0.1C343.4,266.2,343.3,266.2,343.2,266.2z"/>
								<path class="st116" d="M345.2,258.8c-1,0,0.2,0.3-0.1,0.4c-0.2-0.2-0.8-0.1-1.1-0.1c1.3,0.2-0.3,0.2,0,0.6
									c-0.4,0-0.5-0.2-1-0.2c0.3,0.2,0.5,0.6,1.3,0.6c0,0.4-0.3,0.6-0.2,0.8c-0.3-0.3-0.8-0.1-1.4-0.3c0.9,0.3,1.9,0.9,3,1.3
									c-0.8,0-0.9,0-1.7,0c-0.6,0.4,0.8,0.1,0.5,0.5l0.2-0.2c0.2,0.2,1,0.2,1.6,0.3l-0.1-0.5c0.6,0,0.5,0.3,0.6,0.4
									c0.7,0.2,0.5-0.2,1-0.2c-0.4-0.1-0.3-0.3-0.5-0.4l0.3,0c0.3-0.2-0.4-0.4-0.4-0.6c0.1,0,0.2,0,0.2,0
									c-0.3-0.1-0.8-0.2-0.9-0.3l0,0.1c-0.7-0.2-1.2-0.6-2-0.4l0.2-0.5c0.8,0.1,2,0.2,2.1,0.5l0.3,0c0.5-0.2-0.6-0.6-1.3-0.5
									c-1.9-0.3,0-0.7-0.8-1.1c0.5,0,0.7,0.2,1.1,0.3c0.1,0.1,0.1,0.2-0.4,0.2c0.3,0.5,1.7,0,1.5,0.5c-0.3,0.2-0.8-0.3-0.9,0
									l1.4,0.3c0-0.2-0.3-0.4-0.4-0.6c-0.9-1.1-0.1-1.8-0.1-1.8l-0.3-4.6c-0.2-0.5-0.1-0.7-1.5-0.9c-0.3,0.1-0.2,0.4-0.7,0.3
									c0.5,0.1,0.8,0.3,0.8,0.5c-0.5,0-0.2-0.2-0.4-0.2l0,0c-0.3,0-0.4-0.1-0.5-0.2c-0.8,0.2-0.7,0.8,0.3,1
									c-0.5,0.2-0.8-0.2-1.2-0.3c-0.4,0.8-0.4,1.3-0.4,2.2c0.9,0,0.6,0.1,1.2,0.2l-0.3,0.1c0.2,0,0.8,0.1,1,0
									c-0.7,0.4,1.2,0.6,1.6,0.9l-0.5,0c0.1,0.3,0.1,0.3,0.3,0.6c-0.9,0.4-0.1-0.4-1.3-0.3l0.2,0.1c-0.4-0.1-1.2-0.2-1.6-0.3
									c0.8,0.4-0.3,0.6,0.3,1c-0.5-0.1-0.9-0.5-1-0.6c-0.1,0.1,0.3,0.4-0.2,0.4l0.7,0.1c0.1,0.3-0.6-0.1-1,0
									C342.7,258.7,344.8,258.2,345.2,258.8z"/>
								<path class="st116" d="M344.6,265.1c0.1-0.1,0-0.1,0-0.2C344.6,264.9,344.6,265,344.6,265.1z"/>
								<path class="st116" d="M343.4,263.8c-0.1,0-0.2,0-0.2,0C343.2,263.8,343.3,263.8,343.4,263.8z"/>
								<path class="st116" d="M342.4,263.6c0.3,0,0.3,0.1,0.7,0.1C342.9,263.7,342.9,263.5,342.4,263.6z"/>
								<path class="st116" d="M342.5,283.7c0.2,0,0.4,0.2,0.6,0.2l-0.2-0.2L342.5,283.7z"/>
								<path class="st116" d="M343.3,283.2l0.3-0.2l-0.9-0.1C342.6,283.1,343.2,283,343.3,283.2z"/>
								<path class="st116" d="M343.8,282.6l0.2,0.1C343.9,282.6,343.8,282.6,343.8,282.6z"/>
								<path class="st116" d="M343.4,282.6l-0.7-0.1l0.5,0.3L343.4,282.6c0.2,0.1,0.3,0,0.4,0l-0.5-0.1
									C343.3,282.5,343.4,282.5,343.4,282.6z"/>
								<path class="st116" d="M343.3,282.3c-0.1,0-0.1,0-0.2,0C343.2,282.3,343.3,282.3,343.3,282.3z"/>
								<path class="st116" d="M344.6,281.7c-0.2,0.1-0.6-0.1-0.9-0.1c-0.3,0.2,0.7,0.2,0.4,0.4c-0.5-0.3-0.4,0.1-0.8,0.2
									c0.6-0.1,1-0.2,1.2-0.4l-0.4,0C344.1,281.7,344.4,281.8,344.6,281.7z"/>
								<path class="st116" d="M343.5,280.5l0.6,0.2c-0.3,0-0.3,0.3-0.9,0.3c0.1,0.1,0.4,0.1,0.5,0.2c-0.3,0.1-0.6,0.1-0.1,0.2
									c0.4-0.5,0.6-0.3,0.8-0.7c0.1,0,0.1,0.1,0.1,0.1l0.3-0.3C344.1,280.5,344,280.2,343.5,280.5z"/>
								<path class="st116" d="M344,280.1c0,0.2,0.6,0.3,1,0.2l-0.5-0.4C344.5,280,344.6,280.2,344,280.1z"/>
								<path class="st116" d="M344,279.8c0.3-0.1,1-0.2,0.4-0.4C344.5,279.7,343.6,279.6,344,279.8z"/>
								<path class="st116" d="M344.6,278.3l-0.4,0.4c-0.8,0.1-0.3-0.2-0.6-0.3c-0.2,0.3,0.1,0.2,0.6,0.5c0,0.1,0.4,0.2,0.6,0.4
									C344.1,278.7,346.1,278.7,344.6,278.3z"/>
								<polygon class="st116" points="343.8,279.1 344.1,279.2 343.8,279 								"/>
								<path class="st116" d="M345.5,277.4c1-0.2-0.5-0.5-0.1-0.7c0.1,0,0.1,0,0.2,0.1l-0.1-0.2l0.2,0c-0.6,0-0.8-0.2-1.2-0.3
									c-0.6,0.2,0.7,0.1,0,0.3c-0.3-0.1-0.7-0.1-0.9-0.1c0.3,0.1,0.6,0.2,1,0.2c0.1,0.2-0.3,0.1-0.5,0.1c0.3,0.2,1.2,0.2,1,0.4
									c-0.5,0.2-0.8-0.1-0.6,0.2c0.9-0.1-0.1,0.3,0.4,0.4c-0.2,0.2-0.7,0.4-1.1,0.3c0.7,0,1.3,0.2,1.5,0.3l-0.6-0.4l0.8-0.1
									C345.3,277.7,345.3,277.5,345.5,277.4L345.5,277.4z"/>
								<path class="st116" d="M343.7,276.3c-0.1,0-0.1,0-0.2-0.1C343.5,276.3,343.6,276.3,343.7,276.3z"/>
								<polygon class="st116" points="343.7,278.1 343.5,278 343.2,278.1 								"/>
								<path class="st116" d="M343.1,276.1c0,0,0.3,0.1,0.3,0l-0.4-0.1L343.1,276.1z"/>
								<polygon class="st116" points="343.6,275.9 344.1,275.8 343.7,275.7 								"/>
								<path class="st116" d="M344.1,271c-0.3,0.2,0.3,0.1,0.7,0.2C344.9,270.9,344.3,271.2,344.1,271z"/>
								<path class="st116" d="M343.4,267.9c-0.4,0.2,0.2,0.3,0.2,0.5C343.9,268.3,343.7,268,343.4,267.9z"/>
								<path class="st116" d="M341.5,266.5c0.2,0,0.3,0.1,0.4,0l1,0.2C343.2,266.5,342,266.5,341.5,266.5z"/>
								<path class="st116" d="M341.4,265l0.4,0.3l0-0.1c0.4,0.1,0.6,0.1,0.9,0.2C342.5,265.2,342.1,265,341.4,265z"/>
								<path class="st116" d="M342.9,265.6C342.9,265.6,342.9,265.5,342.9,265.6C342.7,265.5,342.6,265.6,342.9,265.6z"/>
								<path class="st116" d="M342.9,265.4c0,0-0.1,0-0.1,0C342.8,265.4,342.8,265.5,342.9,265.4C343,265.5,343,265.5,342.9,265.4z
									"/>
								<path class="st116" d="M341.9,264.9l-0.1-0.4l-0.2,0.2C342.2,264.6,341.2,264.8,341.9,264.9z"/>
								<path class="st116" d="M342.5,262.7l0.6,0c0.1-0.3-1.2-0.6-0.2-0.8c-0.4,0.1-0.7-0.2-0.9,0.1
									C342.6,262.1,342.6,262.5,342.5,262.7z"/>
								<path class="st116" d="M343.4,261.7c0.2,0,0.3,0,0.5,0c0.1-0.1-0.2-0.2-0.5-0.2C344.2,261.6,342.9,261.6,343.4,261.7z"/>
								<path class="st116" d="M343.4,260.5c0,0.1,0.1,0.2,0.2,0.1c0-0.2-0.7-0.2-1.1-0.3C342.1,260.4,343.1,260.6,343.4,260.5z"/>
								<path class="st116" d="M348,258.8c-0.5,0-0.5,0.2-0.3,0.2C347.6,259,347.7,258.8,348,258.8z"/>
								<polygon class="st116" points="343.6,258.6 343.5,258.7 344.3,258.8 								"/>
								<polygon class="st116" points="343.2,257.2 342.7,257 342.8,257.3 								"/>
								<path class="st116" d="M343.4,256.9l0-0.2l-0.2,0.1C343,256.9,343.3,256.8,343.4,256.9z"/>
								<path class="st116" d="M343.3,256.2c0,0,0,0-0.1,0.1l0.3,0.2L343.3,256.2z"/>
								<path class="st116" d="M346.7,252.6c0.5,0.1,0.2-0.1,0.3-0.2C346.9,252.4,346.2,252.5,346.7,252.6z"/>
							</g>
						</g>
					</g>
				</g>
			</g>
			<g>
				<defs>
					<path id="SVGID_00000096028935665633248440000007657396721767131019_" d="M280.7,280.9c-12.3-0.6-24.9-0.9-35.6-0.2
						c-1.4-4-3.6-8.1-6.3-12.2c1.8-2.5,3.6-5,5.6-7.5c13.5-17.1,17.8-33.5,19-40.9C270,230.4,285.6,257.9,280.7,280.9z"/>
				</defs>
				<clipPath id="SVGID_00000124119716547871303180000006391801781055565229_">
					<use xlink:href="#SVGID_00000096028935665633248440000007657396721767131019_"  style="overflow:visible;"/>
				</clipPath>
				<g style="opacity:0.78;clip-path:url(#SVGID_00000124119716547871303180000006391801781055565229_);">
					<g>
						<g>
							<g>
								<path class="st116" d="M246.2,255.5c0.1,0.1,0.2,0.2,0.4,0.4C246.6,255.8,246.5,255.7,246.2,255.5z"/>
								<path class="st116" d="M251.7,247.7C251.6,247.7,251.7,247.7,251.7,247.7l-0.2-0.1L251.7,247.7z"/>
								<path class="st116" d="M251.5,247.6l-0.5-0.3C251.1,247.5,251.3,247.6,251.5,247.6z"/>
								<path class="st116" d="M249.4,258.4c0.1,0.2,0.2,0.3,0.5,0.6L249.4,258.4z"/>
								<path class="st116" d="M252.2,258.8c0.1,0,0.2,0.1,0.3,0.1C252.4,258.9,252.3,258.8,252.2,258.8z"/>
								<path class="st116" d="M240.3,261.8c-0.1-0.1-0.1-0.1-0.2-0.2C240.1,261.7,240.2,261.7,240.3,261.8z"/>
								<path class="st116" d="M240.8,262.9c-0.1,0-0.1,0.1-0.1,0.1l0.1,0.1C240.9,263.2,240.8,263,240.8,262.9z"/>
								<path class="st116" d="M241.6,263.2l0,0.2C241.6,263.3,241.6,263.2,241.6,263.2z"/>
								<path class="st116" d="M245,271.1l0.5,0.4C245.3,271.3,245.2,271.2,245,271.1z"/>
								<path class="st116" d="M239.7,261.2c0.1,0.1,0.2,0.2,0.4,0.4C240,261.5,240,261.4,239.7,261.2z"/>
								<path class="st116" d="M246,255.3c0.1,0.1,0.2,0.1,0.2,0.2C246.1,255.4,246,255.4,246,255.3z"/>
								<path class="st116" d="M249,258.9L249,258.9C249,258.8,249,258.8,249,258.9z"/>
								<path class="st116" d="M252.7,244.3c0-0.1,0-0.2-0.1-0.3C252.4,244.1,252.5,244.2,252.7,244.3z"/>
								<path class="st116" d="M242.8,260.6c1.7,1-0.1,0.3,1.4,1.3c-0.2-0.4-0.4-0.6,0.5-0.2c0.8,0.7-0.3,0.3,1,1.2l-0.4-0.6
									c0.8,0.3,1.7,1.2,1.7,1c-1.7-1.4,1.1-0.2,1-0.6l0.1,0.2l1.1,0.2c0,0,0.1,0,0.1,0.1c-0.1-0.1-0.2-0.1-0.3-0.2
									c1,0.4,1.8,0.6,1.8,0.2c-1-0.8,0.2-1.1-0.6-1.8c0.2,0.3,0.1,0.4-0.2,0.4l-1.2-0.8c0.2-0.3,1.2,0.7,0.6,0
									c-1.7-1-0.2,0.4-0.5,0.4c-0.4-0.3-0.6-0.6-0.7-0.8c-0.3,0.3-1.1,0.3,0.4,1.6c-0.4-0.1-1.1-0.6-1.2-0.8
									c0.8,0.9-1.1-0.4-0.3,0.4c-1.5-1.1-0.5-1.1-1.2-1.9c1.5,0.4,0.6-0.7,0.5-1.2c1.2,0.7,2,1.6,2.8,1.8c1,0.1-0.4-0.8-0.9-1.4
									c0.6,0,2,1.2,2.3,0.8l0.6,0.7c1.8,0.7-0.5-0.6-0.1-0.6c-0.5-0.2-0.9-0.4-1-0.2c-0.6-0.3-0.8-0.7-0.8-0.8l-0.1,0
									c-0.8-0.6-1.6-1.1-1-1.1c0.9,0.8,0.9,0.2,1.4,0.4l0.2,0.2c-0.2-0.4,0-0.5-0.1-0.8l0.2,0.2c-0.3-0.4-1.5-1.2-1.1-1.2
									c0.5,0.3,1.7,1.3,1.6,1c0.7,0.5,0.6,0.8,0.2,0.8c0.4-0.1,1.7,0.5,1.6,0.8c1,0.5-0.3-0.5,0.3-0.4c-0.3-0.1-0.6-0.4-0.9-0.5
									c1.3,0.7,0.4-0.5-0.5-1l0.6,0.7c-1-0.6-1.5-1.3-2.2-1.5c1.7,0.8-0.4-1.1,1-0.5l-0.9-0.4c0.8-0.3-0.8-1.7-1-2.5
									c0.4,0.5,2.2,1.4,1.4,1.4c0.6-0.3,1.9,0.8,2.9,1.1c0.9-0.1-1.6-1.1-2.1-1.5l0.2,0.5c-1.9-1.5,1-0.8,0-2.1
									c0.6,0.2,0.3,0.3,0.4,0.5c1.2,0.3-0.1-0.4-0.4-0.7c0.3-0.2,1-0.2,2.2,0.6c0.5-0.1-0.8-0.4-1.2-0.7l0.3,0.1l-1.4-1
									c0.6,0,1.5,0,2.8,0.5c0-0.7-3-1.7-3.3-2.3c0.8,0.1,1,0.5,1.5,0.8l0-0.4c1.5,0.8,0.6,0.8,2.3,1.6c-1.6-1.2-0.3-0.7-1.3-1.7
									l-0.2,0c-1.1-0.7-0.1-0.8-0.2-1.1c0.7,0.4,0.6,0.7,0.8,1c0.7,0,0.5-1-1-1.9c0.3,0,1.1-0.1,1.7,0.4c0.5-0.5-2.2-1.2-1.5-1.5
									l1.2,0.5c2,0.1-1.1-1.7,0.7-1.6l-1.5-0.6c0.7,0.1,1.1,0,1.7,0.2l0.4,0.5c1.3,0.2-1.1-0.7-0.1-0.7c-0.5-0.2-1.6-0.3-2.1-0.5
									c0.4,1.4-2.1,1.6-1.1,3.3c0.2,0,0.4,0.1,0.7,0.2c-0.4,0-0.1,0.4-0.9,0l-0.1-0.1c0.2,0.4-1.7-0.1-1.8,0.1
									c0.9,0.6-0.7,0.4,1.1,1l-1.2-0.3c0.6,0.3,1.4,0.7,1.7,1c-0.2,0.1-0.9-0.2-1.3-0.5c-1,0.4-1.2,1.4-1.1,2.4l-0.7-0.6
									c-0.5,0,1.1,1.3-0.9,0.2c0.6,0.8-1.1,0.7,1,1.8c-2.1-0.8-1.3,0.4-1.3,1c1.8,0.9,0.3,0.7,1,1.3c-1.4-0.7-1.2-1.2-2-1.7
									c1.8,1.7-2.3,0.5,1,2.7c-0.2,0-0.3-0.1-0.4-0.2c-0.1,0.1-0.7-0.1-0.9-0.1c0.6,0.4,1,0.4,1,0.7c-0.2,0.1-1.1-0.5-1.6-0.7
									c0.6,0.8,0.6,1.5,1.9,2.4c-0.4-0.1-1.3-0.5-1.5-0.7c0.7,1.2-0.5,0.4-0.2,1.4c0.1-0.2-1.4-1-0.6-0.9c-2-1-0.2,1.1-1.5,0.9
									l1.1,0.9c0,0.4-1.1-0.3-1.4-0.8c-1,0-0.4,0.7-0.7,1c-0.2-0.1-0.4-0.2-0.3-0.3l-0.4,0.5c0.3,0.2,0.7,0.8,1.5,1.3
									C242.5,260.9,242.1,260.5,242.8,260.6z"/>
								<path class="st116" d="M243.1,261.4l0.1,0.1l0,0C243.2,261.5,243.2,261.5,243.1,261.4z"/>
								<path class="st116" d="M251.4,260c-0.3-0.1-0.5-0.2-0.6-0.2C251,259.9,251.2,260,251.4,260z"/>
								<path class="st116" d="M242,267.6c1.8,1.2-0.1-0.5,0.6-0.4c0.1,0.4,1.2,1.1,1.7,1.4c-2.1-1.9,0.7,0,0.6-0.8
									c0.8,0.5,0.7,0.8,1.5,1.5c-0.4-0.7-0.4-1.3-1.6-2.3c0.3-0.5,1-0.5,1-0.9c0.3,0.7,1.3,1,2.2,2c-1.3-1.4-2.6-3.4-4.1-5.1
									c1.5,0.9,1.6,1,2.9,1.9c1.3,0.1-1.2-1.1-0.4-1.3l-0.4,0.1c-0.3-0.5-1.6-1.4-2.5-2.2l-0.2,0.7c-1-0.7-0.6-0.9-0.8-1.2
									c-1.1-1-1.1-0.3-2-0.9c0.7,0.6,0.3,0.7,0.6,1l-0.5-0.3c-0.7-0.1,0.5,0.9,0.3,1.2c-0.2-0.1-0.3-0.2-0.4-0.2
									c0.5,0.5,1.2,1.1,1.3,1.4l0-0.2c1.1,1.1,1.5,2.2,3.1,2.8l-0.8,0.3c-1.3-1-3.3-2.6-3.3-3.1l-0.6-0.4
									c-0.9-0.3,0.6,1.5,1.9,2.1c3.1,2.6-0.5,1,0.5,2.4c-0.9-0.6-1.1-1.1-1.6-1.7c0-0.2,0-0.3,0.8,0.2c-0.1-0.9-2.9-1.9-2.1-2.3
									c0.7,0,1.2,1.4,1.6,1l-2.3-2.1c-0.1,0.3,0.1,0.9,0.3,1.3c0.7,2.4-1.3,2.3-1.3,2.3c-1,2-2.2,4-3.4,5.9
									c-0.1,0.8-0.4,0.9,1.8,3.1c0.6,0.3,0.6-0.2,1.3,0.5c-0.8-0.8-1.1-1.4-0.8-1.6c0.9,0.7,0.2,0.6,0.5,0.7l0.1,0
									c0.4,0.4,0.7,0.7,0.6,0.8c1.5,0.7,1.8-0.1,0.4-1.7c1.1,0.4,1.2,1.3,1.7,1.9c1.4-0.4,1.8-1.2,2.7-2.1
									c-1.5-1.2-0.9-0.9-1.8-1.8l0.6,0.4c-0.3-0.2-1.3-1.1-1.7-1.2c1.6,0.4-1.5-2.2-1.9-3.1l0.8,0.6c0.1-0.4,0.1-0.5-0.1-1.1
									c1.9,0.6-0.1,0.6,2,2l-0.2-0.4c0.7,0.6,2,1.8,2.4,2.3c-0.9-1.5,1-0.3,0.5-1.6c0.9,0.7,1.2,1.7,1.2,2
									c0.2-0.1-0.2-0.9,0.7-0.3l-1.1-0.9c0.1-0.4,1,0.8,1.8,1.2C246.2,270.6,242.2,268.7,242,267.6z"/>
								<path class="st116" d="M248,260.1c-0.2,0-0.2,0.1-0.1,0.3C248,260.3,248,260.3,248,260.1z"/>
								<path class="st116" d="M249.2,263.1c0.2,0.1,0.3,0.2,0.4,0.3C249.5,263.3,249.4,263.2,249.2,263.1z"/>
								<path class="st116" d="M250.8,264.4c-0.6-0.3-0.5-0.4-1.1-0.9C249.9,263.8,249.8,264.1,250.8,264.4z"/>
								<path class="st116" d="M262.4,234.2c-0.4-0.1-0.8-0.6-1.1-0.4c0.2,0.2,0.3,0.4,0.5,0.6L262.4,234.2z"/>
								<path class="st116" d="M260.8,235l-0.6,0.3l1.8,0.5C262.1,235.4,260.8,235.4,260.8,235z"/>
								<path class="st116" d="M259.6,235.9l-0.4-0.2C259.4,235.9,259.5,235.9,259.6,235.9z"/>
								<path class="st116" d="M260.4,236.1l1.3,0.4l-0.9-0.7l-0.3,0.2c-0.5-0.1-0.7,0-0.9,0l0.9,0.3
									C260.5,236.2,260.3,236.1,260.4,236.1z"/>
								<path class="st116" d="M260.4,236.5c0.1,0,0.3,0,0.4,0C260.7,236.5,260.5,236.5,260.4,236.5z"/>
								<path class="st116" d="M257.7,236.9c0.5,0,1.2,0.3,1.8,0.5c0.6-0.3-1.4-0.7-0.7-0.9c1,0.7,0.8,0,1.6-0.1
									c-1.3-0.1-2.2-0.1-2.6,0.2l0.8,0.2C258.6,237.1,258.1,236.9,257.7,236.9z"/>
								<path class="st116" d="M259.4,239.3l-1.2-0.6c0.6,0.1,0.7-0.4,2-0.1c-0.1-0.2-0.7-0.4-1-0.6c0.7,0,1.2,0,0.3-0.3
									c-1,0.5-1.3,0.2-1.8,0.7c-0.3-0.1-0.2-0.1-0.1-0.2l-0.8,0.2C258.3,238.9,258.3,239.4,259.4,239.3z"/>
								<path class="st116" d="M258.3,239.6c0-0.3-1.1-0.8-2-0.8l0.8,0.9C257.1,239.5,257.1,239.2,258.3,239.6z"/>
								<path class="st116" d="M258.1,240c-0.7,0-2.1-0.2-0.9,0.3C257.1,240,259,240.6,258.1,240z"/>
								<path class="st116" d="M256.3,241.9l1-0.3c1.7,0.4,0.4,0.4,1.1,0.8c0.5-0.4-0.1-0.4-1-1.1c0.1-0.1-0.6-0.6-1-0.9
									C257.5,241.5,253.5,240.4,256.3,241.9z"/>
								<polygon class="st116" points="258.3,241.2 257.7,240.9 258.1,241.3 								"/>
								<path class="st116" d="M254.1,242.6c-2-0.3,0.9,1-0.1,1.1c-0.1-0.1-0.3-0.1-0.5-0.3l0.1,0.4l-0.4-0.1
									c1.1,0.4,1.5,0.9,2.3,1.4c1.3,0.1-1.3-0.7,0.1-0.5c0.5,0.3,1.2,0.6,1.6,0.8c-0.5-0.4-1.1-0.7-1.8-1c0-0.3,0.6,0,1,0.2
									c-0.6-0.5-2.2-1.1-1.7-1.3c1.1,0.1,1.5,0.7,1.3,0.1c-1.9-0.4,0.4-0.3-0.7-0.9c0.5-0.2,1.6,0,2.3,0.2
									c-1.4-0.4-2.5-1.1-2.9-1.5l1,0.9l-1.7-0.4C254.7,242.3,254.5,242.5,254.1,242.6L254.1,242.6z"/>
								<path class="st116" d="M257.2,245.4c0.1,0.1,0.2,0.1,0.3,0.2C257.5,245.6,257.4,245.5,257.2,245.4z"/>
								<polygon class="st116" points="258.1,242.8 258.4,243 258.9,243.1 								"/>
								<path class="st116" d="M258.3,246.1c0.1-0.1-0.5-0.3-0.5-0.2l0.7,0.4L258.3,246.1z"/>
								<polygon class="st116" points="257.1,246 256.1,245.8 256.8,246.2 								"/>
								<path class="st116" d="M253.2,252.6c0.7,0.1-0.4-0.5-1.2-0.9C251.6,251.9,252.9,252.2,253.2,252.6z"/>
								<path class="st116" d="M252.3,257.5c0.8,0.1-0.1-0.6,0.1-0.9C251.7,256.6,251.8,257,252.3,257.5z"/>
								<path class="st116" d="M254.7,261.3c-0.3-0.3-0.4-0.4-0.6-0.4l-1.7-1.3C251.6,259.7,253.9,260.9,254.7,261.3z"/>
								<path class="st116" d="M253.7,263.6l-0.5-0.8l-0.2,0.1c-0.7-0.5-1-0.8-1.5-1.3C251.8,262.1,252.4,262.8,253.7,263.6z"/>
								<path class="st116" d="M251.5,261.2c0,0.1,0,0.1,0,0.2C251.7,261.5,252,261.6,251.5,261.2z"/>
								<path class="st116" d="M251.4,261.5c0.1,0.1,0.1,0.1,0.2,0.2c-0.1-0.1-0.1-0.2-0.1-0.3C251.3,261.3,251.1,261.2,251.4,261.5
									z"/>
								<path class="st116" d="M252.7,263.3l-0.2,0.7l0.5,0C251.9,263.2,253.8,264.1,252.7,263.3z"/>
								<path class="st116" d="M249.9,265.6l-1.1-0.6c-0.5,0.2,1.5,2.2-0.3,1.2c0.8,0.3,1,1.1,1.6,0.9
									C249.2,266.3,249.5,265.7,249.9,265.6z"/>
								<path class="st116" d="M247.4,265.8c-0.3-0.3-0.5-0.3-0.9-0.5c-0.2,0,0.2,0.5,0.7,0.7C245.9,265,248.2,266.5,247.4,265.8z"
									/>
								<path class="st116" d="M246.5,267.5c0-0.1,0-0.3-0.3-0.4c-0.1,0.3,1.1,1.1,1.7,1.7C248.6,269,247.2,267.7,246.5,267.5z"/>
								<path class="st116" d="M237.2,264.2c0.9,0.6,0.9,0.3,0.7,0C238,264.4,237.6,264.4,237.2,264.2z"/>
								<polygon class="st116" points="244.5,269.7 244.8,269.7 243.5,268.6 								"/>
								<polygon class="st116" points="243.9,271.9 244.6,272.8 244.7,272.4 								"/>
								<path class="st116" d="M243.5,272.1l-0.2,0.3l0.4,0.2C244.1,272.7,243.4,272.2,243.5,272.1z"/>
								<path class="st116" d="M243,273.1c-0.1-0.1,0.1,0,0.3,0.1l-0.4-0.7L243,273.1z"/>
								<path class="st116" d="M234.1,273.2c-0.8-0.8-0.5-0.1-0.7-0.2C233.6,273.2,234.8,274,234.1,273.2z"/>
							</g>
						</g>
					</g>
				</g>
			</g>
		</g>
	</g>
</g>
</svg>
