<?xml version="1.0" encoding="utf-8"?>
<!-- Generator: Adobe Illustrator 26.0.3, SVG Export Plug-In . SVG Version: 6.00 Build 0)  -->
<svg version="1.1" xmlns="http://www.w3.org/2000/svg" xmlns:xlink="http://www.w3.org/1999/xlink" x="0px" y="0px"
	 viewBox="0 0 503.6 377.7" style="enable-background:new 0 0 503.6 377.7;" xml:space="preserve">
<style type="text/css">
	.st0{fill:#FFF0DD;}
	.st1{fill:#6B5C52;}
	.st2{fill:#B8BBBF;}
	.st3{fill:#F9E9CD;}
	.st4{fill:#FFE6BD;}
	.st5{fill:#F5F5F2;}
	.st6{fill:#637189;}
	.st7{fill:#9E9082;}
	.st8{fill:#938D89;}
	.st9{fill:#FFDBC0;}
	.st10{fill:#6E85BD;}
	.st11{fill:#E8D9D6;}
	.st12{fill:#A7BC79;}
	.st13{fill:#FF8080;}
	.st14{fill:#3D3533;}
	.st15{fill:#A1683D;}
	.st16{fill:#CCE0FF;}
	.st17{fill:#383531;}
	.st18{fill:#757060;}
	.st19{fill:#D29F7E;}
	.st20{opacity:0.88;clip-path:url(#SVGID_00000183247878665622530030000003538705354518529186_);}
	.st21{fill:#322015;}
	.st22{fill:#1B1C1E;}
	.st23{fill:none;stroke:#1B1C1E;stroke-width:1.2604;stroke-linecap:round;stroke-linejoin:round;stroke-miterlimit:10;}
	.st24{opacity:0.84;clip-path:url(#SVGID_00000011022658443769776740000011152650059247086231_);}
	.st25{clip-path:url(#SVGID_00000145045208002660507870000003783223812937886132_);}
	.st26{fill:none;stroke:#1B1C1E;stroke-width:1.2604;stroke-linecap:round;stroke-linejoin:round;}
	.st27{fill:#D1493B;}
	.st28{fill:#FFAE1F;}
	.st29{opacity:0.88;clip-path:url(#SVGID_00000093159502964172086980000012590143636213705892_);}
	.st30{opacity:0.7;clip-path:url(#SVGID_00000020375545595507314060000004229298660265020037_);}
	.st31{fill:#2C2C2D;}
	.st32{opacity:0.87;clip-path:url(#SVGID_00000124147207500685640840000008987557782663730304_);}
	.st33{fill:#080809;}
	.st34{opacity:0.7;clip-path:url(#SVGID_00000103259660078633209020000000018631396985886093_);}
	.st35{fill:#FBAF5E;}
	.st36{opacity:0.62;clip-path:url(#SVGID_00000137835441277272711900000013232679213065473208_);}
	.st37{fill:#3E240C;}
	.st38{fill:#BC763C;}
	.st39{opacity:0.62;clip-path:url(#SVGID_00000104707940215074249750000012649479649095580606_);}
	.st40{opacity:0.62;clip-path:url(#SVGID_00000043452085912687789210000015354247242265765276_);}
	.st41{fill:#967258;}
	.st42{opacity:0.53;clip-path:url(#SVGID_00000053513954984605241910000004478329136899512725_);}
	.st43{opacity:0.73;clip-path:url(#SVGID_00000047046308115843749430000002326744762162036414_);}
	.st44{fill:none;stroke:#1B1C1E;stroke-width:1.1311;stroke-linecap:round;stroke-linejoin:round;stroke-miterlimit:10;}
	.st45{fill:#3D291C;}
	.st46{fill:#3D291C;stroke:#967258;stroke-width:1.2604;stroke-linecap:round;stroke-linejoin:round;stroke-miterlimit:10;}
	.st47{fill:#D6D4C8;}
	.st48{fill:#1B1C1E;stroke:#967258;stroke-width:1.2604;stroke-linecap:round;stroke-linejoin:round;stroke-miterlimit:10;}
	.st49{opacity:0.52;clip-path:url(#SVGID_00000181057181854553443910000010849338357156465829_);}
	.st50{fill:#B37D4F;}
	.st51{opacity:0.88;clip-path:url(#SVGID_00000142856088418857576430000011915580311330002837_);}
	.st52{fill:#343434;}
	.st53{fill:#BC6464;}
	.st54{opacity:0.88;clip-path:url(#SVGID_00000178176375606353912560000015468538298977689762_);}
	.st55{fill:#1B1C1E;stroke:#1B1C1E;stroke-width:1.1485;stroke-linecap:round;stroke-linejoin:round;stroke-miterlimit:10;}
	.st56{fill:#8C7265;}
	.st57{opacity:0.88;clip-path:url(#SVGID_00000130637668925279981790000007202460106621480098_);}
	.st58{fill:#1B1C1E;stroke:#1B1C1E;stroke-width:1.3664;stroke-linecap:round;stroke-linejoin:round;stroke-miterlimit:10;}
	.st59{opacity:0.88;clip-path:url(#SVGID_00000094590113852737158350000015474937550928192439_);}
	.st60{fill:none;stroke:#1B1C1E;stroke-width:1.3664;stroke-linecap:round;stroke-linejoin:round;stroke-miterlimit:10;}
	.st61{opacity:0.88;clip-path:url(#SVGID_00000108266756001855023890000004139638195080751267_);}
	.st62{opacity:0.88;clip-path:url(#SVGID_00000064343807986860543870000001955285011373377191_);}
	.st63{fill:#5F6C72;}
	.st64{fill:#1B1C1E;stroke:#1B1C1E;stroke-width:1.5329;stroke-linecap:round;stroke-linejoin:round;stroke-miterlimit:10;}
	.st65{opacity:0.88;clip-path:url(#SVGID_00000161625981775293190860000015536383613727647622_);}
	.st66{clip-path:url(#SVGID_00000124130584417220359020000012180014832439315637_);}
	.st67{opacity:0.58;clip-path:url(#SVGID_00000177460837269760674990000015698063641680398236_);}
	.st68{opacity:0.58;clip-path:url(#SVGID_00000128443041941979460060000005980033208408610440_);}
	.st69{fill:#1B1C1E;stroke:#1B1C1E;stroke-width:1.818;stroke-linecap:round;stroke-linejoin:round;stroke-miterlimit:10;}
	.st70{fill:#FFFFFF;}
	.st71{fill:#CC813E;}
	.st72{opacity:0.58;clip-path:url(#SVGID_00000100347093330069757730000008485587173872828326_);}
	.st73{fill:#AA8C7D;}
	.st74{opacity:0.88;clip-path:url(#SVGID_00000102535539509941874830000014174253927322796682_);}
	.st75{opacity:0.88;clip-path:url(#SVGID_00000017489881775863450250000006894911597358056370_);}
	.st76{fill:#1B1C1E;stroke:#1B1C1E;stroke-width:1.2604;stroke-linecap:round;stroke-linejoin:round;stroke-miterlimit:10;}
	.st77{opacity:0.88;clip-path:url(#SVGID_00000172427774786160993910000006633528315008634035_);}
	.st78{opacity:0.88;clip-path:url(#SVGID_00000003089813907087715740000016781315223265246355_);}
	.st79{opacity:0.88;clip-path:url(#SVGID_00000137854417507329555820000010530114608974155677_);}
	.st80{fill:none;stroke:#1B1C1E;stroke-miterlimit:10;}
	.st81{fill:#B8BDC4;}
	.st82{fill:#B4D3CD;}
	.st83{opacity:0.88;clip-path:url(#SVGID_00000173842046805753802760000009053497722820309906_);}
	.st84{opacity:0.88;clip-path:url(#SVGID_00000093862757265990970460000012574466501081020092_);}
	.st85{fill:#EFBE9D;}
	.st86{opacity:0.88;clip-path:url(#SVGID_00000121997512462322032800000017412833356392414385_);}
	.st87{fill:#443730;}
	.st88{opacity:0.88;clip-path:url(#SVGID_00000173136149800920979540000010057648149540249783_);}
	.st89{opacity:0.88;clip-path:url(#SVGID_00000057131512428202949790000004755523202296219522_);}
	.st90{fill:#E2AF8D;}
	.st91{fill:none;stroke:#1B1C1E;stroke-linecap:round;stroke-linejoin:round;stroke-miterlimit:10;}
	.st92{fill:#1B1C1E;stroke:#1B1C1E;stroke-miterlimit:10;}
	.st93{fill:#FCEA9F;}
	.st94{fill:#F6EBEF;}
	.st95{fill:#D4DADD;}
	.st96{opacity:0.61;clip-path:url(#SVGID_00000143611071432655738930000012825446864156667265_);}
	.st97{fill:#353737;}
	.st98{fill:#B3B9BC;}
	.st99{opacity:0.61;clip-path:url(#SVGID_00000018233418929703441550000008991112728340476292_);}
	.st100{opacity:0.61;clip-path:url(#SVGID_00000094583718717415405450000012923181181954011552_);}
	.st101{fill:#B3B9BC;stroke:#1B1C1E;stroke-miterlimit:10;}
	.st102{fill:#CCE2CF;stroke:#1B1C1E;stroke-miterlimit:10;}
	.st103{fill:#EAD6DE;}
	.st104{fill:#1B1C1E;stroke:#1B1C1E;stroke-width:1.0185;stroke-miterlimit:10;}
	.st105{fill:none;stroke:#1B1C1E;stroke-width:1.0185;stroke-miterlimit:10;}
	.st106{fill:#FBAF5E;stroke:#1B1C1E;stroke-miterlimit:10;}
	.st107{fill:#513F3B;}
	.st108{opacity:0.88;clip-path:url(#SVGID_00000031173399257273689060000010609874729517893046_);}
	.st109{opacity:0.88;clip-path:url(#SVGID_00000006688490609001875540000008426618398488281520_);}
	.st110{fill:#8B2403;}
	.st111{fill:#EBDAD2;}
	.st112{fill:#A84E39;}
	.st113{fill:#751A01;}
	.st114{fill:#EBDAD2;stroke:#1B1C1E;stroke-miterlimit:10;}
	.st115{opacity:0.78;clip-path:url(#SVGID_00000051346280580406860960000002273441279507619726_);}
	.st116{fill:#290B01;}
	.st117{opacity:0.78;clip-path:url(#SVGID_00000160152436249626813810000000961084873218794933_);}
	.st118{opacity:0.78;clip-path:url(#SVGID_00000161604716698881449570000015315626911019036063_);}
	.st119{opacity:0.78;clip-path:url(#SVGID_00000073705801223898262610000000895256040350580371_);}
	.st120{fill:#030203;}
	.st121{fill:#86889A;}
	.st122{fill:#0B060A;}
	.st123{fill:#736E72;}
	.st124{fill:#9E9AA0;}
	.st125{fill:#18172A;}
	.st126{fill:#3B4D84;}
	.st127{fill:#FFA3AC;}
	.st128{fill:none;stroke:#0B080B;stroke-width:1.2005;stroke-miterlimit:10;}
	.st129{fill:#E7E6E8;}
	.st130{fill:#0B080B;}
	.st131{fill:none;stroke:#1B1C1E;stroke-width:1.2005;stroke-linecap:round;stroke-linejoin:round;stroke-miterlimit:10;}
	.st132{opacity:0.78;clip-path:url(#SVGID_00000081646927410221721550000017397199663600458908_);}
	.st133{opacity:0.78;clip-path:url(#SVGID_00000096037854213275289530000004463423483408564919_);}
	.st134{fill:#89745E;}
	.st135{opacity:0.78;clip-path:url(#SVGID_00000021814867939171673210000016503910085209166003_);}
	.st136{fill:#060606;}
	.st137{fill:#4D483E;}
	.st138{fill:#FF8A00;}
	.st139{fill:#50483F;}
	.st140{fill:#131313;}
	.st141{fill:#E8DBCD;}
	.st142{opacity:0.78;clip-path:url(#SVGID_00000103971561815063687670000017366813902116298407_);}
	.st143{opacity:0.78;clip-path:url(#SVGID_00000052096782887722382770000002256429354300725916_);}
	.st144{fill:#191212;}
	.st145{fill:#6C5353;}
	.st146{opacity:0.78;clip-path:url(#SVGID_00000036230162738526433630000011600757269819587467_);}
	.st147{fill:#B3B3B3;}
	.st148{fill:#FF9F2C;}
	.st149{fill:none;stroke:#343434;stroke-miterlimit:10;}
	.st150{fill:#21262A;}
	.st151{fill:#563D3D;}
	.st152{opacity:0.78;clip-path:url(#SVGID_00000013170867556017708990000011878059911681051538_);}
	.st153{fill:#181716;}
	.st154{fill:#706153;}
	.st155{fill:none;stroke:#1B1C1E;stroke-width:0.8477;stroke-miterlimit:10;}
	.st156{fill:#FCBD30;}
	.st157{fill:#E8D9CD;}
	.st158{fill:#534E4A;}
	.st159{opacity:0.78;clip-path:url(#SVGID_00000160178752912647310150000007598876333590424991_);}
	.st160{fill:#7DA050;}
	.st161{opacity:0.78;clip-path:url(#SVGID_00000057130828640562843140000013245614590253367727_);}
	.st162{opacity:0.78;clip-path:url(#SVGID_00000076585170813799643500000008721312523658708626_);}
	.st163{opacity:0.78;clip-path:url(#SVGID_00000040542657169748582800000016251715132206392967_);}
	.st164{fill:#EFEECE;}
	.st165{opacity:0.78;clip-path:url(#SVGID_00000043459205758932815420000003772106293902333057_);}
	.st166{fill:#93543B;}
	.st167{fill:#FF510C;}
	.st168{opacity:0.78;clip-path:url(#SVGID_00000117647999618636588830000005611351684223027098_);}
	.st169{fill:#4B1804;}
	.st170{fill:#000A0E;}
	.st171{opacity:0.78;clip-path:url(#SVGID_00000102541775874087089470000001825939873341814961_);}
	.st172{opacity:0.78;clip-path:url(#SVGID_00000049205439617312402760000001783135597392355734_);}
	.st173{fill:#F9C8A7;}
	.st174{fill:#1B1C1E;stroke:#1B1C1E;stroke-width:1.3738;stroke-miterlimit:10;}
	.st175{fill:none;stroke:#1B1C1E;stroke-width:1.3;stroke-miterlimit:10;}
	.st176{fill:#FFCB6E;}
	.st177{fill:#CECECE;}
	.st178{fill:none;stroke:#1B1C1E;stroke-width:1.3037;stroke-miterlimit:10;}
	.st179{fill:#FFFFFF;stroke:#1B1C1E;stroke-width:1.3;stroke-miterlimit:10;}
	.st180{opacity:0.78;clip-path:url(#SVGID_00000045601722217442270790000018136690490860848259_);}
	.st181{fill:none;stroke:#1B1C1E;stroke-width:1.3738;stroke-miterlimit:10;}
	.st182{opacity:0.45;clip-path:url(#SVGID_00000043447097553416292720000001535135586615397048_);}
	.st183{opacity:0.45;clip-path:url(#SVGID_00000160190943585760600250000012292648707216930994_);}
	.st184{opacity:0.45;clip-path:url(#SVGID_00000052783611529544167980000008306356181595304886_);}
	.st185{opacity:0.45;clip-path:url(#SVGID_00000013162125978327177650000005810504976818837391_);}
	.st186{fill:none;stroke:#1B1C1E;stroke-width:1.3738;stroke-linecap:round;stroke-linejoin:round;stroke-miterlimit:10;}
	.st187{fill:#FFB192;}
	.st188{fill:#EB8226;}
	.st189{fill:#F7EDE1;}
	.st190{opacity:0.78;clip-path:url(#SVGID_00000122682234729528985430000000741625032487671222_);}
	.st191{opacity:0.78;clip-path:url(#SVGID_00000057137530630521688190000008467285657230825904_);}
	.st192{opacity:0.5;clip-path:url(#SVGID_00000052794944666903274580000016219042711064200370_);}
	.st193{opacity:0.5;clip-path:url(#SVGID_00000026842285176627850170000006469571991021772709_);}
	.st194{fill:none;stroke:#06002C;stroke-width:1.3038;stroke-miterlimit:10;}
	.st195{fill:#F7A9B4;}
	.st196{fill:#06002C;}
	.st197{opacity:0.5;clip-path:url(#SVGID_00000133524115340471288600000000226906722342279852_);}
	.st198{fill:none;stroke:#06002C;stroke-width:1.3038;stroke-linecap:round;stroke-linejoin:round;stroke-miterlimit:10;}
	.st199{fill:#9BBEDC;}
	.st200{opacity:0.88;clip-path:url(#SVGID_00000158027752517188244270000015865168010267312806_);}
	.st201{opacity:0.88;clip-path:url(#SVGID_00000107574859816574714680000017386332167524624049_);}
</style>
<g id="Background">
	<rect x="-3.2" y="-2.4" class="st1" width="510" height="382.5"/>
</g>
<g id="Illustration">
	<g>
		<path class="st85" d="M278.2,218.4c0,0-9.2,37.8-10.4,43.9c0,0,0.2,27,2.8,38.9c0,0,12.6-1,11.3,9.1c0,0-17,0-17.7,0
			s-7.9-13-10-71.6"/>
		<g>
			<defs>
				<path id="SVGID_00000057136628129687687160000014938325815892419225_" d="M270.5,301.3c-2.6-11.9-2.8-38.9-2.8-38.9
					c1.3-6.1,10.4-43.9,10.4-43.9l-24,20.4c2.1,58.6,9.4,71.6,10,71.6c0.7,0,17.7,0,17.7,0C283.2,300.2,270.5,301.3,270.5,301.3z"/>
			</defs>
			<clipPath id="SVGID_00000016759963758223348140000015505158296722214548_">
				<use xlink:href="#SVGID_00000057136628129687687160000014938325815892419225_"  style="overflow:visible;"/>
			</clipPath>
			<g style="opacity:0.88;clip-path:url(#SVGID_00000016759963758223348140000015505158296722214548_);">
				<g>
					<g>
						<g>
							<path class="st87" d="M268.5,231.5c0,0.1,0.1,0.2,0.1,0.2C268.6,231.7,268.6,231.7,268.5,231.5z"/>
							<path class="st87" d="M273.6,227.7C273.6,227.7,273.6,227.7,273.6,227.7L273.6,227.7L273.6,227.7z"/>
							<path class="st87" d="M273.5,227.7l-0.2-0.2C273.4,227.5,273.4,227.6,273.5,227.7z"/>
							<path class="st87" d="M269.3,233.5c0,0.1,0,0.2,0.1,0.4L269.3,233.5z"/>
							<path class="st87" d="M270.6,234.1c0,0,0.1,0.1,0.1,0.1C270.7,234.1,270.7,234.1,270.6,234.1z"/>
							<path class="st87" d="M263.5,234.1c0,0,0-0.1,0-0.1C263.4,234,263.5,234,263.5,234.1z"/>
							<path class="st87" d="M263.4,234.7C263.3,234.7,263.3,234.7,263.4,234.7l-0.1,0.1C263.4,234.9,263.4,234.8,263.4,234.7z"/>
							<path class="st87" d="M263.7,235L263.7,235C263.7,235,263.7,235,263.7,235z"/>
							<path class="st87" d="M262.8,239.6l0.1,0.3C262.9,239.7,262.8,239.6,262.8,239.6z"/>
							<path class="st87" d="M263.4,233.7c0,0.1,0,0.2,0.1,0.3C263.4,233.9,263.5,233.8,263.4,233.7z"/>
							<path class="st87" d="M268.4,231.4c0,0.1,0.1,0.1,0.1,0.1C268.5,231.5,268.5,231.4,268.4,231.4z"/>
							<path class="st87" d="M269,233.7L269,233.7C269,233.7,269,233.7,269,233.7z"/>
							<path class="st87" d="M275,225.8c0-0.1,0-0.1,0-0.2C274.9,225.7,274.9,225.7,275,225.8z"/>
							<path class="st87" d="M265.2,233.8c0.6,0.7-0.2,0.2,0.3,0.9c0-0.2,0-0.4,0.3,0c0.2,0.5-0.2,0.1,0.1,0.8l0-0.3
								c0.3,0.3,0.5,0.9,0.6,0.7c-0.4-1,0.7,0.1,0.7-0.2l0,0.1l0.5,0.3c0,0,0,0,0,0c0-0.1-0.1-0.1-0.1-0.2c0.4,0.4,0.8,0.6,0.9,0.3
								c-0.3-0.5,0.5-0.6,0.3-1.1c0,0.2,0,0.2-0.2,0.2l-0.4-0.6c0.2-0.1,0.4,0.5,0.3,0.1c-0.6-0.8-0.2,0.2-0.4,0.2
								c-0.1-0.2-0.1-0.4-0.1-0.5c-0.3,0.1-0.7,0-0.3,0.9c-0.2-0.1-0.4-0.5-0.4-0.6c0.2,0.6-0.4-0.4-0.3,0.2
								c-0.5-0.8,0.1-0.6-0.1-1.2c0.6,0.4,0.5-0.3,0.7-0.6c0.4,0.5,0.6,1.1,0.9,1.4c0.5,0.2,0-0.5-0.1-0.9c0.3,0.1,0.7,0.9,1,0.7
								l0.1,0.5c0.7,0.6-0.1-0.4,0.2-0.3c-0.2-0.2-0.3-0.4-0.5-0.2c-0.2-0.3-0.2-0.5-0.2-0.5l0,0c-0.2-0.4-0.5-0.8-0.2-0.8
								c0.2,0.5,0.4,0.2,0.6,0.4l0,0.1c0-0.2,0.2-0.3,0.2-0.4l0.1,0.1c-0.1-0.3-0.5-0.8-0.2-0.8c0.2,0.2,0.5,0.9,0.6,0.7
								c0.2,0.3,0.1,0.5-0.1,0.5c0.2,0,0.7,0.5,0.6,0.7c0.4,0.4,0-0.3,0.3-0.2c-0.1-0.1-0.2-0.3-0.3-0.4c0.5,0.6,0.4-0.2,0-0.6
								l0.1,0.4c-0.4-0.4-0.4-0.9-0.7-1.1c0.7,0.6,0.1-0.7,0.7-0.2l-0.4-0.3c0.5,0,0.1-1.1,0.2-1.5c0.1,0.3,0.7,1.1,0.3,1
								c0.4-0.1,0.7,0.7,1.2,1c0.5,0.1-0.5-0.8-0.6-1.1l0,0.3c-0.6-1,0.8-0.3,0.6-1.2c0.2,0.2,0.1,0.2,0.1,0.3
								c0.5,0.3,0.1-0.2,0-0.5c0.2-0.1,0.6,0,1,0.6c0.3,0-0.3-0.3-0.4-0.5l0.1,0.1l-0.4-0.7c0.3,0.1,0.7,0.2,1.3,0.6
								c0.2-0.4-1.1-1.3-1-1.7c0.4,0.1,0.4,0.4,0.6,0.6l0.1-0.3c0.5,0.6,0.1,0.5,0.7,1.2c-0.5-0.8,0-0.4-0.2-1.1l-0.1,0
								c-0.4-0.5,0.2-0.5,0.2-0.7c0.2,0.3,0.1,0.5,0.1,0.7c0.4,0.1,0.5-0.5,0-1.2c0.2,0,0.6,0.1,0.7,0.4c0.4-0.2-0.8-0.9-0.4-1
								l0.5,0.4c0.9,0.3-0.1-1.1,0.8-0.9l-0.6-0.5c0.3,0.2,0.5,0.1,0.8,0.3l0.1,0.3c0.6,0.3-0.4-0.5,0.1-0.4
								c-0.2-0.1-0.7-0.4-0.9-0.5c-0.2,0.9-1.5,0.8-1.5,1.9c0.1,0,0.2,0.1,0.3,0.2c-0.2-0.1-0.2,0.2-0.4-0.1l0-0.1
								c0,0.3-0.8-0.2-0.9-0.2c0.3,0.4-0.5,0.2,0.3,0.7l-0.5-0.3c0.2,0.3,0.5,0.6,0.6,0.7c-0.2,0.1-0.4-0.2-0.5-0.4
								c-0.6,0.1-1,0.7-1.2,1.2l-0.2-0.4c-0.2-0.1,0.2,0.9-0.5,0c0.1,0.5-0.7,0.3,0,1.1c-0.9-0.7-0.8,0.1-1,0.4
								c0.7,0.7-0.1,0.4,0.1,0.8c-0.5-0.5-0.2-0.8-0.6-1.2c0.4,1.1-1.3,0-0.3,1.6c-0.1,0-0.1-0.1-0.2-0.2c-0.1,0-0.3-0.2-0.5-0.2
								c0.2,0.3,0.4,0.3,0.3,0.5c-0.2,0-0.4-0.4-0.6-0.6c0.1,0.5-0.2,0.9,0.3,1.6c-0.2-0.1-0.5-0.4-0.5-0.6c0,0.7-0.4,0.1-0.5,0.7
								c0.1-0.1-0.4-0.7-0.1-0.6c-0.8-0.8-0.4,0.5-1,0.3l0.3,0.7c-0.1,0.2-0.5-0.3-0.5-0.6c-0.5-0.1-0.4,0.3-0.7,0.4
								c-0.1-0.1-0.1-0.2-0.1-0.2l-0.3,0.2c0.1,0.2,0.1,0.5,0.4,0.9C264.9,233.9,264.8,233.7,265.2,233.8z"/>
							<path class="st87" d="M265.1,234.3L265.1,234.3L265.1,234.3C265.1,234.3,265.1,234.3,265.1,234.3z"/>
							<path class="st87" d="M269.9,234.7c-0.1-0.1-0.2-0.2-0.3-0.2C269.7,234.6,269.8,234.6,269.9,234.7z"/>
							<path class="st87" d="M262.4,237.3c0.5,0.9,0.1-0.3,0.4-0.1c-0.1,0.2,0.2,0.7,0.4,1c-0.5-1.3,0.4,0.1,0.6-0.3
								c0.2,0.4,0.1,0.5,0.3,1c0-0.4,0.2-0.7-0.1-1.4c0.3-0.2,0.7-0.1,0.8-0.3c-0.1,0.4,0.3,0.7,0.5,1.4c-0.2-0.9-0.2-2.1-0.5-3.3
								c0.5,0.7,0.5,0.8,0.9,1.4c0.7,0.2-0.3-0.7,0.2-0.7l-0.2,0c0-0.3-0.4-1-0.6-1.5l-0.3,0.4c-0.3-0.5,0-0.6,0-0.7
								c-0.3-0.7-0.5-0.3-0.7-0.8c0.2,0.4,0,0.4,0,0.6l-0.2-0.3c-0.3-0.2,0,0.6-0.2,0.7c-0.1-0.1-0.1-0.1-0.1-0.2
								c0.1,0.3,0.3,0.7,0.2,0.9l0.1-0.1c0.2,0.7,0.1,1.3,0.7,1.9l-0.5,0c-0.3-0.7-0.9-1.9-0.7-2.1l-0.1-0.3
								c-0.4-0.3-0.2,0.8,0.3,1.4c0.8,1.8-0.6,0.4-0.5,1.3c-0.3-0.5-0.2-0.7-0.3-1.1c0.1-0.1,0.1-0.2,0.3,0.2
								c0.3-0.5-0.9-1.4-0.4-1.5c0.3,0.1,0.2,0.9,0.5,0.8l-0.5-1.4c-0.2,0.1-0.2,0.5-0.3,0.7c-0.2,0.7-0.6,0.9-0.9,1
								c-0.3,0.1-0.6,0-0.6,0c-1.2,0.8-2.5,1.5-3.8,2.1c-0.4,0.3-0.5,0.3-0.3,1.8c0.2,0.3,0.4,0,0.5,0.6c-0.1-0.5,0-0.9,0.2-0.9
								c0.2,0.5-0.1,0.3,0,0.4l0.1,0c0.1,0.3,0.1,0.5,0,0.5c0.5,0.7,1,0.3,0.9-0.7c0.4,0.4,0.1,0.8,0.1,1.3c0.9,0.1,1.5-0.2,2.3-0.5
								c-0.4-0.9-0.2-0.6-0.3-1.2l0.2,0.3c-0.1-0.1-0.3-0.8-0.5-0.9c0.7,0.5,0-1.4,0.1-1.9l0.2,0.5c0.2-0.2,0.3-0.2,0.4-0.6
								c0.8,0.7-0.3,0.3,0.3,1.3l0-0.2c0.1,0.4,0.4,1.2,0.4,1.6c0.1-0.9,0.7,0,0.8-0.7c0.2,0.5,0,1.1-0.1,1.2c0.2,0,0.2-0.5,0.5-0.1
								l-0.3-0.6c0.2-0.2,0.2,0.6,0.5,0.9C263.6,239.5,262.1,237.9,262.4,237.3z"/>
							<path class="st87" d="M268,234.3c-0.1,0-0.1,0.1-0.1,0.1C268,234.4,268,234.4,268,234.3z"/>
							<path class="st87" d="M267.7,236.1c0,0.1,0.1,0.2,0.1,0.2C267.8,236.2,267.8,236.2,267.7,236.1z"/>
							<path class="st87" d="M268.2,236.9c-0.2-0.2-0.1-0.3-0.3-0.6C267.9,236.5,267.7,236.6,268.2,236.9z"/>
							<path class="st87" d="M282.4,221.3c-0.1-0.1-0.2-0.4-0.4-0.4l0.1,0.3L282.4,221.3z"/>
							<path class="st87" d="M281.5,221.4l-0.4,0.1l0.7,0.6C281.9,221.8,281.3,221.6,281.5,221.4z"/>
							<path class="st87" d="M280.7,221.7l-0.2-0.2C280.6,221.6,280.6,221.7,280.7,221.7z"/>
							<path class="st87" d="M281,221.9l0.5,0.4l-0.2-0.5L281,221.9c-0.1-0.2-0.2-0.2-0.3-0.2l0.3,0.4
								C281,222,280.9,221.9,281,221.9z"/>
							<path class="st87" d="M280.9,222.2c0.1,0,0.1,0.1,0.2,0.1C281,222.2,280.9,222.2,280.9,222.2z"/>
							<path class="st87" d="M279.5,222c0.2,0.1,0.5,0.4,0.7,0.6c0.3-0.1-0.5-0.6-0.1-0.6c0.3,0.6,0.4,0.1,0.8,0.2
								c-0.6-0.3-1-0.4-1.3-0.3l0.3,0.2C279.9,222.2,279.7,222,279.5,222z"/>
							<path class="st87" d="M279.7,223.6l-0.4-0.5c0.3,0.1,0.4-0.1,1,0.3c0-0.1-0.2-0.3-0.3-0.5c0.3,0.1,0.6,0.2,0.2-0.1
								c-0.6,0.2-0.7,0-1,0.2c-0.1-0.1-0.1-0.1,0-0.1l-0.4,0C279.3,223.3,279.1,223.6,279.7,223.6z"/>
							<path class="st87" d="M279,223.7c0.1-0.2-0.3-0.6-0.7-0.8l0.2,0.6C278.5,223.4,278.6,223.3,279,223.7z"/>
							<path class="st87" d="M278.9,223.9c-0.3-0.1-1-0.4-0.5,0.1C278.4,223.7,279.1,224.4,278.9,223.9z"/>
							<path class="st87" d="M277.5,224.8l0.6-0.1c0.7,0.4,0.1,0.3,0.3,0.6c0.3-0.2,0.1-0.3-0.2-0.8c0.1-0.1-0.2-0.4-0.3-0.7
								C278.1,224.7,276.5,223.5,277.5,224.8z"/>
							<polygon class="st87" points="278.7,224.6 278.4,224.4 278.5,224.7 							"/>
							<path class="st87" d="M276.2,225c-0.9-0.4,0.1,0.7-0.4,0.6c0-0.1-0.1-0.1-0.2-0.2l-0.1,0.2l-0.2-0.1c0.5,0.4,0.5,0.7,0.8,1.1
								c0.6,0.2-0.5-0.6,0.2-0.3c0.2,0.2,0.5,0.5,0.6,0.7c-0.1-0.3-0.4-0.5-0.6-0.8c0-0.2,0.3,0.1,0.5,0.2c-0.2-0.4-0.8-0.9-0.5-1
								c0.5,0.2,0.6,0.6,0.6,0.2c-0.8-0.5,0.3-0.1-0.1-0.6c0.3-0.1,0.8,0.2,1.1,0.4c-0.6-0.4-1-1-1-1.2l0.3,0.7l-0.7-0.4
								C276.6,224.9,276.4,224.9,276.2,225L276.2,225z"/>
							<path class="st87" d="M277,227c0,0.1,0.1,0.1,0.1,0.2C277.1,227.1,277.1,227,277,227z"/>
							<polygon class="st87" points="278.1,225.5 278.2,225.7 278.4,225.8 							"/>
							<path class="st87" d="M277.3,227.5c0.1,0-0.2-0.2-0.2-0.2l0.3,0.3L277.3,227.5z"/>
							<polygon class="st87" points="276.8,227.3 276.3,227.1 276.6,227.4 							"/>
							<path class="st87" d="M273,230.7c0.3,0.1-0.1-0.3-0.4-0.6C272.3,230.2,273,230.5,273,230.7z"/>
							<path class="st87" d="M271.1,233.4c0.4,0.2,0.2-0.4,0.3-0.5C271.1,232.8,271,233.1,271.1,233.4z"/>
							<path class="st87" d="M271.2,235.8c-0.1-0.2-0.1-0.3-0.2-0.3l-0.5-0.9C270.1,234.5,270.9,235.4,271.2,235.8z"/>
							<path class="st87" d="M270,236.9l0-0.5l-0.1,0.1c-0.2-0.4-0.3-0.6-0.4-0.9C269.4,235.9,269.5,236.3,270,236.9z"/>
							<path class="st87" d="M269.5,235.3c0,0,0,0.1,0,0.1C269.6,235.5,269.7,235.6,269.5,235.3z"/>
							<path class="st87" d="M269.4,235.5c0,0,0,0.1,0,0.1C269.5,235.5,269.5,235.5,269.4,235.5
								C269.4,235.3,269.4,235.3,269.4,235.5z"/>
							<path class="st87" d="M269.5,236.6l-0.3,0.4l0.3,0.1C269.2,236.5,269.9,237.2,269.5,236.6z"/>
							<path class="st87" d="M267.3,237.5l-0.4-0.5c-0.3,0,0.1,1.4-0.6,0.6c0.3,0.3,0.2,0.7,0.5,0.7
								C266.7,237.7,267,237.4,267.3,237.5z"/>
							<path class="st87" d="M265.9,237.2c-0.1-0.2-0.2-0.3-0.3-0.4c-0.1,0-0.1,0.3,0.1,0.5C265.4,236.6,266.1,237.7,265.9,237.2z"
								/>
							<path class="st87" d="M264.8,237.9c0.1-0.1,0.1-0.2-0.1-0.2c-0.2,0.2,0.2,0.7,0.3,1.2C265.5,239.1,265.1,238.2,264.8,237.9z"
								/>
							<path class="st87" d="M261.1,234.8c0.3,0.5,0.4,0.3,0.3,0.1C261.4,235,261.2,234.9,261.1,234.8z"/>
							<polygon class="st87" points="263,238.7 263.1,238.8 262.8,238.1 							"/>
							<polygon class="st87" points="261.9,239.8 262,240.3 262.2,240.1 							"/>
							<path class="st87" d="M261.6,239.8l-0.2,0.1l0.2,0.2C261.7,240.2,261.5,239.8,261.6,239.8z"/>
							<path class="st87" d="M261,240.2c0-0.1,0.1,0,0.1,0.1l0.1-0.4L261,240.2z"/>
							<path class="st87" d="M256.3,238.3c-0.1-0.5-0.2-0.2-0.2-0.3C256.1,238.2,256.4,238.8,256.3,238.3z"/>
						</g>
					</g>
				</g>
			</g>
		</g>
		<path class="st22" d="M135.9,310.1c0,0-8.5,2.6,14.7,3.4c23.2,0.8,145.6,1.2,158.2,0c12.6-1.2,37.1-0.5,4.6-3.4s-66-1.2-98.8-2.9
			C181.8,305.4,140.8,307.1,135.9,310.1z"/>
		<path class="st85" d="M172.4,310.4c0,0,62,0,64.8,0c2.7,0,1.4-9.1-5.5-9.9c-6.9-0.8-23.6-1-23.6-1l-5.5-17.7
			C202.6,281.9,168.7,298.9,172.4,310.4z"/>
		<g>
			<defs>
				<path id="SVGID_00000042719416266110297750000011172457524768340401_" d="M172.4,310.4c0,0,62,0,64.8,0c2.7,0,1.4-9.1-5.5-9.9
					c-6.9-0.8-23.6-1-23.6-1l-5.5-17.7C202.6,281.9,168.7,298.9,172.4,310.4z"/>
			</defs>
			<clipPath id="SVGID_00000031902200977983888020000017387801820339274126_">
				<use xlink:href="#SVGID_00000042719416266110297750000011172457524768340401_"  style="overflow:visible;"/>
			</clipPath>
			<g style="opacity:0.88;clip-path:url(#SVGID_00000031902200977983888020000017387801820339274126_);">
				<g>
					<g>
						<g>
							<path class="st87" d="M193.2,304.5c0,0.1,0,0.2,0.1,0.4C193.4,304.9,193.4,304.8,193.2,304.5z"/>
							<path class="st87" d="M200.7,300.8C200.7,300.8,200.7,300.8,200.7,300.8l-0.1-0.1L200.7,300.8z"/>
							<path class="st87" d="M200.7,300.7l-0.2-0.4C200.5,300.5,200.6,300.6,200.7,300.7z"/>
							<path class="st87" d="M194,307.5c0,0.1,0,0.3,0.1,0.6L194,307.5z"/>
							<path class="st87" d="M195.7,308.7c0,0.1,0.1,0.1,0.2,0.2C195.8,308.8,195.7,308.7,195.7,308.7z"/>
							<path class="st87" d="M186,306.8c0-0.1,0-0.1,0-0.2C186,306.6,186,306.7,186,306.8z"/>
							<path class="st87" d="M185.8,307.7c-0.1,0-0.1,0-0.1,0l0,0.1C185.8,307.9,185.8,307.7,185.8,307.7z"/>
							<path class="st87" d="M186.3,308.1L186.3,308.1C186.2,308.2,186.2,308.2,186.3,308.1z"/>
							<path class="st87" d="M184.5,314.4l0.1,0.4C184.6,314.7,184.6,314.5,184.5,314.4z"/>
							<path class="st87" d="M185.9,306.2c0,0.1,0,0.2,0.1,0.4C186,306.5,186.1,306.4,185.9,306.2z"/>
							<path class="st87" d="M193.2,304.3c0,0.1,0.1,0.1,0.1,0.2C193.2,304.5,193.2,304.4,193.2,304.3z"/>
							<path class="st87" d="M193.5,307.7L193.5,307.7C193.5,307.6,193.5,307.6,193.5,307.7z"/>
							<path class="st87" d="M203.1,298.7c0-0.1,0.1-0.2,0.1-0.3C202.9,298.5,203,298.6,203.1,298.7z"/>
							<path class="st87" d="M188.4,306.8c0.6,1.2-0.2,0.2,0.3,1.3c0-0.3,0-0.6,0.4,0c0.2,0.7-0.3,0.1,0.1,1.1l0-0.5
								c0.4,0.4,0.6,1.3,0.6,1.2c-0.5-1.5,0.9,0.2,1-0.1l0,0.2l0.6,0.5c0,0,0,0,0,0.1c0-0.1-0.1-0.2-0.1-0.3c0.5,0.6,0.9,1,1.1,0.7
								c-0.3-0.8,0.7-0.7,0.5-1.4c0,0.2-0.1,0.3-0.3,0.2l-0.4-0.9c0.3-0.1,0.5,0.9,0.4,0.2c-0.7-1.2-0.3,0.2-0.6,0.1
								c-0.1-0.3-0.1-0.6-0.1-0.8c-0.4,0.1-0.9-0.2-0.5,1.2c-0.2-0.2-0.4-0.8-0.4-0.9c0.1,0.9-0.5-0.6-0.4,0.1
								c-0.5-1.2,0.2-0.9,0.1-1.6c0.8,0.8,0.7-0.3,1-0.7c0.5,0.9,0.6,1.7,1,2.1c0.6,0.4,0.1-0.6,0-1.2c0.4,0.2,0.8,1.4,1.2,1.3
								l0.1,0.7c0.9,1.1,0-0.6,0.3-0.4c-0.2-0.3-0.4-0.6-0.6-0.5c-0.3-0.4-0.2-0.7-0.2-0.8l-0.1,0c-0.2-0.6-0.5-1.3-0.1-1.1
								c0.2,0.8,0.5,0.4,0.7,0.7l0,0.2c0-0.3,0.3-0.3,0.3-0.5l0.1,0.2c0-0.4-0.5-1.3-0.2-1.2c0.2,0.4,0.5,1.4,0.6,1.2
								c0.3,0.5,0.1,0.7-0.3,0.6c0.3,0.1,0.9,0.9,0.7,1.1c0.4,0.6,0.1-0.4,0.4-0.2c-0.1-0.2-0.2-0.4-0.4-0.6
								c0.5,0.9,0.5-0.2,0.2-0.8l0.1,0.6c-0.4-0.7-0.4-1.4-0.7-1.7c0.8,1.1,0.3-0.9,1,0l-0.4-0.5c0.7,0.1,0.3-1.5,0.6-2
								c0.1,0.4,0.8,1.7,0.2,1.4c0.6,0,0.9,1.2,1.4,1.7c0.6,0.2-0.5-1.3-0.6-1.7l-0.1,0.4c-0.6-1.6,1.1-0.2,1-1.4
								c0.3,0.3,0,0.3,0.1,0.5c0.7,0.6,0.1-0.3,0.1-0.6c0.3,0,0.8,0.1,1.2,1.1c0.4,0.1-0.4-0.5-0.4-0.9l0.2,0.2l-0.4-1.2
								c0.4,0.2,1,0.5,1.6,1.2c0.4-0.5-1.2-2.1-1.1-2.6c0.5,0.3,0.4,0.7,0.6,1l0.2-0.3c0.6,1,0,0.7,0.8,1.8
								c-0.5-1.3,0.1-0.5-0.1-1.5l-0.1-0.1c-0.4-0.9,0.3-0.6,0.4-0.9c0.3,0.5,0.1,0.7,0.1,1c0.5,0.2,0.8-0.6,0.2-1.7
								c0.2,0.1,0.8,0.3,0.9,0.8c0.6-0.2-0.9-1.5-0.3-1.5l0.6,0.7c1.2,0.7,0.1-1.5,1.2-0.9l-0.7-0.9c0.4,0.3,0.7,0.3,1,0.6l0.1,0.5
								c0.8,0.6-0.4-0.9,0.2-0.5c-0.2-0.3-0.9-0.7-1.1-1c-0.4,1.2-2.2,0.5-2.3,2c0.1,0.1,0.2,0.2,0.4,0.4c-0.3-0.2-0.2,0.2-0.6-0.3
								l0-0.1c-0.1,0.4-1.1-0.6-1.2-0.5c0.4,0.7-0.6,0.1,0.2,1.1l-0.6-0.6c0.2,0.4,0.6,0.9,0.7,1.2c-0.2,0-0.5-0.4-0.6-0.8
								c-0.9,0-1.5,0.6-1.9,1.3l-0.2-0.6c-0.3-0.2,0.1,1.3-0.7-0.1c0,0.7-1,0.1-0.2,1.5c-1-1.2-1.1-0.2-1.4,0.3
								c0.8,1.2-0.2,0.5,0.1,1.2c-0.6-0.9-0.2-1.2-0.6-1.8c0.4,1.7-1.8-0.3-0.6,2.2c-0.1-0.1-0.2-0.2-0.2-0.3
								c-0.1,0-0.4-0.3-0.6-0.4c0.2,0.5,0.5,0.5,0.4,0.8c-0.2,0-0.5-0.7-0.7-1c0,0.7-0.4,1.2,0.1,2.2c-0.2-0.2-0.6-0.7-0.6-1
								c-0.1,1-0.6,0.1-0.8,0.9c0.2-0.1-0.4-1.1,0-0.8c-0.9-1.3-0.7,0.7-1.4,0.1l0.3,1c-0.2,0.3-0.6-0.6-0.6-1
								c-0.7-0.4-0.6,0.3-1,0.5c-0.1-0.1-0.1-0.3-0.1-0.3l-0.5,0.2c0.1,0.3,0.1,0.8,0.4,1.4C188,306.9,187.9,306.6,188.4,306.8z"/>
							<path class="st87" d="M188.2,307.5l0,0.1l0,0C188.2,307.6,188.2,307.5,188.2,307.5z"/>
							<path class="st87" d="M194.5,309.2c-0.2-0.2-0.3-0.3-0.3-0.3C194.3,309.1,194.4,309.2,194.5,309.2z"/>
							<path class="st87" d="M184.3,311.1c0.6,1.4,0.2-0.4,0.6-0.1c-0.1,0.3,0.3,1.1,0.4,1.5c-0.5-2,0.5,0.2,0.8-0.3
								c0.3,0.6,0.1,0.8,0.3,1.5c0.1-0.6,0.4-1,0-2c0.4-0.2,0.9,0,1.1-0.3c-0.1,0.6,0.4,1,0.5,2c-0.2-1.3-0.1-3.1-0.2-4.7
								c0.6,1.1,0.6,1.2,1,2.2c0.9,0.5-0.3-1.1,0.3-1l-0.3-0.1c0.1-0.4-0.4-1.5-0.6-2.3l-0.5,0.4c-0.3-0.8,0.1-0.8,0.1-1.1
								c-0.3-1-0.6-0.5-0.9-1.3c0.2,0.6-0.1,0.5-0.1,0.9l-0.2-0.4c-0.4-0.3-0.1,0.8-0.4,0.9c-0.1-0.1-0.1-0.2-0.1-0.3
								c0.1,0.5,0.3,1.1,0.2,1.3l0.1-0.1c0.2,1.1,0,1.9,0.8,2.9l-0.7-0.1c-0.4-1.1-1-2.8-0.7-3.1l-0.2-0.5c-0.5-0.5-0.3,1.1,0.2,2
								c0.8,2.7-0.9,0.5-0.9,1.7c-0.3-0.7-0.2-1.1-0.3-1.6c0.1-0.1,0.2-0.2,0.4,0.4c0.4-0.6-1-2.2-0.3-2.2c0.5,0.2,0.1,1.3,0.6,1.2
								l-0.5-2.1c-0.3,0.2-0.4,0.6-0.5,0.9c-0.4,0.9-0.9,1.2-1.3,1.2c-0.4,0-0.7-0.2-0.7-0.2c-1.7,0.9-3.5,1.7-5.3,2.5
								c-0.5,0.5-0.7,0.4-0.5,2.5c0.2,0.4,0.6,0.1,0.6,0.8c-0.1-0.8,0-1.3,0.3-1.3c0.2,0.7-0.2,0.4-0.1,0.6l0.1,0
								c0.1,0.4,0.1,0.7,0,0.7c0.7,1,1.3,0.6,1.2-0.9c0.5,0.7,0.1,1.2,0.1,1.8c1.2,0.3,1.9-0.1,3-0.4c-0.4-1.3-0.2-0.9-0.3-1.8
								l0.2,0.4c-0.1-0.2-0.3-1.2-0.6-1.4c0.9,0.8,0.1-1.9,0.3-2.6l0.2,0.7c0.3-0.2,0.4-0.3,0.5-0.7c1,1.1-0.4,0.4,0.3,1.9l0.1-0.3
								c0.1,0.7,0.4,1.8,0.4,2.3c0.1-1.2,0.9,0.2,1.2-0.9c0.2,0.8-0.1,1.5-0.2,1.7c0.2,0,0.4-0.7,0.6,0l-0.3-0.9
								c0.3-0.2,0.3,0.9,0.6,1.4C185.6,314.5,183.8,311.9,184.3,311.1z"/>
							<path class="st87" d="M192.2,308.2c-0.1,0-0.2,0.1-0.2,0.2C192,308.4,192.1,308.3,192.2,308.2z"/>
							<path class="st87" d="M191.5,310.6c0,0.1,0.1,0.2,0.1,0.3C191.6,310.9,191.6,310.8,191.5,310.6z"/>
							<path class="st87" d="M191.9,311.9c-0.2-0.4-0.1-0.4-0.3-1C191.6,311.3,191.4,311.4,191.9,311.9z"/>
							<path class="st87" d="M213.9,294.8c-0.2-0.2-0.3-0.6-0.5-0.7l0,0.5L213.9,294.8z"/>
							<path class="st87" d="M212.6,294.7l-0.5,0l0.9,1C213.2,295.4,212.4,294.9,212.6,294.7z"/>
							<path class="st87" d="M211.5,294.9l-0.2-0.3C211.4,294.7,211.4,294.8,211.5,294.9z"/>
							<path class="st87" d="M211.9,295.2l0.7,0.7l-0.3-0.8l-0.3,0c-0.3-0.2-0.4-0.2-0.6-0.3l0.4,0.6
								C211.9,295.4,211.8,295.2,211.9,295.2z"/>
							<path class="st87" d="M211.7,295.5c0.1,0.1,0.2,0.1,0.2,0.2C211.9,295.6,211.8,295.6,211.7,295.5z"/>
							<path class="st87" d="M209.8,294.9c0.3,0.2,0.6,0.7,0.9,0.9c0.5,0-0.6-1,0-0.9c0.3,0.8,0.5,0.3,1,0.5
								c-0.7-0.5-1.3-0.8-1.7-0.8l0.4,0.4C210.3,295.4,210.1,295,209.8,294.9z"/>
							<path class="st87" d="M209.8,297.2l-0.5-0.8c0.3,0.3,0.6,0,1.3,0.6c0-0.2-0.3-0.5-0.4-0.8c0.4,0.2,0.7,0.4,0.3-0.1
								c-0.9,0-0.9-0.2-1.5-0.1c-0.1-0.1-0.1-0.2,0-0.2l-0.6-0.1C209.3,296.6,209,296.9,209.8,297.2z"/>
							<path class="st87" d="M208.9,297.1c0.2-0.2-0.4-0.9-0.9-1.3l0.1,0.9C208.3,296.6,208.3,296.4,208.9,297.1z"/>
							<path class="st87" d="M208.6,297.3c-0.4-0.3-1.3-0.9-0.7-0.1C208,297,208.9,298,208.6,297.3z"/>
							<path class="st87" d="M206.6,298.1l0.8,0.1c0.9,0.8,0.1,0.5,0.3,1c0.5-0.1,0.1-0.3-0.1-1.1c0.1,0-0.1-0.6-0.3-1
								C207.5,298.2,205.5,296.1,206.6,298.1z"/>
							<polygon class="st87" points="208.2,298.2 207.9,297.8 208,298.3 							"/>
							<path class="st87" d="M204.8,298c-1.2-0.9,0.1,1-0.6,0.8c0-0.1-0.1-0.2-0.2-0.3l-0.1,0.3l-0.2-0.2c0.6,0.6,0.5,1.1,0.9,1.7
								c0.8,0.5-0.6-0.9,0.3-0.3c0.2,0.3,0.5,0.8,0.7,1.1c-0.1-0.5-0.4-0.9-0.7-1.3c0.1-0.2,0.4,0.2,0.6,0.4c-0.1-0.5-1-1.5-0.5-1.5
								c0.7,0.4,0.7,1,0.8,0.5c-1-0.9,0.4-0.1,0-0.8c0.4,0,1.1,0.5,1.4,0.9c-0.7-0.8-1.1-1.6-1.2-2l0.3,1l-1-0.8
								C205.3,297.9,205.1,298,204.8,298L204.8,298z"/>
							<path class="st87" d="M205.5,300.9c0,0.1,0.1,0.2,0.1,0.2C205.6,301.1,205.6,301,205.5,300.9z"/>
							<polygon class="st87" points="207.3,299.3 207.4,299.6 207.7,299.8 							"/>
							<path class="st87" d="M205.9,301.7c0.1,0-0.2-0.3-0.2-0.3l0.3,0.5L205.9,301.7z"/>
							<polygon class="st87" points="205.2,301.3 204.6,300.9 204.9,301.4 							"/>
							<path class="st87" d="M199.4,304.7c0.4,0.2-0.1-0.5-0.4-1C198.6,303.8,199.4,304.4,199.4,304.7z"/>
							<path class="st87" d="M196.3,307.8c0.5,0.3,0.3-0.5,0.5-0.6C196.4,307,196.3,307.4,196.3,307.8z"/>
							<path class="st87" d="M196.1,311.2c-0.1-0.3-0.1-0.4-0.2-0.5l-0.5-1.4C194.8,309.1,195.8,310.7,196.1,311.2z"/>
							<path class="st87" d="M194.4,312.4l0-0.7l-0.2,0c-0.2-0.6-0.3-0.9-0.4-1.3C193.8,310.8,193.8,311.5,194.4,312.4z"/>
							<path class="st87" d="M194,310.1c0,0,0,0.1-0.1,0.1C194,310.3,194.2,310.5,194,310.1z"/>
							<path class="st87" d="M193.8,310.3c0,0.1,0,0.1,0,0.2c0-0.1,0-0.2,0.1-0.3C193.8,310.1,193.7,310,193.8,310.3z"/>
							<path class="st87" d="M193.8,311.9l-0.5,0.4l0.3,0.2C193.3,311.6,194.2,312.8,193.8,311.9z"/>
							<path class="st87" d="M190.7,312.5l-0.4-0.8c-0.4,0,0,1.9-0.8,0.7c0.4,0.4,0.1,1.1,0.6,1.1
								C189.9,312.7,190.4,312.4,190.7,312.5z"/>
							<path class="st87" d="M188.9,311.8c-0.1-0.3-0.2-0.4-0.4-0.6c-0.2,0-0.1,0.4,0.1,0.7C188.3,310.8,189.1,312.6,188.9,311.8z"
								/>
							<path class="st87" d="M187.4,312.6c0.1-0.1,0.2-0.2,0-0.4c-0.3,0.2,0.2,1.1,0.3,1.7C188.1,314.3,187.8,312.9,187.4,312.6z"/>
							<path class="st87" d="M182.7,307.3c0.3,0.7,0.5,0.5,0.4,0.2C183.1,307.7,182.9,307.5,182.7,307.3z"/>
							<polygon class="st87" points="184.9,313.3 185.1,313.5 184.8,312.3 							"/>
							<polygon class="st87" points="183.4,314.6 183.4,315.4 183.7,315.1 							"/>
							<path class="st87" d="M182.9,314.5l-0.3,0.2l0.2,0.2C183.1,315.1,182.9,314.6,182.9,314.5z"/>
							<path class="st87" d="M182.1,315c0-0.1,0.1,0,0.1,0.1l0.1-0.6L182.1,315z"/>
							<path class="st87" d="M176,311.7c-0.1-0.8-0.2-0.2-0.3-0.4C175.7,311.5,176,312.5,176,311.7z"/>
						</g>
					</g>
				</g>
			</g>
		</g>
		<path class="st80" d="M233.8,310.4c0,0,1.6-3.6-0.6-5.2"/>
		<path class="st80" d="M228.7,310.4c0,0,0.8-3.1-0.6-4.6"/>
		<path class="st85" d="M270.3,161.7c0,0-11.2,10-18,12.3c-6.9,2.4-31.5,2.4-41.4,2.4c-9.9,0-30-3.2-40.5,20.4s-27.5,63.2-26.9,88.6
			s27.1,30.8,51.1,19.2c23.1-11.1,27.2-30.9,28.9-38.1c0,0,58.1-44.6,69.2-55.5c11.1-10.9,9.4-22.7,6.4-33.6s-3.2-15-2.1-21.1
			c1.1-6.1-24.2-3.1-24.2-3.1L270.3,161.7z"/>
		<g>
			<defs>
				<path id="SVGID_00000026877718228272878730000014758552101828624804_" d="M297,156.2c1.1-6.1-24.2-3.1-24.2-3.1l-2.6,8.7
					c0,0-0.7,0.6-1.8,1.6c8.8,6.2,19.6,11.5,30.5,13.1C296.2,166.2,296,162.1,297,156.2z"/>
			</defs>
			<clipPath id="SVGID_00000100369412548513960340000005983154794529794484_">
				<use xlink:href="#SVGID_00000026877718228272878730000014758552101828624804_"  style="overflow:visible;"/>
			</clipPath>
			<g style="opacity:0.88;clip-path:url(#SVGID_00000100369412548513960340000005983154794529794484_);">
				<g>
					<g>
						<g>
							<path class="st87" d="M288.9,162.1c0,0,0.1,0.1,0.2,0.1C289,162.2,288.9,162.2,288.9,162.1z"/>
							<path class="st87" d="M283.8,164.7C283.8,164.7,283.8,164.7,283.8,164.7L283.8,164.7L283.8,164.7z"/>
							<path class="st87" d="M283.8,164.7l-0.1-0.2C283.8,164.6,283.8,164.6,283.8,164.7z"/>
							<path class="st87" d="M290.2,162.9c0.1,0,0.2,0,0.3,0.1L290.2,162.9z"/>
							<path class="st87" d="M290.2,164c0,0,0,0.1,0,0.1C290.2,164,290.2,164,290.2,164z"/>
							<path class="st87" d="M292.9,157.6L292.9,157.6C292.8,157.6,292.9,157.6,292.9,157.6z"/>
							<path class="st87" d="M293.6,157.7c0,0,0.1,0,0.1,0l0,0C293.7,157.7,293.6,157.7,293.6,157.7z"/>
							<path class="st87" d="M293.5,158l0.1,0C293.6,158,293.5,158,293.5,158z"/>
							<path class="st87" d="M296.8,159.9l0,0.2C296.8,160,296.8,160,296.8,159.9z"/>
							<path class="st87" d="M292.6,157.5c0.1,0,0.1,0.1,0.2,0.1C292.7,157.5,292.6,157.6,292.6,157.5z"/>
							<path class="st87" d="M288.8,162.1C288.8,162.1,288.8,162.1,288.8,162.1C288.8,162.1,288.8,162.1,288.8,162.1z"/>
							<path class="st87" d="M290.4,162.6L290.4,162.6C290.4,162.6,290.4,162.6,290.4,162.6z"/>
							<path class="st87" d="M281.6,164.7c-0.1,0-0.1,0-0.2-0.1C281.6,164.6,281.6,164.6,281.6,164.7z"/>
							<path class="st87" d="M291.5,159.4c0.4,0.5,0.2-0.2,0.6,0.3c-0.2,0-0.3,0-0.1,0.3c0.3,0.2,0.1-0.2,0.6,0.1l-0.3,0
								c0.1,0.3,0.5,0.4,0.4,0.5c-0.6-0.4-0.1,0.6-0.3,0.6l0.1,0l0.1,0.4l0,0c0,0-0.1,0-0.1-0.1c0.2,0.3,0.2,0.6,0,0.7
								c-0.4-0.2-0.6,0.4-0.9,0.2c0.1,0,0.2,0,0.2-0.2l-0.4-0.3c-0.1,0.2,0.3,0.3,0,0.3c-0.4-0.5,0.2-0.2,0.2-0.4
								c-0.1-0.1-0.3-0.1-0.4-0.1c0.2-0.2,0.2-0.6,0.8-0.2c0-0.2-0.3-0.3-0.4-0.3c0.4,0.1-0.2-0.4,0.2-0.2c-0.5-0.4-0.5,0.1-0.9,0
								c0.2,0.5-0.4,0.4-0.6,0.6c0.3,0.3,0.7,0.5,0.8,0.7c0,0.4-0.4,0-0.7-0.1c0,0.3,0.5,0.6,0.3,0.8l0.3,0.1
								c0.3,0.6-0.3-0.1-0.3,0.1c-0.1-0.2-0.2-0.3,0-0.4c-0.1-0.2-0.3-0.2-0.4-0.2l0,0c-0.3-0.2-0.5-0.4-0.5-0.2
								c0.3,0.2,0.1,0.3,0.1,0.5l0.1,0c-0.2,0-0.3,0.1-0.4,0.1l0.1,0.1c-0.2-0.1-0.5-0.4-0.6-0.2c0.1,0.1,0.6,0.4,0.4,0.5
								c0.2,0.2,0.4,0.1,0.4-0.1c-0.1,0.2,0.1,0.6,0.3,0.5c0.2,0.3-0.3,0-0.2,0.2c0-0.1-0.2-0.2-0.2-0.3c0.3,0.4-0.3,0.3-0.5,0
								l0.3,0.1c-0.2-0.3-0.6-0.4-0.6-0.6c0.3,0.6-0.6,0-0.4,0.5l-0.1-0.3c-0.2,0.4-0.9-0.1-1.3,0c0.2,0.1,0.5,0.7,0.6,0.4
								c-0.3,0.3,0.2,0.6,0.3,1c-0.1,0.4-0.4-0.5-0.6-0.6l0.2,0c-0.6-0.6-0.6,0.5-1.2,0.2c0.1,0.2,0.1,0.1,0.2,0.1
								c0,0.4-0.2,0-0.3-0.1c-0.1,0.1-0.3,0.4,0,0.8c-0.2,0.2-0.1-0.3-0.2-0.4l0,0.1l-0.4-0.5c-0.1,0.2-0.2,0.5-0.2,1
								c-0.4,0-0.5-1-0.8-1.1c-0.1,0.3,0.1,0.4,0.2,0.5l-0.3,0c0.2,0.5,0.4,0.2,0.5,0.8c-0.4-0.6-0.4-0.1-0.7-0.5l0-0.1
								c-0.2-0.4-0.4,0-0.6-0.1c0.1,0.3,0.3,0.2,0.5,0.3c-0.1,0.3-0.7,0.1-0.9-0.4c-0.1,0.1-0.3,0.4-0.1,0.6
								c-0.4,0.1-0.2-0.8-0.6-0.6l0,0.4c-0.4,0.6-0.7-0.5-1.1,0l0-0.5c-0.1,0.2-0.2,0.3-0.3,0.5l0.2,0.2c-0.2,0.4-0.2-0.4-0.4-0.1
								c0-0.2,0.2-0.5,0.2-0.7c0.7,0.3,1.4-0.4,2.2,0c0,0.1,0,0.1,0,0.2c0.1-0.1,0.2,0,0.2-0.3l0,0c0.2,0.1,0.3-0.6,0.4-0.6
								c0.1,0.3,0.3-0.2,0.4,0.4l0-0.4c0.1,0.2,0.1,0.5,0.2,0.6c0.1-0.1,0.1-0.3-0.1-0.4c0.4-0.3,0.9-0.5,1.5-0.5l-0.2-0.2
								c0-0.2,0.6,0.3,0.2-0.3c0.3,0.2,0.5-0.4,0.9,0.2c-0.2-0.7,0.3-0.6,0.7-0.7c0.3,0.6,0.3,0,0.6,0.2c-0.2-0.4-0.5-0.3-0.7-0.6
								c0.7,0.5,0.4-1,1.3,0c0-0.1,0-0.1-0.1-0.1c0.1,0,0-0.3,0-0.4c0.2,0.2,0.1,0.3,0.3,0.3c0.1-0.1-0.2-0.4-0.3-0.5
								c0.4,0.1,0.8-0.1,1.1,0.3c0-0.2-0.2-0.4-0.3-0.5c0.6,0,0.2-0.3,0.7-0.4c-0.1,0.1-0.4-0.3-0.4,0c-0.4-0.6,0.5-0.3,0.5-0.8
								l0.4,0.2c0.2-0.1-0.1-0.4-0.4-0.4c0-0.4,0.3-0.4,0.5-0.6c0,0-0.1-0.1-0.1-0.1l0.2-0.3c0.1,0,0.4,0.1,0.6,0.3
								C291.7,159.2,291.5,159.1,291.5,159.4z"/>
							<polygon class="st87" points="291.9,159.3 291.9,159.4 291.9,159.4 							"/>
							<path class="st87" d="M290.9,163.4c0-0.1-0.1-0.2-0.1-0.2C290.9,163.2,290.9,163.3,290.9,163.4z"/>
							<path class="st87" d="M296.1,158.4c0,0.7-0.3-0.1-0.4,0.1c0.2,0.1,0.2,0.5,0.2,0.7c-0.3-0.9-0.2,0.2-0.6,0.1
								c0,0.3,0.2,0.3,0.3,0.7c-0.2-0.2-0.5-0.3-0.7-0.8c-0.3,0.1-0.5,0.3-0.7,0.3c0.3,0.1,0.2,0.5,0.5,0.9
								c-0.4-0.5-1.1-1.1-1.9-1.3c0.3,0.5,0.4,0.5,0.7,0.9c0,0.4-0.3-0.1-0.5,0c0,0-0.1,0-0.1,0.1l0-0.2l0,0c0,0,0,0,0,0
								c-0.3,0-0.7-0.3-1-0.5l0.2-0.1c0.1-0.1,0.2-0.1,0.3-0.2c-0.2-0.2-0.4-0.1-0.5,0c-0.1,0-0.1,0.1-0.2,0.1
								c-0.3-0.1-0.2-0.3-0.3-0.4c0,0,0,0,0,0c0,0,0-0.1,0-0.1c0-0.1,0-0.1-0.1-0.1c0.4,0.1,0.5-0.2,0.8-0.2L292,158
								c0.2-0.5,0.7-0.1,0.9-0.3c0-0.1,0-0.1,0-0.1c0.2,0.2,0.4,0.4,0.6,0.4l-0.1,0c0.4,0.4,0.9,0.5,0.8,1.2
								c0.1-0.1,0.3-0.2,0.4-0.3c-0.2-0.5-0.5-1.3-0.9-1.3l-0.1-0.2c0.2-0.4,0.8,0.2,0.8,0.7c0.3,0.6,0.5,0.6,0.6,0.5
								c0.2-0.1,0.4-0.3,0.6-0.1c0-0.4-0.2-0.5-0.4-0.7c-0.1,0-0.2,0-0.2,0.3c-0.5-0.1-0.1-1.2-0.7-0.9c-0.3,0.2,0.5,0.5,0.1,0.6
								c-0.2-0.3-0.4-0.6-0.6-0.9c0.3,0,0.6,0.1,0.8,0.1c0.7,0.2,1.1,0.2,1.5,0.1c0.3-0.1,0.5-0.2,0.5-0.2c1.6,0.1,3.2,0.3,4.7,0.6
								c0.5,0.2,0.6,0.2,0.7,1.2c-0.1,0.2-0.4,0.1-0.3,0.4c0-0.4-0.2-0.6-0.4-0.6c-0.1,0.4,0.2,0.2,0.1,0.3l0,0c0,0.2,0,0.3,0.1,0.3
								c-0.3,0.5-0.8,0.3-0.9-0.4c-0.3,0.3,0.1,0.6,0.2,0.9c-0.8,0.2-1.3,0.1-2.1,0.1c0-0.6-0.1-0.4-0.1-0.9l-0.1,0.2
								c0-0.1-0.1-0.6,0.1-0.7c-0.5,0.5-0.5-0.9-0.8-1.2l0,0.3c-0.3-0.1-0.3-0.1-0.6-0.2c-0.4,0.6,0.4,0.1,0.3,0.9l-0.1-0.1
								c0.1,0.3,0.2,0.9,0.3,1.1c-0.4-0.5-0.5,0.2-1-0.2c0.1,0.4,0.4,0.6,0.5,0.7c-0.1,0-0.4-0.2-0.4,0.1l0-0.5
								c-0.2-0.1,0.1,0.4,0,0.7C296.2,160.1,296.6,158.7,296.1,158.4z"/>
							<path class="st87" d="M291.2,161.9c0-0.1,0.1-0.1,0.2-0.1C291.3,161.8,291.2,161.8,291.2,161.9z"/>
							<path class="st87" d="M292.6,161.6c0.1,0,0.1,0.1,0.1,0.1C292.7,161.7,292.7,161.6,292.6,161.6z"/>
							<path class="st87" d="M293.2,161.9c-0.1-0.2-0.2-0.1-0.4-0.2C293,161.7,293.1,161.5,293.2,161.9z"/>
							<path class="st87" d="M273.8,165c0-0.1-0.1-0.3,0-0.4l0.2,0.2L273.8,165z"/>
							<path class="st87" d="M274.4,164.7l0.3-0.1l-0.1,0.6C274.4,165.2,274.7,164.8,274.4,164.7z"/>
							<path class="st87" d="M275.2,164.7l0-0.2C275.2,164.6,275.2,164.6,275.2,164.7z"/>
							<path class="st87" d="M275.1,164.9l-0.1,0.5l-0.2-0.4l0.1,0c0.1-0.1,0.2-0.2,0.2-0.2l0,0.3
								C275.2,165,275.1,164.9,275.1,164.9z"/>
							<path class="st87" d="M275.3,165c0,0,0,0.1-0.1,0.1C275.3,165.1,275.3,165.1,275.3,165z"/>
							<path class="st87" d="M276.2,164.4c-0.1,0.1-0.1,0.4-0.1,0.6c-0.3,0.1,0-0.6-0.3-0.4c0.2,0.4-0.2,0.2-0.4,0.4
								c0.2-0.4,0.4-0.6,0.7-0.6l-0.1,0.3C276.1,164.7,276.1,164.5,276.2,164.4z"/>
							<path class="st87" d="M277.1,165.5l0-0.5c-0.1,0.2-0.4,0.1-0.5,0.5c-0.1-0.1,0-0.3-0.1-0.4c-0.1,0.2-0.3,0.3-0.3,0
								c0.5-0.1,0.4-0.3,0.8-0.3c0-0.1,0-0.1-0.1-0.1l0.3-0.1C277.1,165.1,277.4,165.3,277.1,165.5z"/>
							<path class="st87" d="M277.6,165.3c-0.2-0.1-0.2-0.5,0-0.7l0.3,0.5C277.8,165,277.6,164.9,277.6,165.3z"/>
							<path class="st87" d="M277.8,165.4c0.1-0.2,0.4-0.6,0.4-0.2C278,165.1,278,165.8,277.8,165.4z"/>
							<path class="st87" d="M279.3,165.3l-0.4,0.2c-0.2,0.5,0.1,0.2,0.2,0.5c-0.4,0-0.2-0.1-0.4-0.5c-0.1,0-0.2-0.3-0.2-0.5
								C278.9,165.6,279.2,164.2,279.3,165.3z"/>
							<polygon class="st87" points="278.4,165.7 278.5,165.5 278.6,165.7 							"/>
							<path class="st87" d="M280.3,164.9c0.3-0.6,0.4,0.4,0.7,0.2c0,0,0-0.1,0-0.2l0.2,0.1l0-0.1c0,0.4,0.2,0.6,0.3,0.9
								c-0.3,0.4-0.1-0.5-0.3-0.1c0,0.2,0,0.5,0.1,0.6c-0.1-0.2-0.1-0.5-0.2-0.7c-0.1-0.1-0.1,0.2-0.1,0.3c-0.1-0.2-0.1-0.8-0.3-0.7
								c-0.2,0.3,0,0.6-0.2,0.4c0.2-0.6-0.3,0.1-0.3-0.4c-0.2,0.1-0.4,0.5-0.4,0.7c0.1-0.5,0-0.9-0.1-1.1c0.1,0.2,0.2,0.3,0.3,0.5
								l0.2-0.6C280,165,280.2,164.9,280.3,164.9L280.3,164.9z"/>
							<path class="st87" d="M281.2,166.2c0,0,0,0.1,0.1,0.1C281.2,166.4,281.2,166.3,281.2,166.2z"/>
							<polygon class="st87" points="279.4,166 279.5,166.2 279.4,166.3 							"/>
							<path class="st87" d="M281.4,166.7c-0.1,0-0.1-0.2,0-0.2L281.4,166.7L281.4,166.7z"/>
							<polygon class="st87" points="281.6,166.3 281.7,166 281.8,166.3 							"/>
							<path class="st87" d="M286.4,165.3c-0.1,0.2-0.2-0.1-0.3-0.4C286.3,164.7,286.2,165.2,286.4,165.3z"/>
							<path class="st87" d="M289.4,164.3c0,0.3-0.4,0.1-0.5,0.2C289,164.2,289.2,164.2,289.4,164.3z"/>
							<path class="st87" d="M291.4,164.5c-0.1-0.1-0.2-0.1-0.2-0.2l-0.6-0.4C290.7,163.5,291.2,164.3,291.4,164.5z"/>
							<path class="st87" d="M292.7,163.5l-0.4,0l0.1-0.1c-0.2-0.2-0.4-0.2-0.6-0.3C292,163,292.3,163.1,292.7,163.5z"/>
							<path class="st87" d="M291.5,163.1C291.6,163.1,291.6,163.1,291.5,163.1C291.7,163.1,291.7,163.2,291.5,163.1z"/>
							<path class="st87" d="M291.7,163C291.7,163,291.8,163,291.7,163C291.7,163.1,291.7,163.1,291.7,163
								C291.6,163,291.6,163,291.7,163z"/>
							<path class="st87" d="M292.6,163.1l0.4-0.3l0,0.2C292.6,162.8,293,163.4,292.6,163.1z"/>
							<path class="st87" d="M293.8,161.1l-0.3-0.3c0-0.1,0.2-0.1,0.4-0.1c0.2,0.1,0.3,0.1,0.1-0.2c0.2,0.2,0.3,0.3,0.4,0.5
								c-0.1-0.1-0.2-0.2-0.3-0.2C293.9,160.9,293.9,161,293.8,161.1z"/>
							<path class="st87" d="M293.9,160.2c-0.1-0.1-0.1-0.2-0.2-0.3c0-0.1,0.2,0.1,0.3,0.2C293.6,159.7,294.1,160.4,293.9,160.2z"/>
							<path class="st87" d="M294.7,159.9c-0.1,0-0.2,0-0.1-0.1c0.2,0,0.3,0.5,0.4,0.7C294.9,160.7,294.6,160.1,294.7,159.9z"/>
							<path class="st87" d="M296,156.5c0,0.4-0.2,0.3-0.3,0.2C295.8,156.8,295.9,156.6,296,156.5z"/>
							<polygon class="st87" points="296.3,159.5 296.2,159.6 296.1,159 							"/>
							<polygon class="st87" points="297.6,159.8 297.7,160.1 297.5,160.1 							"/>
							<path class="st87" d="M297.8,159.7l0.2,0l-0.1,0.1C297.9,159.9,297.9,159.7,297.8,159.7z"/>
							<path class="st87" d="M298.5,159.8C298.5,159.7,298.4,159.8,298.5,159.8l-0.3-0.2L298.5,159.8z"/>
							<path class="st87" d="M302.3,157.8c0-0.4,0.2-0.1,0.3-0.2C302.6,157.7,302.3,158.2,302.3,157.8z"/>
						</g>
					</g>
				</g>
			</g>
		</g>
		<path class="st80" d="M223.5,266.4c0,0,3.6-19.9-8.4-33.4s-31.8-3.9-32.6,1.1s6.3-4.2,17.8-2.4c11.6,1.8,16.1,15.6,14.6,29.9
			c-1.4,14.3-13.7,30.6-29.7,35.4c-16.1,4.8-22.5-3.4-22.5-3.4"/>
		<path class="st80" d="M278,310.4c0,0,0.8-2.9-1-4.8"/>
		<g>
			<path class="st85" d="M257.4,218.4c0,0,0.9,3.8,2.2,9.8c1.9,8.6,4.8,21.6,7.7,34.2c4.4,19.4,8.7,37.9,9,38.2
				c0.8,0.5,5.9-0.1,8.8,2.8s1.5,7,1.5,7s-13.7,0-14.3,0c-0.5,0-21.9-43.4-29.3-59.1c-1.4-3-2.4-5-2.8-5.5"/>
			<path class="st80" d="M283,310.4c0,0,1-3.2-1-4.8"/>
			<path class="st80" d="M278.8,310.4c0,0,0.3-3.2-1.8-4"/>
		</g>
		<path class="st85" d="M273.2,116.6c0,0,1-5,0.5-6.8c-0.5-1.8-10.8-10.6-17.9-20.6S245.4,73.8,243,74.8c-2.5,1-3.9,22,0,35.6
			s6.3,16.1,9.8,16.8c3.5,0.8,5.9,1.7,5.9,1.7S271.7,122.1,273.2,116.6z"/>
		<path class="st90" d="M264.9,125.2c-3.2,2.2-6.2,3.7-6.2,3.7s-2.4-1-5.9-1.7c-3.5-0.8-5.9-3.2-9.8-16.8c-2.6-9.1-2.9-21.5-2-29
			c0,0,0,0,0-0.1c0.1-0.5,0.1-0.9,0.2-1.3c0.4-1.4,1.8-2.4,6.5,3.6c6.9,9,17.5,28.3,18,30.2C266,115.4,265.2,122.2,264.9,125.2z"/>
		<path class="st85" d="M300.4,121.4c0,0,0.4-4.8,0.4-7c0-2.2,0.7-4.3,6.9-9.8c6.2-5.5,16.2-16.2,20.9-20.8
			c4.7-4.6,8.1-7.2,10.4-4.9s-1.5,42.6-4.2,47.4c-2.7,4.7-5.6,6.4-12.8,7.5c-7.2,1.1-11.7,0.9-12.3,1.1
			C309,135,298.5,127.9,300.4,121.4z"/>
		<path class="st90" d="M339.5,90.7c-0.6,13-2.9,32.3-4.7,35.4c-2.7,4.7-5.6,6.4-12.8,7.5c-7.2,1.1-11.7,0.9-12.3,1.1
			c-0.2,0.1-2-1-4-2.7c0.5-6.6,1.5-15.7,2.7-18.2c1.9-4.2,25.4-30.7,28.3-30.7C339.6,83.2,339.5,90.7,339.5,90.7z"/>
		<path class="st85" d="M263.2,148.9c0,0-6.1-4.8-7.1-8.4c-1-3.5-0.3-13.5,8.7-20.6c9-7.1,19.3-6.6,24.3-5.5
			c5,1.1,16.7,5.1,21.5,18.6c4.8,13.5-1.1,19.6-6.8,22.3c-5.6,2.7-11.2,2.2-11.2,2.2s-3.2,4.5-5.5,5.5s-6.8,1.6-10.7,1
			c-3.9-0.6-9.2-4-10.7-6.3S263.7,149.3,263.2,148.9z"/>
		<path class="st91" d="M268.6,160.7c0,0,1.6,1,3.4-0.9c1.8-1.9,4.6-3.3,5.4-3.6l0.3-1.8"/>
		<path class="st91" d="M277.4,156.2c0,0,0.3,0.5,2.2,2.2c2.2,2,3.6,5.9,7.6,4.8"/>
		<path class="st92" d="M277.9,154.6c0,0-0.8,0.2-1.5-1.4c-0.7-1.6-2.5-2.6-3.2-3.3c-0.7-0.7-0.3-2.4,1.8-1.5c2.2,0.9,4.2,1,6.1,1
			c2.9,0,3.2,0.4,3.3,1.2c0,0.8-1.3,1.5-2.9,1.7C279.9,152.6,279.4,154.9,277.9,154.6z"/>
		<path class="st93" d="M273.2,142.6c0,0,0.8-5.3-2-8.6s-7.7-2.6-7.7-2.6s-2.3,5.6,1.8,9.4C268.1,143.4,273.2,142.6,273.2,142.6z"/>
		<path class="st93" d="M288.6,143.5c0,0,1.5-7.5,6.3-8.4c4.8-0.9,7.4,1.9,7.4,1.9s-0.7,7.1-5.8,8
			C291.4,146,288.6,143.5,288.6,143.5z"/>
		<ellipse transform="matrix(0.1674 -0.9859 0.9859 0.1674 87.997 378.2218)" class="st22" cx="267.9" cy="137" rx="3.7" ry="1.5"/>
		
			<ellipse transform="matrix(0.1674 -0.9859 0.9859 0.1674 107.1027 407.0558)" class="st22" cx="294.6" cy="140.1" rx="3.7" ry="1.5"/>
		<path class="st80" d="M243.1,251.3c-1.4-3-2.4-5-2.8-5.5"/>
		<path class="st80" d="M257.4,218.4c0,0,0.9,3.8,2.2,9.8c1.9,8.6,4.8,21.6,7.7,34.2"/>
	</g>
</g>
</svg>
