<?xml version="1.0" encoding="utf-8"?>
<!-- Generator: Adobe Illustrator 26.0.3, SVG Export Plug-In . SVG Version: 6.00 Build 0)  -->
<svg version="1.1" xmlns="http://www.w3.org/2000/svg" xmlns:xlink="http://www.w3.org/1999/xlink" x="0px" y="0px"
	 viewBox="0 0 503.6 377.7" style="enable-background:new 0 0 503.6 377.7;" xml:space="preserve">
<style type="text/css">
	.st0{fill:#FFF0DD;}
	.st1{fill:#6B5C52;}
	.st2{fill:#B8BBBF;}
	.st3{fill:#F9E9CD;}
	.st4{fill:#FFE6BD;}
	.st5{fill:#F5F5F2;}
	.st6{fill:#637189;}
	.st7{fill:#9E9082;}
	.st8{fill:#938D89;}
	.st9{fill:#FFDBC0;}
	.st10{fill:#6E85BD;}
	.st11{fill:#E8D9D6;}
	.st12{fill:#A7BC79;}
	.st13{fill:#FF8080;}
	.st14{fill:#3D3533;}
	.st15{fill:#A1683D;}
	.st16{fill:#CCE0FF;}
	.st17{fill:#383531;}
	.st18{fill:#757060;}
	.st19{fill:#D29F7E;}
	.st20{opacity:0.88;clip-path:url(#SVGID_00000170261398881993873890000009702054280843061913_);}
	.st21{fill:#322015;}
	.st22{fill:#1B1C1E;}
	.st23{fill:none;stroke:#1B1C1E;stroke-width:1.2604;stroke-linecap:round;stroke-linejoin:round;stroke-miterlimit:10;}
	.st24{opacity:0.84;clip-path:url(#SVGID_00000100377442652499797000000014558710665422318271_);}
	.st25{clip-path:url(#SVGID_00000101781542753534453760000013437100325664787637_);}
	.st26{fill:none;stroke:#1B1C1E;stroke-width:1.2604;stroke-linecap:round;stroke-linejoin:round;}
	.st27{fill:#D1493B;}
	.st28{fill:#FFAE1F;}
	.st29{opacity:0.88;clip-path:url(#SVGID_00000067217376555092199050000000089571551918747551_);}
	.st30{opacity:0.7;clip-path:url(#SVGID_00000005945606570143039800000016567620866079337631_);}
	.st31{fill:#2C2C2D;}
	.st32{opacity:0.87;clip-path:url(#SVGID_00000111175192160756421870000008692289488148437127_);}
	.st33{fill:#080809;}
	.st34{opacity:0.7;clip-path:url(#SVGID_00000075843664037413522970000007394718012118748856_);}
	.st35{fill:#FBAF5E;}
	.st36{opacity:0.62;clip-path:url(#SVGID_00000164476531361180745670000006790143394331429276_);}
	.st37{fill:#3E240C;}
	.st38{fill:#BC763C;}
	.st39{opacity:0.62;clip-path:url(#SVGID_00000128471258792720498660000001458928961939997630_);}
	.st40{opacity:0.62;clip-path:url(#SVGID_00000090985718370929105310000001206523866671436188_);}
	.st41{fill:#967258;}
	.st42{opacity:0.53;clip-path:url(#SVGID_00000088845659341400297880000011636420796951081135_);}
	.st43{opacity:0.73;clip-path:url(#SVGID_00000030487835605691173560000017974480269342268546_);}
	.st44{fill:none;stroke:#1B1C1E;stroke-width:1.1311;stroke-linecap:round;stroke-linejoin:round;stroke-miterlimit:10;}
	.st45{fill:#3D291C;}
	.st46{fill:#3D291C;stroke:#967258;stroke-width:1.2604;stroke-linecap:round;stroke-linejoin:round;stroke-miterlimit:10;}
	.st47{fill:#D6D4C8;}
	.st48{fill:#1B1C1E;stroke:#967258;stroke-width:1.2604;stroke-linecap:round;stroke-linejoin:round;stroke-miterlimit:10;}
	.st49{opacity:0.52;clip-path:url(#SVGID_00000103967864926935694780000006116884337676606897_);}
	.st50{fill:#B37D4F;}
	.st51{opacity:0.88;clip-path:url(#SVGID_00000062189912624293604840000001524444905374852771_);}
	.st52{fill:#343434;}
	.st53{fill:#BC6464;}
	.st54{opacity:0.88;clip-path:url(#SVGID_00000156569284603191371450000004839562957137662336_);}
	.st55{fill:#1B1C1E;stroke:#1B1C1E;stroke-width:1.1485;stroke-linecap:round;stroke-linejoin:round;stroke-miterlimit:10;}
	.st56{fill:#8C7265;}
	.st57{opacity:0.88;clip-path:url(#SVGID_00000114771938554274429070000005743115222918570154_);}
	.st58{fill:#1B1C1E;stroke:#1B1C1E;stroke-width:1.3664;stroke-linecap:round;stroke-linejoin:round;stroke-miterlimit:10;}
	.st59{opacity:0.88;clip-path:url(#SVGID_00000160877390942573416680000005323261535122504127_);}
	.st60{fill:none;stroke:#1B1C1E;stroke-width:1.3664;stroke-linecap:round;stroke-linejoin:round;stroke-miterlimit:10;}
	.st61{opacity:0.88;clip-path:url(#SVGID_00000153693199710853319810000008840238454545667725_);}
	.st62{opacity:0.88;clip-path:url(#SVGID_00000018204922013356810320000011204724442281082258_);}
	.st63{fill:#5F6C72;}
	.st64{fill:#1B1C1E;stroke:#1B1C1E;stroke-width:1.5329;stroke-linecap:round;stroke-linejoin:round;stroke-miterlimit:10;}
	.st65{opacity:0.88;clip-path:url(#SVGID_00000083062743041662817720000012658410816902497200_);}
	.st66{clip-path:url(#SVGID_00000049902144528071877170000002435866544884825749_);}
	.st67{opacity:0.58;clip-path:url(#SVGID_00000114034492131335788180000012010738598976099219_);}
	.st68{opacity:0.58;clip-path:url(#SVGID_00000140000187255680645810000017206074778683379868_);}
	.st69{fill:#1B1C1E;stroke:#1B1C1E;stroke-width:1.818;stroke-linecap:round;stroke-linejoin:round;stroke-miterlimit:10;}
	.st70{fill:#FFFFFF;}
	.st71{fill:#CC813E;}
	.st72{opacity:0.58;clip-path:url(#SVGID_00000082347568280084446380000003173695693908120236_);}
	.st73{fill:#AA8C7D;}
	.st74{opacity:0.88;clip-path:url(#SVGID_00000125564212058799455360000009324941346418263974_);}
	.st75{opacity:0.88;clip-path:url(#SVGID_00000080908513356204383420000015983342835989537468_);}
	.st76{fill:#1B1C1E;stroke:#1B1C1E;stroke-width:1.2604;stroke-linecap:round;stroke-linejoin:round;stroke-miterlimit:10;}
	.st77{opacity:0.88;clip-path:url(#SVGID_00000007391385343654793230000007018643633246967169_);}
	.st78{opacity:0.88;clip-path:url(#SVGID_00000139255828862103904500000003406754546609073825_);}
	.st79{opacity:0.88;clip-path:url(#SVGID_00000113348559269847579390000001367358200978101181_);}
	.st80{fill:none;stroke:#1B1C1E;stroke-miterlimit:10;}
	.st81{fill:#B8BDC4;}
	.st82{fill:#B4D3CD;}
	.st83{opacity:0.88;clip-path:url(#SVGID_00000136397630373997150040000002113873240591217086_);}
	.st84{opacity:0.88;clip-path:url(#SVGID_00000005253968087661825170000008917294070830257298_);}
	.st85{fill:#EFBE9D;}
	.st86{opacity:0.88;clip-path:url(#SVGID_00000104680676115357144370000016758562675949798045_);}
	.st87{fill:#443730;}
	.st88{opacity:0.88;clip-path:url(#SVGID_00000104699763925449190910000009334805195276047765_);}
	.st89{opacity:0.88;clip-path:url(#SVGID_00000092428238000217882810000012325520916810051733_);}
	.st90{fill:#E2AF8D;}
	.st91{fill:none;stroke:#1B1C1E;stroke-linecap:round;stroke-linejoin:round;stroke-miterlimit:10;}
	.st92{fill:#1B1C1E;stroke:#1B1C1E;stroke-miterlimit:10;}
	.st93{fill:#FCEA9F;}
	.st94{fill:#F6EBEF;}
	.st95{fill:#D4DADD;}
	.st96{opacity:0.61;clip-path:url(#SVGID_00000111169330702392047880000017362288401043223971_);}
	.st97{fill:#353737;}
	.st98{fill:#B3B9BC;}
	.st99{opacity:0.61;clip-path:url(#SVGID_00000076603094979343304710000004556544580071835779_);}
	.st100{opacity:0.61;clip-path:url(#SVGID_00000146487284906968360130000009042067144277364655_);}
	.st101{fill:#B3B9BC;stroke:#1B1C1E;stroke-miterlimit:10;}
	.st102{fill:#CCE2CF;stroke:#1B1C1E;stroke-miterlimit:10;}
	.st103{fill:#EAD6DE;}
	.st104{fill:#1B1C1E;stroke:#1B1C1E;stroke-width:1.0185;stroke-miterlimit:10;}
	.st105{fill:none;stroke:#1B1C1E;stroke-width:1.0185;stroke-miterlimit:10;}
	.st106{fill:#FBAF5E;stroke:#1B1C1E;stroke-miterlimit:10;}
	.st107{fill:#513F3B;}
	.st108{opacity:0.88;clip-path:url(#SVGID_00000088834048054174565480000002080671937664090301_);}
	.st109{opacity:0.88;clip-path:url(#SVGID_00000129886111244389271730000007611960144412910727_);}
	.st110{fill:#8B2403;}
	.st111{fill:#EBDAD2;}
	.st112{fill:#A84E39;}
	.st113{fill:#751A01;}
	.st114{fill:#EBDAD2;stroke:#1B1C1E;stroke-miterlimit:10;}
	.st115{opacity:0.78;clip-path:url(#SVGID_00000072259805042724422320000011923927026648789439_);}
	.st116{fill:#290B01;}
	.st117{opacity:0.78;clip-path:url(#SVGID_00000158741989056015946000000007244957210933502910_);}
	.st118{opacity:0.78;clip-path:url(#SVGID_00000170997849100853031380000016783005386796804512_);}
	.st119{opacity:0.78;clip-path:url(#SVGID_00000043426966042381149520000016148043287517915533_);}
	.st120{fill:#030203;}
	.st121{fill:#86889A;}
	.st122{fill:#0B060A;}
	.st123{fill:#736E72;}
	.st124{fill:#9E9AA0;}
	.st125{fill:#18172A;}
	.st126{fill:#3B4D84;}
	.st127{fill:#FFA3AC;}
	.st128{fill:none;stroke:#0B080B;stroke-width:1.2005;stroke-miterlimit:10;}
	.st129{fill:#E7E6E8;}
	.st130{fill:#0B080B;}
	.st131{fill:none;stroke:#1B1C1E;stroke-width:1.2005;stroke-linecap:round;stroke-linejoin:round;stroke-miterlimit:10;}
	.st132{opacity:0.78;clip-path:url(#SVGID_00000079446981848612406380000015671261166840067742_);}
	.st133{opacity:0.78;clip-path:url(#SVGID_00000108304419736147436220000000457306478802838186_);}
	.st134{fill:#89745E;}
	.st135{opacity:0.78;clip-path:url(#SVGID_00000170962477478479083600000007759337852161232058_);}
	.st136{fill:#060606;}
	.st137{fill:#4D483E;}
	.st138{fill:#FF8A00;}
	.st139{fill:#50483F;}
	.st140{fill:#131313;}
	.st141{fill:#E8DBCD;}
	.st142{opacity:0.78;clip-path:url(#SVGID_00000178916989330951489640000006473381533675058875_);}
	.st143{opacity:0.78;clip-path:url(#SVGID_00000036242014534823166670000011939968396802578074_);}
	.st144{fill:#191212;}
	.st145{fill:#6C5353;}
	.st146{opacity:0.78;clip-path:url(#SVGID_00000081627009082596729350000005688659764049423262_);}
	.st147{fill:#B3B3B3;}
	.st148{fill:#FF9F2C;}
	.st149{fill:none;stroke:#343434;stroke-miterlimit:10;}
	.st150{fill:#21262A;}
	.st151{fill:#563D3D;}
	.st152{opacity:0.78;clip-path:url(#SVGID_00000152972743831362596600000005648813731414712510_);}
	.st153{fill:#181716;}
	.st154{fill:#706153;}
	.st155{fill:none;stroke:#1B1C1E;stroke-width:0.8477;stroke-miterlimit:10;}
	.st156{fill:#FCBD30;}
	.st157{fill:#E8D9CD;}
	.st158{fill:#534E4A;}
	.st159{opacity:0.78;clip-path:url(#SVGID_00000081619006952685710190000016872538375924167092_);}
	.st160{fill:#7DA050;}
	.st161{opacity:0.78;clip-path:url(#SVGID_00000000187321741424095290000006141764927123407500_);}
	.st162{opacity:0.78;clip-path:url(#SVGID_00000055707210058988608490000016792348063990968982_);}
	.st163{opacity:0.78;clip-path:url(#SVGID_00000072262060044608892610000003681008617849526711_);}
	.st164{fill:#EFEECE;}
	.st165{opacity:0.78;clip-path:url(#SVGID_00000003826935405549831080000009518609861875937928_);}
	.st166{fill:#93543B;}
	.st167{fill:#FF510C;}
	.st168{opacity:0.78;clip-path:url(#SVGID_00000156562520246319475290000003967398651414322612_);}
	.st169{fill:#4B1804;}
	.st170{fill:#000A0E;}
	.st171{opacity:0.78;clip-path:url(#SVGID_00000065061820543439219400000005891620711725330066_);}
	.st172{opacity:0.78;clip-path:url(#SVGID_00000040552256863439996240000010732261656132454288_);}
	.st173{fill:#F9C8A7;}
	.st174{fill:#1B1C1E;stroke:#1B1C1E;stroke-width:1.3738;stroke-miterlimit:10;}
	.st175{fill:none;stroke:#1B1C1E;stroke-width:1.3;stroke-miterlimit:10;}
	.st176{fill:#FFCB6E;}
	.st177{fill:#CECECE;}
	.st178{fill:none;stroke:#1B1C1E;stroke-width:1.3037;stroke-miterlimit:10;}
	.st179{fill:#FFFFFF;stroke:#1B1C1E;stroke-width:1.3;stroke-miterlimit:10;}
	.st180{opacity:0.78;clip-path:url(#SVGID_00000065046083135052554890000014795012735002650773_);}
	.st181{fill:none;stroke:#1B1C1E;stroke-width:1.3738;stroke-miterlimit:10;}
	.st182{opacity:0.45;clip-path:url(#SVGID_00000003804906324414600990000006182000177463621018_);}
	.st183{opacity:0.45;clip-path:url(#SVGID_00000030455781210113885490000001966228881840308874_);}
	.st184{opacity:0.45;clip-path:url(#SVGID_00000046320847709001660280000003679662279767102122_);}
	.st185{opacity:0.45;clip-path:url(#SVGID_00000132800683132896208390000003543050684038897087_);}
	.st186{fill:none;stroke:#1B1C1E;stroke-width:1.3738;stroke-linecap:round;stroke-linejoin:round;stroke-miterlimit:10;}
	.st187{fill:#FFB192;}
	.st188{fill:#EB8226;}
	.st189{fill:#F7EDE1;}
	.st190{opacity:0.78;clip-path:url(#SVGID_00000171688423885189353820000018222687862334995878_);}
	.st191{opacity:0.78;clip-path:url(#SVGID_00000087383431207080174530000014984045766283799737_);}
	.st192{opacity:0.5;clip-path:url(#SVGID_00000077300765854336692850000005779716498914171310_);}
	.st193{opacity:0.5;clip-path:url(#SVGID_00000031208348182895135120000003088488841013239183_);}
	.st194{fill:none;stroke:#06002C;stroke-width:1.3038;stroke-miterlimit:10;}
	.st195{fill:#F7A9B4;}
	.st196{fill:#06002C;}
	.st197{opacity:0.5;clip-path:url(#SVGID_00000016773804861985783920000007128704080126974103_);}
	.st198{fill:none;stroke:#06002C;stroke-width:1.3038;stroke-linecap:round;stroke-linejoin:round;stroke-miterlimit:10;}
	.st199{fill:#9BBEDC;}
	.st200{opacity:0.88;clip-path:url(#SVGID_00000117644017008364788520000008921544313386607020_);}
	.st201{opacity:0.88;clip-path:url(#SVGID_00000005974067728426748210000016291795349414577839_);}
</style>
<g id="Background">
	<rect x="-3.2" y="-2.4" class="st17" width="510" height="382.5"/>
</g>
<g id="Illustration">
	<g>
		<path class="st22" d="M385.6,269.7c0,0,3.3,1.1-20.8,1.9c-24.1,0.8-151.3,1.2-164.3,0c-13.1-1.2-38.6-0.5-4.7-3.4
			s68.5-3.4,102.6-2.9C334.8,265.8,381.1,268.5,385.6,269.7z"/>
		<g>
			<path class="st160" d="M180.1,163.2c0,0-10.2-3.1-18-14.3c-9.9-14.3-31.5-10-36.5-5.8c-8.2,6.9,19,38.8,40.8,50.8
				C166.5,193.8,179.6,175.5,180.1,163.2z"/>
			<circle class="st22" cx="145.5" cy="149.2" r="2.7"/>
			<path class="st80" d="M130.6,160.7c0,0,12,1.9,24.2-0.7"/>
			<g>
				<defs>
					<path id="SVGID_00000082352535643675763620000002869801453398596492_" d="M180.1,163.2c0,0-10.2-3.1-18-14.3
						c-9.9-14.3-31.5-10-36.5-5.8c-8.2,6.9,19,38.8,40.8,50.8C166.5,193.8,179.6,175.5,180.1,163.2z"/>
				</defs>
				<clipPath id="SVGID_00000036219906884712597020000014159687318736095113_">
					<use xlink:href="#SVGID_00000082352535643675763620000002869801453398596492_"  style="overflow:visible;"/>
				</clipPath>
				<g style="opacity:0.78;clip-path:url(#SVGID_00000036219906884712597020000014159687318736095113_);">
					<g>
						<g>
							<g>
								<path class="st153" d="M158.6,189.5c0.1,0,0.1-0.1,0.2-0.2C158.7,189.3,158.6,189.4,158.6,189.5z"/>
								<path class="st153" d="M151.5,185.3C151.4,185.3,151.4,185.3,151.5,185.3L151.5,185.3L151.5,185.3z"/>
								<path class="st153" d="M151.4,185.4l-0.2,0.2C151.4,185.5,151.4,185.5,151.4,185.4z"/>
								<path class="st153" d="M160,188.2c0.1,0,0.2-0.1,0.3-0.2L160,188.2z"/>
								<path class="st153" d="M159.7,186.8c0,0,0-0.1,0-0.1C159.7,186.7,159.7,186.8,159.7,186.8z"/>
								<path class="st153" d="M165.2,193.1C165.2,193.1,165.1,193.1,165.2,193.1C165.1,193.1,165.2,193.1,165.2,193.1z"/>
								<path class="st153" d="M165.9,192.8c0,0,0.1,0,0.1,0.1l0-0.1C166,192.8,165.9,192.8,165.9,192.8z"/>
								<path class="st153" d="M165.8,192.4l0.1,0C165.9,192.4,165.8,192.4,165.8,192.4z"/>
								<path class="st153" d="M170.4,190.8l0.1-0.3C170.4,190.6,170.4,190.7,170.4,190.8z"/>
								<path class="st153" d="M164.9,193.3c0.1,0,0.1-0.1,0.2-0.2C165,193.2,164.9,193.2,164.9,193.3z"/>
								<path class="st153" d="M158.5,189.6c0,0,0-0.1,0.1-0.1C158.5,189.5,158.5,189.6,158.5,189.6z"/>
								<path class="st153" d="M160.5,188.4L160.5,188.4C160.4,188.4,160.4,188.4,160.5,188.4z"/>
								<path class="st153" d="M148.7,183.8c-0.1,0-0.2,0-0.3,0C148.6,184,148.6,184,148.7,183.8z"/>
								<path class="st153" d="M163.4,191.7c0.2-0.8,0.3,0.1,0.6-0.7c-0.2,0.1-0.4,0.2-0.3-0.2c0.3-0.4,0.3,0.2,0.6-0.4l-0.3,0.2
									c0-0.4,0.4-0.8,0.2-0.8c-0.5,0.8-0.5-0.6-0.7-0.5l0.1-0.1l-0.1-0.5c0,0,0,0,0,0c0,0,0,0.1-0.1,0.2c0.1-0.5,0-0.9-0.3-0.9
									c-0.3,0.4-0.9-0.2-1.1,0.2c0.2-0.1,0.2,0,0.3,0.1l-0.3,0.6c-0.2-0.1,0.2-0.5-0.2-0.3c-0.3,0.8,0.3,0.1,0.5,0.3
									c-0.1,0.2-0.3,0.3-0.4,0.3c0.3,0.2,0.5,0.6,1.1-0.1c0,0.2-0.2,0.5-0.3,0.6c0.4-0.4,0,0.5,0.4,0.2c-0.4,0.7-0.7,0.2-1,0.5
									c-0.1-0.7-0.7-0.3-1.1-0.4c0.2-0.5,0.7-0.9,0.7-1.3c-0.2-0.5-0.5,0.1-0.8,0.4c-0.2-0.3,0.4-0.9,0-1.1l0.4-0.3
									c0.1-0.9-0.3,0.2-0.4,0c0,0.2-0.1,0.4,0.1,0.5c-0.1,0.3-0.3,0.3-0.4,0.3l0,0c-0.2,0.3-0.4,0.7-0.6,0.4c0.4-0.4,0-0.4,0-0.7
									l0.1-0.1c-0.2,0.1-0.4-0.1-0.5,0l0.1-0.1c-0.2,0.1-0.5,0.7-0.6,0.4c0.1-0.2,0.6-0.7,0.4-0.7c0.2-0.3,0.4-0.2,0.6,0
									c-0.1-0.2,0-0.8,0.3-0.7c0.1-0.5-0.3,0.1-0.3-0.2c0,0.1-0.1,0.3-0.2,0.4c0.3-0.6-0.4-0.3-0.6,0.1l0.4-0.2
									c-0.2,0.5-0.6,0.6-0.6,0.9c0.2-0.8-0.8,0.1-0.6-0.6l-0.1,0.4c-0.4-0.4-1.2,0.2-1.7,0.2c0.3-0.1,0.7-0.9,0.8-0.5
									c-0.4-0.4,0.2-0.8,0.3-1.3c-0.2-0.5-0.5,0.6-0.8,0.8l0.3,0c-0.8,0.8-0.8-0.6-1.5-0.3c0.1-0.3,0.2-0.1,0.3-0.1
									c0-0.6-0.3,0-0.5,0.1c-0.2-0.2-0.3-0.5,0.1-1c-0.2-0.3-0.1,0.4-0.4,0.5l0-0.2l-0.6,0.5c-0.1-0.3-0.2-0.7,0-1.3
									c-0.5-0.1-0.8,1.2-1.3,1.2c0-0.4,0.3-0.4,0.4-0.6l-0.3-0.1c0.4-0.6,0.5-0.1,0.9-0.9c-0.7,0.6-0.5,0-1.1,0.3l0,0.1
									c-0.4,0.4-0.6-0.1-0.9-0.1c0.3-0.3,0.5-0.2,0.7-0.2c-0.1-0.4-0.8-0.4-1.4,0.1c-0.1-0.2-0.2-0.6,0.1-0.8
									c-0.4-0.4-0.7,0.8-1,0.4l0.3-0.5c0-1-1.2,0.1-1.2-0.8l-0.4,0.6c0.1-0.3,0-0.5,0.1-0.8l0.3-0.1c0.1-0.6-0.5,0.3-0.5-0.1
									c-0.1,0.2-0.2,0.7-0.3,0.9c1.1,0.2,1.5,1.6,2.7,1.5c0-0.1,0-0.2,0.1-0.3c0,0.2,0.3,0.1,0.1,0.4l-0.1,0
									c0.3,0,0.1,0.8,0.3,0.9c0.3-0.4,0.4,0.4,0.7-0.3l-0.1,0.5c0.2-0.2,0.3-0.6,0.5-0.7c0.1,0.1,0,0.4-0.2,0.5
									c0.5,0.6,1.3,0.9,2,1l-0.3,0.2c0.1,0.2,0.9-0.3,0.3,0.5c0.5-0.2,0.8,0.7,1.2-0.2c-0.2,1,0.6,0.8,1.1,0.8
									c0.3-0.8,0.5,0,0.8-0.4c-0.2,0.6-0.7,0.4-0.9,0.8c0.9-0.7,1,1.3,1.9-0.2c0,0.1,0,0.1,0,0.2c0.1,0,0.1,0.4,0.1,0.5
									c0.2-0.2,0-0.5,0.3-0.5c0.1,0.1-0.1,0.5-0.2,0.8c0.5-0.2,1.1-0.1,1.4-0.7c0,0.2,0,0.6-0.2,0.7c0.7-0.3,0.5,0.3,1.1,0.2
									c-0.2-0.1-0.4,0.6-0.5,0.2c-0.2,1,0.9,0.2,1.1,0.8l0.4-0.5c0.3,0,0.1,0.6-0.2,0.7c0.3,0.5,0.7,0.3,1,0.4
									c0,0.1-0.1,0.2-0.1,0.1l0.5,0.2c0.1-0.1,0.4-0.3,0.5-0.7C163.8,191.9,163.6,192.1,163.4,191.7z"/>
								<path class="st153" d="M164,191.6L164,191.6L164,191.6C164,191.6,164,191.6,164,191.6z"/>
								<path class="st153" d="M160.7,187.3c0,0.2,0,0.2,0,0.3C160.8,187.5,160.8,187.4,160.7,187.3z"/>
								<path class="st153" d="M168.9,192.3c0.3-0.9-0.3,0-0.5-0.3c0.2-0.1,0.4-0.6,0.5-0.9c-0.7,1-0.2-0.3-0.8-0.3
									c0.1-0.4,0.4-0.3,0.5-0.7c-0.4,0.2-0.8,0.2-1.1,0.8c-0.4-0.2-0.6-0.5-0.9-0.5c0.4-0.1,0.3-0.6,0.7-1.1
									c-0.6,0.6-1.6,1.2-2.4,2c0.2-0.7,0.2-0.8,0.5-1.4c-0.3-0.7-0.4,0.6-0.8,0.2l0.2,0.2c-0.3,0.1-0.6,0.8-0.8,1.2l0.6,0.1
									c-0.2,0.5-0.5,0.3-0.7,0.3c-0.4,0.5,0.1,0.5-0.1,1c0.2-0.3,0.4-0.1,0.6-0.2l-0.1,0.3c0.2,0.4,0.6-0.2,0.8-0.1
									c0,0.1,0,0.1,0,0.2c0.2-0.3,0.4-0.6,0.6-0.6l-0.1,0c0.4-0.5,1.1-0.7,1-1.5l0.5,0.4c-0.3,0.6-0.8,1.6-1.2,1.6l-0.1,0.3
									c0.1,0.5,0.9-0.2,1-0.9c0.9-1.5,0.9,0.3,1.6-0.2c-0.1,0.5-0.4,0.5-0.7,0.8c-0.1,0-0.2,0-0.1-0.4c-0.6,0-0.4,1.4-1,1
									c-0.2-0.3,0.6-0.6,0.2-0.8l-0.8,1.1c0.3,0.1,0.6,0,0.9-0.1c1.5-0.3,2.2,0.7,2.2,0.7c1.9,0.5,3.8,1,5.7,1.5
									c0.6,0,0.8,0.1,1.4-1c0-0.3-0.4-0.3-0.2-0.7c-0.2,0.4-0.5,0.6-0.8,0.5c0.1-0.5,0.3-0.1,0.3-0.3l0,0c0.1-0.2,0.2-0.4,0.3-0.3
									c-0.1-0.8-0.8-0.8-1.3-0.1c-0.1-0.5,0.4-0.6,0.7-0.9c-0.8-0.7-1.5-0.8-2.5-1.2c-0.3,0.8-0.3,0.5-0.6,1l0-0.3
									c0,0.2-0.3,0.6-0.2,0.9c-0.3-0.8-1,0.8-1.5,1l0.2-0.4c-0.3,0-0.4-0.1-0.8,0.1c-0.2-0.9,0.5,0,0.7-1l-0.2,0.1
									c0.2-0.4,0.6-1,0.8-1.2c-0.7,0.5-0.6-0.5-1.3-0.2c0.2-0.4,0.8-0.6,1-0.6c-0.2-0.1-0.6,0.1-0.5-0.3l-0.2,0.6
									c-0.3,0,0.2-0.5,0.3-0.9C169.7,190.2,169.7,192.2,168.9,192.3z"/>
								<path class="st153" d="M161.6,189c0.1,0.1,0.2,0.1,0.2,0.1C161.8,189.1,161.7,189,161.6,189z"/>
								<path class="st153" d="M163.5,188.6c0-0.1,0.1-0.1,0.1-0.2C163.6,188.4,163.5,188.5,163.5,188.6z"/>
								<path class="st153" d="M164,187.9c-0.1,0.3-0.2,0.2-0.4,0.5C163.8,188.3,164,188.4,164,187.9z"/>
								<path class="st153" d="M142.9,175.6c-0.2,0.1-0.4,0.1-0.5,0.2l0.4,0.1L142.9,175.6z"/>
								<path class="st153" d="M142.9,176.5l0,0.4l0.7-0.5C143.4,176.2,143.1,176.7,142.9,176.5z"/>
								<path class="st153" d="M143.2,177.4l-0.2,0.1C143.1,177.4,143.1,177.4,143.2,177.4z"/>
								<path class="st153" d="M143.4,177.1l0.5-0.4l-0.6,0.1l0,0.2c-0.1,0.2-0.1,0.3-0.2,0.4l0.4-0.2
									C143.5,177.2,143.4,177.2,143.4,177.1z"/>
								<path class="st153" d="M143.6,177.3c0-0.1,0.1-0.1,0.1-0.1C143.7,177.2,143.7,177.3,143.6,177.3z"/>
								<path class="st153" d="M143.4,178.6c0.1-0.2,0.4-0.4,0.6-0.5c-0.1-0.4-0.6,0.3-0.7-0.1c0.6-0.1,0.1-0.4,0.3-0.7
									c-0.3,0.5-0.5,0.8-0.4,1.2l0.3-0.3C143.7,178.3,143.5,178.4,143.4,178.6z"/>
								<path class="st153" d="M145.2,178.9l-0.5,0.3c0.1-0.2-0.2-0.5,0.2-0.9c-0.2,0-0.3,0.2-0.5,0.2c0.1-0.3,0.2-0.5-0.2-0.3
									c0.2,0.6,0,0.6,0.2,1.1c-0.1,0.1-0.1,0-0.2,0l0.1,0.4C144.9,179.2,145.2,179.4,145.2,178.9z"/>
								<path class="st153" d="M145.3,179.5c-0.2-0.1-0.7,0.2-0.8,0.6l0.7,0C145.1,180,144.9,179.9,145.3,179.5z"/>
								<path class="st153" d="M145.6,179.8c-0.1,0.3-0.3,0.9,0.1,0.6C145.5,180.2,146.1,179.6,145.6,179.8z"/>
								<path class="st153" d="M146.8,181.3l-0.2-0.6c0.3-0.6,0.3-0.1,0.6-0.2c-0.3-0.4-0.3-0.1-0.8,0.1c-0.1-0.1-0.5,0.1-0.7,0.2
									C146.6,180.6,145.6,182.1,146.8,181.3z"/>
								<polygon class="st153" points="146.4,180.1 146.2,180.3 146.5,180.3 								"/>
								<path class="st153" d="M147.3,182.6c-0.2,0.9,0.8-0.1,0.8,0.4c-0.1,0-0.1,0.1-0.2,0.1l0.3,0.1l-0.1,0.2
									c0.3-0.4,0.6-0.5,1-0.7c0-0.6-0.5,0.5-0.4-0.2c0.2-0.2,0.4-0.4,0.6-0.6c-0.3,0.1-0.5,0.4-0.7,0.6c-0.2-0.1,0-0.3,0.1-0.4
									c-0.3,0.1-0.8,0.8-0.9,0.4c0.1-0.5,0.5-0.5,0.1-0.6c-0.3,0.8-0.2-0.3-0.6,0c-0.1-0.3,0-0.8,0.2-1c-0.4,0.5-0.9,0.8-1.1,0.9
									l0.7-0.2l-0.3,0.7C147.1,182.2,147.2,182.4,147.3,182.6L147.3,182.6z"/>
								<path class="st153" d="M149.3,181.9c0.1,0,0.1,0,0.2-0.1C149.5,181.8,149.4,181.9,149.3,181.9z"/>
								<polygon class="st153" points="147.5,180.7 147.7,180.7 147.8,180.5 								"/>
								<path class="st153" d="M149.8,181.6c0,0-0.2,0.1-0.1,0.2l0.3-0.2L149.8,181.6z"/>
								<polygon class="st153" points="149.8,182.2 149.7,182.6 150,182.4 								"/>
								<path class="st153" d="M155,185.5c-0.1-0.3-0.3,0.1-0.5,0.5C154.7,186.2,154.7,185.6,155,185.5z"/>
								<path class="st153" d="M158.8,186.6c-0.1-0.4-0.5,0-0.6-0.1C158.2,186.8,158.5,186.8,158.8,186.6z"/>
								<path class="st153" d="M161,185.8c-0.1,0.1-0.2,0.2-0.1,0.3l-0.6,0.7C160.4,187.2,160.8,186.1,161,185.8z"/>
								<path class="st153" d="M162.7,186.4l-0.4,0.2l0.1,0.1c-0.2,0.3-0.3,0.4-0.6,0.7C162.2,187.2,162.5,187,162.7,186.4z"/>
								<path class="st153" d="M161.6,187.4c0,0,0.1,0,0.1,0C161.7,187.2,161.7,187.1,161.6,187.4z"/>
								<path class="st153" d="M161.8,187.4C161.8,187.4,161.9,187.3,161.8,187.4c0-0.1-0.1,0-0.1,0
									C161.7,187.4,161.7,187.5,161.8,187.4z"/>
								<path class="st153" d="M162.7,186.9l0.5,0.1l-0.1-0.2C162.9,187.2,163.1,186.3,162.7,186.9z"/>
								<path class="st153" d="M165.1,188.4l-0.2,0.5c0.3,0.2,1.1-0.7,0.9,0.2c0-0.4,0.5-0.5,0.2-0.8
									C165.7,188.7,165.3,188.6,165.1,188.4z"/>
								<path class="st153" d="M165.9,189.6c-0.1,0.1-0.1,0.3-0.1,0.4c0.1,0.1,0.3-0.1,0.3-0.3C165.8,190.3,166.2,189.2,165.9,189.6
									z"/>
								<path class="st153" d="M167.4,190.1c-0.1,0-0.2,0-0.2,0.2c0.3,0.1,0.4-0.5,0.7-0.8C167.8,189,167.3,189.7,167.4,190.1z"/>
								<path class="st153" d="M168.2,194.7c0.1-0.5-0.1-0.5-0.2-0.3C168,194.3,168.1,194.5,168.2,194.7z"/>
								<polygon class="st153" points="169.5,191 169.5,190.9 169.2,191.5 								"/>
								<polygon class="st153" points="171.3,191.3 171.7,190.9 171.3,190.9 								"/>
								<path class="st153" d="M171.6,191.5l0.3,0.1l0-0.2C171.8,191.2,171.7,191.5,171.6,191.5z"/>
								<path class="st153" d="M172.5,191.7c0,0,0-0.1,0-0.1l-0.3,0.2L172.5,191.7z"/>
								<path class="st153" d="M176,196c-0.2,0.4,0.2,0.2,0.2,0.4C176.3,196.2,176.3,195.6,176,196z"/>
							</g>
						</g>
					</g>
				</g>
			</g>
			<path class="st160" d="M331.6,244.1c-2.5,5-2.3,24.7-2.3,24.7h34.3L339.3,239C339.3,239,333,241.3,331.6,244.1z"/>
			<g>
				<defs>
					<path id="SVGID_00000071540798707233953610000007971738443739138182_" d="M331.6,244.1c-2.5,5-2.3,24.7-2.3,24.7h34.3
						L339.3,239C339.3,239,333,241.3,331.6,244.1z"/>
				</defs>
				<clipPath id="SVGID_00000024692115492320898980000001163079161830728608_">
					<use xlink:href="#SVGID_00000071540798707233953610000007971738443739138182_"  style="overflow:visible;"/>
				</clipPath>
				<g style="opacity:0.78;clip-path:url(#SVGID_00000024692115492320898980000001163079161830728608_);">
					<g>
						<g>
							<g>
								<path class="st153" d="M345.6,256.5c-0.1,0-0.3,0.1-0.4,0.1C345.2,256.6,345.4,256.6,345.6,256.5z"/>
								<path class="st153" d="M351.2,265.5C351.3,265.5,351.3,265.5,351.2,265.5l0.1-0.1L351.2,265.5z"/>
								<path class="st153" d="M351.4,265.4l0.4-0.3C351.6,265.2,351.5,265.3,351.4,265.4z"/>
								<path class="st153" d="M342.3,257.6c-0.2,0-0.4,0-0.7,0.1L342.3,257.6z"/>
								<path class="st153" d="M341.2,259.7c-0.1,0.1-0.1,0.1-0.2,0.2C341.1,259.8,341.2,259.8,341.2,259.7z"/>
								<path class="st153" d="M341.3,247.7c0.1,0,0.1,0,0.2-0.1C341.5,247.7,341.4,247.7,341.3,247.7z"/>
								<path class="st153" d="M340.2,247.6c0-0.1,0-0.1-0.1-0.1l-0.1,0.1C339.9,247.6,340.1,247.6,340.2,247.6z"/>
								<path class="st153" d="M339.8,248.2l-0.1-0.1C339.7,248.1,339.8,248.2,339.8,248.2z"/>
								<path class="st153" d="M332.1,247.2l-0.4,0.2C331.9,247.3,332,247.2,332.1,247.2z"/>
								<path class="st153" d="M342,247.5c-0.1,0-0.3,0.1-0.4,0.1C341.7,247.7,341.8,247.7,342,247.5z"/>
								<path class="st153" d="M345.8,256.3c-0.1,0-0.1,0.1-0.2,0.1C345.7,256.4,345.8,256.4,345.8,256.3z"/>
								<path class="st153" d="M342,257L342,257C342,257,342,257,342,257z"/>
								<path class="st153" d="M354.1,268.3c0.1,0,0.2,0.1,0.3,0.1C354.4,268.1,354.2,268.1,354.1,268.3z"/>
								<path class="st153" d="M341.9,250.6c-1.2,0.9-0.3-0.3-1.5,0.5c0.4,0,0.7,0,0.1,0.5c-0.8,0.3-0.2-0.4-1.3,0.2l0.6,0
									c-0.4,0.5-1.4,0.8-1.2,0.9c1.6-0.7-0.1,1.1,0.3,1.2l-0.2,0l-0.4,0.8c0,0-0.1,0-0.1,0.1c0.1-0.1,0.2-0.1,0.3-0.2
									c-0.6,0.6-0.9,1.2-0.6,1.4c0.9-0.4,0.9,0.8,1.7,0.4c-0.3,0-0.4-0.1-0.3-0.4l1-0.6c0.2,0.3-0.9,0.6-0.1,0.5
									c1.3-1-0.3-0.4-0.3-0.7c0.4-0.1,0.7-0.2,0.9-0.2c-0.2-0.4,0-1.1-1.5-0.5c0.2-0.3,0.8-0.6,1-0.6c-1,0.2,0.6-0.7-0.3-0.5
									c1.3-0.7,1,0.2,1.9-0.1c-0.7,1,0.5,0.9,1,1.2c-0.9,0.6-1.9,0.9-2.3,1.4c-0.3,0.8,0.8,0.1,1.4-0.1c-0.1,0.5-1.5,1.1-1.2,1.6
									l-0.8,0.1c-1.1,1.2,0.7-0.1,0.6,0.3c0.3-0.3,0.6-0.5,0.4-0.7c0.5-0.4,0.8-0.3,0.9-0.3l0-0.1c0.7-0.3,1.4-0.8,1.3-0.3
									c-0.9,0.4-0.4,0.6-0.7,0.9l-0.2,0c0.4,0,0.4,0.3,0.7,0.4l-0.2,0.1c0.4-0.1,1.4-0.7,1.3-0.3c-0.4,0.2-1.6,0.7-1.3,0.8
									c-0.6,0.4-0.8,0.1-0.8-0.3c0,0.4-0.9,1.2-1.1,0.9c-0.7,0.6,0.5,0,0.3,0.4c0.2-0.2,0.5-0.3,0.7-0.5c-1,0.7,0.3,0.6,1,0.1
									l-0.7,0.1c0.8-0.6,1.5-0.6,1.9-1c-1.1,1,1.1,0.3,0.2,1.2l0.6-0.6c0,0.8,1.8,0.3,2.5,0.6c-0.5,0.1-1.9,1.1-1.7,0.4
									c0.1,0.7-1.2,1.1-1.7,1.8c-0.2,0.8,1.4-0.7,1.9-0.9l-0.4-0.1c1.8-0.8,0.5,1.3,1.8,1.1c-0.4,0.3-0.3,0.1-0.5,0.1
									c-0.6,0.9,0.3,0.1,0.8,0c0.1,0.4,0,0.9-1.1,1.5c0,0.5,0.6-0.5,1-0.6l-0.2,0.2l1.3-0.5c-0.1,0.5-0.4,1.2-1.2,2
									c0.6,0.4,2.3-1.5,3-1.4c-0.3,0.6-0.7,0.5-1.1,0.8l0.4,0.3c-1.1,0.7-0.9,0-2.1,1c1.5-0.7,0.7,0.1,1.8-0.1l0.1-0.1
									c1-0.5,0.7,0.4,1.1,0.5c-0.6,0.3-0.8,0.1-1.2,0.1c-0.2,0.6,0.8,0.9,2,0.2c0,0.3-0.2,1-0.8,1.1c0.3,0.7,1.7-1.1,1.8-0.4
									l-0.8,0.7c-0.7,1.5,1.9,0,1.3,1.4l1-0.9c-0.3,0.5-0.3,0.8-0.6,1.2l-0.5,0.1c-0.6,0.9,1-0.5,0.6,0.3c0.3-0.3,0.7-1.1,1-1.4
									c-1.4-0.4-0.9-2.6-2.8-2.8c-0.1,0.1-0.2,0.3-0.4,0.4c0.1-0.3-0.3-0.3,0.3-0.7l0.1,0c-0.5-0.1,0.6-1.3,0.4-1.5
									c-0.8,0.5-0.2-0.8-1.2,0.3l0.6-0.8c-0.5,0.3-1,0.8-1.3,0.9c-0.1-0.3,0.4-0.6,0.8-0.7c-0.1-1.1-0.9-1.8-1.9-2.2l0.7-0.2
									c0.1-0.4-1.5,0.1,0.1-0.8c-0.8,0.1-0.3-1.3-1.9-0.2c1.3-1.3,0-1.4-0.6-1.7c-1.2,1-0.7-0.2-1.4,0.1c0.9-0.8,1.3-0.3,2-0.8
									c-1.9,0.6,0.1-2.3-2.7-0.6c0.1-0.1,0.2-0.2,0.3-0.3c-0.1-0.1,0.3-0.6,0.3-0.7c-0.5,0.3-0.5,0.6-0.9,0.5c0-0.3,0.8-0.7,1-1
									c-0.8,0-1.5-0.4-2.6,0.3c0.2-0.3,0.7-0.8,1-0.9c-1.2,0-0.2-0.7-1.2-0.9c0.2,0.2,1.2-0.7,1,0c1.3-1.3-0.9-0.7-0.5-1.8
									l-1.1,0.4c-0.4-0.2,0.5-0.8,1-0.8c0.3-0.9-0.5-0.8-0.8-1.2c0.1-0.1,0.3-0.2,0.3-0.1l-0.3-0.6c-0.3,0.1-0.9,0.2-1.5,0.7
									C341.6,250.2,342,250.1,341.9,250.6z"/>
								<path class="st153" d="M341,250.5l-0.1,0.1l0,0C341,250.5,341,250.5,341,250.5z"/>
								<path class="st153" d="M340.4,258.4c0.2-0.2,0.3-0.3,0.3-0.4C340.5,258.1,340.4,258.3,340.4,258.4z"/>
								<path class="st153" d="M335.9,246.2c-1.5,1,0.5,0.2,0.2,0.7c-0.4-0.1-1.2,0.5-1.6,0.8c2.1-0.9-0.2,0.6,0.6,0.9
									c-0.6,0.4-0.9,0.2-1.6,0.6c0.7,0,1.2,0.3,2.3-0.3c0.3,0.5,0.2,1.1,0.6,1.3c-0.7-0.1-1.1,0.6-2.2,0.9c1.5-0.4,3.5-0.5,5.4-1
									c-1.1,0.8-1.2,0.9-2.3,1.6c-0.4,1.1,1.2-0.5,1.2,0.3l0-0.4c0.5,0,1.6-0.7,2.5-1.1l-0.6-0.6c0.8-0.5,1,0,1.2,0
									c1.1-0.4,0.5-0.8,1.3-1.2c-0.7,0.3-0.7-0.1-1-0.1l0.4-0.3c0.2-0.6-0.9-0.1-1.1-0.4c0.1-0.1,0.2-0.2,0.3-0.2
									c-0.5,0.2-1.2,0.5-1.5,0.4l0.1,0.1c-1.2,0.4-2.2,0.2-3.1,1.4l-0.1-0.9c1.2-0.6,3-1.6,3.4-1.3l0.5-0.3
									c0.5-0.7-1.4-0.3-2.3,0.5c-2.9,1.4-0.8-1-2.2-0.8c0.7-0.5,1.2-0.4,1.8-0.6c0.2,0.1,0.3,0.2-0.4,0.6c0.8,0.4,2.3-1.6,2.5-0.7
									c-0.2,0.6-1.5,0.3-1.2,0.9l2.3-0.9c-0.3-0.3-0.8-0.4-1.2-0.5c-2.3-0.6-1.8-2.4-1.8-2.4c-1.6-2-3.1-4.1-4.6-6.1
									c-0.7-0.5-0.7-0.8-3,0.1c-0.3,0.4,0.1,0.7-0.7,1c0.8-0.4,1.4-0.3,1.5,0.1c-0.7,0.5-0.6-0.1-0.7,0.1l0,0.1
									c-0.4,0.2-0.7,0.3-0.8,0.2c-0.9,1.1-0.2,1.7,1.4,1.2c-0.6,0.8-1.3,0.5-2,0.6c0.1,1.5,0.7,2.2,1.3,3.5
									c1.3-0.8,0.9-0.4,1.9-0.8l-0.4,0.4c0.2-0.2,1.2-0.6,1.4-1c-0.6,1.3,2.3-0.3,3.1-0.2l-0.7,0.4c0.3,0.3,0.4,0.4,1,0.5
									c-0.9,1.4-0.5-0.4-2.1,0.8l0.4,0c-0.7,0.3-1.9,0.9-2.5,1c1.5-0.1,0.1,1.1,1.3,1.2c-0.8,0.4-1.8,0.2-1.9,0.1
									c0.1,0.3,0.8,0.3,0.2,0.8l1-0.5c0.4,0.3-0.9,0.5-1.5,1C332.4,248.4,334.8,245.8,335.9,246.2z"/>
								<path class="st153" d="M341.1,255.4c0-0.2-0.1-0.2-0.2-0.2C340.9,255.3,340.9,255.4,341.1,255.4z"/>
								<path class="st153" d="M338.1,254.9c-0.1,0.1-0.3,0.1-0.4,0.2C337.9,255.1,338,255,338.1,254.9z"/>
								<path class="st153" d="M336.7,255.6c0.4-0.3,0.5-0.2,1.1-0.5C337.4,255.2,337.2,254.9,336.7,255.6z"/>
								<path class="st153" d="M363.9,279.4c0.1-0.3,0.4-0.8,0.2-1c-0.2,0.2-0.4,0.3-0.6,0.5C363.7,279.1,363.8,279.3,363.9,279.4z"
									/>
								<path class="st153" d="M362.5,278.4c-0.2-0.2-0.4-0.3-0.5-0.5c-0.2,0.5-0.3,1-0.5,1.5C362.1,279.4,361.9,278.3,362.5,278.4z
									"/>
								<path class="st153" d="M361.1,277.4l0.2-0.3C361.2,277.2,361.2,277.3,361.1,277.4z"/>
								<path class="st153" d="M361,278c-0.1,0.3-0.3,0.7-0.4,1c0.3-0.2,0.6-0.4,0.9-0.7l-0.2-0.3c0.1-0.4-0.1-0.6,0-0.7
									c-0.1,0.2-0.3,0.5-0.4,0.7C360.8,278,361,277.8,361,278z"/>
								<path class="st153" d="M360.4,277.9c0,0.1,0,0.2,0,0.3C360.4,278.1,360.4,278,360.4,277.9z"/>
								<path class="st153" d="M360.1,275.6c-0.1,0.4-0.5,0.9-0.7,1.3c0.3,0.6,0.9-1,1-0.3c-0.8,0.6,0,0.7,0,1.4
									c0.1-1,0.2-1.8-0.1-2.2l-0.3,0.6C359.8,276.3,360.1,275.9,360.1,275.6z"/>
								<path class="st153" d="M357.3,276.1l0.8-0.7c-0.2,0.5,0.3,0.7-0.3,1.7c0.2,0,0.5-0.4,0.8-0.6c-0.1,0.5-0.2,1,0.3,0.4
									c-0.4-1-0.1-1.1-0.5-1.7c0.1-0.2,0.2-0.1,0.2,0c0-0.2-0.1-0.5-0.1-0.7C357.9,275.4,357.4,275.2,357.3,276.1z"/>
								<path class="st153" d="M357.2,275.1c0.3,0.1,1-0.6,1.2-1.2c-0.3,0.1-0.7,0.2-1,0.3C357.6,274.2,357.9,274.3,357.2,275.1z"/>
								<path class="st153" d="M356.8,274.8c0.2-0.5,0.7-1.6-0.1-0.9C357.1,274,356,275.1,356.8,274.8z"/>
								<path class="st153" d="M355.4,272.4l0.1,1c-0.8,1.1-0.5,0.1-1.1,0.4c0.3,0.6,0.4,0.1,1.3-0.2c0.1,0.2,0.7-0.2,1.1-0.4
									C355.4,273.5,357.5,270.9,355.4,272.4z"/>
								<polygon class="st153" points="355.6,274.4 356,274 355.5,274.1 								"/>
								<path class="st153" d="M355.3,270.3c0.8-1.4-1.2,0.2-1-0.7c0.1,0,0.2-0.2,0.4-0.2l-0.4-0.1l0.2-0.3
									c-0.7,0.7-1.2,0.7-1.9,1.1c-0.5,1,1-0.7,0.4,0.3c-0.4,0.3-0.9,0.7-1.2,0.9c0.5-0.2,1-0.5,1.4-0.8c0.3,0.1-0.2,0.4-0.4,0.7
									c0.6-0.2,1.6-1.2,1.7-0.7c-0.4,0.8-1,0.9-0.5,0.9c0.9-1.3,0.2,0.5,1-0.1c0.1,0.5-0.4,1.3-0.8,1.7c0.8-0.9,1.7-1.5,2.1-1.6
									c-0.4,0.1-0.7,0.3-1.1,0.4l0.8-1.2C355.4,270.9,355.3,270.6,355.3,270.3L355.3,270.3z"/>
								<path class="st153" d="M351.9,271.3c-0.1,0-0.2,0.1-0.3,0.1C351.6,271.4,351.7,271.4,351.9,271.3z"/>
								<polygon class="st153" points="354.1,273.4 353.8,273.5 353.6,273.9 								"/>
								<path class="st153" d="M350.9,271.7c0,0.1,0.4-0.2,0.4-0.3l-0.6,0.4L350.9,271.7z"/>
								<polygon class="st153" points="351.3,270.8 351.8,270.1 351.2,270.5 								"/>
								<path class="st153" d="M346.4,264c-0.2,0.5,0.5-0.1,1.1-0.5C347.4,263,346.9,264,346.4,264z"/>
								<path class="st153" d="M342.3,260.5c-0.3,0.6,0.6,0.3,0.7,0.5C343.3,260.5,342.8,260.4,342.3,260.5z"/>
								<path class="st153" d="M338.3,260.5c0.3-0.1,0.5-0.1,0.5-0.3l1.6-0.8C340.6,258.8,338.9,260.1,338.3,260.5z"/>
								<path class="st153" d="M336.7,258.6l0.8,0l-0.1-0.2c0.6-0.3,0.9-0.4,1.5-0.6C338.4,257.7,337.7,257.8,336.7,258.6z"/>
								<path class="st153" d="M339.3,257.9c0,0-0.1,0-0.2-0.1C339,257.9,338.8,258.1,339.3,257.9z"/>
								<path class="st153" d="M339,257.7c-0.1,0-0.1,0-0.2,0.1c0.1,0,0.2,0,0.3,0.1C339.3,257.7,339.3,257.6,339,257.7z"/>
								<path class="st153" d="M337.2,257.8l-0.6-0.5l-0.1,0.4C337.4,257.2,336.2,258.4,337.2,257.8z"/>
								<path class="st153" d="M335.8,254.2l0.8-0.6c-0.1-0.5-2.2,0.2-1-0.9c-0.4,0.5-1.2,0.3-1.1,0.9
									C335.4,253.3,335.9,253.8,335.8,254.2z"/>
								<path class="st153" d="M336.2,252c0.3-0.1,0.4-0.3,0.6-0.5c0-0.2-0.5-0.1-0.8,0.2C337.2,251,335.4,252.3,336.2,252z"/>
								<path class="st153" d="M335,250.3c0.1,0.1,0.3,0.2,0.4-0.1c-0.3-0.3-1.2,0.4-1.9,0.6C333.2,251.4,334.7,250.8,335,250.3z"/>
								<path class="st153" d="M339.8,243.6c-0.7,0.5-0.5,0.7-0.2,0.6C339.4,244.2,339.6,243.9,339.8,243.6z"/>
								<polygon class="st153" points="333.5,247.4 333.4,247.6 334.6,247 								"/>
								<polygon class="st153" points="331.7,245.8 330.8,246 331.1,246.3 								"/>
								<path class="st153" d="M331.6,245.3l-0.3-0.3l-0.2,0.3C331,245.6,331.5,245.2,331.6,245.3z"/>
								<path class="st153" d="M330.8,244.4c0.1,0,0,0.1-0.1,0.2l0.7,0L330.8,244.4z"/>
								<path class="st153" d="M332.5,236.2c0.8-0.4,0.2-0.4,0.3-0.6C332.6,235.7,331.7,236.4,332.5,236.2z"/>
							</g>
						</g>
					</g>
				</g>
			</g>
			<path class="st160" d="M193,215.8c0,0,7.3,37,12.9,53h27l-2.3-35.6C230.7,233.2,206.5,212.4,193,215.8z"/>
			<g>
				<defs>
					<path id="SVGID_00000034084795259143920260000004322848824785989289_" d="M193,215.8c0,0,7.3,37,12.9,53h27l-2.3-35.6
						C230.7,233.2,206.5,212.4,193,215.8z"/>
				</defs>
				<clipPath id="SVGID_00000142133614721149522340000006401949789593996450_">
					<use xlink:href="#SVGID_00000034084795259143920260000004322848824785989289_"  style="overflow:visible;"/>
				</clipPath>
				<g style="opacity:0.78;clip-path:url(#SVGID_00000142133614721149522340000006401949789593996450_);">
					<g>
						<g>
							<g>
								<path class="st153" d="M212,228.2c-0.1,0.1-0.2,0.2-0.3,0.3C211.7,228.5,211.8,228.4,212,228.2z"/>
								<path class="st153" d="M220.6,234.4C220.6,234.4,220.6,234.4,220.6,234.4l0.1-0.1L220.6,234.4z"/>
								<path class="st153" d="M220.7,234.3l0.3-0.4C220.7,234,220.7,234.1,220.7,234.3z"/>
								<path class="st153" d="M209.3,230.5c-0.1,0-0.3,0.1-0.6,0.4L209.3,230.5z"/>
								<path class="st153" d="M209.1,232.9c0,0.1-0.1,0.2-0.1,0.3C209.1,233,209.1,232.9,209.1,232.9z"/>
								<path class="st153" d="M204.7,221.7c0.1,0,0.1-0.1,0.1-0.1C204.8,221.6,204.7,221.7,204.7,221.7z"/>
								<path class="st153" d="M203.6,222c0-0.1-0.1-0.1-0.1-0.1l-0.1,0.1C203.3,222.1,203.5,222,203.6,222z"/>
								<path class="st153" d="M203.5,222.7l-0.2,0C203.3,222.7,203.4,222.7,203.5,222.7z"/>
								<path class="st153" d="M195.9,224.7l-0.3,0.4C195.8,224.9,195.9,224.8,195.9,224.7z"/>
								<path class="st153" d="M205.2,221.3c-0.1,0.1-0.2,0.2-0.4,0.3C205,221.5,205.1,221.5,205.2,221.3z"/>
								<path class="st153" d="M212.1,228c-0.1,0.1-0.1,0.1-0.1,0.2C212,228.1,212.1,228.1,212.1,228z"/>
								<path class="st153" d="M208.8,230.1L208.8,230.1C208.8,230.1,208.8,230.1,208.8,230.1z"/>
								<path class="st153" d="M224.2,235.9c0.1,0,0.2,0,0.3,0C224.4,235.6,224.3,235.7,224.2,235.9z"/>
								<path class="st153" d="M206.3,224.2c-0.8,1.3-0.4-0.2-1.2,1.1c0.4-0.2,0.6-0.3,0.2,0.4c-0.6,0.6-0.3-0.3-1.1,0.7l0.5-0.2
									c-0.2,0.6-1,1.3-0.8,1.3c1.2-1.3,0.3,1.1,0.7,1l-0.2,0.1l-0.1,0.9c0,0,0,0.1,0,0.1c0.1-0.1,0.1-0.2,0.2-0.3
									c-0.3,0.8-0.4,1.5,0,1.5c0.7-0.7,1.2,0.4,1.8-0.2c-0.3,0.1-0.4,0.1-0.4-0.3l0.7-1c0.3,0.2-0.6,0.9,0.1,0.5
									c0.8-1.4-0.4-0.3-0.5-0.5c0.3-0.3,0.6-0.5,0.8-0.5c-0.4-0.3-0.4-1-1.6,0.1c0.1-0.4,0.5-0.9,0.7-1c-0.8,0.6,0.3-0.9-0.4-0.4
									c0.9-1.2,1-0.2,1.8-0.8c-0.3,1.2,0.8,0.6,1.3,0.7c-0.6,0.9-1.4,1.5-1.6,2.2c0,0.9,0.7-0.2,1.3-0.6c0.1,0.5-1,1.6-0.5,1.9
									l-0.7,0.4c-0.6,1.5,0.6-0.4,0.6,0c0.2-0.4,0.4-0.7,0.1-0.8c0.3-0.5,0.6-0.6,0.7-0.6l0-0.1c0.5-0.6,1-1.2,1.1-0.7
									c-0.7,0.7-0.1,0.7-0.3,1.1l-0.2,0.1c0.4-0.1,0.5,0.1,0.8,0.1l-0.1,0.2c0.4-0.2,1-1.1,1.1-0.8c-0.3,0.4-1.2,1.3-0.9,1.3
									c-0.4,0.6-0.7,0.4-0.8,0.1c0.1,0.4-0.4,1.4-0.7,1.3c-0.4,0.8,0.5-0.1,0.4,0.3c0.1-0.2,0.3-0.5,0.5-0.7c-0.6,1,0.5,0.4,1-0.3
									l-0.6,0.4c0.5-0.8,1.2-1.1,1.3-1.7c-0.7,1.4,1.1-0.2,0.6,1l0.3-0.7c0.3,0.8,1.7-0.4,2.5-0.4c-0.4,0.3-1.3,1.7-1.4,1
									c0.4,0.6-0.7,1.5-0.9,2.3c0.1,0.8,1-1.2,1.4-1.5l-0.5,0.1c1.4-1.4,0.9,1,2.1,0.4c-0.2,0.5-0.3,0.2-0.4,0.3
									c-0.2,1,0.4,0,0.7-0.3c0.2,0.3,0.3,0.9-0.4,1.8c0.2,0.4,0.3-0.7,0.7-0.9l-0.1,0.3l1-1c0.1,0.5,0.1,1.3-0.3,2.3
									c0.8,0.2,1.5-2.3,2.2-2.4c0,0.7-0.5,0.8-0.7,1.2l0.5,0.1c-0.8,1.1-0.8,0.3-1.5,1.7c1.1-1.2,0.7-0.1,1.6-0.8l0-0.1
									c0.7-0.8,0.8,0.1,1.2,0c-0.4,0.5-0.7,0.4-1.1,0.5c0.1,0.6,1.1,0.6,2-0.5c0.1,0.3,0.2,1-0.3,1.4c0.5,0.5,1.1-1.7,1.5-1
									l-0.5,0.9c-0.1,1.7,1.7-0.7,1.7,0.8l0.6-1.2c-0.1,0.5,0,0.9-0.1,1.4l-0.5,0.3c-0.2,1.1,0.7-0.8,0.7,0
									c0.2-0.4,0.3-1.3,0.4-1.7c-1.5,0.1-1.9-2.1-3.6-1.5c0,0.2-0.1,0.3-0.2,0.6c0-0.3-0.4-0.2,0-0.8l0.1-0.1
									c-0.4,0.1,0-1.4-0.2-1.5c-0.5,0.7-0.5-0.7-1,0.7l0.2-0.9c-0.3,0.5-0.6,1.1-0.9,1.3c-0.2-0.2,0.1-0.7,0.5-1
									c-0.5-0.9-1.5-1.3-2.6-1.4l0.6-0.5c0-0.4-1.3,0.7-0.3-0.8c-0.8,0.4-0.8-1.1-1.8,0.5c0.7-1.7-0.5-1.2-1.2-1.4
									c-0.7,1.4-0.7,0.1-1.2,0.7c0.6-1.1,1.1-0.8,1.6-1.5c-1.6,1.3-0.8-2.1-2.7,0.4c0-0.1,0.1-0.3,0.2-0.3c-0.1-0.1,0-0.6,0-0.8
									c-0.4,0.4-0.3,0.8-0.6,0.8c-0.1-0.2,0.5-0.9,0.6-1.3c-0.8,0.4-1.5,0.2-2.3,1.2c0.1-0.4,0.3-1.1,0.6-1.2
									c-1.2,0.4-0.5-0.5-1.5-0.4c0.2,0.1,0.9-1.1,0.9-0.4c0.7-1.7-1.1-0.4-1.1-1.5l-0.8,0.8c-0.4,0,0.2-1,0.6-1.2
									c-0.1-0.9-0.8-0.5-1.2-0.8c0.1-0.1,0.2-0.3,0.2-0.2l-0.5-0.4c-0.2,0.2-0.7,0.5-1.1,1.2C205.9,223.9,206.2,223.6,206.3,224.2
									z"/>
								<path class="st153" d="M205.4,224.4l-0.1,0.1l0,0C205.4,224.4,205.4,224.4,205.4,224.4z"/>
								<path class="st153" d="M207.8,232c0.1-0.3,0.1-0.4,0.1-0.5C207.9,231.6,207.8,231.8,207.8,232z"/>
								<path class="st153" d="M199,222.4c-1,1.5,0.5,0,0.5,0.6c-0.4,0.1-0.9,0.9-1.2,1.4c1.6-1.6,0.1,0.6,0.9,0.6
									c-0.4,0.6-0.7,0.5-1.3,1.2c0.6-0.3,1.3-0.2,2.1-1.2c0.5,0.3,0.6,1,1,1c-0.7,0.2-0.8,1-1.7,1.7c1.2-0.9,3.1-1.8,4.6-3
									c-0.7,1.2-0.8,1.3-1.6,2.3c0.1,1.2,0.9-0.9,1.2-0.2l-0.1-0.4c0.5-0.2,1.3-1.2,1.9-1.9l-0.8-0.3c0.6-0.8,0.9-0.4,1.1-0.5
									c0.8-0.8,0.1-0.9,0.7-1.6c-0.5,0.6-0.6,0.2-1,0.3l0.3-0.4c0-0.7-0.9,0.3-1.2,0.1c0.1-0.1,0.1-0.2,0.2-0.3
									c-0.4,0.4-0.9,0.9-1.2,1l0.2,0c-0.9,0.8-2,1.1-2.4,2.4l-0.4-0.8c0.9-1,2.2-2.6,2.6-2.5l0.4-0.4c0.2-0.8-1.4,0.3-1.9,1.4
									c-2.2,2.4-1.1-0.6-2.4,0.1c0.5-0.7,1-0.8,1.4-1.2c0.2,0,0.3,0.1-0.1,0.7c0.9,0,1.5-2.4,2-1.6c0.1,0.6-1.2,0.9-0.8,1.3
									l1.8-1.7c-0.4-0.2-0.9,0-1.3,0c-2.3,0.3-2.5-1.5-2.5-1.5c-2.2-1.3-4.4-2.6-6.6-3.9c-0.8-0.2-1-0.5-2.7,1.2
									c-0.2,0.5,0.4,0.6-0.3,1.2c0.6-0.7,1.2-0.9,1.4-0.5c-0.5,0.7-0.6,0.1-0.6,0.3l0,0.1c-0.3,0.3-0.6,0.5-0.7,0.5
									c-0.4,1.3,0.4,1.7,1.7,0.5c-0.2,1-1,0.9-1.6,1.4c0.7,1.4,1.5,1.8,2.5,2.7c1-1.2,0.7-0.7,1.5-1.4l-0.2,0.5
									c0.1-0.3,0.9-1,0.9-1.4c-0.1,1.4,2-1.1,2.8-1.3l-0.5,0.6c0.4,0.1,0.6,0.2,1.1,0.1c-0.3,1.6-0.6-0.2-1.7,1.5l0.4-0.1
									c-0.5,0.5-1.5,1.6-2,1.9c1.3-0.6,0.5,1,1.7,0.6c-0.6,0.7-1.6,0.8-1.8,0.8c0.2,0.2,0.9,0,0.4,0.6l0.7-0.9
									c0.4,0.1-0.7,0.8-1,1.5C196.6,225.8,197.9,222.4,199,222.4z"/>
								<path class="st153" d="M207.4,229c-0.1-0.2-0.2-0.2-0.3-0.1C207.1,228.9,207.2,229,207.4,229z"/>
								<path class="st153" d="M204.4,229.6c-0.1,0.1-0.2,0.2-0.3,0.3C204.3,229.8,204.4,229.7,204.4,229.6z"/>
								<path class="st153" d="M203.4,230.7c0.2-0.5,0.4-0.4,0.8-0.9C203.9,230.1,203.6,229.9,203.4,230.7z"/>
								<path class="st153" d="M237.6,242.5c-0.1-0.3,0.1-0.9-0.2-1c-0.1,0.2-0.2,0.5-0.3,0.7C237.3,242.3,237.4,242.4,237.6,242.5z
									"/>
								<path class="st153" d="M235.9,242.1c-0.2-0.1-0.5-0.1-0.7-0.2c0,0.5,0.1,1,0.1,1.6C235.9,243.2,235.3,242.3,235.9,242.1z"/>
								<path class="st153" d="M234.2,241.7l0-0.4C234.2,241.5,234.2,241.6,234.2,241.7z"/>
								<path class="st153" d="M234.3,242.3c0,0.4,0,0.7,0,1.1c0.2-0.3,0.4-0.6,0.6-0.9l-0.3-0.1c-0.1-0.4-0.3-0.5-0.3-0.7
									c0,0.3-0.1,0.5-0.1,0.8C234.2,242.4,234.3,242.2,234.3,242.3z"/>
								<path class="st153" d="M233.8,242.4c0,0.1,0.1,0.2,0.1,0.3C233.9,242.6,233.8,242.5,233.8,242.4z"/>
								<path class="st153" d="M232.6,240.4c0.1,0.4-0.1,1-0.2,1.5c0.5,0.4,0.4-1.2,0.8-0.7c-0.5,0.9,0.2,0.7,0.6,1.2
									c-0.3-1-0.5-1.7-0.9-2l0,0.7C232.6,241.2,232.7,240.7,232.6,240.4z"/>
								<path class="st153" d="M230.2,241.9l0.5-1c0,0.5,0.5,0.6,0.4,1.6c0.2-0.1,0.3-0.6,0.5-0.9c0.1,0.5,0.2,1,0.4,0.2
									c-0.8-0.8-0.5-1-1.1-1.4c0-0.2,0.1-0.2,0.2-0.1c-0.1-0.2-0.2-0.4-0.3-0.6C230.5,241.1,229.9,241,230.2,241.9z"/>
								<path class="st153" d="M229.7,241c0.4,0,0.7-0.9,0.7-1.6c-0.3,0.2-0.6,0.4-0.9,0.7C229.7,240.1,230,240,229.7,241z"/>
								<path class="st153" d="M229.2,240.9c0-0.6,0.1-1.8-0.4-0.8C229.2,240.1,228.6,241.5,229.2,240.9z"/>
								<path class="st153" d="M227.1,239.3l0.4,0.9c-0.3,1.3-0.4,0.3-0.8,0.8c0.5,0.4,0.4,0,1.1-0.7c0.1,0.1,0.6-0.5,0.9-0.8
									C227.5,240.3,228.4,237.1,227.1,239.3z"/>
								<polygon class="st153" points="228,241 228.2,240.5 227.8,240.8 								"/>
								<path class="st153" d="M226.1,237.3c0.2-1.6-1,0.6-1.2-0.2c0.1-0.1,0.1-0.2,0.3-0.3l-0.4,0l0.1-0.3
									c-0.4,0.9-0.9,1.1-1.3,1.7c0,1.1,0.7-1,0.5,0.1c-0.2,0.4-0.6,1-0.8,1.3c0.4-0.4,0.7-0.9,1-1.3c0.3,0,0,0.5-0.1,0.8
									c0.5-0.4,1-1.7,1.3-1.3c0,0.9-0.6,1.2-0.1,1c0.3-1.5,0.4,0.4,0.9-0.4c0.2,0.4,0.1,1.4-0.1,1.9c0.4-1.1,1-2,1.4-2.2
									c-0.3,0.3-0.6,0.5-0.9,0.8l0.3-1.4C226.5,237.9,226.3,237.7,226.1,237.3L226.1,237.3z"/>
								<path class="st153" d="M223.3,239.5c-0.1,0.1-0.1,0.1-0.2,0.2C223.1,239.7,223.2,239.7,223.3,239.5z"/>
								<polygon class="st153" points="226.2,240.6 225.9,240.9 225.9,241.3 								"/>
								<path class="st153" d="M222.6,240.3c0.1,0.1,0.3-0.3,0.2-0.4l-0.4,0.5L222.6,240.3z"/>
								<polygon class="st153" points="222.7,239.3 222.8,238.5 222.4,239.1 								"/>
								<path class="st153" d="M215.5,234.8c0,0.6,0.4-0.3,0.8-0.9C216.1,233.6,215.9,234.7,215.5,234.8z"/>
								<path class="st153" d="M210.4,233.2c-0.1,0.7,0.7,0,0.9,0.2C211.3,232.8,210.9,232.9,210.4,233.2z"/>
								<path class="st153" d="M206.8,234.7c0.2-0.2,0.4-0.3,0.3-0.5l1.2-1.3C208.2,232.2,207.1,234.1,206.8,234.7z"/>
								<path class="st153" d="M204.5,233.5l0.7-0.3L205,233c0.5-0.5,0.7-0.7,1.1-1.1C205.7,232.1,205.1,232.4,204.5,233.5z"/>
								<path class="st153" d="M206.6,231.9c-0.1,0-0.1,0-0.2,0C206.4,232,206.3,232.3,206.6,231.9z"/>
								<path class="st153" d="M206.3,231.8c-0.1,0.1-0.1,0.1-0.2,0.1c0.1,0,0.2-0.1,0.3-0.1C206.5,231.7,206.5,231.6,206.3,231.8z"
									/>
								<path class="st153" d="M204.7,232.6l-0.7-0.2l0,0.4C204.6,232,203.9,233.5,204.7,232.6z"/>
								<path class="st153" d="M202,229.8l0.5-0.9c-0.2-0.4-2,1.1-1.3-0.5c-0.2,0.6-1,0.7-0.7,1.3
									C201.3,229.1,201.9,229.4,202,229.8z"/>
								<path class="st153" d="M201.5,227.6c0.2-0.2,0.3-0.4,0.4-0.7c-0.1-0.2-0.5,0.1-0.7,0.5C202.1,226.3,200.9,228.2,201.5,227.6
									z"/>
								<path class="st153" d="M199.8,226.5c0.1,0.1,0.3,0.1,0.3-0.2c-0.4-0.2-0.9,0.8-1.5,1.3C198.5,228.2,199.6,227.1,199.8,226.5
									z"/>
								<path class="st153" d="M201.7,218.5c-0.5,0.7-0.2,0.8,0.1,0.6C201.6,219.2,201.6,218.9,201.7,218.5z"/>
								<polygon class="st153" points="197.3,224.4 197.3,224.6 198.2,223.6 								"/>
								<polygon class="st153" points="195,223.6 194.2,224.1 194.7,224.3 								"/>
								<path class="st153" d="M194.7,223.1l-0.4-0.2l-0.1,0.4C194.3,223.6,194.6,223.1,194.7,223.1z"/>
								<path class="st153" d="M193.7,222.6c0.1,0,0,0.1,0,0.2l0.6-0.2L193.7,222.6z"/>
								<path class="st153" d="M192.1,214.4c0.6-0.7,0-0.4,0.1-0.6C192,213.9,191.5,214.9,192.1,214.4z"/>
							</g>
						</g>
					</g>
				</g>
			</g>
			<path class="st164" d="M372.2,232.3c0,0-33.6,22.2-97.4,15.5c-63.8-6.6-108.4-54.1-108.4-54.1s134.9,44.1,161,40.4
				S372.2,232.3,372.2,232.3z"/>
			<g>
				<defs>
					<path id="SVGID_00000152950932596788522920000000853300695097912740_" d="M372.2,232.3c0,0-33.6,22.2-97.4,15.5
						c-63.8-6.6-108.4-54.1-108.4-54.1s134.9,44.1,161,40.4S372.2,232.3,372.2,232.3z"/>
				</defs>
				<clipPath id="SVGID_00000026868061325825406570000012435879183125650328_">
					<use xlink:href="#SVGID_00000152950932596788522920000000853300695097912740_"  style="overflow:visible;"/>
				</clipPath>
				<g style="opacity:0.78;clip-path:url(#SVGID_00000026868061325825406570000012435879183125650328_);">
					<g>
						<g>
							<g>
								<path class="st153" d="M237.9,239.3c0.1,0,0.3,0,0.4,0C238.3,239.3,238.2,239.3,237.9,239.3z"/>
								<path class="st153" d="M236.3,228.8C236.3,228.8,236.3,228.8,236.3,228.8l-0.1,0L236.3,228.8z"/>
								<path class="st153" d="M236.2,228.8l-0.5,0.1C235.9,229,236,228.9,236.2,228.8z"/>
								<path class="st153" d="M241.4,239.6c0.1,0.1,0.3,0.1,0.7,0.2L241.4,239.6z"/>
								<path class="st153" d="M243.2,238.1c0.1,0,0.2-0.1,0.2-0.1C243.4,238,243.3,238.1,243.2,238.1z"/>
								<path class="st153" d="M238.3,249.1c-0.1,0-0.1,0-0.2,0C238.2,249.1,238.2,249.1,238.3,249.1z"/>
								<path class="st153" d="M239.3,249.6c0,0.1,0,0.1,0,0.2l0.1,0C239.5,249.8,239.4,249.7,239.3,249.6z"/>
								<path class="st153" d="M239.9,249.2l0.1,0.1C240,249.3,239.9,249.3,239.9,249.2z"/>
								<path class="st153" d="M246.5,253.2l0.5,0C246.8,253.2,246.7,253.2,246.5,253.2z"/>
								<path class="st153" d="M237.7,249c0.1,0,0.3,0,0.5,0C238,249,237.9,248.9,237.7,249z"/>
								<path class="st153" d="M237.6,239.4c0.1,0,0.2,0,0.2,0C237.8,239.3,237.7,239.3,237.6,239.4z"/>
								<path class="st153" d="M241.4,240.3L241.4,240.3C241.4,240.2,241.4,240.3,241.4,240.3z"/>
								<path class="st153" d="M234.8,225.2c-0.1-0.1-0.2-0.2-0.3-0.2C234.5,225.2,234.6,225.2,234.8,225.2z"/>
								<path class="st153" d="M239,246.2c1.5-0.4,0.1,0.4,1.6,0.1c-0.4-0.1-0.6-0.2,0.1-0.5c0.9,0,0,0.4,1.3,0.3l-0.5-0.2
									c0.6-0.3,1.6-0.2,1.5-0.4c-1.8,0.1,0.5-1,0.2-1.2l0.2,0.1l0.7-0.6c0,0,0.1,0,0.1,0c-0.1,0-0.2,0-0.3,0
									c0.8-0.3,1.4-0.8,1.1-1.1c-1,0-0.5-1.1-1.4-1.1c0.3,0.1,0.3,0.2,0.1,0.5l-1.2,0.2c0-0.3,1.1-0.2,0.3-0.4
									c-1.6,0.4,0.1,0.5,0,0.7c-0.4,0-0.7-0.1-0.9-0.2c0,0.5-0.4,1,1.2,1.1c-0.3,0.2-1,0.3-1.2,0.2c1,0.2-0.9,0.4,0,0.6
									c-1.5,0.2-0.9-0.6-1.8-0.7c1.1-0.7-0.1-1-0.4-1.4c1.1-0.2,2.1-0.1,2.7-0.4c0.6-0.6-0.7-0.4-1.4-0.5c0.3-0.4,1.8-0.4,1.8-1
									l0.8,0.2c1.5-0.6-0.7-0.2-0.4-0.5c-0.4,0.2-0.8,0.2-0.7,0.5c-0.6,0.1-0.8,0-0.9-0.1l0,0.1c-0.8,0-1.6,0.2-1.3-0.3
									c0.9,0,0.6-0.4,1-0.6l0.2,0c-0.4-0.2-0.3-0.5-0.5-0.6l0.2,0c-0.4-0.1-1.5,0.1-1.4-0.3c0.5-0.1,1.8,0,1.5-0.3
									c0.7-0.1,0.8,0.2,0.6,0.5c0.2-0.3,1.3-0.7,1.4-0.4c0.8-0.3-0.4-0.2-0.1-0.5c-0.3,0.1-0.6,0.1-0.8,0.2c1.2-0.3,0-0.7-0.9-0.5
									l0.7,0.2c-0.9,0.2-1.6,0-2.1,0.2c1.4-0.5-0.9-0.7,0.3-1.1l-0.7,0.3c0.3-0.8-1.5-0.9-2-1.5c0.5,0.1,2.1-0.2,1.7,0.3
									c0.2-0.7,1.6-0.6,2.3-0.9c0.5-0.6-1.6,0.1-2.1,0.1l0.4,0.3c-2,0,0.1-1.4-1.2-1.8c0.5-0.2,0.3,0.1,0.5,0.1
									c0.9-0.5-0.3-0.2-0.7-0.3c0.1-0.4,0.4-0.8,1.6-1c0.2-0.4-0.7,0.2-1.1,0.1l0.2-0.1l-1.4,0c0.3-0.4,0.8-0.9,1.9-1.4
									c-0.4-0.6-2.7,0.5-3.3,0.1c0.5-0.5,0.9-0.2,1.4-0.3l-0.2-0.4c1.3-0.2,0.8,0.3,2.3-0.1c-1.6,0-0.6-0.4-1.7-0.6l-0.1,0.1
									c-1.1,0.1-0.5-0.6-0.8-0.9c0.7-0.1,0.8,0.2,1.1,0.4c0.4-0.5-0.3-1.2-1.8-1c0.1-0.2,0.6-0.8,1.2-0.7c0-0.7-2,0.3-1.8-0.4
									l1-0.3c1.2-1.1-1.7-0.8-0.6-1.8l-1.2,0.4c0.5-0.3,0.6-0.7,1.1-0.9l0.5,0.1c0.9-0.6-1.1,0.1-0.5-0.5
									c-0.4,0.1-1.1,0.7-1.5,0.9c1.2,1-0.2,2.8,1.4,3.6c0.1-0.1,0.3-0.2,0.5-0.2c-0.3,0.2,0.1,0.4-0.5,0.6l-0.1,0
									c0.4,0.2-1,1-1,1.2c0.9-0.1-0.2,0.8,1.2,0.2l-0.8,0.5c0.6-0.1,1.2-0.3,1.6-0.3c-0.1,0.3-0.6,0.4-1,0.4c-0.3,1,0.1,2,0.8,2.8
									l-0.7-0.1c-0.3,0.3,1.4,0.5-0.4,0.7c0.8,0.3-0.2,1.3,1.6,0.9c-1.7,0.7-0.5,1.3-0.1,1.8c1.5-0.5,0.6,0.4,1.3,0.4
									c-1.2,0.4-1.4-0.2-2.2-0.1c2,0.2-1,2.1,2.2,1.7c-0.1,0.1-0.2,0.1-0.4,0.1c0,0.1-0.5,0.4-0.6,0.6c0.6,0,0.8-0.4,1-0.1
									c-0.1,0.3-1,0.3-1.3,0.5c0.8,0.3,1.2,1,2.5,0.8c-0.3,0.2-1,0.5-1.3,0.4c1.1,0.5,0,0.7,0.7,1.3c-0.1-0.2-1.4,0.1-0.9-0.3
									c-1.7,0.6,0.5,1-0.3,1.8l1.2,0c0.3,0.3-0.8,0.5-1.3,0.4c-0.6,0.7,0.2,0.9,0.2,1.4c-0.1,0.1-0.4,0.1-0.3,0l0.1,0.7
									c0.3,0,0.9,0.2,1.6,0C239,246.7,238.6,246.6,239,246.2z"/>
								<path class="st153" d="M239.7,246.7l0.1,0l0,0C239.8,246.7,239.7,246.7,239.7,246.7z"/>
								<path class="st153" d="M243.5,239.7c-0.3,0.1-0.4,0.2-0.4,0.3C243.2,239.8,243.4,239.8,243.5,239.7z"/>
								<path class="st153" d="M242.7,252.6c1.7-0.3-0.3-0.4,0.1-0.7c0.3,0.2,1.3,0,1.8-0.1c-2.3,0,0.4-0.5-0.2-1.1
									c0.7-0.1,0.9,0.2,1.7,0.1c-0.6-0.3-1-0.8-2.3-0.6c-0.1-0.6,0.3-1.1,0-1.4c0.6,0.4,1.3-0.1,2.4,0c-1.5-0.2-3.4-0.9-5.3-1.2
									c1.4-0.3,1.5-0.4,2.8-0.5c0.8-0.9-1.3,0-1-0.7l-0.2,0.4c-0.5-0.2-1.8,0-2.7,0l0.3,0.8c-0.9,0.2-0.9-0.4-1.2-0.5
									c-1.2,0-0.7,0.6-1.6,0.6c0.8,0,0.6,0.3,0.9,0.5l-0.5,0.1c-0.5,0.5,0.8,0.4,0.9,0.8c-0.1,0.1-0.2,0.1-0.3,0.1
									c0.6,0,1.3,0,1.5,0.2l-0.1-0.1c1.3,0.1,2.1,0.7,3.4,0l-0.3,0.9c-1.3,0.1-3.4,0.3-3.6-0.2l-0.6,0c-0.7,0.5,1.2,0.8,2.3,0.4
									c3.3-0.2,0.3,1.2,1.7,1.6c-0.9,0.2-1.3-0.1-1.9-0.2c-0.1-0.2-0.2-0.3,0.6-0.4c-0.6-0.7-2.7,0.6-2.6-0.3
									c0.4-0.5,1.5,0.3,1.5-0.3l-2.5-0.1c0.1,0.4,0.6,0.7,0.9,0.9c1.9,1.5,0.7,2.9,0.7,2.9c0.6,2.5,1.2,5,1.8,7.4
									c0.4,0.8,0.4,1,2.8,1.1c0.5-0.2,0.2-0.7,1.1-0.6c-0.9,0-1.4-0.2-1.4-0.7c0.9-0.1,0.5,0.3,0.7,0.2l0.1-0.1
									c0.5,0,0.8,0,0.8,0.2c1.3-0.6,0.9-1.5-0.8-1.6c0.9-0.5,1.4,0.1,2.1,0.2c0.5-1.4,0.3-2.3,0.2-3.7c-1.5,0.2-1,0-2.1-0.1
									l0.6-0.2c-0.3,0.1-1.4,0-1.6,0.4c1.1-0.9-2.2-0.6-2.9-1.1l0.8-0.1c-0.2-0.4-0.2-0.5-0.7-0.9c1.4-0.9,0.3,0.6,2.3,0.1
									l-0.4-0.2c0.8,0,2.1,0,2.7,0.1c-1.4-0.5,0.4-1-0.7-1.6c0.9,0,1.7,0.5,1.8,0.7c0.1-0.3-0.7-0.6,0.2-0.8l-1.1,0.1
									c-0.2-0.4,1-0.1,1.7-0.3C246.8,252,243.5,253.4,242.7,252.6z"/>
								<path class="st153" d="M241.6,242.1c-0.1,0.1,0,0.2,0.1,0.3C241.8,242.3,241.7,242.2,241.6,242.1z"/>
								<path class="st153" d="M244.1,243.8c0.2,0,0.3,0,0.4,0C244.4,243.7,244.3,243.7,244.1,243.8z"/>
								<path class="st153" d="M245.7,243.7c-0.5,0.1-0.5,0-1.2,0C244.9,243.8,245,244.1,245.7,243.7z"/>
								<path class="st153" d="M230.2,211c-0.2,0.3-0.7,0.5-0.6,0.8c0.2-0.1,0.5-0.2,0.7-0.2C230.3,211.4,230.2,211.2,230.2,211z"/>
								<path class="st153" d="M231.1,212.5c0.1,0.2,0.2,0.4,0.3,0.6c0.3-0.4,0.7-0.8,1.1-1.1C231.9,211.7,231.6,212.8,231.1,212.5z
									"/>
								<path class="st153" d="M231.9,214l-0.3,0.2C231.8,214.2,231.9,214.1,231.9,214z"/>
								<path class="st153" d="M232.3,213.5c0.3-0.3,0.5-0.5,0.8-0.8c-0.4,0.1-0.7,0.2-1.1,0.3l0.1,0.3c-0.2,0.3-0.2,0.5-0.3,0.7
									c0.2-0.2,0.4-0.3,0.7-0.5C232.5,213.5,232.3,213.6,232.3,213.5z"/>
								<path class="st153" d="M232.8,213.8c0.1-0.1,0.1-0.2,0.2-0.3C232.9,213.6,232.8,213.7,232.8,213.8z"/>
								<path class="st153" d="M232.2,216.1c0.2-0.4,0.8-0.6,1.2-0.9c0-0.6-1.2,0.5-1.1-0.1c1-0.2,0.3-0.6,0.5-1.3
									c-0.5,0.9-0.8,1.6-0.8,2.1l0.5-0.5C232.7,215.5,232.3,215.7,232.2,216.1z"/>
								<path class="st153" d="M234.9,216.7l-1,0.3c0.4-0.3,0.1-0.8,0.9-1.4c-0.2-0.1-0.6,0.2-0.9,0.3c0.3-0.5,0.5-0.8-0.1-0.5
									c0,1.1-0.4,1.1-0.2,1.8c-0.2,0.1-0.2,0-0.2-0.1c-0.1,0.2-0.1,0.4-0.2,0.7C234.1,217.1,234.5,217.5,234.9,216.7z"/>
								<path class="st153" d="M234.6,217.7c-0.2-0.3-1.2,0.1-1.6,0.6c0.4,0,0.7,0.1,1.1,0.1C234,218.3,233.7,218.1,234.6,217.7z"/>
								<path class="st153" d="M234.9,218.1c-0.4,0.4-1.3,1.2-0.3,0.9C234.3,218.7,235.8,218.1,234.9,218.1z"/>
								<path class="st153" d="M235.2,220.8l0.3-0.9c1.2-0.7,0.5,0.1,1.2,0c0-0.7-0.3-0.3-1.3-0.3c0-0.2-0.7-0.1-1.2-0.1
									C235.7,219.8,232.7,221.3,235.2,220.8z"/>
								<polygon class="st153" points="235.8,218.9 235.3,219.1 235.8,219.2 								"/>
								<path class="st153" d="M234.5,222.8c-1.3,1,1.1,0.3,0.7,1c-0.1,0-0.2,0.1-0.4,0.1l0.3,0.3l-0.3,0.2c0.9-0.4,1.4-0.2,2.2-0.3
									c0.8-0.7-1.2,0.2-0.3-0.5c0.4-0.1,1.1-0.3,1.4-0.3c-0.5-0.1-1.1,0.1-1.6,0.2c-0.2-0.2,0.3-0.3,0.7-0.5c-0.6-0.1-2,0.5-1.8,0
									c0.7-0.6,1.3-0.4,0.8-0.7c-1.3,0.8,0-0.5-0.9-0.3c0.1-0.4,0.9-1.1,1.4-1.2c-1.1,0.5-2.1,0.7-2.6,0.6c0.4,0,0.8,0.1,1.2,0.1
									l-1.2,0.8c0.7,0,0.7,0.3,0.7,0.6L234.5,222.8z"/>
								<path class="st153" d="M238,223.3c0.1,0,0.2,0,0.3,0C238.3,223.3,238.2,223.3,238,223.3z"/>
								<polygon class="st153" points="236.8,220.5 237.2,220.5 237.5,220.2 								"/>
								<path class="st153" d="M239.1,223.2c0-0.1-0.4,0-0.4,0.1l0.7-0.1L239.1,223.2z"/>
								<polygon class="st153" points="238.4,223.9 237.7,224.4 238.3,224.3 								"/>
								<path class="st153" d="M240.1,232.1c0.4-0.4-0.5-0.1-1.2,0C238.8,232.6,239.7,232,240.1,232.1z"/>
								<path class="st153" d="M242.5,237c0.5-0.4-0.4-0.5-0.5-0.8C241.6,236.6,242,236.8,242.5,237z"/>
								<path class="st153" d="M246.2,238.5c-0.3,0-0.5-0.1-0.6,0.1l-1.7,0.1C243.4,239.2,245.4,238.7,246.2,238.5z"/>
								<path class="st153" d="M246.9,241l-0.7-0.3l0,0.2c-0.7,0-1,0-1.6,0C245,241.1,245.7,241.3,246.9,241z"/>
								<path class="st153" d="M244.2,240.6c0,0,0.1,0.1,0.1,0.1C244.5,240.6,244.8,240.6,244.2,240.6z"/>
								<path class="st153" d="M244.4,240.9c0.1,0,0.1,0,0.2,0c-0.1-0.1-0.2-0.1-0.3-0.2C244.2,240.8,244.1,240.8,244.4,240.9z"/>
								<path class="st153" d="M246.1,241.4l0.3,0.7l0.3-0.3C245.7,241.9,247.3,241.3,246.1,241.4z"/>
								<path class="st153" d="M245.9,245.3l-1,0.2c-0.1,0.5,2.1,0.7,0.6,1.2c0.6-0.3,1.2,0.2,1.4-0.4
									C246,246.3,245.7,245.7,245.9,245.3z"/>
								<path class="st153" d="M244.7,247.2c-0.3,0-0.5,0.1-0.8,0.2c-0.1,0.2,0.4,0.3,0.8,0.1C243.4,247.7,245.6,247.3,244.7,247.2z
									"/>
								<path class="st153" d="M245.1,249.3c0-0.1-0.2-0.3-0.4-0.1c0.1,0.4,1.3,0.1,2,0.2C247.3,249,245.6,248.9,245.1,249.3z"/>
								<path class="st153" d="M238.1,253.5c0.9-0.2,0.7-0.5,0.4-0.5C238.7,253.1,238.4,253.3,238.1,253.5z"/>
								<polygon class="st153" points="245.4,252.5 245.6,252.3 244.2,252.4 								"/>
								<polygon class="st153" points="246.4,254.7 247.3,254.9 247.1,254.5 								"/>
								<path class="st153" d="M246.3,255.2l0.1,0.4l0.3-0.2C246.9,255.2,246.3,255.3,246.3,255.2z"/>
								<path class="st153" d="M246.6,256.3c-0.1,0,0-0.1,0.2-0.1l-0.6-0.3L246.6,256.3z"/>
								<path class="st153" d="M241.8,263.2c-0.9,0-0.3,0.3-0.5,0.4C241.6,263.6,242.7,263.3,241.8,263.2z"/>
							</g>
						</g>
					</g>
				</g>
			</g>
			<path class="st160" d="M240.5,268.8c0,0-28.5,0-30.9,0c-1.4,0-4.7-20.5-7.2-37.5c-1.8-12-3.1-22.2-3.1-22.2s9.2,3,17.8,7.1
				c7.1,3.4,19.9,10.8,19.9,10.8L240.5,268.8z"/>
			<path class="st80" d="M209.6,268.8c-1.4,0-4.7-20.5-7.2-37.5c-1.8-12-3.1-22.2-3.1-22.2"/>
			<path class="st80" d="M207,261.2c0,0,5.2-7.9,10.5,7.5c0,0-3.3-9.4,3.4-9.5c4.8-0.1,8.2,9.6,8.2,9.6"/>
			<path class="st160" d="M372.2,232.3c0,0,7.1,31,6.8,36.4h-28.6c0,0-2.8-7-7.1-14.8c-2.9-5.3-6.5-11-10.3-15.2
				C333.1,238.7,358,232.2,372.2,232.3z"/>
			<path class="st80" d="M350.5,268.7c0,0-2.8-7-7.1-14.8c-2.9-5.3-6.5-11-10.3-15.2"/>
			<path class="st80" d="M360.5,235.1c0,0,8,10.6,16.8,21.3"/>
			<path class="st80" d="M348.5,264.2c0,0-0.7-5.1,3.4-4.2c3.7,0.8,6.3,8.8,6.3,8.8s-4.5-10.3,2.4-9.6c4.2,0.5,6.6,9.6,6.6,9.6"/>
			<path class="st166" d="M372.2,232.3c0,0-107.5,32.3-205.7-38.5c0,0,0.4-2.4,1.6-6.2c0.9,0.6,55.9,37,116.8,43
				c60,5.9,84.8-4.7,85.4-4.9C371,227.9,371.7,230.1,372.2,232.3z"/>
			<path class="st15" d="M370.3,225.6c-0.6,0.3-25.4,10.8-85.4,4.9c-60.9-6-115.9-42.4-116.8-43c5.1-16.4,24.2-59.4,85.4-56.9
				C318.4,133.4,357,183.4,370.3,225.6z"/>
			<path class="st80" d="M240.5,130.9c0,0,4.9,15.8,6.7,18.1c0.9,1.1,26.7,19.1,26.7,19.1s34.8,2.8,36.1,3.1
				c2.5,0.6,19.4-9.5,19.4-9.5"/>
			<path class="st80" d="M370.3,225.6C370.3,225.6,370.3,225.6,370.3,225.6"/>
			<path class="st80" d="M168.1,187.5C168.1,187.5,168.1,187.5,168.1,187.5"/>
			<path class="st80" d="M247.2,148.9c0,0-15.1,6.3-29.6,22.2l-26.3-5.6l-4.9-10"/>
			<path class="st80" d="M273.9,168c0,0-6.2,16.2-9.5,28.2"/>
			<path class="st80" d="M217.6,171.1l16.9,22.7l29.9,2.4l29.4,17.2l26.7-11.6c-2.1-13.1-10.6-30.7-10.6-30.7"/>
			<polyline class="st80" points="320.5,201.8 353.2,205.9 358.1,197.7 			"/>
			<path class="st80" d="M234.4,193.8c0,0-8.2,13.5-10.5,21.7"/>
			<path class="st80" d="M293.8,213.3c0,0,0,10.2,0,18"/>
			<path class="st80" d="M353.2,205.9c0,0,6.7,16.1,8.5,22.3"/>
			<path class="st80" d="M191.2,165.5c0,0-8.6,12.5-14.1,27.5"/>
			<path class="st80" d="M168.1,187.5c0.9,0.6,55.9,37,116.8,43c60,5.9,84.8-4.7,85.4-4.9"/>
			<path class="st80" d="M153.3,156.8c0,0,0,4.1,4.1,4.6"/>
		</g>
	</g>
</g>
</svg>
