<?xml version="1.0" encoding="utf-8"?>
<!-- Generator: Adobe Illustrator 26.0.3, SVG Export Plug-In . SVG Version: 6.00 Build 0)  -->
<svg version="1.1" xmlns="http://www.w3.org/2000/svg" xmlns:xlink="http://www.w3.org/1999/xlink" x="0px" y="0px"
	 viewBox="0 0 503.6 377.7" style="enable-background:new 0 0 503.6 377.7;" xml:space="preserve">
<style type="text/css">
	.st0{fill:#FFF0DD;}
	.st1{fill:#6B5C52;}
	.st2{fill:#B8BBBF;}
	.st3{fill:#F9E9CD;}
	.st4{fill:#FFE6BD;}
	.st5{fill:#F5F5F2;}
	.st6{fill:#637189;}
	.st7{fill:#9E9082;}
	.st8{fill:#938D89;}
	.st9{fill:#FFDBC0;}
	.st10{fill:#6E85BD;}
	.st11{fill:#E8D9D6;}
	.st12{fill:#A7BC79;}
	.st13{fill:#FF8080;}
	.st14{fill:#3D3533;}
	.st15{fill:#A1683D;}
	.st16{fill:#CCE0FF;}
	.st17{fill:#383531;}
	.st18{fill:#757060;}
	.st19{fill:#D29F7E;}
	.st20{opacity:0.88;clip-path:url(#SVGID_00000101782856304489977570000012474652395657647009_);}
	.st21{fill:#322015;}
	.st22{fill:#1B1C1E;}
	.st23{fill:none;stroke:#1B1C1E;stroke-width:1.2604;stroke-linecap:round;stroke-linejoin:round;stroke-miterlimit:10;}
	.st24{opacity:0.84;clip-path:url(#SVGID_00000056428343192453519070000012855565507187987073_);}
	.st25{clip-path:url(#SVGID_00000176757683652539484800000005054250861802927514_);}
	.st26{fill:none;stroke:#1B1C1E;stroke-width:1.2604;stroke-linecap:round;stroke-linejoin:round;}
	.st27{fill:#D1493B;}
	.st28{fill:#FFAE1F;}
	.st29{opacity:0.88;clip-path:url(#SVGID_00000103946883156934615060000014540081301822839988_);}
	.st30{opacity:0.7;clip-path:url(#SVGID_00000092428976726922511070000007159755718216040607_);}
	.st31{fill:#2C2C2D;}
	.st32{opacity:0.87;clip-path:url(#SVGID_00000127762079790189259520000017488133880952966292_);}
	.st33{fill:#080809;}
	.st34{opacity:0.7;clip-path:url(#SVGID_00000142879281424925591890000004287879347148037810_);}
	.st35{fill:#FBAF5E;}
	.st36{opacity:0.62;clip-path:url(#SVGID_00000066515660661329083120000015553308885622721934_);}
	.st37{fill:#3E240C;}
	.st38{fill:#BC763C;}
	.st39{opacity:0.62;clip-path:url(#SVGID_00000047039240312486273430000012476424461586603943_);}
	.st40{opacity:0.62;clip-path:url(#SVGID_00000032648646007298333350000013163428604119338900_);}
	.st41{fill:#967258;}
	.st42{opacity:0.53;clip-path:url(#SVGID_00000167389262405888319670000015400878504451492786_);}
	.st43{opacity:0.73;clip-path:url(#SVGID_00000010297801164624163570000004471664763651474335_);}
	.st44{fill:none;stroke:#1B1C1E;stroke-width:1.1311;stroke-linecap:round;stroke-linejoin:round;stroke-miterlimit:10;}
	.st45{fill:#3D291C;}
	.st46{fill:#3D291C;stroke:#967258;stroke-width:1.2604;stroke-linecap:round;stroke-linejoin:round;stroke-miterlimit:10;}
	.st47{fill:#D6D4C8;}
	.st48{fill:#1B1C1E;stroke:#967258;stroke-width:1.2604;stroke-linecap:round;stroke-linejoin:round;stroke-miterlimit:10;}
	.st49{opacity:0.52;clip-path:url(#SVGID_00000137125553770432348120000010017273732697605807_);}
	.st50{fill:#B37D4F;}
	.st51{opacity:0.88;clip-path:url(#SVGID_00000092440185033089907810000014488544514837187249_);}
	.st52{fill:#343434;}
	.st53{fill:#BC6464;}
	.st54{opacity:0.88;clip-path:url(#SVGID_00000072240236833905607780000002788198112566166408_);}
	.st55{fill:#1B1C1E;stroke:#1B1C1E;stroke-width:1.1485;stroke-linecap:round;stroke-linejoin:round;stroke-miterlimit:10;}
	.st56{fill:#8C7265;}
	.st57{opacity:0.88;clip-path:url(#SVGID_00000097496343444169456290000017526843537646184857_);}
	.st58{fill:#1B1C1E;stroke:#1B1C1E;stroke-width:1.3664;stroke-linecap:round;stroke-linejoin:round;stroke-miterlimit:10;}
	.st59{opacity:0.88;clip-path:url(#SVGID_00000003093209972833256510000005059363192210010798_);}
	.st60{fill:none;stroke:#1B1C1E;stroke-width:1.3664;stroke-linecap:round;stroke-linejoin:round;stroke-miterlimit:10;}
	.st61{opacity:0.88;clip-path:url(#SVGID_00000070096987801749716780000005295244175184521089_);}
	.st62{opacity:0.88;clip-path:url(#SVGID_00000034778341540479994100000006908716754480258215_);}
	.st63{fill:#5F6C72;}
	.st64{fill:#1B1C1E;stroke:#1B1C1E;stroke-width:1.5329;stroke-linecap:round;stroke-linejoin:round;stroke-miterlimit:10;}
	.st65{opacity:0.88;clip-path:url(#SVGID_00000176026153659791015410000002678434994282460564_);}
	.st66{clip-path:url(#SVGID_00000036253011850813892560000015634544493186454206_);}
	.st67{opacity:0.58;clip-path:url(#SVGID_00000078732754178457621580000013452284275716795030_);}
	.st68{opacity:0.58;clip-path:url(#SVGID_00000084507871442346134340000012448499436888131505_);}
	.st69{fill:#1B1C1E;stroke:#1B1C1E;stroke-width:1.818;stroke-linecap:round;stroke-linejoin:round;stroke-miterlimit:10;}
	.st70{fill:#FFFFFF;}
	.st71{fill:#CC813E;}
	.st72{opacity:0.58;clip-path:url(#SVGID_00000152248128347492610580000004899022530705501321_);}
	.st73{fill:#AA8C7D;}
	.st74{opacity:0.88;clip-path:url(#SVGID_00000097471065964463082550000009930462488719596210_);}
	.st75{opacity:0.88;clip-path:url(#SVGID_00000178897845679849898610000009364035517513122445_);}
	.st76{fill:#1B1C1E;stroke:#1B1C1E;stroke-width:1.2604;stroke-linecap:round;stroke-linejoin:round;stroke-miterlimit:10;}
	.st77{opacity:0.88;clip-path:url(#SVGID_00000046328788789139019060000006046315022797643925_);}
	.st78{opacity:0.88;clip-path:url(#SVGID_00000110428376991702771240000014807523224114760372_);}
	.st79{opacity:0.88;clip-path:url(#SVGID_00000127763450309839216900000010192620706912309663_);}
	.st80{fill:none;stroke:#1B1C1E;stroke-miterlimit:10;}
	.st81{fill:#B8BDC4;}
	.st82{fill:#B4D3CD;}
	.st83{opacity:0.88;clip-path:url(#SVGID_00000162311187756355329530000016339100342026119306_);}
	.st84{opacity:0.88;clip-path:url(#SVGID_00000070086741811635866440000008398412979206206366_);}
	.st85{fill:#EFBE9D;}
	.st86{opacity:0.88;clip-path:url(#SVGID_00000063602857205931306440000005415640130792424612_);}
	.st87{fill:#443730;}
	.st88{opacity:0.88;clip-path:url(#SVGID_00000087405046223351572100000009808942832022470328_);}
	.st89{opacity:0.88;clip-path:url(#SVGID_00000073696546953820957940000004176821290597323697_);}
	.st90{fill:#E2AF8D;}
	.st91{fill:none;stroke:#1B1C1E;stroke-linecap:round;stroke-linejoin:round;stroke-miterlimit:10;}
	.st92{fill:#1B1C1E;stroke:#1B1C1E;stroke-miterlimit:10;}
	.st93{fill:#FCEA9F;}
	.st94{fill:#F6EBEF;}
	.st95{fill:#D4DADD;}
	.st96{opacity:0.61;clip-path:url(#SVGID_00000137115561518551813090000012453807245652843906_);}
	.st97{fill:#353737;}
	.st98{fill:#B3B9BC;}
	.st99{opacity:0.61;clip-path:url(#SVGID_00000037655355577793962260000017465283500126050458_);}
	.st100{opacity:0.61;clip-path:url(#SVGID_00000073721805702671996320000013135941014109131435_);}
	.st101{fill:#B3B9BC;stroke:#1B1C1E;stroke-miterlimit:10;}
	.st102{fill:#CCE2CF;stroke:#1B1C1E;stroke-miterlimit:10;}
	.st103{fill:#EAD6DE;}
	.st104{fill:#1B1C1E;stroke:#1B1C1E;stroke-width:1.0185;stroke-miterlimit:10;}
	.st105{fill:none;stroke:#1B1C1E;stroke-width:1.0185;stroke-miterlimit:10;}
	.st106{fill:#FBAF5E;stroke:#1B1C1E;stroke-miterlimit:10;}
	.st107{fill:#513F3B;}
	.st108{opacity:0.88;clip-path:url(#SVGID_00000072267901260487243550000006902191063040003745_);}
	.st109{opacity:0.88;clip-path:url(#SVGID_00000043424421592196261710000015395881631810819262_);}
	.st110{fill:#8B2403;}
	.st111{fill:#EBDAD2;}
	.st112{fill:#A84E39;}
	.st113{fill:#751A01;}
	.st114{fill:#EBDAD2;stroke:#1B1C1E;stroke-miterlimit:10;}
	.st115{opacity:0.78;clip-path:url(#SVGID_00000039091723434802312440000006208329305250512560_);}
	.st116{fill:#290B01;}
	.st117{opacity:0.78;clip-path:url(#SVGID_00000107579725484841941970000007535914659382376076_);}
	.st118{opacity:0.78;clip-path:url(#SVGID_00000049204094028366751300000005697003280232393135_);}
	.st119{opacity:0.78;clip-path:url(#SVGID_00000057125860193961122590000008953168666049739706_);}
	.st120{fill:#030203;}
	.st121{fill:#86889A;}
	.st122{fill:#0B060A;}
	.st123{fill:#736E72;}
	.st124{fill:#9E9AA0;}
	.st125{fill:#18172A;}
	.st126{fill:#3B4D84;}
	.st127{fill:#FFA3AC;}
	.st128{fill:none;stroke:#0B080B;stroke-width:1.2005;stroke-miterlimit:10;}
	.st129{fill:#E7E6E8;}
	.st130{fill:#0B080B;}
	.st131{fill:none;stroke:#1B1C1E;stroke-width:1.2005;stroke-linecap:round;stroke-linejoin:round;stroke-miterlimit:10;}
	.st132{opacity:0.78;clip-path:url(#SVGID_00000093863862004153972160000015119521634108840326_);}
	.st133{opacity:0.78;clip-path:url(#SVGID_00000067945914792509593050000000156190609583377854_);}
	.st134{fill:#89745E;}
	.st135{opacity:0.78;clip-path:url(#SVGID_00000168105132841613239120000001606896389825054864_);}
	.st136{fill:#060606;}
	.st137{fill:#4D483E;}
	.st138{fill:#FF8A00;}
	.st139{fill:#50483F;}
	.st140{fill:#131313;}
	.st141{fill:#E8DBCD;}
	.st142{opacity:0.78;clip-path:url(#SVGID_00000013182417650066255340000001496910288189673101_);}
	.st143{opacity:0.78;clip-path:url(#SVGID_00000017474921784804759470000008072252805416276352_);}
	.st144{fill:#191212;}
	.st145{fill:#6C5353;}
	.st146{opacity:0.78;clip-path:url(#SVGID_00000132049907418454266360000005655098533808816044_);}
	.st147{fill:#B3B3B3;}
	.st148{fill:#FF9F2C;}
	.st149{fill:none;stroke:#343434;stroke-miterlimit:10;}
	.st150{fill:#21262A;}
	.st151{fill:#563D3D;}
	.st152{opacity:0.78;clip-path:url(#SVGID_00000017479887932411916660000016381263071266616708_);}
	.st153{fill:#181716;}
	.st154{fill:#706153;}
	.st155{fill:none;stroke:#1B1C1E;stroke-width:0.8477;stroke-miterlimit:10;}
	.st156{fill:#FCBD30;}
	.st157{fill:#E8D9CD;}
	.st158{fill:#534E4A;}
	.st159{opacity:0.78;clip-path:url(#SVGID_00000083774450544828242580000004404159310648811398_);}
	.st160{fill:#7DA050;}
	.st161{opacity:0.78;clip-path:url(#SVGID_00000122693534827613223150000005746952600741938592_);}
	.st162{opacity:0.78;clip-path:url(#SVGID_00000096753847731143784740000014736396172835424662_);}
	.st163{opacity:0.78;clip-path:url(#SVGID_00000113343935083940401050000017844726556693479552_);}
	.st164{fill:#EFEECE;}
	.st165{opacity:0.78;clip-path:url(#SVGID_00000145750987244905275390000008462597952955213498_);}
	.st166{fill:#93543B;}
	.st167{fill:#FF510C;}
	.st168{opacity:0.78;clip-path:url(#SVGID_00000112623942366615129230000008046099564422170275_);}
	.st169{fill:#4B1804;}
	.st170{fill:#000A0E;}
	.st171{opacity:0.78;clip-path:url(#SVGID_00000003817038429640787450000001592173934472971178_);}
	.st172{opacity:0.78;clip-path:url(#SVGID_00000158006765356945898170000017916403748273236902_);}
	.st173{fill:#F9C8A7;}
	.st174{fill:#1B1C1E;stroke:#1B1C1E;stroke-width:1.3738;stroke-miterlimit:10;}
	.st175{fill:none;stroke:#1B1C1E;stroke-width:1.3;stroke-miterlimit:10;}
	.st176{fill:#FFCB6E;}
	.st177{fill:#CECECE;}
	.st178{fill:none;stroke:#1B1C1E;stroke-width:1.3037;stroke-miterlimit:10;}
	.st179{fill:#FFFFFF;stroke:#1B1C1E;stroke-width:1.3;stroke-miterlimit:10;}
	.st180{opacity:0.78;clip-path:url(#SVGID_00000123435169795454795180000016892352951056104622_);}
	.st181{fill:none;stroke:#1B1C1E;stroke-width:1.3738;stroke-miterlimit:10;}
	.st182{opacity:0.45;clip-path:url(#SVGID_00000031199134054545235170000014229618363132122768_);}
	.st183{opacity:0.45;clip-path:url(#SVGID_00000100363572500934944460000017049086165622835863_);}
	.st184{opacity:0.45;clip-path:url(#SVGID_00000031170065854828811940000013896069743146789030_);}
	.st185{opacity:0.45;clip-path:url(#SVGID_00000146487748985080268130000002309623865468746407_);}
	.st186{fill:none;stroke:#1B1C1E;stroke-width:1.3738;stroke-linecap:round;stroke-linejoin:round;stroke-miterlimit:10;}
	.st187{fill:#FFB192;}
	.st188{fill:#EB8226;}
	.st189{fill:#F7EDE1;}
	.st190{opacity:0.78;clip-path:url(#SVGID_00000020401065368535172730000000254494800229606790_);}
	.st191{opacity:0.78;clip-path:url(#SVGID_00000138554729766988700080000003777512051618764964_);}
	.st192{opacity:0.5;clip-path:url(#SVGID_00000067226490150199412890000017714596251012643974_);}
	.st193{opacity:0.5;clip-path:url(#SVGID_00000181803391289823714630000000856857647760705679_);}
	.st194{fill:none;stroke:#06002C;stroke-width:1.3038;stroke-miterlimit:10;}
	.st195{fill:#F7A9B4;}
	.st196{fill:#06002C;}
	.st197{opacity:0.5;clip-path:url(#SVGID_00000178921043302320649370000013578496857072915359_);}
	.st198{fill:none;stroke:#06002C;stroke-width:1.3038;stroke-linecap:round;stroke-linejoin:round;stroke-miterlimit:10;}
	.st199{fill:#9BBEDC;}
	.st200{opacity:0.88;clip-path:url(#SVGID_00000088826618797767908480000004652662664103831193_);}
	.st201{opacity:0.88;clip-path:url(#SVGID_00000083767933754607953670000010725079966101792423_);}
</style>
<g id="Background">
	<rect x="-3.2" y="-2.4" class="st4" width="510" height="382.5"/>
</g>
<g id="Illustration">
	<g>
		<path class="st22" d="M92,306.7c0,0-11.8,2.6,20.5,3.4s202.6,1.2,220.1,0c17.5-1.2,51.6-0.5,6.3-3.4s-91.8-1.2-137.4-2.9
			C155.8,302.1,98.8,303.7,92,306.7z"/>
		<g>
			<path class="st50" d="M303,220.3c0,0-0.6,50.2,19.8,76.6c0,0,14.7-0.2,13.6,10.1c0,0-17.7,0-20.3,0s-15.3-15.6-22.3-26.3
				c0,0-2.8,4.1-3.1-2.9c0,0-1.8,3-3.4,1.3s0-11.1,0-11.1s-1.7,3.3-3.2,1.8c-1.5-1.4-0.6-8.2-0.6-8.2s-3.8,4.3-3.3-2
				C280.7,253.3,292.8,222.8,303,220.3z"/>
			<g>
				<defs>
					<path id="SVGID_00000036217433613666637320000004146126633190955919_" d="M303,220.3c0,0-0.6,50.2,19.8,76.6
						c0,0,14.7-0.2,13.6,10.1c0,0-17.7,0-20.3,0s-15.3-15.6-22.3-26.3c0,0-2.8,4.1-3.1-2.9c0,0-1.8,3-3.4,1.3s0-11.1,0-11.1
						s-1.7,3.3-3.2,1.8c-1.5-1.4-0.6-8.2-0.6-8.2s-3.8,4.3-3.3-2C280.7,253.3,292.8,222.8,303,220.3z"/>
				</defs>
				<clipPath id="SVGID_00000005967102796890238650000004995790726987023547_">
					<use xlink:href="#SVGID_00000036217433613666637320000004146126633190955919_"  style="overflow:visible;"/>
				</clipPath>
				<g style="opacity:0.88;clip-path:url(#SVGID_00000005967102796890238650000004995790726987023547_);">
					<g>
						<g>
							<g>
								<path class="st21" d="M300.4,228.8c0,0.1,0.1,0.2,0.1,0.2C300.5,229,300.5,228.9,300.4,228.8z"/>
								<path class="st21" d="M304.7,224.2C304.7,224.1,304.7,224.1,304.7,224.2L304.7,224.2L304.7,224.2z"/>
								<path class="st21" d="M304.6,224.1l-0.2-0.2C304.5,224,304.5,224.1,304.6,224.1z"/>
								<path class="st21" d="M301.5,230.6c0,0.1,0.1,0.2,0.2,0.4L301.5,230.6z"/>
								<path class="st21" d="M302.9,230.9c0,0,0.1,0.1,0.1,0.1C303,231,302.9,230.9,302.9,230.9z"/>
								<path class="st21" d="M295.8,232.1c0,0,0-0.1-0.1-0.1C295.8,232,295.8,232.1,295.8,232.1z"/>
								<path class="st21" d="M295.8,232.8C295.8,232.8,295.7,232.8,295.8,232.8l0,0.1C295.8,232.9,295.8,232.8,295.8,232.8z"/>
								<path class="st21" d="M296.2,233L296.2,233C296.2,233,296.2,233,296.2,233z"/>
								<path class="st21" d="M296.1,237.7l0.2,0.3C296.2,237.8,296.1,237.7,296.1,237.7z"/>
								<path class="st21" d="M295.6,231.8c0,0.1,0.1,0.2,0.1,0.2C295.7,231.9,295.8,231.9,295.6,231.8z"/>
								<path class="st21" d="M300.3,228.6c0,0,0.1,0.1,0.1,0.1C300.3,228.7,300.3,228.7,300.3,228.6z"/>
								<path class="st21" d="M301.2,230.8L301.2,230.8C301.2,230.8,301.2,230.8,301.2,230.8z"/>
								<path class="st21" d="M305.8,222c0-0.1,0-0.1,0-0.2C305.7,221.9,305.7,222,305.8,222z"/>
								<path class="st21" d="M297.4,231.6c0.7,0.6-0.1,0.2,0.5,0.8c0-0.2-0.1-0.4,0.3-0.1c0.3,0.4-0.2,0.1,0.3,0.7l-0.1-0.3
									c0.3,0.2,0.6,0.8,0.7,0.6c-0.6-0.9,0.7-0.1,0.7-0.3l0,0.1l0.5,0.2c0,0,0,0,0,0c0,0-0.1-0.1-0.1-0.1c0.4,0.3,0.8,0.4,0.9,0.2
									c-0.4-0.5,0.4-0.7,0.1-1.1c0,0.2,0,0.2-0.2,0.2l-0.5-0.5c0.2-0.1,0.5,0.5,0.3,0c-0.7-0.7-0.2,0.2-0.4,0.2
									c-0.1-0.2-0.2-0.4-0.2-0.5c-0.2,0.2-0.7,0.1-0.1,1c-0.2-0.1-0.5-0.4-0.5-0.5c0.2,0.6-0.5-0.3-0.3,0.2
									c-0.6-0.7,0-0.6-0.3-1.1c0.7,0.3,0.5-0.4,0.6-0.7c0.5,0.5,0.7,1,1.1,1.2c0.5,0.1,0-0.5-0.2-0.8c0.3,0,0.8,0.8,1.1,0.5
									l0.2,0.4c0.8,0.5-0.1-0.4,0.1-0.4c-0.2-0.1-0.4-0.3-0.5-0.2c-0.3-0.2-0.3-0.4-0.3-0.5l0,0c-0.3-0.4-0.6-0.7-0.3-0.7
									c0.3,0.5,0.4,0.2,0.6,0.3l0.1,0.1c0-0.2,0.1-0.3,0.1-0.4l0.1,0.1c-0.1-0.2-0.6-0.7-0.4-0.8c0.2,0.2,0.6,0.9,0.7,0.6
									c0.3,0.3,0.2,0.5,0,0.5c0.2,0,0.8,0.4,0.7,0.6c0.4,0.3,0-0.3,0.2-0.2c-0.1-0.1-0.2-0.2-0.4-0.3c0.5,0.5,0.3-0.3-0.1-0.6
									l0.2,0.4c-0.4-0.4-0.6-0.8-0.9-1c0.7,0.5,0-0.7,0.7-0.3l-0.4-0.2c0.5-0.1-0.1-1.1,0-1.5c0.1,0.3,0.9,0.9,0.5,0.9
									c0.4-0.2,0.8,0.5,1.3,0.7c0.5,0-0.6-0.7-0.8-1l0,0.3c-0.7-0.9,0.7-0.5,0.4-1.2c0.3,0.2,0.1,0.2,0.1,0.3
									c0.6,0.2,0-0.2-0.1-0.4c0.2-0.1,0.6-0.1,1.1,0.4c0.3-0.1-0.4-0.2-0.5-0.5l0.2,0.1l-0.5-0.7c0.3,0,0.7,0,1.4,0.4
									c0.1-0.4-1.2-1.1-1.3-1.5c0.4,0.1,0.4,0.3,0.7,0.5l0.1-0.3c0.6,0.5,0.2,0.5,0.9,1c-0.6-0.7,0-0.4-0.4-1l-0.1,0
									c-0.5-0.5,0.1-0.5,0.1-0.7c0.3,0.3,0.2,0.5,0.2,0.7c0.4,0,0.4-0.6-0.2-1.2c0.2,0,0.6-0.1,0.8,0.3c0.4-0.3-0.9-0.8-0.5-1
									l0.5,0.4c1,0.1-0.3-1.1,0.6-1l-0.7-0.4c0.3,0.1,0.5,0,0.8,0.2l0.1,0.3c0.6,0.2-0.4-0.5,0.1-0.4c-0.2-0.1-0.7-0.2-1-0.4
									c0,0.9-1.3,1-1.1,2.1c0.1,0,0.2,0.1,0.3,0.2c-0.2,0-0.1,0.2-0.5,0l0-0.1c0,0.3-0.9-0.1-0.9,0c0.4,0.4-0.4,0.2,0.4,0.7
									l-0.5-0.2c0.3,0.2,0.6,0.5,0.7,0.6c-0.1,0.1-0.4-0.1-0.6-0.4c-0.6,0.3-0.9,0.8-1,1.4l-0.2-0.4c-0.2,0,0.3,0.8-0.5,0.1
									c0.2,0.5-0.7,0.4,0.2,1.1c-1-0.5-0.8,0.2-0.9,0.6c0.8,0.6,0,0.4,0.3,0.8c-0.6-0.4-0.4-0.7-0.8-1.1c0.6,1-1.3,0.2,0,1.6
									c-0.1,0-0.1-0.1-0.2-0.1c-0.1,0.1-0.4-0.1-0.5-0.1c0.2,0.3,0.4,0.2,0.4,0.5c-0.1,0.1-0.5-0.4-0.7-0.5c0.1,0.5,0,0.9,0.5,1.5
									c-0.2-0.1-0.6-0.3-0.6-0.5c0.1,0.7-0.4,0.2-0.4,0.8c0.1-0.1-0.5-0.6-0.1-0.6c-0.9-0.6-0.3,0.6-1,0.4l0.4,0.6
									c-0.1,0.2-0.5-0.2-0.6-0.5c-0.5-0.1-0.4,0.4-0.6,0.6c-0.1-0.1-0.2-0.2-0.1-0.2l-0.3,0.2c0.1,0.2,0.2,0.5,0.5,0.8
									C297.2,231.7,297.1,231.5,297.4,231.6z"/>
								<path class="st21" d="M297.4,232.1L297.4,232.1L297.4,232.1C297.5,232.1,297.4,232.1,297.4,232.1z"/>
								<path class="st21" d="M302.2,231.6c-0.2-0.1-0.2-0.1-0.3-0.1C302,231.5,302.1,231.6,302.2,231.6z"/>
								<path class="st21" d="M295.3,235.4c0.7,0.8,0.1-0.3,0.4-0.2c0,0.2,0.4,0.7,0.6,0.9c-0.7-1.2,0.4,0.1,0.5-0.4
									c0.3,0.3,0.2,0.5,0.5,0.9c0-0.4,0.1-0.8-0.3-1.4c0.3-0.2,0.7-0.2,0.7-0.4c0,0.4,0.5,0.6,0.7,1.3c-0.4-0.9-0.6-2.1-1-3.1
									c0.6,0.6,0.7,0.7,1.1,1.3c0.7,0.1-0.4-0.7,0.1-0.8l-0.2,0c0-0.3-0.5-0.9-0.9-1.4l-0.3,0.4c-0.4-0.4-0.1-0.6-0.1-0.7
									c-0.4-0.6-0.5-0.2-0.8-0.6c0.3,0.4,0,0.4,0.1,0.6l-0.2-0.2c-0.4-0.1,0.1,0.6-0.1,0.7c-0.1-0.1-0.1-0.1-0.1-0.1
									c0.2,0.3,0.4,0.7,0.4,0.8l0-0.1c0.4,0.7,0.3,1.3,1,1.7l-0.5,0.1c-0.5-0.7-1.2-1.7-1-1.9l-0.2-0.3c-0.4-0.2,0,0.8,0.5,1.3
									c1.1,1.7-0.5,0.5-0.3,1.4c-0.3-0.4-0.3-0.7-0.5-1c0-0.1,0.1-0.2,0.4,0.2c0.2-0.5-1.1-1.3-0.6-1.4c0.4,0.1,0.3,0.9,0.6,0.7
									l-0.7-1.3c-0.1,0.2-0.1,0.5-0.2,0.7c-0.1,0.7-0.4,1-0.7,1.1c-0.3,0.1-0.6,0-0.6,0c-1.1,1-2.2,1.9-3.4,2.7
									c-0.3,0.4-0.5,0.4,0,1.8c0.2,0.2,0.4,0,0.6,0.5c-0.2-0.5-0.2-0.9,0.1-0.9c0.3,0.5-0.1,0.3,0,0.4l0.1,0
									c0.1,0.3,0.1,0.4,0.1,0.5c0.6,0.6,1.1,0.2,0.7-0.8c0.5,0.4,0.3,0.8,0.4,1.2c0.9-0.1,1.4-0.4,2.2-0.8
									c-0.5-0.8-0.2-0.5-0.5-1.1l0.2,0.3c-0.1-0.1-0.4-0.7-0.6-0.8c0.8,0.3-0.2-1.4-0.2-1.9l0.3,0.4c0.2-0.2,0.2-0.3,0.3-0.6
									c0.9,0.5-0.2,0.3,0.6,1.2l0-0.2c0.2,0.4,0.6,1.1,0.7,1.5c-0.1-0.9,0.7-0.1,0.7-0.9c0.3,0.5,0.2,1.1,0.1,1.2
									c0.2,0,0.2-0.5,0.5-0.1l-0.4-0.6c0.2-0.2,0.3,0.5,0.7,0.8C296.8,237.4,295.1,236.1,295.3,235.4z"/>
								<path class="st21" d="M300.3,231.5c-0.1,0-0.1,0.1-0.1,0.2C300.3,231.7,300.3,231.6,300.3,231.5z"/>
								<path class="st21" d="M300.3,233.4c0.1,0.1,0.1,0.1,0.2,0.2C300.5,233.5,300.4,233.4,300.3,233.4z"/>
								<path class="st21" d="M300.9,234.1c-0.2-0.2-0.2-0.3-0.4-0.6C300.6,233.8,300.4,233.9,300.9,234.1z"/>
								<path class="st21" d="M312.3,216.4c-0.2-0.1-0.3-0.3-0.5-0.4l0.1,0.3L312.3,216.4z"/>
								<path class="st21" d="M311.4,216.6l-0.3,0.1l0.8,0.5C312,217,311.3,216.8,311.4,216.6z"/>
								<path class="st21" d="M310.7,217l-0.2-0.1C310.6,217,310.6,217,310.7,217z"/>
								<path class="st21" d="M311,217.2l0.6,0.3l-0.3-0.5L311,217.2c-0.1-0.2-0.2-0.1-0.4-0.2l0.4,0.3
									C311,217.3,310.9,217.2,311,217.2z"/>
								<path class="st21" d="M311,217.4c0.1,0,0.1,0,0.2,0.1C311.1,217.5,311,217.5,311,217.4z"/>
								<path class="st21" d="M309.6,217.5c0.2,0,0.5,0.3,0.8,0.4c0.3-0.1-0.6-0.5-0.2-0.6c0.4,0.5,0.4,0,0.8,0.1
									c-0.6-0.2-1-0.2-1.3-0.1l0.4,0.2C310,217.7,309.8,217.5,309.6,217.5z"/>
								<path class="st21" d="M310,219.1l-0.5-0.4c0.3,0.1,0.4-0.2,1,0.1c0-0.1-0.3-0.3-0.4-0.4c0.3,0.1,0.6,0.1,0.2-0.2
									c-0.6,0.3-0.7,0.1-1,0.3c-0.1-0.1-0.1-0.1,0-0.1l-0.4,0.1C309.6,218.8,309.5,219.1,310,219.1z"/>
								<path class="st21" d="M309.4,219.2c0.1-0.2-0.4-0.6-0.8-0.6l0.3,0.6C308.9,219.1,308.9,218.9,309.4,219.2z"/>
								<path class="st21" d="M309.3,219.5c-0.3-0.1-1-0.3-0.5,0.2C308.8,219.4,309.6,219.9,309.3,219.5z"/>
								<path class="st21" d="M308.1,220.6l0.6-0.2c0.8,0.3,0.1,0.3,0.4,0.6c0.3-0.2,0-0.3-0.3-0.7c0.1-0.1-0.2-0.4-0.4-0.6
									C308.7,220.4,306.9,219.5,308.1,220.6z"/>
								<polygon class="st21" points="309.2,220.2 308.9,220 309,220.3 								"/>
								<path class="st21" d="M306.8,221c-1-0.3,0.3,0.7-0.2,0.7c0-0.1-0.1-0.1-0.2-0.2l0,0.2l-0.2-0.1c0.5,0.3,0.6,0.6,0.9,0.9
									c0.7,0.1-0.6-0.5,0.1-0.3c0.2,0.2,0.5,0.4,0.7,0.6c-0.2-0.3-0.5-0.5-0.7-0.7c0-0.2,0.3,0,0.5,0.1c-0.2-0.3-1-0.7-0.6-0.9
									c0.5,0.1,0.7,0.5,0.6,0.1c-0.9-0.3,0.3-0.2-0.2-0.6c0.3-0.1,0.8,0,1.1,0.2c-0.6-0.3-1.1-0.8-1.2-1l0.4,0.6l-0.8-0.3
									C307.2,220.8,307.1,220.9,306.8,221L306.8,221z"/>
								<path class="st21" d="M307.9,222.8c0,0,0.1,0.1,0.1,0.1C308.1,223,308,222.9,307.9,222.8z"/>
								<polygon class="st21" points="308.8,221.2 308.9,221.4 309.2,221.5 								"/>
								<path class="st21" d="M308.4,223.3c0,0-0.2-0.2-0.2-0.2l0.3,0.3L308.4,223.3z"/>
								<polygon class="st21" points="307.8,223.2 307.3,223.1 307.6,223.3 								"/>
								<path class="st21" d="M304.6,227.2c0.3,0-0.1-0.3-0.5-0.6C303.9,226.8,304.5,227,304.6,227.2z"/>
								<path class="st21" d="M303.2,230.2c0.4,0.1,0.1-0.4,0.2-0.5C303.1,229.6,303.1,229.9,303.2,230.2z"/>
								<path class="st21" d="M303.7,232.5c-0.1-0.2-0.1-0.3-0.3-0.2l-0.6-0.8C302.4,231.4,303.4,232.2,303.7,232.5z"/>
								<path class="st21" d="M302.7,233.8l-0.1-0.5l-0.1,0.1c-0.2-0.3-0.4-0.5-0.5-0.8C302,232.9,302.1,233.3,302.7,233.8z"/>
								<path class="st21" d="M302,232.3c0,0,0,0.1,0,0.1C302.1,232.5,302.2,232.6,302,232.3z"/>
								<path class="st21" d="M301.9,232.5c0,0,0,0.1,0.1,0.1C302,232.5,302,232.5,301.9,232.5C301.9,232.4,301.8,232.3,301.9,232.5
									z"/>
								<path class="st21" d="M302.2,233.6L302,234l0.3,0C301.8,233.5,302.6,234.1,302.2,233.6z"/>
								<path class="st21" d="M300.1,234.8l-0.5-0.4c-0.3,0.1,0.3,1.3-0.5,0.7c0.3,0.2,0.3,0.7,0.7,0.6
									C299.6,235.2,299.9,234.8,300.1,234.8z"/>
								<path class="st21" d="M298.7,234.8c-0.1-0.2-0.2-0.2-0.4-0.3c-0.1,0,0,0.3,0.2,0.5C298.1,234.3,299,235.3,298.7,234.8z"/>
								<path class="st21" d="M297.8,235.7c0.1-0.1,0.1-0.2-0.1-0.2c-0.2,0.2,0.3,0.7,0.5,1.1C298.6,236.7,298.1,235.9,297.8,235.7z
									"/>
								<path class="st21" d="M293.5,233.2c0.3,0.4,0.4,0.2,0.4,0.1C293.9,233.4,293.7,233.3,293.5,233.2z"/>
								<polygon class="st21" points="296.2,236.8 296.3,236.9 295.9,236.1 								"/>
								<polygon class="st21" points="295.2,238 295.4,238.5 295.5,238.3 								"/>
								<path class="st21" d="M294.9,238.1l-0.2,0.2l0.2,0.1C295.1,238.4,294.8,238.1,294.9,238.1z"/>
								<path class="st21" d="M294.4,238.6c0-0.1,0.1,0,0.1,0.1l0-0.4L294.4,238.6z"/>
								<path class="st21" d="M289.5,237.5c-0.2-0.5-0.2-0.1-0.3-0.2C289.2,237.4,289.6,238,289.5,237.5z"/>
							</g>
						</g>
					</g>
				</g>
			</g>
			<path class="st23" d="M332.2,307c0,0,0.2-3.8-2.5-5.3"/>
			<path class="st50" d="M184.9,278.6c0,0-5.1,11.9-23.5,6s-23.8-7.8-36.2-5.2c-12.4,2.6-18.3,13.7-21.6,17.8
				c-3.3,4.2-5.4,7-7.3,8.2s3.7,1.2,6,0.5c0,0-2.8,1.5-1.2,2.3c1.6,0.8,10.2-0.8,10.2-0.8s-1.8,1.2-0.5,1.8s7.8-1.7,28.2-1.1
				s38.6-3.7,49.8-17.5C200.1,276.6,189.2,273.7,184.9,278.6z"/>
			<path class="st52" d="M191.9,276.9c-2.5,5.1-8.7,15.6-18.9,19.8c-13.7,5.5-27,3.3-36.5-1.4c-9.5-4.6-11.6-3.8-12.6-4
				c-0.9-0.3,1.7-1.7,1.7-1.7s-7.8,0.9-5.8-1.1c2-2-0.4-1.9-2.2-1.6c-4.7,0.8-9.2,4.1-9.5,4.3c3.6-4.7,9-10.1,17.2-11.8
				c12.4-2.6,17.7-0.7,36.2,5.2c18.5,5.9,23.5-6,23.5-6C186.8,276.5,189.9,275.8,191.9,276.9z"/>
			<path class="st53" d="M330.2,98.8c0,0,2.5,1.2,7.6,0c5.1-1.2,8.6-2.4,9.8-0.4c0,0-10.8,7.4-17.3,9.5c-6.6,2.1-9.3,1.7-9.2,0
				C321.1,106.2,326.2,98.2,330.2,98.8z"/>
			<path class="st50" d="M290.6,80.4c0,0,6.6-3.3,14.6-3.2c8,0.1,11.9,3.2,11.9,3.2s23-8.5,25.7-9.3c2.8-0.8,4.2,8.6,1.8,14.4
				s-9,10.2-13.3,12.6c-4.2,2.3-8,6.3-7.6,8.5s22.5-7.9,23.4-8.3c0.9-0.4,1.6,5.4-5,9.3c-6.6,4-14.5,8.3-16.1,10.1
				c-1.6,1.8-3.9,6.7-4.1,7.4c-0.1,0.6,3.2,9,0.7,9.4c-1.9,0.3-2.3-0.7-2.3-0.7s0.7,4.7,0,4.9c-0.7,0.2-2.1-1.1-2.1-1.1
				s-0.3,9,0.7,13.4s-0.1,4.6-2,3.7c0,0,3.3,12.9,4.1,28.2s0.1,16.5-1.6,16.1c0,0-0.2,9.1-2.4,10.8c-1.2,0.9-2,0-2,0
				s-0.6,10.4-3.3,12c-1.9,1.1-2.6-2.5-2.6-2.5s-7.3,12.1-18.8,16.6c-11.5,4.4-17.4,24.1-17.4,24.1s-9,9.1-10.3,10.4
				c-1.3,1.3-3.4,9.4-5.9,5.4c0,0-2,9-4.9,5.8c0,0-4.1,7-4.2,12.6c0,0,10.1-0.3,15.9,0.8s12.1,5.9,11,12.1c0,0-65.5,0-70.9,0
				s-19.6-17.7-23.9-44c-3.9-23.9,5.9-50.7,24.9-69.2s44.8-40.9,50.2-46c5.4-5.2,9.1-14.5,10.8-20.4c1.7-5.9,10.8-32.2,10.8-32.2
				s-8.6-22.4-9.8-24.5C266,69.1,278.8,63.5,290.6,80.4z"/>
			<g>
				<defs>
					<path id="SVGID_00000097486458175467934930000017193533905218020538_" d="M290.6,80.4c0,0,6.6-3.3,14.6-3.2
						c8,0.1,11.9,3.2,11.9,3.2s23-8.5,25.7-9.3c2.8-0.8,4.2,8.6,1.8,14.4s-9,10.2-13.3,12.6c-4.2,2.3-8,6.3-7.6,8.5
						s22.5-7.9,23.4-8.3c0.9-0.4,1.6,5.4-5,9.3c-6.6,4-14.5,8.3-16.1,10.1c-1.6,1.8-3.9,6.7-4.1,7.4c-0.1,0.6,3.2,9,0.7,9.4
						c-1.9,0.3-2.3-0.7-2.3-0.7s0.7,4.7,0,4.9c-0.7,0.2-2.1-1.1-2.1-1.1s-0.3,9,0.7,13.4s-0.1,4.6-2,3.7c0,0,3.3,12.9,4.1,28.2
						s0.1,16.5-1.6,16.1c0,0-0.2,9.1-2.4,10.8c-1.2,0.9-2,0-2,0s-0.6,10.4-3.3,12c-1.9,1.1-2.6-2.5-2.6-2.5s-7.3,12.1-18.8,16.6
						c-11.5,4.4-17.4,24.1-17.4,24.1s-9,9.1-10.3,10.4c-1.3,1.3-3.4,9.4-5.9,5.4c0,0-2,9-4.9,5.8c0,0-4.1,7-4.2,12.6
						c0,0,10.1-0.3,15.9,0.8s12.1,5.9,11,12.1c0,0-65.5,0-70.9,0s-19.6-17.7-23.9-44c-3.9-23.9,5.9-50.7,24.9-69.2
						s44.8-40.9,50.2-46c5.4-5.2,9.1-14.5,10.8-20.4c1.7-5.9,10.8-32.2,10.8-32.2s-8.6-22.4-9.8-24.5
						C266,69.1,278.8,63.5,290.6,80.4z"/>
				</defs>
				<clipPath id="SVGID_00000097480299880587646240000003224388907570161311_">
					<use xlink:href="#SVGID_00000097486458175467934930000017193533905218020538_"  style="overflow:visible;"/>
				</clipPath>
				<g style="opacity:0.88;clip-path:url(#SVGID_00000097480299880587646240000003224388907570161311_);">
					<g>
						<g>
							<g>
								<path class="st21" d="M269.8,263c-0.1,0-0.2-0.1-0.3-0.1C269.5,263,269.6,263,269.8,263z"/>
								<path class="st21" d="M268.3,270.5C268.3,270.5,268.3,270.5,268.3,270.5L268.3,270.5L268.3,270.5z"/>
								<path class="st21" d="M268.4,270.5l0.3,0.1C268.6,270.5,268.5,270.5,268.4,270.5z"/>
								<path class="st21" d="M267.5,262.2c-0.1-0.1-0.2-0.2-0.4-0.2L267.5,262.2z"/>
								<path class="st21" d="M265.9,262.8c-0.1,0-0.1,0-0.2,0C265.9,262.8,265.9,262.8,265.9,262.8z"/>
								<path class="st21" d="M271.1,256.2c0,0,0.1,0,0.1,0C271.2,256.3,271.2,256.2,271.1,256.2z"/>
								<path class="st21" d="M270.6,255.7c0,0,0-0.1,0-0.1l-0.1,0C270.4,255.6,270.5,255.6,270.6,255.7z"/>
								<path class="st21" d="M270.1,255.9l0-0.1C270.1,255.8,270.1,255.8,270.1,255.9z"/>
								<path class="st21" d="M266.1,252.2l-0.4,0C265.9,252.2,266,252.2,266.1,252.2z"/>
								<path class="st21" d="M271.6,256.4c-0.1,0-0.2-0.1-0.3-0.1C271.4,256.3,271.4,256.4,271.6,256.4z"/>
								<path class="st21" d="M269.9,263.1c-0.1,0-0.1,0-0.2,0C269.8,263.1,269.9,263.1,269.9,263.1z"/>
								<path class="st21" d="M267.6,261.7L267.6,261.7C267.6,261.7,267.6,261.7,267.6,261.7z"/>
								<path class="st21" d="M268.1,273.4c0,0.1,0,0.2,0.1,0.2C268.3,273.4,268.3,273.4,268.1,273.4z"/>
								<path class="st21" d="M270.3,258.1c-1.1,0,0-0.3-1-0.3c0.2,0.2,0.4,0.3-0.2,0.3c-0.6-0.2,0.1-0.3-0.8-0.4l0.3,0.2
									c-0.4,0.1-1.1-0.1-1.1,0c1.2,0.3-0.5,0.6-0.3,0.8l-0.1-0.1l-0.6,0.3c0,0,0,0-0.1,0c0.1,0,0.1,0,0.2,0
									c-0.6,0.1-1,0.3-0.9,0.5c0.7,0.1,0.2,0.8,0.7,1c-0.2-0.1-0.2-0.2,0-0.3l0.8,0.1c0,0.2-0.8,0-0.3,0.2c1.1,0,0-0.3,0.2-0.5
									c0.3,0.1,0.5,0.2,0.6,0.3c0.1-0.3,0.5-0.6-0.6-0.9c0.2-0.1,0.7,0,0.8,0.1c-0.6-0.3,0.7-0.1,0.1-0.4c1,0.1,0.5,0.5,1.1,0.8
									c-0.8,0.3-0.1,0.7,0,1.1c-0.8,0-1.4-0.3-1.9-0.2c-0.5,0.3,0.4,0.4,0.8,0.6c-0.3,0.2-1.3-0.1-1.4,0.3l-0.5-0.3
									c-1.1,0.1,0.4,0.2,0.2,0.4c0.3,0,0.6,0,0.5-0.2c0.4,0,0.5,0.2,0.6,0.2l0,0c0.5,0.1,1.1,0.2,0.8,0.4
									c-0.6-0.2-0.5,0.2-0.8,0.2l-0.1-0.1c0.2,0.2,0.1,0.4,0.2,0.5l-0.2,0c0.3,0.2,1,0.3,0.9,0.4c-0.3,0-1.2-0.3-1-0.1
									c-0.5-0.1-0.5-0.3-0.3-0.5c-0.2,0.2-1,0.2-1,0c-0.6,0,0.2,0.2,0,0.3c0.2,0,0.4,0,0.6,0.1c-0.8-0.1-0.1,0.5,0.5,0.5l-0.4-0.3
									c0.7,0,1.1,0.4,1.5,0.3c-1.1,0,0.5,0.7-0.4,0.7l0.5,0c-0.4,0.4,0.8,0.9,1,1.5c-0.3-0.2-1.5-0.3-1-0.6
									c-0.3,0.4-1.1,0-1.7,0.1c-0.5,0.3,1,0.3,1.4,0.4l-0.2-0.3c1.3,0.4-0.4,0.9,0.4,1.5c-0.3,0-0.2-0.1-0.3-0.2
									c-0.7,0.2,0.1,0.2,0.4,0.4c-0.1,0.2-0.5,0.5-1.3,0.2c-0.2,0.2,0.5,0,0.8,0.2l-0.2,0l0.9,0.4c-0.3,0.2-0.8,0.4-1.6,0.4
									c0.1,0.5,1.9,0.4,2.1,0.8c-0.5,0.2-0.6-0.1-0.9-0.2l0.1,0.3c-0.9-0.2-0.4-0.4-1.5-0.5c1.1,0.4,0.3,0.4,1,0.8l0.1,0
									c0.7,0.2,0.2,0.6,0.3,0.8c-0.4-0.1-0.5-0.4-0.6-0.6c-0.4,0.2-0.1,0.8,0.8,1.2c-0.2,0.1-0.6,0.4-1,0.1
									c-0.2,0.5,1.4,0.4,1,0.7l-0.7-0.1c-1.1,0.3,0.8,1-0.2,1.3l0.9,0.1c-0.4,0-0.6,0.2-0.9,0.2l-0.3-0.3
									c-0.8,0.1,0.7,0.3,0.1,0.5c0.3,0,0.9-0.1,1.2,0c-0.4-1,1-1.8,0.2-2.8c-0.1,0-0.2,0.1-0.4,0c0.2-0.1,0-0.3,0.5-0.2l0.1,0
									c-0.2-0.3,0.9-0.4,0.9-0.5c-0.6-0.2,0.3-0.5-0.7-0.5l0.7-0.1c-0.4-0.1-0.9-0.1-1.1-0.2c0.1-0.2,0.5-0.1,0.8,0
									c0.5-0.6,0.4-1.4,0.2-2.1l0.5,0.2c0.3-0.1-0.8-0.7,0.4-0.4c-0.5-0.4,0.4-0.9-0.9-1c1.3-0.1,0.6-0.7,0.5-1.2
									c-1.1,0-0.3-0.4-0.8-0.6c0.9,0,0.8,0.5,1.4,0.5c-1.3-0.6,1.1-1.2-1.1-1.6c0.1,0,0.2,0,0.3,0c0-0.1,0.4-0.2,0.5-0.3
									c-0.4-0.1-0.6,0.1-0.7-0.1c0.1-0.2,0.7,0,1-0.1c-0.5-0.4-0.6-0.9-1.5-1c0.2-0.1,0.8-0.1,0.9,0c-0.7-0.6,0.2-0.5-0.2-1
									c0,0.2,0.9,0.2,0.5,0.4c1.3-0.1-0.2-0.8,0.5-1.2l-0.8-0.2c-0.1-0.3,0.6-0.2,0.9,0c0.5-0.4,0-0.7,0.1-1c0.1,0,0.3,0,0.2,0.1
									l0.1-0.5c-0.2-0.1-0.6-0.3-1.1-0.3C270.3,257.8,270.6,257.9,270.3,258.1z"/>
								<path class="st21" d="M269.9,257.7L269.9,257.7L269.9,257.7C269.8,257.7,269.8,257.7,269.9,257.7z"/>
								<path class="st21" d="M266.1,261.7c0.2,0,0.3-0.1,0.3-0.1C266.3,261.7,266.2,261.7,266.1,261.7z"/>
								<path class="st21" d="M268.6,253.1c-1.2,0,0.2,0.3-0.2,0.5c-0.2-0.2-0.9-0.2-1.2-0.2c1.6,0.3-0.3,0.3,0,0.7
									c-0.5,0-0.6-0.2-1.2-0.3c0.4,0.3,0.6,0.6,1.5,0.7c0,0.4-0.3,0.7-0.2,1c-0.3-0.3-0.9-0.1-1.6-0.4c1,0.4,2.2,1.1,3.4,1.6
									c-1,0-1.1,0-1.9-0.1c-0.7,0.5,0.9,0.2,0.6,0.7l0.2-0.2c0.3,0.2,1.2,0.3,1.8,0.4l-0.1-0.6c0.7,0,0.5,0.4,0.7,0.5
									c0.8,0.2,0.6-0.3,1.2-0.2c-0.5-0.1-0.3-0.3-0.6-0.5l0.4,0c0.4-0.2-0.5-0.4-0.5-0.7c0.1,0,0.2,0,0.2,0
									c-0.4-0.1-0.9-0.2-1-0.4l0,0.1c-0.8-0.2-1.4-0.8-2.3-0.5l0.3-0.6c0.9,0.1,2.3,0.3,2.4,0.6l0.4,0.1c0.5-0.2-0.7-0.7-1.5-0.6
									c-2.2-0.4,0-0.9-1-1.3c0.6,0,0.8,0.2,1.3,0.4c0.1,0.1,0.1,0.2-0.4,0.2c0.3,0.6,1.9,0,1.7,0.6c-0.3,0.3-1-0.4-1.1,0l1.7,0.4
									c0-0.3-0.3-0.5-0.5-0.8c-1.1-1.3-0.1-2.1-0.1-2.1c-0.1-1.8-0.3-3.6-0.4-5.4c-0.2-0.6-0.2-0.8-1.8-1
									c-0.3,0.1-0.2,0.5-0.8,0.3c0.6,0.1,1,0.3,0.9,0.6c-0.6,0-0.3-0.3-0.4-0.2l0,0.1c-0.3,0-0.5-0.1-0.5-0.2
									c-0.9,0.3-0.7,0.9,0.4,1.2c-0.6,0.3-0.9-0.2-1.4-0.3c-0.5,0.9-0.4,1.6-0.5,2.5c1.1,0,0.7,0.1,1.4,0.3l-0.4,0.1
									c0.2,0,0.9,0.1,1.2-0.1c-0.9,0.5,1.4,0.7,1.9,1.1l-0.6,0c0.1,0.3,0.1,0.4,0.4,0.7c-1.1,0.5-0.2-0.4-1.5-0.4l0.2,0.1
									c-0.5-0.1-1.5-0.2-1.8-0.4c0.9,0.5-0.4,0.7,0.3,1.2c-0.6-0.1-1.1-0.6-1.2-0.7c-0.1,0.2,0.4,0.5-0.2,0.5l0.8,0.1
									c0.1,0.3-0.7-0.1-1.2,0C265.8,253,268.2,252.5,268.6,253.1z"/>
								<path class="st21" d="M267.8,260.5c0.1-0.1,0-0.2,0-0.2C267.7,260.3,267.7,260.4,267.8,260.5z"/>
								<path class="st21" d="M266.4,258.9c-0.1,0-0.2,0-0.3,0C266.2,258.9,266.3,258.9,266.4,258.9z"/>
								<path class="st21" d="M265.3,258.7c0.4,0,0.4,0.1,0.8,0.2C265.9,258.8,265.9,258.5,265.3,258.7z"/>
								<path class="st21" d="M262.9,281.7c0.2,0.1,0.4,0.3,0.6,0.3l-0.2-0.3L262.9,281.7z"/>
								<path class="st21" d="M263.8,281.3l0.3-0.2l-1-0.4C263.1,281,263.9,281,263.8,281.3z"/>
								<path class="st21" d="M264.5,280.6l0.2,0.1C264.7,280.7,264.6,280.6,264.5,280.6z"/>
								<path class="st21" d="M264.1,280.5l-0.7-0.2l0.5,0.4l0.2-0.1c0.3,0,0.4,0,0.5,0l-0.5-0.2
									C264.1,280.4,264.2,280.5,264.1,280.5z"/>
								<path class="st21" d="M264.1,280.2c-0.1,0-0.1,0-0.2,0C264,280.2,264,280.2,264.1,280.2z"/>
								<path class="st21" d="M265.6,279.8c-0.3,0-0.7-0.2-1-0.3c-0.3,0.2,0.8,0.4,0.4,0.6c-0.5-0.5-0.5,0.1-0.9,0.1
									c0.7,0.1,1.2,0,1.5-0.2l-0.5-0.1C265.1,279.7,265.4,279.9,265.6,279.8z"/>
								<path class="st21" d="M264.7,278.2l0.7,0.3c-0.3,0-0.4,0.3-1.1,0.2c0.1,0.1,0.4,0.2,0.6,0.3c-0.4,0-0.7,0.1-0.2,0.3
									c0.6-0.4,0.7-0.3,1-0.7c0.2,0,0.1,0.1,0.1,0.1l0.4-0.2C265.3,278.4,265.3,278,264.7,278.2z"/>
								<path class="st21" d="M265.3,277.8c0,0.2,0.7,0.5,1.1,0.4l-0.5-0.6C266,277.8,266,278,265.3,277.8z"/>
								<path class="st21" d="M265.4,277.5c0.4,0,1.2-0.1,0.5-0.3C266,277.4,264.9,277.2,265.4,277.5z"/>
								<path class="st21" d="M266.3,275.9l-0.5,0.4c-1,0-0.3-0.3-0.7-0.5c-0.3,0.4,0.1,0.3,0.6,0.7c-0.1,0.1,0.4,0.3,0.6,0.5
									C265.7,276.3,268,276.6,266.3,275.9z"/>
								<polygon class="st21" points="265.2,276.7 265.6,276.8 265.3,276.5 								"/>
								<path class="st21" d="M267.5,275c1.2-0.1-0.6-0.6,0-0.9c0.1,0,0.2,0,0.3,0.1l-0.1-0.3l0.3,0c-0.7-0.1-0.9-0.4-1.4-0.6
									c-0.7,0.2,0.8,0.2,0,0.4c-0.3-0.1-0.7-0.2-1-0.3c0.3,0.2,0.7,0.3,1.1,0.4c0.1,0.2-0.3,0.1-0.6,0.1c0.4,0.2,1.3,0.4,1.1,0.7
									c-0.6,0.1-0.9-0.2-0.7,0.1c1.1,0-0.2,0.3,0.4,0.5c-0.2,0.2-0.9,0.3-1.3,0.2c0.8,0.1,1.5,0.4,1.7,0.6l-0.6-0.5l1,0
									C267.2,275.3,267.3,275.1,267.5,275L267.5,275z"/>
								<path class="st21" d="M265.5,273.5c-0.1,0-0.1-0.1-0.2-0.1C265.3,273.4,265.4,273.4,265.5,273.5z"/>
								<polygon class="st21" points="265.3,275.5 265.1,275.4 264.8,275.4 								"/>
								<path class="st21" d="M264.9,273.2c0,0.1,0.3,0.1,0.3,0.1l-0.4-0.1L264.9,273.2z"/>
								<polygon class="st21" points="265.5,273 266.1,272.9 265.7,272.8 								"/>
								<path class="st21" d="M266.7,267.4c-0.4,0.1,0.3,0.2,0.8,0.3C267.7,267.4,266.9,267.6,266.7,267.4z"/>
								<path class="st21" d="M266.2,263.7c-0.5,0.2,0.2,0.4,0.1,0.6C266.7,264.1,266.5,263.9,266.2,263.7z"/>
								<path class="st21" d="M264.1,262c0.2,0.1,0.3,0.1,0.4,0l1.2,0.3C266.1,262.1,264.6,262,264.1,262z"/>
								<path class="st21" d="M264,260.3l0.4,0.3l0-0.1c0.5,0.1,0.7,0.2,1.1,0.3C265.3,260.5,264.9,260.3,264,260.3z"/>
								<path class="st21" d="M265.8,261c0,0,0-0.1-0.1-0.1C265.6,260.9,265.4,260.9,265.8,261z"/>
								<path class="st21" d="M265.7,260.8c-0.1,0-0.1,0-0.1,0c0.1,0.1,0.1,0.1,0.1,0.2C265.8,260.9,265.9,260.9,265.7,260.8z"/>
								<path class="st21" d="M264.6,260.1l-0.1-0.5l-0.2,0.2C265,259.9,263.8,260,264.6,260.1z"/>
								<path class="st21" d="M265.4,257.6l0.7,0c0.2-0.3-1.3-0.8-0.2-0.9c-0.4,0.1-0.8-0.3-1,0.1
									C265.6,256.9,265.6,257.4,265.4,257.6z"/>
								<path class="st21" d="M266.5,256.5c0.2,0.1,0.4,0,0.6,0c0.1-0.1-0.2-0.2-0.5-0.2C267.5,256.4,266,256.4,266.5,256.5z"/>
								<path class="st21" d="M266.5,255.1c0,0.1,0.1,0.2,0.3,0.1c0-0.3-0.8-0.2-1.3-0.4C265.1,255,266.2,255.2,266.5,255.1z"/>
								<path class="st21" d="M271.9,253.2c-0.6,0-0.5,0.2-0.3,0.3C271.5,253.4,271.7,253.3,271.9,253.2z"/>
								<polygon class="st21" points="266.8,252.9 266.7,253 267.6,253.1 								"/>
								<polygon class="st21" points="266.4,251.3 265.8,251.1 265.9,251.4 								"/>
								<path class="st21" d="M266.5,251l0-0.3l-0.2,0.1C266.1,250.9,266.5,250.9,266.5,251z"/>
								<path class="st21" d="M266.5,250.2c0.1,0,0,0.1-0.1,0.1l0.4,0.3L266.5,250.2z"/>
								<path class="st21" d="M270.4,245.9c0.6,0.1,0.2-0.2,0.4-0.3C270.6,245.6,269.8,245.8,270.4,245.9z"/>
							</g>
						</g>
					</g>
				</g>
			</g>
			<path class="st52" d="M342.2,107.6c-6.5,4-14.5,8.3-16.1,10.1c-1.6,1.7-3.9,6.7-4.1,7.3c-6.3-15-9.8-22.1-9.4-29.4
				c0.4-6.5,2.7-8.9,6.3-11.9c3-2.6,2-4.1,1.7-4.6c6.6-2.4,20-7.3,22.1-8c2.8-0.8,4.1,8.6,1.8,14.4c-2.3,5.8-9,10.2-13.3,12.6
				c-4.2,2.3-8,6.3-7.6,8.5c0.5,2.2,22.5-7.9,23.4-8.3C348.1,97.9,348.8,103.6,342.2,107.6z"/>
			<path class="st52" d="M286.8,94.8c-1.7,5.8-9.2,13.7-7.3,37c2,23.4,2.2,25.5-0.8,24.6c0,0-3.3,18.8-7.2,15.1
				c0,0-1.8,6.8-11.4,14.4c-9.5,7.5-31,25.1-30.2,37.3c-5.3-1.1-11.8-0.6-19.5,2.1c0,0-6.7,1.1-14.1,10.6c-3.7,4.8-3.2,12.6-5,9.9
				c0,0-1.9-0.9-4.4,14.1c-1,6.2-1.8,3.4-1.8,3.4s-2.6,8,0.1,18.9c-2.3-5.7-4.1-12.1-5.3-19.2c-3.9-23.9,5.9-50.7,24.9-69.2
				s44.8-40.9,50.2-46c5.4-5.2,9.1-14.5,10.8-20.4s10.8-32.2,10.8-32.2s-8.6-22.4-9.8-24.6c-0.1-0.1,0-0.2,0-0.4
				c1,0.7,5.3,3.9,11.9,8.9C286.4,84.9,288.5,89,286.8,94.8z"/>
			<path class="st23" d="M254.3,307c1.1-6.2-5.2-11-11-12.1c-5.8-1.1-15.9-0.8-15.9-0.8h-8.3"/>
			<path class="st23" d="M210.4,225.4c39-13.4,46.8,28.3,32.5,51.1c-7,11.2-13.8,15.8-17.7,17.6"/>
			<path class="st50" d="M293,220.3c0,0,0,3.2,0.2,8.5c0.1,1.7,0.2,3.5,0.4,5.6c1.3,16.8,5.6,45,19.2,62.6c0,0,14.7-0.2,13.6,10.1
				c0,0-17.7,0-20.3,0c-2.6,0-15.3-15.6-22.3-26.3c0,0-2.8,4.1-3.1-2.9c0,0-1.8,3-3.4,1.3s0-11.1,0-11.1s-1.7,3.3-3.2,1.8
				c-1.5-1.4-0.6-8.2-0.6-8.2s-3.8,4.3-3.3-2c0.1-1.3-5.9-11.2-4.9-14.3C269.1,234.1,284.9,222.3,293,220.3z"/>
			<path class="st23" d="M293.6,234.4c1.3,16.8,5.6,45,19.2,62.6c0,0,14.7-0.2,13.6,10.1"/>
			<path class="st23" d="M293,220.3c0,0,0,3.2,0.2,8.5c0.1,1.7,0.2,3.5,0.4,5.6"/>
			<path class="st23" d="M322.1,307c0,0,0.2-3.8-2.5-5.3"/>
			<path class="st23" d="M270.1,307c0,0,0-3.9-3.4-6"/>
			<path class="st23" d="M263.8,307c0,0-0.4-3.6-3.3-5.1"/>
			<path class="st23" d="M248.7,307c0,0,0-3.9-3.4-6"/>
			<path class="st23" d="M242.3,307c0,0-0.4-3.6-3.3-5.1"/>
			<path class="st23" d="M293.5,114.3c0,0-0.4,10.2,1.5,11.7s3.4-2.4,3.6-2c0.1,0.4,2.3,4.5,3.9,4.5c1.4,0,1.2-2.1,1.2-2.1
				c0.5,0.4,3.7,3,5.5,0.8"/>
			<path class="st55" d="M338.9,72c-0.4,0.2-0.7,0.7-0.6,1.1c0.1,1.1,0.7,3.1,2.5,4.4c2.6,1.9,5.3,0,5.5-0.7
				c0.2-0.7-0.4-6.3-2.6-6.3C342.1,70.6,340,71.5,338.9,72z"/>
			<path class="st55" d="M306.3,85.3c0,0,5.2-3.3,6.4-3.9c0.9-0.5,2.2,3.1,0.5,4.7c-1.5,1.3-3.8,0.2-4.7-1
				C308.5,85.1,307.2,85.3,306.3,85.3z"/>
		</g>
	</g>
</g>
</svg>
