<?xml version="1.0" encoding="utf-8"?>
<!-- Generator: Adobe Illustrator 26.0.3, SVG Export Plug-In . SVG Version: 6.00 Build 0)  -->
<svg version="1.1" xmlns="http://www.w3.org/2000/svg" xmlns:xlink="http://www.w3.org/1999/xlink" x="0px" y="0px"
	 viewBox="0 0 503.6 377.7" style="enable-background:new 0 0 503.6 377.7;" xml:space="preserve">
<style type="text/css">
	.st0{fill:#FFF0DD;}
	.st1{fill:#6B5C52;}
	.st2{fill:#B8BBBF;}
	.st3{fill:#F9E9CD;}
	.st4{fill:#FFE6BD;}
	.st5{fill:#F5F5F2;}
	.st6{fill:#637189;}
	.st7{fill:#9E9082;}
	.st8{fill:#938D89;}
	.st9{fill:#FFDBC0;}
	.st10{fill:#6E85BD;}
	.st11{fill:#E8D9D6;}
	.st12{fill:#A7BC79;}
	.st13{fill:#FF8080;}
	.st14{fill:#3D3533;}
	.st15{fill:#A1683D;}
	.st16{fill:#CCE0FF;}
	.st17{fill:#383531;}
	.st18{fill:#757060;}
	.st19{fill:#D29F7E;}
	.st20{opacity:0.88;clip-path:url(#SVGID_00000077290888957923126230000007367457026685618091_);}
	.st21{fill:#322015;}
	.st22{fill:#1B1C1E;}
	.st23{fill:none;stroke:#1B1C1E;stroke-width:1.2604;stroke-linecap:round;stroke-linejoin:round;stroke-miterlimit:10;}
	.st24{opacity:0.84;clip-path:url(#SVGID_00000129172551788729518510000006930189325692053130_);}
	.st25{clip-path:url(#SVGID_00000051359584300930126090000013926665037040025753_);}
	.st26{fill:none;stroke:#1B1C1E;stroke-width:1.2604;stroke-linecap:round;stroke-linejoin:round;}
	.st27{fill:#D1493B;}
	.st28{fill:#FFAE1F;}
	.st29{opacity:0.88;clip-path:url(#SVGID_00000159458321213621425310000009413816210401177496_);}
	.st30{opacity:0.7;clip-path:url(#SVGID_00000098940068341693693100000004262554223137882008_);}
	.st31{fill:#2C2C2D;}
	.st32{opacity:0.87;clip-path:url(#SVGID_00000160878784474265027350000000956991633289330357_);}
	.st33{fill:#080809;}
	.st34{opacity:0.7;clip-path:url(#SVGID_00000021829067886151224120000000467986991909778862_);}
	.st35{fill:#FBAF5E;}
	.st36{opacity:0.62;clip-path:url(#SVGID_00000101094959633459879640000012274459584328652735_);}
	.st37{fill:#3E240C;}
	.st38{fill:#BC763C;}
	.st39{opacity:0.62;clip-path:url(#SVGID_00000107581690028628462390000015096596520949857982_);}
	.st40{opacity:0.62;clip-path:url(#SVGID_00000014632480773795232280000007485693698966714799_);}
	.st41{fill:#967258;}
	.st42{opacity:0.53;clip-path:url(#SVGID_00000077319831549110642920000016568582694862172320_);}
	.st43{opacity:0.73;clip-path:url(#SVGID_00000143604776475408340900000013563879448875651729_);}
	.st44{fill:none;stroke:#1B1C1E;stroke-width:1.1311;stroke-linecap:round;stroke-linejoin:round;stroke-miterlimit:10;}
	.st45{fill:#3D291C;}
	.st46{fill:#3D291C;stroke:#967258;stroke-width:1.2604;stroke-linecap:round;stroke-linejoin:round;stroke-miterlimit:10;}
	.st47{fill:#D6D4C8;}
	.st48{fill:#1B1C1E;stroke:#967258;stroke-width:1.2604;stroke-linecap:round;stroke-linejoin:round;stroke-miterlimit:10;}
	.st49{opacity:0.52;clip-path:url(#SVGID_00000145043742873480360190000013980445367173462452_);}
	.st50{fill:#B37D4F;}
	.st51{opacity:0.88;clip-path:url(#SVGID_00000098940511596717989750000012969367980183825296_);}
	.st52{fill:#343434;}
	.st53{fill:#BC6464;}
	.st54{opacity:0.88;clip-path:url(#SVGID_00000088836330217669802940000000493077102935445435_);}
	.st55{fill:#1B1C1E;stroke:#1B1C1E;stroke-width:1.1485;stroke-linecap:round;stroke-linejoin:round;stroke-miterlimit:10;}
	.st56{fill:#8C7265;}
	.st57{opacity:0.88;clip-path:url(#SVGID_00000049200312689298081660000007858797746383120803_);}
	.st58{fill:#1B1C1E;stroke:#1B1C1E;stroke-width:1.3664;stroke-linecap:round;stroke-linejoin:round;stroke-miterlimit:10;}
	.st59{opacity:0.88;clip-path:url(#SVGID_00000151504170686544362500000004638823164557534088_);}
	.st60{fill:none;stroke:#1B1C1E;stroke-width:1.3664;stroke-linecap:round;stroke-linejoin:round;stroke-miterlimit:10;}
	.st61{opacity:0.88;clip-path:url(#SVGID_00000083769481616913465370000007932089391081924497_);}
	.st62{opacity:0.88;clip-path:url(#SVGID_00000040545895026340645710000008411086256103763863_);}
	.st63{fill:#5F6C72;}
	.st64{fill:#1B1C1E;stroke:#1B1C1E;stroke-width:1.5329;stroke-linecap:round;stroke-linejoin:round;stroke-miterlimit:10;}
	.st65{opacity:0.88;clip-path:url(#SVGID_00000044177299910169800470000008816514509604538258_);}
	.st66{clip-path:url(#SVGID_00000139990794597248163550000017103256414301148318_);}
	.st67{opacity:0.58;clip-path:url(#SVGID_00000154402362035105890080000007292599729586572986_);}
	.st68{opacity:0.58;clip-path:url(#SVGID_00000085223588444907808070000010741106425986828468_);}
	.st69{fill:#1B1C1E;stroke:#1B1C1E;stroke-width:1.818;stroke-linecap:round;stroke-linejoin:round;stroke-miterlimit:10;}
	.st70{fill:#FFFFFF;}
	.st71{fill:#CC813E;}
	.st72{opacity:0.58;clip-path:url(#SVGID_00000056423258885047567350000000542153658817225618_);}
	.st73{fill:#AA8C7D;}
	.st74{opacity:0.88;clip-path:url(#SVGID_00000168090299950203450990000004076807957136677004_);}
	.st75{opacity:0.88;clip-path:url(#SVGID_00000106148837440422138100000004044891366329710765_);}
	.st76{fill:#1B1C1E;stroke:#1B1C1E;stroke-width:1.2604;stroke-linecap:round;stroke-linejoin:round;stroke-miterlimit:10;}
	.st77{opacity:0.88;clip-path:url(#SVGID_00000018221327820848488740000014386197796651237549_);}
	.st78{opacity:0.88;clip-path:url(#SVGID_00000003800517160412141470000014449787475479078583_);}
	.st79{opacity:0.88;clip-path:url(#SVGID_00000103265615715347818340000006718660614753762691_);}
	.st80{fill:none;stroke:#1B1C1E;stroke-miterlimit:10;}
	.st81{fill:#B8BDC4;}
	.st82{fill:#B4D3CD;}
	.st83{opacity:0.88;clip-path:url(#SVGID_00000020398504419014058540000016541090648108444339_);}
	.st84{opacity:0.88;clip-path:url(#SVGID_00000098942724776953573260000006840899764916482690_);}
	.st85{fill:#EFBE9D;}
	.st86{opacity:0.88;clip-path:url(#SVGID_00000002373807575922101080000016130247323623558326_);}
	.st87{fill:#443730;}
	.st88{opacity:0.88;clip-path:url(#SVGID_00000106105606651041693530000000409247052853885582_);}
	.st89{opacity:0.88;clip-path:url(#SVGID_00000183212343911478028650000014856769213725841333_);}
	.st90{fill:#E2AF8D;}
	.st91{fill:none;stroke:#1B1C1E;stroke-linecap:round;stroke-linejoin:round;stroke-miterlimit:10;}
	.st92{fill:#1B1C1E;stroke:#1B1C1E;stroke-miterlimit:10;}
	.st93{fill:#FCEA9F;}
	.st94{fill:#F6EBEF;}
	.st95{fill:#D4DADD;}
	.st96{opacity:0.61;clip-path:url(#SVGID_00000136412768682649721160000008566133966347881600_);}
	.st97{fill:#353737;}
	.st98{fill:#B3B9BC;}
	.st99{opacity:0.61;clip-path:url(#SVGID_00000008151245005812550370000014438573410727949972_);}
	.st100{opacity:0.61;clip-path:url(#SVGID_00000148652631625383761140000003993358173707028665_);}
	.st101{fill:#B3B9BC;stroke:#1B1C1E;stroke-miterlimit:10;}
	.st102{fill:#CCE2CF;stroke:#1B1C1E;stroke-miterlimit:10;}
	.st103{fill:#EAD6DE;}
	.st104{fill:#1B1C1E;stroke:#1B1C1E;stroke-width:1.0185;stroke-miterlimit:10;}
	.st105{fill:none;stroke:#1B1C1E;stroke-width:1.0185;stroke-miterlimit:10;}
	.st106{fill:#FBAF5E;stroke:#1B1C1E;stroke-miterlimit:10;}
	.st107{fill:#513F3B;}
	.st108{opacity:0.88;clip-path:url(#SVGID_00000142856679801831925320000011918549572563244168_);}
	.st109{opacity:0.88;clip-path:url(#SVGID_00000114792431054287269760000010261154453232656550_);}
	.st110{fill:#8B2403;}
	.st111{fill:#EBDAD2;}
	.st112{fill:#A84E39;}
	.st113{fill:#751A01;}
	.st114{fill:#EBDAD2;stroke:#1B1C1E;stroke-miterlimit:10;}
	.st115{opacity:0.78;clip-path:url(#SVGID_00000066493749807920495250000000933092203705644218_);}
	.st116{fill:#290B01;}
	.st117{opacity:0.78;clip-path:url(#SVGID_00000178175070515355199760000001497597152088652416_);}
	.st118{opacity:0.78;clip-path:url(#SVGID_00000175318860398445550570000005834824283996651707_);}
	.st119{opacity:0.78;clip-path:url(#SVGID_00000006670374883126891060000006440932035799480245_);}
	.st120{fill:#030203;}
	.st121{fill:#86889A;}
	.st122{fill:#0B060A;}
	.st123{fill:#736E72;}
	.st124{fill:#9E9AA0;}
	.st125{fill:#18172A;}
	.st126{fill:#3B4D84;}
	.st127{fill:#FFA3AC;}
	.st128{fill:none;stroke:#0B080B;stroke-width:1.2005;stroke-miterlimit:10;}
	.st129{fill:#E7E6E8;}
	.st130{fill:#0B080B;}
	.st131{fill:none;stroke:#1B1C1E;stroke-width:1.2005;stroke-linecap:round;stroke-linejoin:round;stroke-miterlimit:10;}
	.st132{opacity:0.78;clip-path:url(#SVGID_00000065073388126583716700000013640596858718137995_);}
	.st133{opacity:0.78;clip-path:url(#SVGID_00000057840780260338274080000015092304337567962809_);}
	.st134{fill:#89745E;}
	.st135{opacity:0.78;clip-path:url(#SVGID_00000160169896617116130710000004125160972958041987_);}
	.st136{fill:#060606;}
	.st137{fill:#4D483E;}
	.st138{fill:#FF8A00;}
	.st139{fill:#50483F;}
	.st140{fill:#131313;}
	.st141{fill:#E8DBCD;}
	.st142{opacity:0.78;clip-path:url(#SVGID_00000021115587187315370680000003363589973292367523_);}
	.st143{opacity:0.78;clip-path:url(#SVGID_00000153704145164802988350000009726547937550124723_);}
	.st144{fill:#191212;}
	.st145{fill:#6C5353;}
	.st146{opacity:0.78;clip-path:url(#SVGID_00000146460653823960284350000013552125110880549285_);}
	.st147{fill:#B3B3B3;}
	.st148{fill:#FF9F2C;}
	.st149{fill:none;stroke:#343434;stroke-miterlimit:10;}
	.st150{fill:#21262A;}
	.st151{fill:#563D3D;}
	.st152{opacity:0.78;clip-path:url(#SVGID_00000092443170943398644080000001634217568351494844_);}
	.st153{fill:#181716;}
	.st154{fill:#706153;}
	.st155{fill:none;stroke:#1B1C1E;stroke-width:0.8477;stroke-miterlimit:10;}
	.st156{fill:#FCBD30;}
	.st157{fill:#E8D9CD;}
	.st158{fill:#534E4A;}
	.st159{opacity:0.78;clip-path:url(#SVGID_00000103257733228776656420000008968278667146248354_);}
	.st160{fill:#7DA050;}
	.st161{opacity:0.78;clip-path:url(#SVGID_00000003073673504186696860000011503938579237345970_);}
	.st162{opacity:0.78;clip-path:url(#SVGID_00000136378122896588062270000017255186764902992005_);}
	.st163{opacity:0.78;clip-path:url(#SVGID_00000155134941726813843880000015668312065941062802_);}
	.st164{fill:#EFEECE;}
	.st165{opacity:0.78;clip-path:url(#SVGID_00000080203232392669476640000013309176526537356724_);}
	.st166{fill:#93543B;}
	.st167{fill:#FF510C;}
	.st168{opacity:0.78;clip-path:url(#SVGID_00000060001020468696608570000011908589004316880547_);}
	.st169{fill:#4B1804;}
	.st170{fill:#000A0E;}
	.st171{opacity:0.78;clip-path:url(#SVGID_00000070838544284708411980000009425285860902100919_);}
	.st172{opacity:0.78;clip-path:url(#SVGID_00000077299745074135575650000002907453633340735126_);}
	.st173{fill:#F9C8A7;}
	.st174{fill:#1B1C1E;stroke:#1B1C1E;stroke-width:1.3738;stroke-miterlimit:10;}
	.st175{fill:none;stroke:#1B1C1E;stroke-width:1.3;stroke-miterlimit:10;}
	.st176{fill:#FFCB6E;}
	.st177{fill:#CECECE;}
	.st178{fill:none;stroke:#1B1C1E;stroke-width:1.3037;stroke-miterlimit:10;}
	.st179{fill:#FFFFFF;stroke:#1B1C1E;stroke-width:1.3;stroke-miterlimit:10;}
	.st180{opacity:0.78;clip-path:url(#SVGID_00000016753612343530042390000003481643411200538772_);}
	.st181{fill:none;stroke:#1B1C1E;stroke-width:1.3738;stroke-miterlimit:10;}
	.st182{opacity:0.45;clip-path:url(#SVGID_00000062150515175290469600000001651369733535361156_);}
	.st183{opacity:0.45;clip-path:url(#SVGID_00000117674578810219112310000017248712619516917948_);}
	.st184{opacity:0.45;clip-path:url(#SVGID_00000132086688835513388510000013980376070301316772_);}
	.st185{opacity:0.45;clip-path:url(#SVGID_00000113333408610315553330000002102677811936768700_);}
	.st186{fill:none;stroke:#1B1C1E;stroke-width:1.3738;stroke-linecap:round;stroke-linejoin:round;stroke-miterlimit:10;}
	.st187{fill:#FFB192;}
	.st188{fill:#EB8226;}
	.st189{fill:#F7EDE1;}
	.st190{opacity:0.78;clip-path:url(#SVGID_00000088130784720318658530000012376780199374870422_);}
	.st191{opacity:0.78;clip-path:url(#SVGID_00000089573766588991115490000011863663713052177841_);}
	.st192{opacity:0.5;clip-path:url(#SVGID_00000089559798060307748920000010624113969436949387_);}
	.st193{opacity:0.5;clip-path:url(#SVGID_00000141455673358620306400000001730524911164857729_);}
	.st194{fill:none;stroke:#06002C;stroke-width:1.3038;stroke-miterlimit:10;}
	.st195{fill:#F7A9B4;}
	.st196{fill:#06002C;}
	.st197{opacity:0.5;clip-path:url(#SVGID_00000152944235390746973890000014441295729291506082_);}
	.st198{fill:none;stroke:#06002C;stroke-width:1.3038;stroke-linecap:round;stroke-linejoin:round;stroke-miterlimit:10;}
	.st199{fill:#9BBEDC;}
	.st200{opacity:0.88;clip-path:url(#SVGID_00000011711811844166059900000013933590905783206535_);}
	.st201{opacity:0.88;clip-path:url(#SVGID_00000134252118024132939530000005917015819211860906_);}
</style>
<g id="Background">
	<rect x="-3.2" y="-2.4" class="st16" width="510" height="382.5"/>
</g>
<g id="Illustration">
	<g>
		<g>
			<g>
				<path class="st167" d="M295.5,156.2c0,0-26.8-45-32.9-48.5s-53,45.6-53.7,48.5c-0.6,2.9,14.8,16.4,14.8,16.4
					S265.4,157.5,295.5,156.2z"/>
				<path class="st80" d="M277.5,148.6c0,0-9.2-20.8-14.1-24.6"/>
				<path class="st80" d="M267,151.4c0,0-8.7-15.1-14.8-21.4"/>
				<path class="st80" d="M255.6,154.6c0,0-9.9-13.3-14.1-15.4"/>
				<path class="st80" d="M243.2,158.7c0,0-7.9-8.4-11.4-10.1"/>
				<path class="st80" d="M231.8,163c0,0-5.6-5.6-8.8-6.4"/>
				<g>
					<defs>
						<path id="SVGID_00000083789739020149565070000018122181395149226669_" d="M295.5,156.2c0,0-26.8-45-32.9-48.5
							s-53,45.6-53.7,48.5c-0.6,2.9,14.8,16.4,14.8,16.4S265.4,157.5,295.5,156.2z"/>
					</defs>
					<clipPath id="SVGID_00000014591887118527865580000009450667042473901976_">
						<use xlink:href="#SVGID_00000083789739020149565070000018122181395149226669_"  style="overflow:visible;"/>
					</clipPath>
					<g style="opacity:0.78;clip-path:url(#SVGID_00000014591887118527865580000009450667042473901976_);">
						<g>
							<g>
								<g>
									<path class="st169" d="M253.7,165.8c-0.1-0.2-0.3-0.3-0.4-0.5C253.4,165.2,253.5,165.4,253.7,165.8z"/>
									<path class="st169" d="M270,160.3C270,160.3,270.1,160.3,270,160.3c0.1,0.1,0.1,0.1,0.1,0.2L270,160.3z"/>
									<path class="st169" d="M270.1,160.5l0.3,0.7C270.1,160.9,270.1,160.7,270.1,160.5z"/>
									<path class="st169" d="M250.9,161.7c-0.2-0.1-0.4-0.3-0.7-0.7L250.9,161.7z"/>
									<path class="st169" d="M251.8,158.4c0-0.1,0-0.2,0-0.4C251.8,158.2,251.8,158.3,251.8,158.4z"/>
									<path class="st169" d="M239.4,172c0.1,0.1,0.1,0.2,0.1,0.2C239.5,172.2,239.5,172.1,239.4,172z"/>
									<path class="st169" d="M237.9,171.3c-0.1,0.1-0.2,0.1-0.3,0.1l-0.1-0.1C237.6,171.1,237.8,171.2,237.9,171.3z"/>
									<path class="st169" d="M238.1,170.3l-0.3,0C237.9,170.3,238,170.3,238.1,170.3z"/>
									<path class="st169" d="M227.8,165.1l-0.3-0.7C227.7,164.7,227.7,164.9,227.8,165.1z"/>
									<path class="st169" d="M239.9,172.8c-0.1-0.1-0.2-0.3-0.4-0.5C239.7,172.4,239.9,172.4,239.9,172.8z"/>
									<path class="st169" d="M253.8,166.1c0-0.1-0.1-0.2-0.1-0.3C253.8,165.9,253.8,166,253.8,166.1z"/>
									<path class="st169" d="M249.9,162.1L249.9,162.1C250,162.1,249.9,162.1,249.9,162.1z"/>
									<path class="st169" d="M276.4,159.5c0.2,0,0.3,0.1,0.5,0.2C276.6,160,276.5,159.8,276.4,159.5z"/>
									<path class="st169" d="M243.1,169.2c-0.5-2.1-0.6,0.1-1.2-1.8c0.4,0.3,0.8,0.6,0.6-0.5c-0.6-1-0.6,0.3-1.3-1.3l0.7,0.5
										c0-0.9-0.8-2.1-0.5-2.1c1.1,2.2,1.1-1.3,1.6-1.1l-0.2-0.2l0.3-1.3c0,0,0-0.1,0-0.1c0.1,0.1,0.1,0.3,0.2,0.4
										c-0.1-1.2,0.2-2.2,0.8-2.1c0.6,1.2,1.9-0.1,2.5,0.9c-0.3-0.3-0.5-0.2-0.7,0.2l0.5,1.6c0.5-0.2-0.4-1.5,0.4-0.7
										c0.5,2.2-0.7,0.2-1,0.6c0.3,0.5,0.6,0.8,0.9,1c-0.7,0.3-1.2,1.3-2.4-0.7c-0.1,0.5,0.3,1.4,0.5,1.6c-0.9-1.1,0,1.3-0.8,0.3
										c0.8,1.9,1.4,0.7,2.2,1.7c0.2-1.8,1.5-0.6,2.4-0.5c-0.4-1.5-1.3-2.6-1.3-3.5c0.5-1.2,1,0.6,1.7,1.3
										c0.4-0.7-0.7-2.5,0.2-2.8l-0.8-0.8c-0.1-2.2,0.7,0.7,1,0.2c0,0.6,0.2,1.1-0.3,1.2c0.2,0.8,0.6,1,0.8,1l-0.1,0.1
										c0.5,1,0.8,2,1.2,1.4c-0.7-1.1,0.2-1.1,0.1-1.7l-0.2-0.2c0.5,0.3,0.9,0,1.2,0.2l-0.1-0.3c0.4,0.4,1,1.9,1.3,1.5
										c-0.2-0.6-1.2-2.1-0.6-2c-0.3-0.9-0.9-0.8-1.2-0.4c0.3-0.5,0.1-2-0.4-2c-0.2-1.2,0.6,0.4,0.8-0.3c0,0.4,0.2,0.8,0.3,1.1
										c-0.4-1.6,1-0.4,1.3,0.7l-0.8-0.7c0.3,1.3,1.2,1.9,1.2,2.7c-0.3-2.1,1.6,0.6,1.5-1.2l0.1,1.1c0.9-0.9,2.4,1.2,3.6,1.4
										c-0.5-0.5-1.1-2.8-1.6-1.8c0.9-0.7-0.3-2.3-0.2-3.4c0.6-1,0.9,2,1.4,2.6l-0.7-0.3c1.3,2.4,1.9-1.1,3.4,0.3
										c-0.1-0.7-0.3-0.3-0.5-0.5c0.2-1.5,0.5,0.2,1,0.6c0.5-0.3,0.9-1.1,0.2-2.6c0.5-0.5,0.2,1,0.6,1.4l0-0.4l1,1.7
										c0.4-0.6,0.8-1.7,0.6-3.2c1.2,0.1,1.2,3.6,2.2,4c0.3-0.9-0.4-1.2-0.5-1.8l0.8,0c-0.6-1.8-1.1-0.7-1.5-2.9
										c1.1,2,1,0.4,2.1,1.7l0,0.2c0.7,1.4,1.3,0.2,1.8,0.4c-0.4-0.8-0.9-0.8-1.3-1.1c0.4-0.8,1.9-0.4,2.7,1.4
										c0.3-0.3,0.8-1.2,0.2-1.9c1.1-0.5,1,2.6,1.8,1.9l-0.3-1.4c0.7-2.3,2.4,1.5,3-0.6l0.3,1.7c0.1-0.8,0.5-1.2,0.4-1.9l-0.6-0.5
										c0.2-1.6,0.7,1.3,1.1,0.2c0.1,0.5-0.2,1.8-0.1,2.4c-2.3-0.6-3.9,2.2-6.3,0.8c0-0.2,0.1-0.5,0-0.8c-0.2,0.5-0.7,0.1-0.4,1
										l0.1,0.1c-0.6-0.3-0.7,2-1,2c-0.5-1.1-1,0.7-1.2-1.4l-0.1,1.4c-0.3-0.7-0.4-1.7-0.7-2.1c-0.3,0.2-0.2,1.1,0.2,1.5
										c-1.3,1.1-3,1.2-4.6,0.9l0.6,0.9c-0.2,0.6-1.7-1.4-0.8,1c-0.9-0.8-1.8,1.2-2.4-1.3c0.1,2.6-1.5,1.5-2.5,1.4
										c-0.4-2.2-1-0.4-1.5-1.3c0.3,1.7,1.3,1.5,1.6,2.6c-1.7-2.3-2.3,2.6-3.9-1.5c-0.1,0.2,0,0.4,0.1,0.5
										c-0.2,0.1-0.3,0.9-0.4,1.1c-0.3-0.7,0-1.2-0.5-1.3c-0.3,0.3,0.2,1.4,0.2,2c-1-0.8-2.2-0.9-2.8-2.5c-0.1,0.5,0,1.5,0.3,1.8
										c-1.5-1-1,0.6-2.4,0.1c0.4-0.1,0.7,1.7,1.1,0.9c0.3,2.5-1.9,0.1-2.4,1.6l-0.8-1.4c-0.6-0.1-0.2,1.4,0.3,1.8
										c-0.6,1.2-1.4,0.4-2.1,0.7c0,0.2,0.1,0.5,0.2,0.4l-1,0.4c-0.2-0.3-0.8-1-1.1-2C242.3,169.5,242.7,170,243.1,169.2z"/>
									<path class="st169" d="M241.9,168.7l-0.1-0.2l0,0C241.9,168.6,241.9,168.6,241.9,168.7z"/>
									<path class="st169" d="M249.4,159.1c0,0.4,0,0.6-0.1,0.7C249.3,159.6,249.3,159.4,249.4,159.1z"/>
									<path class="st169" d="M231.3,169.3c-0.7-2.3,0.8,0.1,1-0.6c-0.6-0.2-0.9-1.6-1.1-2.3c1.6,2.8,0.4-0.8,1.7-0.5
										c-0.3-1-0.8-1-1.3-2c0.8,0.6,1.8,0.7,2.5,2.3c0.9-0.3,1.4-1.1,2-1c-0.9-0.4-0.7-1.6-1.7-2.9c1.3,1.7,3.6,3.5,5.4,5.6
										c-0.5-1.9-0.5-2.1-1.2-3.7c0.7-1.6,0.9,1.6,1.8,0.7l-0.4,0.5c0.7,0.4,1.3,2.1,1.8,3.3l-1.3,0.1c0.4,1.3,1.1,0.8,1.5,1.1
										c0.9,1.4-0.3,1.3,0.2,2.4c-0.5-0.9-0.9-0.5-1.3-0.8l0.2,0.7c-0.3,0.9-1.2-0.7-1.7-0.5c0,0.2,0.1,0.4,0.1,0.5
										c-0.4-0.7-0.9-1.6-1.3-1.7l0.3,0c-1-1.5-2.4-2.1-2.3-4.1l-1.1,0.9c0.7,1.7,1.9,4.3,2.7,4.3l0.3,0.7c-0.2,1.2-2-0.8-2.1-2.5
										c-2-4.1-2,0.5-3.5-0.9c0.3,1.2,1,1.5,1.5,2.2c0.3,0,0.5,0,0.2-1c1.4,0.2,1,3.7,2.2,2.9c0.4-0.8-1.4-1.6-0.5-2.1l1.8,3
										c-0.6,0.1-1.3-0.2-1.9-0.4c-1.7-0.6-2.8-0.3-3.5,0.2c-0.7,0.5-1,1.1-1,1.1c-4,1-7.9,2.2-11.8,3.4c-1.4,0-1.7,0.4-3.5-2.5
										c0-0.7,0.8-0.8,0.1-1.7c0.6,1.1,1.3,1.5,1.9,1.2c-0.4-1.2-0.8-0.3-0.7-0.6l0.1-0.1c-0.3-0.5-0.6-0.9-0.8-0.8
										c0-2,1.5-2.2,2.9-0.2c0.1-1.4-1.1-1.6-1.8-2.4c1.7-1.7,3.2-2.1,5.2-3c0.8,2,0.7,1.2,1.5,2.5l-0.1-0.8
										c0.1,0.4,0.9,1.7,0.6,2.3c0.6-2,2.4,2.1,3.5,2.7l-0.5-1c0.7-0.1,0.9-0.1,1.7,0.2c0.3-2.4-1.1,0-1.7-2.6l0.5,0.3
										c-0.5-0.9-1.4-2.6-2-3.2c1.7,1.3,1.2-1.2,2.9-0.3c-0.6-1.1-1.9-1.7-2.2-1.7c0.3-0.3,1.3,0.3,1-0.8l0.6,1.4
										c0.7-0.1-0.6-1.3-0.7-2.3C229.4,163.8,229.6,168.9,231.3,169.3z"/>
									<path class="st169" d="M247.2,163.1c-0.2,0.2-0.3,0.2-0.5,0.1C246.8,163.1,247,163,247.2,163.1z"/>
									<path class="st169" d="M243.1,161.3c-0.1-0.2-0.2-0.4-0.2-0.5C243,160.8,243,161,243.1,161.3z"/>
									<path class="st169" d="M242.1,159.3c0.1,0.7,0.3,0.6,0.7,1.5C242.5,160.3,242,160.5,242.1,159.3z"/>
									<path class="st169" d="M296.8,150c0.1,0.5,0.6,0.9,0.4,1.3l-0.7-0.5L296.8,150z"/>
									<path class="st169" d="M295.5,151.8l-0.6,0.6l-0.5-2.1C295.1,150.3,294.8,151.8,295.5,151.8z"/>
									<path class="st169" d="M293.7,153l0.2,0.5C293.7,153.3,293.6,153.1,293.7,153z"/>
									<path class="st169" d="M293.6,152.1l-0.3-1.5l0.9,1.1l-0.3,0.3c0,0.5-0.2,0.8-0.2,1l-0.3-1.1
										C293.4,152,293.6,152.3,293.6,152.1z"/>
									<path class="st169" d="M292.9,152c0-0.2,0-0.3,0-0.5C292.9,151.7,292.9,151.9,292.9,152z"/>
									<path class="st169" d="M291.4,154.9c0.1-0.6-0.2-1.4-0.3-2c0.6-0.6,0.7,1.7,1.3,0.9c-0.9-1.2,0.3-0.9,0.6-1.8
										c-0.1,1.4-0.4,2.4-1.1,2.9l-0.1-1C291.4,153.9,291.6,154.5,291.4,154.9z"/>
									<path class="st169" d="M287.9,152.8l0.6,1.4c0-0.7,0.9-0.8,0.7-2.2c0.3,0.2,0.4,0.8,0.6,1.2c0.2-0.8,0.3-1.4,0.7-0.3
										c-1.2,1.1-0.8,1.4-1.8,1.9c0,0.3,0.2,0.3,0.3,0.2l-0.6,0.8C288.2,154,287.3,154,287.9,152.8z"/>
									<path class="st169" d="M286.9,154c0.6,0,1,1.4,0.8,2.3l-1.2-1C286.8,155.2,287.2,155.4,286.9,154z"/>
									<path class="st169" d="M286.1,154c-0.2,0.8-0.4,2.4-0.9,1C285.9,155.2,285.4,153,286.1,154z"/>
									<path class="st169" d="M282.3,155.8l1-1.1c0-1.9-0.6-0.5-1-1.3c0.9-0.5,0.7,0.1,1.5,1.2c0.3-0.1,0.8,0.8,1.1,1.3
										C283.3,154.5,283.7,159.1,282.3,155.8z"/>
									<polygon class="st169" points="284.2,153.6 284.4,154.4 283.9,153.9 									"/>
									<path class="st169" d="M280,158.2c-0.3,2.3-1.4-1.1-2,0c0.1,0.1,0.1,0.3,0.3,0.6l-0.6-0.1l0,0.5c-0.2-1.3-0.9-1.8-1.3-2.8
										c0.4-1.5,0.6,1.6,0.9,0c-0.2-0.6-0.5-1.5-0.7-2c0.5,0.6,0.7,1.4,1,2.1c0.4,0.1,0.2-0.7,0.2-1.2c0.6,0.7,0.9,2.7,1.5,2.1
										c0.3-1.2-0.5-1.8,0.3-1.4c-0.1,2.2,0.7-0.4,1.2,0.9c0.5-0.5,0.7-1.8,0.5-2.6c0.2,1.6,0.9,3,1.3,3.4l-1.1-1.2l-0.1,2
										c-0.6-0.8-1-0.6-1.5-0.3L280,158.2z"/>
									<path class="st169" d="M276.6,154.3c-0.1-0.1-0.2-0.2-0.3-0.3C276.4,154,276.5,154.1,276.6,154.3z"/>
									<polygon class="st169" points="281.4,153.7 281.1,153.3 281.2,152.8 									"/>
									<path class="st169" d="M275.9,153c0.1-0.1,0.3,0.6,0.1,0.6l-0.3-0.9L275.9,153z"/>
									<polygon class="st169" points="275.5,154.4 275.4,155.5 275,154.7 									"/>
									<path class="st169" d="M262.5,158c0.3-0.8,0.5,0.6,0.8,1.5C262.8,159.9,263.1,158.4,262.5,158z"/>
									<path class="st169" d="M253.9,158.4c0.2-1,1,0.2,1.4,0C255.1,159.2,254.5,159,253.9,158.4z"/>
									<path class="st169" d="M249.3,155.1c0.2,0.4,0.5,0.5,0.2,0.8l1.1,2.2C250.1,158.9,249.5,156,249.3,155.1z"/>
									<path class="st169" d="M245.2,155.9l0.9,0.7l-0.3,0.2c0.4,0.9,0.7,1.3,1.1,1.9C246.3,158.3,245.6,157.6,245.2,155.9z"/>
									<path class="st169" d="M247.6,158.9c-0.1,0-0.2,0-0.3-0.1C247.3,158.5,247.2,158.2,247.6,158.9z"/>
									<path class="st169" d="M247,158.9c-0.1-0.1-0.1-0.2-0.2-0.2c0.1,0.1,0.3,0.1,0.4,0.2C247.3,159,247.3,159.2,247,158.9z"/>
									<path class="st169" d="M245,157.1l-1.2,0.1l0.3-0.6C244.6,158,244.4,155.7,245,157.1z"/>
									<path class="st169" d="M239.6,160.1l0.3,1.4c-0.6,0.5-2.4-2.1-2.1,0.2c0-0.9-1.1-1.3-0.4-2
										C238.2,160.8,239.2,160.6,239.6,160.1z"/>
									<path class="st169" d="M237.7,163c0.2,0.4,0.2,0.7,0.2,1.1c-0.2,0.2-0.7-0.3-0.7-0.9C238,164.9,237.1,162,237.7,163z"/>
									<path class="st169" d="M234.5,163.9c0.2,0,0.5,0,0.4,0.4c-0.6,0.1-1-1.5-1.6-2.3C233.4,161.1,234.6,163.1,234.5,163.9z"/>
									<path class="st169" d="M233.3,175.5c-0.3-1.2,0.2-1.2,0.4-0.8C233.5,174.5,233.3,174.9,233.3,175.5z"/>
									<polygon class="st169" points="229.7,165.9 229.8,165.6 230.6,167.3 									"/>
									<polygon class="st169" points="225.8,166.3 224.9,165.4 225.7,165.3 									"/>
									<path class="st169" d="M225.2,166.9l-0.6,0.1l0-0.5C224.8,166,225,166.9,225.2,166.9z"/>
									<path class="st169" d="M223.3,167.3c0.1,0.1,0.1-0.1,0.1-0.3l0.8,0.5L223.3,167.3z"/>
									<path class="st169" d="M216.9,178.2c0.6,1.1-0.2,0.6-0.2,0.9C216.5,178.8,216.2,177.2,216.9,178.2z"/>
								</g>
							</g>
						</g>
					</g>
				</g>
			</g>
			<path class="st167" d="M348,234.1c-13.4,9.8-29.1,12.5-36.5,12.8c0,0-10.1-4-14.2-17.3c-0.5,0.2-16.8,7.3-46.1,3.3
				c-20.2-2.8-32-16.7-32.8-17.6c0,0,0,0,0,0c-3.5-5.2-10.4-6-10.4-6c-12.9,46.3-46.6,46.6-48.2,46.2c-1.6-0.5-0.3-8.9,6.1-26.2
				c6.4-17.4-0.3-22.2-10.6-54.6c-10.3-32.5-32.5-51.1-25.7-50.5c6.8,0.6,42.7,8.4,60.1,33.8c14.2,20.8,9.5,21.6,32.1,13
				c5-1.9,11.3-4.2,19.4-6.9c19.1-6.3,37.3-9.4,53.7-9.3c22.2,0.1,41.1,6,55,17.7C373.8,192.6,363,223,348,234.1z"/>
			<path class="st70" d="M311.4,246.9c-7.4,0.3-29,11.7-59.1,6.8c-23.7-3.9-29.4-23.5-32.5-35c-0.3-1.3-0.8-2.4-1.5-3.3
				c0.7,0.9,12.6,14.8,32.8,17.6c29.3,4,45.5-3,46.1-3.3C301.3,242.9,311.4,246.9,311.4,246.9z"/>
			<ellipse class="st170" cx="342.8" cy="205.5" rx="5.1" ry="6.3"/>
			<path class="st167" d="M234.6,244.4c-6.2-2-18-3.6-25.9-1.9c-7.9,1.7-22.5,36.4-17.6,40.3s51.2-32.8,51.6-33.6
				C243.2,248.3,236.9,245.1,234.6,244.4z"/>
			<path class="st80" d="M297.2,229.6C297.2,229.6,297.2,229.6,297.2,229.6"/>
			<path class="st80" d="M218.4,215.3C218.3,215.2,218.3,215.2,218.4,215.3"/>
			<path class="st80" d="M279,178.7c0,0-7.4,1-9.3,8.5c-2.4,9.3,6.9,13.7,6.9,13.7s-7.7,1.7-8.5,8.8s5.5,9.8,5.5,9.8
				s-7.6,4.3,0,10.1"/>
			<path class="st80" d="M254.3,191.3c0,0-5.8,1.9-6.5,7.1c-1,7.2,4.4,9.8,4.4,9.8s-5.3,2.2-4.4,7.9c0.8,5.7,6.5,6.7,6.5,6.7"/>
			<path class="st80" d="M199.9,185.3c0,0-7.7-3.6-18-14.6c-10.3-10.9-21.5-17.7-21.5-17.7"/>
			<path class="st80" d="M199.9,195.4c0,0-11.2-4.5-18.3-8c-7.1-3.5-11.6-4.2-11.6-4.2"/>
			<path class="st80" d="M201.2,201c0,0-14.8,9.9-23.8,7.6"/>
			<path class="st80" d="M197.3,211.8c0,0-4,14.2-19.9,22.2"/>
			<path class="st70" d="M277.5,160.7c-4.2-0.8-12.8-1.3-15.5,6.9s12.9,11.1,19.3,3.5C287.7,163.6,280.2,161.3,277.5,160.7z"/>
			<path class="st70" d="M329,173.4c-12,3.9-16.2-1.1-26.8-8.8c-8.6-6.3-15.7-5.8-14.3-9.8c22-1.1,41.2,3.3,55.9,13
				C346.4,172.9,339.3,170,329,173.4z"/>
			<g>
				<defs>
					<path id="SVGID_00000169557063890340304860000016295474877316461719_" d="M311.4,246.9c-7.4,0.3-29,11.7-59.1,6.8
						c-23.7-3.9-29.4-23.5-32.5-35c-0.3-1.3-0.8-2.4-1.5-3.3c0.7,0.9,12.6,14.8,32.8,17.6c29.3,4,45.5-3,46.1-3.3
						C301.3,242.9,311.4,246.9,311.4,246.9z"/>
				</defs>
				<clipPath id="SVGID_00000042715511506373674460000015587998662444360875_">
					<use xlink:href="#SVGID_00000169557063890340304860000016295474877316461719_"  style="overflow:visible;"/>
				</clipPath>
				<g style="opacity:0.78;clip-path:url(#SVGID_00000042715511506373674460000015587998662444360875_);">
					<g>
						<g>
							<g>
								<path class="st169" d="M290.6,253.8c0-0.1,0-0.2,0-0.3C290.5,253.5,290.5,253.6,290.6,253.8z"/>
								<path class="st169" d="M280.8,256.9C280.8,257,280.8,257,280.8,256.9l0,0.1L280.8,256.9z"/>
								<path class="st169" d="M280.8,257l0,0.4C280.9,257.3,280.9,257.1,280.8,257z"/>
								<path class="st169" d="M290.3,251.1c0-0.1,0.1-0.3,0-0.5L290.3,251.1z"/>
								<path class="st169" d="M288.8,250c0-0.1-0.1-0.1-0.1-0.2C288.7,249.9,288.7,250,288.8,250z"/>
								<path class="st169" d="M299.4,250.6c0,0.1,0,0.1,0,0.1C299.4,250.7,299.4,250.6,299.4,250.6z"/>
								<path class="st169" d="M299.7,249.7c0.1,0,0.1,0,0.1-0.1l0-0.1C299.7,249.4,299.7,249.6,299.7,249.7z"/>
								<path class="st169" d="M299.2,249.4l0.1-0.1C299.3,249.3,299.2,249.3,299.2,249.4z"/>
								<path class="st169" d="M301,243.1l-0.2-0.4C300.9,242.9,301,243,301,243.1z"/>
								<path class="st169" d="M299.5,251.1c0-0.1,0-0.2-0.1-0.4C299.4,250.9,299.3,250.9,299.5,251.1z"/>
								<path class="st169" d="M290.7,254c0-0.1,0-0.1-0.1-0.2C290.6,253.9,290.6,253.9,290.7,254z"/>
								<path class="st169" d="M291,250.8L291,250.8C290.9,250.9,290.9,250.9,291,250.8z"/>
								<path class="st169" d="M277.1,258.3c-0.1,0.1-0.2,0.1-0.2,0.2C277.1,258.6,277.2,258.5,277.1,258.3z"/>
								<path class="st169" d="M296.7,251c-0.6-1,0.3-0.2-0.2-1.2c-0.1,0.3-0.1,0.5-0.5,0c-0.2-0.6,0.4-0.1,0-1l-0.1,0.5
									c-0.4-0.3-0.5-1.1-0.6-1c0.4,1.3-1-0.1-1.1,0.2l0-0.2l-0.6-0.4c0,0,0,0,0-0.1c0,0.1,0.1,0.1,0.1,0.2
									c-0.4-0.5-0.9-0.8-1.2-0.5c0.2,0.7-0.8,0.7-0.7,1.3c0-0.2,0.1-0.3,0.4-0.2l0.4,0.8c-0.3,0.1-0.4-0.7-0.4-0.1
									c0.6,1.1,0.4-0.2,0.7-0.2c0.1,0.3,0.1,0.6,0,0.7c0.4-0.2,1,0,0.7-1.2c0.2,0.2,0.4,0.7,0.4,0.8c0-0.8,0.5,0.5,0.5-0.2
									c0.4,1.1-0.3,0.8-0.3,1.5c-0.8-0.6-0.9,0.4-1.2,0.7c-0.4-0.8-0.4-1.5-0.8-1.9c-0.7-0.3-0.2,0.6-0.2,1.2
									c-0.4-0.1-0.6-1.3-1.1-1.1l0-0.6c-0.8-1,0,0.6-0.4,0.4c0.2,0.2,0.3,0.5,0.5,0.4c0.2,0.4,0.1,0.6,0.1,0.7l0.1,0
									c0.2,0.6,0.4,1.2,0,1c-0.1-0.7-0.5-0.4-0.7-0.6l0-0.2c-0.1,0.3-0.4,0.3-0.5,0.5l-0.1-0.2c0,0.3,0.3,1.2,0,1.1
									c-0.1-0.3-0.2-1.3-0.4-1.1c-0.2-0.5,0.1-0.7,0.4-0.6c-0.3-0.1-0.8-0.8-0.5-1c-0.4-0.6-0.1,0.4-0.4,0.2
									c0.1,0.2,0.2,0.4,0.3,0.6c-0.4-0.8-0.6,0.2-0.3,0.8l0.1-0.6c0.3,0.7,0.2,1.3,0.5,1.6c-0.6-1-0.5,0.9-1.1,0l0.3,0.5
									c-0.7-0.1-0.7,1.4-1.2,1.9c0.1-0.4-0.4-1.6,0.1-1.3c-0.7,0-0.7-1.1-1.1-1.6c-0.6-0.2,0.2,1.2,0.3,1.6l0.2-0.3
									c0.2,1.5-1.3,0.2-1.5,1.3c-0.2-0.3,0-0.3,0.1-0.4c-0.6-0.6-0.2,0.3-0.3,0.6c-0.3,0-0.8-0.2-1-1.1c-0.4-0.1,0.2,0.5,0.2,0.8
									l-0.1-0.2l0.1,1.1c-0.4-0.2-0.9-0.5-1.3-1.3c-0.6,0.4,0.5,2,0.2,2.5c-0.4-0.3-0.2-0.7-0.3-1l-0.4,0.2
									c-0.2-1,0.3-0.7-0.2-1.8c0.1,1.3-0.3,0.5-0.5,1.4l0.1,0.1c0.1,0.8-0.6,0.5-0.8,0.7c-0.1-0.5,0.2-0.7,0.4-0.9
									c-0.4-0.3-1.1,0.4-1,1.5c-0.2-0.1-0.8-0.4-0.6-0.9c-0.7,0,0.2,1.5-0.4,1.4l-0.2-0.8c-0.9-0.9-0.9,1.4-1.7,0.5l0.2,1
									c-0.2-0.4-0.6-0.5-0.7-0.8l0.2-0.4c-0.5-0.7-0.1,0.8-0.5,0.4c0.1,0.3,0.5,0.9,0.6,1.2c1.1-0.9,2.7,0.1,3.6-1.3
									c-0.1-0.1-0.2-0.2-0.2-0.4c0.2,0.2,0.4-0.2,0.5,0.4l0,0.1c0.2-0.3,0.9,0.7,1.1,0.6c-0.1-0.7,0.8,0,0.2-1l0.5,0.6
									c-0.1-0.4-0.3-0.9-0.3-1.2c0.2,0,0.4,0.4,0.3,0.8c1,0.1,1.9-0.4,2.6-1.1l0,0.6c0.3,0.2,0.4-1.2,0.7,0.2
									c0.2-0.7,1.3-0.1,0.7-1.4c0.8,1.2,1.2,0.1,1.7-0.3c-0.6-1.1,0.3-0.5,0.2-1.1c0.5,0.8-0.1,1.1,0.2,1.7c0-1.6,2.1,0.2,1.3-2.1
									c0.1,0.1,0.2,0.1,0.2,0.2c0.1,0,0.4,0.3,0.6,0.3c-0.1-0.4-0.4-0.5-0.2-0.7c0.2,0,0.4,0.7,0.6,0.9c0.2-0.7,0.7-1.2,0.3-2.1
									c0.2,0.2,0.6,0.6,0.5,0.9c0.3-1,0.7-0.2,1.1-0.9c-0.2,0.1,0.3,1-0.2,0.8c0.9,1.1,0.9-0.7,1.7-0.3l-0.2-0.9
									c0.2-0.3,0.6,0.5,0.6,0.8c0.8,0.2,0.8-0.4,1.2-0.6c0.1,0.1,0.1,0.2,0,0.2l0.6-0.3c0-0.2,0-0.7-0.3-1.2
									C297.1,250.8,297.1,251.2,296.7,251z"/>
								<path class="st169" d="M297,250.3l0-0.1L297,250.3C296.9,250.3,296.9,250.3,297,250.3z"/>
								<path class="st169" d="M290.1,249.5c0.1,0.2,0.2,0.2,0.3,0.3C290.3,249.6,290.2,249.5,290.1,249.5z"/>
								<path class="st169" d="M301.5,246.1c-0.7-1.1-0.2,0.4-0.7,0.2c0.1-0.3-0.3-1-0.5-1.3c0.6,1.7-0.5-0.1-0.9,0.5
									c-0.3-0.5-0.1-0.7-0.4-1.3c-0.1,0.5-0.4,1,0,1.9c-0.5,0.3-1,0.2-1.2,0.5c0.2-0.5-0.4-0.9-0.5-1.8c0.2,1.2,0,2.8,0.1,4.3
									c-0.6-0.9-0.6-1-1-1.9c-0.9-0.3,0.3,1-0.4,1l0.4,0c-0.1,0.4,0.3,1.3,0.6,2l0.6-0.5c0.3,0.7-0.1,0.8-0.2,1
									c0.2,0.9,0.7,0.4,0.9,1c-0.2-0.6,0.2-0.5,0.2-0.9l0.2,0.3c0.5,0.2,0.2-0.8,0.5-0.9c0.1,0.1,0.1,0.2,0.1,0.2
									c-0.1-0.4-0.3-1-0.2-1.2l-0.1,0.1c-0.2-1,0.1-1.8-0.8-2.5l0.8-0.1c0.4,0.9,1,2.4,0.7,2.7l0.2,0.4c0.6,0.4,0.5-1.2-0.2-1.8
									c-0.9-2.3,1-0.6,1-1.8c0.4,0.6,0.2,1,0.3,1.4c-0.1,0.2-0.2,0.2-0.5-0.3c-0.5,0.7,1.2,1.8,0.3,2c-0.5-0.1-0.1-1.2-0.7-1
									l0.5,1.8c0.3-0.2,0.5-0.7,0.6-1c0.9-1.9,2.4-1.5,2.4-1.5c2-1.4,4-2.8,6-4.3c0.5-0.6,0.8-0.7,0.1-2.4
									c-0.3-0.2-0.6,0.2-0.8-0.5c0.3,0.6,0.3,1.1-0.1,1.3c-0.4-0.6,0.1-0.5,0-0.6h-0.1c-0.1-0.3-0.2-0.5-0.1-0.6
									c-0.9-0.6-1.5,0-1.1,1.2c-0.7-0.4-0.3-1-0.5-1.6c-1.3,0.2-2,0.7-3.1,1.3c0.6,1,0.3,0.7,0.5,1.5l-0.3-0.3
									c0.2,0.2,0.4,1,0.8,1c-1.1-0.4,0,1.8-0.1,2.5l-0.3-0.6c-0.3,0.3-0.4,0.4-0.6,0.8c-1.2-0.7,0.4-0.5-0.5-1.7l0,0.3
									c-0.2-0.6-0.6-1.5-0.6-2c-0.1,1.2-1,0.1-1.2,1.1c-0.3-0.6,0-1.4,0.1-1.6c-0.2,0.1-0.3,0.7-0.7,0.2l0.4,0.8
									c-0.3,0.3-0.3-0.7-0.7-1.1C299.9,243.3,302,245.2,301.5,246.1z"/>
								<path class="st169" d="M292.5,250.2c0.1,0,0.2-0.1,0.3-0.2C292.7,250.1,292.6,250.1,292.5,250.2z"/>
								<path class="st169" d="M293.5,247.9c0-0.1-0.1-0.2-0.1-0.3C293.4,247.7,293.4,247.8,293.5,247.9z"/>
								<path class="st169" d="M293.1,246.8c0.2,0.3,0.1,0.4,0.3,0.9C293.4,247.3,293.7,247.2,293.1,246.8z"/>
								<path class="st169" d="M265.1,255.5c-0.1,0.2-0.3,0.5-0.3,0.7l0.4-0.3L265.1,255.5z"/>
								<path class="st169" d="M265.6,256.5l0.3,0.4l0.3-1.2C265.9,255.8,266,256.5,265.6,256.5z"/>
								<path class="st169" d="M266.5,257.2l-0.1,0.3C266.5,257.4,266.5,257.3,266.5,257.2z"/>
								<path class="st169" d="M266.5,256.7l0.2-0.8l-0.4,0.6l0.2,0.2c0,0.3,0.1,0.4,0.1,0.6l0.2-0.6
									C266.7,256.7,266.6,256.8,266.5,256.7z"/>
								<path class="st169" d="M266.9,256.7c0-0.1,0-0.2,0-0.3C266.9,256.6,266.9,256.6,266.9,256.7z"/>
								<path class="st169" d="M267.8,258.3c-0.1-0.3,0.1-0.8,0.1-1.1c-0.4-0.3-0.3,1-0.7,0.6c0.5-0.7-0.2-0.5-0.3-1
									c0.1,0.8,0.3,1.4,0.6,1.6l0-0.5C267.8,257.7,267.7,258,267.8,258.3z"/>
								<path class="st169" d="M269.6,256.8l-0.2,0.8c-0.1-0.4-0.5-0.3-0.6-1.1c-0.1,0.1-0.1,0.5-0.3,0.7c-0.2-0.4-0.3-0.7-0.4-0.1
									c0.7,0.5,0.5,0.7,1.1,0.9c0,0.2-0.1,0.2-0.2,0.1l0.4,0.4C269.6,257.5,270.1,257.4,269.6,256.8z"/>
								<path class="st169" d="M270.3,257.4c-0.3,0.1-0.4,0.8-0.2,1.3l0.6-0.7C270.5,258,270.3,258.2,270.3,257.4z"/>
								<path class="st169" d="M270.7,257.3c0.2,0.4,0.5,1.2,0.6,0.4C271,257.9,271,256.7,270.7,257.3z"/>
								<path class="st169" d="M273.1,257.7l-0.7-0.4c-0.3-1,0.2-0.4,0.3-0.9c-0.5-0.1-0.3,0.2-0.6,0.9c-0.2,0-0.3,0.5-0.4,0.9
									C272.3,257.2,272.9,259.7,273.1,257.7z"/>
								<polygon class="st169" points="271.7,256.9 271.7,257.3 271.9,256.9 								"/>
								<path class="st169" d="M274.8,258.4c0.7,1.1,0.5-0.9,1.1-0.5c0,0.1,0,0.2,0,0.3l0.3-0.2l0.1,0.3c-0.2-0.7,0.1-1.1,0.1-1.7
									c-0.6-0.7,0.1,0.9-0.5,0.2c0-0.3-0.1-0.9-0.1-1.1c-0.1,0.4,0,0.9,0,1.3c-0.2,0.1-0.3-0.3-0.3-0.6c-0.1,0.5,0.1,1.5-0.3,1.4
									c-0.4-0.6-0.1-1-0.5-0.7c0.5,1.1-0.5-0.1-0.5,0.7c-0.4-0.2-0.8-0.8-0.8-1.2c0.2,0.9,0.1,1.7-0.1,2l0.4-0.9l0.4,1
									C274.3,258.3,274.5,258.3,274.8,258.4L274.8,258.4z"/>
								<path class="st169" d="M275.8,255.8c0-0.1,0-0.1,0.1-0.2C275.8,255.5,275.8,255.6,275.8,255.8z"/>
								<polygon class="st169" points="273.2,256.4 273.3,256.2 273.1,255.9 								"/>
								<path class="st169" d="M275.9,254.9c-0.1,0,0,0.3,0.1,0.3l0-0.5L275.9,254.9z"/>
								<polygon class="st169" points="276.4,255.5 276.7,256 276.7,255.5 								"/>
								<path class="st169" d="M283.8,253.6c-0.4-0.3-0.1,0.4,0.1,0.9C284.3,254.5,283.6,253.9,283.8,253.6z"/>
								<path class="st169" d="M287.9,250.8c-0.4-0.3-0.4,0.4-0.6,0.5C287.6,251.6,287.8,251.2,287.9,250.8z"/>
								<path class="st169" d="M288.6,247.7c0,0.2,0,0.4,0.2,0.4l0.3,1.3C289.7,249.7,288.9,248.2,288.6,247.7z"/>
								<path class="st169" d="M290.6,246.6l-0.1,0.6l0.2-0.1c0.1,0.5,0.2,0.8,0.3,1.2C291.1,248,291.1,247.4,290.6,246.6z"/>
								<path class="st169" d="M290.7,248.7c0,0,0.1-0.1,0.1-0.1C290.7,248.4,290.6,248.3,290.7,248.7z"/>
								<path class="st169" d="M291,248.5c0-0.1,0-0.1,0-0.2c0,0.1-0.1,0.2-0.1,0.2C290.9,248.7,291,248.7,291,248.5z"/>
								<path class="st169" d="M291.2,247l0.5-0.4l-0.3-0.1C291.6,247.2,290.9,246.2,291.2,247z"/>
								<path class="st169" d="M294.5,246.1l0.4,0.7c0.5,0,0.1-1.8,0.9-0.8c-0.4-0.3-0.1-0.9-0.6-0.9
									C295.3,245.8,294.8,246.2,294.5,246.1z"/>
								<path class="st169" d="M296.4,246.4c0.1,0.2,0.2,0.3,0.4,0.5c0.2,0,0.1-0.4-0.1-0.6C297,247.3,296.2,245.8,296.4,246.4z"/>
								<path class="st169" d="M298,245.5c-0.1,0.1-0.2,0.2,0,0.3c0.3-0.2-0.2-1-0.3-1.5C297.3,244,297.6,245.2,298,245.5z"/>
								<path class="st169" d="M303.4,249.2c-0.4-0.6-0.6-0.3-0.5-0.1C302.9,248.9,303.1,249,303.4,249.2z"/>
								<polygon class="st169" points="300.7,244.2 300.5,244.1 300.9,245.1 								"/>
								<polygon class="st169" points="302.3,242.7 302.2,242 301.9,242.3 								"/>
								<path class="st169" d="M302.7,242.6l0.3-0.2l-0.2-0.2C302.5,242.1,302.8,242.5,302.7,242.6z"/>
								<path class="st169" d="M303.6,242c0,0.1-0.1,0-0.2-0.1l-0.1,0.5L303.6,242z"/>
								<path class="st169" d="M310.8,242.6c0.3,0.6,0.3,0.1,0.5,0.1C311.3,242.5,310.6,241.9,310.8,242.6z"/>
							</g>
						</g>
					</g>
				</g>
			</g>
			<g>
				<defs>
					<path id="SVGID_00000176753758871887828690000012590695437023128999_" d="M311.4,246.9c-2.8,0.1-7.6,1.8-14.1,3.6
						c-4.5-6.1-6.8-12.4-7.7-18.6c-2.8-21,11.7-40.5,15.8-45.4c-2.7,3.5-9.9,14.2-9.9,31c0,4.7,0.7,8.7,1.7,12.1
						C301.3,242.9,311.4,246.9,311.4,246.9z"/>
				</defs>
				<clipPath id="SVGID_00000072244586798455544400000000283288627564424578_">
					<use xlink:href="#SVGID_00000176753758871887828690000012590695437023128999_"  style="overflow:visible;"/>
				</clipPath>
				<g style="opacity:0.78;clip-path:url(#SVGID_00000072244586798455544400000000283288627564424578_);">
					<g>
						<g>
							<g>
								<path class="st169" d="M295.7,226.1c0.1,0,0.1,0.1,0.2,0.1C295.9,226.1,295.8,226.1,295.7,226.1z"/>
								<path class="st169" d="M295.4,215.2C295.4,215.2,295.4,215.2,295.4,215.2L295.4,215.2L295.4,215.2z"/>
								<path class="st169" d="M295.3,215.2l-0.2-0.1C295.2,215.2,295.2,215.2,295.3,215.2z"/>
								<path class="st169" d="M297.5,226.7c0.1,0.1,0.2,0.2,0.3,0.2L297.5,226.7z"/>
								<path class="st169" d="M298.2,225.5c0,0,0.1,0,0.1-0.1C298.3,225.4,298.3,225.4,298.2,225.5z"/>
								<path class="st169" d="M298.3,235.8c0,0-0.1,0-0.1,0C298.2,235.8,298.3,235.8,298.3,235.8z"/>
								<path class="st169" d="M299,236.3c0,0.1,0,0.1,0.1,0.2l0.1,0C299.2,236.4,299,236.3,299,236.3z"/>
								<path class="st169" d="M299.1,235.9l0.1,0.1C299.2,235.9,299.2,235.9,299.1,235.9z"/>
								<path class="st169" d="M304,238.7l0.2-0.1C304.1,238.6,304,238.7,304,238.7z"/>
								<path class="st169" d="M298,235.7c0.1,0,0.2,0,0.2,0C298.1,235.7,298,235.6,298,235.7z"/>
								<path class="st169" d="M295.6,226.1c0,0,0.1,0,0.1,0C295.7,226.1,295.6,226.1,295.6,226.1z"/>
								<path class="st169" d="M297.6,227.4L297.6,227.4C297.6,227.3,297.6,227.3,297.6,227.4z"/>
								<path class="st169" d="M295.6,211.1c0-0.1,0-0.2,0-0.3C295.5,211,295.5,211.1,295.6,211.1z"/>
								<path class="st169" d="M297.7,233c0.6-0.4,0.2,0.4,0.8,0.1c-0.2-0.1-0.4-0.2-0.1-0.5c0.4,0,0.1,0.4,0.7,0.3l-0.3-0.2
									c0.2-0.3,0.7-0.2,0.6-0.4c-0.9,0.1,0-0.9-0.2-1.1l0.1,0.1l0.2-0.5c0,0,0,0,0,0c0,0-0.1,0-0.1,0c0.3-0.3,0.5-0.7,0.3-1
									c-0.5,0-0.5-1-0.9-1c0.1,0.1,0.2,0.2,0.1,0.4l-0.5,0.1c-0.1-0.3,0.5-0.2,0.1-0.4c-0.7,0.3,0.1,0.4,0.1,0.7
									c-0.2,0-0.4-0.1-0.5-0.2c0.1,0.5,0,1,0.8,1c-0.1,0.2-0.4,0.2-0.5,0.2c0.5,0.2-0.3,0.4,0.1,0.5c-0.7,0.1-0.6-0.5-1.1-0.7
									c0.4-0.6-0.3-1-0.5-1.4c0.5-0.2,1,0,1.3-0.2c0.2-0.6-0.4-0.4-0.8-0.6c0.1-0.4,0.8-0.3,0.7-0.8l0.4,0.2
									c0.6-0.5-0.4-0.2-0.3-0.5c-0.2,0.1-0.4,0.2-0.3,0.4c-0.3,0.1-0.4-0.1-0.5-0.2l0,0.1c-0.4,0-0.8,0-0.7-0.3
									c0.5,0.1,0.3-0.3,0.4-0.5l0.1,0.1c-0.2-0.2-0.2-0.5-0.3-0.6l0.1,0c-0.2-0.1-0.8-0.1-0.7-0.4c0.2,0,0.9,0.2,0.7-0.1
									c0.3,0,0.4,0.3,0.4,0.6c0.1-0.3,0.6-0.5,0.7-0.2c0.4-0.2-0.2-0.3-0.1-0.5c-0.1,0.1-0.3,0-0.4,0.1c0.5-0.1-0.1-0.6-0.5-0.6
									l0.4,0.3c-0.4,0.1-0.8-0.2-1-0.1c0.7-0.3-0.5-0.8,0.1-1.1l-0.3,0.2c0.1-0.7-0.8-1.1-1-1.8c0.3,0.2,1,0.1,0.8,0.6
									c0.1-0.7,0.7-0.3,1.1-0.5c0.2-0.5-0.8-0.2-1-0.3l0.2,0.3c-0.9-0.3,0-1.3-0.6-2c0.2-0.1,0.1,0.1,0.2,0.2
									c0.4-0.3-0.1-0.3-0.3-0.5c0.1-0.3,0.2-0.7,0.8-0.6c0.1-0.4-0.3,0.1-0.5-0.1l0.1-0.1l-0.7-0.3c0.2-0.3,0.5-0.7,1-0.9
									c-0.1-0.7-1.3-0.2-1.5-0.8c0.3-0.3,0.4,0.1,0.7,0.1l-0.1-0.5c0.6,0.2,0.3,0.5,1.1,0.5c-0.8-0.4-0.2-0.5-0.7-1l-0.1,0
									c-0.5-0.2-0.1-0.8-0.2-1.1c0.3,0.1,0.3,0.5,0.4,0.7c0.3-0.3,0.1-1.2-0.6-1.5c0.1-0.2,0.4-0.6,0.7-0.3
									c0.2-0.7-0.9-0.4-0.7-0.9l0.5,0.1c0.8-0.6-0.5-1.4,0.2-1.9l-0.6-0.1c0.3-0.1,0.4-0.4,0.7-0.4l0.2,0.3c0.5-0.2-0.4-0.4,0-0.6
									c-0.2,0-0.6,0.2-0.8,0.2c0.1,0.7-0.1,1.3-0.3,2c-0.2,0.7-0.3,1.3,0,2c0.1,0,0.2-0.1,0.3-0.1c-0.2,0.1,0,0.4-0.3,0.4l0-0.1
									c0.1,0.4-0.6,0.7-0.6,0.9c0.4,0.1-0.2,0.7,0.5,0.6l-0.4,0.2c0.3,0.1,0.6,0,0.7,0.2c-0.1,0.2-0.3,0.3-0.5,0.1
									c-0.3,0.9-0.2,2.1,0.1,3l-0.4-0.2c-0.2,0.2,0.6,0.8-0.2,0.7c0.4,0.4-0.1,1.3,0.8,1.3c-0.8,0.4-0.3,1.2,0,1.8
									c0.7-0.2,0.3,0.5,0.7,0.6c-0.6,0.2-0.7-0.4-1.1-0.4c1,0.5-0.3,2,1.2,2c0,0.1-0.1,0.1-0.2,0.1c0,0.1-0.2,0.4-0.2,0.5
									c0.3,0,0.3-0.3,0.5,0c0,0.3-0.4,0.2-0.6,0.4c0.4,0.4,0.8,1.1,1.4,1c-0.1,0.2-0.4,0.4-0.6,0.3c0.7,0.6,0.1,0.7,0.6,1.4
									c-0.1-0.2-0.7,0.1-0.5-0.4c-0.7,0.5,0.5,1.1,0.3,1.8l0.6,0.1c0.2,0.3-0.3,0.5-0.5,0.3c-0.1,0.7,0.3,0.9,0.5,1.4
									c-0.1,0.1-0.2,0.1-0.2,0c0.1,0.2,0.1,0.4,0.2,0.7c0.2,0,0.5,0.1,0.8,0C297.8,233.5,297.6,233.4,297.7,233z"/>
								<path class="st169" d="M298.2,233.4L298.2,233.4L298.2,233.4C298.2,233.4,298.2,233.4,298.2,233.4z"/>
								<path class="st169" d="M298.5,226.9c-0.1,0.1-0.2,0.2-0.2,0.2C298.4,227.1,298.5,227,298.5,226.9z"/>
								<path class="st169" d="M301.9,238.7c0.7-0.5-0.3-0.3-0.3-0.7c0.2,0.2,0.6-0.1,0.8-0.3c-1.1,0.2,0-0.5-0.5-0.9
									c0.3-0.2,0.5,0.1,0.9-0.1c-0.4-0.2-0.8-0.5-1.3-0.3c-0.3-0.5-0.3-1-0.5-1.3c0.4,0.3,0.6-0.2,1.2-0.2c-0.8-0.1-2-0.5-3-0.8
									c0.6-0.3,0.6-0.4,1.2-0.6c0.1-0.8-0.6,0.1-0.7-0.6l0,0.3c-0.3-0.2-0.9,0-1.3,0.1l0.4,0.7c-0.4,0.2-0.6-0.3-0.7-0.4
									c-0.6,0-0.2,0.6-0.6,0.6c0.4,0,0.4,0.3,0.6,0.4l-0.2,0.1c-0.1,0.5,0.6,0.4,0.7,0.7c0,0.1-0.1,0.1-0.1,0.1
									c0.3,0,0.7,0,0.8,0.1l-0.1-0.1c0.6,0,1.3,0.5,1.6-0.2l0.2,0.8c-0.6,0.2-1.5,0.5-1.8,0.1l-0.3,0.1c-0.1,0.5,0.9,0.7,1.3,0.2
									c1.5-0.4,0.6,1.1,1.5,1.3c-0.3,0.2-0.6,0-1,0.1c-0.1-0.1-0.2-0.2,0.1-0.4c-0.6-0.6-1.1,0.8-1.4-0.1c0-0.5,0.8,0.2,0.6-0.4
									l-1.2,0.1c0.2,0.3,0.6,0.6,0.8,0.8c0.8,0.6,1.2,1.2,1.4,1.7c0.2,0.5,0.3,0.8,0.3,0.8c1.5,2.1,3.3,4.2,5.2,6
									c0.7,0.5,0.9,0.7,1.9,0.1c0-0.3-0.4-0.5,0-0.7c-0.4,0.3-0.7,0.2-1-0.1c0.3-0.3,0.4,0.1,0.4,0l0-0.1c0.2-0.1,0.3-0.2,0.4-0.1
									c0.1-0.8-0.5-1.3-1.4-1c0.1-0.6,0.7-0.2,1-0.3c-0.6-1.2-1.2-1.8-2-2.8c-0.6,0.4-0.5,0.2-1,0.3l0.1-0.3
									c-0.1,0.1-0.6,0.3-0.6,0.6c0-1-1.3-0.2-1.9-0.4l0.3-0.2c-0.3-0.3-0.4-0.4-0.8-0.6c0.2-1,0.4,0.5,1.1-0.2l-0.2-0.1
									c0.4-0.1,1-0.4,1.3-0.3c-0.9-0.2-0.3-0.9-1.1-1.3c0.4-0.2,1,0.2,1.2,0.3c-0.1-0.2-0.6-0.4-0.3-0.6l-0.5,0.2
									c-0.3-0.3,0.4-0.2,0.7-0.5C303.6,237.6,302.6,239.3,301.9,238.7z"/>
								<path class="st169" d="M298,229.1c0,0.1,0,0.2,0.1,0.3C298.1,229.3,298.1,229.2,298,229.1z"/>
								<path class="st169" d="M299.6,230.7c0.1,0,0.1,0,0.2,0C299.7,230.6,299.6,230.6,299.6,230.7z"/>
								<path class="st169" d="M300.3,230.6c-0.2,0.1-0.3,0-0.6,0C300,230.7,300.1,231,300.3,230.6z"/>
								<path class="st169" d="M301.5,199.6c-0.1-0.1-0.2-0.4-0.3-0.4l0,0.4L301.5,199.6z"/>
								<path class="st169" d="M300.7,200.2l-0.3,0.3l0.6,0.5C301.1,200.5,300.6,200.5,300.7,200.2z"/>
								<path class="st169" d="M300,201l-0.1-0.1C299.9,201,299.9,201,300,201z"/>
								<path class="st169" d="M300.2,201.1l0.4,0.3l-0.2-0.6l-0.2,0.1c-0.2-0.1-0.3,0-0.4,0l0.3,0.3
									C300.2,201.3,300.2,201.1,300.2,201.1z"/>
								<path class="st169" d="M300.1,201.5c0.1,0,0.1,0,0.2,0C300.2,201.5,300.2,201.5,300.1,201.5z"/>
								<path class="st169" d="M298.9,202.1c0.2,0,0.4,0.3,0.6,0.3c0.3-0.3-0.4-0.6-0.1-0.8c0.2,0.6,0.4-0.1,0.7-0.1
									c-0.5-0.1-0.9,0-1.1,0.3l0.3,0.1C299.2,202.2,299.1,202,298.9,202.1z"/>
								<path class="st169" d="M299,204.3l-0.4-0.4c0.2,0,0.4-0.4,0.9-0.3c0-0.2-0.2-0.3-0.3-0.5c0.3,0,0.5-0.1,0.2-0.3
									c-0.6,0.6-0.6,0.3-0.9,0.9c-0.1,0-0.1-0.1,0-0.2l-0.4,0.3C298.7,204,298.5,204.6,299,204.3z"/>
								<path class="st169" d="M298.5,204.8c0.1-0.3-0.3-0.6-0.7-0.6l0.2,0.8C298,204.8,298.1,204.5,298.5,204.8z"/>
								<path class="st169" d="M298.4,205.2c-0.3,0.1-0.9,0.1-0.4,0.5C297.9,205.3,298.6,205.7,298.4,205.2z"/>
								<path class="st169" d="M297.3,207.5c0.2-0.2,0.3-0.4,0.5-0.6c0.7,0,0.1,0.4,0.4,0.6c0.2-0.5,0-0.4-0.3-0.9
									c0.1-0.1-0.2-0.5-0.3-0.7C297.9,206.9,296.3,206.6,297.3,207.5z"/>
								<polygon class="st169" points="298.3,206.3 298,206.2 298.2,206.6 								"/>
								<path class="st169" d="M296.3,208.9c-0.8,0.3,0.3,0.8-0.1,1.2c0-0.1-0.1,0-0.2-0.1l0,0.4l-0.2,0c0.5,0,0.6,0.5,0.9,0.7
									c0.5-0.3-0.5-0.3,0-0.5c0.2,0.1,0.5,0.2,0.7,0.3c-0.2-0.3-0.5-0.4-0.7-0.5c0-0.3,0.2-0.1,0.4-0.1c-0.2-0.3-0.9-0.4-0.7-0.8
									c0.5-0.2,0.6,0.3,0.5-0.2c-0.8,0.1,0.2-0.4-0.2-0.7c0.2-0.3,0.7-0.5,0.9-0.3c-0.6-0.1-1-0.5-1.1-0.8l0.3,0.7l-0.7,0.1
									C296.6,208.4,296.5,208.6,296.3,208.9L296.3,208.9z"/>
								<path class="st169" d="M297.5,210.8c0,0,0.1,0.1,0.1,0.1C297.6,210.9,297.5,210.8,297.5,210.8z"/>
								<polygon class="st169" points="298,208 298.1,208.2 298.3,208.1 								"/>
								<path class="st169" d="M297.9,211.2c0-0.1-0.2-0.1-0.2-0.1l0.3,0.2L297.9,211.2z"/>
								<polygon class="st169" points="297.4,211.4 297,211.6 297.3,211.7 								"/>
								<path class="st169" d="M296.7,219.4c0.2-0.3-0.2-0.2-0.6-0.3C296,219.6,296.5,219.2,296.7,219.4z"/>
								<path class="st169" d="M297.8,224.3c0.2-0.3-0.2-0.5-0.3-0.8C297.3,223.8,297.5,224.2,297.8,224.3z"/>
								<path class="st169" d="M299.7,226.1c-0.2,0-0.3-0.1-0.3,0l-0.9-0.1C298.4,226.5,299.4,226.2,299.7,226.1z"/>
								<path class="st169" d="M300.4,228.3L300,228l0,0.2c-0.3,0-0.5,0-0.8-0.1C299.5,228.3,299.9,228.5,300.4,228.3z"/>
								<path class="st169" d="M299,227.8c0,0,0.1,0.1,0.1,0.1C299.2,227.9,299.3,227.8,299,227.8z"/>
								<path class="st169" d="M299.2,228.1c0,0,0.1,0,0.1,0c-0.1-0.1-0.1-0.1-0.2-0.2C299,228,299,228,299.2,228.1z"/>
								<path class="st169" d="M300.1,228.7l0.3,0.6l0.1-0.3C300,229.1,300.7,228.6,300.1,228.7z"/>
								<path class="st169" d="M300.9,232l-0.4,0.2c0.1,0.4,1.2,0.5,0.6,1.1c0.2-0.3,0.6,0.1,0.6-0.4
									C301.2,232.9,300.9,232.4,300.9,232z"/>
								<path class="st169" d="M300.8,233.8c-0.2,0-0.2,0.1-0.3,0.2c0,0.2,0.3,0.2,0.4,0.1C300.3,234.2,301.3,233.7,300.8,233.8z"/>
								<path class="st169" d="M301.7,235.5c-0.1-0.1-0.2-0.2-0.2,0c0.2,0.3,0.6,0,1,0C302.7,235.1,301.9,235.2,301.7,235.5z"/>
								<path class="st169" d="M300.1,240c0.3-0.3,0.1-0.5,0-0.5C300.2,239.5,300.2,239.8,300.1,240z"/>
								<polygon class="st169" points="303.1,238.2 303.1,238.1 302.5,238.3 								"/>
								<polygon class="st169" points="304.6,239.9 305.1,239.9 304.8,239.6 								"/>
								<path class="st169" d="M304.8,240.3l0.2,0.3l0.1-0.2C305.1,240.2,304.8,240.4,304.8,240.3z"/>
								<path class="st169" d="M305.5,241.2c-0.1,0,0-0.1,0-0.1l-0.4-0.1L305.5,241.2z"/>
								<path class="st169" d="M307.6,247.5c-0.4,0.3,0.1,0.3,0.2,0.5C307.8,247.9,308,247.3,307.6,247.5z"/>
							</g>
						</g>
					</g>
				</g>
			</g>
			<path class="st167" d="M309.9,244.7c-6.9-1.4-16.8,1.1-23.5,12c-4.4,7.1-7,22-3.8,22s14.9-6.2,23-19
				C312.6,248.7,312.3,245.2,309.9,244.7z"/>
			<path class="st80" d="M305.4,186.5c-2.7,3.5-9.9,14.2-9.9,31c0,4.7,0.7,8.7,1.7,12.1c4.1,13.3,14.2,17.3,14.2,17.3"/>
			<path class="st80" d="M221.7,170.8c5-1.9,11.3-4.2,19.4-6.9c19.1-6.3,37.3-9.4,53.7-9.3"/>
		</g>
		<path class="st22" d="M212.4,284.9c0,0-4.9,2.1,8.5,2.7c13.5,0.6,84.6,0.9,91.9,0c7.3-0.9,15.5-2,1.7-3.2
			c-10.4-0.9-25.7-0.8-36.3-1.1C259.1,282.8,218.2,283,212.4,284.9z"/>
	</g>
</g>
</svg>
