<?xml version="1.0" encoding="utf-8"?>
<!-- Generator: Adobe Illustrator 26.0.3, SVG Export Plug-In . SVG Version: 6.00 Build 0)  -->
<svg version="1.1" xmlns="http://www.w3.org/2000/svg" xmlns:xlink="http://www.w3.org/1999/xlink" x="0px" y="0px"
	 viewBox="0 0 503.6 377.7" style="enable-background:new 0 0 503.6 377.7;" xml:space="preserve">
<style type="text/css">
	.st0{fill:#FFF0DD;}
	.st1{fill:#6B5C52;}
	.st2{fill:#B8BBBF;}
	.st3{fill:#F9E9CD;}
	.st4{fill:#FFE6BD;}
	.st5{fill:#F5F5F2;}
	.st6{fill:#637189;}
	.st7{fill:#9E9082;}
	.st8{fill:#938D89;}
	.st9{fill:#FFDBC0;}
	.st10{fill:#6E85BD;}
	.st11{fill:#E8D9D6;}
	.st12{fill:#A7BC79;}
	.st13{fill:#FF8080;}
	.st14{fill:#3D3533;}
	.st15{fill:#A1683D;}
	.st16{fill:#CCE0FF;}
	.st17{fill:#383531;}
	.st18{fill:#757060;}
	.st19{fill:#D29F7E;}
	.st20{opacity:0.88;clip-path:url(#SVGID_00000181776457347325246080000014899061377141073323_);}
	.st21{fill:#322015;}
	.st22{fill:#1B1C1E;}
	.st23{fill:none;stroke:#1B1C1E;stroke-width:1.2604;stroke-linecap:round;stroke-linejoin:round;stroke-miterlimit:10;}
	.st24{opacity:0.84;clip-path:url(#SVGID_00000170967655109923857650000015849101057127003282_);}
	.st25{clip-path:url(#SVGID_00000065782822845200430060000012169195377180503706_);}
	.st26{fill:none;stroke:#1B1C1E;stroke-width:1.2604;stroke-linecap:round;stroke-linejoin:round;}
	.st27{fill:#D1493B;}
	.st28{fill:#FFAE1F;}
	.st29{opacity:0.88;clip-path:url(#SVGID_00000074413440311053669740000007018108742286051007_);}
	.st30{opacity:0.7;clip-path:url(#SVGID_00000093860377094403173940000016453699967062136732_);}
	.st31{fill:#2C2C2D;}
	.st32{opacity:0.87;clip-path:url(#SVGID_00000054971986220731778540000007590157456798852240_);}
	.st33{fill:#080809;}
	.st34{opacity:0.7;clip-path:url(#SVGID_00000027578460224719880610000008609448091542051476_);}
	.st35{fill:#FBAF5E;}
	.st36{opacity:0.62;clip-path:url(#SVGID_00000003816483878480601740000008340875988316501399_);}
	.st37{fill:#3E240C;}
	.st38{fill:#BC763C;}
	.st39{opacity:0.62;clip-path:url(#SVGID_00000111164562042144111030000011670821581642226610_);}
	.st40{opacity:0.62;clip-path:url(#SVGID_00000115483565750038668290000003244804674313432753_);}
	.st41{fill:#967258;}
	.st42{opacity:0.53;clip-path:url(#SVGID_00000100341898369080726400000007102825956222471853_);}
	.st43{opacity:0.73;clip-path:url(#SVGID_00000121997917916117407130000006124073485857616014_);}
	.st44{fill:none;stroke:#1B1C1E;stroke-width:1.1311;stroke-linecap:round;stroke-linejoin:round;stroke-miterlimit:10;}
	.st45{fill:#3D291C;}
	.st46{fill:#3D291C;stroke:#967258;stroke-width:1.2604;stroke-linecap:round;stroke-linejoin:round;stroke-miterlimit:10;}
	.st47{fill:#D6D4C8;}
	.st48{fill:#1B1C1E;stroke:#967258;stroke-width:1.2604;stroke-linecap:round;stroke-linejoin:round;stroke-miterlimit:10;}
	.st49{opacity:0.52;clip-path:url(#SVGID_00000075867352369673893650000014675708713629057178_);}
	.st50{fill:#B37D4F;}
	.st51{opacity:0.88;clip-path:url(#SVGID_00000106117013233549519410000007096062886167474827_);}
	.st52{fill:#343434;}
	.st53{fill:#BC6464;}
	.st54{opacity:0.88;clip-path:url(#SVGID_00000112591414417979685700000005642306195442540952_);}
	.st55{fill:#1B1C1E;stroke:#1B1C1E;stroke-width:1.1485;stroke-linecap:round;stroke-linejoin:round;stroke-miterlimit:10;}
	.st56{fill:#8C7265;}
	.st57{opacity:0.88;clip-path:url(#SVGID_00000123415196005329756910000006286924709822758785_);}
	.st58{fill:#1B1C1E;stroke:#1B1C1E;stroke-width:1.3664;stroke-linecap:round;stroke-linejoin:round;stroke-miterlimit:10;}
	.st59{opacity:0.88;clip-path:url(#SVGID_00000161632980085088697460000000535852857913810843_);}
	.st60{fill:none;stroke:#1B1C1E;stroke-width:1.3664;stroke-linecap:round;stroke-linejoin:round;stroke-miterlimit:10;}
	.st61{opacity:0.88;clip-path:url(#SVGID_00000098918634745194832900000001990484516566663057_);}
	.st62{opacity:0.88;clip-path:url(#SVGID_00000116936474472732079640000006192355327362897301_);}
	.st63{fill:#5F6C72;}
	.st64{fill:#1B1C1E;stroke:#1B1C1E;stroke-width:1.5329;stroke-linecap:round;stroke-linejoin:round;stroke-miterlimit:10;}
	.st65{opacity:0.88;clip-path:url(#SVGID_00000056391018734205622910000001783827450373552772_);}
	.st66{clip-path:url(#SVGID_00000116920000152873524190000018411321766661565073_);}
	.st67{opacity:0.58;clip-path:url(#SVGID_00000176763034129260977980000011950420930289808564_);}
	.st68{opacity:0.58;clip-path:url(#SVGID_00000126291134869882876410000016003226149635500959_);}
	.st69{fill:#1B1C1E;stroke:#1B1C1E;stroke-width:1.818;stroke-linecap:round;stroke-linejoin:round;stroke-miterlimit:10;}
	.st70{fill:#FFFFFF;}
	.st71{fill:#CC813E;}
	.st72{opacity:0.58;clip-path:url(#SVGID_00000072996585413818962630000014437304148347782530_);}
	.st73{fill:#AA8C7D;}
	.st74{opacity:0.88;clip-path:url(#SVGID_00000074436263017873543050000002950115477024816041_);}
	.st75{opacity:0.88;clip-path:url(#SVGID_00000093855285233343788500000001393124771023805348_);}
	.st76{fill:#1B1C1E;stroke:#1B1C1E;stroke-width:1.2604;stroke-linecap:round;stroke-linejoin:round;stroke-miterlimit:10;}
	.st77{opacity:0.88;clip-path:url(#SVGID_00000069365391925524045620000003324312992216176566_);}
	.st78{opacity:0.88;clip-path:url(#SVGID_00000046331109609156866140000002381803483273126583_);}
	.st79{opacity:0.88;clip-path:url(#SVGID_00000032635371999077165450000002145863822047924105_);}
	.st80{fill:none;stroke:#1B1C1E;stroke-miterlimit:10;}
	.st81{fill:#B8BDC4;}
	.st82{fill:#B4D3CD;}
	.st83{opacity:0.88;clip-path:url(#SVGID_00000163073746535659778160000010044668321924952495_);}
	.st84{opacity:0.88;clip-path:url(#SVGID_00000168112609251219141230000009679016381376956601_);}
	.st85{fill:#EFBE9D;}
	.st86{opacity:0.88;clip-path:url(#SVGID_00000044878532561485727140000006108042581146060459_);}
	.st87{fill:#443730;}
	.st88{opacity:0.88;clip-path:url(#SVGID_00000088820647177410708900000005026536727824552359_);}
	.st89{opacity:0.88;clip-path:url(#SVGID_00000011027234936981688180000016808933544342148481_);}
	.st90{fill:#E2AF8D;}
	.st91{fill:none;stroke:#1B1C1E;stroke-linecap:round;stroke-linejoin:round;stroke-miterlimit:10;}
	.st92{fill:#1B1C1E;stroke:#1B1C1E;stroke-miterlimit:10;}
	.st93{fill:#FCEA9F;}
	.st94{fill:#F6EBEF;}
	.st95{fill:#D4DADD;}
	.st96{opacity:0.61;clip-path:url(#SVGID_00000182527630701456038980000003263773821668518554_);}
	.st97{fill:#353737;}
	.st98{fill:#B3B9BC;}
	.st99{opacity:0.61;clip-path:url(#SVGID_00000011721536942647459390000013538069939892419713_);}
	.st100{opacity:0.61;clip-path:url(#SVGID_00000174571093742572817580000004233816913939327412_);}
	.st101{fill:#B3B9BC;stroke:#1B1C1E;stroke-miterlimit:10;}
	.st102{fill:#CCE2CF;stroke:#1B1C1E;stroke-miterlimit:10;}
	.st103{fill:#EAD6DE;}
	.st104{fill:#1B1C1E;stroke:#1B1C1E;stroke-width:1.0185;stroke-miterlimit:10;}
	.st105{fill:none;stroke:#1B1C1E;stroke-width:1.0185;stroke-miterlimit:10;}
	.st106{fill:#FBAF5E;stroke:#1B1C1E;stroke-miterlimit:10;}
	.st107{fill:#513F3B;}
	.st108{opacity:0.88;clip-path:url(#SVGID_00000098196034146083234290000008948579413286148002_);}
	.st109{opacity:0.88;clip-path:url(#SVGID_00000071518670521226283120000010724775038585823360_);}
	.st110{fill:#8B2403;}
	.st111{fill:#EBDAD2;}
	.st112{fill:#A84E39;}
	.st113{fill:#751A01;}
	.st114{fill:#EBDAD2;stroke:#1B1C1E;stroke-miterlimit:10;}
	.st115{opacity:0.78;clip-path:url(#SVGID_00000041271513954099191280000015615286617052453048_);}
	.st116{fill:#290B01;}
	.st117{opacity:0.78;clip-path:url(#SVGID_00000072993820243972233910000016198015832585556866_);}
	.st118{opacity:0.78;clip-path:url(#SVGID_00000074418342773921279970000002202814367543836583_);}
	.st119{opacity:0.78;clip-path:url(#SVGID_00000106832816884431514800000014565807937872881822_);}
	.st120{fill:#030203;}
	.st121{fill:#86889A;}
	.st122{fill:#0B060A;}
	.st123{fill:#736E72;}
	.st124{fill:#9E9AA0;}
	.st125{fill:#18172A;}
	.st126{fill:#3B4D84;}
	.st127{fill:#FFA3AC;}
	.st128{fill:none;stroke:#0B080B;stroke-width:1.2005;stroke-miterlimit:10;}
	.st129{fill:#E7E6E8;}
	.st130{fill:#0B080B;}
	.st131{fill:none;stroke:#1B1C1E;stroke-width:1.2005;stroke-linecap:round;stroke-linejoin:round;stroke-miterlimit:10;}
	.st132{opacity:0.78;clip-path:url(#SVGID_00000057842199989740466500000000261437899707107001_);}
	.st133{opacity:0.78;clip-path:url(#SVGID_00000091007692907057842140000010574179732644018864_);}
	.st134{fill:#89745E;}
	.st135{opacity:0.78;clip-path:url(#SVGID_00000123426411383586372750000003417291814777339030_);}
	.st136{fill:#060606;}
	.st137{fill:#4D483E;}
	.st138{fill:#FF8A00;}
	.st139{fill:#50483F;}
	.st140{fill:#131313;}
	.st141{fill:#E8DBCD;}
	.st142{opacity:0.78;clip-path:url(#SVGID_00000037662819605900952710000002798935415490355586_);}
	.st143{opacity:0.78;clip-path:url(#SVGID_00000125567672764410701140000017621618688002116520_);}
	.st144{fill:#191212;}
	.st145{fill:#6C5353;}
	.st146{opacity:0.78;clip-path:url(#SVGID_00000086667666713009624340000002645326935635710137_);}
	.st147{fill:#B3B3B3;}
	.st148{fill:#FF9F2C;}
	.st149{fill:none;stroke:#343434;stroke-miterlimit:10;}
	.st150{fill:#21262A;}
	.st151{fill:#563D3D;}
	.st152{opacity:0.78;clip-path:url(#SVGID_00000031919765069586248550000014517050069027846287_);}
	.st153{fill:#181716;}
	.st154{fill:#706153;}
	.st155{fill:none;stroke:#1B1C1E;stroke-width:0.8477;stroke-miterlimit:10;}
	.st156{fill:#FCBD30;}
	.st157{fill:#E8D9CD;}
	.st158{fill:#534E4A;}
	.st159{opacity:0.78;clip-path:url(#SVGID_00000053534890910561414790000010441303156416843937_);}
	.st160{fill:#7DA050;}
	.st161{opacity:0.78;clip-path:url(#SVGID_00000034804752633694623740000010280926097189535895_);}
	.st162{opacity:0.78;clip-path:url(#SVGID_00000001637198539315575840000017391811920428929453_);}
	.st163{opacity:0.78;clip-path:url(#SVGID_00000008123626248913096680000009251281520236741049_);}
	.st164{fill:#EFEECE;}
	.st165{opacity:0.78;clip-path:url(#SVGID_00000013895558263049005000000003272162696010224534_);}
	.st166{fill:#93543B;}
	.st167{fill:#FF510C;}
	.st168{opacity:0.78;clip-path:url(#SVGID_00000062157463550656355910000000700677687334406841_);}
	.st169{fill:#4B1804;}
	.st170{fill:#000A0E;}
	.st171{opacity:0.78;clip-path:url(#SVGID_00000172421303853454958060000017596168720658440631_);}
	.st172{opacity:0.78;clip-path:url(#SVGID_00000042699918535641153240000015484736117719257245_);}
	.st173{fill:#F9C8A7;}
	.st174{fill:#1B1C1E;stroke:#1B1C1E;stroke-width:1.3738;stroke-miterlimit:10;}
	.st175{fill:none;stroke:#1B1C1E;stroke-width:1.3;stroke-miterlimit:10;}
	.st176{fill:#FFCB6E;}
	.st177{fill:#CECECE;}
	.st178{fill:none;stroke:#1B1C1E;stroke-width:1.3037;stroke-miterlimit:10;}
	.st179{fill:#FFFFFF;stroke:#1B1C1E;stroke-width:1.3;stroke-miterlimit:10;}
	.st180{opacity:0.78;clip-path:url(#SVGID_00000095306774399405365230000018011948185481851285_);}
	.st181{fill:none;stroke:#1B1C1E;stroke-width:1.3738;stroke-miterlimit:10;}
	.st182{opacity:0.45;clip-path:url(#SVGID_00000028307320293367264530000015159389621835301822_);}
	.st183{opacity:0.45;clip-path:url(#SVGID_00000167381940530805115890000000317782810129290113_);}
	.st184{opacity:0.45;clip-path:url(#SVGID_00000142162382829689403210000014942574600543951241_);}
	.st185{opacity:0.45;clip-path:url(#SVGID_00000088125694354839836040000008637989525202267577_);}
	.st186{fill:none;stroke:#1B1C1E;stroke-width:1.3738;stroke-linecap:round;stroke-linejoin:round;stroke-miterlimit:10;}
	.st187{fill:#FFB192;}
	.st188{fill:#EB8226;}
	.st189{fill:#F7EDE1;}
	.st190{opacity:0.78;clip-path:url(#SVGID_00000065779437615072223120000014848467525469255078_);}
	.st191{opacity:0.78;clip-path:url(#SVGID_00000054251863458894415770000003764363474916629174_);}
	.st192{opacity:0.5;clip-path:url(#SVGID_00000054235223285557174510000012491657211578221244_);}
	.st193{opacity:0.5;clip-path:url(#SVGID_00000086669049232038885270000002730509529438138248_);}
	.st194{fill:none;stroke:#06002C;stroke-width:1.3038;stroke-miterlimit:10;}
	.st195{fill:#F7A9B4;}
	.st196{fill:#06002C;}
	.st197{opacity:0.5;clip-path:url(#SVGID_00000117635476249385883610000009286078974386359459_);}
	.st198{fill:none;stroke:#06002C;stroke-width:1.3038;stroke-linecap:round;stroke-linejoin:round;stroke-miterlimit:10;}
	.st199{fill:#9BBEDC;}
	.st200{opacity:0.88;clip-path:url(#SVGID_00000081625373411894784750000004422163634574075012_);}
	.st201{opacity:0.88;clip-path:url(#SVGID_00000031206402919663478300000016047047293913359263_);}
</style>
<g id="Background">
	<rect x="-3.2" y="-2.4" class="st0" width="510" height="382.5"/>
</g>
<g id="Illustration">
	<g>
		<path class="st22" d="M139.1,297.5c-2.4-1.3,238.4-3.6,252.4,0c10.1,2.6-26.5,5.2-69.6,5.1c-45.8,0-99-2.8-113.9-1.3
			C178.9,304.2,147.2,302,139.1,297.5z"/>
		<g>
			<path class="st73" d="M165.9,299.1c0,0,17.7,0,18.6,0c0.9,0,11.1-25.6,11.1-25.6s1.9-31.5,10.3-56.9c8.4-25.4,10.3-44.4,9.3-56.9
				l-42.2-18c0,0,0,6.4,0,16.4c0,10,3.3,21.2,10.7,42.1l1.6,73.9l-6.2,17.2C179.2,291.4,166.5,290.5,165.9,299.1z"/>
			<g>
				<defs>
					<path id="SVGID_00000146499545131787821440000015569121299573155468_" d="M165.9,299.1c0,0,17.7,0,18.6,0
						c0.9,0,11.1-25.6,11.1-25.6s1.9-31.5,10.3-56.9c8.4-25.4,10.3-44.4,9.3-56.9l-42.2-18c0,0,0,6.4,0,16.4
						c0,10,3.3,21.2,10.7,42.1l1.6,73.9l-6.2,17.2C179.2,291.4,166.5,290.5,165.9,299.1z"/>
				</defs>
				<clipPath id="SVGID_00000065048515424942874140000004592311871905106327_">
					<use xlink:href="#SVGID_00000146499545131787821440000015569121299573155468_"  style="overflow:visible;"/>
				</clipPath>
				<g style="opacity:0.88;clip-path:url(#SVGID_00000065048515424942874140000004592311871905106327_);">
					<g>
						<g>
							<g>
								<path class="st21" d="M203.2,207.9c0,0.1,0,0.3,0.1,0.4C203.4,208.3,203.3,208.1,203.2,207.9z"/>
								<path class="st21" d="M215.2,206.4C215.3,206.4,215.3,206.4,215.2,206.4l0.1-0.1L215.2,206.4z"/>
								<path class="st21" d="M215.3,206.3l0.2-0.5C215.3,206,215.3,206.1,215.3,206.3z"/>
								<path class="st21" d="M204.3,211.2c0,0.1,0,0.3,0.2,0.6L204.3,211.2z"/>
								<path class="st21" d="M206.3,212.2c0.1,0.1,0.1,0.1,0.2,0.2C206.4,212.3,206.4,212.3,206.3,212.2z"/>
								<path class="st21" d="M195.1,215.3c0,0-0.1-0.1-0.1-0.1C195,215.3,195,215.3,195.1,215.3z"/>
								<path class="st21" d="M195.4,216.4c-0.1,0-0.1,0.1-0.1,0.2l0.1,0.1C195.5,216.7,195.4,216.5,195.4,216.4z"/>
								<path class="st21" d="M196.1,216.5l0,0.2C196.1,216.6,196.1,216.5,196.1,216.5z"/>
								<path class="st21" d="M199.2,223.3l0.4,0.2C199.5,223.5,199.3,223.4,199.2,223.3z"/>
								<path class="st21" d="M194.7,214.9c0.1,0.1,0.2,0.2,0.3,0.3C194.9,215.1,194.9,214.9,194.7,214.9z"/>
								<path class="st21" d="M203.1,207.7c0,0.1,0.1,0.1,0.1,0.2C203.2,207.8,203.2,207.7,203.1,207.7z"/>
								<path class="st21" d="M203.8,211.5L203.8,211.5C203.8,211.5,203.8,211.5,203.8,211.5z"/>
								<path class="st21" d="M219.4,207.4c0.1,0,0.2,0,0.4-0.1C219.6,207.1,219.5,207.2,219.4,207.4z"/>
								<path class="st21" d="M197.6,213.4c1.3,0.8-0.2,0.4,1,1.2c-0.1-0.3-0.2-0.6,0.4-0.3c0.6,0.6-0.3,0.3,0.7,1.1l-0.2-0.5
									c0.6,0.2,1.3,1,1.3,0.8c-1.2-1.2,1-0.3,1-0.6l0.1,0.2l0.9,0.2c0,0,0,0,0.1,0.1c-0.1-0.1-0.1-0.1-0.2-0.2
									c0.8,0.4,1.4,0.6,1.4,0.2c-0.3-0.4-0.2-0.6-0.1-0.8c0.1-0.2,0.3-0.4,0-0.8c0.1,0.3,0,0.3-0.3,0.3l-0.8-0.8
									c0.2-0.2,0.8,0.7,0.5,0c-1.2-1-0.3,0.3-0.6,0.3c-0.2-0.3-0.4-0.6-0.4-0.8c-0.4,0.3-1,0.3,0,1.5c-0.3-0.1-0.8-0.6-0.9-0.8
									c0.5,0.8-0.9-0.4-0.4,0.4c-1.1-1-0.1-1-0.6-1.8c1.1,0.4,0.7-0.7,1-1.3c0.8,0.7,1.2,1.6,1.8,1.9c0.8,0.2-0.1-0.7-0.3-1.4
									c0.5,0,1.2,1.3,1.7,1l0.3,0.7c1.2,0.9-0.2-0.6,0.2-0.5c-0.3-0.3-0.6-0.5-0.7-0.4c-0.4-0.4-0.4-0.7-0.4-0.8l-0.1,0
									c-0.4-0.6-0.9-1.3-0.4-1.2c0.4,0.8,0.6,0.3,1,0.6l0,0.2c0-0.4,0.3-0.4,0.3-0.7l0.1,0.2c-0.1-0.4-0.6-1.4-0.3-1.3
									c0.2,0.4,0.6,1.6,0.8,1.2c0.3,0.6,0.1,0.8-0.2,0.7c0.4,0,1.1,0.9,0.9,1.1c0.6,0.6,0-0.5,0.4-0.2c-0.2-0.2-0.3-0.5-0.5-0.7
									c0.7,1,0.5-0.2,0.1-0.9l0.1,0.7c-0.5-0.8-0.5-1.5-0.9-1.9c0.9,1.2,0.4-1.1,1.2-0.1l-0.5-0.6c0.8,0.1,0.6-1.7,1.3-2.3
									c-0.1,0.5,0.4,2-0.2,1.7c0.7,0.1,0.8,1.4,1.2,2.1c0.6,0.4-0.3-1.5-0.3-2l-0.2,0.4c-0.1-0.9,0.3-1,0.7-0.9
									c0.4,0,0.9,0.3,1.1-0.4c0.1,0.5-0.1,0.3-0.1,0.5c0.5,0.9,0.3-0.3,0.4-0.7c0.4,0.1,0.8,0.5,0.8,1.6c0.4,0.3-0.1-0.7,0-1.1
									l0.1,0.3c0.1-0.4,0.2-0.9,0.3-1.3c0.4,0.4,0.8,0.9,0.9,2.1c0.7-0.2,0.2-2.6,0.8-3.1c0.3,0.6-0.1,0.9-0.1,1.3l0.5-0.1
									c-0.2,1.3-0.6,0.6-0.6,2.2c0.4-1.5,0.5-0.4,1.1-1.4l0-0.1c0.3-1,0.8-0.2,1.2-0.4c-0.2,0.6-0.6,0.6-0.8,0.8
									c0.3,0.5,1.1,0.2,1.7-1.1c0.2,0.2,0.5,0.9,0.1,1.4c0.6,0.4,0.7-1.8,1.2-1.3l-0.3,1c0.2,1.6,1.6-0.9,1.8,0.6l0.5-1.2
									c0,0.5,0.1,0.9,0,1.3l-0.4,0.3c-0.1,1.1,0.6-0.8,0.7,0c0.1-0.4,0.2-1.2,0.3-1.6c-0.8,0.1-1.3-0.4-2-0.8
									c-0.6-0.4-1.3-0.7-2.2-0.2c0,0.2,0.1,0.3,0,0.6c-0.1-0.3-0.4-0.1-0.3-0.7l0.1-0.1c-0.4,0.2-0.6-1.3-0.8-1.4
									c-0.3,0.8-0.8-0.4-0.8,1l-0.2-0.9c-0.1,0.5-0.1,1.2-0.3,1.5c-0.3-0.1-0.2-0.7,0-1.1c-1-0.6-2.5-0.4-3.5,0.3l0.2-0.7
									c-0.4-0.3-0.8,1.4-0.9-0.4c-0.2,0.4-0.6,0.4-1,0.5c-0.3,0.1-0.5,0.4-0.3,1.2c-0.4-0.8-0.8-0.8-1.2-0.7
									c-0.4,0.2-0.6,0.7-0.9,1c0.8,1.3-0.4,0.7-0.2,1.4c-0.7-1,0-1.4-0.3-2.1c0,1-0.6,1-1.1,1.1c-0.5,0.1-0.9,0.3-0.2,1.7
									c-0.1,0-0.2-0.1-0.3-0.3c-0.1,0.1-0.6-0.2-0.8-0.2c0.3,0.5,0.6,0.5,0.5,0.9c-0.3,0.1-0.7-0.7-1-0.9c0,0.9-0.5,1.6,0.3,2.6
									c-0.3-0.1-0.9-0.5-1-0.8c0.1,1.3-0.7,0.4-0.8,1.4c0.2-0.2-0.9-1-0.2-0.9c-0.7-0.5-0.9-0.2-1.1,0.2c-0.1,0.4-0.1,0.9-0.7,0.9
									l0.7,0.9c-0.1,0.4-1-0.2-1.1-0.7c-1,0.1-0.7,0.8-1,1.3c-0.1-0.1-0.3-0.2-0.2-0.2l-0.5,0.6c0.2,0.2,0.5,0.8,1.1,1.1
									C197.2,213.8,197,213.5,197.6,213.4z"/>
								<path class="st21" d="M197.7,214.3l0.1,0.1l0,0C197.8,214.3,197.8,214.3,197.7,214.3z"/>
								<path class="st21" d="M205.3,213c-0.2-0.2-0.3-0.3-0.4-0.3C205,212.8,205.1,212.9,205.3,213z"/>
								<path class="st21" d="M196.4,220.9c1.6,0.6-0.1-0.5,0.5-0.5c0.1,0.4,1,0.7,1.5,0.9c-1.9-1.2,0.6-0.2,0.4-0.9
									c0.6,0.3,0.6,0.6,1.3,1c-0.4-0.5-0.4-1.1-1.5-1.7c0.2-0.5,0.8-0.7,0.8-1.1c0.2,0.6,1,0.7,1.8,1.4c-1.1-1-2.1-2.7-3.3-4.2
									c1.2,0.6,1.3,0.7,2.3,1.4c1.1-0.1-1-0.8-0.2-1.2l-0.4,0.1c-0.2-0.5-1.2-1.2-1.9-1.8l-0.3,0.8c-0.8-0.5-0.4-0.9-0.5-1.1
									c-0.8-0.8-0.9,0-1.6-0.6c0.6,0.5,0.1,0.7,0.3,1l-0.4-0.2c-0.7,0.1,0.3,0.9,0.1,1.2c-0.1,0-0.2-0.1-0.3-0.1
									c0.4,0.4,1,0.8,1,1.1l0-0.2c0.9,0.9,1.2,1.8,2.6,2c-0.2,0.2-0.5,0.3-0.7,0.5c-1.1-0.7-2.8-1.8-2.7-2.3l-0.5-0.3
									c-0.9,0,0.4,1.4,1.5,1.7c2.6,1.8-0.4,1.2,0.5,2.3c-0.8-0.3-1-0.8-1.4-1.2c0-0.2,0-0.3,0.7,0c-0.1-0.9-2.5-1.1-1.8-1.7
									c0.6-0.2,1,1.1,1.4,0.6l-1.9-1.5c-0.1,0.4,0.1,0.9,0.2,1.4c0.3,1.2,0,1.9-0.3,2.3c-0.3,0.4-0.8,0.6-0.8,0.6l-0.6,1.9
									c-0.2,0.6-0.3,1.3-0.5,1.9l-0.5,1.9l-0.4,1.9c0.1,0.9-0.1,1.1,2.1,2.1c0.5,0,0.4-0.5,1.2-0.2c-0.8-0.3-1.2-0.7-1-1.1
									c0.8,0.2,0.3,0.5,0.5,0.4l0.1-0.1c0.4,0.2,0.7,0.3,0.7,0.4c1.4-0.1,1.3-0.9-0.1-1.7c0.9-0.1,1.2,0.6,1.8,1
									c1-1,1.2-1.9,1.7-3c-1.4-0.5-0.9-0.4-1.8-1l0.6,0.1c-0.3,0-1.2-0.6-1.6-0.4c1.4-0.3-1.6-1.6-2-2.3l0.7,0.3
									c0-0.5,0.1-0.6-0.2-1.1c1.6-0.1,0,0.7,1.8,1.2l-0.2-0.3c0.6,0.4,1.8,1,2.2,1.4c-0.9-1.1,0.8-0.7,0.2-1.7
									c0.8,0.4,1.2,1.3,1.2,1.4c0.2-0.2-0.3-0.8,0.5-0.5l-1-0.5c0-0.4,0.9,0.5,1.6,0.6C200.1,222.5,196.6,221.9,196.4,220.9z"/>
								<path class="st21" d="M202.4,212.6c-0.2,0-0.2,0.1-0.2,0.3C202.3,212.8,202.4,212.7,202.4,212.6z"/>
								<path class="st21" d="M202.7,215.4c0.1,0.1,0.2,0.2,0.3,0.3C203,215.6,202.9,215.5,202.7,215.4z"/>
								<path class="st21" d="M203.8,216.5c-0.4-0.3-0.4-0.4-0.8-0.8C203.2,216,203.1,216.2,203.8,216.5z"/>
								<path class="st21" d="M231.7,216.4c0-0.4,0.4-1,0.1-1.1c-0.2,0.2-0.4,0.5-0.7,0.7C231.3,216.2,231.5,216.3,231.7,216.4z"/>
								<path class="st21" d="M229.7,215.7c-0.3-0.1-0.4-0.3-0.6-0.4c-0.1,0.5-0.3,1-0.5,1.4c0.4,0,0.5-0.2,0.6-0.5
									C229.3,216,229.3,215.8,229.7,215.7z"/>
								<path class="st21" d="M228.2,214.8l0.2-0.3C228.3,214.6,228.3,214.7,228.2,214.8z"/>
								<path class="st21" d="M228.1,215.4c-0.1,0.3-0.3,0.7-0.4,1c0.3-0.2,0.5-0.4,0.8-0.6c-0.1-0.1-0.2-0.2-0.2-0.2
									c0.1-0.4-0.1-0.5,0-0.7c-0.1,0.2-0.2,0.5-0.4,0.7C227.9,215.5,228.1,215.3,228.1,215.4z"/>
								<path class="st21" d="M227.6,215.4c0,0.1,0,0.2,0,0.3C227.6,215.6,227.6,215.5,227.6,215.4z"/>
								<path class="st21" d="M227.2,213.1c0,0.4-0.4,0.9-0.6,1.3c0.3,0.5,0.8-1,1-0.4c-0.8,0.6,0,0.7,0,1.3c0.1-1,0.1-1.7-0.1-2.1
									l-0.3,0.6C227,213.8,227.2,213.5,227.2,213.1z"/>
								<path class="st21" d="M224.6,213.9l0.7-0.8c-0.2,0.5,0.3,0.7-0.1,1.6c0.2-0.1,0.4-0.5,0.7-0.7c-0.1,0.5-0.1,0.9,0.3,0.3
									c-0.5-0.9-0.1-1.1-0.6-1.6c0.1-0.2,0.2-0.1,0.2-0.1l-0.1-0.7C225.1,213.1,224.6,213,224.6,213.9z"/>
								<path class="st21" d="M224.4,212.9c0.3,0.1,0.9-0.7,1-1.4l-1,0.4C224.7,212,224.9,212.1,224.4,212.9z"/>
								<path class="st21" d="M224,212.7c0.1-0.5,0.4-1.7-0.2-0.8C224.1,211.9,223.3,213.2,224,212.7z"/>
								<path class="st21" d="M222.2,210.8l0.3,0.9c-0.5,1.2-0.5,0.2-0.9,0.7c0.4,0.5,0.4,0,1.1-0.6c0.1,0.1,0.6-0.4,1-0.6
									C222.5,211.8,223.9,208.9,222.2,210.8z"/>
								<polygon class="st21" points="222.8,212.6 223.1,212.1 222.7,212.3 								"/>
								<path class="st21" d="M221.4,208.8c0.3-1.6-1.1,0.5-1.2-0.3c0.1-0.1,0.1-0.2,0.3-0.3l-0.4,0l0.1-0.3
									c-0.3,0.9-0.8,1.1-1.3,1.7c0,1.1,0.6-1,0.5,0.1c-0.2,0.4-0.5,0.9-0.7,1.2c0.4-0.4,0.6-0.9,0.9-1.3c0.3,0,0,0.5-0.1,0.8
									c0.5-0.4,1-1.7,1.3-1.2c-0.1,0.9-0.7,1.1-0.1,1c0.4-1.5,0.3,0.4,0.9-0.4c0.2,0.4,0,1.3-0.3,1.8c0.5-1.1,1.2-1.8,1.6-2
									l-1,0.6l0.4-1.3C221.8,209.4,221.6,209.2,221.4,208.8L221.4,208.8z"/>
								<path class="st21" d="M218.7,210.9c-0.1,0.1-0.1,0.1-0.2,0.2C218.6,211.2,218.6,211.1,218.7,210.9z"/>
								<polygon class="st21" points="221.3,212 221,212.2 220.9,212.6 								"/>
								<path class="st21" d="M218.1,211.7c0.1,0.1,0.2-0.3,0.2-0.4l-0.3,0.6L218.1,211.7z"/>
								<polygon class="st21" points="218.1,210.8 218.2,210 217.9,210.5 								"/>
								<path class="st21" d="M210.9,208.9c0.3,0.5,0.2-0.5,0.2-1.2C210.6,207.6,211.1,208.5,210.9,208.9z"/>
								<path class="st21" d="M206.9,211.3c0.5,0.4,0.3-0.5,0.5-0.6C207.1,210.4,206.9,210.8,206.9,211.3z"/>
								<path class="st21" d="M207.4,214.8c-0.1-0.3-0.2-0.4-0.3-0.5c-0.3-0.5-0.6-1-0.9-1.5C205.6,212.7,206.9,214.3,207.4,214.8z"
									/>
								<path class="st21" d="M206.3,216.2l-0.2-0.6l-0.1,0.1c-0.4-0.5-0.6-0.8-0.9-1.3C205.1,214.8,205.4,215.4,206.3,216.2z"/>
								<path class="st21" d="M205,213.9c0,0,0,0.1,0,0.2C205.1,214.2,205.3,214.3,205,213.9z"/>
								<path class="st21" d="M204.9,214.2c0,0.1,0.1,0.1,0.1,0.2c0-0.1,0-0.2,0-0.3C204.8,214,204.7,213.9,204.9,214.2z"/>
								<path class="st21" d="M205.5,215.8c-0.1,0.2-0.2,0.3-0.2,0.5l0.4,0.1C204.9,215.6,206.3,216.6,205.5,215.8z"/>
								<path class="st21" d="M203,217.5l-0.9-0.5c-0.4,0.2,1.1,1.8-0.3,1.1c0.6,0.2,0.8,0.9,1.3,0.6
									C202.4,218.1,202.7,217.6,203,217.5z"/>
								<path class="st21" d="M201,218c-0.2-0.2-0.4-0.2-0.7-0.3c-0.2,0.1,0.1,0.4,0.5,0.6C199.7,217.4,201.6,218.5,201,218z"/>
								<path class="st21" d="M200.1,219.6c0-0.1,0-0.3-0.3-0.3c-0.1,0.3,0.9,0.8,1.4,1.3C201.9,220.6,200.7,219.7,200.1,219.6z"/>
								<path class="st21" d="M192.2,219.2c0.8,0.3,0.8,0,0.6-0.2C192.9,219.1,192.5,219.2,192.2,219.2z"/>
								<polygon class="st21" points="198.6,222.1 198.9,222.1 197.7,221.5 								"/>
								<polygon class="st21" points="198.5,224.4 199.1,225 199.2,224.6 								"/>
								<path class="st21" d="M198.1,224.7l-0.1,0.4l0.4,0C198.7,225,198.1,224.8,198.1,224.7z"/>
								<path class="st21" d="M197.9,225.8c-0.1-0.1,0.1,0,0.2,0l-0.4-0.5L197.9,225.8z"/>
								<path class="st21" d="M190.9,229.9c-0.8-0.3-0.4,0.2-0.6,0.2C190.5,230.2,191.6,230.2,190.9,229.9z"/>
							</g>
						</g>
					</g>
				</g>
			</g>
			<path class="st73" d="M294.1,176.7c0,0,5.6-0.3,8.8,9.6c3.2,10,4.2,26.6,7.9,34.7c3.7,8,20.1,17.7,44,36.6l10.6,35.7h5.1
				c0,0-2.8-42.3-6-45c-3.2-2.7-33.4-40-39.5-55S295.9,167.8,294.1,176.7z"/>
			<g>
				<defs>
					<path id="SVGID_00000119093994307976848460000012886424953627555251_" d="M294.1,176.7c0,0,5.6-0.3,8.8,9.6
						c3.2,10,4.2,26.6,7.9,34.7c3.7,8,20.1,17.7,44,36.6l10.6,35.7h5.1c0,0-2.8-42.3-6-45c-3.2-2.7-33.4-40-39.5-55
						S295.9,167.8,294.1,176.7z"/>
				</defs>
				<clipPath id="SVGID_00000074428718266299239260000012042923478217776554_">
					<use xlink:href="#SVGID_00000119093994307976848460000012886424953627555251_"  style="overflow:visible;"/>
				</clipPath>
				<g style="opacity:0.88;clip-path:url(#SVGID_00000074428718266299239260000012042923478217776554_);">
					<g>
						<g>
							<g>
								<path class="st21" d="M309.8,194.7c-0.1,0-0.3,0-0.4,0C309.4,194.8,309.5,194.8,309.8,194.7z"/>
								<path class="st21" d="M313,204.6C313,204.6,313,204.6,313,204.6l0.1,0L313,204.6z"/>
								<path class="st21" d="M313.1,204.5l0.5-0.1C313.4,204.4,313.2,204.4,313.1,204.5z"/>
								<path class="st21" d="M306.5,195.3c-0.1,0-0.3,0-0.6,0L306.5,195.3z"/>
								<path class="st21" d="M305.1,197c-0.1,0-0.1,0.1-0.2,0.2C305,197.1,305.1,197.1,305.1,197z"/>
								<path class="st21" d="M306.4,185.7c0.1,0,0.1,0,0.2-0.1C306.5,185.6,306.5,185.6,306.4,185.7z"/>
								<path class="st21" d="M305.3,185.5c0-0.1,0-0.1-0.1-0.1l-0.1,0C305.1,185.5,305.2,185.5,305.3,185.5z"/>
								<path class="st21" d="M305,186l-0.1-0.1C304.9,186,304.9,186,305,186z"/>
								<path class="st21" d="M297.7,185.2l-0.4,0.3C297.4,185.4,297.6,185.3,297.7,185.2z"/>
								<path class="st21" d="M307,185.5c-0.1,0-0.3,0.1-0.4,0.1C306.7,185.6,306.8,185.7,307,185.5z"/>
								<path class="st21" d="M310,194.6c-0.1,0-0.1,0.1-0.2,0.1C309.9,194.7,309.9,194.7,310,194.6z"/>
								<path class="st21" d="M306.3,194.6L306.3,194.6C306.3,194.7,306.3,194.7,306.3,194.6z"/>
								<path class="st21" d="M314.6,208.1c0.1,0.1,0.2,0.2,0.3,0.2C314.9,208,314.8,208,314.6,208.1z"/>
								<path class="st21" d="M306.8,188.5c-1.2,0.8-0.2-0.3-1.4,0.4c0.4,0,0.6,0,0,0.5c-0.8,0.3-0.1-0.4-1.2,0.1l0.5,0
									c-0.4,0.5-1.4,0.7-1.2,0.8c1.6-0.6-0.2,1,0.2,1.1l-0.2,0l-0.5,0.7c0,0-0.1,0-0.1,0c0.1,0,0.2-0.1,0.3-0.1
									c-0.6,0.5-1,1.1-0.7,1.3c0.9-0.3,0.8,0.8,1.5,0.6c-0.3,0-0.3-0.1-0.2-0.4l1-0.5c0.1,0.3-0.9,0.5-0.2,0.5
									c1.3-0.8-0.2-0.4-0.2-0.7c0.3-0.1,0.7-0.1,0.9-0.1c-0.2-0.4,0.1-1.1-1.4-0.6c0.2-0.3,0.8-0.5,1-0.5
									c-0.9,0.1,0.7-0.6-0.2-0.5c1.3-0.6,1,0.3,1.8,0.1c-0.8,0.9,0.4,0.9,0.8,1.2c-0.9,0.5-1.9,0.6-2.3,1
									c-0.4,0.7,0.7,0.1,1.4,0.1c-0.2,0.5-1.5,0.8-1.4,1.3l-0.7,0c-1.2,0.9,0.6,0,0.5,0.3c0.3-0.2,0.7-0.4,0.5-0.6
									c0.5-0.3,0.8-0.2,0.9-0.1l0-0.1c0.7-0.2,1.4-0.5,1.2-0.1c-0.9,0.2-0.5,0.5-0.8,0.8l-0.2,0c0.4,0.1,0.4,0.4,0.6,0.4l-0.2,0.1
									c0.4,0,1.4-0.4,1.3-0.1c-0.4,0.2-1.6,0.4-1.3,0.6c-0.6,0.2-0.8,0-0.7-0.4c-0.1,0.3-1,0.9-1.2,0.7c-0.7,0.4,0.5,0.1,0.2,0.4
									c0.2-0.1,0.5-0.2,0.7-0.3c-1,0.5,0.2,0.6,0.9,0.3l-0.7,0c0.8-0.4,1.5-0.3,1.9-0.6c-1.2,0.7,1,0.5,0,1.1l0.6-0.4
									c-0.1,0.8,1.6,0.6,2.2,1c-0.5,0-1.9,0.6-1.6,0c0,0.7-1.3,0.8-2,1.3c-0.3,0.7,1.4-0.4,1.9-0.4l-0.4-0.2
									c1.8-0.3,0.2,1.3,1.4,1.4c-0.4,0.2-0.3,0-0.5,0c-0.7,0.6,0.3,0.2,0.7,0.2c0,0.3-0.2,0.8-1.4,1.1c-0.1,0.4,0.6-0.3,1-0.3
									l-0.2,0.2l1.3-0.2c-0.2,0.4-0.7,1-1.6,1.5c0.5,0.5,2.5-0.8,3.1-0.5c-0.4,0.5-0.8,0.3-1.2,0.4l0.3,0.4
									c-1.2,0.3-0.8-0.2-2.1,0.4c1.5-0.2,0.6,0.3,1.7,0.4l0.1-0.1c1-0.2,0.6,0.6,0.8,0.8c-0.6,0.1-0.8-0.1-1.1-0.3
									c-0.3,0.5,0.4,1.1,1.8,0.8c-0.1,0.3-0.5,0.8-1.1,0.8c0,0.7,1.9-0.4,1.7,0.2l-0.9,0.3c-1.1,1.1,1.7,0.7,0.7,1.7l1.1-0.4
									c-0.4,0.3-0.6,0.6-1,0.9l-0.5-0.1c-0.9,0.6,1-0.1,0.5,0.5c0.3-0.1,1-0.7,1.4-0.8c-1.1-0.9,0.1-2.7-1.6-3.5
									c-0.1,0.1-0.3,0.2-0.5,0.3c0.2-0.2-0.2-0.4,0.4-0.6l0.1,0c-0.4-0.2,0.9-1.1,0.8-1.2c-0.8,0.2,0.1-0.8-1.2-0.1l0.7-0.6
									c-0.5,0.1-1.1,0.4-1.4,0.4c0-0.3,0.5-0.5,0.9-0.4c0.2-1-0.4-1.9-1.2-2.6l0.7,0c0.2-0.3-1.4-0.3,0.2-0.8
									c-0.8-0.1-0.1-1.3-1.7-0.6c1.4-1,0.2-1.3-0.2-1.8c-1.3,0.7-0.6-0.3-1.3-0.1c1-0.6,1.3,0,2-0.4c-1.9,0.2,0.4-2.2-2.4-1.1
									c0.1-0.1,0.2-0.2,0.3-0.2c0-0.1,0.3-0.5,0.4-0.7c-0.5,0.2-0.6,0.5-0.9,0.3c0-0.3,0.8-0.5,1.1-0.8c-0.8-0.1-1.4-0.6-2.5-0.1
									c0.2-0.3,0.8-0.7,1.1-0.7c-1.2-0.2-0.2-0.7-1-1.1c0.2,0.2,1.2-0.5,0.9,0.1c1.4-1-0.8-0.8-0.3-1.8l-1.1,0.3
									c-0.3-0.2,0.6-0.7,1-0.7c0.3-0.9-0.4-0.8-0.7-1.2c0.1-0.1,0.3-0.2,0.3-0.1l-0.3-0.6c-0.3,0.1-0.9,0.1-1.5,0.5
									C306.6,188.1,307,188,306.8,188.5z"/>
								<path class="st21" d="M306,188.3l-0.1,0.1l0,0C306,188.4,306,188.4,306,188.3z"/>
								<path class="st21" d="M304.5,195.7c0.2-0.2,0.3-0.3,0.3-0.3C304.8,195.5,304.6,195.6,304.5,195.7z"/>
								<path class="st21" d="M301.1,184.1c-1.3,1,0.4,0.2,0.2,0.7c-0.4-0.1-1.1,0.5-1.5,0.8c2-0.9-0.1,0.6,0.5,0.8
									c-0.6,0.4-0.8,0.2-1.5,0.6c0.6,0,1.1,0.2,2.2-0.3c0.3,0.5,0.2,1,0.5,1.2c-0.6-0.1-1.1,0.6-2.1,0.9c1.4-0.4,3.3-0.5,5.1-0.8
									c-1.1,0.7-1.2,0.8-2.3,1.4c-0.4,1,1.2-0.4,1.1,0.3l0.1-0.4c0.5,0.1,1.6-0.5,2.4-0.9l-0.6-0.6c0.8-0.5,0.9,0,1.2,0.1
									c1.1-0.3,0.5-0.8,1.2-1.1c-0.7,0.3-0.6-0.1-1-0.2l0.4-0.3c0.2-0.6-0.9-0.1-1.1-0.4c0.1-0.1,0.2-0.2,0.3-0.2
									c-0.5,0.2-1.2,0.4-1.4,0.3l0.1,0.1c-1.1,0.3-2.1,0.2-3,1.2l-0.1-0.8c1.1-0.6,2.9-1.5,3.2-1.2l0.5-0.2
									c0.4-0.7-1.4-0.3-2.2,0.5c-2.8,1.4-0.7-1-2.1-0.7c0.7-0.5,1.1-0.4,1.7-0.6c0.2,0.1,0.3,0.2-0.3,0.6c0.8,0.4,2.1-1.6,2.4-0.7
									c-0.1,0.6-1.4,0.3-1.2,0.9l2.2-0.9c-0.3-0.3-0.8-0.4-1.2-0.5c-1.1-0.3-1.5-0.9-1.7-1.4c-0.2-0.5-0.1-0.9-0.1-0.9
									c-0.9-1-1.7-2-2.7-2.9l-1.4-1.4c-0.5-0.5-1-0.9-1.5-1.3c-0.8-0.4-1-0.6-2.7,0.8c-0.2,0.5,0.3,0.6-0.4,1.1
									c0.6-0.6,1.2-0.7,1.4-0.3c-0.6,0.6-0.5,0-0.6,0.2l0,0.1c-0.3,0.3-0.6,0.4-0.7,0.4c-0.6,1.2,0.1,1.6,1.5,0.7
									c-0.4,0.8-1.1,0.7-1.7,1c0.1,0.3,0.2,0.6,0.3,0.8c0.1,0.3,0.2,0.5,0.4,0.7c0.3,0.4,0.6,0.8,1,1.3c1.2-0.9,0.8-0.5,1.7-1
									l-0.4,0.4c0.2-0.2,1.1-0.7,1.2-1.1c-0.4,1.3,2.1-0.5,2.9-0.5l-0.6,0.4c0.4,0.3,0.5,0.4,1,0.4c-0.8,1.4-0.5-0.4-1.9,0.9
									l0.4,0c-0.6,0.3-1.7,1-2.3,1.1c1.4-0.2,0.1,1,1.3,1c-0.7,0.4-1.6,0.3-1.8,0.2c0.1,0.2,0.8,0.2,0.2,0.7l0.9-0.6
									c0.3,0.2-0.8,0.5-1.3,1C297.9,186.4,300.1,183.8,301.1,184.1z"/>
								<path class="st21" d="M305.6,193.1c0-0.1-0.1-0.2-0.2-0.3C305.5,192.9,305.5,193,305.6,193.1z"/>
								<path class="st21" d="M303,192.3c-0.1,0.1-0.3,0.1-0.4,0.2C302.7,192.4,302.8,192.4,303,192.3z"/>
								<path class="st21" d="M301.6,192.8c0.4-0.3,0.5-0.2,1-0.4C302.2,192.5,302.1,192.2,301.6,192.8z"/>
								<path class="st21" d="M314.2,221.6c0.3-0.1,0.7,0,0.9-0.1l-0.5-0.2L314.2,221.6z"/>
								<path class="st21" d="M315,220.4l0.2-0.5l-1.4,0.3C313.9,220.6,314.8,220,315,220.4z"/>
								<path class="st21" d="M315.3,219l0.4-0.1C315.4,219,315.3,219,315.3,219z"/>
								<path class="st21" d="M314.7,219.3l-1,0.3l0.9,0.2l0.1-0.3c0.3-0.1,0.4-0.3,0.6-0.4l-0.8,0.1
									C314.6,219.2,314.8,219.2,314.7,219.3z"/>
								<path class="st21" d="M314.5,218.9c-0.1,0.1-0.2,0.1-0.3,0.2C314.3,219,314.4,219,314.5,218.9z"/>
								<path class="st21" d="M315.9,217.3c-0.3,0.2-0.9,0.3-1.3,0.4c-0.2,0.5,1.2-0.1,0.9,0.4c-1-0.2-0.5,0.4-1,0.8
									c0.9-0.5,1.4-0.9,1.5-1.4l-0.6,0.2C315.3,217.6,315.7,217.5,315.9,217.3z"/>
								<path class="st21" d="M313.7,216l1-0.1c-0.4,0.2-0.3,0.7-1.2,1c0.2,0.1,0.6,0,0.9,0c-0.4,0.3-0.8,0.5,0,0.4
									c0.4-0.9,0.7-0.8,0.7-1.5c0.2-0.1,0.2,0,0.2,0.1l0.4-0.6C314.6,215.9,314.3,215.4,313.7,216z"/>
								<path class="st21" d="M314.2,215.2c0.2,0.3,1.1,0.1,1.6-0.3l-1-0.4C315,214.8,315.1,215,314.2,215.2z"/>
								<path class="st21" d="M314,214.8c0.4-0.3,1.4-0.9,0.4-0.7C314.7,214.3,313.2,214.7,314,214.8z"/>
								<path class="st21" d="M314.1,212.3l-0.4,0.8c-1.2,0.6-0.5-0.1-1.1-0.1c-0.1,0.6,0.3,0.3,1.2,0.4c0,0.2,0.7,0.2,1.1,0.2
									C313.6,213.2,316.5,212,314.1,212.3z"/>
								<polygon class="st21" points="313.3,213.9 313.8,213.8 313.3,213.7 								"/>
								<path class="st21" d="M314.9,210.4c1.3-0.9-1.1-0.4-0.6-1c0.1,0,0.2-0.1,0.4,0l-0.3-0.3l0.3-0.1c-0.8,0.3-1.3,0.1-2,0.2
									c-0.8,0.7,1.1-0.2,0.3,0.5c-0.4,0.1-1,0.3-1.4,0.3c0.5,0,1-0.1,1.6-0.2c0.2,0.2-0.3,0.3-0.6,0.5c0.6,0.1,1.9-0.4,1.7,0.1
									c-0.7,0.5-1.2,0.3-0.8,0.6c1.3-0.7-0.1,0.5,0.9,0.3c-0.1,0.4-0.9,0.9-1.4,1.1c1.1-0.4,2.1-0.5,2.5-0.4l-1.1-0.2l1.2-0.7
									c-0.7-0.1-0.7-0.3-0.6-0.7L314.9,210.4z"/>
								<path class="st21" d="M311.6,209.9c-0.1,0-0.2,0-0.3,0C311.3,209.9,311.4,209.9,311.6,209.9z"/>
								<polygon class="st21" points="312.6,212.5 312.3,212.4 311.9,212.7 								"/>
								<path class="st21" d="M310.6,210c0,0.1,0.4,0,0.4-0.1l-0.6,0.1L310.6,210z"/>
								<polygon class="st21" points="311.2,209.3 311.9,208.9 311.3,209 								"/>
								<path class="st21" d="M309,201.9c-0.3,0.4,0.5,0,1.1-0.2C310.2,201.2,309.4,202,309,201.9z"/>
								<path class="st21" d="M306,197.9c-0.4,0.5,0.5,0.4,0.6,0.6C306.9,198.1,306.5,197.9,306,197.9z"/>
								<path class="st21" d="M302.3,197.4c0.3-0.1,0.5-0.1,0.5-0.2l1.6-0.5C304.7,196.1,303,197.1,302.3,197.4z"/>
								<path class="st21" d="M301.1,195.5l0.7,0l-0.1-0.2c0.6-0.2,0.9-0.3,1.5-0.4C302.8,194.8,302.1,194.9,301.1,195.5z"/>
								<path class="st21" d="M303.7,195.1c0,0-0.1-0.1-0.1-0.1C303.4,195.1,303.2,195.3,303.7,195.1z"/>
								<path class="st21" d="M303.4,194.9c-0.1,0-0.1,0-0.2,0c0.1,0,0.2,0,0.3,0.1C303.7,194.9,303.7,194.8,303.4,194.9z"/>
								<path class="st21" d="M301.7,194.9l-0.4-0.5l-0.2,0.4C302,194.3,300.7,195.3,301.7,194.9z"/>
								<path class="st21" d="M300.9,191.5l0.8-0.5c0-0.5-2.1,0.2-0.9-0.8c-0.4,0.5-1.1,0.3-1.1,0.8
									C300.6,190.7,301,191.2,300.9,191.5z"/>
								<path class="st21" d="M301.4,189.5c0.3-0.1,0.4-0.3,0.6-0.5c0-0.2-0.4-0.1-0.8,0.2C302.4,188.7,300.6,189.8,301.4,189.5z"/>
								<path class="st21" d="M300.3,187.9c0.1,0.1,0.3,0.2,0.4-0.1c-0.2-0.3-1.1,0.4-1.8,0.6C298.6,189,300,188.4,300.3,187.9z"/>
								<path class="st21" d="M304.7,181.5c-0.7,0.5-0.4,0.7-0.1,0.6C304.4,182.1,304.6,181.8,304.7,181.5z"/>
								<polygon class="st21" points="299,185.4 298.9,185.6 300,184.9 								"/>
								<polygon class="st21" points="297.2,184.1 296.3,184.3 296.7,184.6 								"/>
								<path class="st21" d="M297.1,183.6l-0.3-0.3l-0.2,0.3C296.5,183.9,297,183.5,297.1,183.6z"/>
								<path class="st21" d="M296.3,182.9c0.1,0,0,0.1-0.1,0.2l0.6-0.1L296.3,182.9z"/>
								<path class="st21" d="M296.2,175c0.6-0.6,0-0.4,0.1-0.6C296.1,174.5,295.6,175.4,296.2,175z"/>
							</g>
						</g>
					</g>
				</g>
			</g>
			<path class="st73" d="M323,146c0,0,21.8,10.1,31.9,34.7s-4,39.5-23.6,52.7c-15.7,10.5-25.1,19.4-29.1,32.6
				c0,0,0.4-13.6,19.3-30.8s34.7-37.1,12.9-59.6S321.7,145.3,323,146z"/>
			<path class="st73" d="M153.7,94.6c0,0,11.1,46.1,13.9,55.7c2.8,9.6,10.8,36.4,27.5,49.3c16.7,12.9,42.8,7.4,63-7.4
				c16.8-12.2,29.8-19.2,39.4-14.3c2,1,3.9,2.6,5.6,4.7c10,12.2,10,34.4,17.4,44c7.4,9.6,30.1,19.1,40.5,27.3c0,0,6.7,36.5,6.3,37.4
				c-0.4,1-5.7-0.2-8.9,1c-3.2,1.1-3.3,6.8-3.3,6.8s12.9,0,14.5,0c1.5,0,4.1-3.9,4.8-5.7s-0.7-42.7-1-44.1
				c-0.3-1.4-24.6-26.2-24.9-27c-0.1-0.4,1.7-11.2,1.4-24.4c-0.3-10.6-1.9-22.8-6.9-32.4c-11.4-21.4-35.6-28.1-62.4-28.9
				c-26.8-0.9-64.9-7.5-79.1-13.1c0,0-19.9-34.5-22.9-41.1C175.6,75.8,148.4,72.8,153.7,94.6z"/>
			<g>
				<path class="st23" d="M359.5,299.1c0,0,0.2-2.9,1.7-4.1"/>
				<path class="st23" d="M363.7,299.1c0,0,0.2-2.9,1.7-4.1"/>
			</g>
			<path class="st73" d="M168.7,141.8c0,0,0,6.4,0,16.4c0,10,3.3,21.2,10.7,42.1l1.6,73.9l-6.2,17.2c0,0-7.1,0-9.4,1
				c-2.6,1.2-3.1,3.1-3.3,6.7c0,0,17.2,0,18,0s11.1-25.6,11.1-25.6s0.6-30.2,9-55.6c1.6-4.7,2.9-9.2,4-13.5
				c5-18.7,6.1-33.2,5.3-43.4L168.7,141.8z"/>
			<path class="st73" d="M165.7,95.7c0,0-2.9,1.9-11.4,1.3c-8.5-0.6-24.1-1.7-29.1-1.7c-4.9,0-5.9-1-10-4.6
				c-4.1-3.6-5.2-7.5-2.1-8.6c3.1-1.1,20.5-4.4,21.2-4.6s3.8-5.2,6.4-6.8s16.5-5.5,22.2-4.5c8.6,1.6,14.4,14,17,18.9
				C182.5,90.1,165.7,95.7,165.7,95.7z"/>
			<path class="st69" d="M110,85.2c0,0,1.5,3.8,3.5,4.2c2,0.4,4.1-1.8,4.7-4.2c0.6-2.4-0.5-4.4-2.2-4.1
				C114.8,81.3,108.7,82,110,85.2z"/>
			<path class="st76" d="M117,92.2c0,0,0.6,1.1,6.2,0.9c5.6-0.3,9.5-0.4,12.2-0.4c2.7,0,3.9,0,5.4,0.5"/>
			<path class="st69" d="M165.1,65.5c-0.9,0.2-1.8,1.4,0.3,2.7c2.1,1.3,3.7,5,5.7,11.1c2,6.1,3.1,7.9,6.1,7.6
				c3-0.2,3.5-8.2,3.9-13.4s-1-9.1-6.9-9C168,64.7,166.1,65.3,165.1,65.5z"/>
			<g>
				<path class="st23" d="M165.9,299.1c0,0,0.2-2.9,1.7-4.1"/>
				<path class="st23" d="M170.2,299.1c0,0,0.2-2.9,1.7-4.1"/>
			</g>
			
				<ellipse transform="matrix(0.9829 -0.1843 0.1843 0.9829 -11.6938 27.7102)" class="st22" cx="143.2" cy="76.8" rx="1.7" ry="1.5"/>
			<g>
				<defs>
					<path id="SVGID_00000050621694551657005920000007861085190526399888_" d="M164.7,96.2c-3.9,4.7-8.9,7.3-8.9,7.3
						c-0.7-2.7-1.2-4.9-1.6-6.5C160.1,97.4,163.3,96.7,164.7,96.2z"/>
				</defs>
				<clipPath id="SVGID_00000023972487963419451070000004771490370153831359_">
					<use xlink:href="#SVGID_00000050621694551657005920000007861085190526399888_"  style="overflow:visible;"/>
				</clipPath>
				<g style="opacity:0.88;clip-path:url(#SVGID_00000023972487963419451070000004771490370153831359_);">
					<g>
						<g>
							<g>
								<path class="st21" d="M157.1,97.5c0,0.1,0,0.1,0,0.2C157.1,97.7,157.1,97.7,157.1,97.5z"/>
								<path class="st21" d="M161.1,97.3C161.1,97.3,161.1,97.3,161.1,97.3L161.1,97.3L161.1,97.3z"/>
								<path class="st21" d="M161.1,97.2l0-0.2C161,97.1,161,97.2,161.1,97.2z"/>
								<path class="st21" d="M156.8,99c0,0.1-0.1,0.1-0.1,0.3L156.8,99z"/>
								<path class="st21" d="M157.3,99.9c0,0,0,0.1,0,0.1C157.3,100,157.3,100,157.3,99.9z"/>
								<path class="st21" d="M153.7,96.8C153.7,96.8,153.7,96.8,153.7,96.8C153.7,96.8,153.7,96.8,153.7,96.8z"/>
								<path class="st21" d="M153.4,97.1C153.4,97.1,153.4,97.1,153.4,97.1L153.4,97.1C153.3,97.2,153.4,97.2,153.4,97.1z"/>
								<path class="st21" d="M153.4,97.4L153.4,97.4C153.4,97.4,153.4,97.4,153.4,97.4z"/>
								<path class="st21" d="M151,99.5l-0.1,0.2C150.9,99.6,150.9,99.6,151,99.5z"/>
								<path class="st21" d="M153.8,96.5c0,0,0,0.1-0.1,0.2C153.8,96.7,153.8,96.7,153.8,96.5z"/>
								<path class="st21" d="M157.1,97.4c0,0,0,0.1,0,0.1C157.1,97.5,157.1,97.5,157.1,97.4z"/>
								<path class="st21" d="M156.6,99L156.6,99C156.6,99,156.6,99,156.6,99z"/>
								<path class="st21" d="M162.5,96.7c0,0,0.1-0.1,0.1-0.1C162.5,96.5,162.5,96.6,162.5,96.7z"/>
								<path class="st21" d="M154.6,97.4c0,0.7-0.1,0-0.2,0.7c0.1-0.1,0.2-0.2,0.2,0.1c-0.1,0.4-0.2-0.1-0.2,0.5l0.1-0.2
									c0,0.3-0.1,0.7,0,0.7c0.2-0.7,0.3,0.3,0.4,0.2l0,0.1l0.2,0.4c0,0,0,0,0,0c0,0,0-0.1,0-0.1c0,0.4,0.2,0.7,0.3,0.6
									c0.1-0.4,0.5-0.1,0.6-0.5c-0.1,0.1-0.1,0.1-0.2,0l0-0.5c0.1,0,0,0.5,0.1,0.2c0-0.7-0.2,0-0.3-0.1c0-0.2,0.1-0.3,0.1-0.4
									c-0.2,0-0.4-0.3-0.5,0.4c0-0.2,0-0.4,0-0.5c-0.2,0.4-0.1-0.4-0.2,0c0.1-0.7,0.3-0.3,0.4-0.7c0.1,0.5,0.4,0,0.6,0
									c0,0.5-0.1,0.9-0.1,1.2c0.2,0.3,0.2-0.2,0.3-0.5c0.1,0.2,0,0.8,0.2,0.8l-0.1,0.3c0.1,0.7,0.1-0.3,0.2-0.1
									c0-0.2,0-0.4-0.2-0.3c0-0.3,0.1-0.4,0.1-0.4l0,0c0-0.3,0-0.7,0.2-0.5c-0.1,0.4,0.1,0.3,0.2,0.5l0,0.1
									c0.1-0.1,0.2-0.1,0.3-0.2l0,0.1c0.1-0.2,0.1-0.7,0.2-0.6c0,0.2-0.1,0.8,0,0.7c0,0.3-0.1,0.3-0.2,0.2
									c0.1,0.1,0.2,0.6,0.1,0.6c0.1,0.4,0.1-0.2,0.2,0c0-0.1,0-0.2,0-0.4c0,0.5,0.3,0,0.2-0.3l-0.1,0.3c0-0.4,0.1-0.7,0-0.9
									c0.1,0.6,0.3-0.3,0.4,0.2l-0.1-0.3c0.3,0.2,0.4-0.6,0.6-0.8c-0.1,0.2,0,0.9-0.2,0.7c0.3,0.1,0.2,0.7,0.3,1
									c0.2,0.2,0-0.7,0-0.9l-0.1,0.1c0-0.8,0.5,0.1,0.7-0.4c0.1,0.2,0,0.1-0.1,0.2c0.2,0.4,0.1-0.1,0.1-0.3
									c0.1,0.1,0.3,0.2,0.4,0.7c0.2,0.1-0.1-0.3,0-0.5l0,0.1l0-0.6c0.1,0.1,0.4,0.4,0.5,0.9c0.3-0.2-0.2-1.2,0-1.4
									c0.2,0.2,0.1,0.4,0.1,0.6l0.2-0.1c0.1,0.6-0.1,0.3,0,1c0-0.7,0.2-0.2,0.2-0.7l0-0.1c0-0.5,0.2-0.2,0.3-0.3
									c0,0.3-0.1,0.3-0.1,0.5c0.2,0.2,0.5-0.1,0.4-0.7c0.1,0.1,0.3,0.2,0.3,0.5c0.3,0-0.2-0.9,0.1-0.8l0.1,0.4
									c0.5,0.5,0.3-0.7,0.7-0.2l-0.2-0.5c0.1,0.2,0.3,0.3,0.4,0.5l0,0.2c0.3,0.4,0-0.5,0.2-0.2c-0.1-0.2-0.3-0.5-0.4-0.7
									c-0.4,0.5-1.1-0.1-1.4,0.6c0,0.1,0.1,0.1,0.1,0.2c-0.1-0.1-0.2,0.1-0.2-0.2l0,0c-0.1,0.2-0.4-0.5-0.5-0.5
									c0.1,0.4-0.3-0.1-0.1,0.5l-0.2-0.4c0,0.2,0.1,0.5,0.1,0.7c-0.1,0-0.2-0.3-0.1-0.5c-0.4-0.2-0.8,0-1.1,0.3l0-0.3
									c-0.1-0.1-0.2,0.6-0.3-0.2c-0.1,0.3-0.5-0.2-0.4,0.7c-0.2-0.8-0.4-0.3-0.7-0.1c0.1,0.7-0.2,0.2-0.2,0.6
									c-0.1-0.5,0.1-0.6,0.1-0.9c-0.2,0.9-0.7-0.6-0.7,0.8c0-0.1,0-0.1,0-0.2c0,0-0.1-0.2-0.2-0.3c0,0.2,0.1,0.3,0,0.4
									c-0.1,0-0.1-0.4-0.1-0.6c-0.1,0.3-0.4,0.5-0.4,1c-0.1-0.1-0.1-0.5-0.1-0.6c-0.3,0.4-0.3-0.1-0.5,0.2c0.1,0,0.1-0.6,0.2-0.4
									c-0.1-0.8-0.4,0.1-0.6-0.3l-0.1,0.5c-0.1,0.1-0.1-0.4,0-0.6c-0.2-0.3-0.3,0-0.5,0c0-0.1,0-0.2,0-0.1l-0.2,0
									c0,0.1-0.1,0.4-0.2,0.7C154.4,97.4,154.5,97.2,154.6,97.4z"/>
								<path class="st21" d="M154.4,97.7L154.4,97.7L154.4,97.7C154.4,97.7,154.4,97.7,154.4,97.7z"/>
								<path class="st21" d="M156.7,99.9c0-0.1-0.1-0.2-0.1-0.2C156.6,99.8,156.6,99.9,156.7,99.9z"/>
								<path class="st21" d="M151.8,98.1c-0.2,0.8,0.2-0.1,0.2,0.2c-0.1,0.1-0.2,0.5-0.3,0.7c0.4-0.9,0.1,0.2,0.4,0.1
									c-0.1,0.3-0.2,0.3-0.3,0.7c0.2-0.2,0.5-0.3,0.6-0.8c0.2,0,0.4,0.3,0.5,0.2c-0.2,0.2-0.1,0.5-0.4,1c0.3-0.6,0.8-1.3,1.2-2
									c-0.1,0.6,0,0.7-0.2,1.2c0.2,0.4,0.2-0.5,0.4-0.3l-0.1-0.1c0.1-0.2,0.2-0.7,0.3-1.1l-0.3,0c0.1-0.4,0.2-0.3,0.3-0.4
									c0.1-0.5-0.1-0.4,0-0.8c-0.1,0.3-0.2,0.2-0.3,0.3l0-0.2c-0.1-0.2-0.2,0.3-0.4,0.3c0-0.1,0-0.1,0-0.1
									c-0.1,0.2-0.2,0.5-0.3,0.6l0.1,0c-0.2,0.5-0.5,0.8-0.5,1.4l-0.3-0.2c0.2-0.6,0.4-1.4,0.6-1.5l0.1-0.2
									c-0.1-0.3-0.4,0.4-0.5,0.9c-0.4,1.4-0.5,0-0.8,0.5c0.1-0.4,0.2-0.5,0.4-0.7c0.1,0,0.1,0,0.1,0.3c0.3-0.2,0.2-1.2,0.5-1
									c0.1,0.2-0.3,0.6-0.1,0.7l0.4-1c-0.1,0-0.3,0.1-0.4,0.2c-0.4,0.3-0.6,0.2-0.8,0.1c-0.2-0.1-0.2-0.3-0.2-0.3
									c-0.9-0.2-1.8-0.4-2.6-0.7c-0.3,0-0.4-0.1-1,0.7c-0.1,0.2,0.1,0.2-0.1,0.5c0.2-0.3,0.4-0.4,0.6-0.3
									c-0.2,0.3-0.2,0.1-0.2,0.2l0,0c-0.1,0.2-0.2,0.3-0.3,0.2c-0.1,0.6,0.3,0.7,0.7,0.1c0,0.4-0.4,0.5-0.6,0.7
									c0.4,0.5,0.7,0.6,1.3,0.9c0.3-0.6,0.2-0.4,0.5-0.8l0,0.2c0-0.1,0.3-0.5,0.2-0.7c0.1,0.6,0.7-0.7,0.9-0.9L151,97
									c0.2,0,0.2,0,0.4-0.1c0,0.7-0.2,0-0.5,0.9l0.1-0.1c-0.1,0.3-0.4,0.8-0.6,1c0.4-0.4,0.3,0.3,0.7,0c-0.1,0.4-0.5,0.6-0.6,0.6
									c0.1,0.1,0.4-0.2,0.3,0.2l0.2-0.5c0.2,0-0.2,0.4-0.2,0.7C151.4,99.8,151.4,98.3,151.8,98.1z"/>
								<path class="st21" d="M155.9,98.9c0,0-0.1,0-0.1,0C155.8,99,155.8,99,155.9,98.9z"/>
								<path class="st21" d="M155,99.8c0,0.1,0,0.1,0,0.2C155,100,155,99.9,155,99.8z"/>
								<path class="st21" d="M154.9,100.5c0-0.2,0-0.2,0.1-0.5C154.9,100.2,154.7,100.2,154.9,100.5z"/>
								<path class="st21" d="M168.2,96.6c-0.1-0.1,0-0.3-0.1-0.4l0,0.2L168.2,96.6z"/>
								<path class="st21" d="M167.6,96.3l-0.2-0.1l0.3,0.6C167.8,96.7,167.5,96.4,167.6,96.3z"/>
								<path class="st21" d="M167,96.2L167,96C167,96.1,167,96.2,167,96.2z"/>
								<path class="st21" d="M167.2,96.4l0.2,0.4l0-0.4L167.2,96.4c0-0.1-0.1-0.2-0.1-0.2L167.2,96.4
									C167.1,96.5,167.1,96.4,167.2,96.4z"/>
								<path class="st21" d="M167,96.5c0,0,0.1,0.1,0.1,0.1C167.1,96.6,167,96.6,167,96.5z"/>
								<path class="st21" d="M166.2,96c0.1,0.1,0.2,0.4,0.3,0.6c0.2,0.1-0.1-0.5,0.1-0.4c0,0.4,0.2,0.2,0.4,0.4
									c-0.3-0.4-0.5-0.6-0.7-0.6l0.1,0.3C166.4,96.2,166.3,96,166.2,96z"/>
								<path class="st21" d="M165.9,97l-0.1-0.5c0.1,0.2,0.3,0.1,0.5,0.5c0-0.1-0.1-0.3-0.1-0.4c0.2,0.2,0.3,0.3,0.2,0
									c-0.4-0.1-0.4-0.3-0.7-0.3c0-0.1,0-0.1,0-0.1l-0.3-0.1C165.7,96.6,165.6,96.8,165.9,97z"/>
								<path class="st21" d="M165.5,96.8c0.1-0.1,0-0.5-0.2-0.7c0,0.2-0.1,0.3-0.1,0.4C165.3,96.5,165.3,96.4,165.5,96.8z"/>
								<path class="st21" d="M165.3,96.9c-0.2-0.2-0.5-0.6-0.3-0.2C165.1,96.6,165.3,97.3,165.3,96.9z"/>
								<path class="st21" d="M164.2,96.9l0.4,0.2c0.3,0.5,0,0.2,0,0.5c0.3,0,0.1-0.1,0.1-0.5c0.1,0,0-0.3,0-0.5
									C164.6,97.1,164,95.8,164.2,96.9z"/>
								<polygon class="st21" points="165,97.3 164.9,97 164.9,97.2 								"/>
								<path class="st21" d="M163.4,96.6c-0.4-0.6-0.1,0.5-0.4,0.3c0,0,0-0.1,0-0.2l-0.1,0.1l-0.1-0.1c0.2,0.4,0.1,0.6,0.1,0.9
									c0.3,0.4-0.1-0.5,0.2-0.1c0,0.2,0.1,0.5,0.2,0.6c0-0.2-0.1-0.5-0.1-0.7c0.1-0.1,0.1,0.2,0.2,0.3c0-0.3-0.2-0.9,0-0.8
									c0.2,0.3,0.2,0.6,0.3,0.3c-0.4-0.6,0.2,0,0.1-0.4c0.2,0.1,0.4,0.4,0.5,0.6c-0.2-0.5-0.3-0.9-0.3-1.1l0,0.5l-0.3-0.5
									C163.7,96.7,163.6,96.7,163.4,96.6L163.4,96.6z"/>
								<path class="st21" d="M163.3,98.1c0,0,0,0.1,0,0.1C163.3,98.2,163.3,98.2,163.3,98.1z"/>
								<polygon class="st21" points="164.4,97.6 164.4,97.8 164.5,97.9 								"/>
								<path class="st21" d="M163.3,98.5c0,0,0-0.2-0.1-0.2L163.3,98.5L163.3,98.5z"/>
								<polygon class="st21" points="163.1,98.2 162.9,97.9 162.9,98.2 								"/>
								<path class="st21" d="M159.8,98.9c0.1,0.2,0-0.2,0-0.5C159.6,98.3,159.9,98.7,159.8,98.9z"/>
								<path class="st21" d="M157.8,99.7c0.2,0.3,0.2-0.2,0.3-0.2C158,99.3,157.9,99.5,157.8,99.7z"/>
								<path class="st21" d="M157,101.2c0-0.1,0.1-0.2,0-0.3l0.1-0.8C156.9,99.9,157,100.9,157,101.2z"/>
								<path class="st21" d="M155.9,101.3l0.2-0.3l-0.1,0c0-0.3,0.1-0.4,0.1-0.7C156,100.5,155.8,100.8,155.9,101.3z"/>
								<path class="st21" d="M156.2,100.2C156.2,100.2,156.2,100.2,156.2,100.2C156.2,100.3,156.2,100.4,156.2,100.2z"/>
								<path class="st21" d="M156.1,100.2C156.1,100.3,156.1,100.3,156.1,100.2C156.1,100.3,156.2,100.3,156.1,100.2
									C156.2,100.2,156.2,100.1,156.1,100.2z"/>
								<path class="st21" d="M155.7,100.9l-0.3,0.1l0.1,0.1C155.6,100.7,155.7,101.4,155.7,100.9z"/>
								<path class="st21" d="M154.2,100.4l0-0.4c-0.2-0.1-0.5,0.8-0.6,0.1c0,0.3-0.2,0.5,0,0.6C153.8,100.3,154,100.3,154.2,100.4z
									"/>
								<path class="st21" d="M153.6,99.7c0-0.1,0-0.2,0-0.4c-0.1-0.1-0.2,0.1-0.2,0.3C153.6,99.1,153.4,100,153.6,99.7z"/>
								<path class="st21" d="M152.7,99.6c0.1,0,0.1,0,0.1-0.2c-0.2,0-0.2,0.5-0.4,0.8C152.5,100.5,152.8,99.8,152.7,99.6z"/>
								<path class="st21" d="M152.4,96.1c-0.1,0.4,0,0.4,0.1,0.2C152.4,96.4,152.4,96.3,152.4,96.1z"/>
								<polygon class="st21" points="151.5,99.2 151.5,99.3 151.7,98.7 								"/>
								<polygon class="st21" points="150.4,99.2 150.2,99.5 150.4,99.5 								"/>
								<path class="st21" d="M150.3,99l-0.2,0l0,0.2C150.2,99.3,150.2,99,150.3,99z"/>
								<path class="st21" d="M149.8,98.9C149.8,98.9,149.8,99,149.8,98.9l0.2-0.1L149.8,98.9z"/>
								<path class="st21" d="M148.8,95.7c0.2-0.3,0-0.2,0.1-0.2C148.8,95.5,148.5,96,148.8,95.7z"/>
							</g>
						</g>
					</g>
				</g>
			</g>
			<path class="st23" d="M348.5,222.4c-0.1-0.4,1.7-11.2,1.4-24.4c-0.3-10.6-1.9-22.8-6.9-32.4"/>
			<path class="st23" d="M180.2,299.1c0.9,0,11.1-25.6,11.1-25.6s0.6-30.2,9-55.6c1.6-4.7,2.9-9.2,4-13.5"/>
			<path class="st23" d="M204.3,204.5c5-18.7,6.1-33.2,5.3-43.4"/>
			<path class="st23" d="M297.6,177.9c2,1,3.9,2.6,5.6,4.7c10,12.2,10,34.4,17.4,44c7.4,9.6,30.1,19.1,40.5,27.3
				c0,0,6.7,36.5,6.3,37.4"/>
		</g>
	</g>
</g>
</svg>
