<?xml version="1.0" encoding="utf-8"?>
<!-- Generator: Adobe Illustrator 26.0.3, SVG Export Plug-In . SVG Version: 6.00 Build 0)  -->
<svg version="1.1" xmlns="http://www.w3.org/2000/svg" xmlns:xlink="http://www.w3.org/1999/xlink" x="0px" y="0px"
	 viewBox="0 0 503.6 377.7" style="enable-background:new 0 0 503.6 377.7;" xml:space="preserve">
<style type="text/css">
	.st0{fill:#FFF0DD;}
	.st1{fill:#6B5C52;}
	.st2{fill:#B8BBBF;}
	.st3{fill:#F9E9CD;}
	.st4{fill:#FFE6BD;}
	.st5{fill:#F5F5F2;}
	.st6{fill:#637189;}
	.st7{fill:#9E9082;}
	.st8{fill:#938D89;}
	.st9{fill:#FFDBC0;}
	.st10{fill:#6E85BD;}
	.st11{fill:#E8D9D6;}
	.st12{fill:#A7BC79;}
	.st13{fill:#FF8080;}
	.st14{fill:#3D3533;}
	.st15{fill:#A1683D;}
	.st16{fill:#CCE0FF;}
	.st17{fill:#383531;}
	.st18{fill:#757060;}
	.st19{fill:#D29F7E;}
	.st20{opacity:0.88;clip-path:url(#SVGID_00000047783182831405437220000009693147725601487535_);}
	.st21{fill:#322015;}
	.st22{fill:#1B1C1E;}
	.st23{fill:none;stroke:#1B1C1E;stroke-width:1.2604;stroke-linecap:round;stroke-linejoin:round;stroke-miterlimit:10;}
	.st24{opacity:0.84;clip-path:url(#SVGID_00000030467775173735160420000014584835153155409851_);}
	.st25{clip-path:url(#SVGID_00000121965852379621984310000010791585942428613277_);}
	.st26{fill:none;stroke:#1B1C1E;stroke-width:1.2604;stroke-linecap:round;stroke-linejoin:round;}
	.st27{fill:#D1493B;}
	.st28{fill:#FFAE1F;}
	.st29{opacity:0.88;clip-path:url(#SVGID_00000168814668900215921880000015589663113885932210_);}
	.st30{opacity:0.7;clip-path:url(#SVGID_00000156573062983730662000000014095770859058749586_);}
	.st31{fill:#2C2C2D;}
	.st32{opacity:0.87;clip-path:url(#SVGID_00000177443112575675424600000018048408355151178396_);}
	.st33{fill:#080809;}
	.st34{opacity:0.7;clip-path:url(#SVGID_00000060725146977845875620000005495262660324406913_);}
	.st35{fill:#FBAF5E;}
	.st36{opacity:0.62;clip-path:url(#SVGID_00000039133245471077852700000014007986811097668266_);}
	.st37{fill:#3E240C;}
	.st38{fill:#BC763C;}
	.st39{opacity:0.62;clip-path:url(#SVGID_00000005965197086900512100000000963759059622859665_);}
	.st40{opacity:0.62;clip-path:url(#SVGID_00000139263920066611491390000013360947451927878585_);}
	.st41{fill:#967258;}
	.st42{opacity:0.53;clip-path:url(#SVGID_00000108990625302648075550000016477409473997846694_);}
	.st43{opacity:0.73;clip-path:url(#SVGID_00000123423015547274072650000008573796348460166561_);}
	.st44{fill:none;stroke:#1B1C1E;stroke-width:1.1311;stroke-linecap:round;stroke-linejoin:round;stroke-miterlimit:10;}
	.st45{fill:#3D291C;}
	.st46{fill:#3D291C;stroke:#967258;stroke-width:1.2604;stroke-linecap:round;stroke-linejoin:round;stroke-miterlimit:10;}
	.st47{fill:#D6D4C8;}
	.st48{fill:#1B1C1E;stroke:#967258;stroke-width:1.2604;stroke-linecap:round;stroke-linejoin:round;stroke-miterlimit:10;}
	.st49{opacity:0.52;clip-path:url(#SVGID_00000170970292716633948010000018212687634885755017_);}
	.st50{fill:#B37D4F;}
	.st51{opacity:0.88;clip-path:url(#SVGID_00000167367912756826982250000011592720364924510642_);}
	.st52{fill:#343434;}
	.st53{fill:#BC6464;}
	.st54{opacity:0.88;clip-path:url(#SVGID_00000063613356730038275150000016027732797015716766_);}
	.st55{fill:#1B1C1E;stroke:#1B1C1E;stroke-width:1.1485;stroke-linecap:round;stroke-linejoin:round;stroke-miterlimit:10;}
	.st56{fill:#8C7265;}
	.st57{opacity:0.88;clip-path:url(#SVGID_00000094594732749783093330000008768460854858029714_);}
	.st58{fill:#1B1C1E;stroke:#1B1C1E;stroke-width:1.3664;stroke-linecap:round;stroke-linejoin:round;stroke-miterlimit:10;}
	.st59{opacity:0.88;clip-path:url(#SVGID_00000067918566591236852420000011402967832665361076_);}
	.st60{fill:none;stroke:#1B1C1E;stroke-width:1.3664;stroke-linecap:round;stroke-linejoin:round;stroke-miterlimit:10;}
	.st61{opacity:0.88;clip-path:url(#SVGID_00000017500681749723590410000007011239686203618449_);}
	.st62{opacity:0.88;clip-path:url(#SVGID_00000015345115936610868210000000216568472993354398_);}
	.st63{fill:#5F6C72;}
	.st64{fill:#1B1C1E;stroke:#1B1C1E;stroke-width:1.5329;stroke-linecap:round;stroke-linejoin:round;stroke-miterlimit:10;}
	.st65{opacity:0.88;clip-path:url(#SVGID_00000157266920065372519930000005686451144657293235_);}
	.st66{clip-path:url(#SVGID_00000005986913074697473190000016331233569692012931_);}
	.st67{opacity:0.58;clip-path:url(#SVGID_00000145019419005217941440000010145931597325336492_);}
	.st68{opacity:0.58;clip-path:url(#SVGID_00000112598949775339169810000011614394952689228709_);}
	.st69{fill:#1B1C1E;stroke:#1B1C1E;stroke-width:1.818;stroke-linecap:round;stroke-linejoin:round;stroke-miterlimit:10;}
	.st70{fill:#FFFFFF;}
	.st71{fill:#CC813E;}
	.st72{opacity:0.58;clip-path:url(#SVGID_00000092416825727141263210000014643328560961025189_);}
	.st73{fill:#AA8C7D;}
	.st74{opacity:0.88;clip-path:url(#SVGID_00000034782066999787563090000010772108835714751923_);}
	.st75{opacity:0.88;clip-path:url(#SVGID_00000036954772779896568400000008271381787199246270_);}
	.st76{fill:#1B1C1E;stroke:#1B1C1E;stroke-width:1.2604;stroke-linecap:round;stroke-linejoin:round;stroke-miterlimit:10;}
	.st77{opacity:0.88;clip-path:url(#SVGID_00000113344326055638363330000013642804260161987737_);}
	.st78{opacity:0.88;clip-path:url(#SVGID_00000141446744978935700220000007048181874602709643_);}
	.st79{opacity:0.88;clip-path:url(#SVGID_00000081639203656794095660000014946568065990704274_);}
	.st80{fill:none;stroke:#1B1C1E;stroke-miterlimit:10;}
	.st81{fill:#B8BDC4;}
	.st82{fill:#B4D3CD;}
	.st83{opacity:0.88;clip-path:url(#SVGID_00000042696262457780779470000009365325988224444327_);}
	.st84{opacity:0.88;clip-path:url(#SVGID_00000106135727917282019180000010778614640299127971_);}
	.st85{fill:#EFBE9D;}
	.st86{opacity:0.88;clip-path:url(#SVGID_00000101801211456857779600000005147404546231607717_);}
	.st87{fill:#443730;}
	.st88{opacity:0.88;clip-path:url(#SVGID_00000030479165715946933940000007172269229363963016_);}
	.st89{opacity:0.88;clip-path:url(#SVGID_00000042734317811286930390000006197282665359665582_);}
	.st90{fill:#E2AF8D;}
	.st91{fill:none;stroke:#1B1C1E;stroke-linecap:round;stroke-linejoin:round;stroke-miterlimit:10;}
	.st92{fill:#1B1C1E;stroke:#1B1C1E;stroke-miterlimit:10;}
	.st93{fill:#FCEA9F;}
	.st94{fill:#F6EBEF;}
	.st95{fill:#D4DADD;}
	.st96{opacity:0.61;clip-path:url(#SVGID_00000036962074315969245700000006890012103679627915_);}
	.st97{fill:#353737;}
	.st98{fill:#B3B9BC;}
	.st99{opacity:0.61;clip-path:url(#SVGID_00000122708538338744075920000007453319412294734270_);}
	.st100{opacity:0.61;clip-path:url(#SVGID_00000137098009921935739450000005773233813617927074_);}
	.st101{fill:#B3B9BC;stroke:#1B1C1E;stroke-miterlimit:10;}
	.st102{fill:#CCE2CF;stroke:#1B1C1E;stroke-miterlimit:10;}
	.st103{fill:#EAD6DE;}
	.st104{fill:#1B1C1E;stroke:#1B1C1E;stroke-width:1.0185;stroke-miterlimit:10;}
	.st105{fill:none;stroke:#1B1C1E;stroke-width:1.0185;stroke-miterlimit:10;}
	.st106{fill:#FBAF5E;stroke:#1B1C1E;stroke-miterlimit:10;}
	.st107{fill:#513F3B;}
	.st108{opacity:0.88;clip-path:url(#SVGID_00000004534540215422213240000015707901558320731019_);}
	.st109{opacity:0.88;clip-path:url(#SVGID_00000083051603418405318540000008549388220136341942_);}
	.st110{fill:#8B2403;}
	.st111{fill:#EBDAD2;}
	.st112{fill:#A84E39;}
	.st113{fill:#751A01;}
	.st114{fill:#EBDAD2;stroke:#1B1C1E;stroke-miterlimit:10;}
	.st115{opacity:0.78;clip-path:url(#SVGID_00000120527650069698542280000004113338322530654911_);}
	.st116{fill:#290B01;}
	.st117{opacity:0.78;clip-path:url(#SVGID_00000084524842911416716960000003863589483630329216_);}
	.st118{opacity:0.78;clip-path:url(#SVGID_00000046315341690795511720000001369092052752703875_);}
	.st119{opacity:0.78;clip-path:url(#SVGID_00000096031542672273444500000005431147720346930605_);}
	.st120{fill:#030203;}
	.st121{fill:#86889A;}
	.st122{fill:#0B060A;}
	.st123{fill:#736E72;}
	.st124{fill:#9E9AA0;}
	.st125{fill:#18172A;}
	.st126{fill:#3B4D84;}
	.st127{fill:#FFA3AC;}
	.st128{fill:none;stroke:#0B080B;stroke-width:1.2005;stroke-miterlimit:10;}
	.st129{fill:#E7E6E8;}
	.st130{fill:#0B080B;}
	.st131{fill:none;stroke:#1B1C1E;stroke-width:1.2005;stroke-linecap:round;stroke-linejoin:round;stroke-miterlimit:10;}
	.st132{opacity:0.78;clip-path:url(#SVGID_00000080172367318202450910000006757598891910756530_);}
	.st133{opacity:0.78;clip-path:url(#SVGID_00000021119611837382889080000016312244647724253076_);}
	.st134{fill:#89745E;}
	.st135{opacity:0.78;clip-path:url(#SVGID_00000121276978479222531400000000183116607737384595_);}
	.st136{fill:#060606;}
	.st137{fill:#4D483E;}
	.st138{fill:#FF8A00;}
	.st139{fill:#50483F;}
	.st140{fill:#131313;}
	.st141{fill:#E8DBCD;}
	.st142{opacity:0.78;clip-path:url(#SVGID_00000168803171772770293750000004759274594333229722_);}
	.st143{opacity:0.78;clip-path:url(#SVGID_00000070827556316543869750000006155685796064517259_);}
	.st144{fill:#191212;}
	.st145{fill:#6C5353;}
	.st146{opacity:0.78;clip-path:url(#SVGID_00000030471980486963832830000008016231586252327599_);}
	.st147{fill:#B3B3B3;}
	.st148{fill:#FF9F2C;}
	.st149{fill:none;stroke:#343434;stroke-miterlimit:10;}
	.st150{fill:#21262A;}
	.st151{fill:#563D3D;}
	.st152{opacity:0.78;clip-path:url(#SVGID_00000041295289806900077220000002631125092887234987_);}
	.st153{fill:#181716;}
	.st154{fill:#706153;}
	.st155{fill:none;stroke:#1B1C1E;stroke-width:0.8477;stroke-miterlimit:10;}
	.st156{fill:#FCBD30;}
	.st157{fill:#E8D9CD;}
	.st158{fill:#534E4A;}
	.st159{opacity:0.78;clip-path:url(#SVGID_00000166677734487481787510000005885201703302549400_);}
	.st160{fill:#7DA050;}
	.st161{opacity:0.78;clip-path:url(#SVGID_00000098937524474857898530000008950260369356561569_);}
	.st162{opacity:0.78;clip-path:url(#SVGID_00000176742451482460612350000011255574905284935311_);}
	.st163{opacity:0.78;clip-path:url(#SVGID_00000108310389730936369250000002932522182102030513_);}
	.st164{fill:#EFEECE;}
	.st165{opacity:0.78;clip-path:url(#SVGID_00000052098202954530268070000002173100084294254487_);}
	.st166{fill:#93543B;}
	.st167{fill:#FF510C;}
	.st168{opacity:0.78;clip-path:url(#SVGID_00000147191290615287034430000005152736951548957317_);}
	.st169{fill:#4B1804;}
	.st170{fill:#000A0E;}
	.st171{opacity:0.78;clip-path:url(#SVGID_00000163789103839129356320000009892927628663895448_);}
	.st172{opacity:0.78;clip-path:url(#SVGID_00000023240785097582514120000000593905949518275488_);}
	.st173{fill:#F9C8A7;}
	.st174{fill:#1B1C1E;stroke:#1B1C1E;stroke-width:1.3738;stroke-miterlimit:10;}
	.st175{fill:none;stroke:#1B1C1E;stroke-width:1.3;stroke-miterlimit:10;}
	.st176{fill:#FFCB6E;}
	.st177{fill:#CECECE;}
	.st178{fill:none;stroke:#1B1C1E;stroke-width:1.3037;stroke-miterlimit:10;}
	.st179{fill:#FFFFFF;stroke:#1B1C1E;stroke-width:1.3;stroke-miterlimit:10;}
	.st180{opacity:0.78;clip-path:url(#SVGID_00000088126308868153955910000015515327963416022174_);}
	.st181{fill:none;stroke:#1B1C1E;stroke-width:1.3738;stroke-miterlimit:10;}
	.st182{opacity:0.45;clip-path:url(#SVGID_00000155832128501466160220000014836038769808048018_);}
	.st183{opacity:0.45;clip-path:url(#SVGID_00000144337904912431499420000004845617057042970554_);}
	.st184{opacity:0.45;clip-path:url(#SVGID_00000098209090505585309070000005074257321184090791_);}
	.st185{opacity:0.45;clip-path:url(#SVGID_00000088823781005185047950000012821596776449053315_);}
	.st186{fill:none;stroke:#1B1C1E;stroke-width:1.3738;stroke-linecap:round;stroke-linejoin:round;stroke-miterlimit:10;}
	.st187{fill:#FFB192;}
	.st188{fill:#EB8226;}
	.st189{fill:#F7EDE1;}
	.st190{opacity:0.78;clip-path:url(#SVGID_00000059289739332832598780000011805039240326831802_);}
	.st191{opacity:0.78;clip-path:url(#SVGID_00000062163922704183970660000009718853361819031465_);}
	.st192{opacity:0.5;clip-path:url(#SVGID_00000079444336342663943670000000373244396339074486_);}
	.st193{opacity:0.5;clip-path:url(#SVGID_00000062191245100088550090000010769962215467045054_);}
	.st194{fill:none;stroke:#06002C;stroke-width:1.3038;stroke-miterlimit:10;}
	.st195{fill:#F7A9B4;}
	.st196{fill:#06002C;}
	.st197{opacity:0.5;clip-path:url(#SVGID_00000036951778810566063290000008076785843560029104_);}
	.st198{fill:none;stroke:#06002C;stroke-width:1.3038;stroke-linecap:round;stroke-linejoin:round;stroke-miterlimit:10;}
	.st199{fill:#9BBEDC;}
	.st200{opacity:0.88;clip-path:url(#SVGID_00000117636157797621335500000012903362056575528338_);}
	.st201{opacity:0.88;clip-path:url(#SVGID_00000009554977973716016800000011365279199878490767_);}
</style>
<g id="Background">
	<rect x="-3.2" y="-2.4" class="st15" width="510" height="382.5"/>
</g>
<g id="Illustration">
	<g>
		<path class="st22" d="M168.8,247.4c0,0-7.7,1.9,13.4,2.4c21.2,0.6,131.8,2.4,143.3,1.5s25.4-3.3,3.8-4.4
			c-16.4-0.8-40.4-0.7-57.1-1C242.2,245.5,177.9,245.6,168.8,247.4z"/>
		<path class="st187" d="M208.5,234.3c0,0-1.6,2.1-4.9,5.2c0,0-6.8,4.3-5.7,7.9c0,0,9.9,0,16.3,0c6.4,0,22.7-9.6,22.7-9.6
			S220,233.8,208.5,234.3z"/>
		<path class="st80" d="M202.5,247.3c0,0,0.4-1.8,2.1-2.7"/>
		<path class="st80" d="M207,247.3c0,0,1.3-1.5,2.2-1.7"/>
		<path class="st188" d="M242,183.6c-13.5,15.6-56.5,24.2-66.3,3.4c-9.8-20.8,20.8-43.7,20.8-43.7c19-9.4,29-1.6,51.7-0.7
			C248.2,142.6,261.6,161.1,242,183.6z"/>
		<path class="st189" d="M290.3,187c-5.2,31-39.1,49.4-63.5,56c-13.5-1.7-23.8-4.1-26.7-8.5c-6.1-9.1-45.1-14.7-43.7-42.1
			c1.1-21.7,24.5-40.7,37.9-48c0.8-0.4,1.5-0.8,2.2-1.2c0,0-30.7,22.9-20.8,43.7c9.8,20.8,52.8,12.2,66.3-3.4
			c19.6-22.5,6.2-41,6.2-41c5.2,0.2,11.1,0,18-0.8c2.8-0.3,5.6-0.6,8.5-0.7c0.1,0,0.1,0,0.2,0C278,143.6,295.1,158.6,290.3,187z"/>
		<path class="st188" d="M347.2,205.8c-2.6,49.8-37.6,46.1-70.6,42.1c-17.1-2-35.3-3.1-49.8-4.9c24.4-6.7,58.3-25.1,63.5-56
			c4.7-28.4-12.3-43.4-15.5-45.9c4.3-0.2,8.7-0.1,13.1,0.3c0,0,0,0,0,0c3.1,1.7,18.4,11.7,24.3,39.9c6.5,31.4-4.9,53.3,10.8,50.4
			C338.7,228.7,347.2,205.8,347.2,205.8z"/>
		<path class="st14" d="M347.2,205.8c0,0-8.5,22.9-24.2,25.8c-15.7,2.9-4.2-19-10.8-50.4c-5.9-28.2-21.2-38.1-24.3-39.9
			C319.4,144.1,349.5,162,347.2,205.8z"/>
		<path class="st22" d="M188.4,169.7c-2.7,0.6-6,4.5-6,9.2c0,7,5.1,9.2,9.4,7.7s5.3-6.4,4.3-10C195.3,173.4,191.7,168.9,188.4,169.7
			z"/>
		<path class="st14" d="M204.4,149.5c0,0,3.4-9.3,12.6-6c9.1,3.3,13.1,21.4,11.1,27.1c-1.2,3.6-8.3,2.3-15.5-9.1
			C207.3,153,204.4,149.5,204.4,149.5z"/>
		<g>
			<path class="st80" d="M166.3,205.9c-9.3,1.7-9.3-8.5-9.3-8.5c1.6-0.3,3.9-1,6.1-3"/>
		</g>
		<circle class="st189" cx="186.4" cy="176.2" r="1.3"/>
		<g>
			<defs>
				<path id="SVGID_00000041259439412650911180000001827536556653880451_" d="M347.2,205.8c-2.6,49.8-37.6,46.1-70.6,42.1
					c-17.1-2-35.3-3.1-49.8-4.9c24.4-6.7,58.3-25.1,63.5-56c4.7-28.4-12.3-43.4-15.5-45.9c4.3-0.2,8.7-0.1,13.1,0.3c0,0,0,0,0,0
					c3.1,1.7,18.4,11.7,24.3,39.9c6.5,31.4-4.9,53.3,10.8,50.4C338.7,228.7,347.2,205.8,347.2,205.8z"/>
			</defs>
			<clipPath id="SVGID_00000094588887578618219290000010694806877339463850_">
				<use xlink:href="#SVGID_00000041259439412650911180000001827536556653880451_"  style="overflow:visible;"/>
			</clipPath>
			<g style="opacity:0.78;clip-path:url(#SVGID_00000094588887578618219290000010694806877339463850_);">
				<g>
					<g>
						<g>
							<path class="st169" d="M293.3,250.6c0-0.1,0.1-0.2,0.1-0.3C293.4,250.3,293.3,250.4,293.3,250.6z"/>
							<path class="st169" d="M284,250.2C284,250.3,284,250.3,284,250.2L284,250.2L284,250.2z"/>
							<path class="st169" d="M284,250.3l-0.1,0.3C284,250.5,284,250.4,284,250.3z"/>
							<path class="st169" d="M294,248.4c0.1-0.1,0.2-0.2,0.2-0.4L294,248.4z"/>
							<path class="st169" d="M293.1,247.1c0-0.1,0-0.1-0.1-0.2C293,247,293,247.1,293.1,247.1z"/>
							<path class="st169" d="M301.9,250.8c0,0,0,0.1,0,0.1C301.9,250.9,301.9,250.8,301.9,250.8z"/>
							<path class="st169" d="M302.5,250.2c0.1,0,0.1,0,0.1,0l0-0.1C302.6,250,302.5,250.1,302.5,250.2z"/>
							<path class="st169" d="M302.2,249.8l0.1,0C302.2,249.7,302.2,249.7,302.2,249.8z"/>
							<path class="st169" d="M305.9,245.5l0-0.3C305.9,245.3,305.9,245.4,305.9,245.5z"/>
							<path class="st169" d="M301.8,251.2c0-0.1,0.1-0.2,0.1-0.3C301.8,251,301.7,251,301.8,251.2z"/>
							<path class="st169" d="M293.3,250.7c0-0.1,0-0.1,0-0.1C293.3,250.7,293.3,250.7,293.3,250.7z"/>
							<path class="st169" d="M294.7,248.4L294.7,248.4C294.6,248.4,294.6,248.4,294.7,248.4z"/>
							<path class="st169" d="M280.5,250.4c-0.1,0-0.2,0.1-0.3,0.1C280.4,250.6,280.5,250.6,280.5,250.4z"/>
							<path class="st169" d="M299.4,250.3c-0.2-1,0.3-0.1,0.2-1c-0.2,0.2-0.3,0.4-0.4-0.1c0.1-0.5,0.4,0,0.4-0.8l-0.2,0.3
								c-0.2-0.4,0-1-0.2-1c-0.1,1.1-0.8-0.4-1-0.2l0.1-0.1l-0.4-0.5c0,0,0,0,0-0.1c0,0.1,0,0.1,0,0.2c-0.2-0.5-0.5-0.9-0.8-0.8
								c-0.1,0.6-1,0.3-1.1,0.8c0.1-0.2,0.2-0.2,0.4,0l0,0.8c-0.3,0-0.1-0.7-0.3-0.2c0.1,1,0.4,0,0.6,0.1c-0.1,0.2-0.1,0.5-0.3,0.6
								c0.4,0,0.8,0.3,1-0.7c0.1,0.2,0.1,0.6,0,0.8c0.2-0.6,0.3,0.6,0.5,0c0,1-0.6,0.5-0.8,1.1c-0.4-0.7-0.9,0-1.3,0.2
								c-0.1-0.7,0.2-1.3,0-1.7c-0.4-0.4-0.4,0.4-0.6,0.8c-0.3-0.2-0.1-1.2-0.6-1.2l0.2-0.5c-0.3-1-0.2,0.4-0.5,0.2
								c0.1,0.3,0.1,0.5,0.3,0.5c0,0.4-0.1,0.5-0.2,0.6l0.1,0c-0.1,0.5-0.1,1-0.4,0.8c0.1-0.6-0.3-0.4-0.4-0.7l0.1-0.1
								c-0.2,0.2-0.4,0.1-0.6,0.3l0-0.1c-0.1,0.3-0.2,1-0.4,0.8c0-0.3,0.2-1.1,0-1c0-0.4,0.3-0.5,0.5-0.4c-0.2-0.1-0.4-0.9-0.1-0.9
								c-0.1-0.6-0.3,0.3-0.4,0c0,0.2,0,0.4,0,0.5c-0.1-0.8-0.6,0-0.5,0.5l0.3-0.4c0.1,0.6-0.3,1-0.1,1.4c-0.2-0.9-0.7,0.5-0.9-0.3
								l0.1,0.5c-0.6-0.3-1,0.9-1.6,1.1c0.2-0.3,0.2-1.4,0.5-1c-0.6-0.2-0.2-1-0.4-1.5c-0.5-0.4-0.2,1-0.3,1.3l0.3-0.2
								c-0.3,1.2-1.1-0.2-1.7,0.6c-0.1-0.3,0.1-0.2,0.2-0.3c-0.3-0.6-0.3,0.1-0.4,0.4c-0.3-0.1-0.6-0.4-0.5-1.1
								c-0.3-0.2,0,0.5-0.1,0.7l-0.1-0.2l-0.3,0.9c-0.3-0.2-0.6-0.7-0.8-1.4c-0.6,0.2-0.2,1.7-0.6,2c-0.3-0.4,0-0.6,0.1-0.9
								l-0.4,0.1c0.1-0.9,0.5-0.4,0.4-1.4c-0.3,1-0.4,0.3-0.9,1l0,0.1c-0.2,0.7-0.7,0.2-0.9,0.4c0.1-0.4,0.4-0.5,0.6-0.6
								c-0.3-0.3-1,0-1.3,0.9c-0.2-0.1-0.5-0.5-0.3-0.9c-0.6-0.1-0.2,1.3-0.8,1l0-0.7c-0.6-1-1.1,0.9-1.7,0l0,0.8
								c-0.1-0.3-0.4-0.5-0.4-0.8l0.3-0.3c-0.2-0.7-0.3,0.7-0.6,0.2c0,0.2,0.2,0.8,0.2,1.1c1.2-0.5,2.3,0.7,3.5-0.1
								c0-0.1-0.1-0.2-0.1-0.4c0.1,0.2,0.4,0,0.3,0.4l0,0.1c0.3-0.2,0.6,0.8,0.8,0.8c0.1-0.6,0.6,0.2,0.5-0.7l0.2,0.6
								c0.1-0.4,0-0.8,0.1-1c0.2,0.1,0.2,0.5,0.1,0.7c0.8,0.3,1.8,0.2,2.6-0.1l-0.2,0.5c0.2,0.2,0.7-0.8,0.6,0.3
								c0.4-0.5,1.1,0.3,1.1-0.9c0.3,1.1,1,0.5,1.5,0.3c-0.1-1,0.4-0.3,0.6-0.8c0.1,0.8-0.4,0.8-0.4,1.4c0.5-1.2,1.7,0.8,1.8-1.2
								c0.1,0.1,0.1,0.2,0.1,0.2c0.1,0,0.3,0.3,0.4,0.4c0-0.4-0.2-0.5,0.1-0.6c0.2,0.1,0.1,0.6,0.2,0.9c0.4-0.5,1-0.7,1-1.5
								c0.1,0.2,0.3,0.7,0.2,0.8c0.6-0.7,0.6,0.1,1.2-0.4c-0.2,0,0,0.9-0.4,0.6c0.3,1.1,1-0.3,1.5,0.3l0.1-0.7
								c0.3-0.2,0.4,0.5,0.2,0.8c0.6,0.4,0.8-0.1,1.2-0.1c0,0.1,0,0.2,0,0.2l0.6,0c0-0.2,0.2-0.6,0.1-1
								C299.9,250.3,299.8,250.5,299.4,250.3z"/>
							<path class="st169" d="M299.9,249.8L299.9,249.8L299.9,249.8C299.9,249.8,299.9,249.8,299.9,249.8z"/>
							<path class="st169" d="M294.4,247.1c0.1,0.2,0.1,0.3,0.2,0.3C294.5,247.3,294.4,247.1,294.4,247.1z"/>
							<path class="st169" d="M305.3,247.9c-0.2-1.1-0.3,0.2-0.6,0c0.2-0.2,0.1-0.8,0-1.2c-0.1,1.5-0.4-0.2-0.9,0.1
								c-0.1-0.5,0.2-0.6,0.2-1.1c-0.3,0.4-0.7,0.6-0.7,1.5c-0.5,0.1-0.9-0.2-1.2,0c0.3-0.4,0-0.8,0.2-1.5c-0.3,1-1,2.2-1.4,3.4
								c-0.2-0.9-0.2-1-0.2-1.8c-0.7-0.5-0.1,0.8-0.7,0.6l0.3,0.1c-0.3,0.3-0.2,1.1-0.2,1.7l0.7-0.2c0.1,0.6-0.4,0.6-0.5,0.7
								c-0.1,0.7,0.4,0.5,0.4,1.1c0.1-0.5,0.3-0.4,0.5-0.6l0.1,0.3c0.4,0.3,0.5-0.5,0.8-0.5c0,0.1,0,0.2,0,0.2
								c0.1-0.4,0.1-0.8,0.3-1l-0.1,0.1c0.2-0.8,0.7-1.4,0.2-2.2l0.7,0.2c0,0.9,0,2.2-0.4,2.3l0,0.4c0.4,0.4,0.8-0.8,0.5-1.5
								c0.1-2.1,1.1-0.2,1.5-1.1c0.1,0.6-0.2,0.8-0.2,1.2c-0.1,0.1-0.3,0.1-0.3-0.4c-0.6,0.4,0.3,1.7-0.4,1.6
								c-0.4-0.2,0.3-0.9-0.2-1l-0.2,1.6c0.3-0.1,0.6-0.4,0.9-0.6c1.4-1.2,2.6-0.5,2.6-0.5c2.2-0.5,4.4-1,6.6-1.6
								c0.7-0.4,0.9-0.3,0.9-1.9c-0.2-0.3-0.6,0-0.6-0.6c0,0.6-0.2,0.9-0.5,1c-0.1-0.5,0.3-0.3,0.2-0.4l-0.1,0c0-0.3,0-0.5,0.1-0.5
								c-0.6-0.8-1.3-0.4-1.3,0.7c-0.4-0.5,0.1-0.9,0.1-1.4c-1.2-0.2-1.9,0-3.1,0.1c0.1,1,0,0.6-0.1,1.3l-0.2-0.3
								c0.1,0.2,0,0.9,0.3,1c-0.8-0.7-0.6,1.4-1,1.9l0-0.5c-0.4,0.1-0.5,0.2-0.8,0.5c-0.7-0.9,0.5-0.2,0.2-1.4l-0.1,0.2
								c0-0.5,0-1.4,0.2-1.7c-0.5,0.9-0.9-0.2-1.4,0.5c0-0.6,0.5-1.1,0.6-1.2c-0.2,0-0.5,0.4-0.6-0.1l0.1,0.7
								c-0.4,0.1,0-0.7-0.2-1.1C304.9,245.3,306,247.4,305.3,247.9z"/>
							<path class="st169" d="M296.2,248.4c0.1,0.1,0.2,0,0.3-0.1C296.4,248.3,296.3,248.3,296.2,248.4z"/>
							<path class="st169" d="M297.8,246.9c0-0.1,0-0.2,0-0.3C297.8,246.7,297.8,246.8,297.8,246.9z"/>
							<path class="st169" d="M297.9,245.9c0.1,0.3,0,0.3-0.1,0.7C298,246.4,298.2,246.4,297.9,245.9z"/>
							<path class="st169" d="M269.4,246.5c-0.1,0.2-0.3,0.4-0.3,0.6l0.4-0.2L269.4,246.5z"/>
							<path class="st169" d="M270.1,247.3l0.3,0.3l0.3-1C270.3,246.7,270.5,247.3,270.1,247.3z"/>
							<path class="st169" d="M271,247.9l-0.1,0.2C271,248.1,271,248,271,247.9z"/>
							<path class="st169" d="M271,247.5l0.2-0.7l-0.5,0.5l0.2,0.1c0,0.2,0.1,0.3,0.1,0.5l0.2-0.5
								C271.2,247.5,271.1,247.6,271,247.5z"/>
							<path class="st169" d="M271.4,247.5c0-0.1,0-0.1,0-0.2C271.4,247.4,271.4,247.4,271.4,247.5z"/>
							<path class="st169" d="M272.2,248.8c-0.1-0.3,0.1-0.6,0.1-0.9c-0.3-0.3-0.4,0.8-0.7,0.4c0.5-0.5-0.1-0.4-0.3-0.8
								c0.1,0.7,0.2,1.1,0.5,1.3l0.1-0.4C272.2,248.4,272.1,248.6,272.2,248.8z"/>
							<path class="st169" d="M274,247.8l-0.3,0.6c0-0.3-0.5-0.3-0.4-1c-0.2,0.1-0.2,0.4-0.3,0.6c-0.1-0.3-0.2-0.6-0.3-0.1
								c0.6,0.5,0.4,0.6,1,0.9c0,0.1-0.1,0.1-0.2,0.1l0.4,0.4C273.9,248.4,274.4,248.4,274,247.8z"/>
							<path class="st169" d="M274.5,248.4c-0.3,0-0.5,0.7-0.3,1.1l0.6-0.5C274.7,248.9,274.4,249,274.5,248.4z"/>
							<path class="st169" d="M275,248.4c0.1,0.3,0.3,1.1,0.5,0.4C275.1,248.9,275.3,247.9,275,248.4z"/>
							<path class="st169" d="M277.1,249l-0.6-0.5c-0.1-0.9,0.3-0.3,0.5-0.7c-0.5-0.2-0.3,0.1-0.7,0.6c-0.1-0.1-0.4,0.4-0.5,0.6
								C276.5,248.5,276.5,250.6,277.1,249z"/>
							<polygon class="st169" points="275.9,248.1 275.9,248.5 276.1,248.2 							"/>
							<path class="st169" d="M278.4,250c0.3,1,0.7-0.6,1.1-0.1c0,0.1,0,0.1-0.1,0.3l0.3-0.1l0,0.2c0-0.6,0.3-0.9,0.5-1.3
								c-0.3-0.7-0.2,0.8-0.5,0.1c0.1-0.3,0.1-0.7,0.2-0.9c-0.2,0.3-0.3,0.7-0.4,1c-0.2,0.1-0.2-0.3-0.2-0.5c-0.2,0.4-0.3,1.3-0.6,1
								c-0.2-0.5,0.2-0.9-0.3-0.6c0.2,1-0.4-0.2-0.6,0.5c-0.3-0.2-0.5-0.8-0.4-1.2c0,0.8-0.3,1.4-0.5,1.6l0.5-0.6l0.2,0.9
								C278,249.8,278.2,249.8,278.4,250L278.4,250z"/>
							<path class="st169" d="M279.9,248.1c0-0.1,0.1-0.1,0.1-0.2C280,247.9,280,248,279.9,248.1z"/>
							<polygon class="st169" points="277.4,248 277.6,247.9 277.5,247.6 							"/>
							<path class="st169" d="M280.2,247.4c-0.1,0-0.1,0.3,0,0.3l0.1-0.4L280.2,247.4z"/>
							<polygon class="st169" points="280.5,248 280.7,248.5 280.8,248.1 							"/>
							<path class="st169" d="M287.6,248.4c-0.2-0.3-0.2,0.3-0.2,0.7C287.7,249.3,287.4,248.6,287.6,248.4z"/>
							<path class="st169" d="M292,247.5c-0.3-0.4-0.5,0.2-0.7,0.2C291.5,248,291.8,247.8,292,247.5z"/>
							<path class="st169" d="M293.8,245.3c0,0.2-0.1,0.3,0,0.4l-0.2,1.1C294,247.1,293.8,245.7,293.8,245.3z"/>
							<path class="st169" d="M295.9,245l-0.3,0.4l0.2,0c-0.1,0.4-0.1,0.7-0.2,1C295.8,246.2,296,245.8,295.9,245z"/>
							<path class="st169" d="M295.2,246.7c0,0,0.1,0,0.1-0.1C295.3,246.5,295.3,246.3,295.2,246.7z"/>
							<path class="st169" d="M295.5,246.6c0,0,0-0.1,0-0.1c-0.1,0.1-0.1,0.1-0.2,0.1C295.4,246.7,295.4,246.8,295.5,246.6z"/>
							<path class="st169" d="M296.2,245.5l0.6-0.2l-0.2-0.2C296.5,245.8,296.2,244.8,296.2,245.5z"/>
							<path class="st169" d="M299.3,245.8l0.1,0.6c0.4,0.1,0.7-1.4,1.1-0.3c-0.2-0.4,0.2-0.8-0.2-0.9
								C300.1,245.8,299.6,245.9,299.3,245.8z"/>
							<path class="st169" d="M300.8,246.6c0,0.2,0.1,0.3,0.1,0.5c0.1,0.1,0.3-0.2,0.2-0.5C301.1,247.5,300.9,246.1,300.8,246.6z"/>
							<path class="st169" d="M302.5,246.4c-0.1,0-0.3,0.1-0.1,0.3c0.3-0.1,0.2-0.8,0.3-1.3C302.4,245,302.3,246.1,302.5,246.4z"/>
							<path class="st169" d="M305.8,250.9c-0.1-0.6-0.4-0.4-0.4-0.2C305.4,250.5,305.6,250.7,305.8,250.9z"/>
							<polygon class="st169" points="305.2,246.2 305.1,246.1 305.1,247 							"/>
							<polygon class="st169" points="307.1,245.5 307.3,244.9 307,245.1 							"/>
							<path class="st169" d="M307.5,245.6l0.3-0.1l-0.1-0.2C307.5,245.2,307.6,245.6,307.5,245.6z"/>
							<path class="st169" d="M308.5,245.3c0,0.1-0.1,0-0.1-0.1l-0.2,0.4L308.5,245.3z"/>
							<path class="st169" d="M314.4,247.9c0,0.6,0.3,0.2,0.4,0.3C314.8,248,314.5,247.3,314.4,247.9z"/>
						</g>
					</g>
				</g>
			</g>
		</g>
		<g>
			<path class="st187" d="M332.3,242.2c-2.9,4.1-7.1,7.9-12.1,7.9h-13.5c0,0-0.8-4.5,6.6-7c3.4-1.1,7.2-1.3,11.9-1.2
				C327.6,241.9,332.3,242.2,332.3,242.2z"/>
			<path class="st80" d="M309.9,250.1c0,0,0.4-1.8,1.2-2.3"/>
			<path class="st80" d="M314.2,250.1c0,0,0.6-1.6,1.2-1.7"/>
		</g>
		<g>
			<defs>
				<path id="SVGID_00000114794867139123643630000018084862218664966069_" d="M204.6,238c-2.1-1-3.7-2.1-4.6-3.5
					c-2.2-3.2-8.5-6-15.6-9.5c1.1,0.5,10.9,4.5,21.7,3.6C217.5,227.7,204.6,238,204.6,238z"/>
			</defs>
			<clipPath id="SVGID_00000060016367825862832750000003782292964604309670_">
				<use xlink:href="#SVGID_00000114794867139123643630000018084862218664966069_"  style="overflow:visible;"/>
			</clipPath>
			<g style="opacity:0.78;clip-path:url(#SVGID_00000060016367825862832750000003782292964604309670_);">
				<g>
					<g>
						<g>
							<path class="st169" d="M207.7,238.5c0.2-0.2,0.5-0.4,0.8-0.5C208.4,238,208.2,238.2,207.7,238.5z"/>
							<path class="st169" d="M199.6,236.4C199.6,236.4,199.6,236.4,199.6,236.4c-0.1,0.1-0.1,0.1-0.1,0.2L199.6,236.4z"/>
							<path class="st169" d="M199.5,236.6l-0.3,0.7C199.5,237,199.6,236.8,199.5,236.6z"/>
							<path class="st169" d="M214.3,234.9c0.2,0,0.5,0,0.9-0.1C214.9,234.8,214.6,234.8,214.3,234.9z"/>
							<path class="st169" d="M215.7,232.3c0.1-0.1,0.2-0.2,0.2-0.3C215.7,232.1,215.7,232.2,215.7,232.3z"/>
							<path class="st169" d="M205,242c-0.1,0-0.2-0.1-0.3-0.1C204.8,241.9,204.9,242,205,242z"/>
							<path class="st169" d="M205.9,242.7C205.9,242.7,205.9,242.7,205.9,242.7l0.1,0.1C206.2,242.9,206,242.8,205.9,242.7z"/>
							<path class="st169" d="M206.8,243L206.8,243C206.9,243.1,206.9,243.1,206.8,243z"/>
							<path class="st169" d="M208.9,252.2l0.4,0.6C209.2,252.5,209,252.4,208.9,252.2z"/>
							<path class="st169" d="M204.1,241.6c0.2,0.1,0.4,0.2,0.6,0.3C204.6,241.8,204.5,241.8,204.1,241.6z"/>
							<path class="st169" d="M207.2,238.9c0.2-0.1,0.3-0.2,0.4-0.3C207.5,238.7,207.4,238.8,207.2,238.9z"/>
							<path class="st169" d="M214.6,235.7L214.6,235.7C214.5,235.6,214.5,235.7,214.6,235.7z"/>
							<path class="st169" d="M194.4,235.4c-0.2,0-0.3,0-0.5,0.1C194.1,235.8,194.3,235.7,194.4,235.4z"/>
							<path class="st169" d="M207.2,241.7c2.7,0.1,0,0.2,2.5,0.4c-0.5-0.2-0.8-0.3,0.6-0.3c1.4,0.2-0.3,0.3,1.7,0.5
								c-0.2-0.1-0.4-0.2-0.6-0.3c0.6-0.1,1.3,0,1.8,0c0.5,0,0.8,0.1,0.8,0c-1.2-0.2-0.8-0.4-0.2-0.6c0.7-0.2,1.6-0.6,1.5-0.7
								l0.2,0.1c0.5-0.2,0.9-0.4,1.4-0.7c0.1,0,0.1,0,0.1,0c-0.1,0-0.3,0-0.5,0c1.4-0.4,2.3-1,2.1-1.6c-1.3,0.1-0.3-1.7-1.5-1.5
								c0.3,0.1,0.4,0.3,0,0.7l-1.6,0.4c0.1-0.4,1.5-0.5,0.6-0.6c-2.2,0.8,0,0.6-0.4,1c-0.5,0-0.9,0-1.1-0.1
								c-0.1,0.3-0.5,0.6-0.4,0.9c0.1,0.2,0.3,0.4,1.4,0.4c-0.3,0.1-0.7,0.2-1,0.2c-0.3,0-0.6,0-0.8,0c0.2,0,0.3,0,0.4,0.1
								c0,0,0,0.1,0,0.1c-0.1,0.1-0.2,0.1-0.5,0.2c-0.5,0.1-1,0.2-0.2,0.3c-1.4,0.1-1.7,0-1.8-0.1c-0.2-0.1-0.2-0.3-0.9-0.3
								c1.2-0.4,1.3-0.7,1-0.8c-0.3-0.1-0.9-0.1-1.1-0.2c2.2-0.9,4.3-1.2,4.9-1.7c0.5-0.5,0.3-0.6-0.1-0.5c-0.2,0-0.5,0.1-0.7,0.1
								c-0.4,0.1-0.8,0.2-1.1,0.3c0.2-0.2,0.5-0.4,0.9-0.6c0.3-0.1,0.5-0.3,0.8-0.5c0.5-0.3,1-0.6,0.9-1c0.3,0,0.7,0,1,0
								c1.8-1.4-0.9-0.1-0.6-0.6c-0.4,0.4-0.9,0.6-0.8,1c-0.7,0.4-1,0.3-1.1,0.2c0,0,0,0.1,0,0.1c-0.7,0.3-1.5,0.6-2,0.9
								c-0.5,0.2-0.7,0.2-0.4-0.1c0.9-0.4,1.3-0.7,1.4-0.9c0.2-0.2,0.2-0.5,0.5-0.7l0.3-0.1c-0.6,0-0.6-0.3-1.1-0.2l0.3-0.2
								c-0.1,0-0.4,0.2-0.8,0.4c-0.3,0.2-0.6,0.4-1,0.6c-0.6,0.4-1.1,0.6-1,0.4c0.4-0.3,1.2-0.9,1.9-1.3c0.4-0.3,0.5-0.3,0.6-0.4
								c0.1-0.1,0.1-0.1,0-0.1c0.8-0.6,1.3-0.5,1.3-0.1c0-0.4,1.1-1.5,1.6-1.2c0.9-0.8-0.8,0-0.5-0.4c-0.3,0.3-0.7,0.5-1,0.7
								c0.7-0.5,0.5-0.7,0-0.5c-0.5,0.1-1.2,0.5-1.7,0.9c0.4-0.2,0.8-0.4,1.1-0.5c-0.5,0.4-1.1,0.8-1.6,1.1
								c-0.1,0.1-0.2,0.2-0.4,0.2c-0.1,0.1-0.3,0.2-0.4,0.3c-0.3,0.2-0.5,0.4-0.7,0.6c1.1-1,0.5-0.8,0-0.5c-0.6,0.3-1.1,0.6-0.4-0.3
								l-0.9,1.1c0-0.3-0.8,0.1-1.6,0.7c-0.8,0.6-1.5,1.3-1.9,1.6c0.6-0.6,2.3-2.9,2.1-2.1c-0.1-0.2,0.2-0.8,0.7-1.4
								c0.5-0.6,1.1-1.3,1.3-1.8c-0.2-0.9-1.8,2-2.4,2.7l0.7-0.4c-1.2,1.3-1.3,1.2-1.6,0.9c-0.2-0.3-0.5-0.6-1.2,0.2
								c0.2-0.7,0.3-0.4,0.5-0.6c0.2-1.3-0.5,0.3-0.8,0.8c-0.2-0.2-0.5-0.8,0.1-2.4c-0.4-0.4-0.2,1-0.6,1.5l0-0.4
								c-0.3,0.6-0.5,1.2-0.7,1.8c-0.1-0.3-0.2-0.6-0.3-1.1c-0.1-0.5-0.3-1.1-0.3-1.9c-0.9,0.2-0.6,3.7-1.4,4.2
								c-0.3-0.9,0.2-1.2,0.3-1.9l-0.6,0.1c0.4-1.8,0.8-0.8,1-3c-0.7,2.1-0.7,0.5-1.5,1.9l0,0.2c-0.5,1.4-1,0.3-1.4,0.5
								c0.3-0.8,0.7-0.9,1.1-1.2c-0.3-0.8-1.4-0.3-2.2,1.5c-0.2-0.3-0.5-1.2,0-1.9c-0.8-0.5-1,2.6-1.6,1.8l0.4-1.4
								c-0.1-1.1-0.6-0.8-1.2-0.4c-0.5,0.4-1.1,0.7-1.1-0.3l-0.6,1.7c0.1-0.8-0.2-1.2,0-1.9l0.6-0.4c0.1-1.5-0.8,1.2-0.9,0.1
								c-0.2,0.5-0.2,1.7-0.4,2.3c1-0.2,1.7,0.4,2.5,0.9c0.8,0.5,1.6,0.9,2.7,0.2c0-0.2-0.1-0.5,0.1-0.8c0.1,0.5,0.5,0.1,0.3,1
								l-0.1,0.1c0.5-0.3,0.6,1.9,0.9,1.9c0.4-1.2,0.9,0.6,1-1.4l0.2,1.3c0.2-0.7,0.3-1.7,0.5-2.1c0.3,0.2,0.2,1-0.1,1.5
								c0.3,0.2,0.6,0.4,0.9,0.5c0.2,0.1,0.3,0.1,0.5,0.1c0.2,0,0.4,0,0.4,0c0.2,0,0.5-0.2,0.9-0.5c-0.2,0.3-0.3,0.6-0.4,0.9
								c-0.1,0.5,1-1.7,0,0.7c0.3-0.5,0.3-0.3,0.4-0.3c0.1,0,0.3-0.2,1.1-1.5c-0.7,1.2-0.8,1.5-0.6,1.4c0.2-0.1,0.7-0.5,1-0.7
								c1.9-2.2,0.9-0.6,2-1.6c-1.7,1.7-2,1.7-3.1,2.9c1.3-1.3,1.2-0.8,1-0.6c-0.1,0.3-0.2,0.3,2.7-1.7c-0.2,0.2-0.4,0.4-0.6,0.5
								c0.1,0-0.8,0.8-1,1c1.1-0.7,1.4-1.1,1.9-1.2c-0.1,0.3-1.8,1.3-2.6,1.8c1.5-0.8,2.2-0.7,4.7-1.8c-0.7,0.5-2.1,1.2-2.6,1.3
								c1-0.2,0.9,0,0.7,0.1c-0.2,0.2-0.5,0.4,0.1,0.4c-0.1-0.2-2.7,0.8-1.6,0.2c-1.8,0.7-1.6,0.7-1.3,0.7c0.4,0,0.9,0.1-0.1,0.3
								c0.7-0.1,1.4-0.2,2.1-0.2c0.3,0.2-1.8,0.4-2.5,0.4c-0.7,0.2-0.7,0.2-0.6,0.2c0.1,0,0.4,0.1,0.4,0.1c-0.2,0-0.6,0-0.5,0
								l-0.2,0.1c0.5,0,1.4,0.2,2.6,0.4C207,241.8,206.4,241.7,207.2,241.7z"/>
							<path class="st169" d="M208.1,242l0.2,0l0,0C208.2,242,208.2,242,208.1,242z"/>
							<path class="st169" d="M217,234c-0.3,0.3-0.4,0.4-0.5,0.5C216.7,234.4,216.9,234.2,217,234z"/>
							<path class="st169" d="M206.8,247.5c1.7,1.7,0.1-0.6,0.8-0.4c0,0.5,1,1.5,1.5,2c-1.8-2.6,0.8,0.1,1-0.9
								c0.7,0.7,0.5,1.1,1.3,2c-0.2-0.8,0.2-1.8-1.1-3c0.6-0.6,1.5-0.7,1.6-1.3c0.1,0.4,0.5,0.7,0.9,0.9c0.5,0.3,1,0.6,1.5,1.2
								c-0.6-0.9-1.2-1.9-1.9-2.8c-0.7-0.9-1.7-1.7-2.9-2.2c2.1,0.5,2.4,0.5,4.1,1c1.9-0.6-1.7-0.6-0.6-1.2l-0.6,0.3
								c-0.4-0.4-2.6-0.7-4-1c0,0.1,0,0.3,0,0.5c-1.5-0.3-1.1-0.5-1.5-0.6c-1.8-0.3-1.4-0.1-2.8-0.4c1.2,0.2,0.8,0.2,1.2,0.4
								l-0.8-0.2c-0.8-0.2,1,0.4,0.9,0.5c-0.2-0.1-0.3-0.1-0.5-0.2c0.8,0.3,1.7,0.8,1.8,1l0-0.1c0.7,0.4,1.3,0.9,1.8,1.4
								c0.5,0.5,1.1,0.9,2.1,1.2c-0.4,0.2-0.8,0.3-1.1,0.4c-1.4-1.2-3.6-3-3.7-3.2l-0.7-0.4c-0.5-0.2-0.2,0,0.3,0.4
								c0.5,0.4,1.3,1.1,1.9,1.6c1.7,1.5,1.4,1.8,0.9,1.8c-0.5,0.1-1.2-0.1-0.9,0.8c-0.8-0.9-0.9-1.5-1.3-2.2
								c0.1-0.2,0.1-0.4,0.8,0.4c0.1-0.5-0.7-1.1-1.3-1.7c-0.6-0.6-1.1-1-0.8-1c0.3,0.2,0.6,0.5,0.9,0.8c0.3,0.3,0.5,0.6,0.7,0.5
								c-0.8-0.8-1.6-1.5-2.5-2.2c0.1,0.1,0.5,0.4,0.7,0.8c0.1,0.6,0,1.2-0.2,1.5c-0.2,0.4-0.5,0.6-0.8,0.7
								c-0.6,0.2-1.1,0.1-1.1,0.1c-1.9,2-4.1,4-6.3,5.8c-0.5,0.9-0.8,0.8,0.4,3.9c0.5,0.5,0.8,0,1.2,1.1c-0.5-1.1-0.5-1.9,0-2
								c0.7,1-0.1,0.7,0.2,0.9l0.1,0c0.3,0.6,0.4,1,0.3,1.1c1.4,1.3,2.2,0.3,1.3-1.8c1.1,0.8,0.7,1.7,1,2.7c1.9-0.1,2.8-0.9,4.3-1.8
								c-1.2-1.7-0.6-1.2-1.3-2.5l0.6,0.5c-0.3-0.3-1-1.6-1.5-1.8c1.7,0.8-0.8-2.9-0.9-4l0.6,0.9c0.3-0.5,0.4-0.6,0.4-1.3
								c1.9,1.1-0.3,0.7,1.5,2.7l-0.1-0.5c0.5,0.9,1.5,2.4,1.8,3.2c-0.4-1.9,1.4-0.2,1.3-1.9c0.7,1,0.6,2.3,0.5,2.5
								c0.3-0.1,0.2-1.2,1-0.3L208,251c0.3-0.5,0.9,1.1,1.6,1.8C210.5,251.7,206.5,248.9,206.8,247.5z"/>
							<path class="st169" d="M214.5,237.9c-0.2,0.2-0.1,0.3,0,0.4C214.6,238.2,214.6,238,214.5,237.9z"/>
							<path class="st169" d="M216.9,240c0.2,0,0.4,0,0.6,0C217.4,239.9,217.2,239.9,216.9,240z"/>
							<path class="st169" d="M219.1,240.1c-0.8,0.2-0.7-0.1-1.6-0.1C218,240.1,217.8,240.7,219.1,240.1z"/>
							<path class="st169" d="M184.2,221.4c-0.3,0.3-0.8,0.5-1,0.9l0.7-0.2L184.2,221.4z"/>
							<path class="st169" d="M184,223.3l0,0.7l1.4-1.6C185.1,222.2,184.4,223.5,184,223.3z"/>
							<path class="st169" d="M184.4,225l-0.4,0.4C184.3,225.2,184.4,225.1,184.4,225z"/>
							<path class="st169" d="M184.9,224.3l1-1.2l-1.1,0.6l0,0.4c-0.3,0.4-0.3,0.7-0.4,0.9l0.8-0.8
								C185.1,224.3,184.9,224.4,184.9,224.3z"/>
							<path class="st169" d="M185.4,224.5c0.1-0.1,0.1-0.3,0.2-0.4C185.5,224.2,185.4,224.3,185.4,224.5z"/>
							<path class="st169" d="M184.9,227.5c0.2-0.5,0.8-1.1,1.2-1.6c-0.1-0.7-1.3,1.1-1.3,0.3c1.2-0.7,0.3-0.9,0.6-1.7
								c-0.7,1.2-1,2.2-0.8,2.8l0.5-0.8C185.4,226.6,184.9,227,184.9,227.5z"/>
							<path class="st169" d="M188.2,226.8l-1,1c0.3-0.6-0.2-0.9,0.5-2.2c-0.3,0.1-0.6,0.6-1,0.8c0.2-0.7,0.4-1.2-0.3-0.5
								c0.2,1.3-0.1,1.5,0.3,2.2c-0.2,0.3-0.2,0.2-0.3,0.1l0.1,0.9C187.4,227.7,188.1,227.9,188.2,226.8z"/>
							<path class="st169" d="M188.3,228.1c-0.4-0.1-1.2,0.9-1.5,1.8l1.3-0.6C187.9,229.2,187.5,229.2,188.3,228.1z"/>
							<path class="st169" d="M188.8,228.3c-0.2,0.7-0.7,2.3,0.2,1.1C188.5,229.5,189.7,227.7,188.8,228.3z"/>
							<path class="st169" d="M190.8,230.9c-0.1-0.4-0.2-0.8-0.3-1.2c0.7-1.7,0.6-0.4,1.2-1c-0.4-0.6-0.5,0-1.5,0.8
								c-0.1-0.2-0.8,0.5-1.3,0.9C190.5,229.5,188.6,233.6,190.8,230.9z"/>
							<polygon class="st169" points="190.2,228.5 189.8,229.1 190.4,228.8 							"/>
							<path class="st169" d="M191.8,233.5c-0.3,2.2,1.4-0.8,1.6,0.3c-0.1,0.1-0.1,0.3-0.3,0.5l0.5,0l-0.1,0.5
								c0.4-1.2,1.1-1.6,1.6-2.5c0-1.5-0.8,1.5-0.7-0.1c0.3-0.5,0.7-1.4,0.9-1.8c-0.5,0.5-0.8,1.2-1.2,1.9c-0.3,0,0-0.6,0.2-1.1
								c-0.6,0.6-1.3,2.4-1.6,1.8c0.1-1.2,0.9-1.6,0.1-1.4c-0.5,2.1-0.4-0.5-1.1,0.6c-0.2-0.6,0-1.9,0.4-2.5
								c-0.6,1.5-1.6,2.6-2.1,2.9l1.3-0.9l-0.5,1.9c0.7-0.6,1-0.4,1.3,0L191.8,233.5z"/>
							<path class="st169" d="M195.3,230.4c0.1-0.1,0.2-0.2,0.3-0.3C195.5,230,195.4,230.2,195.3,230.4z"/>
							<polygon class="st169" points="192.2,229.1 192.5,228.8 192.6,228.3 							"/>
							<path class="st169" d="M196.1,229.2c-0.1-0.1-0.3,0.5-0.2,0.6l0.4-0.8L196.1,229.2z"/>
							<polygon class="st169" points="196.1,230.5 196,231.6 196.4,230.8 							"/>
							<path class="st169" d="M205.4,233.3c-0.2-0.7-0.4,0.6-0.6,1.6C205.2,235.1,205,233.7,205.4,233.3z"/>
							<path class="st169" d="M213.6,232.2c0.3-0.8-1.1,0.2-1.4,0.1C212,232.9,212.8,232.6,213.6,232.2z"/>
							<path class="st169" d="M219.9,231.1c-0.4,0.1-0.7,0.1-0.7,0.4c-0.8,0.3-1.5,0.6-2.3,0.9C216.7,233.4,219.1,231.7,219.9,231.1
								z"/>
							<path class="st169" d="M221.8,235.4c-0.3-0.1-0.6-0.3-1-0.4c0,0.1,0,0.3,0,0.4c-0.9,0.1-1.4,0.2-2.1,0.2
								C219.2,235.9,220.1,236,221.8,235.4z"/>
							<path class="st169" d="M218.2,235.2c0,0.1,0.1,0.1,0.2,0.2C218.6,235.2,218.9,235,218.2,235.2z"/>
							<path class="st169" d="M218.4,235.6c0.1,0,0.2,0,0.3,0c-0.1-0.1-0.2-0.1-0.3-0.2C218.1,235.5,218,235.6,218.4,235.6z"/>
							<path class="st169" d="M220.7,236.3c0.1,0.4,0.2,0.8,0.3,1.2l0.5-0.6C220,237.2,222.3,236,220.7,236.3z"/>
							<path class="st169" d="M218.1,242.7l-1.6,0c-0.3,0.3,0.2,0.8,0.4,1.2c0.3,0.4,0.3,0.9-1,0.8c1.1-0.1,1.2,1.1,2.2,0.3
								C217.1,244.2,217.5,243.2,218.1,242.7z"/>
							<path class="st169" d="M214.5,244.8c-0.4-0.2-0.7-0.2-1.2-0.2c-0.3,0.1,0.2,0.6,0.8,0.7C212.4,244.4,215.5,245.4,214.5,244.8
								z"/>
							<path class="st169" d="M212.4,247.5c0.1-0.2,0.2-0.5-0.3-0.5c-0.3,0.5,1.1,1.3,1.5,2.2c0.6,0,0.5-0.4,0.2-0.8
								C213.5,247.9,212.9,247.5,212.4,247.5z"/>
							<path class="st169" d="M202.4,242.8c0.8,0.9,1,0.5,0.7,0.2C203.2,243.2,202.8,243,202.4,242.8z"/>
							<polygon class="st169" points="208.9,250.4 209.2,250.5 208.1,249 							"/>
							<polygon class="st169" points="207.2,253 207.6,254.2 208,253.7 							"/>
							<path class="st169" d="M206.6,253.1l-0.3,0.4l0.4,0.3C207.1,253.9,206.5,253.3,206.6,253.1z"/>
							<path class="st169" d="M205.5,254.2c0-0.1,0.1,0,0.3,0.1l-0.1-0.9L205.5,254.2z"/>
							<path class="st169" d="M195.3,251.8c-0.2-0.6-0.3-0.6-0.4-0.6c0.1,0,0.1,0,0.2,0c0.1,0,0,0,0-0.1c0,0.2,0.3,0.6,0.3,0.9
								c0,0.1,0,0.2,0,0.3C195.4,252.2,195.5,252,195.3,251.8z"/>
						</g>
					</g>
				</g>
			</g>
		</g>
	</g>
</g>
</svg>
