<?xml version="1.0" encoding="utf-8"?>
<!-- Generator: Adobe Illustrator 26.0.3, SVG Export Plug-In . SVG Version: 6.00 Build 0)  -->
<svg version="1.1" xmlns="http://www.w3.org/2000/svg" xmlns:xlink="http://www.w3.org/1999/xlink" x="0px" y="0px"
	 viewBox="0 0 503.6 377.7" style="enable-background:new 0 0 503.6 377.7;" xml:space="preserve">
<style type="text/css">
	.st0{fill:#FFF0DD;}
	.st1{fill:#6B5C52;}
	.st2{fill:#B8BBBF;}
	.st3{fill:#F9E9CD;}
	.st4{fill:#FFE6BD;}
	.st5{fill:#F5F5F2;}
	.st6{fill:#637189;}
	.st7{fill:#9E9082;}
	.st8{fill:#938D89;}
	.st9{fill:#FFDBC0;}
	.st10{fill:#6E85BD;}
	.st11{fill:#E8D9D6;}
	.st12{fill:#A7BC79;}
	.st13{fill:#FF8080;}
	.st14{fill:#3D3533;}
	.st15{fill:#A1683D;}
	.st16{fill:#CCE0FF;}
	.st17{fill:#383531;}
	.st18{fill:#757060;}
	.st19{fill:#D29F7E;}
	.st20{opacity:0.88;clip-path:url(#SVGID_00000024707518271472455990000014918572271914363537_);}
	.st21{fill:#322015;}
	.st22{fill:#1B1C1E;}
	.st23{fill:none;stroke:#1B1C1E;stroke-width:1.2604;stroke-linecap:round;stroke-linejoin:round;stroke-miterlimit:10;}
	.st24{opacity:0.84;clip-path:url(#SVGID_00000042696528277850482340000007000348020190715271_);}
	.st25{clip-path:url(#SVGID_00000116937437574417403620000014717488687034360968_);}
	.st26{fill:none;stroke:#1B1C1E;stroke-width:1.2604;stroke-linecap:round;stroke-linejoin:round;}
	.st27{fill:#D1493B;}
	.st28{fill:#FFAE1F;}
	.st29{opacity:0.88;clip-path:url(#SVGID_00000069398249395013801860000007442438040980135845_);}
	.st30{opacity:0.7;clip-path:url(#SVGID_00000013195459035944538430000014752043266587156098_);}
	.st31{fill:#2C2C2D;}
	.st32{opacity:0.87;clip-path:url(#SVGID_00000144320523857167359800000005992374303759129729_);}
	.st33{fill:#080809;}
	.st34{opacity:0.7;clip-path:url(#SVGID_00000026122594275964329080000003098714639108654470_);}
	.st35{fill:#FBAF5E;}
	.st36{opacity:0.62;clip-path:url(#SVGID_00000155129481148781860090000011476888045393042319_);}
	.st37{fill:#3E240C;}
	.st38{fill:#BC763C;}
	.st39{opacity:0.62;clip-path:url(#SVGID_00000116933806549241224040000018286751403317751730_);}
	.st40{opacity:0.62;clip-path:url(#SVGID_00000032615597801219750720000009495136441420884407_);}
	.st41{fill:#967258;}
	.st42{opacity:0.53;clip-path:url(#SVGID_00000036950569836503107580000017313133211797561732_);}
	.st43{opacity:0.73;clip-path:url(#SVGID_00000119800869691360400690000006982101718061224331_);}
	.st44{fill:none;stroke:#1B1C1E;stroke-width:1.1311;stroke-linecap:round;stroke-linejoin:round;stroke-miterlimit:10;}
	.st45{fill:#3D291C;}
	.st46{fill:#3D291C;stroke:#967258;stroke-width:1.2604;stroke-linecap:round;stroke-linejoin:round;stroke-miterlimit:10;}
	.st47{fill:#D6D4C8;}
	.st48{fill:#1B1C1E;stroke:#967258;stroke-width:1.2604;stroke-linecap:round;stroke-linejoin:round;stroke-miterlimit:10;}
	.st49{opacity:0.52;clip-path:url(#SVGID_00000057842170087229972070000015988400718932253610_);}
	.st50{fill:#B37D4F;}
	.st51{opacity:0.88;clip-path:url(#SVGID_00000160159925916122765480000008320462842185019265_);}
	.st52{fill:#343434;}
	.st53{fill:#BC6464;}
	.st54{opacity:0.88;clip-path:url(#SVGID_00000069378189625393979820000017506779433362797697_);}
	.st55{fill:#1B1C1E;stroke:#1B1C1E;stroke-width:1.1485;stroke-linecap:round;stroke-linejoin:round;stroke-miterlimit:10;}
	.st56{fill:#8C7265;}
	.st57{opacity:0.88;clip-path:url(#SVGID_00000017508904598978230380000002552936502103402137_);}
	.st58{fill:#1B1C1E;stroke:#1B1C1E;stroke-width:1.3664;stroke-linecap:round;stroke-linejoin:round;stroke-miterlimit:10;}
	.st59{opacity:0.88;clip-path:url(#SVGID_00000047051761853927814760000010037607751531068327_);}
	.st60{fill:none;stroke:#1B1C1E;stroke-width:1.3664;stroke-linecap:round;stroke-linejoin:round;stroke-miterlimit:10;}
	.st61{opacity:0.88;clip-path:url(#SVGID_00000143612928293228622900000004724265864026995126_);}
	.st62{opacity:0.88;clip-path:url(#SVGID_00000054246048457493893270000009330844685161629858_);}
	.st63{fill:#5F6C72;}
	.st64{fill:#1B1C1E;stroke:#1B1C1E;stroke-width:1.5329;stroke-linecap:round;stroke-linejoin:round;stroke-miterlimit:10;}
	.st65{opacity:0.88;clip-path:url(#SVGID_00000170966151623044417300000006850629634520140985_);}
	.st66{clip-path:url(#SVGID_00000027593263610142579120000015698146478705110957_);}
	.st67{opacity:0.58;clip-path:url(#SVGID_00000148639347098821058790000015211254829133248652_);}
	.st68{opacity:0.58;clip-path:url(#SVGID_00000169556008290778940240000004885354483950862998_);}
	.st69{fill:#1B1C1E;stroke:#1B1C1E;stroke-width:1.818;stroke-linecap:round;stroke-linejoin:round;stroke-miterlimit:10;}
	.st70{fill:#FFFFFF;}
	.st71{fill:#CC813E;}
	.st72{opacity:0.58;clip-path:url(#SVGID_00000109722047875583445570000001244944397058279835_);}
	.st73{fill:#AA8C7D;}
	.st74{opacity:0.88;clip-path:url(#SVGID_00000006676916201708843190000010423443952862054036_);}
	.st75{opacity:0.88;clip-path:url(#SVGID_00000065037616796178423030000008407080161693944236_);}
	.st76{fill:#1B1C1E;stroke:#1B1C1E;stroke-width:1.2604;stroke-linecap:round;stroke-linejoin:round;stroke-miterlimit:10;}
	.st77{opacity:0.88;clip-path:url(#SVGID_00000009549939078296398380000010890567324449997988_);}
	.st78{opacity:0.88;clip-path:url(#SVGID_00000180336767039373703620000004846466578165243291_);}
	.st79{opacity:0.88;clip-path:url(#SVGID_00000027569882338312999700000001837601322155291780_);}
	.st80{fill:none;stroke:#1B1C1E;stroke-miterlimit:10;}
	.st81{fill:#B8BDC4;}
	.st82{fill:#B4D3CD;}
	.st83{opacity:0.88;clip-path:url(#SVGID_00000177453291004096237830000002510967580791650452_);}
	.st84{opacity:0.88;clip-path:url(#SVGID_00000162341754647597211250000018203028301519697566_);}
	.st85{fill:#EFBE9D;}
	.st86{opacity:0.88;clip-path:url(#SVGID_00000177446371433541656670000016164192442977979542_);}
	.st87{fill:#443730;}
	.st88{opacity:0.88;clip-path:url(#SVGID_00000014594611878039757250000010808379633700296853_);}
	.st89{opacity:0.88;clip-path:url(#SVGID_00000027592578592859152750000011944414818600811143_);}
	.st90{fill:#E2AF8D;}
	.st91{fill:none;stroke:#1B1C1E;stroke-linecap:round;stroke-linejoin:round;stroke-miterlimit:10;}
	.st92{fill:#1B1C1E;stroke:#1B1C1E;stroke-miterlimit:10;}
	.st93{fill:#FCEA9F;}
	.st94{fill:#F6EBEF;}
	.st95{fill:#D4DADD;}
	.st96{opacity:0.61;clip-path:url(#SVGID_00000071556352556709071240000007987420994622852538_);}
	.st97{fill:#353737;}
	.st98{fill:#B3B9BC;}
	.st99{opacity:0.61;clip-path:url(#SVGID_00000157987155271830463750000011051324173717760920_);}
	.st100{opacity:0.61;clip-path:url(#SVGID_00000093858416858625620810000014316896749929799054_);}
	.st101{fill:#B3B9BC;stroke:#1B1C1E;stroke-miterlimit:10;}
	.st102{fill:#CCE2CF;stroke:#1B1C1E;stroke-miterlimit:10;}
	.st103{fill:#EAD6DE;}
	.st104{fill:#1B1C1E;stroke:#1B1C1E;stroke-width:1.0185;stroke-miterlimit:10;}
	.st105{fill:none;stroke:#1B1C1E;stroke-width:1.0185;stroke-miterlimit:10;}
	.st106{fill:#FBAF5E;stroke:#1B1C1E;stroke-miterlimit:10;}
	.st107{fill:#513F3B;}
	.st108{opacity:0.88;clip-path:url(#SVGID_00000078765355245225578190000007556738538240106924_);}
	.st109{opacity:0.88;clip-path:url(#SVGID_00000046315307512213114790000011899082936941822874_);}
	.st110{fill:#8B2403;}
	.st111{fill:#EBDAD2;}
	.st112{fill:#A84E39;}
	.st113{fill:#751A01;}
	.st114{fill:#EBDAD2;stroke:#1B1C1E;stroke-miterlimit:10;}
	.st115{opacity:0.78;clip-path:url(#SVGID_00000134942585781819544750000015720648724663701405_);}
	.st116{fill:#290B01;}
	.st117{opacity:0.78;clip-path:url(#SVGID_00000055687553801378593010000014296309620935988136_);}
	.st118{opacity:0.78;clip-path:url(#SVGID_00000153673944644759631570000007512766762465121970_);}
	.st119{opacity:0.78;clip-path:url(#SVGID_00000114034228573445141020000007998406292051048073_);}
	.st120{fill:#030203;}
	.st121{fill:#86889A;}
	.st122{fill:#0B060A;}
	.st123{fill:#736E72;}
	.st124{fill:#9E9AA0;}
	.st125{fill:#18172A;}
	.st126{fill:#3B4D84;}
	.st127{fill:#FFA3AC;}
	.st128{fill:none;stroke:#0B080B;stroke-width:1.2005;stroke-miterlimit:10;}
	.st129{fill:#E7E6E8;}
	.st130{fill:#0B080B;}
	.st131{fill:none;stroke:#1B1C1E;stroke-width:1.2005;stroke-linecap:round;stroke-linejoin:round;stroke-miterlimit:10;}
	.st132{opacity:0.78;clip-path:url(#SVGID_00000137824353348497930630000012886114746697990057_);}
	.st133{opacity:0.78;clip-path:url(#SVGID_00000099620416507888440030000013088735443500288647_);}
	.st134{fill:#89745E;}
	.st135{opacity:0.78;clip-path:url(#SVGID_00000160877743642874680350000018292272359957662594_);}
	.st136{fill:#060606;}
	.st137{fill:#4D483E;}
	.st138{fill:#FF8A00;}
	.st139{fill:#50483F;}
	.st140{fill:#131313;}
	.st141{fill:#E8DBCD;}
	.st142{opacity:0.78;clip-path:url(#SVGID_00000064340162237921789870000012277011740740143761_);}
	.st143{opacity:0.78;clip-path:url(#SVGID_00000001646056501280644350000009651230505074963336_);}
	.st144{fill:#191212;}
	.st145{fill:#6C5353;}
	.st146{opacity:0.78;clip-path:url(#SVGID_00000085210866104318801260000018156121172819399059_);}
	.st147{fill:#B3B3B3;}
	.st148{fill:#FF9F2C;}
	.st149{fill:none;stroke:#343434;stroke-miterlimit:10;}
	.st150{fill:#21262A;}
	.st151{fill:#563D3D;}
	.st152{opacity:0.78;clip-path:url(#SVGID_00000174579959588631464860000007993350647998074753_);}
	.st153{fill:#181716;}
	.st154{fill:#706153;}
	.st155{fill:none;stroke:#1B1C1E;stroke-width:0.8477;stroke-miterlimit:10;}
	.st156{fill:#FCBD30;}
	.st157{fill:#E8D9CD;}
	.st158{fill:#534E4A;}
	.st159{opacity:0.78;clip-path:url(#SVGID_00000026878338342478711820000004524931898868714633_);}
	.st160{fill:#7DA050;}
	.st161{opacity:0.78;clip-path:url(#SVGID_00000097462378341701468900000003486079415435207308_);}
	.st162{opacity:0.78;clip-path:url(#SVGID_00000036242092945390023310000010103360087921136285_);}
	.st163{opacity:0.78;clip-path:url(#SVGID_00000077285506242166209730000002760544877597765540_);}
	.st164{fill:#EFEECE;}
	.st165{opacity:0.78;clip-path:url(#SVGID_00000147216728253244160070000011848417459409063083_);}
	.st166{fill:#93543B;}
	.st167{fill:#FF510C;}
	.st168{opacity:0.78;clip-path:url(#SVGID_00000052791108919144662440000006240106030411744149_);}
	.st169{fill:#4B1804;}
	.st170{fill:#000A0E;}
	.st171{opacity:0.78;clip-path:url(#SVGID_00000039820853294361797240000007373098908435411625_);}
	.st172{opacity:0.78;clip-path:url(#SVGID_00000010997097529982711620000009543928174626286013_);}
	.st173{fill:#F9C8A7;}
	.st174{fill:#1B1C1E;stroke:#1B1C1E;stroke-width:1.3738;stroke-miterlimit:10;}
	.st175{fill:none;stroke:#1B1C1E;stroke-width:1.3;stroke-miterlimit:10;}
	.st176{fill:#FFCB6E;}
	.st177{fill:#CECECE;}
	.st178{fill:none;stroke:#1B1C1E;stroke-width:1.3037;stroke-miterlimit:10;}
	.st179{fill:#FFFFFF;stroke:#1B1C1E;stroke-width:1.3;stroke-miterlimit:10;}
	.st180{opacity:0.78;clip-path:url(#SVGID_00000166675861258517138170000011926354540986568074_);}
	.st181{fill:none;stroke:#1B1C1E;stroke-width:1.3738;stroke-miterlimit:10;}
	.st182{opacity:0.45;clip-path:url(#SVGID_00000111167876598429286080000006317851505070904984_);}
	.st183{opacity:0.45;clip-path:url(#SVGID_00000152972765052065087780000005672775410879119237_);}
	.st184{opacity:0.45;clip-path:url(#SVGID_00000098182709143069261860000007145231521900740994_);}
	.st185{opacity:0.45;clip-path:url(#SVGID_00000041974311054008353870000000511456350213055625_);}
	.st186{fill:none;stroke:#1B1C1E;stroke-width:1.3738;stroke-linecap:round;stroke-linejoin:round;stroke-miterlimit:10;}
	.st187{fill:#FFB192;}
	.st188{fill:#EB8226;}
	.st189{fill:#F7EDE1;}
	.st190{opacity:0.78;clip-path:url(#SVGID_00000046327586454481293560000008725369553066507912_);}
	.st191{opacity:0.78;clip-path:url(#SVGID_00000152261390814504941410000016932282508814685589_);}
	.st192{opacity:0.5;clip-path:url(#SVGID_00000131342422702304224600000001777106878681515150_);}
	.st193{opacity:0.5;clip-path:url(#SVGID_00000078743019251032405590000005865826405736584860_);}
	.st194{fill:none;stroke:#06002C;stroke-width:1.3038;stroke-miterlimit:10;}
	.st195{fill:#F7A9B4;}
	.st196{fill:#06002C;}
	.st197{opacity:0.5;clip-path:url(#SVGID_00000176027687242269650190000004030985458218561419_);}
	.st198{fill:none;stroke:#06002C;stroke-width:1.3038;stroke-linecap:round;stroke-linejoin:round;stroke-miterlimit:10;}
	.st199{fill:#9BBEDC;}
	.st200{opacity:0.88;clip-path:url(#SVGID_00000077301617113087338410000013005126566851433617_);}
	.st201{opacity:0.88;clip-path:url(#SVGID_00000085244676023040916690000013586124620884674455_);}
</style>
<g id="Background">
	<rect x="-3.2" y="-2.4" class="st10" width="510" height="382.5"/>
</g>
<g id="Illustration">
	<g>
		<path class="st22" d="M197.5,284.9c0,0-4.9,2.1,8.5,2.7c13.5,0.6,84.6,0.9,91.9,0c7.3-0.9,15.5-2,1.7-3.2
			c-10.4-0.9-25.7-0.8-36.3-1.1C244.2,282.8,203.3,283,197.5,284.9z"/>
		<g>
			<g>
				<path class="st22" d="M222.6,144.9c0,0-5.3-10.1-14.6-8.8c-9.3,1.3-13.6,16.1-3.3,24.7C215.1,169.3,222.6,144.9,222.6,144.9z"/>
				<path class="st22" d="M284.3,144.9c0,0,5.3-10.1,14.6-8.8s13.6,16.1,3.3,24.7C291.8,169.3,284.3,144.9,284.3,144.9z"/>
			</g>
			<path class="st173" d="M242.8,285.8c-9.8,0.7-22.8,1.9-34.3-1.5c3.3-2.5,19.8-14.2,26.2-11.6C243.2,276.2,243,284.2,242.8,285.8z
				"/>
			<path class="st173" d="M295,284.3c-11.5,3.5-24.4,2.2-34.3,1.5c-0.1-1.6-0.4-9.5,8.1-13.1C275.3,270,291.7,281.8,295,284.3z"/>
			<path class="st70" d="M295.1,284.3L295.1,284.3c-3.3-2.5-19.8-14.2-26.1-11.6c-8.5,3.6-8.3,11.5-8.1,13.1c-2.6-0.2-5-0.3-7.1-0.3
				c-0.6,0-1.2,0-1.9,0c-0.6,0-1.2,0-1.9,0c-2.1,0-4.5,0.1-7.1,0.3c0.1-1.6,0.4-9.5-8.1-13.1c-6.4-2.7-22.8,9.1-26.2,11.6
				c-18.9-5.7-23-23.9-14.5-78c0.4-2.4,0.8-4.8,1.2-7.3c0.5-3.1,1.1-6,1.7-8.8c0.4-1.7,0.8-3.3,1.1-4.9c1.2-4.9,2.6-9.4,4.1-13.5
				c11.3-31,30.4-40.2,49.7-40.4c19.3,0.2,38.3,9.4,49.7,40.4c1.5,4.1,2.9,8.6,4.1,13.5c0.4,1.6,0.8,3.2,1.1,4.9
				c0.6,2.8,1.2,5.7,1.7,8.8c0.4,2.5,0.8,4.9,1.2,7.3v0C318,260.3,313.9,278.6,295.1,284.3z"/>
			<g>
				<g>
					<path class="st174" d="M248.7,181.7c-1.7,0.1-2.7,2-1.6,3.4c1.1,1.4,2.8,2.7,5.5,2.9c2.9,0.2,4.9-1.2,6.1-2.8
						c1-1.3,0.1-3.2-1.5-3.3C254.8,181.8,251.6,181.6,248.7,181.7z"/>
					<path class="st175" d="M253.2,188c0,0,0.2,4.3,0.1,4.6c-0.1,0.3-4.8,3.1-11,2.5"/>
					<path class="st175" d="M253.3,192.7c0,0,3.6,3,10.2,3.3"/>
				</g>
				<g>
					<circle class="st22" cx="230" cy="176.4" r="7"/>
					<circle class="st22" cx="275.8" cy="176.4" r="7"/>
				</g>
				<path class="st175" d="M247.6,194.9c0,0,0.4,4.5,5.3,4.7c5.5,0.2,5.8-4.5,5.8-4.5"/>
			</g>
			<g>
				<path class="st176" d="M253.7,221.8c-1-1.1-2.7-1.1-3.7,0c-2.8,2.9-7.9,9.3-8.8,17.9c-1.1,11.2,5,15.6,10,15.8
					c5,0.1,12.2-4.1,10.8-15.8C260.8,230.5,256.3,224.6,253.7,221.8z"/>
			</g>
			<path class="st177" d="M265.3,132.9c0,11.8-5.9,23.1-12.4,22.9c-12.9-0.3-14.6-22.9-14.6-22.9c4.6-1.1,9.2-1.6,13.5-1.6
				C256.1,131.3,260.7,131.8,265.3,132.9z"/>
			<g>
				<g>
					<g>
						<path class="st178" d="M242.8,285.8c0,0.2,0,0.3,0,0.3"/>
						<path class="st175" d="M234.7,286.4c0,0-0.1-3.4-0.6-4.5"/>
						<path class="st175" d="M227.5,286.6c0,0-0.7-2.9-1.8-3.6"/>
					</g>
					<path class="st175" d="M234.7,272.7c0,0,0.8-1.7,1-5.4"/>
				</g>
				<g>
					<g>
						<path class="st178" d="M260.8,286.1c0,0,0-0.1,0-0.3"/>
						<path class="st175" d="M268.9,286.4c0,0,0.1-3.4,0.6-4.5"/>
						<path class="st175" d="M276.1,286.6c0,0,0.7-2.9,1.8-3.6"/>
					</g>
					<path class="st175" d="M268.9,272.7c0,0-0.8-1.7-1-5.4"/>
				</g>
			</g>
			<g>
				<g>
					<path class="st179" d="M229.3,214.7c0,0,7.7,10.2,16.7,17.2c4.7,3.6,7.6,10.9,2.3,15.1c-6,4.7-38.8-3.4-50.9-26"/>
					<path class="st175" d="M251.2,240.8c0,0-3.6-0.7-5.4-2.1"/>
					<path class="st175" d="M248.9,246.5c0,0-4.3-0.2-5.4-0.8"/>
				</g>
				<g>
					<path class="st179" d="M274.7,214.7c0,0-7.7,10.2-16.7,17.2c-4.7,3.6-7.6,10.9-2.3,15.1c6,4.7,38.8-3.4,50.9-26"/>
					<path class="st175" d="M252.8,240.8c0,0,3.6-0.7,5.4-2.1"/>
					<path class="st175" d="M255.1,246.5c0,0,4.3-0.2,5.4-0.8"/>
				</g>
			</g>
			<g>
				<g>
					<g>
						<path class="st177" d="M212.5,181.6c-0.5,4.8-10,4.2-14.5,3.6c1.2-4.9,2.6-9.4,4.1-13.5C205.1,172.9,213,176.5,212.5,181.6z"
							/>
						<path class="st177" d="M202.8,198.2c-0.7,4.6-5.5,7-8.8,8c0.4-2.4,0.8-4.8,1.2-7.3c0.5-3.1,1.1-6,1.7-8.8
							C199.6,191.1,203.5,193.4,202.8,198.2z"/>
					</g>
				</g>
				<g>
					<path class="st177" d="M305.6,185.2c-4.5,0.6-14,1.2-14.5-3.6c-0.5-5.1,7.4-8.7,10.4-9.9C303,175.8,304.4,180.3,305.6,185.2z"
						/>
					<path class="st177" d="M309.6,206.2c-3.3-1.1-8.1-3.4-8.8-8c-0.7-4.8,3.2-7.1,5.9-8.1c0.6,2.8,1.2,5.7,1.7,8.8
						C308.8,201.4,309.2,203.9,309.6,206.2z"/>
				</g>
			</g>
			<g>
				<defs>
					<path id="SVGID_00000015328442259372007800000007936199694288414396_" d="M268.1,253.6c-11-7-23-12-34-4
						c-8.5,5.9-10.2,15.2-8.3,24.3c3.5-1.4,6.8-2.2,8.9-1.3c8.5,3.6,8.3,11.5,8.1,13.1c2.6-0.2,5-0.3,7.1-0.3c0.6,0,1.2,0,1.9,0
						c0.6,0,1.2,0,1.9,0c2.1,0,4.5,0.1,7.1,0.3c-0.1-1.6-0.4-9.5,8.1-13.1c2.2-0.9,5.6-0.1,9.3,1.4
						C278.8,266.1,275.5,258.5,268.1,253.6z"/>
				</defs>
				<clipPath id="SVGID_00000129891553326588452240000010921233892128662931_">
					<use xlink:href="#SVGID_00000015328442259372007800000007936199694288414396_"  style="overflow:visible;"/>
				</clipPath>
				<g style="opacity:0.78;clip-path:url(#SVGID_00000129891553326588452240000010921233892128662931_);">
					<g>
						<g>
							<g>
								<path class="st33" d="M247.1,287.8c0-0.1,0.1-0.2,0.1-0.4C247.1,287.4,247.1,287.5,247.1,287.8z"/>
								<path class="st33" d="M236.8,286.4C236.8,286.5,236.8,286.5,236.8,286.4l0,0.1L236.8,286.4z"/>
								<path class="st33" d="M236.8,286.6l-0.1,0.4C236.8,286.8,236.8,286.7,236.8,286.6z"/>
								<path class="st33" d="M247.9,284.8c0.1-0.1,0.2-0.3,0.3-0.5L247.9,284.8z"/>
								<path class="st33" d="M246.9,283c0-0.1,0-0.2-0.1-0.2C246.8,282.9,246.9,282.9,246.9,283z"/>
								<path class="st33" d="M256.4,287.9c0,0.1,0,0.1,0,0.1C256.4,288,256.4,287.9,256.4,287.9z"/>
								<path class="st33" d="M257,287.1c0.1,0,0.1,0,0.2,0l0-0.1C257.2,286.9,257.1,287.1,257,287.1z"/>
								<path class="st33" d="M256.7,286.7l0.1-0.1C256.8,286.6,256.8,286.7,256.7,286.7z"/>
								<path class="st33" d="M261,282.4l0-0.3C261,282.3,261,282.4,261,282.4z"/>
								<path class="st33" d="M256.3,288.4c0-0.1,0.1-0.2,0.1-0.4C256.3,288.1,256.2,288.2,256.3,288.4z"/>
								<path class="st33" d="M247.1,288c0-0.1,0-0.1,0-0.2C247,287.9,247,287.9,247.1,288z"/>
								<path class="st33" d="M248.6,284.9L248.6,284.9C248.5,284.9,248.5,284.9,248.6,284.9z"/>
								<path class="st33" d="M233,286c-0.1,0-0.2,0-0.3,0.1C232.9,286.2,232.9,286.2,233,286z"/>
								<path class="st33" d="M253.7,287.4c-0.2-1.2,0.4-0.1,0.3-1.3c-0.2,0.3-0.3,0.5-0.4-0.1c0.1-0.7,0.4,0,0.4-1l-0.3,0.4
									c-0.2-0.5,0-1.3-0.2-1.2c-0.1,1.4-0.9-0.5-1.1-0.3l0.1-0.1l-0.4-0.7c0,0,0-0.1,0-0.1c0,0.1,0,0.2,0,0.3
									c-0.2-0.7-0.5-1.2-0.9-1c-0.1,0.8-1,0.3-1.2,1c0.1-0.2,0.3-0.2,0.4,0l0,1c-0.3,0-0.1-0.9-0.3-0.3c0.1,1.4,0.4,0,0.7,0.1
									c-0.1,0.3-0.2,0.6-0.3,0.7c0.4,0,0.9,0.5,1.1-0.9c0.1,0.3,0.1,0.8,0,1c0.3-0.8,0.3,0.7,0.5,0c0,1.2-0.6,0.7-0.9,1.4
									c-0.5-1-1,0-1.4,0.2c-0.1-0.9,0.2-1.8,0-2.3c-0.5-0.6-0.4,0.5-0.7,1.1c-0.3-0.3-0.1-1.6-0.6-1.6l0.3-0.6
									c-0.3-1.3-0.3,0.5-0.5,0.3c0.1,0.3,0.1,0.7,0.4,0.6c0,0.5-0.1,0.7-0.2,0.8l0.1,0c-0.1,0.7-0.1,1.4-0.4,1
									c0.2-0.8-0.3-0.6-0.4-1l0.1-0.2c-0.2,0.3-0.5,0.2-0.6,0.3l0-0.2c-0.2,0.3-0.2,1.3-0.5,1.1c0-0.4,0.3-1.5,0-1.3
									c0-0.6,0.3-0.7,0.6-0.5c-0.3-0.2-0.4-1.2-0.1-1.3c-0.1-0.8-0.3,0.3-0.5,0c0,0.2,0,0.5,0,0.7c0-1-0.6-0.1-0.6,0.7l0.3-0.6
									c0,0.8-0.3,1.4-0.2,1.9c-0.2-1.3-0.8,0.7-1-0.5l0.1,0.7c-0.6-0.4-1.2,1.1-1.8,1.4c0.2-0.4,0.2-1.9,0.7-1.4
									c-0.6-0.3-0.2-1.4-0.4-2.1c-0.5-0.5-0.2,1.3-0.4,1.8l0.3-0.3c-0.4,1.7-1.2-0.4-1.9,0.6c0-0.4,0.1-0.2,0.2-0.4
									c-0.3-0.9-0.3,0.2-0.5,0.5c-0.3-0.1-0.7-0.5-0.4-1.6c-0.3-0.3,0,0.6-0.2,0.9l-0.1-0.2l-0.4,1.1c-0.3-0.3-0.6-0.9-0.7-1.9
									c-0.7,0.2-0.3,2.3-0.9,2.6c-0.3-0.5,0.1-0.8,0.1-1.1l-0.4,0.1c0.2-1.1,0.5-0.5,0.6-1.8c-0.4,1.3-0.5,0.4-1,1.2l0,0.1
									c-0.3,0.9-0.7,0.2-1,0.3c0.2-0.5,0.5-0.5,0.7-0.7c-0.3-0.4-1.1-0.1-1.5,1c-0.2-0.2-0.5-0.7-0.2-1.1
									c-0.6-0.2-0.4,1.5-0.9,1.1l0.1-0.8c-0.5-1.2-1.3,0.9-1.8-0.2l-0.1,0.9c-0.1-0.4-0.3-0.6-0.3-1l0.3-0.3
									c-0.2-0.8-0.4,0.7-0.6,0.1c0,0.3,0.1,0.9,0.1,1.2c0.7-0.1,1.3,0.2,1.9,0.4c0.6,0.2,1.3,0.5,1.9,0c0-0.1-0.1-0.3,0-0.5
									c0.1,0.3,0.4,0,0.3,0.6l-0.1,0.1c0.4-0.2,0.6,1.1,0.8,1.1c0.2-0.7,0.7,0.4,0.6-0.9l0.2,0.8c0.1-0.4,0.1-1.1,0.2-1.3
									c0.2,0.1,0.2,0.6,0,0.9c0.9,0.6,1.9,0.5,2.9,0.2l-0.3,0.6c0.2,0.3,0.8-1,0.6,0.5c0.5-0.6,1.2,0.5,1.3-1.1
									c0.3,1.6,1.1,0.7,1.7,0.5c-0.1-1.4,0.5-0.4,0.7-1c0.1,1.1-0.5,1.1-0.5,1.8c0.6-1.7,1.8,1.2,2-1.6c0.1,0.1,0.1,0.2,0.1,0.3
									c0.1,0,0.3,0.5,0.4,0.6c0.1-0.5-0.2-0.7,0.1-0.9c0.2,0.1,0.1,0.9,0.2,1.2c0.4-0.6,1.1-0.9,1.2-2c0.1,0.3,0.3,0.9,0.2,1.1
									c0.7-0.9,0.7,0.1,1.4-0.5c-0.2,0.1-0.1,1.2-0.4,0.7c0.4,1.5,1.1-0.4,1.7,0.4l0.2-1c0.3-0.2,0.4,0.7,0.2,1.1
									c0.6,0.5,0.9-0.1,1.3-0.2c0,0.1,0,0.3-0.1,0.3l0.6-0.1c0-0.2,0.2-0.7,0.2-1.3C254.2,287.4,254.1,287.7,253.7,287.4z"/>
								<path class="st33" d="M254.3,286.9l0-0.1l0,0C254.3,286.8,254.3,286.8,254.3,286.9z"/>
								<path class="st33" d="M248.3,283c0.1,0.2,0.1,0.4,0.2,0.4C248.4,283.3,248.4,283.2,248.3,283z"/>
								<path class="st33" d="M260.1,284.6c-0.2-1.1-0.4,0.2-0.7,0c0.2-0.2,0.1-0.8,0.1-1.1c-0.2,1.4-0.4-0.3-1,0.1
									c-0.1-0.5,0.2-0.6,0.2-1.1c-0.3,0.4-0.8,0.6-0.8,1.4c-0.6,0-1-0.3-1.3-0.1c0.4-0.4,0-0.9,0.2-1.7c-0.3,1-1.1,2.4-1.6,3.8
									c-0.2-1.1-0.2-1.2-0.2-2.1c-0.7-0.7-0.1,1-0.8,0.7l0.3,0.2c-0.3,0.3-0.2,1.4-0.3,2.1l0.7-0.2c0,0.7-0.4,0.7-0.6,0.9
									c-0.2,0.9,0.5,0.6,0.4,1.3c0.1-0.6,0.4-0.5,0.6-0.8l0.1,0.4c0.4,0.3,0.5-0.7,0.8-0.7c0,0.1,0,0.2,0,0.2
									c0.1-0.4,0.2-1,0.3-1.2l-0.1,0.1c0.2-0.9,0.8-1.6,0.3-2.5l0.8,0.2c0,0.9,0,2.4-0.5,2.6l0,0.4c0.4,0.5,0.9-0.9,0.6-1.7
									c0.1-2.2,1.2-0.2,1.6-1.2c0.1,0.5-0.2,0.8-0.3,1.2c-0.2,0.1-0.3,0.1-0.3-0.4c-0.7,0.4,0.3,1.8-0.5,1.8c-0.4-0.2,0.4-1-0.2-1
									l-0.3,1.8c0.4-0.1,0.7-0.5,0.9-0.8c0.8-0.7,1.5-0.9,1.9-1c0.5,0,0.8,0.1,0.8,0.1c2.4-0.8,4.7-1.7,7-2.7
									c0.7-0.3,1-0.5,1.2-0.7c-0.2,0-0.6,0.1-0.5,0c-0.1,0.1-0.3,0.2-0.7,0.3c-0.1-0.1,0.3-0.1,0.2-0.1l-0.1,0
									c0-0.1,0.1-0.1,0.2-0.1c-0.5-0.1-1.3-0.1-1.6,0.3c-0.4-0.2,0.2-0.3,0.4-0.4c-1.3-0.2-2.2-0.2-3.4-0.2
									c0.1,0.6-0.1,0.4-0.2,0.8l-0.1-0.2c0.1,0.1-0.1,0.6,0.2,0.7c-0.8-0.4-0.8,1-1.2,1.5l0-0.4c-0.4,0.2-0.5,0.2-0.8,0.5
									c-0.7-0.7,0.6-0.3,0.3-1.2l-0.2,0.2c0.1-0.4,0.1-1.1,0.3-1.4c-0.6,0.7-0.9-0.2-1.6,0.3c0-0.5,0.6-0.9,0.8-1
									c-0.2-0.1-0.6,0.3-0.7-0.2l0,0.6c-0.4,0.1,0-0.6-0.2-1C259.8,282.1,260.9,284.1,260.1,284.6z"/>
								<path class="st33" d="M250.2,284.9c0.1,0.1,0.2,0,0.3-0.1C250.4,284.9,250.3,284.9,250.2,284.9z"/>
								<path class="st33" d="M252.1,283.1c0-0.1,0-0.2,0-0.3C252.1,282.8,252.1,283,252.1,283.1z"/>
								<path class="st33" d="M252.2,281.8c0.1,0.4-0.1,0.4-0.1,0.9C252.2,282.5,252.5,282.5,252.2,281.8z"/>
								<path class="st33" d="M221.7,280.9c-0.1,0-0.3-0.1-0.3-0.1c0.1,0,0.2,0.1,0.4,0.1L221.7,280.9z"/>
								<path class="st33" d="M222.4,281.2c0.1,0.1,0.2,0.1,0.3,0.2c0.1,0,0.2-0.1,0.3-0.1C222.6,281.2,222.7,281.3,222.4,281.2z"/>
								<path class="st33" d="M223.3,281.7l-0.1,0C223.3,281.7,223.3,281.7,223.3,281.7z"/>
								<path class="st33" d="M223.4,281.6l0.2-0.1c-0.2,0-0.3,0-0.5,0l0.2,0.1C223.2,281.6,223.3,281.6,223.4,281.6l0.2,0
									C223.5,281.6,223.4,281.6,223.4,281.6z"/>
								<path class="st33" d="M223.8,281.7C223.8,281.6,223.7,281.6,223.8,281.7C223.7,281.6,223.7,281.6,223.8,281.7z"/>
								<path class="st33" d="M224.4,282.4c0-0.1,0.2-0.2,0.3-0.3c-0.3-0.2-0.5,0.2-0.7,0c0.5,0-0.1-0.2-0.2-0.4
									c0,0.2,0.1,0.4,0.4,0.6l0.1-0.1C224.5,282.2,224.3,282.3,224.4,282.4z"/>
								<path class="st33" d="M226.5,282.4l-0.4,0.3c0-0.2-0.4-0.3-0.3-0.6c-0.2,0-0.2,0.1-0.4,0.2c-0.1-0.2-0.1-0.3-0.3-0.2
									c0.6,0.4,0.4,0.4,0.9,0.7c0,0.1-0.1,0-0.2,0l0.3,0.3C226.2,282.7,226.7,282.8,226.5,282.4z"/>
								<path class="st33" d="M226.9,282.9c-0.3,0-0.6,0.3-0.5,0.6c0.2,0,0.5-0.1,0.7-0.1C227,283.3,226.7,283.2,226.9,282.9z"/>
								<path class="st33" d="M227.4,283c0.1,0.2,0.1,0.8,0.5,0.4C227.5,283.4,227.8,282.7,227.4,283z"/>
								<path class="st33" d="M229.5,283.9l-0.5-0.5c0-0.7,0.3-0.2,0.6-0.5c-0.5-0.2-0.4,0.1-0.9,0.4c-0.1-0.1-0.4,0.2-0.7,0.3
									C228.9,283.4,228.6,285.1,229.5,283.9z"/>
								<polygon class="st33" points="228.4,283 228.3,283.3 228.6,283.1 								"/>
								<path class="st33" d="M230.8,285.1c0.2,1.1,0.8-0.4,1.2,0.1c-0.1,0.1,0,0.1-0.1,0.2l0.4,0l0,0.2c0.1-0.6,0.5-0.8,0.7-1.3
									c-0.3-0.7-0.3,0.8-0.5,0c0.1-0.3,0.2-0.7,0.3-0.9c-0.3,0.3-0.4,0.7-0.5,1c-0.2,0-0.1-0.3-0.1-0.6c-0.3,0.3-0.5,1.2-0.8,0.9
									c-0.2-0.6,0.3-0.8-0.2-0.7c0.1,1-0.4-0.2-0.7,0.3c-0.3-0.3-0.4-0.8-0.3-1.1c-0.1,0.7-0.5,1.2-0.8,1.3
									c0.2-0.1,0.4-0.3,0.7-0.4l0,0.8C230.4,284.8,230.6,284.9,230.8,285.1L230.8,285.1z"/>
								<path class="st33" d="M232.7,283.5c0-0.1,0.1-0.1,0.1-0.2C232.8,283.3,232.8,283.3,232.7,283.5z"/>
								<polygon class="st33" points="230,283.1 230.2,283 230.1,282.8 								"/>
								<path class="st33" d="M233.1,282.8c-0.1,0-0.1,0.3-0.1,0.3l0.2-0.4L233.1,282.8z"/>
								<polygon class="st33" points="233.3,283.4 233.5,284 233.6,283.6 								"/>
								<path class="st33" d="M240.9,284.4c-0.2-0.4-0.2,0.4-0.3,1C241,285.6,240.7,284.7,240.9,284.4z"/>
								<path class="st33" d="M245.7,283.4c-0.3-0.5-0.5,0.3-0.8,0.3C245.2,284.1,245.5,283.8,245.7,283.4z"/>
								<path class="st33" d="M247.7,280.5c-0.1,0.3-0.1,0.4,0,0.5l-0.2,1.5C247.9,283,247.7,281.2,247.7,280.5z"/>
								<path class="st33" d="M250,280.4l-0.3,0.5l0.2,0c-0.1,0.6-0.1,0.9-0.2,1.3C249.8,282,250.1,281.4,250,280.4z"/>
								<path class="st33" d="M249.2,282.6c0,0,0.1-0.1,0.1-0.1C249.3,282.3,249.3,282.1,249.2,282.6z"/>
								<path class="st33" d="M249.5,282.5c0-0.1,0-0.1,0-0.2c-0.1,0.1-0.1,0.1-0.2,0.2C249.4,282.6,249.5,282.7,249.5,282.5z"/>
								<path class="st33" d="M250.3,281.1l0.6-0.1l-0.3-0.3C250.6,281.5,250.3,280.1,250.3,281.1z"/>
								<path class="st33" d="M253.7,281.9l0.1,0.8c0.4,0.2,0.8-1.5,1.2-0.3c-0.2-0.5,0.3-0.9-0.2-1.1
									C254.6,282,254,282.1,253.7,281.9z"/>
								<path class="st33" d="M255.3,283c-0.1,0.2,0.1,0.4,0.1,0.6c0.2,0.1,0.3-0.3,0.2-0.6C255.6,284.1,255.4,282.4,255.3,283z"/>
								<path class="st33" d="M257.2,282.9c-0.1,0-0.3,0.1-0.1,0.3c0.4-0.1,0.2-0.9,0.3-1.3C257.1,281.4,257,282.5,257.2,282.9z"/>
								<path class="st33" d="M260.5,287.4c-0.1-0.5-0.4-0.4-0.4-0.2C260.2,287.1,260.4,287.3,260.5,287.4z"/>
								<polygon class="st33" points="260.2,283 260,282.9 260,283.7 								"/>
								<polygon class="st33" points="262.3,282.6 262.5,282.2 262.1,282.2 								"/>
								<path class="st33" d="M262.7,282.7l0.4,0l-0.1-0.2C262.8,282.4,262.9,282.7,262.7,282.7z"/>
								<path class="st33" d="M263.8,282.7c0,0-0.1,0-0.1-0.1l-0.3,0.2L263.8,282.7z"/>
								<path class="st33" d="M269.8,283.1c-0.1,0.1,0.2-0.1,0.3-0.2C270.1,282.9,269.9,283,269.8,283.1z"/>
							</g>
						</g>
					</g>
				</g>
			</g>
		</g>
	</g>
</g>
</svg>
