<?xml version="1.0" encoding="utf-8"?>
<!-- Generator: Adobe Illustrator 26.0.3, SVG Export Plug-In . SVG Version: 6.00 Build 0)  -->
<svg version="1.1" xmlns="http://www.w3.org/2000/svg" xmlns:xlink="http://www.w3.org/1999/xlink" x="0px" y="0px"
	 viewBox="0 0 503.6 377.7" style="enable-background:new 0 0 503.6 377.7;" xml:space="preserve">
<style type="text/css">
	.st0{fill:#FFF0DD;}
	.st1{fill:#6B5C52;}
	.st2{fill:#B8BBBF;}
	.st3{fill:#F9E9CD;}
	.st4{fill:#FFE6BD;}
	.st5{fill:#F5F5F2;}
	.st6{fill:#637189;}
	.st7{fill:#9E9082;}
	.st8{fill:#938D89;}
	.st9{fill:#FFDBC0;}
	.st10{fill:#6E85BD;}
	.st11{fill:#E8D9D6;}
	.st12{fill:#A7BC79;}
	.st13{fill:#FF8080;}
	.st14{fill:#3D3533;}
	.st15{fill:#A1683D;}
	.st16{fill:#CCE0FF;}
	.st17{fill:#383531;}
	.st18{fill:#757060;}
	.st19{fill:#D29F7E;}
	.st20{opacity:0.88;clip-path:url(#SVGID_00000096061747613358982850000011732668732733609915_);}
	.st21{fill:#322015;}
	.st22{fill:#1B1C1E;}
	.st23{fill:none;stroke:#1B1C1E;stroke-width:1.2604;stroke-linecap:round;stroke-linejoin:round;stroke-miterlimit:10;}
	.st24{opacity:0.84;clip-path:url(#SVGID_00000118393267940649661800000009773242569763483271_);}
	.st25{clip-path:url(#SVGID_00000032609874544362965900000001413863992088307857_);}
	.st26{fill:none;stroke:#1B1C1E;stroke-width:1.2604;stroke-linecap:round;stroke-linejoin:round;}
	.st27{fill:#D1493B;}
	.st28{fill:#FFAE1F;}
	.st29{opacity:0.88;clip-path:url(#SVGID_00000060733595344670135750000001370595067932290196_);}
	.st30{opacity:0.7;clip-path:url(#SVGID_00000182513445053772183200000001892236864395755659_);}
	.st31{fill:#2C2C2D;}
	.st32{opacity:0.87;clip-path:url(#SVGID_00000146460388848690499970000016133645007651386535_);}
	.st33{fill:#080809;}
	.st34{opacity:0.7;clip-path:url(#SVGID_00000142158910980702457070000014666214230659222942_);}
	.st35{fill:#FBAF5E;}
	.st36{opacity:0.62;clip-path:url(#SVGID_00000152224568403305867200000003653046009843667860_);}
	.st37{fill:#3E240C;}
	.st38{fill:#BC763C;}
	.st39{opacity:0.62;clip-path:url(#SVGID_00000108309883739333591890000000785472353782314641_);}
	.st40{opacity:0.62;clip-path:url(#SVGID_00000181781305213870811670000006440867356588930200_);}
	.st41{fill:#967258;}
	.st42{opacity:0.53;clip-path:url(#SVGID_00000137129255092142246860000003993085039280829576_);}
	.st43{opacity:0.73;clip-path:url(#SVGID_00000022557731315934599190000008463350128662985357_);}
	.st44{fill:none;stroke:#1B1C1E;stroke-width:1.1311;stroke-linecap:round;stroke-linejoin:round;stroke-miterlimit:10;}
	.st45{fill:#3D291C;}
	.st46{fill:#3D291C;stroke:#967258;stroke-width:1.2604;stroke-linecap:round;stroke-linejoin:round;stroke-miterlimit:10;}
	.st47{fill:#D6D4C8;}
	.st48{fill:#1B1C1E;stroke:#967258;stroke-width:1.2604;stroke-linecap:round;stroke-linejoin:round;stroke-miterlimit:10;}
	.st49{opacity:0.52;clip-path:url(#SVGID_00000169538552694592701720000000335947697249790088_);}
	.st50{fill:#B37D4F;}
	.st51{opacity:0.88;clip-path:url(#SVGID_00000177454327748442191780000004658825645811084197_);}
	.st52{fill:#343434;}
	.st53{fill:#BC6464;}
	.st54{opacity:0.88;clip-path:url(#SVGID_00000026873003371506830540000004660521503731098260_);}
	.st55{fill:#1B1C1E;stroke:#1B1C1E;stroke-width:1.1485;stroke-linecap:round;stroke-linejoin:round;stroke-miterlimit:10;}
	.st56{fill:#8C7265;}
	.st57{opacity:0.88;clip-path:url(#SVGID_00000181048858226525285440000007745861783447818935_);}
	.st58{fill:#1B1C1E;stroke:#1B1C1E;stroke-width:1.3664;stroke-linecap:round;stroke-linejoin:round;stroke-miterlimit:10;}
	.st59{opacity:0.88;clip-path:url(#SVGID_00000176744377226881348460000013544969463324843687_);}
	.st60{fill:none;stroke:#1B1C1E;stroke-width:1.3664;stroke-linecap:round;stroke-linejoin:round;stroke-miterlimit:10;}
	.st61{opacity:0.88;clip-path:url(#SVGID_00000112603176850774787300000011019910988767169414_);}
	.st62{opacity:0.88;clip-path:url(#SVGID_00000072980329850252630690000012316608130827321276_);}
	.st63{fill:#5F6C72;}
	.st64{fill:#1B1C1E;stroke:#1B1C1E;stroke-width:1.5329;stroke-linecap:round;stroke-linejoin:round;stroke-miterlimit:10;}
	.st65{opacity:0.88;clip-path:url(#SVGID_00000069388634775958059590000012301613547923624371_);}
	.st66{clip-path:url(#SVGID_00000039831467658262198840000016261213296197140364_);}
	.st67{opacity:0.58;clip-path:url(#SVGID_00000117673577735238721420000008754158080410778000_);}
	.st68{opacity:0.58;clip-path:url(#SVGID_00000137108342675134374200000001456226857056497292_);}
	.st69{fill:#1B1C1E;stroke:#1B1C1E;stroke-width:1.818;stroke-linecap:round;stroke-linejoin:round;stroke-miterlimit:10;}
	.st70{fill:#FFFFFF;}
	.st71{fill:#CC813E;}
	.st72{opacity:0.58;clip-path:url(#SVGID_00000146495793569683053770000004353718436751585441_);}
	.st73{fill:#AA8C7D;}
	.st74{opacity:0.88;clip-path:url(#SVGID_00000147915456977730132040000011536804934847346605_);}
	.st75{opacity:0.88;clip-path:url(#SVGID_00000000224438133625409350000010930601809720922787_);}
	.st76{fill:#1B1C1E;stroke:#1B1C1E;stroke-width:1.2604;stroke-linecap:round;stroke-linejoin:round;stroke-miterlimit:10;}
	.st77{opacity:0.88;clip-path:url(#SVGID_00000083073481877853783850000004498780615478173061_);}
	.st78{opacity:0.88;clip-path:url(#SVGID_00000120531453896753899970000013214985570030882495_);}
	.st79{opacity:0.88;clip-path:url(#SVGID_00000054239090217815279640000014315348288345587091_);}
	.st80{fill:none;stroke:#1B1C1E;stroke-miterlimit:10;}
	.st81{fill:#B8BDC4;}
	.st82{fill:#B4D3CD;}
	.st83{opacity:0.88;clip-path:url(#SVGID_00000093179399031903918650000015798227948951517569_);}
	.st84{opacity:0.88;clip-path:url(#SVGID_00000078040861251129046460000011139913638700666802_);}
	.st85{fill:#EFBE9D;}
	.st86{opacity:0.88;clip-path:url(#SVGID_00000131346302777088162060000003756993598537172354_);}
	.st87{fill:#443730;}
	.st88{opacity:0.88;clip-path:url(#SVGID_00000075851188830412430450000006143591616619469204_);}
	.st89{opacity:0.88;clip-path:url(#SVGID_00000178896309346762209880000000914156745796780421_);}
	.st90{fill:#E2AF8D;}
	.st91{fill:none;stroke:#1B1C1E;stroke-linecap:round;stroke-linejoin:round;stroke-miterlimit:10;}
	.st92{fill:#1B1C1E;stroke:#1B1C1E;stroke-miterlimit:10;}
	.st93{fill:#FCEA9F;}
	.st94{fill:#F6EBEF;}
	.st95{fill:#D4DADD;}
	.st96{opacity:0.61;clip-path:url(#SVGID_00000044887026152909565590000007785507099455000469_);}
	.st97{fill:#353737;}
	.st98{fill:#B3B9BC;}
	.st99{opacity:0.61;clip-path:url(#SVGID_00000156560233496062681340000010648453452549803911_);}
	.st100{opacity:0.61;clip-path:url(#SVGID_00000043416833337417733080000003663808963372174777_);}
	.st101{fill:#B3B9BC;stroke:#1B1C1E;stroke-miterlimit:10;}
	.st102{fill:#CCE2CF;stroke:#1B1C1E;stroke-miterlimit:10;}
	.st103{fill:#EAD6DE;}
	.st104{fill:#1B1C1E;stroke:#1B1C1E;stroke-width:1.0185;stroke-miterlimit:10;}
	.st105{fill:none;stroke:#1B1C1E;stroke-width:1.0185;stroke-miterlimit:10;}
	.st106{fill:#FBAF5E;stroke:#1B1C1E;stroke-miterlimit:10;}
	.st107{fill:#513F3B;}
	.st108{opacity:0.88;clip-path:url(#SVGID_00000101818578401392392560000011035213800374381498_);}
	.st109{opacity:0.88;clip-path:url(#SVGID_00000040545108577325504110000011171908542350695599_);}
	.st110{fill:#8B2403;}
	.st111{fill:#EBDAD2;}
	.st112{fill:#A84E39;}
	.st113{fill:#751A01;}
	.st114{fill:#EBDAD2;stroke:#1B1C1E;stroke-miterlimit:10;}
	.st115{opacity:0.78;clip-path:url(#SVGID_00000126298163570688824300000014403957261822606468_);}
	.st116{fill:#290B01;}
	.st117{opacity:0.78;clip-path:url(#SVGID_00000049909522878298070620000008901964049750803080_);}
	.st118{opacity:0.78;clip-path:url(#SVGID_00000074430859071075790330000014962881807684813196_);}
	.st119{opacity:0.78;clip-path:url(#SVGID_00000041274144158086994030000012349809257094661822_);}
	.st120{fill:#030203;}
	.st121{fill:#86889A;}
	.st122{fill:#0B060A;}
	.st123{fill:#736E72;}
	.st124{fill:#9E9AA0;}
	.st125{fill:#18172A;}
	.st126{fill:#3B4D84;}
	.st127{fill:#FFA3AC;}
	.st128{fill:none;stroke:#0B080B;stroke-width:1.2005;stroke-miterlimit:10;}
	.st129{fill:#E7E6E8;}
	.st130{fill:#0B080B;}
	.st131{fill:none;stroke:#1B1C1E;stroke-width:1.2005;stroke-linecap:round;stroke-linejoin:round;stroke-miterlimit:10;}
	.st132{opacity:0.78;clip-path:url(#SVGID_00000106828416219813320390000013151627972592671162_);}
	.st133{opacity:0.78;clip-path:url(#SVGID_00000050635415261012561380000006431937080341705635_);}
	.st134{fill:#89745E;}
	.st135{opacity:0.78;clip-path:url(#SVGID_00000069386023630376882170000003365631740040475797_);}
	.st136{fill:#060606;}
	.st137{fill:#4D483E;}
	.st138{fill:#FF8A00;}
	.st139{fill:#50483F;}
	.st140{fill:#131313;}
	.st141{fill:#E8DBCD;}
	.st142{opacity:0.78;clip-path:url(#SVGID_00000163054386669314006710000017745061228775198113_);}
	.st143{opacity:0.78;clip-path:url(#SVGID_00000110461604914928450850000001935541838329610665_);}
	.st144{fill:#191212;}
	.st145{fill:#6C5353;}
	.st146{opacity:0.78;clip-path:url(#SVGID_00000000180702372679022230000008891520029961570434_);}
	.st147{fill:#B3B3B3;}
	.st148{fill:#FF9F2C;}
	.st149{fill:none;stroke:#343434;stroke-miterlimit:10;}
	.st150{fill:#21262A;}
	.st151{fill:#563D3D;}
	.st152{opacity:0.78;clip-path:url(#SVGID_00000088105212119931703390000005740847940615747211_);}
	.st153{fill:#181716;}
	.st154{fill:#706153;}
	.st155{fill:none;stroke:#1B1C1E;stroke-width:0.8477;stroke-miterlimit:10;}
	.st156{fill:#FCBD30;}
	.st157{fill:#E8D9CD;}
	.st158{fill:#534E4A;}
	.st159{opacity:0.78;clip-path:url(#SVGID_00000054968433367513537730000004744772417779302326_);}
	.st160{fill:#7DA050;}
	.st161{opacity:0.78;clip-path:url(#SVGID_00000026133918360359912890000013740364418954819004_);}
	.st162{opacity:0.78;clip-path:url(#SVGID_00000129206125212625476230000001914413503251412355_);}
	.st163{opacity:0.78;clip-path:url(#SVGID_00000167381766414591712700000006971406265622453131_);}
	.st164{fill:#EFEECE;}
	.st165{opacity:0.78;clip-path:url(#SVGID_00000153668294088783347020000011913752806461838732_);}
	.st166{fill:#93543B;}
	.st167{fill:#FF510C;}
	.st168{opacity:0.78;clip-path:url(#SVGID_00000176012090821132763120000005544431925723298447_);}
	.st169{fill:#4B1804;}
	.st170{fill:#000A0E;}
	.st171{opacity:0.78;clip-path:url(#SVGID_00000162315889807787784950000016764354903696657598_);}
	.st172{opacity:0.78;clip-path:url(#SVGID_00000098911171321084369100000017466435789390501567_);}
	.st173{fill:#F9C8A7;}
	.st174{fill:#1B1C1E;stroke:#1B1C1E;stroke-width:1.3738;stroke-miterlimit:10;}
	.st175{fill:none;stroke:#1B1C1E;stroke-width:1.3;stroke-miterlimit:10;}
	.st176{fill:#FFCB6E;}
	.st177{fill:#CECECE;}
	.st178{fill:none;stroke:#1B1C1E;stroke-width:1.3037;stroke-miterlimit:10;}
	.st179{fill:#FFFFFF;stroke:#1B1C1E;stroke-width:1.3;stroke-miterlimit:10;}
	.st180{opacity:0.78;clip-path:url(#SVGID_00000014614605116074019630000009732947009080571583_);}
	.st181{fill:none;stroke:#1B1C1E;stroke-width:1.3738;stroke-miterlimit:10;}
	.st182{opacity:0.45;clip-path:url(#SVGID_00000000914025851751261850000005985840230398256282_);}
	.st183{opacity:0.45;clip-path:url(#SVGID_00000008869894287468982970000007857824518699858564_);}
	.st184{opacity:0.45;clip-path:url(#SVGID_00000111148950489671024630000009264177260408539561_);}
	.st185{opacity:0.45;clip-path:url(#SVGID_00000053522179970248664790000011077540362875613332_);}
	.st186{fill:none;stroke:#1B1C1E;stroke-width:1.3738;stroke-linecap:round;stroke-linejoin:round;stroke-miterlimit:10;}
	.st187{fill:#FFB192;}
	.st188{fill:#EB8226;}
	.st189{fill:#F7EDE1;}
	.st190{opacity:0.78;clip-path:url(#SVGID_00000093151714633696559890000007315329731785727667_);}
	.st191{opacity:0.78;clip-path:url(#SVGID_00000158727490356843658810000012147449498313212045_);}
	.st192{opacity:0.5;clip-path:url(#SVGID_00000059286350840427328610000001596165125833298621_);}
	.st193{opacity:0.5;clip-path:url(#SVGID_00000080890326670266335700000012103736637432587192_);}
	.st194{fill:none;stroke:#06002C;stroke-width:1.3038;stroke-miterlimit:10;}
	.st195{fill:#F7A9B4;}
	.st196{fill:#06002C;}
	.st197{opacity:0.5;clip-path:url(#SVGID_00000053511575267637977440000005867740232250384547_);}
	.st198{fill:none;stroke:#06002C;stroke-width:1.3038;stroke-linecap:round;stroke-linejoin:round;stroke-miterlimit:10;}
	.st199{fill:#9BBEDC;}
	.st200{opacity:0.88;clip-path:url(#SVGID_00000093155043049929475220000003511122286903242429_);}
	.st201{opacity:0.88;clip-path:url(#SVGID_00000059998310210643138110000004671842617662788018_);}
</style>
<g id="Background">
	<rect x="-3.2" y="-2.4" class="st2" width="510" height="382.5"/>
</g>
<g id="Illustration">
	<g>
		<path class="st22" d="M393.1,298.8c2.4-1.3-238.4-3.6-252.4,0c-10.1,2.6,26.5,5.2,69.6,5.1c45.8,0,99-2.8,113.9-1.3
			C353.3,305.4,385,303.2,393.1,298.8z"/>
		<g>
			<path class="st0" d="M228.4,207c0,0-2,73.3-2,75.8s-4.7,17.5-4.7,17.5h-11.1c0,0,6.8-50.2,3.9-60.1c-2.9-10-4.5-35.8-0.2-36.4
				C218.6,203.3,225.5,197.6,228.4,207z"/>
			<g>
				<defs>
					<path id="SVGID_00000087373946211933120080000001251104419452926900_" d="M228.4,207c0,0-2,73.3-2,75.8s-4.7,17.5-4.7,17.5
						h-11.1c0,0,6.8-50.2,3.9-60.1c-2.9-10-4.5-35.8-0.2-36.4C218.6,203.3,225.5,197.6,228.4,207z"/>
				</defs>
				<clipPath id="SVGID_00000075158143358674424670000010852505568926485653_">
					<use xlink:href="#SVGID_00000087373946211933120080000001251104419452926900_"  style="overflow:visible;"/>
				</clipPath>
				<g style="opacity:0.88;clip-path:url(#SVGID_00000075158143358674424670000010852505568926485653_);">
					<g>
						<g>
							<g>
								<path class="st21" d="M218.4,219c0.1,0.1,0.2,0.2,0.3,0.3C218.7,219.3,218.7,219.2,218.4,219z"/>
								<path class="st21" d="M228.6,212.4C228.6,212.3,228.6,212.3,228.6,212.4l0-0.1L228.6,212.4z"/>
								<path class="st21" d="M228.6,212.2l0-0.5C228.4,211.9,228.5,212.1,228.6,212.2z"/>
								<path class="st21" d="M220.9,221.4c0.1,0.1,0.2,0.3,0.4,0.5L220.9,221.4z"/>
								<path class="st21" d="M223.2,221.5c0.1,0,0.2,0.1,0.2,0.1C223.3,221.5,223.2,221.5,223.2,221.5z"/>
								<path class="st21" d="M214.5,229.3c-0.1,0-0.1,0-0.2-0.1C214.3,229.2,214.4,229.3,214.5,229.3z"/>
								<path class="st21" d="M215.2,230.1c0,0.1,0,0.1,0,0.2l0.1,0C215.5,230.3,215.3,230.2,215.2,230.1z"/>
								<path class="st21" d="M215.9,229.8l0,0.2C216,229.9,215.9,229.9,215.9,229.8z"/>
								<path class="st21" d="M221.7,234.6l0.5,0C222,234.6,221.9,234.6,221.7,234.6z"/>
								<path class="st21" d="M213.9,229c0.1,0.1,0.3,0.1,0.4,0.2C214.2,229.1,214.1,229,213.9,229z"/>
								<path class="st21" d="M218.3,218.9c0.1,0.1,0.1,0.1,0.2,0.1C218.4,218.9,218.3,218.9,218.3,218.9z"/>
								<path class="st21" d="M220.6,222L220.6,222C220.6,221.9,220.5,221.9,220.6,222z"/>
								<path class="st21" d="M232.8,211.3c0.1-0.1,0.2-0.1,0.3-0.2C232.8,211,232.7,211.1,232.8,211.3z"/>
								<path class="st21" d="M215.9,226.4c1.5,0.1,0,0.4,1.4,0.6c-0.3-0.2-0.5-0.4,0.3-0.4c0.8,0.3-0.1,0.4,1.1,0.7l-0.4-0.4
									c0.6-0.1,1.6,0.3,1.5,0.1c-1.6-0.5,0.7-0.7,0.6-1l0.1,0.1l0.9-0.2c0,0,0.1,0,0.1,0c-0.1,0-0.2,0-0.3-0.1
									c0.9,0,1.5-0.1,1.4-0.5c-0.5-0.2-0.5-0.4-0.5-0.7c0-0.2,0.1-0.5-0.3-0.7c0.2,0.2,0.2,0.3-0.1,0.4l-1.1-0.3
									c0.1-0.3,1,0.3,0.5-0.2c-1.5-0.4-0.2,0.4-0.4,0.6c-0.3-0.2-0.6-0.4-0.7-0.5c-0.2,0.4-0.8,0.8,0.7,1.4c-0.4,0-1-0.2-1.1-0.3
									c0.8,0.5-0.9,0-0.2,0.5c-1.4-0.4-0.6-0.9-1.3-1.4c1.2-0.2,0.3-1,0.3-1.6c1,0.3,1.8,0.9,2.4,0.9c0.8-0.2-0.4-0.6-0.9-1.1
									c0.5-0.2,1.7,0.6,1.9,0.2l0.5,0.5c1.5,0.3-0.5-0.5-0.1-0.5c-0.4-0.1-0.8-0.2-0.8,0c-0.5-0.2-0.7-0.4-0.7-0.6l-0.1,0
									c-0.6-0.4-1.4-0.7-0.9-0.9c0.7,0.6,0.7,0,1.1,0.1l0.1,0.2c-0.2-0.3,0.1-0.5,0-0.7l0.2,0.1c-0.2-0.3-1.2-0.9-0.8-1.1
									c0.4,0.3,1.3,1.1,1.3,0.8c0.6,0.4,0.4,0.6,0.1,0.8c0.3-0.1,1.3,0.3,1.3,0.6c0.8,0.3-0.2-0.4,0.2-0.3
									c-0.2-0.1-0.5-0.3-0.7-0.4c1,0.6,0.4-0.4-0.3-0.9l0.4,0.6c-0.8-0.4-1.1-1.1-1.6-1.3c1.3,0.7-0.1-1.2,1-0.6l-0.7-0.3
									c0.8-0.3-0.2-1.8,0.2-2.7c0.1,0.5,1.3,1.6,0.6,1.6c0.7-0.3,1.3,0.9,2,1.3c0.7,0.1-0.9-1.2-1.2-1.7l0,0.5
									c-0.5-0.8-0.2-1,0.2-1.1c0.4-0.1,0.9-0.1,0.8-0.8c0.3,0.4,0.1,0.3,0.1,0.5c0.8,0.6,0.1-0.3,0.1-0.8c0.4-0.1,0.9,0.1,1.4,1.1
									c0.4,0.1-0.4-0.6-0.5-1l0.2,0.2c-0.1-0.4-0.3-0.9-0.4-1.3c0.5,0.2,1.1,0.5,1.8,1.4c0.5-0.5-1-2.5-0.6-3.1
									c0.5,0.4,0.3,0.8,0.5,1.3l0.4-0.3c0.4,1.3-0.2,0.8,0.4,2.2c-0.3-1.6,0.3-0.6,0.4-1.7l-0.1-0.1c-0.1-1,0.6-0.6,0.9-0.9
									c0.1,0.6-0.2,0.8-0.4,1.1c0.5,0.3,1.1-0.3,1.1-1.7c0.3,0.1,0.8,0.6,0.7,1.2c0.7,0.1-0.1-1.9,0.6-1.7l0.2,1
									c0.9,1.3,1.1-1.5,1.9-0.3l-0.1-1.2c0.2,0.5,0.5,0.7,0.6,1.2l-0.3,0.5c0.4,1,0.2-1,0.6-0.3c0-0.4-0.4-1.2-0.4-1.6
									c-0.6,0.4-1.4,0.3-2.1,0.2c-0.7-0.1-1.5,0-2,0.8c0.1,0.1,0.2,0.3,0.2,0.5c-0.2-0.2-0.4,0.1-0.6-0.5l0-0.1
									c-0.3,0.4-1.1-1-1.3-0.9c0.1,0.9-0.9,0-0.2,1.3l-0.6-0.8c0.1,0.5,0.4,1.2,0.4,1.5c-0.3,0-0.5-0.5-0.5-1
									c-1.2-0.1-2.4,0.7-3,1.8l-0.2-0.7c-0.4-0.1-0.1,1.6-1,0.1c0,0.5-0.4,0.6-0.7,0.8c-0.2,0.2-0.3,0.5,0.3,1.2
									c-0.7-0.5-1.1-0.4-1.4-0.1c-0.3,0.3-0.3,0.9-0.4,1.3c1.3,0.9,0,0.8,0.4,1.3c-1.1-0.6-0.6-1.2-1.2-1.7
									c0.5,0.9-0.1,1.1-0.5,1.5c-0.4,0.3-0.7,0.7,0.6,1.6c-0.2,0-0.3,0-0.4-0.1c-0.1,0.1-0.6,0.1-0.8,0.1c0.4,0.3,0.8,0.1,0.8,0.5
									c-0.2,0.2-0.9-0.3-1.3-0.4c0.4,0.8,0.3,1.7,1.5,2.2c-0.4,0-1.1-0.1-1.2-0.3c0.7,1.1-0.4,0.7-0.1,1.7c0-0.3-1.2-0.5-0.6-0.8
									c-0.9-0.1-0.9,0.2-0.9,0.6c0.1,0.4,0.3,0.9-0.2,1.1l1,0.5c0.1,0.4-1,0.2-1.3-0.1c-0.8,0.5-0.2,1.1-0.3,1.6
									c-0.1,0-0.4,0-0.3-0.1l-0.1,0.7c0.3,0.1,0.8,0.5,1.5,0.5C215.7,227,215.4,226.8,215.9,226.4z"/>
								<path class="st21" d="M216.4,227.1l0.1,0l0,0C216.4,227.1,216.4,227.1,216.4,227.1z"/>
								<path class="st21" d="M222.5,222.6c-0.3-0.1-0.4-0.1-0.5-0.1C222.2,222.6,222.4,222.6,222.5,222.6z"/>
								<path class="st21" d="M218.1,233.7c1.7-0.1-0.3-0.4,0.2-0.7c0.3,0.3,1.3,0.2,1.8,0.1c-2.2-0.3,0.4-0.4,0-1
									c0.7,0,0.8,0.3,1.6,0.3c-0.6-0.3-0.9-0.8-2.1-0.9c0-0.6,0.4-1,0.3-1.3c0.5,0.4,1.2,0.1,2.3,0.5c-1.4-0.4-3.1-1.4-4.8-2.3
									c1.4,0,1.5,0,2.7,0.2c1-0.6-1.2-0.3-0.7-0.9l-0.3,0.3c-0.4-0.4-1.6-0.5-2.5-0.8l0.1,0.9c-0.9-0.1-0.7-0.6-0.9-0.8
									c-1.1-0.4-0.9,0.4-1.7,0.2c0.7,0.2,0.4,0.5,0.7,0.8l-0.5,0c-0.5,0.4,0.7,0.7,0.6,1.1c-0.1,0-0.2,0-0.3,0
									c0.6,0.2,1.2,0.3,1.4,0.6l0-0.2c1.2,0.4,1.9,1.1,3.2,0.7c-0.1,0.3-0.3,0.5-0.4,0.8c-1.3-0.1-3.3-0.3-3.4-0.8l-0.5-0.1
									c-0.8,0.4,1,1.1,2.1,0.9c3.1,0.4,0.1,1.3,1.4,1.8c-0.9,0.1-1.2-0.3-1.8-0.4c-0.1-0.2-0.1-0.3,0.6-0.3
									c-0.5-0.8-2.7,0.2-2.4-0.7c0.4-0.4,1.4,0.6,1.5-0.1l-2.4-0.5c0.1,0.4,0.5,0.8,0.7,1.1c0.8,0.9,0.8,1.7,0.7,2.2
									c-0.1,0.5-0.4,0.9-0.4,0.9l0.3,2c0.1,0.6,0.3,1.3,0.4,1.9l0.4,1.9l0.5,1.9c0.5,0.7,0.4,1,2.8,0.9c0.4-0.2,0.2-0.7,1-0.7
									c-0.9,0.1-1.4-0.1-1.4-0.6c0.8-0.2,0.5,0.3,0.7,0.2l0-0.1c0.4,0,0.7,0,0.8,0.1c1.2-0.7,0.8-1.4-0.9-1.5
									c0.8-0.5,1.4,0,2.1,0.1c0.4-1.4,0.2-2.2,0.1-3.5c-1.5,0.1-1,0-2-0.1l0.5-0.2c-0.3,0.1-1.3,0-1.6,0.3
									c1.1-0.9-2.1-0.7-2.8-1.2l0.8,0c-0.2-0.4-0.2-0.6-0.6-0.9c1.4-0.8,0.3,0.6,2.2,0.3l-0.3-0.2c0.7,0.1,2.1,0.1,2.6,0.3
									c-1.3-0.6,0.4-1-0.6-1.6c0.9,0,1.6,0.6,1.7,0.8c0.1-0.2-0.6-0.6,0.2-0.7l-1.1,0c-0.2-0.4,1,0,1.7-0.2
									C222.1,233.5,218.8,234.5,218.1,233.7z"/>
								<path class="st21" d="M219.8,223.5c-0.1,0.1-0.1,0.2,0,0.3C219.8,223.8,219.9,223.7,219.8,223.5z"/>
								<path class="st21" d="M221.4,225.9c0.1,0,0.3,0.1,0.4,0.1C221.6,226,221.5,225.9,221.4,225.9z"/>
								<path class="st21" d="M222.8,226.4c-0.5-0.1-0.5-0.2-1.1-0.4C222,226.2,222,226.5,222.8,226.4z"/>
								<path class="st21" d="M247.8,214c-0.1-0.3,0-1-0.4-1c-0.1,0.3-0.1,0.6-0.3,1C247.3,214,247.5,214,247.8,214z"/>
								<path class="st21" d="M245.7,214.3c-0.3,0-0.5,0-0.7-0.1c0.1,0.5,0.2,1,0.2,1.5c0.3-0.1,0.3-0.4,0.3-0.7
									C245.4,214.7,245.4,214.5,245.7,214.3z"/>
								<path class="st21" d="M244,214.1l0-0.4C243.9,213.9,243.9,214,244,214.1z"/>
								<path class="st21" d="M244.1,214.7c0,0.4,0.1,0.7,0.1,1.1c0.2-0.3,0.3-0.6,0.5-1c-0.1,0-0.2-0.1-0.3-0.1
									c-0.1-0.4-0.3-0.5-0.4-0.6c0,0.3,0,0.5,0,0.8C244,214.8,244,214.6,244.1,214.7z"/>
								<path class="st21" d="M243.6,214.9c0,0.1,0.1,0.2,0.1,0.3C243.7,215.1,243.6,215,243.6,214.9z"/>
								<path class="st21" d="M242.2,213.1c0.1,0.4,0,1,0,1.4c0.5,0.4,0.3-1.2,0.7-0.8c-0.4,0.9,0.3,0.6,0.6,1.2
									c-0.3-0.9-0.6-1.6-1.1-1.8l0,0.7C242.4,213.8,242.4,213.3,242.2,213.1z"/>
								<path class="st21" d="M240.3,214.8l0.3-1c0.1,0.5,0.6,0.5,0.6,1.5c0.2-0.2,0.2-0.6,0.3-0.9c0.2,0.5,0.3,0.9,0.4,0.2
									c-0.8-0.6-0.6-0.9-1.2-1.2c0-0.2,0.1-0.2,0.2-0.2l-0.4-0.5C240.4,214,239.9,214.1,240.3,214.8z"/>
								<path class="st21" d="M239.7,214.1c0.3-0.1,0.5-1,0.3-1.7l-0.7,0.8C239.5,213.2,239.8,213.1,239.7,214.1z"/>
								<path class="st21" d="M239.2,214.1c-0.1-0.5-0.4-1.7-0.6-0.6C239,213.3,238.8,214.8,239.2,214.1z"/>
								<path class="st21" d="M236.8,213.1l0.7,0.7c0.1,1.3-0.3,0.4-0.5,1c0.5,0.3,0.4-0.2,0.8-1c0.2,0.1,0.4-0.6,0.6-1
									C237.5,213.9,237.4,210.7,236.8,213.1z"/>
								<polygon class="st21" points="238.1,214.5 238.2,213.9 237.9,214.3 								"/>
								<path class="st21" d="M235.2,211.7c-0.5-1.6-0.7,0.9-1.2,0.3c0-0.1,0-0.2,0.1-0.4l-0.4,0.2l0-0.4c0.1,0.9-0.3,1.3-0.4,2.1
									c0.5,1,0.1-1.2,0.5-0.1c0,0.4,0,1.1-0.1,1.4c0.2-0.5,0.2-1.1,0.3-1.6c0.2-0.1,0.2,0.4,0.3,0.8c0.2-0.6,0.2-1.9,0.6-1.6
									c0.3,0.8-0.1,1.3,0.4,0.9c-0.3-1.5,0.5,0.2,0.6-0.7c0.4,0.3,0.6,1.2,0.6,1.7c0-1.2,0.2-2.2,0.5-2.5l-0.6,1l-0.2-1.4
									C235.7,212.1,235.5,212,235.2,211.7L235.2,211.7z"/>
								<path class="st21" d="M233.7,214.8c0,0.1-0.1,0.2-0.1,0.3C233.6,215.1,233.7,215,233.7,214.8z"/>
								<polygon class="st21" points="236.4,214.7 236.3,215 236.4,215.4 								"/>
								<path class="st21" d="M233.5,215.8c0.1,0,0.1-0.4,0-0.4l0,0.6L233.5,215.8z"/>
								<polygon class="st21" points="233.1,215 232.8,214.2 232.8,214.9 								"/>
								<path class="st21" d="M225.7,216.5c0.5,0.3-0.1-0.5-0.4-1.1C224.9,215.4,225.8,216.1,225.7,216.5z"/>
								<path class="st21" d="M223.3,220.4c0.6,0.1,0-0.5,0.2-0.7C223,219.6,223,220,223.3,220.4z"/>
								<path class="st21" d="M225.3,223.4c-0.2-0.2-0.4-0.3-0.5-0.3c-0.5-0.3-0.9-0.6-1.4-0.9C222.7,222.3,224.6,223.1,225.3,223.4
									z"/>
								<path class="st21" d="M224.9,225l-0.5-0.5l-0.1,0.1c-0.6-0.3-0.9-0.4-1.4-0.7C223.1,224.3,223.7,224.7,224.9,225z"/>
								<path class="st21" d="M222.7,223.6c0,0,0,0.1,0.1,0.1C222.9,223.8,223.2,223.8,222.7,223.6z"/>
								<path class="st21" d="M222.7,223.9c0.1,0,0.1,0.1,0.2,0.1c-0.1-0.1-0.1-0.2-0.1-0.2C222.6,223.7,222.5,223.7,222.7,223.9z"
									/>
								<path class="st21" d="M224,225c0,0.2,0,0.4,0,0.6l0.4-0.1C223.4,225.1,225,225.4,224,225z"/>
								<path class="st21" d="M222.5,227.7l-1-0.1c-0.3,0.4,1.8,1.1,0.2,1.1c0.6-0.1,1.1,0.4,1.4,0
									C222.3,228.5,222.3,228,222.5,227.7z"/>
								<path class="st21" d="M220.9,229c-0.3-0.1-0.5,0-0.8,0c-0.1,0.1,0.3,0.3,0.7,0.3C219.6,229.1,221.7,229.2,220.9,229z"/>
								<path class="st21" d="M220.9,230.9c0-0.1-0.1-0.3-0.4-0.1c0,0.4,1.2,0.3,1.9,0.5C223,231,221.4,230.7,220.9,230.9z"/>
								<path class="st21" d="M213.5,234c0.9-0.1,0.7-0.4,0.4-0.5C214.1,233.6,213.9,233.8,213.5,234z"/>
								<polygon class="st21" points="220.7,233.8 220.9,233.7 219.5,233.6 								"/>
								<polygon class="st21" points="221.5,235.9 222.4,236.1 222.2,235.7 								"/>
								<path class="st21" d="M221.3,236.3l0.1,0.4l0.3-0.2C222,236.3,221.3,236.5,221.3,236.3z"/>
								<path class="st21" d="M221.6,237.4c-0.1,0,0-0.1,0.2-0.1l-0.6-0.3L221.6,237.4z"/>
								<path class="st21" d="M217.1,244.1c-0.9,0.1-0.3,0.3-0.4,0.5C216.9,244.6,218,244.2,217.1,244.1z"/>
							</g>
						</g>
					</g>
				</g>
			</g>
			<path class="st0" d="M277.5,205.3c0,0,16.8,17.8,56.5,40.7l23.7,42.1c0,0-6.8,3.8-7.9,12.2h15.6c0,0,0.3-24.2-2.1-28.9
				c-2.3-4.7-22.5-36.8-22.5-36.8s-40.3-31.6-42-33.5S271.7,196.8,277.5,205.3z"/>
			<g>
				<defs>
					<path id="SVGID_00000111166372311868292530000000320295844638330802_" d="M277.5,205.3c0,0,16.8,17.8,56.5,40.7l23.7,42.1
						c0,0-6.8,3.8-7.9,12.2h15.6c0,0,0.3-24.2-2.1-28.9c-2.3-4.7-22.5-36.8-22.5-36.8s-40.3-31.6-42-33.5S271.7,196.8,277.5,205.3z"
						/>
				</defs>
				<clipPath id="SVGID_00000088846471829037079470000014796924595803726220_">
					<use xlink:href="#SVGID_00000111166372311868292530000000320295844638330802_"  style="overflow:visible;"/>
				</clipPath>
				<g style="opacity:0.88;clip-path:url(#SVGID_00000088846471829037079470000014796924595803726220_);">
					<g>
						<g>
							<g>
								<path class="st21" d="M297.4,206.5c0,0.1,0,0.2,0,0.3C297.3,206.8,297.3,206.7,297.4,206.5z"/>
								<path class="st21" d="M286.5,204.1C286.5,204.1,286.5,204.1,286.5,204.1l0-0.1L286.5,204.1z"/>
								<path class="st21" d="M286.5,204l-0.1-0.4C286.6,203.8,286.6,203.9,286.5,204z"/>
								<path class="st21" d="M297,209.2c0,0.1,0,0.3,0,0.5L297,209.2z"/>
								<path class="st21" d="M295.3,210.1c0,0.1-0.1,0.1-0.1,0.1C295.3,210.1,295.3,210.1,295.3,210.1z"/>
								<path class="st21" d="M306,212c0,0,0-0.1,0.1-0.1C306.1,211.9,306,212,306,212z"/>
								<path class="st21" d="M306.1,213c0.1,0,0.1,0.1,0.1,0.1l-0.1,0.1C306,213.3,306.1,213.1,306.1,213z"/>
								<path class="st21" d="M305.5,213.1l0.1,0.1C305.5,213.2,305.5,213.2,305.5,213.1z"/>
								<path class="st21" d="M305.4,219.7l-0.3,0.3C305.2,219.8,305.3,219.7,305.4,219.7z"/>
								<path class="st21" d="M306.2,211.6c0,0.1-0.1,0.2-0.1,0.3C306.1,211.8,306,211.7,306.2,211.6z"/>
								<path class="st21" d="M297.4,206.4c0,0.1,0,0.1-0.1,0.2C297.4,206.5,297.4,206.4,297.4,206.4z"/>
								<path class="st21" d="M297.6,209.5L297.6,209.5C297.5,209.4,297.6,209.4,297.6,209.5z"/>
								<path class="st21" d="M282.4,203.8c-0.1,0-0.2-0.1-0.3-0.1C282.3,203.6,282.4,203.7,282.4,203.8z"/>
								<path class="st21" d="M303.4,210.7c-0.8,0.8,0.3,0.3-0.5,1.1c0-0.3,0-0.6-0.4-0.2c-0.3,0.6,0.3,0.2-0.2,1l0-0.5
									c-0.5,0.2-0.8,0.9-0.8,0.8c0.7-1.1-1-0.2-1-0.5l0,0.2l-0.7,0.2c0,0,0,0,0,0.1c0-0.1,0.1-0.1,0.1-0.2c-0.5,0.4-1,0.6-1.2,0.2
									c0.4-0.7-0.7-0.8-0.4-1.4c0,0.2,0.1,0.3,0.3,0.3l0.5-0.7c-0.3-0.2-0.5,0.6-0.4,0c0.8-0.9,0.4,0.3,0.6,0.3
									c0.1-0.3,0.2-0.5,0.1-0.7c0.4,0.2,1,0.2,0.5,1.3c0.3-0.1,0.5-0.5,0.5-0.7c-0.2,0.8,0.6-0.4,0.4,0.3c0.6-0.9-0.2-0.9,0-1.6
									c-0.9,0.4-0.8-0.6-1.2-1c-0.5,0.7-0.6,1.4-1.1,1.7c-0.7,0.2-0.1-0.6-0.1-1.2c-0.4,0.1-0.8,1.1-1.2,0.9l0,0.6
									c-0.9,0.8,0-0.5-0.3-0.5c0.2-0.2,0.4-0.5,0.6-0.3c0.3-0.3,0.2-0.6,0.1-0.7l0.1,0c0.2-0.5,0.5-1.1,0.1-1
									c-0.2,0.7-0.5,0.3-0.7,0.5l0,0.2c-0.1-0.3-0.4-0.4-0.4-0.5l-0.1,0.2c0-0.3,0.3-1.1,0-1.1c-0.1,0.3-0.3,1.3-0.5,1
									c-0.2,0.5,0,0.7,0.4,0.6c-0.3,0-0.8,0.7-0.6,0.9c-0.4,0.5-0.1-0.4-0.4-0.2c0.1-0.2,0.2-0.4,0.3-0.6
									c-0.4,0.8-0.6-0.2-0.3-0.8l0,0.6c0.4-0.6,0.2-1.2,0.5-1.5c-0.6,0.9-0.5-0.9-1.1-0.1l0.3-0.5c-0.7,0-0.8-1.4-1.3-1.9
									c0.1,0.4-0.3,1.6,0.2,1.3c-0.7,0-0.6,1.1-1,1.5c-0.6,0.2,0.2-1.2,0.2-1.6l0.2,0.3c0.1-1.5-1.3-0.1-1.7-1.2
									c-0.2,0.3,0.1,0.2,0.1,0.4c-0.5,0.6-0.2-0.2-0.3-0.6c-0.4,0-0.8,0.3-0.8,1.2c-0.4,0.1,0.2-0.5,0.1-0.8l-0.1,0.2l-0.1-1.1
									c-0.4,0.2-0.8,0.6-1.1,1.4c-0.6-0.3,0.2-2-0.3-2.4c-0.4,0.4-0.1,0.7-0.1,1l-0.4-0.2c0,1,0.4,0.6,0.2,1.7
									c-0.2-1.2-0.4-0.4-0.8-1.3l0-0.1c-0.1-0.8-0.7-0.3-1-0.5c0.1,0.5,0.4,0.6,0.6,0.8c-0.4,0.4-1.2-0.1-1.4-1.2
									c-0.2,0.2-0.7,0.6-0.4,1c-0.7,0.1-0.2-1.5-0.8-1.2l0,0.8c-0.7,1.1-1.3-1-1.9,0l-0.1-1c-0.1,0.4-0.4,0.6-0.4,1l0.3,0.3
									c-0.2,0.8-0.3-0.8-0.6-0.2c0-0.3,0.2-0.9,0.2-1.3c0.7,0.3,1.3,0,2-0.1c0.7-0.1,1.4-0.2,2,0.3c-0.1,0.1-0.1,0.2-0.1,0.4
									c0.2-0.2,0.4,0.1,0.4-0.5l0-0.1c0.3,0.3,0.8-0.9,1-0.8c0.1,0.7,0.8-0.2,0.5,0.9l0.3-0.7c0,0.4-0.1,1,0,1.2
									c0.3,0,0.3-0.5,0.2-0.8c0.5-0.1,1.1-0.1,1.6,0c0.5,0.2,1,0.4,1.4,0.7l-0.1-0.6c0.3-0.2,0.6,1.1,0.8-0.2
									c0.3,0.7,1.4,0.1,1,1.4c0.8-1.2,1.3-0.1,1.9,0.3c-0.6,1,0.4,0.5,0.3,1.1c0.5-0.8-0.1-1.1,0.1-1.7c0,0.8,0.6,0.8,1,0.8
									c0.5,0.1,0.8,0.3,0.4,1.4c0.1,0,0.2-0.1,0.2-0.2c0.1,0.1,0.5-0.2,0.6-0.2c-0.1,0.4-0.5,0.4-0.3,0.7c0.3,0,0.5-0.6,0.7-0.8
									c0.2,0.7,0.7,1.3,0.2,2.2c0.3-0.1,0.7-0.5,0.7-0.7c0.2,1,0.7,0.3,1,1.1c-0.2-0.2,0.5-0.9-0.1-0.8c1-0.9,0.8,0.9,1.7,0.7
									l-0.3,0.8c0.2,0.3,0.7-0.3,0.7-0.7c0.8,0,0.8,0.6,1.1,1c0.1-0.1,0.2-0.2,0.1-0.2c0.2,0.1,0.4,0.3,0.5,0.5
									c-0.1,0.2-0.2,0.7-0.6,1.1C303.8,211,303.9,210.7,303.4,210.7z"/>
								<path class="st21" d="M303.5,211.4L303.5,211.4L303.5,211.4C303.5,211.5,303.5,211.4,303.5,211.4z"/>
								<path class="st21" d="M296.6,210.7c0.2-0.1,0.3-0.2,0.3-0.2C296.8,210.6,296.7,210.7,296.6,210.7z"/>
								<path class="st21" d="M306.7,217.1c-1,0.8-0.1-0.4-0.6-0.4c0,0.3-0.6,0.8-0.9,1c1.1-1.4-0.5-0.1-0.7-0.8
									c-0.4,0.4-0.3,0.6-0.7,1.1c0.1-0.5-0.1-1.1,0.6-1.7c-0.4-0.4-0.9-0.5-1-0.9c0,0.6-0.6,0.7-1,1.5c0.5-1,0.8-2.6,1.3-4
									c-0.8,0.7-0.9,0.7-1.5,1.5c-1,0,0.5-0.8-0.2-1.1l0.3,0.1c0-0.4,0.6-1.2,1-1.7l0.5,0.7c0.5-0.5,0-0.8,0.1-1
									c0.4-0.8,0.7-0.1,1.1-0.7c-0.3,0.5,0.1,0.6,0,0.9l0.3-0.2c0.6,0,0,0.8,0.3,1.1c0.1-0.1,0.2-0.1,0.2-0.2
									c-0.2,0.4-0.5,0.8-0.5,1.1l-0.1-0.1c-0.5,0.8-0.4,1.7-1.4,2.1l0.7,0.4c0.7-0.7,1.7-1.9,1.4-2.3l0.3-0.3
									c0.7-0.1,0.1,1.3-0.7,1.7c-1.6,1.9,0.8,1,0.4,2.1c0.5-0.4,0.5-0.8,0.8-1.2c-0.1-0.2-0.1-0.3-0.6,0.1
									c-0.2-0.8,1.7-1.3,0.9-1.8c-0.5-0.1-0.4,1.1-0.9,0.7l1-1.6c0.2,0.3,0.3,0.8,0.3,1.2c0.3,2.1,1.8,2.4,1.8,2.4
									c1.5,2,2.8,4,4.3,5.6c0.3,0.6,0.5,0.7-0.3,2.3c-0.3,0.2-0.6-0.2-0.9,0.4c0.3-0.6,0.4-1,0-1.2c-0.5,0.5,0.1,0.5-0.1,0.5
									l-0.1,0c-0.2,0.3-0.3,0.5-0.2,0.6c-1,0.5-1.6-0.3-0.9-1.5c-0.7,0.2-0.5,0.9-0.7,1.4c-1.4-0.6-1.9-1.4-2.8-2.3
									c0.9-0.8,0.5-0.6,0.9-1.2l-0.4,0.2c0.2-0.1,0.7-0.7,1-0.7c-1.2,0,0.6-1.7,0.6-2.4l-0.4,0.4c-0.2-0.4-0.3-0.5-0.3-1
									c-1.3,0.2,0.2,0.6-1,1.4l0.1-0.3c-0.4,0.4-1,1.2-1.2,1.6c0.3-1.1-0.9-0.5-0.8-1.5c-0.5,0.5-0.4,1.3-0.4,1.5
									c-0.2-0.1-0.1-0.8-0.6-0.4l0.6-0.6c-0.2-0.4-0.6,0.5-1.1,0.8C304.4,219,306.9,218,306.7,217.1z"/>
								<path class="st21" d="M299.1,210.4c0.1,0,0.2,0.1,0.2,0.2C299.2,210.5,299.1,210.5,299.1,210.4z"/>
								<path class="st21" d="M299.6,212.8c-0.1,0.1-0.1,0.2-0.2,0.3C299.5,213,299.5,212.9,299.6,212.8z"/>
								<path class="st21" d="M299,213.8c0.3-0.3,0.2-0.3,0.4-0.8C299.4,213.3,299.6,213.5,299,213.8z"/>
								<path class="st21" d="M271.1,210.3c-0.1-0.2-0.5-0.4-0.5-0.6l0.4,0.2L271.1,210.3z"/>
								<path class="st21" d="M271.5,209.2l0.3-0.4l0.6,1C272,209.9,271.9,209.1,271.5,209.2z"/>
								<path class="st21" d="M272.3,208.3l-0.2-0.2C272.3,208.1,272.3,208.2,272.3,208.3z"/>
								<path class="st21" d="M272.5,208.7l0.4,0.7l-0.6-0.4l0.1-0.2c-0.1-0.3,0-0.4,0-0.6l0.3,0.5
									C272.6,208.8,272.5,208.6,272.5,208.7z"/>
								<path class="st21" d="M272.9,208.7c0,0.1,0,0.2,0,0.2C272.9,208.8,272.9,208.7,272.9,208.7z"/>
								<path class="st21" d="M273.4,206.9c0,0.3,0.3,0.7,0.4,1c-0.3,0.4-0.6-0.8-0.8-0.3c0.7,0.5,0,0.5-0.1,1
									c-0.1-0.8-0.1-1.3,0.2-1.6l0.2,0.5C273.5,207.5,273.3,207.2,273.4,206.9z"/>
								<path class="st21" d="M275.6,207.7l-0.5-0.7c0,0.4-0.4,0.5-0.2,1.3c-0.2-0.1-0.3-0.4-0.5-0.6c0,0.4,0,0.7-0.3,0.2
									c0.6-0.7,0.3-0.8,0.9-1.2c-0.1-0.2-0.1-0.1-0.2-0.1l0.3-0.5C275.3,207.1,275.9,207,275.6,207.7z"/>
								<path class="st21" d="M276.1,207c-0.3,0-0.7-0.7-0.6-1.2l0.8,0.5C276.1,206.3,275.8,206.3,276.1,207z"/>
								<path class="st21" d="M276.5,206.9c0-0.4,0.1-1.3,0.5-0.6C276.6,206.3,277,207.4,276.5,206.9z"/>
								<path class="st21" d="M278.7,205.8l-0.6,0.6c0,1,0.4,0.3,0.6,0.7c-0.5,0.3-0.4-0.1-0.9-0.6c-0.1,0.1-0.5-0.4-0.7-0.6
									C278.1,206.4,277.8,204,278.7,205.8z"/>
								<polygon class="st21" points="277.6,207 277.5,206.6 277.8,206.8 								"/>
								<path class="st21" d="M280.1,204.4c0.3-1.2,0.8,0.6,1.2,0.1c-0.1-0.1,0-0.2-0.1-0.3l0.4,0.1l0-0.3c0,0.7,0.4,1,0.6,1.5
									c-0.3,0.8-0.2-0.9-0.5,0c0.1,0.3,0.2,0.8,0.3,1.1c-0.2-0.3-0.3-0.8-0.5-1.2c-0.3-0.1-0.1,0.3-0.1,0.6
									c-0.3-0.4-0.4-1.4-0.8-1.2c-0.2,0.7,0.3,1-0.2,0.8c0.1-1.2-0.5,0.2-0.7-0.5c-0.3,0.3-0.5,1-0.3,1.4
									c-0.1-0.9-0.5-1.6-0.8-1.8l0.7,0.7l0.1-1.1C279.6,204.8,279.8,204.7,280.1,204.4L280.1,204.4z"/>
								<path class="st21" d="M282,206.6c0,0.1,0.1,0.1,0.1,0.2C282.1,206.8,282,206.7,282,206.6z"/>
								<polygon class="st21" points="279.2,206.9 279.4,207.1 279.3,207.4 								"/>
								<path class="st21" d="M282.3,207.3c-0.1,0-0.1-0.3,0-0.3l0.1,0.5L282.3,207.3z"/>
								<polygon class="st21" points="282.6,206.6 282.8,206 282.9,206.5 								"/>
								<path class="st21" d="M290.3,206.8c-0.3,0.3-0.1-0.4-0.1-0.9C290.7,205.8,290.1,206.5,290.3,206.8z"/>
								<path class="st21" d="M294.5,209.3c-0.4,0.3-0.4-0.4-0.6-0.5C294.2,208.5,294.5,208.8,294.5,209.3z"/>
								<path class="st21" d="M295,212.3c0.1-0.2,0.1-0.4,0.2-0.4l0.4-1.2C296.2,210.5,295.3,211.8,295,212.3z"/>
								<path class="st21" d="M296.6,213.6l0-0.6l0.2,0.1c0.2-0.5,0.3-0.7,0.4-1.1C297.3,212.3,297.2,212.8,296.6,213.6z"/>
								<path class="st21" d="M297.1,211.5c0,0,0,0.1,0.1,0.1C297.1,211.8,296.9,211.9,297.1,211.5z"/>
								<path class="st21" d="M297.3,211.8c0,0.1,0,0.1,0,0.1c0-0.1,0-0.2-0.1-0.2C297.3,211.6,297.4,211.5,297.3,211.8z"/>
								<path class="st21" d="M297.2,213.2c0.1,0.2,0.3,0.3,0.4,0.5l-0.3,0.1C297.7,213.1,296.8,213.9,297.2,213.2z"/>
								<path class="st21" d="M300.1,214.7l0.6-0.5c0.4,0.2-0.4,1.7,0.7,1c-0.5,0.2-0.4,0.9-0.9,0.7
									C300.8,215.2,300.4,214.8,300.1,214.7z"/>
								<path class="st21" d="M302,215c0.1-0.2,0.3-0.2,0.5-0.4c0.2,0,0,0.4-0.3,0.6C302.8,214.4,301.6,215.5,302,215z"/>
								<path class="st21" d="M303.3,216.4c-0.1-0.1-0.1-0.3,0.1-0.3c0.2,0.3-0.5,0.8-0.7,1.3C302.1,217.5,302.8,216.5,303.3,216.4z
									"/>
								<path class="st21" d="M309.5,214.9c-0.5,0.4-0.7,0.1-0.5-0.1C308.9,214.9,309.2,214.9,309.5,214.9z"/>
								<polygon class="st21" points="305.4,218.5 305.2,218.5 305.9,217.8 								"/>
								<polygon class="st21" points="306.4,220.5 306.1,221.2 305.9,220.8 								"/>
								<path class="st21" d="M306.8,220.8l0.2,0.3l-0.3,0.1C306.5,221.1,306.9,220.9,306.8,220.8z"/>
								<path class="st21" d="M307.4,221.7c0-0.1-0.1,0-0.2,0l0.1-0.5L307.4,221.7z"/>
								<path class="st21" d="M314.5,222.9c0.3-0.6,0.3-0.1,0.5-0.1C314.8,222.9,314.2,223.5,314.5,222.9z"/>
							</g>
						</g>
					</g>
				</g>
			</g>
			<path class="st0" d="M169.6,95.2c0,0-0.7-17.8,1.6-17.8c2.3,0,11.1,18.2,14.5,23.2c3.4,5,12.2,16.3,19.3,25
				c7,8.7,20.7,24.7,40.5,28s61.8,4.5,78,10.2c16.2,5.7,31.5,20.3,37.1,35.2c5.7,14.9,13.1,34.8,28,44.4c0,0-21.3,4.9-37.5-12.4
				c0,0,1.2,6.9,1.4,8.5c0.3,1.6,9.3,14.2,9.9,15.4c0.7,1.2,7.7,30.1,7.9,31.5c0.3,1.4-2.1,14.1-2.1,14.1s-12.5,0-13.2,0
				s1.8-9.3,7-12.1c0,0-9.4-24-10.4-25.4c-1-1.4-16.5-16-17.6-16.8c-1-0.8-27.5-14-39.4-40.8c0,0-7.6-2.2-25.8,1.6
				c-18.2,3.7-43.6,8.2-48.9,8.2c0,0,2.2,64.7,1.8,66.7c-0.4,2-7.8,18.7-7.8,18.7s-13.3,0-14.6,0c-1.3,0,1.5-8.5,10.6-15.8
				c0,0-8.2-39.7-9.4-44.6c-1.2-4.9-10-27.6-10-27.6s-21.9-5.1-32.1-26.2s-1.6-36.9-4.7-51.4c0,0-22.6-8.7-27.3-11.1
				c-4.7-2.3-15.1-8.5-9.5-19c0,0,22.8,2.5,24.5,2.2c1.7-0.3,5.9-6.3,11.1-8.3C157.9,96.5,169.6,95.2,169.6,95.2z"/>
			<path class="st23" d="M355,300.3c-0.7,0,1.8-9.3,7-12.1c0,0-9.4-24-10.4-25.4c-1-1.4-16.5-16-17.6-16.8c-1-0.8-27.5-14-39.4-40.8
				"/>
			<path class="st23" d="M220,215c0,0,2.2,64.7,1.8,66.7c-0.4,2-7.8,18.7-7.8,18.7"/>
			<path class="st63" d="M349.2,212.2c0.7,7.7,1.8,18.7,1.8,18.7s0.3,1.6,0.6,3.4c-19.5,3.5-30.3-16.5-35.6-24.7
				c-5.3-8.2-14.1-25.2-34.4-23.1c-20.3,2.2-35.8,19.9-61.6,14.5c-25.8-5.5-35.1-25.3-35.1-25.3c-0.5,3.1,0.5,8.5,0.5,8.5
				c-27-20.7-20.2-47.7-18.9-53.8c1.3-6.1,2-13.8-0.7-15c-2.7-1.3-5.1-1.5-6.4-3.9c-1.2-2.3,1-9-2.3-10.8c-3.3-1.8-6.8-0.7-6.8-0.7
				c0.8-0.5,1.6-1,2.5-1.3c5.2-2.1,16.9-3.4,16.9-3.4s-0.7-17.8,1.6-17.8c2.4,0,11.1,18.2,14.5,23.2c3.4,5,12.2,16.3,19.3,25
				c7,8.7,20.7,24.7,40.5,28c19.7,3.3,61.8,4.5,78,10.2c16.2,5.7,31.5,20.3,37.1,35.2c4.8,12.5,10.8,28.6,21.5,39.1
				C361.2,235.4,352.2,219.1,349.2,212.2z"/>
			<path class="st23" d="M203.6,300.3c0,0,0.6-2.6,1.8-4.2"/>
			<path class="st23" d="M358.6,300.3c0,0,0.6-2.6,1.8-4.2"/>
			<line class="st23" x1="220" y1="215" x2="219.6" y2="204.6"/>
			<path class="st64" d="M115.2,107.6c-0.2,1.8,0.9,3.5,2.7,3.9c0.4,0.1,0.8,0.2,1.2,0.1c3.2-0.2,4.3-4.8,3.9-6.5
				c-0.1-0.6-5.9-1-6.3-1C116.4,104.1,115.5,105.5,115.2,107.6z"/>
			<path class="st23" d="M118.5,117.9c0,0,2.3,2,8.5,3.8c6.2,1.8,9.3,2.2,10.4,2.7s2.5,2.1,2.5,2.1"/>
			<path class="st23" d="M351,230.9c0,0-1.8-17.9-2.2-23.9"/>
			<path class="st23" d="M294.7,205.2c0,0-2.2-5.2-2.8-10.8"/>
			
				<ellipse transform="matrix(0.433 -0.9014 0.9014 0.433 -12.6762 197.3198)" class="st22" cx="150.5" cy="108.7" rx="2" ry="1.6"/>
			<g>
				<defs>
					<path id="SVGID_00000111189194588856287600000014307699787299119784_" d="M154.6,145c0.2-3.5,0-6.8-0.7-10.1
						c0,0,6.1,2.3,10.4,2.9C167.9,138.3,159.3,144.5,154.6,145z"/>
				</defs>
				<clipPath id="SVGID_00000091699770826400554220000006114418333135018648_">
					<use xlink:href="#SVGID_00000111189194588856287600000014307699787299119784_"  style="overflow:visible;"/>
				</clipPath>
				<g style="opacity:0.88;clip-path:url(#SVGID_00000091699770826400554220000006114418333135018648_);">
					<g>
						<g>
							<g>
								<path class="st21" d="M160.4,136.3c0,0-0.1,0.1-0.1,0.1C160.3,136.4,160.3,136.4,160.4,136.3z"/>
								<path class="st21" d="M164.9,137.5C164.9,137.5,164.9,137.5,164.9,137.5L164.9,137.5L164.9,137.5z"/>
								<path class="st21" d="M164.9,137.5l0.1-0.2C164.9,137.4,164.9,137.4,164.9,137.5z"/>
								<path class="st21" d="M159.7,137.3c-0.1,0-0.1,0.1-0.2,0.2L159.7,137.3z"/>
								<path class="st21" d="M160.1,138C160,138.1,160.1,138.1,160.1,138C160.1,138.1,160.1,138,160.1,138z"/>
								<path class="st21" d="M156.2,135L156.2,135C156.3,135,156.2,135,156.2,135z"/>
								<path class="st21" d="M155.9,135.2C155.8,135.2,155.8,135.2,155.9,135.2L155.9,135.2C155.8,135.3,155.8,135.2,155.9,135.2z"
									/>
								<path class="st21" d="M156,135.4L156,135.4C155.9,135.5,155.9,135.5,156,135.4z"/>
								<path class="st21" d="M153.4,136.8l0,0.2C153.4,136.9,153.4,136.9,153.4,136.8z"/>
								<path class="st21" d="M156.4,134.8c0,0-0.1,0.1-0.1,0.1C156.3,134.9,156.4,134.9,156.4,134.8z"/>
								<path class="st21" d="M160.4,136.2C160.4,136.3,160.4,136.3,160.4,136.2C160.4,136.3,160.4,136.3,160.4,136.2z"/>
								<path class="st21" d="M159.4,137.2L159.4,137.2C159.5,137.2,159.4,137.2,159.4,137.2z"/>
								<path class="st21" d="M166.7,137.7c0,0,0.1,0,0.1,0C166.7,137.6,166.7,137.6,166.7,137.7z"/>
								<path class="st21" d="M157.3,135.6c-0.1,0.5-0.2,0-0.3,0.4c0.1-0.1,0.2-0.1,0.2,0.1c-0.1,0.2-0.2-0.1-0.3,0.3l0.2-0.1
									c0,0.2-0.1,0.5-0.1,0.5c0.2-0.5,0.3,0.3,0.5,0.2l-0.1,0l0.1,0.3l0,0c0,0,0-0.1,0-0.1c0,0.3,0.1,0.5,0.3,0.5
									c0.1-0.3,0.5,0,0.6-0.2c-0.1,0.1-0.1,0.1-0.2,0l0.1-0.4c0.1,0-0.1,0.3,0.1,0.2c0.1-0.5-0.2,0-0.3-0.1
									c0.1-0.1,0.1-0.2,0.2-0.2c-0.2-0.1-0.4-0.3-0.6,0.2c0-0.1,0-0.3,0.1-0.4c-0.2,0.3,0-0.3-0.2-0.1c0.1-0.5,0.4-0.2,0.5-0.4
									c0.1,0.4,0.4,0.1,0.7,0.1c-0.1,0.3-0.3,0.6-0.2,0.8c0.2,0.3,0.2-0.1,0.4-0.3c0.1,0.2-0.1,0.6,0.1,0.6l-0.2,0.2
									c0,0.5,0.2-0.2,0.3,0c0-0.1,0-0.3-0.1-0.3c0-0.2,0.1-0.2,0.2-0.2l0,0c0.1-0.2,0.2-0.5,0.3-0.3c-0.2,0.3,0.1,0.2,0.1,0.4
									l-0.1,0.1c0.1-0.1,0.2,0,0.3,0l0,0.1c0.1-0.1,0.2-0.4,0.3-0.3c0,0.1-0.3,0.5-0.1,0.5c-0.1,0.2-0.2,0.2-0.3,0.1
									c0.1,0.1,0.1,0.5-0.1,0.5c0,0.3,0.2-0.1,0.2,0.1c0-0.1,0-0.2,0.1-0.3c-0.1,0.4,0.3,0.1,0.3-0.2l-0.2,0.2
									c0-0.3,0.3-0.5,0.2-0.6c0,0.5,0.4-0.2,0.4,0.3l0-0.3c0.3,0.2,0.6-0.3,0.9-0.3c-0.1,0.1-0.2,0.6-0.4,0.4c0.3,0.2,0,0.5,0,0.8
									c0.2,0.2,0.2-0.5,0.3-0.6l-0.2,0.1c0.3-0.6,0.5,0.2,0.9-0.1c0,0.2-0.1,0.1-0.1,0.1c0.1,0.3,0.1,0,0.2-0.1
									c0.1,0.1,0.3,0.2,0.1,0.6c0.1,0.1,0-0.2,0.1-0.3l0,0.1l0.2-0.4c0.1,0.1,0.2,0.4,0.2,0.7c0.3,0,0.3-0.8,0.5-0.9
									c0.1,0.2-0.1,0.3-0.1,0.4l0.2,0c-0.1,0.4-0.3,0.2-0.3,0.7c0.3-0.5,0.3-0.1,0.5-0.4l0,0c0.2-0.3,0.4,0,0.5-0.1
									c-0.1,0.2-0.2,0.2-0.3,0.2c0.1,0.2,0.5,0.1,0.7-0.3c0.1,0.1,0.2,0.3,0.1,0.4c0.3,0.1,0.2-0.6,0.5-0.4l-0.1,0.3
									c0.2,0.5,0.6-0.3,0.8,0.1l0.1-0.4c0,0.2,0.1,0.3,0.1,0.4l-0.2,0.1c0.1,0.4,0.2-0.3,0.3,0c0-0.1-0.1-0.4,0-0.5
									c-0.6,0.2-1.1-0.5-1.7-0.2c0,0.1,0,0.1,0,0.2c0-0.1-0.2,0-0.1-0.2l0,0c-0.2,0.1-0.2-0.4-0.3-0.5c-0.1,0.3-0.3-0.2-0.3,0.3
									l0-0.3c-0.1,0.2-0.1,0.4-0.2,0.5c-0.1-0.1-0.1-0.2,0-0.3c-0.4-0.3-0.8-0.3-1.3-0.2l0.1-0.2c-0.1-0.1-0.4,0.3-0.2-0.2
									c-0.2,0.2-0.5-0.3-0.6,0.3c0-0.6-0.4-0.3-0.7-0.3c0,0.5-0.3,0.1-0.4,0.3c0-0.4,0.3-0.3,0.4-0.6c-0.4,0.5-0.7-0.6-1,0.4
									c0,0,0-0.1,0-0.1c-0.1,0-0.1-0.2-0.1-0.2c-0.1,0.2,0,0.3-0.1,0.3c-0.1-0.1,0-0.3,0-0.5c-0.2,0.2-0.6,0.2-0.7,0.6
									c0-0.1-0.1-0.4,0-0.4c-0.4,0.2-0.3-0.1-0.7,0c0.1,0,0.1-0.4,0.3-0.2c0-0.6-0.5,0-0.7-0.3l-0.2,0.3c-0.2,0-0.1-0.3,0-0.4
									c-0.2-0.3-0.4-0.1-0.6-0.1c0,0,0-0.1,0.1-0.1l-0.3-0.1c0,0.1-0.2,0.2-0.2,0.5C157.1,135.6,157.2,135.5,157.3,135.6z"/>
								<polygon class="st21" points="157.1,135.8 157,135.8 157,135.8 								"/>
								<path class="st21" d="M159.4,137.9c0-0.1,0-0.1,0-0.2C159.4,137.8,159.4,137.8,159.4,137.9z"/>
								<path class="st21" d="M154.2,135.8c-0.1,0.6,0.2-0.1,0.3,0.1c-0.1,0.1-0.2,0.4-0.2,0.5c0.3-0.7,0.2,0.2,0.5,0.1
									c0,0.2-0.2,0.2-0.3,0.5c0.2-0.1,0.4-0.2,0.6-0.6c0.3,0,0.4,0.2,0.6,0.2c-0.2,0.1-0.1,0.4-0.3,0.7c0.3-0.4,0.8-0.9,1.2-1.4
									c-0.1,0.4-0.1,0.5-0.2,0.9c0.3,0.4,0.2-0.4,0.4-0.2l-0.1-0.1c0.2-0.1,0.3-0.5,0.4-0.8l-0.4,0c0.1-0.3,0.3-0.2,0.4-0.3
									c0.2-0.3-0.1-0.3,0-0.6c-0.1,0.2-0.2,0.1-0.3,0.2l0-0.2c-0.1-0.2-0.3,0.2-0.4,0.1c0,0,0-0.1,0-0.1c-0.1,0.2-0.2,0.4-0.3,0.4
									l0.1,0c-0.2,0.4-0.6,0.5-0.4,1l-0.3-0.2c0.1-0.4,0.3-1,0.5-1l0.1-0.2c-0.1-0.3-0.5,0.2-0.5,0.6c-0.4,1-0.5-0.1-0.9,0.3
									c0-0.3,0.2-0.4,0.3-0.5c0.1,0,0.1,0,0.1,0.2c0.4-0.1,0.1-0.9,0.5-0.7c0.2,0.2-0.3,0.4-0.1,0.5l0.4-0.7
									c-0.2,0-0.4,0.1-0.5,0.1c-0.9,0.3-1.3-0.2-1.3-0.2c-1.1-0.1-2.3-0.3-3.4-0.4c-0.4,0-0.5,0-0.8,0.7c0,0.2,0.3,0.1,0.2,0.4
									c0.1-0.3,0.2-0.4,0.4-0.3c0,0.3-0.2,0.1-0.2,0.2l0,0c0,0.1-0.1,0.2-0.2,0.2c0.1,0.5,0.5,0.4,0.8-0.1
									c0.1,0.3-0.2,0.4-0.3,0.6c0.5,0.3,0.9,0.4,1.5,0.5c0.1-0.5,0.1-0.3,0.3-0.6l0,0.2c0-0.1,0.1-0.4,0-0.5
									c0.3,0.4,0.5-0.6,0.8-0.7L153,135c0.2,0,0.3,0,0.5-0.1c0.2,0.5-0.3,0-0.3,0.6l0.1-0.1c-0.1,0.2-0.2,0.6-0.4,0.8
									c0.4-0.3,0.4,0.2,0.8,0c-0.1,0.3-0.4,0.4-0.5,0.4c0.1,0,0.3-0.1,0.3,0.1l0.1-0.3c0.2,0-0.1,0.3-0.1,0.6
									C153.9,137.1,153.7,135.9,154.2,135.8z"/>
								<path class="st21" d="M158.7,137c0,0-0.1,0-0.1,0C158.6,137,158.6,137,158.7,137z"/>
								<path class="st21" d="M157.6,137.4c0,0,0,0.1,0,0.1C157.6,137.5,157.6,137.5,157.6,137.4z"/>
								<path class="st21" d="M157.4,137.9c0-0.2,0.1-0.2,0.1-0.3C157.5,137.7,157.4,137.6,157.4,137.9z"/>
								<path class="st21" d="M172.4,139.8c0-0.1,0.1-0.2,0.1-0.3l-0.2,0.1L172.4,139.8z"/>
								<path class="st21" d="M172,139.4l-0.2-0.1l-0.1,0.5C171.9,139.8,171.8,139.5,172,139.4z"/>
								<path class="st21" d="M171.4,139.2l0-0.1C171.4,139.1,171.4,139.2,171.4,139.2z"/>
								<path class="st21" d="M171.4,139.4l-0.1,0.4l0.2-0.3L171.4,139.4c0.1-0.1,0-0.1,0-0.2L171.4,139.4
									C171.4,139.4,171.4,139.4,171.4,139.4z"/>
								<path class="st21" d="M171.2,139.4c0,0,0,0.1,0,0.1C171.3,139.5,171.3,139.4,171.2,139.4z"/>
								<path class="st21" d="M170.8,138.8c0,0.1-0.1,0.3-0.1,0.5c0.2,0.1,0.2-0.4,0.3-0.2c-0.2,0.3,0.1,0.2,0.2,0.4
									c-0.1-0.3-0.1-0.6-0.3-0.7l0,0.2C170.8,139,170.9,138.9,170.8,138.8z"/>
								<path class="st21" d="M169.9,139.3l0.2-0.3c0,0.2,0.2,0.2,0.2,0.5c0.1,0,0.1-0.2,0.2-0.3c0.1,0.2,0.1,0.3,0.2,0.1
									c-0.3-0.2-0.2-0.3-0.5-0.4c0-0.1,0-0.1,0.1,0l-0.2-0.2C169.9,139,169.7,139,169.9,139.3z"/>
								<path class="st21" d="M169.6,139c0.2,0,0.3-0.3,0.2-0.5l-0.3,0.2C169.5,138.7,169.7,138.7,169.6,139z"/>
								<path class="st21" d="M169.4,139c0-0.2-0.1-0.6-0.2-0.2C169.3,138.7,169.2,139.2,169.4,139z"/>
								<path class="st21" d="M168.3,138.6l0.3,0.2c0,0.4-0.2,0.1-0.3,0.3c0.2,0.1,0.2,0,0.4-0.3c0.1,0,0.2-0.2,0.3-0.3
									C168.6,138.9,168.7,137.8,168.3,138.6z"/>
								<polygon class="st21" points="168.9,139.1 168.9,138.9 168.8,139 								"/>
								<path class="st21" d="M167.7,138c-0.1-0.5-0.4,0.2-0.5,0c0,0,0-0.1,0.1-0.1l-0.2,0l0-0.1c0,0.3-0.2,0.4-0.3,0.6
									c0.1,0.3,0.1-0.4,0.2,0c-0.1,0.1-0.1,0.3-0.2,0.4c0.1-0.1,0.2-0.3,0.2-0.5c0.1,0,0.1,0.2,0.1,0.3c0.1-0.2,0.2-0.6,0.4-0.5
									c0.1,0.3-0.1,0.4,0.1,0.3c0-0.5,0.2,0.1,0.3-0.2c0.1,0.1,0.2,0.4,0.2,0.6c0-0.4,0.2-0.7,0.3-0.8l-0.3,0.3l0-0.5
									C167.9,138.2,167.8,138.1,167.7,138L167.7,138z"/>
								<path class="st21" d="M166.8,138.9C166.8,138.9,166.8,138.9,166.8,138.9C166.8,139,166.8,138.9,166.8,138.9z"/>
								<polygon class="st21" points="168.1,139 168,139.1 168.1,139.3 								"/>
								<path class="st21" d="M166.6,139.2c0,0,0.1-0.1,0-0.1L166.6,139.2L166.6,139.2z"/>
								<polygon class="st21" points="166.5,138.9 166.4,138.6 166.4,138.8 								"/>
								<path class="st21" d="M162.9,138c0.1,0.2,0.1-0.1,0.2-0.3C163,137.6,163.1,138,162.9,138z"/>
								<path class="st21" d="M160.6,138c0.1,0.2,0.3,0,0.4,0C160.9,137.8,160.8,137.9,160.6,138z"/>
								<path class="st21" d="M159.5,138.8c0.1-0.1,0.1-0.1,0-0.2l0.2-0.5C159.6,137.9,159.5,138.6,159.5,138.8z"/>
								<path class="st21" d="M158.4,138.7l0.2-0.2l-0.1,0c0.1-0.2,0.1-0.3,0.2-0.5C158.6,138.1,158.4,138.3,158.4,138.7z"/>
								<path class="st21" d="M158.9,137.9C158.9,137.9,158.9,137.9,158.9,137.9C158.8,138,158.8,138.1,158.9,137.9z"/>
								<path class="st21" d="M158.8,137.9C158.8,138,158.7,138,158.8,137.9C158.8,138,158.8,138,158.8,137.9
									C158.8,137.9,158.8,137.9,158.8,137.9z"/>
								<path class="st21" d="M158.3,138.4l-0.3,0l0.1,0.1C158.2,138.2,158.2,138.7,158.3,138.4z"/>
								<path class="st21" d="M156.7,137.8l0-0.3c-0.2-0.1-0.6,0.5-0.6,0c0,0.2-0.2,0.3,0,0.5C156.3,137.6,156.6,137.6,156.7,137.8z
									"/>
								<path class="st21" d="M156.1,137.1c0.1-0.1,0-0.2,0-0.3c-0.1-0.1-0.2,0.1-0.2,0.2C156.1,136.7,156,137.4,156.1,137.1z"/>
								<path class="st21" d="M155.2,137c0.1,0,0.1,0,0.1-0.1c-0.2,0-0.2,0.4-0.3,0.5C155.1,137.6,155.3,137.2,155.2,137z"/>
								<path class="st21" d="M154.4,134.4c0,0.3,0.1,0.3,0.2,0.2C154.5,134.6,154.4,134.5,154.4,134.4z"/>
								<polygon class="st21" points="153.9,136.6 153.9,136.7 154.1,136.3 								"/>
								<polygon class="st21" points="152.8,136.6 152.7,136.9 152.9,136.9 								"/>
								<path class="st21" d="M152.7,136.5l-0.2,0l0,0.1C152.6,136.7,152.6,136.5,152.7,136.5z"/>
								<path class="st21" d="M152.2,136.5C152.2,136.4,152.2,136.5,152.2,136.5l0.2-0.1L152.2,136.5z"/>
								<path class="st21" d="M149.8,134.2c0.1-0.3-0.1-0.1-0.1-0.2C149.6,134.1,149.7,134.5,149.8,134.2z"/>
							</g>
						</g>
					</g>
				</g>
			</g>
			<line class="st23" x1="190.7" y1="212.4" x2="188.6" y2="207.4"/>
		</g>
	</g>
</g>
</svg>
