<?xml version="1.0" encoding="utf-8"?>
<!-- Generator: Adobe Illustrator 26.0.3, SVG Export Plug-In . SVG Version: 6.00 Build 0)  -->
<svg version="1.1" xmlns="http://www.w3.org/2000/svg" xmlns:xlink="http://www.w3.org/1999/xlink" x="0px" y="0px"
	 viewBox="0 0 503.6 377.7" style="enable-background:new 0 0 503.6 377.7;" xml:space="preserve">
<style type="text/css">
	.st0{fill:#FFF0DD;}
	.st1{fill:#6B5C52;}
	.st2{fill:#B8BBBF;}
	.st3{fill:#F9E9CD;}
	.st4{fill:#FFE6BD;}
	.st5{fill:#F5F5F2;}
	.st6{fill:#637189;}
	.st7{fill:#9E9082;}
	.st8{fill:#938D89;}
	.st9{fill:#FFDBC0;}
	.st10{fill:#6E85BD;}
	.st11{fill:#E8D9D6;}
	.st12{fill:#A7BC79;}
	.st13{fill:#FF8080;}
	.st14{fill:#3D3533;}
	.st15{fill:#A1683D;}
	.st16{fill:#CCE0FF;}
	.st17{fill:#383531;}
	.st18{fill:#757060;}
	.st19{fill:#D29F7E;}
	.st20{opacity:0.88;clip-path:url(#SVGID_00000024686631849233203570000009746091860675310223_);}
	.st21{fill:#322015;}
	.st22{fill:#1B1C1E;}
	.st23{fill:none;stroke:#1B1C1E;stroke-width:1.2604;stroke-linecap:round;stroke-linejoin:round;stroke-miterlimit:10;}
	.st24{opacity:0.84;clip-path:url(#SVGID_00000116929945102040840940000001120650828814016167_);}
	.st25{clip-path:url(#SVGID_00000083792177162381581100000005240993484200000178_);}
	.st26{fill:none;stroke:#1B1C1E;stroke-width:1.2604;stroke-linecap:round;stroke-linejoin:round;}
	.st27{fill:#D1493B;}
	.st28{fill:#FFAE1F;}
	.st29{opacity:0.88;clip-path:url(#SVGID_00000152232414491903689230000004242359197836386462_);}
	.st30{opacity:0.7;clip-path:url(#SVGID_00000008109339096498734550000014354373059377963191_);}
	.st31{fill:#2C2C2D;}
	.st32{opacity:0.87;clip-path:url(#SVGID_00000153676419853459407940000008580423865539632541_);}
	.st33{fill:#080809;}
	.st34{opacity:0.7;clip-path:url(#SVGID_00000127724331060196676020000015540048185692983433_);}
	.st35{fill:#FBAF5E;}
	.st36{opacity:0.62;clip-path:url(#SVGID_00000114075240869336383780000006623632716137017017_);}
	.st37{fill:#3E240C;}
	.st38{fill:#BC763C;}
	.st39{opacity:0.62;clip-path:url(#SVGID_00000162335815765931013320000010648170931171469205_);}
	.st40{opacity:0.62;clip-path:url(#SVGID_00000060722050843413296880000006680556038586034875_);}
	.st41{fill:#967258;}
	.st42{opacity:0.53;clip-path:url(#SVGID_00000114752341519264170900000009045130257173581709_);}
	.st43{opacity:0.73;clip-path:url(#SVGID_00000083050757291687093240000002673176361818524089_);}
	.st44{fill:none;stroke:#1B1C1E;stroke-width:1.1311;stroke-linecap:round;stroke-linejoin:round;stroke-miterlimit:10;}
	.st45{fill:#3D291C;}
	.st46{fill:#3D291C;stroke:#967258;stroke-width:1.2604;stroke-linecap:round;stroke-linejoin:round;stroke-miterlimit:10;}
	.st47{fill:#D6D4C8;}
	.st48{fill:#1B1C1E;stroke:#967258;stroke-width:1.2604;stroke-linecap:round;stroke-linejoin:round;stroke-miterlimit:10;}
	.st49{opacity:0.52;clip-path:url(#SVGID_00000116921577272932773410000012888499711921465759_);}
	.st50{fill:#B37D4F;}
	.st51{opacity:0.88;clip-path:url(#SVGID_00000091012291711671962790000013514644024303767211_);}
	.st52{fill:#343434;}
	.st53{fill:#BC6464;}
	.st54{opacity:0.88;clip-path:url(#SVGID_00000040555267612597077640000001935753108644518842_);}
	.st55{fill:#1B1C1E;stroke:#1B1C1E;stroke-width:1.1485;stroke-linecap:round;stroke-linejoin:round;stroke-miterlimit:10;}
	.st56{fill:#8C7265;}
	.st57{opacity:0.88;clip-path:url(#SVGID_00000041257862056500454840000008681297522818815125_);}
	.st58{fill:#1B1C1E;stroke:#1B1C1E;stroke-width:1.3664;stroke-linecap:round;stroke-linejoin:round;stroke-miterlimit:10;}
	.st59{opacity:0.88;clip-path:url(#SVGID_00000181084973809009507500000018349147841826820769_);}
	.st60{fill:none;stroke:#1B1C1E;stroke-width:1.3664;stroke-linecap:round;stroke-linejoin:round;stroke-miterlimit:10;}
	.st61{opacity:0.88;clip-path:url(#SVGID_00000092453227939106283830000002706049885534987956_);}
	.st62{opacity:0.88;clip-path:url(#SVGID_00000116922263056387906970000003052568832135521208_);}
	.st63{fill:#5F6C72;}
	.st64{fill:#1B1C1E;stroke:#1B1C1E;stroke-width:1.5329;stroke-linecap:round;stroke-linejoin:round;stroke-miterlimit:10;}
	.st65{opacity:0.88;clip-path:url(#SVGID_00000052082901404561461880000015276045797816731525_);}
	.st66{clip-path:url(#SVGID_00000057868600954404100170000007313473095815491984_);}
	.st67{opacity:0.58;clip-path:url(#SVGID_00000112616121873258311750000005734934405993972910_);}
	.st68{opacity:0.58;clip-path:url(#SVGID_00000120539555526257379930000012144076881423580079_);}
	.st69{fill:#1B1C1E;stroke:#1B1C1E;stroke-width:1.818;stroke-linecap:round;stroke-linejoin:round;stroke-miterlimit:10;}
	.st70{fill:#FFFFFF;}
	.st71{fill:#CC813E;}
	.st72{opacity:0.58;clip-path:url(#SVGID_00000131340824329384224110000012040978956882939548_);}
	.st73{fill:#AA8C7D;}
	.st74{opacity:0.88;clip-path:url(#SVGID_00000135672587919006126540000002402473074081601704_);}
	.st75{opacity:0.88;clip-path:url(#SVGID_00000031889184958392349120000000693129012163231384_);}
	.st76{fill:#1B1C1E;stroke:#1B1C1E;stroke-width:1.2604;stroke-linecap:round;stroke-linejoin:round;stroke-miterlimit:10;}
	.st77{opacity:0.88;clip-path:url(#SVGID_00000037691705968764880460000005082080400527351989_);}
	.st78{opacity:0.88;clip-path:url(#SVGID_00000145776870333717286980000016991061384426128804_);}
	.st79{opacity:0.88;clip-path:url(#SVGID_00000175308469118632511380000011871515493567385728_);}
	.st80{fill:none;stroke:#1B1C1E;stroke-miterlimit:10;}
	.st81{fill:#B8BDC4;}
	.st82{fill:#B4D3CD;}
	.st83{opacity:0.88;clip-path:url(#SVGID_00000100369626438012500600000001357714391285630089_);}
	.st84{opacity:0.88;clip-path:url(#SVGID_00000008117522801581009920000006191731864245690520_);}
	.st85{fill:#EFBE9D;}
	.st86{opacity:0.88;clip-path:url(#SVGID_00000041286659100261699250000003078072565579015824_);}
	.st87{fill:#443730;}
	.st88{opacity:0.88;clip-path:url(#SVGID_00000100367699238876145210000017828559707185759401_);}
	.st89{opacity:0.88;clip-path:url(#SVGID_00000137118779382193951270000016327069636762186402_);}
	.st90{fill:#E2AF8D;}
	.st91{fill:none;stroke:#1B1C1E;stroke-linecap:round;stroke-linejoin:round;stroke-miterlimit:10;}
	.st92{fill:#1B1C1E;stroke:#1B1C1E;stroke-miterlimit:10;}
	.st93{fill:#FCEA9F;}
	.st94{fill:#F6EBEF;}
	.st95{fill:#D4DADD;}
	.st96{opacity:0.61;clip-path:url(#SVGID_00000166653739836276723620000012071215189982358159_);}
	.st97{fill:#353737;}
	.st98{fill:#B3B9BC;}
	.st99{opacity:0.61;clip-path:url(#SVGID_00000021081195858153954640000018105051692634412458_);}
	.st100{opacity:0.61;clip-path:url(#SVGID_00000172408726586881436910000001321622650360970121_);}
	.st101{fill:#B3B9BC;stroke:#1B1C1E;stroke-miterlimit:10;}
	.st102{fill:#CCE2CF;stroke:#1B1C1E;stroke-miterlimit:10;}
	.st103{fill:#EAD6DE;}
	.st104{fill:#1B1C1E;stroke:#1B1C1E;stroke-width:1.0185;stroke-miterlimit:10;}
	.st105{fill:none;stroke:#1B1C1E;stroke-width:1.0185;stroke-miterlimit:10;}
	.st106{fill:#FBAF5E;stroke:#1B1C1E;stroke-miterlimit:10;}
	.st107{fill:#513F3B;}
	.st108{opacity:0.88;clip-path:url(#SVGID_00000073706167721822231590000006347530205224104096_);}
	.st109{opacity:0.88;clip-path:url(#SVGID_00000046301257422113320070000011760640290448115078_);}
	.st110{fill:#8B2403;}
	.st111{fill:#EBDAD2;}
	.st112{fill:#A84E39;}
	.st113{fill:#751A01;}
	.st114{fill:#EBDAD2;stroke:#1B1C1E;stroke-miterlimit:10;}
	.st115{opacity:0.78;clip-path:url(#SVGID_00000020364111362813924490000010361643936584157115_);}
	.st116{fill:#290B01;}
	.st117{opacity:0.78;clip-path:url(#SVGID_00000134970759985178688120000004765949962329858475_);}
	.st118{opacity:0.78;clip-path:url(#SVGID_00000176015631993031667390000017960297620231654279_);}
	.st119{opacity:0.78;clip-path:url(#SVGID_00000114787542798817547730000003251541757785495193_);}
	.st120{fill:#030203;}
	.st121{fill:#86889A;}
	.st122{fill:#0B060A;}
	.st123{fill:#736E72;}
	.st124{fill:#9E9AA0;}
	.st125{fill:#18172A;}
	.st126{fill:#3B4D84;}
	.st127{fill:#FFA3AC;}
	.st128{fill:none;stroke:#0B080B;stroke-width:1.2005;stroke-miterlimit:10;}
	.st129{fill:#E7E6E8;}
	.st130{fill:#0B080B;}
	.st131{fill:none;stroke:#1B1C1E;stroke-width:1.2005;stroke-linecap:round;stroke-linejoin:round;stroke-miterlimit:10;}
	.st132{opacity:0.78;clip-path:url(#SVGID_00000157268235754897242650000014027269325649429922_);}
	.st133{opacity:0.78;clip-path:url(#SVGID_00000103253376145704935850000007444185460833080220_);}
	.st134{fill:#89745E;}
	.st135{opacity:0.78;clip-path:url(#SVGID_00000145029998032448672390000012020310839989239215_);}
	.st136{fill:#060606;}
	.st137{fill:#4D483E;}
	.st138{fill:#FF8A00;}
	.st139{fill:#50483F;}
	.st140{fill:#131313;}
	.st141{fill:#E8DBCD;}
	.st142{opacity:0.78;clip-path:url(#SVGID_00000165219829809255806310000016887455721302564492_);}
	.st143{opacity:0.78;clip-path:url(#SVGID_00000110460397018162412530000006277469640209705112_);}
	.st144{fill:#191212;}
	.st145{fill:#6C5353;}
	.st146{opacity:0.78;clip-path:url(#SVGID_00000065064250150542602370000000103124990166362011_);}
	.st147{fill:#B3B3B3;}
	.st148{fill:#FF9F2C;}
	.st149{fill:none;stroke:#343434;stroke-miterlimit:10;}
	.st150{fill:#21262A;}
	.st151{fill:#563D3D;}
	.st152{opacity:0.78;clip-path:url(#SVGID_00000023273214958995350520000009757663362790732940_);}
	.st153{fill:#181716;}
	.st154{fill:#706153;}
	.st155{fill:none;stroke:#1B1C1E;stroke-width:0.8477;stroke-miterlimit:10;}
	.st156{fill:#FCBD30;}
	.st157{fill:#E8D9CD;}
	.st158{fill:#534E4A;}
	.st159{opacity:0.78;clip-path:url(#SVGID_00000070841421337474217780000004575643169783029938_);}
	.st160{fill:#7DA050;}
	.st161{opacity:0.78;clip-path:url(#SVGID_00000070830358525923763880000009560847117908743613_);}
	.st162{opacity:0.78;clip-path:url(#SVGID_00000039119113023595294480000002596792098899087550_);}
	.st163{opacity:0.78;clip-path:url(#SVGID_00000072991252703160014310000018431129006265838978_);}
	.st164{fill:#EFEECE;}
	.st165{opacity:0.78;clip-path:url(#SVGID_00000060729030399537166540000011616407424966514838_);}
	.st166{fill:#93543B;}
	.st167{fill:#FF510C;}
	.st168{opacity:0.78;clip-path:url(#SVGID_00000007417624850721008000000008124572466326509708_);}
	.st169{fill:#4B1804;}
	.st170{fill:#000A0E;}
	.st171{opacity:0.78;clip-path:url(#SVGID_00000054973906405279369430000002979955143931377343_);}
	.st172{opacity:0.78;clip-path:url(#SVGID_00000011741995122509256190000002650536858807478432_);}
	.st173{fill:#F9C8A7;}
	.st174{fill:#1B1C1E;stroke:#1B1C1E;stroke-width:1.3738;stroke-miterlimit:10;}
	.st175{fill:none;stroke:#1B1C1E;stroke-width:1.3;stroke-miterlimit:10;}
	.st176{fill:#FFCB6E;}
	.st177{fill:#CECECE;}
	.st178{fill:none;stroke:#1B1C1E;stroke-width:1.3037;stroke-miterlimit:10;}
	.st179{fill:#FFFFFF;stroke:#1B1C1E;stroke-width:1.3;stroke-miterlimit:10;}
	.st180{opacity:0.78;clip-path:url(#SVGID_00000029033378408494575690000011617557614154649514_);}
	.st181{fill:none;stroke:#1B1C1E;stroke-width:1.3738;stroke-miterlimit:10;}
	.st182{opacity:0.45;clip-path:url(#SVGID_00000003805733709502636820000006210368837711720070_);}
	.st183{opacity:0.45;clip-path:url(#SVGID_00000016062223387547359780000014190231513450719875_);}
	.st184{opacity:0.45;clip-path:url(#SVGID_00000105398194769194184100000015108752352791990450_);}
	.st185{opacity:0.45;clip-path:url(#SVGID_00000131353236748564325130000018305379987864682939_);}
	.st186{fill:none;stroke:#1B1C1E;stroke-width:1.3738;stroke-linecap:round;stroke-linejoin:round;stroke-miterlimit:10;}
	.st187{fill:#FFB192;}
	.st188{fill:#EB8226;}
	.st189{fill:#F7EDE1;}
	.st190{opacity:0.78;clip-path:url(#SVGID_00000145038219452505561600000016476137050339429294_);}
	.st191{opacity:0.78;clip-path:url(#SVGID_00000092449379171362062890000014647817347946668963_);}
	.st192{opacity:0.5;clip-path:url(#SVGID_00000098214490378562780000000011191502370236318392_);}
	.st193{opacity:0.5;clip-path:url(#SVGID_00000178911075390691890360000007923169333205421441_);}
	.st194{fill:none;stroke:#06002C;stroke-width:1.3038;stroke-miterlimit:10;}
	.st195{fill:#F7A9B4;}
	.st196{fill:#06002C;}
	.st197{opacity:0.5;clip-path:url(#SVGID_00000022518992896078085960000010421301004657481627_);}
	.st198{fill:none;stroke:#06002C;stroke-width:1.3038;stroke-linecap:round;stroke-linejoin:round;stroke-miterlimit:10;}
	.st199{fill:#9BBEDC;}
	.st200{opacity:0.88;clip-path:url(#SVGID_00000049941898727005755830000013699195071675602335_);}
	.st201{opacity:0.88;clip-path:url(#SVGID_00000066473957291224100140000011879115739308296325_);}
</style>
<g id="Background">
	<rect x="-3.2" y="-2.4" class="st8" width="510" height="382.5"/>
</g>
<g id="Illustration">
	<g>
		<path class="st22" d="M171.2,305.5c0,0-7.8,2.6,13.5,3.4s133.8,1.2,145.4,0c11.6-1.2,34.1-0.5,4.2-3.4s-60.7-1.2-90.8-2.9
			C213.4,300.8,175.7,302.4,171.2,305.5z"/>
		<g>
			<path class="st94" d="M239.4,102.8c0,0-9.8-10.2-18.8-11c-9.6-0.9-11.7,10.3-3.1,28.9C217.5,120.7,234.6,114.3,239.4,102.8z"/>
			<path class="st103" d="M234.7,109.6c-6.8,7.2-17.2,11.1-17.2,11.1c-5.5-11.8-6.7-20.6-4.4-25.2c0,0,0,0,0,0
				c0.2-0.2,4.1-3.3,11.2,2.9C228.8,102.2,232.5,106.7,234.7,109.6z"/>
			<path class="st94" d="M280.8,104.8c0,0,15.9-12.5,23.3-8.5c7.4,4-1.6,24.9-4.2,28.8C297.4,128.9,277.8,111.4,280.8,104.8z"/>
			<path class="st103" d="M300,125.1c-1.5,2.2-8.7-2.7-13.9-8.5c2.1-3.7,6.9-11.6,11.5-14.8c5.3-3.6,8.5-1.7,9.3-1.1
				C308.1,108.2,302,122,300,125.1z"/>
			<path class="st94" d="M334.7,303.2c-0.1,1.4-1.3,2.5-2.7,2.5c-19.6,0-143-0.1-144.8-0.1c-1.9,0-5.7-11,5.7-15
				c0,0-3.8-20.2,4.7-56.1c8.8-36.8,22.6-58,22.6-58s-13.7-8.4-14.7-24.4c-1-16.1,10.9-35.7,23.5-44.3c12.5-8.7,24-8.8,39.4-7.3
				s25.3,9.5,33.9,21.2c9,12.3,13,29.6,8.6,41.6c-3.6,9.8-10.5,14.3-10.5,14.3s1.9,3.4,4.7,9.5c4.4,9.3,11,24.8,16.8,43.4
				c0.4,1.3,0.8,2.6,1.1,3.9c0.9,3.2,1.6,6.4,2.3,9.5c1.5,7.3,2.3,14.3,2.7,20.6c1,15.5-0.6,26.4-0.6,26.4S335.6,292.9,334.7,303.2z
				"/>
			<path class="st104" d="M257.3,156.5c0,0-4.1-1.4-6-3.8c-2-2.4-0.6-5.2,6-5.2c7,0,7.3,3.1,5.4,5.5
				C260.8,155.3,257.3,156.5,257.3,156.5z"/>
			<path class="st105" d="M257.3,156.5v5.4c-1.1,0.3-2.1,0.7-3.1,1.2c-5.9,3.2-11.6-4.4-6.9-9.2c0.9-1,2.1-1.8,3.6-2.6"/>
			<path class="st105" d="M257.3,156.5v5.4c1.3,0.3,2.4,0.8,3.5,1.4c5.1,2.9,10.7-3.2,7.4-8c-1.2-1.7-2.9-3.1-5.4-4"/>
			<path class="st105" d="M252.2,164.4c0,0,2.3,1.2,4.8,1.2c2.3,0,5.8-1,5.8-1"/>
			<g>
				<path class="st106" d="M235.8,138.4c-2.8,0-6.4,0.7-8.4,3.6c-2.8,4.3,0.6,9.7,7.4,9.8c6.8,0.1,10.6-3.4,9.4-7.9
					S237.5,138.4,235.8,138.4z"/>
				<ellipse class="st22" cx="235.8" cy="144.9" rx="4.5" ry="5.7"/>
			</g>
			<g>
				<path class="st106" d="M279.4,138.4c2.8,0,6.4,0.7,8.4,3.6c2.8,4.3-0.6,9.7-7.4,9.8c-6.8,0.1-10.6-3.4-9.4-7.9
					S277.7,138.4,279.4,138.4z"/>
				<ellipse class="st22" cx="279.4" cy="144.9" rx="4.4" ry="5.7"/>
			</g>
			<path class="st80" d="M207.6,257.2c0,0,7.4,47.1,10.4,48.5"/>
			<path class="st80" d="M248.8,305.6c0,0,0.5-6.8-4.3-9.6c-4.8-2.7-4.8-4.8-5.3-15.8c-0.5-10.9,0-61.1,0-61.1"/>
			<path class="st80" d="M291.3,305.6c0,0,3.9-2.7,10.9-50.9"/>
			<path class="st80" d="M241.6,305.7c0,0,0.3-4.1-2.1-6.2"/>
			<path class="st80" d="M231.2,305.6c0,0-0.5-2.3-2.2-3"/>
			<path class="st80" d="M271.1,305.6c0,0-0.6-3.8,1.6-6.1"/>
			<path class="st80" d="M279.9,305.6c0,0,0.3-3.6,1.6-4.7"/>
			<path class="st80" d="M327.3,290.9c0,0-10.8-2.6-17.7,3.1"/>
			<path class="st80" d="M326.2,298.3c0,0,1.1,5.5-0.3,7.4"/>
			<path class="st80" d="M317.5,305.6c0,0-1.1-2.9-0.2-5.9"/>
			<path class="st80" d="M192.8,290.6c0,0,4.9-1.8,9.4,0"/>
			<path class="st80" d="M191.8,305.6c0,0-1-4.6,1-6.5"/>
			<path class="st80" d="M199.5,305.6c0,0,1.1-2.4,1.7-4.5"/>
			<path class="st107" d="M323,234.4c-11.6,1.6-24-7.1-26.2-22.7c-1.9-13.4,4.9-21.5,8.2-24.6c4.4,9.3,11,24.8,16.8,43.4
				C322.2,231.8,322.6,233.1,323,234.4z"/>
			<path class="st35" d="M327.9,264.5c-3.8-1.2-7.1-4.4-7.4-9.8c-0.3-5.5,2.2-8.9,4.8-10.8C326.7,251.2,327.5,258.2,327.9,264.5z"/>
			<path class="st80" d="M272.8,219.2c0,0-0.5,70-4.2,74c-3.6,4.1-7.1,7.1-5.6,12.3"/>
			<path class="st35" d="M237.1,125.6c-8,6.6-19.8,4.8-25.9,3.2c4.5-8.7,11-16.5,17.7-21.1c6.6-4.6,12.9-6.8,19.6-7.6l0,0
				C248.5,100.1,249.8,115.1,237.1,125.6z"/>
			<g>
				<defs>
					<path id="SVGID_00000115480207684924490250000015542502675905953722_" d="M305.4,187.9c-19,3-28.2-2.2-28.2-2.2
						c15.3-2.6,23.1-8.1,23.1-8.1s1.9,3.4,4.7,9.5C305.1,187.3,305.2,187.6,305.4,187.9z"/>
				</defs>
				<clipPath id="SVGID_00000094602223375149044410000011229332273523652006_">
					<use xlink:href="#SVGID_00000115480207684924490250000015542502675905953722_"  style="overflow:visible;"/>
				</clipPath>
				<g style="opacity:0.88;clip-path:url(#SVGID_00000094602223375149044410000011229332273523652006_);">
					<g>
						<g>
							<g>
								<path class="st87" d="M294,183.9c0-0.1,0-0.2,0-0.3C293.9,183.7,293.9,183.7,294,183.9z"/>
								<path class="st87" d="M287.5,185.2C287.5,185.2,287.4,185.3,287.5,185.2L287.5,185.2L287.5,185.2z"/>
								<path class="st87" d="M287.5,185.3l0,0.3C287.5,185.5,287.5,185.4,287.5,185.3z"/>
								<path class="st87" d="M293.8,181.8c0-0.1,0-0.2,0-0.4L293.8,181.8z"/>
								<path class="st87" d="M292.8,180.8c0-0.1-0.1-0.1-0.1-0.1C292.7,180.8,292.8,180.8,292.8,180.8z"/>
								<path class="st87" d="M299.9,182.3c0,0,0,0.1,0,0.1C299.9,182.4,299.9,182.3,299.9,182.3z"/>
								<path class="st87" d="M300.1,181.7C300.1,181.7,300.2,181.6,300.1,181.7l0.1-0.1C300.1,181.5,300.1,181.6,300.1,181.7z"/>
								<path class="st87" d="M299.7,181.4L299.7,181.4C299.8,181.3,299.8,181.3,299.7,181.4z"/>
								<path class="st87" d="M300.8,176.8l-0.1-0.3C300.7,176.7,300.7,176.8,300.8,176.8z"/>
								<path class="st87" d="M300,182.7c0-0.1,0-0.2,0-0.3C299.9,182.5,299.9,182.6,300,182.7z"/>
								<path class="st87" d="M294,184.1c0-0.1,0-0.1,0-0.1C294,184,294,184,294,184.1z"/>
								<path class="st87" d="M294.2,181.7L294.2,181.7C294.2,181.7,294.2,181.7,294.2,181.7z"/>
								<path class="st87" d="M285.1,185.9c-0.1,0-0.1,0.1-0.2,0.1C285.1,186.1,285.1,186.1,285.1,185.9z"/>
								<path class="st87" d="M298.1,182.4c-0.4-0.8,0.2-0.1-0.2-0.9c0,0.2-0.1,0.4-0.3,0c-0.1-0.5,0.3-0.1,0-0.8l0,0.3
									c-0.3-0.3-0.4-0.9-0.4-0.8c0.3,1-0.6-0.2-0.7,0.1l0-0.1l-0.4-0.3c0,0,0,0,0-0.1c0,0.1,0,0.1,0.1,0.2
									c-0.3-0.4-0.6-0.7-0.8-0.5c0.2,0.6-0.5,0.4-0.4,0.9c0-0.2,0.1-0.2,0.3-0.1l0.3,0.7c-0.2,0.1-0.3-0.6-0.3-0.1
									c0.4,0.9,0.3-0.1,0.4-0.1c0,0.2,0,0.4,0,0.6c0.3-0.1,0.7,0.1,0.5-0.8c0.2,0.2,0.3,0.5,0.3,0.7c0-0.6,0.4,0.4,0.3-0.1
									c0.3,0.9-0.2,0.6-0.2,1.1c-0.5-0.6-0.6,0.2-0.8,0.4c-0.3-0.6-0.3-1.2-0.5-1.5c-0.4-0.3-0.1,0.4-0.2,0.9
									c-0.3-0.1-0.4-1-0.7-0.9l0-0.5c-0.5-0.8,0,0.4-0.2,0.3c0.1,0.2,0.2,0.4,0.4,0.3c0.1,0.3,0.1,0.5,0,0.5l0,0
									c0.1,0.4,0.3,0.9,0,0.8c-0.1-0.6-0.3-0.3-0.4-0.6l0-0.1c-0.1,0.2-0.3,0.2-0.3,0.3l0-0.1c0,0.2,0.2,0.9,0,0.8
									c-0.1-0.3-0.1-1-0.3-0.9c-0.1-0.4,0.1-0.5,0.3-0.4c-0.2-0.1-0.5-0.7-0.3-0.8c-0.2-0.5-0.1,0.3-0.3,0.1
									c0.1,0.1,0.1,0.3,0.2,0.5c-0.2-0.7-0.4,0.1-0.2,0.5l0.1-0.4c0.2,0.5,0.1,1,0.3,1.2c-0.4-0.8-0.4,0.6-0.7-0.1l0.2,0.4
									c-0.5-0.1-0.5,1-0.8,1.3c0.1-0.3-0.2-1.2,0.1-1c-0.4-0.1-0.4-0.9-0.7-1.3c-0.4-0.3,0.1,0.9,0.1,1.2l0.1-0.2
									c0.1,1.2-0.8,0-1,0.8c-0.1-0.3,0-0.2,0.1-0.3c-0.4-0.5-0.1,0.2-0.2,0.4c-0.2,0-0.5-0.2-0.6-0.9c-0.3-0.1,0.1,0.4,0.1,0.7
									l-0.1-0.1l0,0.8c-0.2-0.2-0.6-0.5-0.8-1.1c-0.4,0.2,0.3,1.6,0.1,1.9c-0.3-0.3-0.1-0.5-0.2-0.8l-0.3,0.1
									c-0.1-0.8,0.2-0.5-0.1-1.4c0,1-0.2,0.3-0.4,1l0,0.1c0,0.7-0.4,0.3-0.6,0.5c0-0.4,0.2-0.5,0.3-0.7c-0.3-0.3-0.7,0.2-0.7,1
									c-0.1-0.1-0.5-0.4-0.4-0.7c-0.4,0,0.1,1.2-0.3,1l-0.1-0.6c-0.6-0.8-0.6,1-1.1,0.2l0.1,0.8c-0.1-0.3-0.3-0.4-0.4-0.7l0.1-0.3
									c-0.3-0.6-0.1,0.6-0.3,0.2c0,0.2,0.3,0.7,0.4,1c0.7-0.6,1.8,0.3,2.4-0.7c-0.1-0.1-0.1-0.2-0.1-0.3c0.1,0.2,0.2-0.1,0.3,0.3
									l0,0.1c0.2-0.2,0.6,0.6,0.7,0.6c-0.1-0.5,0.5,0.1,0.2-0.7l0.3,0.5c0-0.3-0.2-0.7-0.1-0.9c0.2,0,0.3,0.4,0.2,0.6
									c0.6,0.2,1.3-0.1,1.8-0.5l0,0.4c0.2,0.2,0.3-0.9,0.5,0.2c0.1-0.5,0.8,0.1,0.5-1c0.5,1,0.8,0.2,1.1,0
									c-0.4-0.9,0.2-0.4,0.2-0.8c0.3,0.7-0.1,0.8,0.1,1.3c0-1.2,1.4,0.4,0.9-1.4c0.1,0.1,0.1,0.1,0.1,0.2c0.1,0,0.3,0.2,0.4,0.3
									c-0.1-0.3-0.3-0.4-0.2-0.6c0.2,0,0.3,0.5,0.4,0.7c0.1-0.5,0.5-0.8,0.2-1.6c0.2,0.2,0.4,0.5,0.4,0.7c0.2-0.7,0.4-0.1,0.7-0.6
									c-0.1,0.1,0.2,0.8-0.1,0.6c0.6,0.9,0.6-0.4,1.1-0.1l-0.1-0.7c0.2-0.2,0.4,0.4,0.4,0.7c0.5,0.2,0.5-0.2,0.8-0.4
									c0.1,0.1,0.1,0.2,0,0.2l0.4-0.2c0-0.2,0-0.6-0.2-0.9C298.4,182.3,298.4,182.6,298.1,182.4z"/>
								<path class="st87" d="M298.2,181.9L298.2,181.9L298.2,181.9C298.2,181.9,298.2,181.9,298.2,181.9z"/>
								<path class="st87" d="M293.7,180.6c0.1,0.1,0.2,0.2,0.2,0.2C293.8,180.7,293.7,180.6,293.7,180.6z"/>
								<path class="st87" d="M301.2,179.1c-0.5-0.9-0.1,0.3-0.4,0.1c0.1-0.2-0.2-0.7-0.4-1c0.4,1.3-0.3-0.1-0.6,0.3
									c-0.2-0.4-0.1-0.5-0.3-1c0,0.4-0.2,0.7,0.1,1.4c-0.3,0.2-0.7,0-0.8,0.2c0.1-0.4-0.3-0.7-0.4-1.4c0.2,0.9,0.1,2.1,0.2,3.3
									c-0.4-0.7-0.4-0.8-0.7-1.5c-0.6-0.3,0.2,0.8-0.3,0.7l0.2,0.1c-0.1,0.3,0.2,1,0.4,1.6l0.4-0.3c0.2,0.5-0.1,0.6-0.1,0.7
									c0.1,0.7,0.4,0.3,0.6,0.8c-0.1-0.4,0.1-0.4,0.2-0.6l0.1,0.3c0.4,0.2,0.1-0.6,0.3-0.6c0.1,0.1,0.1,0.1,0.1,0.2
									c-0.1-0.3-0.2-0.8-0.1-0.9l-0.1,0.1c-0.2-0.7,0-1.3-0.6-1.9l0.5,0c0.3,0.7,0.8,1.9,0.5,2.1l0.1,0.3c0.4,0.3,0.3-0.8-0.2-1.4
									c-0.7-1.8,0.7-0.4,0.6-1.3c0.3,0.5,0.2,0.7,0.3,1.1c-0.1,0.1-0.1,0.2-0.3-0.2c-0.3,0.5,0.8,1.4,0.3,1.5
									c-0.4-0.1-0.1-0.9-0.5-0.8l0.4,1.4c0.2-0.1,0.3-0.5,0.4-0.7c0.5-1.4,1.6-1,1.6-1c1.3-0.9,2.6-1.9,3.9-2.9
									c0.3-0.5,0.5-0.5-0.2-1.8c-0.3-0.2-0.4,0.1-0.6-0.4c0.3,0.5,0.3,0.8,0,0.9c-0.3-0.4,0-0.3-0.1-0.4l-0.1,0
									c-0.1-0.2-0.2-0.4-0.1-0.5c-0.7-0.5-1-0.1-0.6,0.9c-0.5-0.3-0.3-0.8-0.5-1.2c-0.9,0.1-1.3,0.4-2,0.8
									c0.5,0.8,0.2,0.5,0.5,1.2l-0.2-0.3c0.1,0.1,0.3,0.7,0.6,0.8c-0.8-0.4,0.1,1.3,0,1.9l-0.2-0.4c-0.2,0.2-0.3,0.3-0.3,0.6
									c-0.8-0.6,0.3-0.3-0.4-1.3l0,0.2c-0.2-0.4-0.5-1.2-0.5-1.5c0,0.9-0.6,0-0.7,0.7c-0.2-0.5-0.1-1,0-1.2
									c-0.2,0-0.2,0.5-0.4,0.1l0.3,0.6c-0.2,0.2-0.3-0.6-0.5-0.9C300,176.9,301.5,178.5,301.2,179.1z"/>
								<path class="st87" d="M295.3,181.4c0.1,0,0.1,0,0.2-0.1C295.4,181.3,295.3,181.3,295.3,181.4z"/>
								<path class="st87" d="M295.9,179.8c0-0.1-0.1-0.2-0.1-0.2C295.9,179.6,295.9,179.7,295.9,179.8z"/>
								<path class="st87" d="M295.7,178.9c0.1,0.3,0.1,0.3,0.2,0.7C295.8,179.3,296,179.2,295.7,178.9z"/>
								<path class="st87" d="M277,183.6c0,0.2-0.2,0.4-0.1,0.6l0.2-0.3L277,183.6z"/>
								<path class="st87" d="M277.5,184.3l0.2,0.2l0.1-0.9C277.6,183.7,277.7,184.3,277.5,184.3z"/>
								<path class="st87" d="M278.2,184.8l0,0.2C278.2,184.9,278.2,184.8,278.2,184.8z"/>
								<path class="st87" d="M278.2,184.4l0-0.7l-0.3,0.5L278.2,184.4c-0.1,0.2,0,0.3,0,0.4L278.2,184.4
									C278.2,184.4,278.2,184.5,278.2,184.4z"/>
								<path class="st87" d="M278.4,184.3c0-0.1,0-0.1,0-0.2C278.4,184.2,278.4,184.3,278.4,184.3z"/>
								<path class="st87" d="M279.1,185.5c-0.1-0.2,0-0.6,0-0.9c-0.3-0.2-0.2,0.7-0.4,0.5c0.3-0.5-0.2-0.4-0.3-0.7
									c0.1,0.6,0.3,1,0.5,1.2l0-0.4C279,185.1,279,185.3,279.1,185.5z"/>
								<path class="st87" d="M280.2,184.4l-0.1,0.6c-0.1-0.3-0.4-0.3-0.4-0.9c-0.1,0.1-0.1,0.4-0.1,0.6c-0.1-0.3-0.2-0.6-0.3-0.1
									c0.5,0.4,0.4,0.5,0.8,0.7c0,0.1,0,0.1-0.1,0.1l0.3,0.3C280.2,184.9,280.5,184.8,280.2,184.4z"/>
								<path class="st87" d="M280.7,184.8c-0.2,0.1-0.2,0.7-0.1,1l0.4-0.6C280.8,185.3,280.7,185.4,280.7,184.8z"/>
								<path class="st87" d="M280.9,184.8c0.1,0.3,0.4,1,0.4,0.3C281.1,185.2,281.1,184.3,280.9,184.8z"/>
								<path class="st87" d="M282.5,185.1l-0.5-0.3c-0.2-0.8,0.1-0.3,0.2-0.7c-0.4-0.1-0.2,0.1-0.4,0.7c-0.1,0-0.2,0.4-0.3,0.6
									C282,184.7,282.3,186.7,282.5,185.1z"/>
								<polygon class="st87" points="281.6,184.4 281.6,184.8 281.7,184.5 								"/>
								<path class="st87" d="M283.6,185.9c0.4,0.9,0.4-0.6,0.7-0.3c0,0.1,0,0.1,0,0.3l0.2-0.1l0.1,0.2c-0.1-0.6,0.1-0.8,0.1-1.3
									c-0.4-0.6,0,0.7-0.3,0.1c0-0.3,0-0.7,0-0.9c-0.1,0.3,0,0.7,0,1c-0.1,0.1-0.2-0.2-0.2-0.5c-0.1,0.4,0.1,1.2-0.2,1.1
									c-0.3-0.5,0-0.8-0.3-0.5c0.3,0.9-0.3-0.1-0.3,0.5c-0.2-0.1-0.5-0.7-0.5-1c0.1,0.7,0,1.3-0.1,1.6l0.3-0.6l0.3,0.8
									C283.2,185.7,283.4,185.7,283.6,185.9L283.6,185.9z"/>
								<path class="st87" d="M284.3,183.8c0-0.1,0-0.1,0-0.2C284.3,183.7,284.3,183.7,284.3,183.8z"/>
								<polygon class="st87" points="282.6,184.2 282.6,184 282.5,183.7 								"/>
								<path class="st87" d="M284.3,183.2c-0.1,0,0,0.3,0,0.3l0-0.4L284.3,183.2z"/>
								<polygon class="st87" points="284.6,183.7 284.9,184.2 284.9,183.8 								"/>
								<path class="st87" d="M289.5,183c-0.2-0.2-0.1,0.3,0,0.7C289.8,183.7,289.4,183.2,289.5,183z"/>
								<path class="st87" d="M292.2,181.4c-0.3-0.3-0.3,0.3-0.4,0.3C292,181.9,292.2,181.7,292.2,181.4z"/>
								<path class="st87" d="M292.7,179.1c0,0.2,0,0.3,0.1,0.3l0.2,1C293.4,180.7,292.9,179.5,292.7,179.1z"/>
								<path class="st87" d="M294,178.4l-0.1,0.4l0.1,0c0.1,0.4,0.1,0.6,0.2,0.9C294.3,179.5,294.3,179.1,294,178.4z"/>
								<path class="st87" d="M294.1,180.1C294.1,180,294.2,180,294.1,180.1C294.1,179.9,294,179.7,294.1,180.1z"/>
								<path class="st87" d="M294.3,179.9c0,0,0-0.1,0-0.1C294.2,179.9,294.2,179.9,294.3,179.9
									C294.2,180.1,294.3,180.1,294.3,179.9z"/>
								<path class="st87" d="M294.4,178.8l0.3-0.3l-0.2-0.1C294.7,179.1,294.2,178.2,294.4,178.8z"/>
								<path class="st87" d="M296.5,178.5l0.3,0.5c0.3,0,0-1.3,0.6-0.5c-0.3-0.3-0.1-0.7-0.5-0.8
									C297.1,178.4,296.8,178.6,296.5,178.5z"/>
								<path class="st87" d="M297.8,178.9c0,0.2,0.1,0.3,0.3,0.4c0.1,0,0.1-0.3-0.1-0.5C298.2,179.6,297.7,178.4,297.8,178.9z"/>
								<path class="st87" d="M298.9,178.4c-0.1,0-0.1,0.1,0,0.2c0.2-0.1-0.2-0.7-0.3-1.2C298.3,177.2,298.6,178.1,298.9,178.4z"/>
								<path class="st87" d="M302.6,181.5c-0.3-0.5-0.4-0.3-0.4-0.1C302.2,181.3,302.4,181.4,302.6,181.5z"/>
								<polygon class="st87" points="300.6,177.7 300.4,177.6 300.8,178.3 								"/>
								<polygon class="st87" points="301.6,176.6 301.4,176.1 301.3,176.3 								"/>
								<path class="st87" d="M301.8,176.6l0.2-0.1l-0.2-0.1C301.7,176.2,301.9,176.6,301.8,176.6z"/>
								<path class="st87" d="M302.4,176.2c0,0.1-0.1,0-0.1-0.1l0,0.4L302.4,176.2z"/>
								<path class="st87" d="M307.3,176.9c0.3,0.5,0.3,0.1,0.4,0.1C307.7,176.9,307.1,176.4,307.3,176.9z"/>
							</g>
						</g>
					</g>
				</g>
			</g>
			<g>
				<defs>
					<path id="SVGID_00000165925349391278766910000002558578176941677962_" d="M238.7,184.5c0,0-16.4,5.4-25.6,5
						c4-8.5,7-13.1,7-13.1S225.9,181.8,238.7,184.5z"/>
				</defs>
				<clipPath id="SVGID_00000010308335878579791420000015382582322529160598_">
					<use xlink:href="#SVGID_00000165925349391278766910000002558578176941677962_"  style="overflow:visible;"/>
				</clipPath>
				<g style="opacity:0.88;clip-path:url(#SVGID_00000010308335878579791420000015382582322529160598_);">
					<g>
						<g>
							<g>
								<path class="st87" d="M227,179.9c0,0.1-0.1,0.1-0.2,0.2C226.8,180.1,226.9,180.1,227,179.9z"/>
								<path class="st87" d="M232.8,182.4C232.8,182.4,232.8,182.4,232.8,182.4L232.8,182.4L232.8,182.4z"/>
								<path class="st87" d="M232.8,182.3l0.1-0.3C232.8,182.1,232.8,182.2,232.8,182.3z"/>
								<path class="st87" d="M225.7,181.6c-0.1,0-0.2,0.1-0.3,0.3L225.7,181.6z"/>
								<path class="st87" d="M225.9,183c0,0.1,0,0.1,0,0.2C225.9,183.1,225.9,183.1,225.9,183z"/>
								<path class="st87" d="M222.1,177C222.1,177,222.1,176.9,222.1,177C222.1,176.9,222.1,176.9,222.1,177z"/>
								<path class="st87" d="M221.5,177.3C221.5,177.2,221.4,177.2,221.5,177.3l-0.1,0C221.3,177.3,221.4,177.3,221.5,177.3z"/>
								<path class="st87" d="M221.5,177.7L221.5,177.7C221.4,177.7,221.4,177.7,221.5,177.7z"/>
								<path class="st87" d="M217.2,179.5l-0.2,0.3C217.1,179.7,217.2,179.6,217.2,179.5z"/>
								<path class="st87" d="M222.3,176.7c-0.1,0-0.1,0.1-0.2,0.2C222.2,176.8,222.3,176.8,222.3,176.7z"/>
								<path class="st87" d="M227,179.8c0,0.1,0,0.1-0.1,0.1C227,179.9,227,179.8,227,179.8z"/>
								<path class="st87" d="M225.3,181.4L225.3,181.4C225.4,181.4,225.4,181.4,225.3,181.4z"/>
								<path class="st87" d="M235.1,182.8c0.1,0,0.1,0,0.2-0.1C235.2,182.6,235.2,182.6,235.1,182.8z"/>
								<path class="st87" d="M223.2,178.3c-0.3,0.9-0.2-0.1-0.6,0.8c0.2-0.1,0.3-0.2,0.2,0.2c-0.3,0.4-0.2-0.1-0.6,0.5l0.3-0.2
									c0,0.4-0.4,0.9-0.3,0.9c0.6-0.9,0.3,0.6,0.5,0.5l-0.1,0.1l0,0.6c0,0,0,0,0,0.1c0-0.1,0.1-0.1,0.1-0.2
									c-0.1,0.5-0.1,0.9,0.2,0.9c0.3-0.5,0.7,0.1,1-0.3c-0.1,0.1-0.2,0.1-0.3-0.1l0.3-0.6c0.2,0.1-0.2,0.6,0.1,0.3
									c0.3-0.9-0.3-0.1-0.4-0.3c0.1-0.2,0.3-0.3,0.4-0.4c-0.3-0.1-0.4-0.5-0.9,0.3c0-0.2,0.2-0.6,0.3-0.6
									c-0.4,0.4,0.1-0.6-0.3-0.2c0.4-0.8,0.6-0.3,0.9-0.7c0,0.8,0.5,0.3,0.9,0.2c-0.2,0.6-0.6,1.1-0.7,1.5
									c0.1,0.5,0.4-0.2,0.7-0.5c0.1,0.3-0.4,1-0.1,1.2l-0.3,0.3c-0.2,0.9,0.3-0.3,0.4,0c0-0.2,0.1-0.5,0-0.5
									c0.1-0.3,0.3-0.4,0.3-0.4l0,0c0.2-0.4,0.4-0.8,0.5-0.6c-0.3,0.5,0,0.4,0,0.7l-0.1,0.1c0.2-0.1,0.3,0,0.5-0.1l-0.1,0.1
									c0.2-0.2,0.5-0.8,0.6-0.6c-0.1,0.3-0.6,0.9-0.3,0.8c-0.2,0.4-0.4,0.3-0.5,0.1c0.1,0.2,0,0.9-0.3,0.8
									c-0.1,0.5,0.3-0.1,0.3,0.1c0-0.2,0.1-0.3,0.2-0.5c-0.2,0.7,0.4,0.2,0.5-0.3l-0.3,0.3c0.2-0.5,0.5-0.8,0.6-1.1
									c-0.2,0.9,0.6-0.2,0.5,0.5l0.1-0.5c0.3,0.4,0.9-0.5,1.4-0.6c-0.2,0.2-0.5,1.2-0.7,0.8c0.3,0.3-0.2,1-0.2,1.5
									c0.2,0.4,0.4-0.8,0.6-1.1l-0.3,0.1c0.6-1,0.7,0.5,1.3-0.1c-0.1,0.3-0.1,0.1-0.2,0.2c0,0.6,0.2-0.1,0.4-0.2
									c0.2,0.1,0.3,0.5,0,1.1c0.2,0.2,0.1-0.4,0.3-0.6l0,0.2l0.4-0.7c0.1,0.3,0.2,0.7,0.1,1.4c0.5,0,0.6-1.5,1-1.7
									c0.1,0.4-0.2,0.5-0.3,0.8l0.3,0c-0.3,0.7-0.4,0.3-0.7,1.2c0.5-0.9,0.4-0.2,0.8-0.7l0-0.1c0.3-0.6,0.5-0.1,0.7-0.1
									c-0.2,0.4-0.4,0.3-0.5,0.5c0.1,0.4,0.7,0.2,1.1-0.6c0.1,0.2,0.2,0.5,0,0.8c0.4,0.2,0.4-1.1,0.7-0.8l-0.2,0.6
									c0.2,1,0.9-0.6,1.1,0.2l0.2-0.7c0,0.3,0.1,0.5,0.1,0.8l-0.2,0.2c0,0.7,0.3-0.6,0.4-0.1c0-0.2,0-0.8,0-1
									c-0.9,0.3-1.4-0.9-2.3-0.4c0,0.1,0,0.2,0,0.3c0-0.2-0.2,0-0.1-0.4l0,0c-0.2,0.1-0.2-0.8-0.3-0.9c-0.2,0.5-0.4-0.3-0.5,0.6
									l0-0.6c-0.1,0.3-0.2,0.7-0.3,0.9c-0.1-0.1,0-0.4,0.1-0.6c-0.4-0.5-1.1-0.6-1.7-0.5l0.3-0.4c-0.1-0.2-0.7,0.6-0.3-0.4
									c-0.4,0.3-0.6-0.5-1,0.6c0.2-1.1-0.5-0.6-0.9-0.6c-0.2,0.9-0.4,0.1-0.6,0.5c0.2-0.7,0.5-0.6,0.7-1.1c-0.7,1-0.7-1.1-1.5,0.6
									c0-0.1,0-0.2,0-0.2c-0.1,0,0-0.4-0.1-0.5c-0.2,0.3-0.1,0.5-0.3,0.5c-0.1-0.1,0.2-0.6,0.2-0.8c-0.4,0.3-0.9,0.3-1.2,1
									c0-0.2,0.1-0.7,0.2-0.8c-0.6,0.4-0.3-0.3-0.9-0.1c0.2,0,0.4-0.7,0.5-0.3c0.2-1.1-0.7-0.1-0.8-0.7l-0.4,0.6
									c-0.2,0,0-0.6,0.2-0.8c-0.2-0.5-0.5-0.2-0.7-0.3c0-0.1,0.1-0.2,0.1-0.2l-0.3-0.2c-0.1,0.1-0.4,0.4-0.5,0.8
									C223,178.1,223.1,177.9,223.2,178.3z"/>
								<path class="st87" d="M222.8,178.4L222.8,178.4L222.8,178.4C222.7,178.5,222.8,178.5,222.8,178.4z"/>
								<path class="st87" d="M225,182.6c0-0.2,0-0.3,0-0.3C225,182.4,225,182.5,225,182.6z"/>
								<path class="st87" d="M218.8,177.9c-0.4,1,0.3,0,0.3,0.3c-0.2,0.1-0.5,0.6-0.6,0.9c0.8-1.1,0.1,0.4,0.6,0.3
									c-0.2,0.4-0.4,0.4-0.6,0.8c0.3-0.2,0.7-0.2,1.1-0.9c0.3,0.1,0.4,0.5,0.7,0.5c-0.4,0.2-0.4,0.7-0.8,1.2
									c0.6-0.7,1.6-1.4,2.4-2.2c-0.3,0.8-0.3,0.9-0.7,1.5c0.2,0.7,0.4-0.6,0.7-0.3l-0.1-0.2c0.3-0.1,0.6-0.9,0.9-1.3l-0.5-0.1
									c0.2-0.5,0.5-0.3,0.6-0.4c0.4-0.6,0-0.5,0.2-1c-0.2,0.4-0.4,0.2-0.5,0.3l0.1-0.3c-0.1-0.4-0.5,0.3-0.7,0.2
									c0-0.1,0-0.1,0.1-0.2c-0.2,0.3-0.5,0.6-0.6,0.7l0.1,0c-0.5,0.6-1.1,0.8-1.2,1.7l-0.3-0.4c0.4-0.7,1-1.8,1.3-1.7l0.2-0.3
									c0-0.5-0.8,0.3-1,1c-1.1,1.6-0.7-0.3-1.4,0.3c0.2-0.5,0.5-0.6,0.7-0.9c0.1,0,0.2,0,0,0.4c0.5-0.1,0.7-1.5,1-1.1
									c0.1,0.3-0.7,0.6-0.4,0.8l0.9-1.2c-0.2-0.1-0.5,0.1-0.7,0.1c-1.3,0.4-1.6-0.7-1.6-0.7c-1.4-0.6-2.7-1.2-4-1.9
									c-0.5-0.1-0.6-0.2-1.6,0.8c-0.1,0.3,0.2,0.4-0.1,0.7c0.4-0.4,0.7-0.5,0.8-0.4c-0.3,0.4-0.3,0.1-0.3,0.2l0,0.1
									c-0.2,0.2-0.3,0.3-0.4,0.3c-0.2,0.8,0.3,1,1.1,0.3c-0.1,0.6-0.6,0.6-0.9,0.9c0.5,0.8,1,1,1.7,1.5c0.5-0.8,0.4-0.5,0.8-0.9
									l-0.1,0.3c0.1-0.2,0.5-0.7,0.4-0.9c0,0.9,1.1-0.8,1.6-1l-0.3,0.4c0.3,0.1,0.3,0.1,0.7,0c-0.1,1-0.4-0.1-0.9,1l0.2-0.1
									c-0.3,0.4-0.7,1-1,1.2c0.7-0.5,0.4,0.6,1.1,0.3c-0.3,0.4-0.9,0.6-1,0.6c0.1,0.1,0.5-0.1,0.3,0.4l0.3-0.6
									c0.3,0.1-0.3,0.5-0.5,0.9C217.7,180.1,218.2,178,218.8,177.9z"/>
								<path class="st87" d="M224.4,180.9c0-0.1-0.1-0.1-0.2,0C224.2,180.9,224.3,180.9,224.4,180.9z"/>
								<path class="st87" d="M222.7,181.6c0,0.1-0.1,0.2-0.1,0.2C222.7,181.8,222.7,181.7,222.7,181.6z"/>
								<path class="st87" d="M222.3,182.4c0.1-0.3,0.2-0.3,0.4-0.6C222.5,182,222.3,181.9,222.3,182.4z"/>
								<path class="st87" d="M242.4,187.2c0.1-0.2,0.2-0.4,0.2-0.5l-0.3,0.2L242.4,187.2z"/>
								<path class="st87" d="M242,186.4l-0.2-0.3l-0.2,0.9C241.8,187,241.7,186.4,242,186.4z"/>
								<path class="st87" d="M241.3,185.8l0.1-0.2C241.4,185.7,241.3,185.8,241.3,185.8z"/>
								<path class="st87" d="M241.3,186.2l-0.2,0.7l0.4-0.5L241.3,186.2c0.1-0.2,0-0.3,0-0.4l-0.2,0.5
									C241.2,186.2,241.3,186.1,241.3,186.2z"/>
								<path class="st87" d="M241,186.2c0,0.1,0,0.1,0,0.2C241,186.3,241,186.3,241,186.2z"/>
								<path class="st87" d="M240.6,184.9c0,0.2-0.1,0.6-0.2,0.9c0.2,0.3,0.3-0.7,0.5-0.4c-0.4,0.5,0.1,0.4,0.1,0.8
									c0-0.6-0.1-1.1-0.3-1.3l-0.1,0.4C240.5,185.4,240.6,185.1,240.6,184.9z"/>
								<path class="st87" d="M239.2,185.8l0.3-0.6c0,0.3,0.3,0.3,0.2,1c0.1-0.1,0.2-0.4,0.3-0.5c0,0.3,0.1,0.6,0.2,0.1
									c-0.4-0.5-0.3-0.6-0.6-0.8c0-0.1,0.1-0.1,0.1-0.1l-0.2-0.4C239.3,185.3,239,185.3,239.2,185.8z"/>
								<path class="st87" d="M238.9,185.3c0.2,0,0.4-0.6,0.3-1l-0.5,0.4C238.9,184.7,239,184.7,238.9,185.3z"/>
								<path class="st87" d="M238.6,185.2c0-0.3-0.1-1-0.3-0.4C238.5,184.7,238.3,185.6,238.6,185.2z"/>
								<path class="st87" d="M237.2,184.4l0.3,0.5c-0.1,0.8-0.2,0.2-0.4,0.6c0.3,0.2,0.3-0.1,0.6-0.5c0.1,0.1,0.3-0.3,0.4-0.5
									C237.5,185,237.8,183,237.2,184.4z"/>
								<polygon class="st87" points="237.9,185.4 238,185 237.7,185.3 								"/>
								<path class="st87" d="M236.4,183.4c-0.1-1-0.5,0.4-0.7,0c0,0,0-0.1,0.1-0.2l-0.2,0.1l0-0.2c-0.1,0.6-0.4,0.7-0.6,1.2
									c0.1,0.7,0.3-0.7,0.3,0c-0.1,0.2-0.2,0.6-0.3,0.8c0.2-0.3,0.3-0.6,0.4-0.9c0.2,0,0.1,0.3,0,0.5c0.2-0.3,0.4-1.1,0.6-0.9
									c0.1,0.5-0.2,0.8,0.1,0.6c0-0.9,0.3,0.2,0.5-0.4c0.2,0.2,0.2,0.8,0.1,1.1c0.1-0.7,0.4-1.3,0.6-1.5l-0.5,0.5l0-0.8
									C236.7,183.7,236.6,183.6,236.4,183.4L236.4,183.4z"/>
								<path class="st87" d="M235.1,185c0,0-0.1,0.1-0.1,0.1C235,185.1,235,185.1,235.1,185z"/>
								<polygon class="st87" points="236.8,185.3 236.7,185.5 236.7,185.7 								"/>
								<path class="st87" d="M234.8,185.5c0,0,0.1-0.2,0.1-0.3l-0.2,0.4L234.8,185.5z"/>
								<polygon class="st87" points="234.6,185 234.6,184.5 234.5,184.8 								"/>
								<path class="st87" d="M229.9,183.3c0.1,0.3,0.2-0.2,0.4-0.6C230.1,182.5,230.1,183.1,229.9,183.3z"/>
								<path class="st87" d="M226.7,183c0,0.4,0.4-0.1,0.5,0C227.2,182.7,226.9,182.8,226.7,183z"/>
								<path class="st87" d="M224.7,184.4c0.1-0.2,0.2-0.2,0.1-0.3l0.5-0.9C225.3,182.7,224.9,184,224.7,184.4z"/>
								<path class="st87" d="M223.2,183.9l0.4-0.3l-0.1-0.1c0.2-0.4,0.3-0.5,0.5-0.8C223.8,182.9,223.5,183.2,223.2,183.9z"/>
								<path class="st87" d="M224.3,182.7c0,0-0.1,0-0.1,0C224.2,182.8,224.1,183,224.3,182.7z"/>
								<path class="st87" d="M224.1,182.7C224.1,182.7,224.1,182.8,224.1,182.7C224.1,182.8,224.2,182.7,224.1,182.7
									C224.2,182.6,224.2,182.6,224.1,182.7z"/>
								<path class="st87" d="M223.2,183.4l-0.4-0.1l0.1,0.2C223.1,183,222.9,184,223.2,183.4z"/>
								<path class="st87" d="M221.3,182l0.2-0.6c-0.2-0.2-1.1,0.8-0.8-0.1c0,0.4-0.5,0.5-0.3,0.8
									C220.8,181.7,221.2,181.8,221.3,182z"/>
								<path class="st87" d="M220.8,180.7c0.1-0.1,0.1-0.3,0.2-0.5c-0.1-0.1-0.3,0.1-0.3,0.4C221,179.9,220.5,181.2,220.8,180.7z"
									/>
								<path class="st87" d="M219.6,180.2c0.1,0,0.2,0,0.2-0.2c-0.2-0.1-0.5,0.6-0.8,0.9C219,181.4,219.6,180.6,219.6,180.2z"/>
								<path class="st87" d="M220.1,175.4c-0.2,0.5,0,0.5,0.1,0.4C220.1,175.8,220.1,175.6,220.1,175.4z"/>
								<polygon class="st87" points="218,179.2 218,179.4 218.4,178.7 								"/>
								<polygon class="st87" points="216.5,178.9 216.1,179.3 216.4,179.3 								"/>
								<path class="st87" d="M216.3,178.7l-0.2-0.1l0,0.2C216.1,179,216.3,178.6,216.3,178.7z"/>
								<path class="st87" d="M215.7,178.4c0.1,0,0,0.1,0,0.1l0.4-0.2L215.7,178.4z"/>
								<path class="st87" d="M214.4,173.6c0.3-0.4,0-0.2,0-0.4C214.3,173.3,214,174,214.4,173.6z"/>
							</g>
						</g>
					</g>
				</g>
			</g>
		</g>
	</g>
</g>
</svg>
